<svg fill="none" height="27" viewBox="0 0 14 27" width="14" xmlns="http://www.w3.org/2000/svg"><path d="m13.3494.613257c.1908.198061.2976.463943.2976.740803 0 .27687-.1068.54275-.2976.74081l-10.65973 11.08773 10.65973 11.0854c.1908.1981.2976.464.2976.7408 0 .2769-.1068.5428-.2976.7409-.0928.0965-.2037.1733-.3261.2257-.1225.0524-.2541.0794-.3871.0794-.1329 0-.2645-.027-.387-.0794s-.2334-.1292-.3261-.2257l-11.335618-11.7931c-.199092-.2071-.310519-.4848-.310519-.774s.111427-.567.310519-.7741l11.335618-11.793025c.0927-.096578.2036-.17334.3261-.225754s.2541-.079418.387-.079418c.133 0 .2646.027004.3871.079418.1224.052414.2333.129176.3261.225754z" fill="#43856a"/></svg>