<svg fill="none" height="27" viewBox="0 0 14 27" width="14" xmlns="http://www.w3.org/2000/svg"><path d="m.776071.822241c-.190799.198059-.297616.463939-.297616.740809 0 .27686.106817.54274.297616.7408l10.659729 11.08765-10.659729 11.0855c-.190799.1981-.297616.464-.297616.7408 0 .2769.106817.5428.297616.7408.092741.0966.203625.1734.326109.2258.12248.0524.25407.0794.38702.0794.13294 0 .26453-.027.38701-.0794.12249-.0524.23337-.1292.32611-.2258l11.33558-11.793c.1991-.2071.3106-.4848.3106-.7741 0-.2892-.1115-.5669-.3106-.774l-11.33558-11.79304c-.09274-.096579-.20362-.173341-.32611-.225755-.12248-.052414-.25407-.079418-.38701-.079418-.13295 0-.26454.027004-.38702.079418-.122484.052414-.233368.129176-.326109.225755z" fill="#43856a"/></svg>