<svg fill="none" height="93" viewBox="0 0 73 93" width="73" xmlns="http://www.w3.org/2000/svg"><path d="m.51019 87.6472c.57655-3.7882 1.52848-14.3176.91045-23.1658-.495668-6.0084-.35257-13.0182-.28828-20.1322.2862-5.9463.23436-8.7166.11407-12.4591l-.23021-.2796c.11822-4.3546.47078-17.4131-.389894-16.6749.089179-1.2389.155544-2.5345.207392-3.8703l.066365-2.03575c.012444-.34355 0-.69441.045626-1.03247.018665-.16995.014518-.34355.051848-.51167l.097473-.51167c.0145-.08531.03598-.16959.06429-.25217l.07881-.25036.07674-.25035c.02488-.08588.06844-.16446.10162-.24669.07051-.16264.13688-.3271.20739-.48791l.26546-.47147c.37671-.62442.85225-1.19847 1.41234-1.70495.57176-.50871 1.2217-.94422 1.93082-1.29378.72336-.33786 1.49581-.58687 2.29583-.74009.81778-.12149 1.64749-.16925 2.47627-.14254h2.5322c1.6882 0 3.3702.02193 5.0335.04386 3.3182.04568 6.5764.12792 9.6416.2869 5.6867-.37096-7.5387-.38923-5.0998-.645067-2.256.075878-4.5154-.006001-6.7568-.244869-.8835-.087714-1.7545-.182738-2.7832-.255833-.5143-.038375-1.0681-.071268-1.6819-.095024-.307-.012792-.6222-.021929-.96857-.031066-.34634-.009136-.67817-.012791-1.11576.000001.41074-.069007.82661-.1117579 1.24433-.1279172.4729-.0274108 1.0017-.0438572 1.5762-.05482156 1.1489-.01279172 2.4763-.01279177 3.8575-.00000016 2.7624.02923802 5.7385.08405932 7.9141-.00000035 6.8584.18273827 3.5588.98313127 11.1494.69623227 7.6486.323445 16.8858.935615 24.2793.783945 2.4452-.25583 7.603-.28873 10.4111-.13157l.5869.28324c2.1237-.05299 4.1064-.18274 6.1306-.24669.9761-.0333 1.9494.11295 2.8578.42943.9683.33746 1.8334.87005 2.526 1.5551.5344.55864.9662 1.18757 1.2797 1.86393.7016.77489 1.1106 1.72374 1.1696 2.71366.0104.14071.0249.27594.0291.42396v.46049l-.0125.95024c-.0145.64504-.0394 1.31574-.0705 2.01014-.1223 2.7721-.3256 5.8951-.2405 9.146.17-1.5861.2841 3.0481.506 4.2158-.4604-.5574-.3712 6.7394-.7923 1.7342.3962 7.675-.7279 11.6952-.0933 18.7708l-.5703 2.9001c-.1016 2.5711.1887 4.7366.3277 6.6955l.562-2.0101c-.2883 5.9481.4272 4.1189.3629 11.2366-.2758-3.9289-.9228-1.1348-1.124 4.0202-.5392 3.8375-.3236 9.9483-.1804 15.52l.0477 2.0576.0186.9996v.4915.2065.1919c-.0084.2489-.0382.497-.0892.7419-.0208.12-.0513.2384-.0912.3545-.0353.1152-.0643.2321-.1037.3436-.1605.4266-.3814.8336-.6574 1.2115-.4504.627-1.0704 1.1457-1.8044 1.5095-.2716.1315-.5616.2311-.8627.296-.2277.0413-.461.0536-.6927.0365-.1203.0421-.2385.0859-.3567.128l-.1784.0676-.1845.0475c-.1224.0329-.2448.0658-.3651.0968-.1202.0311-.2509.0421-.3753.0622-.2486.0417-.5001.0679-.7529.0785h-.0954-.1306-.2613c-.1742 0-.3464 0-.5206 0-1.3833.022-2.7334.0348-4.0607.0421-2.6546.0146-5.2201 0-7.8-.0201-5.162-.0439-10.3842-.1334-16.4981-.1426-13.7542.3125-20.4945-1.2407-33.7841-.5811-.6139-.0548-1.252-.1053-1.9143-.1516-.3318-.022-.6678-.0439-1.00789-.0676-.17213-.011-.34427-.0202-.5164-.0311l-.26132-.0165-.15554-.0237c-.1037-.0165-.20739-.0311-.31109-.0421-.10369-.0109-.20739-.0475-.30487-.0676-.62039-.1351-1.20365-.3787-1.71513-.7163-1.22858-.2349-2.34818-.7909-3.2125-1.5953-.09747-.0914-.20739-.1827-.30072-.2723-.09332-.0895-.17421-.1827-.26339-.2759-.18872-.1828-.32145-.3655-.47492-.5263s-.28206-.3216-.41479-.4605c-.11558-.1275-.24324-.2461-.3816-.3545.03733.1827.06637.254.1037.4513-.13895.0549-.1908.4861-.06222 1.1275.17232.8112.54472 1.5791 1.09088 2.2495.18892.237.39684.4617.62218.6725-1.05957-.6911-1.92037-1.5916-2.513243-2.6291-.59287-1.0374-.90127451-2.183-.90043151-3.3446l-.00000107-24.5618c.73416758 7.4959-.15969142 16.5067.51018558 26.0329z" fill="#cf000c"/></svg>