<svg fill="none" height="73" viewBox="0 0 75 73" width="75" xmlns="http://www.w3.org/2000/svg"><path clip-rule="evenodd" d="m60.7701 57.2228c6.7112-7.8746-1.61-20.3204-8.2867-30.5296-6.3578-9.7218-14.2296-20.96681-24.8191-20.09227-11.3925.94085-16.8548 12.08997-16.658 23.51767.1751 10.169 7.7033 19.3918 17.4888 24.7216 11.1587 6.0776 25.2983 10.5688 32.275 2.3826z" fill="#fdecb2" fill-rule="evenodd"/><path d="m43.7764 29.5807c-.1462-.1422-.3424-.2218-.5467-.2218s-.4006.0796-.5467.2218l-8.183 7.9448-8.1813-7.9448c-.1462-.1422-.3424-.2218-.5467-.2218-.2044 0-.4006.0796-.5468.2218-.0713.0691-.1279.1518-.1666.2431-.0387.0912-.0586.1893-.0586.2884s.0199.1972.0586.2884c.0387.0913.0953.174.1666.2431l8.7035 8.4485c.1529.1484.3579.2315.5713.2315s.4184-.0831.5713-.2315l8.7035-8.4485c.0713-.0691.1279-.1518.1666-.2431.0387-.0912.0586-.1893.0586-.2884s-.0199-.1972-.0586-.2884c-.0387-.0913-.0953-.174-.1666-.2431z" fill="#f08d52"/></svg>