<svg fill="none" height="15" viewBox="0 0 18 15" width="18" xmlns="http://www.w3.org/2000/svg"><path d="m15.1949 14.6383c.5558.2809 1.5191.1716 1.0684-.6588-.1544-.6022 1.241-1.0239.8875-2.559-.1828-1.1089-.5932-2.06506-.9404-3.07403-.6716-1.24174-1.4888-2.42897-2.3848-3.52582-.8114-.66108-1.3611-1.49196-2.0946-2.2086-.7789-.8464-1.7257-1.37447-2.65427-1.977409-1.66237-1.079382-5.01466-.154052-5.22146-.328754-.60668-.3843045-1.95835-.603946-1.74168.748543.03366.51206-.70072.58452-.78887 1.00579-.18188.49453-.433003.54397-.698868.90274-.5574572 1.65252.511278 4.03678 1.713938 5.30734.56755.23004 1.55336.68709 2.24294 1.2734.31551.2388.74292.6888 1.23104.6958.33942.4923.81599.6202 1.39884.8197.60314.3834 1.03431.4658 1.51593.6074.3416.1004.12162.7144.47764.7616.48163-.0563.86302.0521.91192.171.3544.7894 1.2033.7604 2.0934.9973.8167.1747 1.6016 1.418 2.4953 1.0346.1527-.0697.3417-.0952.4881.0072z" fill="#cf000c"/></svg>