<svg fill="none" height="147" viewBox="0 0 149 147" width="149" xmlns="http://www.w3.org/2000/svg"><g fill="#f4ad17"><g clip-rule="evenodd" fill-rule="evenodd"><path d="m5.85978 57.4529c-.60766-3.7013 1.39843-5.992 7.20462-6.9464 1.8229-.3423 3.7003-.2465 5.471.2792 1.0134.3744 2.7042-.5025 3.8797-.1016 12.2751 3.5705 30.3683 10.976 31.5875 18.4021-.3921 10.1687-4.0602 9.5159-7.296 10.9558-4.8556 1.6675-10.2295 1.7394-14.6684-.8443-2.8898-.1473-5.6704-1.1031-8.013-2.7545-1.2088-.4534-2.5412-.2778-3.7765-.7123-3.5938-1.3413-9.4593-3.2123-10.1187-7.2287-.33899-2.0646-2.2959-1.7574-2.48893-2.9332-.22623-1.378.60145-2.3448.38603-3.6569-.23164-1.4109-1.5745-.8183-2.17444-4.4726z"/><path d="m53.2415 13.8243c-1.0215.3619-1.9477.945-2.7094 1.7054-.7618.7605-1.3392 1.6788-1.6891 2.686-3.266.8365-6.1184 4.5819-5.6887 7.1978 1.3892 8.4556 4.5373 17.4405 8.1706 21.7908.4339.9549 1.7409.0578 2.3438.7768 1.105 6.7259 9.4513 15.1331 13.7479 14.4275 4.2052-.6906 6.0495-9.7595 5.7118-11.8145l-4.011-27.2757c-.8789-5.3496-5.0718-9.4628-8.4918-8.9012-.2053-.6778-1.0528-1.1389-1.8688-1.4986-.8159-.3597-4.5124.4458-5.5153.9057z"/><path d="m81.9216 60.0241c1.3093-.0747 2.5962-.3779 3.7999-.8952.5254 1.2472 1.636 2.6929 2.6868 2.3317 1.1418.0732 1.4552-.4518 2.4352-.8835 1.0965-.3832 2.8824-.4738 3.6905-2.1625 1.7102-.2811 3.2315-1.3526 4.8667-3.1724.6503.0075 1.2803-.2338 1.7553-.6728.475-.4389.758-1.0409.789-1.6782.419-.9628 1.405-1.7238 2.105-2.414 1.176-.3237 2.967.039 2.586-2.0726 7.458-7.1015 15.542-14.1174 15.595-22.2096-1.81-4.6793-5.894-7.9506-15.995-7.6624-9.8098 2.3326-14.7473 8.5896-17.8824 16.2995l-2.1363.6604.8755 2.6585c-1.8424.0468-1.1842 1.0209-1.0145 1.8144l-1.9616.4626c.4844 1.2974-.2643 2.3869-.8381 3.52.3828.198.9686.1597.9712.8067-.03 2.6721-.9368 5.0824-1.8228 7.499.6744 4.0783.0416 5.6028-.5054 7.7704z"/></g><path d="m93.0479 80.4942c-2.868.5434-2.161-2.9544-1.0538-4.2555 1.6203-.9078 2.7091-1.5111 3.769-3.3399 1.3521-1.761 2.7362-.6859 4.5489-1.7121 2.105-1.137 4.351-2.5286 6.498-3.0212 3.158-.1859 6.937-.5268 10.094-.5726 4.022.0338 7.879-.0401 11.889.3673 6.682.0841 9.093 2.5151 11.431 6.849 1.211 1.8513 1.093 4.4034.324 6.4112-1.208 1.4382-1.673 2.2672-.1 3.8323.497.8396-1.551 4.3601-2.402 4.7361-2.813 1.3243-5.895 1.9958-9.007 1.9622-2.477-.0756-4.998-.2693-7.298-1.2471-2.165-.8213-4.507-.4319-6.787-.5398-2.381-.1539-5.099.3119-6.79-1.7308-1.532-1.1955-4.008-.2484-5.179-2.0967-1.301-.7174-3.4371.0822-4.6571-2.0041-2.0009-.8387-3.1977-.3237-4.2947-2.4109-.1611-.591-.4282-1.3768-.9843-1.2517z"/><path d="m80.8361 87.529c-1.1048-1.1297-3.5319-1.6744-3.1603.6789-.1486 1.5631-3.896 1.4047-4.3695 5.3532-.5292 2.7965-.3466 5.4132-.3792 8.1039.5738 3.539 1.4871 7.014 2.7276 10.38 1.3923 2.249 2.0046 4.683 3.1609 7 1.1543 2.665 2.9924 4.709 4.7191 6.917 3.0962 3.958 12.0239 4.542 12.3722 5.128 1.1375 1.42 4.2211 3.071 4.8901-.319.363-1.25 2.205-.808 2.783-1.74.87-1.023 1.518-.931 2.476-1.568 2.78-3.471 2.254-10.047.439-14.06-1.682-1.416-3.142-3.067-4.334-4.9-.557-.833-1.201-2.261-2.3776-2.682-.397-1.454-1.4417-2.158-2.6813-3.116-.8882-1.068-1.9521-1.984-3.1484-2.7097-.7381-.5222.3223-1.7996-.4959-2.2071-1.2178-.2837-2.0463-.8443-2.0644-1.1655-.1748-2.1776-2.256-2.813-4.2099-4.1177-1.8261-1.0982-2.6519-4.7123-5.1496-4.5438-.2173.0376-.4404.0185-.647-.0555-.2065-.0739-.3891-.2001-.5293-.3657z"/><path clip-rule="evenodd" d="m62.7565 88.5144c-1.3096.0744-2.5965.3792-3.7991.9-.5214-1.2527-1.632-2.6985-2.6876-2.3365-1.1418-.0732-1.4504.451-2.4304.8827-1.1013.384-2.8823.4738-3.6953 2.1633-1.7102.2811-3.2314 1.3526-4.8666 3.1724-.6501-.0063-1.279.2355-1.7538.6741-.4748.4387-.7584 1.04-.7908 1.6769-.4144.962-1.3987 1.7278-2.105 2.414-1.1754.3237-2.9425-.0429-2.5854 2.0727-7.458 7.101-15.5419 14.117-15.5948 22.209 1.8207 4.63 5.9113 7.909 16.0163 7.616 9.8051-2.332 14.7425-8.589 17.8824-16.3l2.1323-.655-.8715-2.664c1.8424-.046 1.1794-1.02 1.0097-1.813l1.9616-.463c-.4836-1.293.2643-2.387.8429-3.521-.3828-.198-.9734-.159-.976-.806.054-2.676.9416-5.0827 1.8228-7.4985-.6915-4.0319-.0443-5.5589.4883-7.7241z" fill-rule="evenodd"/></g></svg>