<svg fill="none" height="580" viewBox="0 0 257 580" width="257" xmlns="http://www.w3.org/2000/svg"><g fill="#dbf0e5"><g clip-rule="evenodd" fill-rule="evenodd"><path d="m362.857 500.792c-8.213 7.951-17.338 7.022-29.563-5.606-4.665-4.819-7.642-10.22-8.582-13.971-.79-3.151-5.839-5.791-6.828-9.376-11.881-36.447-24.021-93.899-7.54-109.853 26.073-16.784 30.651-6.613 39.731-1.172 12.403 9.042 21.681 22.15 22.739 37.574 5.154 8.654 6.795 16.752 6.691 24.533.924 3.757 3.624 6.735 4.625 10.537 2.791 11.135 8.003 28.887-.921 37.526-4.58 4.434-.498 8.713-3.103 11.235-3.067 2.969-6.867 2.62-9.785 5.445-3.115 3.015.618 5.304-7.464 13.128z"/><path d="m173.398 459.822c2.808 1.683 8.616 5.715 18.377 3.154 7.602 6.552 21.761 7.029 27.555 1.42 18.73-18.131 35.817-41.511 40.524-58.001 1.633-2.727-2.805-4.377-2.026-7.106 14.894-14.418 21.765-49.544 12.701-58.908-8.819-9.109-34.546 2.155-39.105 6.568l-61.213 57.342c-11.859 11.48-15.027 28.934-7.857 36.34-1.333 1.687-1.052 4.569-.571 7.193.481 2.625 8.806 10.316 11.615 11.998z"/><path d="m239.568 308.798c-2.084-2.562-4.566-5.255-8.698-7.798 2.24-3.472 3.965-8.719 1.276-10.686-1.751-2.937-3.583-2.783-6.364-4.4-2.817-2.032-6.035-6.294-11.651-5.313-3.617-3.712-8.82-5.561-16.168-6.445-2.821-4.043-7.556-3.839-10.224-2.116-3.108.653-6.685-.434-9.592-.966-2.803-2.322-4.876-7.313-9.559-2.751-30.367-5.959-61.584-13.6-81.8957.358-8.479 12.556-9.7492 28.342 8.0994 52.691 22.4313 20.058 46.4243 21.291 70.9953 15.558l5.254 4.108 5.172-6.794c3.23 4.453 4.55 1.133 6.24-.677l4.477 4.03c2.415-3.457 6.411-3.52 10.188-4.052-.163-1.282-1.245-2.662.321-3.758 6.729-4.584 14.283-6.556 21.813-8.601 9.099-8.845 13.976-9.95 20.316-12.388z"/></g><path d="m269.828 225.817c7.065 5.03-2.046 10.936-7.174 11.283-5.336-1.583-8.879-2.66-15.1-1.101-6.657.809-7.147-4.473-13.163-6.19-6.836-2.151-14.524-4.084-20.028-7.69-6.919-6.451-15.443-13.925-22.041-20.676-8.201-8.785-16.289-16.976-23.662-26.524-13.571-14.678-13.195-25.037-8.484-39.286 1.578-6.547 7.432-11.687 13.418-14.272 5.655-.419 8.431-1.18 8.637-7.899.813-2.849 12.776-5.866 15.394-4.877 8.655 3.272 16.67 8.574 22.887 15.333 4.897 5.575 9.701 11.404 12.3 18.455 2.65 6.437 8.367 10.711 12.785 15.864 4.565 5.487 11.187 10.387 10.172 18.374.563 5.799 7.708 9.219 6.067 15.669 1.088 4.34 7.181 7.317 5.176 14.341 2.277 6.101 5.869 7.614 3.542 14.406-.964 1.608-2.115 3.801-.726 4.79z"/><path d="m317.356 233.622c-.212 4.773 3.59 11.168 7.978 5.397 3.726-2.979 11.075 5.453 20.699-1.86 7.182-4.775 12.576-10.661 18.54-16.271 6.569-8.613 12.298-18.073 17.146-27.799 2.067-7.761 6.146-14.226 8.847-21.617 3.465-8.117 4.174-16.405 5.464-24.802 2.31-15.033-14.733-35.566-14.163-37.564.776-5.456-1.949-15.6039-10.727-9.8239-3.476 1.8499-6.299-3.0591-9.524-2.3475-4.033.2868-5.17-1.3141-8.518-2.0427-13.318 1.3104-26.628 16.3041-31.724 28.7231.18 4.696.091 13.033-1.837 19.706-.676 2.96-2.476 7.369-.986 10.805-2.374 3.927-1.766 7.664-1.324 12.37-.781 5.429.003 8.705.53 12.52.375 2.707-4.613 3.103-3.821 5.743 1.912 3.192 2.356 6.201 1.678 6.918-4.405 4.968-1.525 10.816-.376 17.789 1.353 6.265-4.87 15.675.63 20.719.968.848 1.743 2.09 1.488 3.437z"/></g></svg>