<svg fill="none" height="36" viewBox="0 0 50 36" width="50" xmlns="http://www.w3.org/2000/svg"><g fill="#fff"><path d="m49.986 13.4329c-.0064-.6524-.0338-1.3058-.0338-1.859-.074-.2343-.1349-.4725-.1826-.7135-.0444-.2597-.1161-.5036-.1826-.7527-.1843-.57206-.4174-1.12724-.6967-1.65939-.4583-.9328-1.0575-1.78944-1.7766-2.53978-.3778-.3557-.7769-.68812-1.195-.99543-.5402-.45009-1.1345-.83095-1.7692-1.13372-.9067-.47502-1.8367-.93421-2.7656-1.3934-.1943-.09395-.3991-.17206-.5975-.24912-.7305-.27657-1.4831-.45919-2.2168-.7252-.3749-.07753-.7444-.17908-1.1062-.30401-.4709-.05619-.9345-.162352-1.3829-.316683-.5036-.119408-1.0135-.209985-1.5274-.271291-.1461-.027374-.2864-.079495-.4149-.154117-.95-.149895-1.8864-.011611-2.81-.21112l-.4486.10556c-.454-.3103473-.8519-.110839-1.2277.015833h-.1668c-.3927 0-.7389-.010556-1.1728 0-.4338.010556-.8677.039057-1.2994.039057-.3844.044427-.7653.114963-1.1401.211121-.3874.039057-.7748.078115-1.1611.078115l-.4814.182619-1.178.10556c-.3758.310346-.8572.144616-1.2446.337796-.3874.19317-.8688.07178-1.2393.34307-.3467.0132-.6864.10182-.9954.25968-.36-.01689-.6481.27129-.9912.27129-.3411.05299-.6739.14985-.9902.28818-.5362.14884-1.0397.3589-1.5929.51935-.5037.23506-1.025.43059-1.5591.58481l-2.5556 1.26672c-.6534.50352-1.4546.77376-2.04684 1.36595-.08867.08867-.23223.11612-.33251.19423-.83479.5432-1.63151 1.14277-2.38461 1.79453-.12945.11392-.27447.20882-.43068.28184-.45391.26073-.7252.74737-1.234.93527-.22168.21112-.44863.40957-.66398.62491-.65581.62967-1.26245 1.30867-1.81458 2.03097-.43576.5897-.82403 1.2131-1.16116 1.8642-.39269.7748-.54258 1.6372-.950046 2.4015-.14884.2819-.071781.6028-.199509.8793-.177293.4849-.310487.9849-.397963 1.4937-.056938.5091-.146495 1.014-.268122 1.5116v1.1084c.0970244.1019.158171.2327.174172.3726.016001.1398-.014016.281-.0855017.4022.0443357.2322.1224507.4434.1224507.6534.040169.3008.06413.6035.07178.9068.165689.4198.257474.8652.271291 1.3163l.812818 1.6499 1.18333 1.2604c.64877.6467 1.39723 1.1848 2.21676 1.594.60909.3262 1.29523.4813 1.8927.8297.43702.0327.80754.3167 1.24983.3167.23766.0411.4697.1098.69142.2048 1.36068.0717 2.78255.0559 4.12745 0l.514-.1879 1.234-.0433c.3891-.0066.7744-.078 1.1401-.2111.1269-.0294.2574-.0404.3874-.0328l1.1675-.0612c.276-.1247.5719-.1997.874-.2217l1.5043-.0337.4148-.1658 2.1693-.0939c.4363-.2144.9325-.2739 1.4071-.1689.0506.0691.0968.1414.1383.2164.0886.1492.1574.3092.2048.4761.2336.7417.6222 1.4254 1.14 2.0056.7229.7453 1.5436 1.3891 2.4395 1.9138.4645.2322.8445.4476 1.405.6693.5606.2216 1.1559.4095 1.7101.5816.2428.0771.5637.0602.7685.1056s.4096.1214.7136.2111c1.2143.0697 2.4317.0697 3.646 0 .3306-.1289.6432-.2999.93-.5088l.7083-.7389h1.0672c.1293-.0009.2579-.0194.3822-.0549.0389-.0131.0746-.0342.1049-.0618.0304-.0276.0547-.0612.0714-.0987.0209-.0807.0091-.1664-.0328-.2385-.1213-.1798-.2927-.3199-.4929-.4033-.5542-.2871-1.1401-.5806-1.6605-.8445-.2766-.2491-.5025-.4486-.7241-.6587-.3185-.2953-.5779-.6485-.7643-1.0408-.1056-.2322-.2428-.4592-.3589-.6914-.1054-.1875-.1907-.3857-.2544-.5911-.0484-.3416-.1319-.6773-.2491-1.0018-.0598-.2084-.0805-.4259-.0612-.6418.0195-.3864-.0364-.7729-.1647-1.138.0519-.07.0893-.1496.1102-.2343.0208-.0846.0246-.1725.0112-.2586-.0275-.0222-.0549-.0771-.094-.0771-.1219-.0358-.2456-.0653-.3705-.0887-.1499-.0274-.3262.0391-.4423-.1161.2111-.1657.4814-.0274.7241-.2428.2428-.2153.5975-.0781.8688-.2164.3874-.1984.8445-.1984 1.2224-.4095.493.039.8962-.2988 1.3839-.2988.7083-.2491 1.4778-.3589 2.2168-.6249.1111-.0621.2334-.1016.3599-.1161.4738-.0146.94-.1222 1.3723-.3167.9966-.2796 1.9621-.6598 2.8818-1.1348.7148-.402 1.3814-.8844 1.9867-1.4377.6938-.6535 1.2686-1.423 1.6984-2.2738.3378-.6481.6471-1.3173.9902-1.9644.1902-.4326.3548-.8761.4929-1.328.1246-.4124.2261-.8314.304-1.2551.0718-.3876.0923-.783.0613-1.1759zm-3.6672-1.3882v2.5673c-.2322.4148-.2217.8793-.4592 1.2498-.1226.5505-.3561 1.0702-.6861 1.5275-.4698.7294-.8192 1.52-1.2889 2.3117-.1614.1087-.3132.2309-.4539.3653-.1647.1976-.3181.4045-.4592.6196-.5922.2987-1.0556.9078-1.5327 1.195-.4772.2871-.9406.5974-1.4494.8444-.6207.2988-1.2599.5572-1.9138.7738-.2863.0961-.5639.2165-.8297.36-.2987.1435-.6027.1002-.8519.304-.4986.1303-.9812.3158-1.4388.5531-.5405.1478-1.0666.3443-1.5718.5869-.4835.184-.9561.3954-1.4155.6334-.4103.1411-.8039.3266-1.1738.5531.0287.0821.0762.1563.1387.2168s.1382.1055.2212.1316c.2323-.0665.4761-.1552.7252-.2112.0619-.0189.1282-.0173.1891.0046s.113.0629.1487.1168c.0443.2323-.1056.4096-.1763.6418-.0686.9651-.0686 1.9337 0 2.8987l.5553 1.2182c.2111.2333.4148.4655.6333.6756.3705.3652.7569.7188 1.1063 1.0556.3857.2216.7828.4228 1.1897.6027.3641.1095.716.2559 1.0503.4371-.0158.0274-.0496.0781-.0496.0781l-.6091.3093c-.6368.0538-1.277.0538-1.9138 0-.0868.0093-.1744-.0042-.2544-.0391-.3167-.2428-.7854-.1541-1.1063-.2818-.3209-.1278-.6471-.2376-.9627-.3706-.4403-.179-.8581-.4093-1.2445-.6861-.3212-.2036-.6539-.3883-.9965-.5531l-1.7091-1.6647c-.5642-.533-1.0422-1.1505-1.4166-1.8304-.2457-.423-.5961-.7756-1.0176-1.024-.1703-.0146-.3419-.0032-.5088.0338-.2406.0995-.4976.1539-.7579.1605h-6.2471c-.3023.0067-.6006.0704-.8793.1879-1.8198.0496-3.6397.1055-5.4268.0496-.8144-.3306-1.60237-.7226-2.3572-1.1728l-.37579-.3484c-.28713-.2596-.54153-.5594-.84449-.8138s-.40324-.6746-.76848-.8625c-.06866-.0517-.11598-.1268-.133-.2111-.02592-.1708-.09016-.3336-.1879-.476-.23041-.261-.37746-.5848-.42224-.93-.27657-.4096-.13828-.9406-.4043-1.3554-.01689-.304-.02744-.5584-.06017-.9068-.03272-.3483-.03378-.6977-.03378-1.0292l-.15517-.3705c-.04433-.2323.10556-.4149.13828-.5975.01689-.5035.04962-.9796.04962-1.4557-.01351-.2617.03989-.5225.15517-.7579.03909-.076.06345-.1588.07178-.2438.00029-.2594.03364-.5176.09923-.7685.23329-.5584.32724-1.1675.55314-1.7206.15509-.449.34024-.887.55419-1.3111.21112-.3484.38107-.7516.62491-1.1063.23462-.4141.51086-.8031.82443-1.1611.18262-.1763.2829-.4307.46024-.625.17734-.1942.37052-.3652.55314-.55309.16824-.19856.37059-.3655.59749-.49297.1151-.06001.2195-.13846.3093-.23223 1.3581-1.20692 2.8229-2.28806 4.3765-3.23015.5101-.32627 1.0468-.60877 1.6045-.84448.4793-.29211 1.002-.50592 1.5486-.63336.7411-.341 1.5068-.62576 2.2906-.85187.4487-.16573.9184-.22168 1.3671-.3758.4329-.20254.9048-.30844 1.3828-.31034.5542-.22168 1.1063-.20479 1.6605-.45919l1.1062-.06651.4371-.18789 2.943-.09923.4813-.16045h1.5486l.4814.17206 1.1611.06017c.3484.01689.6418.23857 1.0007.23857.3021.01593.5994.08118.8804.19317.4225.07789.8399.18153 1.2498.31035.493-.02217.8962.29346 1.3723.34835.3927.2544.8688.16573 1.2615.37052.3307.20465.6852.36807 1.0556.48663.4446.16183.8804.34682 1.3057.55419 1.3018.5961 2.4407 1.49739 3.3199 2.6274.6314.71662 1.0776 1.57704 1.2995 2.506.0309.08134.0661.16098.1055.23855.1056.3262.2111.6524.2935.9849.0605.3391.0811.6842.0612 1.0281z"/><path d="m27.3338 21.8872-.0591-.0602-.075-.039c-.3126-.16-.6723-.202-1.0134-.1183-.3508.0818-.6558.2972-.8504.6003-.1945.3032-.2632.6703-.1914 1.0232.0839.3352.2812.6309.5584.8371.2343.1978.5305.3073.8371.3093.0965-.0002.1928-.0109.2871-.0316.1807-.0392.3503-.1183.4965-.2315.1461-.1133.265-.2578.348-.423.1701-.3194.2181-.6897.1351-1.0419-.0768-.3139-.2407-.5997-.4729-.8244z"/><path d="m28.9921 5.84834c-.5732-.33463-1.254-.42224-2.0225-.25124-.3587.09511-.7081.22229-1.044.38002-.465.2046-.9154.44091-1.348.70725-.4273.25719-.8243.56172-1.1833.90782-.4392.43069-.6133.86665-.5205 1.29417.0277.14002.0831.27308.1631.3913.0799.11821.1828.21919.3025.29696.1103.07465.2346.12638.3653.15213s.2653.02499.3958-.00224c.1182-.02639.2522-.08445.5848-.30718.1953-.12984.4412-.27973.7315-.44546s.5964-.33041.9068-.4898c.2438-.12975.5031-.228.7716-.29241.1092-.02833.2226-.03621.3346-.02322v.00634c.0233.14005.0205.28322-.0084.42224-.038.21745-.0876.44018-.1488.66186-.0556.20576-.1222.40838-.1996.60697-.0781.20055-.1361.34205-.172.42225l-.0127.0274c-.3519.8931-.6608 1.6834-.9268 2.3709-.2686.6823-.4805 1.3856-.6334 2.1028-.1486.7162-.2271 1.4452-.2343 2.1766.0038.887.0979 1.7712.2808 2.639v.0106c.0221.1334.0709.2609.1435.375.0725.1141.1673.2124.2787.289.1011.0678.2147.1146.3342.1377.1195.023.2424.0218.3615-.0037.4275-.0939.722-.4169.8075-.8856l.0063-.0444c.0581-.6069.094-1.1126.1056-1.5031.0116-.3653.0306-.6967.058-.9839.0286-.2789.0816-.5547.1584-.8244.0834-.2924.2248-.6872.4222-1.1738l.0053-.0148c.2082-.5508.4591-1.0844.7505-1.5961.3127-.5533.5946-1.1235.8445-1.7079.2502-.5918.4391-1.2076.5637-1.83783.1326-.70838.1171-1.43653-.0454-2.13865-.1942-.88565-.5901-1.50845-1.177-1.85258z"/></g></svg>