<svg fill="none" height="41" viewBox="0 0 116 41" width="116" xmlns="http://www.w3.org/2000/svg"><path d="m7.57064 32.5407-4.31283-4.4398h3.56106l.18792-.0198.14837-.0214.20774-.0495.14837-.0676.1286-.0709.17805-.117.10883-.1006.10882-.1005.12855-.1698.07914-.1171.05937-.1385.07914-.1879.03955-.1583.01977-.15.01982-.1863v-23.47329h9.03119v23.47329l.0198.1863.0198.15.0494.2078.0693.1384.0593.1385.1187.1764.0891.1072.1088.1006.1582.1384.1286.0808.1286.0693.188.0791.1681.0379.1484.0214.1863.0198h3.5611l-4.3228 4.4398-5.4009 5.5493z" fill="#fff"/><g fill="#e3000b"><path d="m13.0407 40.7229.178-.0116.1979-.0477.1384-.0496.1583-.0593.1781-.1171.1286-.0906.1286-.117.0098-.0116 5.8955-6.0538 5.4307-5.579-.0099-.0099.1269-.1286.1006-.1484.0989-.1698.0693-.1978.0395-.1599.0379-.1764v-.2077l-.0099-.16-.0198-.1483-.0593-.2078-.0593-.1384-.0693-.1385-.117-.1764-.1006-.1171-.1286-.1286-.1682-.1286-.1384-.0791-.1979-.0907-.1978-.0577-.1682-.033-.2077-.0198h-4.4826v-23.45999l-.01-.18797-.0296-.14837-.0313-.14837-.0792-.19783-.0692-.1286-.0692-.11707-.1286-.16981-.1072-.10716-.1088-.100576-.1682-.117027-.1286-.069229-.1582-.06928-.2078-.059319-.1484-.021433-.1978-.021433h-10.41604l-.19783.021433-.14837.021433-.1682.047797-.19783.080802-.12859.069229-.11869.079142-.15828.138461-.10883.10716-.089.10717-.10883.17639-.06923.1286-.05937.13851-.04945.20769-.02969.15003-.00986.18631v23.46171h-4.48102l-.20769.0198-.16819.033-.20769.0577-.187966.0906-.13846.0792-.148421.1088-.148371.1484-.098914.117-.089003.1286-.098914.1863-.0593685.1385-.0395455.1484-.03959578.2077-.00986122.1616v.1747l.0395455.2078.0395455.1598.06928.1864.098914.178.098914.1484.128599.1286-.009912.0099 5.420704 5.579 5.89551 6.0538.0099.0115.1286.1171.1286.0906.1385.1005.1978.0792.1385.0494.1682.0495.2077.0099h.1418zm-5.46854-8.1822-4.31283-4.4398h3.56106l.18792-.0198.14837-.0214.20774-.0495.14837-.0676.1286-.0709.17805-.117.10883-.1006.10882-.1005.12855-.1698.07914-.1171.05937-.1385.07914-.1879.03955-.1583.01977-.15.01982-.1863v-23.47329h9.03127v23.47329l.0197.1863.0198.15.0495.2078.0692.1384.0594.1385.1186.1764.0891.1072.1088.1006.1582.1384.1286.0808.1286.0693.188.0791.1682.0379.1483.0214.1863.0198h3.5611l-4.3227 4.4398-5.401 5.5493z"/><path d="m110.187 38.2269c-.894 0-1.669-.2586-2.328-.7758-.658-.5171-1.198-1.1518-1.622-1.904-.423-.7758-.74-1.5985-.952-2.4683-.211-.8697-.317-1.6455-.317-2.3272 0-.7287.129-1.5632.388-2.5035.282-.9638.67-1.8688 1.164-2.715.517-.8698 1.14-1.5985 1.868-2.1862.729-.5877 1.552-.8815 2.469-.8815 1.034 0 1.88.2586 2.538.7757.659.5172 1.176 1.1636 1.552 1.9394.399.7757.67 1.6102.811 2.5035.164.8932.247 1.716.247 2.4682 0 .7992-.106 1.6808-.318 2.6445-.211.9403-.552 1.8101-1.022 2.6093-.47.7993-1.082 1.4692-1.834 2.0099-.729.5406-1.61.811-2.644.811zm-1.411-18.5823c-.399.6582-.811 1.3164-1.234 1.9746-.423.6346-.823 1.2341-1.199 1.7982-.376.5642-.728 1.0696-1.058 1.5162-.305.4467-.552.811-.74 1.0931-.141.2116-.376.5642-.705 1.0578-.329.4702-.705 1.0226-1.129 1.6573-.423.6112-.893 1.2811-1.41 2.0098-.517.7052-1.046 1.4222-1.5868 2.1509-.5171.6817-1.0343 1.3634-1.5514 2.0451-.5172.6582-1.0226 1.2577-1.5162 1.7983-.4702.5172-.905.9403-1.3047 1.2694-.3761.3291-.6817.4936-.9167.4936-.3056 0-.5054-.1292-.5995-.3878-.0705-.2351-.1057-.4114-.1057-.5289 0-.4232.1528-.9991.4583-1.7278.3056-.7287.6935-1.5162 1.1636-2.3625.4937-.8697 1.0343-1.7747 1.622-2.715s1.1636-1.8453 1.7278-2.7151c.5877-.8697 1.1166-1.6572 1.5863-2.3624.494-.7052.882-1.2694 1.164-1.6925.188-.2821.505-.764.952-1.4457.47-.7052 1.011-1.4927 1.622-2.3625.635-.8697 1.293-1.7747 1.975-2.715.705-.9403 1.387-1.7866 2.045-2.5388.681-.7757 1.293-1.4104 1.833-1.9041.564-.5171 1.011-.7757 1.34-.7757.282 0 .459.1058.529.3174.094.188.141.3526.141.4936 0 .3056-.094.7052-.282 1.1989-.165.4701-.388.999-.67 1.5867-.282.5642-.611 1.1753-.987 1.8335-.376.6347-.764 1.2812-1.164 1.9394zm-14.2451 8.4978c-.8697 0-1.6337-.2586-2.2919-.7758-.6582-.5406-1.1988-1.1871-1.622-1.9393-.4231-.7757-.7404-1.5867-.952-2.433-.2116-.8697-.3173-1.6455-.3173-2.3272 0-.7287.1292-1.5632.3878-2.5035.2821-.9638.67-1.8688 1.1636-2.715.5172-.8698 1.1401-1.5985 1.8688-2.1862s1.5515-.8815 2.4683-.8815c1.0343 0 1.8805.2586 2.5387.7757.6582.5172 1.1754 1.1636 1.5515 1.9394.3996.7757.6699 1.6102.8106 2.5035.165.8932.247 1.716.247 2.4682 0 .7992-.117 1.6807-.352 2.6445-.212.9403-.5528 1.8101-1.023 2.6093-.4701.7992-1.0813 1.4692-1.8335 2.0099-.7287.5406-1.6102.811-2.6446.811zm16.5021-1.7278c-.423 0-.799.1645-1.128.4936-.33.3056-.612.6935-.847 1.1636-.211.4467-.376.9403-.493 1.481-.118.5171-.177.9755-.177 1.3751 0 .3056.036.67.106 1.0931.071.3996.188.7875.353 1.1636.164.3761.364.6935.599.952.235.2586.517.3879.846.3879.424 0 .788-.1528 1.093-.4584.33-.3291.612-.7169.847-1.1636.235-.4701.411-.9638.529-1.4809.117-.5172.176-.9756.176-1.3752 0-.3056-.047-.6582-.141-1.0578-.071-.4231-.188-.8227-.353-1.1989-.141-.3761-.329-.6934-.564-.952-.235-.2821-.517-.4231-.846-.4231zm-15.6205-10.1198c-.4232 0-.7993.1646-1.1284.4937-.3056.3056-.5759.6934-.811 1.1636-.235.4466-.4113.9402-.5289 1.4809-.1175.5172-.1763.9755-.1763 1.3752 0 .3056.0353.6699.1058 1.093.0705.4232.1881.8228.3526 1.1989.1646.3761.3644.6935.5994.952.2351.2586.5172.3879.8463.3879.4231 0 .7875-.1528 1.0931-.4584.3291-.3291.5994-.717.811-1.1636.235-.4701.4113-.9638.5289-1.4809.1175-.5172.1763-.9756.1763-1.3752 0-.3291-.0353-.6934-.1058-1.0931-.0705-.4231-.1881-.8227-.3526-1.1988-.1411-.3996-.3291-.7287-.5642-.9873s-.5171-.3879-.8462-.3879z"/><path d="m87.5786 20.2962c0 2.3135-.3506 4.6446-1.0516 6.9932-.7011 2.3486-1.7352 4.4694-3.1023 6.3623s-3.0672 3.4353-5.1003 4.6271c-1.9981 1.1918-4.3117 1.7878-6.9407 1.7878-2.2434 0-4.259-.5784-6.0468-1.7352-1.7527-1.1568-3.26-2.629-4.5219-4.4168-1.2269-1.7877-2.1734-3.7508-2.8394-5.889-.666-2.1734-.999-4.2591-.999-6.2572 0-2.1032.4031-4.3291 1.2093-6.6777.8413-2.3837 1.9981-4.5921 3.4704-6.6252 1.4722-2.03312 3.2074-3.71571 5.2055-5.04775 1.998-1.33205 4.1538-1.99807 6.4674-1.99807 2.629 0 4.8374.56086 6.6252 1.68258 1.8228 1.12173 3.295 2.57646 4.4168 4.36421 1.1567 1.78775 1.9805 3.80333 2.4713 6.04683.4907 2.2434.7361 4.5044.7361 6.7829zm-7.4665-.2629c0-.8764-.1227-1.8754-.3681-2.9971-.2453-1.1568-.6134-2.2435-1.1041-3.26-.4908-1.0517-1.1393-1.928-1.9455-2.6291-.7712-.7361-1.7002-1.1042-2.7868-1.1042-1.3321 0-2.5239.4207-3.5755 1.262-1.0516.8062-1.9455 1.8228-2.6816 3.0497-.7011 1.2268-1.2444 2.5414-1.63 3.9435-.3856 1.4022-.5784 2.6816-.5784 3.8384 0 .8764.1227 1.8929.368 3.0497.2454 1.1217.6135 2.1909 1.1042 3.2074.5258 1.0166 1.1919 1.8754 1.9981 2.5765s1.7527 1.0516 2.8394 1.0516c1.332 0 2.5063-.4206 3.5229-1.2619 1.0516-.8413 1.9279-1.8579 2.629-3.0497.7362-1.2269 1.2795-2.5414 1.63-3.9436.3856-1.4021.5784-2.6466.5784-3.7332z"/><path d="m55.1541 26.0801c0 2.0331-.3155 3.8384-.9464 5.4158-.631 1.5774-1.5249 2.927-2.6817 4.0487-1.1217 1.0867-2.4888 1.928-4.1013 2.5239-1.5774.5609-3.3476.8413-5.3106.8413-1.0516 0-2.2259-.1928-3.5229-.5784s-2.5064-.9289-3.6281-1.63c-1.1217-.7361-2.0682-1.595-2.8394-2.5765-.7361-1.0165-1.1042-2.1558-1.1042-3.4177 0-.9114.2805-1.63.8413-2.1558.5609-.5258 1.2795-.7887 2.1558-.7887.8413 0 1.5424.1752 2.1033.5258.5959.3505 1.1743.7361 1.7351 1.1567.596.3856 1.2444.7537 1.9455 1.1042.7362.3506 1.6651.5259 2.7868.5259 1.3671 0 2.4713-.4733 3.3126-1.4197.8763-.9815 1.3145-2.1383 1.3145-3.4704 0-1.2268-.2979-2.296-.8939-3.2074-.5959-.9464-1.5599-1.4197-2.8919-1.4197-.5959 0-1.1568.0701-1.6826.2104-.4907.1051-.964.2453-1.4197.4206s-.9114.3505-1.3671.5258c-.4557.1402-.9289.2454-1.4196.3155-.3506.035-.8238 0-1.4197-.1052-.5959-.1051-1.1919-.2804-1.7878-.5258-.5608-.2454-1.0866-.5258-1.5774-.8413-.4908-.3505-.8062-.7011-.9465-1.0516-.1051-.3155-.2103-.9815-.3154-1.9981-.0701-1.0516-.1403-2.1733-.2104-3.3651-.035-1.1919-.0701-2.3311-.1051-3.4178 0-1.0867 0-1.82279 0-2.20838 0-.28043 0-.7186 0-1.31451 0-.63097.0175-1.27947.0526-1.94549.0701-.66603.1402-1.27947.2103-1.84033.1051-.59592.2278-.99904.368-1.20936.2104-.31549.7011-.59592 1.4723-.84129.8062-.28043 1.7527-.54334 2.8394-.78872 1.0866-.24537 2.2609-.4557 3.5229-.630966 1.2619-.210325 2.4713-.385594 3.6281-.525807 1.1567-.140216 2.1908-.245378 3.1022-.315487.9465-.0701071 1.63-.10516 2.0507-.10516.4907 0 .999.0701076 1.5248.210323.5258.105161.9991.297956 1.4197.578388.4206.245379.7712.578389 1.0516.999039.2804.38559.4207.87634.4207 1.47226 0 .9114-.3155 1.64753-.9465 2.20839-.631.52581-1.3496.92893-2.1558 1.20936-.631.21032-1.3846.38559-2.261.52581-.8763.14021-1.7877.28043-2.7342.42064-.9114.10517-1.8228.1928-2.7342.26291-.8763.07011-1.63.12269-2.261.15774l.1052 7.41394c.7011-.1403 1.3846-.2454 2.0507-.3155.701-.0701 1.4021-.1052 2.1032-.1052 3.6456 0 6.4148.9465 8.3078 2.8394 1.8929 1.8578 2.8393 4.592 2.8393 8.2026z"/></g></svg>