<svg fill="none" height="65" viewBox="0 0 33 65" width="33" xmlns="http://www.w3.org/2000/svg"><g fill="#fff"><path d="m19.2545 15.169c.018-.128.055-.256.135-.373.882-1.388 2.603-3.903 4.332-5.466l-3.01-.374c.238.976.121 1.863-.372 2.475-1.193 1.466-3.65 2.513-5.604 2.387-1.432-.081-2.514-1.452-3.01-2.587l-.052-.17-3.236 5.104 10.542 2.025z"/><path d="m20.7773 16.926c1.186-1.67 2.803-4.25 3.694-5.997-1.05 1.095-2.374 2.764-3.565 4.604z"/><path d="m7.82884 17.76-.062-.014-5.29 41.215c-.074.469.201.896.645 1.012l12.56796 2.717c-.023-6.939 2.148-31.838 3.111-42.576-2.897-.17-8.703-1.486-10.97196-2.354z"/><path d="m17.4292 5.562c.414.029.796.159 1.146.36.392.227.729.548 1.031.896 3.102.336 4.836.697 5.818 1.03l.299.044c.135-1.459.281-3.308.259-4.098-1.196-.669-7.489-1.609-10.51-1.398-1.637.113-1.637.113-1.667 1.981-.009.542-.021 1.187-.063 1.966l.225.016c1.108-.546 2.368-.857 3.462-.797z"/><path d="m16.1804 8.996c.463-.314.691-.613.751-.753-.164-.341-.072-.742.205-1.001-1.394-.011-3.181.77-3.998 1.777-.096.108-.141.328-.116.609l.134.009c.976.205 2.112-.03 3.024-.641z"/><path d="m18.6035 8.289c-.013.284-.083.604-.319.979-.763 1.156-2.596 2.16-4.515 2.11.348.446.742.754 1.071.769 1.412.094 3.335-.716 4.188-1.772.174-.216.211-.787-.124-1.54-.081-.2-.186-.377-.301-.546z"/><path d="m27.4817 11.447-2.509 42.237 4.746 6.583c.869-23.611 1.135-38.666.683-40.291-1.076-3.903-2.103-6.8-2.92-8.529z"/><path d="m24.2733 55.598-5.035 7.129 8.752-.559c.314-.039.583-.162.834-.333l-.169-.157z"/><path d="m25.7563 12.092c-.391.74-.916 1.649-1.617 2.78-.238.398-2.033 3.262-3.166 4.542l-2.985 42.171 5.271-7.457z"/></g><path d="m32.0202 19.529c-1.709-6.215-3.273-9.914-4.664-11.1.117-1.191.388-4.119.281-5.043-.033-.369-.335-.694-.813-.97-2.575-1.488-10.345-1.781-11.461-1.704-2.935.204-3.194 1.053-3.241 3.636-.008.704-.017 1.586-.117 2.702-.01.101.006.19.032.288l-5.46801 8.625-.055.155c-.162.138-.278.317-.307.531l-5.408998 42.079c-.195 1.306.621998 2.534 1.933998 2.884l14.06801 3.037c.226.051.448-.01.636-.133l10.707-.676c1.817-.209 3.185-1.689 3.252-3.514.645-17.313 1.278-38.452.625-40.797zm-18.214-15.151c.03-1.868.03-1.868 1.667-1.981 3.021-.211 9.313.729 10.51 1.398.022.79-.124 2.638-.259 4.098l-.299-.044c-.982-.333-2.717-.694-5.818-1.03-.303-.348-.64-.669-1.031-.896-.35-.202-.731-.332-1.146-.36-1.094-.06-2.354.25-3.462.797l-.225-.016c.042-.779.053-1.424.063-1.966zm5.222 5.996c-.853 1.056-2.776 1.866-4.188 1.772-.329-.015-.723-.322-1.071-.769 1.918.049 3.752-.954 4.515-2.11.236-.375.307-.695.319-.979.114.17.22.346.301.545.335.754.298 1.325.124 1.541zm-5.889-1.356c.817-1.007 2.604-1.788 3.998-1.777-.277.26-.369.661-.205 1.001-.06.14-.288.438-.751.753-.912.612-2.047.846-3.024.641l-.134-.009c-.025-.281.019-.501.116-.609zm-1.468 2.043.052.17c.496 1.136 1.579 2.507 3.01 2.587 1.955.126 4.411-.921 5.604-2.387.493-.612.61-1.5.372-2.475l3.01.374c-1.729 1.563-3.45 4.078-4.332 5.466-.08.117-.117.245-.135.373l-.275 3.02-10.54201-2.024zm12.802-.132c-.892 1.747-2.509 4.327-3.694 5.997l.129-1.393c1.191-1.84 2.515-3.509 3.565-4.604zm-8.785 51.76-12.56801-2.716c-.444-.115-.719-.543-.645-1.012l5.29-41.215.062.014c2.27001.868 8.07501 2.184 10.97201 2.354-.963 10.738-3.134 35.636-3.111 42.575zm5.286-43.276c1.133-1.279 2.928-4.143 3.166-4.542.701-1.13 1.227-2.04 1.617-2.78l-2.496 42.036-5.271 7.457zm7.018 42.755-8.752.559 5.035-7.129 4.382 6.08.169.157c-.251.171-.519.294-.834.333zm1.728-1.9-4.746-6.583 2.509-42.237c.816 1.729 1.844 4.626 2.92 8.529.451 1.625.186 16.679-.683 40.291z" fill="#e3000b"/></svg>