<svg fill="none" height="51" viewBox="0 0 57 51" width="57" xmlns="http://www.w3.org/2000/svg"><path d="m34.3901 48.2323 3.4965-.9922c.2742-.1029.5371-.2286.7656-.4114.3199-.2761.5484-.6855.5142-1.1083-.0457-.4913-.4456-.9122-.9141-1.0969-.4685-.1714-.9941-.1486-1.4855-.08-.4684.08-.9255.1961-1.3826.2971-3.6564 1.2112-7.2671 2.5119-10.158 3.9535.2971-9.4153.0228-23.506.0342-33.2965 7.8728-1.6797 15.6542-3.5994 23.5499-5.2333.0114 1.7044-.0115 3.4165-.0229 5.1304.1028.3428.2742.6742.5827.8551.4342.2533 1.0399.1962 1.3827-.1714.2399-.2533.3199-.6036.3656-.9483l.0914-.3562-.1371-5.70174c-.1371-1.56351-2.8909-2.27198-4.0792-2.69666-1.0284-.23995-20.8989-6.593052-21.3674-6.3645244-1.4854-.2856596-18.6479 5.0961844-20.49898 5.4846844-1.79394.51609-4.981881.86843-4.330576 2.69666-.502762-.05714-.651323.30852-.7084546.67416-.2285284 10.68182-.0114292 21.49302.6398756 32.13102.034279.4437.068573 1.1084.502775 1.613.33137.3885.77696.5351 1.06262.6285l21.18464 7.1643c.1371.0571.2856.0572.4227-.0114l.0228.2399c2.6281.0571 7.69-1.7787 10.4666-2.3995z" fill="#e3000b"/><path d="m15.6143 29.3351c1.0512-.697.5827-3.4413.5942-4.5687l.0457-5.2333c.0114-2.2738.1485-4.6162-.0229-6.8901 0-.4799 17.6881-5.24472 21.1275-6.3169.2171-.06856.4684-.18471.5027-.3999.0457-.28376-.2857-.46851-.5713-.56183l-2.9138-.92169c-1.1083-.35802-2.2624-.70847-3.4279-.59611-1.3369.12569-11.5521 3.3822-13.8259 4.10206l-8.23849 2.60527c-.37707 1.9882-.01138 4.3515.0229 6.3645l.11426 4.8562c.02286.7541.07999 1.5197.05713 2.2738-.02285.9237-.23998 1.8511.04568 2.7633.06856.2533.17141.4438.2971.6285.52561.7332 1.45112.9484 2.35382 1.2435.7541.24 1.5197.56 2.2853.7333.5275.1123 1.1103.2152 1.554-.0819z" fill="#fff"/><path d="m24.8579 15.3814c.2057-.9236-.377-1.8529-1.3026-2.0434-7.0386-1.6016-14.08872-3.2927-20.95598-5.40468-1.2112-.3885-1.851064 1.42829-.66272 1.87011 6.87869 2.61667 13.8488 4.78957 20.8646 6.87867.9274.2076 1.8415-.3732 2.0567-1.3007z" fill="#fff"/><path d="m41.0538 40.9993c.3199-.0438.6627-.1161.8455-.3751.2171-.2857.1486-.697.0229-1.0417-.0686-.1962-.16-.3752-.3085-.5238-.2514-.2399-.6171-.3199-.9713-.3447-2.7423-.1714-4.6391-.1599-6.9472-.1466-1.2341.0114-1.874-1.3064-1.3141-2.2852.617-1.0722 1.2227-2.173 1.874-3.2204.08-.1238.2057-.2533.3542-.2418.1714.0133.2742.2056.3656.358.2857.3999.6513.4913 1.1198.4227.5485-.0914 1.017-.5484 1.0284-1.0626v-4.003c-.0114-.5028-.4457-.9465-.9256-1.0627-.5256-.1238-.9826.1028-1.4397.2513-.9712.2971-1.9424.6399-2.9137.9599-.777.2532-1.3255 1.2931-.7999 2.0129.2057.2762.5257.4552.857.48l.2742.0361c.0915.0362.1715.1047.1829.1962 0 .0799-.0457.1466-.0914.2152-.6856.9484-1.2113 1.9443-1.8169 2.9613-.4227.7199-.7541 1.4645-.7655 2.3329-.0228 1.2226.3771 2.2625 1.2569 3.108.7542.7199 1.6911 1.0398 2.7195 1.0512h3.9078l.7884.0134c.9027-.0115 1.7826.0476 2.6967-.0915zm7.7585 2.4129c.4799-.2057.7427-.6056.7427-1.154 0-.3752-.1942-.6628-.4342-.9351-.0343-.0438-.1142-.08-.08-.16.0229-.08.1143-.08.1828-.08h.2286l3.5536-.0133c.7199-.0115 1.4169-.1599 2.0453-.5351.8799-.5352 1.474-1.2931 1.7597-2.2834.3199-1.0855.2514-2.1482-.3085-3.1422-.7313-1.4626-1.6683-2.7519-2.5824-4.0888-.2286-.3561-.4913-.7199-.8684-.8798-.4685-.2038-1.0627-.0362-1.3483.3751-.1486.2057-.2171.4571-.1828.7085.0228.1599.0914.3199.1714.4798.7427 1.5769 1.7253 3.0624 2.5938 4.5706.5827 1.0037-.0801 2.3196-1.3255 2.2967l-2.171-.0133c-.4685 0-1.1655.1847-1.6112.0133-.0571-.0247-.1257-.0571-.16-.1161-.0228-.0362-.0342-.0819-.0228-.1238.0114-.0572.0571-.0934.0914-.1257.5828-.5599.6285-1.5635-.1714-1.9634-.5713-.2762-1.074-.2038-1.5311.2513l-2.4224 2.4205c-.5027.5161-.5371 1.2246-.0457 1.7254.8455.8798 1.7139 1.7368 2.5938 2.5805.377.3637.857.3866 1.3026.1923zm2.7538-15.0162c.4342-.3199.4913-.8341.6627-1.2931l.7884-2.3748c.1143-.3561.2857-.7084.2514-1.1083-.0457-.5161-.4113-.9732-.937-1.1217-.4456-.1219-1.0169.08-1.2912.4685-.2628.3656-.3199.7998-.4798 1.2131-.0343.0666-.0115.1847-.1144.2037-.1028.0115-.1713-.0799-.217-.1714l-3.5308-6.0331c-.7541-1.2683-1.8625-1.9768-3.3708-1.9882-.3085.0114-.6284.0115-.9369.1029-1.0627.2971-1.8625.9369-2.4224 1.8853-1.2455 2.1234-2.5481 4.2278-3.7479 6.3874-.0914.1599-.1828.3313-.2171.5161-.0914.4342.1486.9026.5371 1.1312.377.2171.8683.2171 1.2683.0362.5484-.24.7998-.6951 1.0627-1.1884.3313-.6532.7427-1.2797 1.1083-1.9082l2.1825-3.7364c.537-.9237 1.8168-.9122 2.3652.0114l2.2967 3.9211.8113 1.3922c.0457.0686.1028.1485.0571.2285-.0571.1162-.1485.0362-.2285.0248-.1828-.0248-.3657-.0457-.5599-.0248-.4913.0438-.9713.4666-1.0512.9351-.1029.6284.1714 1.2131.6856 1.4168l1.4739.5161 2.3196.7637c.457.1504.8684.0819 1.2341-.2057z" fill="#e3000b"/></svg>