<svg fill="none" height="55" viewBox="0 0 50 55" width="50" xmlns="http://www.w3.org/2000/svg"><g fill="#e3000b"><path d="m27.1859 53.9894c.1788.0377.3695.0954.5483.0715.584-.0377.9536-.6099 1.2396-1.1105 2.0977-3.6829 4.9106-6.8077 7.509-10.1212 1.5018-1.9189 3.1704-3.7048 4.7556-5.5661l.882-.5125c.5602-.3099.1788-1.2654-.441-1.0489-5.2562 1.7521-9.6663 5.9138-12.0977 10.9416.0357-.878.1311-1.7262.3814-2.6082.7151-2.4434 2.1811-4.5908 3.5637-6.6985.7986-1.2157 1.3231-2.6917.1312-1.9666-2.7891 1.6686-4.8749 4.2312-6.2932 7.1275-.4291.8939-1.1681 4.3862-2.1336 4.567-.2264-1.182-.5244-2.36-1.2276-3.3513-.6913-1.0012-1.7879-1.766-3.0036-1.7997.0238.584.1669 1.168.3099 1.7401.7509 3.0275 1.5018 6.0688 2.7175 8.9393.2384.5602.6079 1.3826 1.2634 1.5296.5602.1291 1.2277-.2543 1.8951-.1331z"/><path d="m49.9416 29.3769c.0834-.445-.0596-.7271-.3933-1.2277-.6079-.9178-2.0739-2.5507-4.0048-3.4804-1.8117-.8601-3.385-1.8374-4.6126-1.466-.8939.2881-1.7164.7629-.298 2.7056 1.4064 1.9428 4.4934 3.981 6.8176 4.1935 2.3362.2285 2.4077-.2959 2.4911-.725z"/><path d="m30.9158 14.4901c.9893-.5145 3.7187-2.1216 6.8057-6.09057 3.0989-3.96902 5.6854-9.330544 1.478-7.890334-4.2074 1.440214-6.031 6.293194-7.056 7.556604-1.037 1.26539-3.5758 3.9571-3.3255 5.9595.0974.7986 1.1224.9654 2.0978.4648z"/><path d="m42.2065 18.4335c2.2408-1.3231 3.2062-3.2043 2.2527-3.8022-.9536-.5979-6.3529-.8085-8.1169-.5383-1.9785.2959-5.3992 1.1104-6.0548 1.6189-.5482.443-.6198 1.0727-.5721 1.5157.0596.4291.2027.739 2.6103 1.4442 2.3957.6933 7.6401 1.0966 9.8808-.2383z"/><path d="m37.2696 28.3736c.2384-1.5157-1.2038-3.2162-2.5387-5.1947-1.4184-2.1335-3.6114-3.5896-4.8153-4.1617-.6436-.296-1.0131-.4172-1.5137-.2503-.5005.1808-1.0965.3596-.441 3.089.6675 2.7155 3.6234 6.0052 6.174 7.352 2.5388 1.3369 2.9679.2881 3.1347-.8343z"/><path d="m21.2646 23.3458c2.6579-2.5169 3.5041-3.4109 3.7664-4.1478.286-.7768-.1073-1.1959-1.3707-1.1701-1.7878.0457-2.9321.0973-7.2467 1.8375-4.3147 1.7521-3.5996 3.9214-4.0883 5.3616-.4767 1.4442-.0476 2.7036 1.2635 3.0373 1.3091.3377 5.0059-2.3897 7.6758-4.9185z"/><path d="m24.2086 16.955c1.0012-.2245 1.1443-.3338 1.4065-.9436.2622-.6079-.4529-1.7859-1.919-3.4684-1.4779-1.6925-7.9022-4.52724-9.559-4.9444-1.6567-.40326-1.5256.30788-2.9678 1.1442-1.44222.84625.2026 2.799 2.8009 4.5987 2.5984 1.8018 7.7235 4.2114 10.2384 3.6135z"/><path d="m28.5122 5.68178c-.0954-3.41081-2.1097-5.921768-4.1836-5.6635238-2.062.2502988-2.3957 1.5614138-1.1561 7.1533938 1.2396 5.58005 3.9452 6.83945 3.9452 6.83945 2.0599-2.4513 1.4779-4.92248 1.3945-8.32932z"/><path d="m10.7985 54.2018c.4887.2761 1.0728.4311 1.5972.2384.5483-.2126 1.0489-.9436 1.4541-1.7143.3337.1192.6913.2026 1.0489.1668.1907-.0139.3933-.0595.5483-.1668.8582-.5602 1.2515-3.1844 1.5733-4.1955l1.621-4.9444c1.3349-4.0902 2.6817-8.1764 4.0524-12.2547 1.2992-3.8598 2.36-7.9957 4.124-11.6806.2026-.4549-.4291-.7747-.6914-.3715-3.4207 5.7092-5.9833 12.1117-8.7842 18.1427-1.1562 2.4911-2.3123 4.9941-3.4207 7.5209-.3576.8085-1.4184 2.6897-1.9786 4.2432l2.7175-18.842-.1549-.2761-.2145-.0457c-1.5495 2.0481-2.8129 5.1252-3.6234 8.3929-.3338-4.9702.4052-9.9166-5.92375-17.1275.84625 5.3039 2.64598 10.2364 3.48031 16.0171l-.16683.6417-.21455-.0577c-.441-3.6929-3.20623-11.1104-6.12638-12.1454-.65554.8224 1.83551 7.0203 2.27652 8.5936.6317 2.2665 1.22768 4.5411 1.71635 6.8394.40525 1.9071 1.38258 4.6743 1.04884 6.6032-1.46603-3.0056-3.84978-5.5682-6.75801-7.2249.0715138.9436.595942 1.7858 1.06078 2.6082 1.33493 2.3501 2.35993 4.875 3.0274 7.4872.22646.8701.41716 1.7541.82241 2.5507.40524.7966 1.08462 1.5018 1.94278 1.7282 1.90704.4907 2.03813-1.762 3.94513-.7271z"/></g></svg>