<svg fill="none" height="39" viewBox="0 0 35 39" width="35" xmlns="http://www.w3.org/2000/svg"><path d="m5.56675 5.13034c-4.938079 4.53592-6.65462 12.02026-4.893854 18.48996 1.069514 3.9283 3.316004 7.528 6.375434 10.2145 1.71225 1.5035 3.68847 2.7318 5.85597 3.4349 2.3925.7761 4.9543.8958 7.4645.7375 4.5758-.2888 9.4616-1.7356 12.1176-5.4725 1.493-2.1007 2.1151-4.7169 2.2353-7.2916.6592-14.1199-15.3622-32.78262-29.15495-20.11276z" fill="#e3000b"/><g fill="#fff"><path d="m11.0821 14.0645c-1.17518 0-2.22309-.9529-2.22309-2.2546 0-.4446.09502-.9527.34881-1.3652.88968-1.5243 3.23958-2.3822 5.43068-2.3822 2.5724 0 5.0811 1.30196 5.6209 3.5891.0633.253.095.6349.095 1.0477 0 3.0485-2.4131 5.1761-5.1443 7.5572-1.6518 1.4293-1.9051 2.3507-1.9051 5.2717 2.3181-.4131 2.953.5081 4.7313.5081.5396 0 .8579-.5399 1.5242-.5399 1.1437 0 2.4772.8894 2.4772 2.2231 0 .5399-.1273 1.0797-.6356 1.6193-.8889.9212-1.4285 1.2702-3.2385 1.2702l-.1908-.0635-.5711-.1588c-2.3189-.6666-2.9538-.6348-5.1451.2541-1.048.413-2.0326.0635-2.76298-.6981-.6346-.6354-.8569-2.573-.8569-4.2237 0-1.048.12727-1.8734.12727-2.572.25404-3.3025 1.93681-4.8268 3.68341-6.3195 1.1434-.9529 2.5404-1.8741 3.239-3.6839.0635-.1268.0635-.2858.0635-.3808 0-1.0794-2.3181-.6986-2.6672.2223-.6354.7936-1.3345 1.0794-2.0006 1.0794z"/><path d="m25.4387 30.6091c-2.1276-1.3652.0958-4.6045 2.4452-2.8895 2.0326 1.8416-.2856 4.2872-2.4452 2.8895z"/></g></svg>