<svg fill="none" height="27" viewBox="0 0 32 27" width="32" xmlns="http://www.w3.org/2000/svg"><path d="m16.6218 22.6252c.0453.6526.6618 1.4635 1.1691.6103.4606-.4631 1.5915.5698 2.7871-.5746.9028-.7611 1.5453-1.6455 2.2695-2.5014.7598-1.2738 1.3923-2.6497 1.9007-4.0482.1606-1.0878.6152-2.0307.8678-3.0781.3453-1.1581.313-2.2966.3581-3.45902.0807-2.08089-2.5567-4.6096-2.5101-4.89019.0207-.75425-.5076-2.09249-1.6121-1.16983-.4441.30565-.9043-.31833-1.332-.17144-.5442.10166-.7238-.09845-1.1906-.14558-1.7914.38513-3.3692 2.63161-3.8696 4.40028.0975.63601.2148 1.77161.0563 2.70928-.046.4132-.2225 1.0409.0336 1.4853-.2619.5711-.1212 1.07.0121 1.7034-.022.7506.1355 1.1841.2666 1.695.0929.3624-.5795.4938-.4307.8406.3097.4045.4168.807.3358.9151-.5221.7443-.0395 1.495.2251 2.4258.2813.8313-.419 2.2082.4075 2.8088.1449.1003.2696.2573.2558.4445z" fill="#fff"/><path d="m19.9272 21.4243c.3317.564.2815 1.5814-.6193 1.1643-.6418-.1216-.9907 1.3697-2.6238 1.1016-1.175-.1175-2.205-.4839-3.2861-.7805-1.3469-.6212-2.6464-1.3987-3.85638-2.2648-.74741-.8066-1.65536-1.3274-2.45581-2.0485-.93955-.7601-1.55655-1.7176-2.25083-2.6509-1.2429-1.6709-.4968-5.2477-.69381-5.4528-.44351-.61047-.76418-2.01304.66843-1.87628.53915.00105.56603-.77381 1.00184-.8944.50638-.22377.54142-.49039.89983-.79314 1.69543-.69499 4.26683.2662 5.67943 1.44226.2792.57972.8243 1.5828 1.4852 2.26666.2715.3148.7719.7329.8119 1.2442.5389.323.7048.8142.9529 1.412.4424.6067.5576 1.0533.7383 1.5488.1281.3515.7571.0798.8305.4499-.0268.5088.1123.9014.2403.9447.8514.3189.8777 1.2109 1.1855 2.1284.2379.8447 1.594 1.5845 1.2517 2.5472-.0628.1647-.0769.3646.0402.5113z" fill="#fff"/><path d="m16.6218 22.6252c.0453.6526.6618 1.4635 1.1691.6103.4606-.4631 1.5915.5698 2.7871-.5746.9028-.7611 1.5453-1.6455 2.2695-2.5014.7598-1.2738 1.3923-2.6497 1.9007-4.0482.1606-1.0878.6152-2.0307.8678-3.0781.3453-1.1581.313-2.2966.3581-3.45902.0807-2.08089-2.5567-4.6096-2.5101-4.89019.0207-.75425-.5076-2.09249-1.6121-1.16983-.4441.30565-.9043-.31833-1.332-.17144-.5442.10166-.7238-.09845-1.1906-.14558-1.7914.38513-3.3692 2.63161-3.8696 4.40028.0975.63601.2148 1.77161.0563 2.70928-.046.4132-.2225 1.0409.0336 1.4853-.2619.5711-.1212 1.07.0121 1.7034-.022.7506.1355 1.1841.2666 1.695.0929.3624-.5795.4938-.4307.8406.3097.4045.4168.807.3358.9151-.5221.7443-.0395 1.495.2251 2.4258.2813.8313-.419 2.2082.4075 2.8088.1449.1003.2696.2573.2558.4445z" stroke="#fff" stroke-linejoin="round" stroke-width="6"/><path d="m19.9272 21.4243c.3317.564.2815 1.5814-.6193 1.1643-.6418-.1216-.9907 1.3697-2.6238 1.1016-1.175-.1175-2.205-.4839-3.2861-.7805-1.3469-.6212-2.6464-1.3987-3.85638-2.2648-.74741-.8066-1.65536-1.3274-2.45581-2.0485-.93955-.7601-1.55655-1.7176-2.25083-2.6509-1.2429-1.6709-.4968-5.2477-.69381-5.4528-.44351-.61047-.76418-2.01304.66843-1.87628.53915.00105.56603-.77381 1.00184-.8944.50638-.22377.54142-.49039.89983-.79314 1.69543-.69499 4.26683.2662 5.67943 1.44226.2792.57972.8243 1.5828 1.4852 2.26666.2715.3148.7719.7329.8119 1.2442.5389.323.7048.8142.9529 1.412.4424.6067.5576 1.0533.7383 1.5488.1281.3515.7571.0798.8305.4499-.0268.5088.1123.9014.2403.9447.8514.3189.8777 1.2109 1.1855 2.1284.2379.8447 1.594 1.5845 1.2517 2.5472-.0628.1647-.0769.3646.0402.5113z" stroke="#fff" stroke-linejoin="round" stroke-width="6"/><path d="m16.6219 22.625c.0453.6527.6618 1.4636 1.1691.6104.4606-.4632 1.5915.5698 2.7871-.5746.9028-.7611 1.5453-1.6456 2.2695-2.5014.7598-1.2739 1.3922-2.6498 1.9007-4.0482.1606-1.0879.6151-2.0307.8677-3.0781.3454-1.1581.3131-2.2967.3582-3.45906.0807-2.08088-2.5567-4.60959-2.5102-4.89019.0208-.75425-.5075-2.09248-1.612-1.16983-.4441.30565-.9043-.31832-1.332-.17144-.5442.10167-.7238-.09844-1.1906-.14557-1.7914.38513-3.3692 2.63161-3.8696 4.40028.0974.636.2148 1.7716.0562 2.70931-.0459.4132-.2224 1.0409.0337 1.4853-.262.571-.1212 1.07.0121 1.7034-.022.7506.1355 1.1841.2666 1.695.0929.3623-.5795.4938-.4308.8405.3097.4046.4169.8071.3358.9152-.522.7443-.0394 1.495.2252 2.4258.2813.8312-.419 2.2081.4075 2.8088.1449.1003.2696.2572.2558.4444z" fill="#e3000b"/><path d="m19.9301 21.4242c.3316.5639.2814 1.5813-.6194 1.1643-.6417-.1217-.9906 1.3696-2.6238 1.1016-1.175-.1175-2.2049-.4839-3.2861-.7805-1.3469-.6212-2.6464-1.3987-3.85634-2.2648-.74742-.8066-1.65537-1.3274-2.45582-2.0486-.93954-.7601-1.55654-1.7175-2.25082-2.6508-1.2429-1.6709-.4968-5.2477-.69381-5.4529-.44351-.61041-.76418-2.01298.66842-1.87622.53915.00106.56603-.7738 1.00185-.8944.50637-.22377.54142-.49038.89982-.79313 1.69544-.69499 4.2668.26619 5.6795 1.44226.2791.57972.8243 1.5828 1.4851 2.26669.2715.3148.7719.7329.8119 1.2442.5389.323.7049.8141.9529 1.4119.4425.6068.5576 1.0534.7383 1.5489.1282.3515.7572.0798.8305.4499-.0268.5088.1123.9014.2403.9447.8514.3188.8777 1.2109 1.1856 2.1283.2378.8447 1.5939 1.5846 1.2517 2.5473-.0629.1647-.077.3646.0402.5113z" fill="#f7a600"/></svg>