<svg fill="none" height="39" viewBox="0 0 34 39" width="34" xmlns="http://www.w3.org/2000/svg"><path d="m17.572.0438291c-6.6549.5540689-12.87391 4.8467809-15.75144 10.8730709-2.87726 6.0263-2.306581 13.5613 1.44629 19.0851 3.75261 5.5238 10.54705 8.8309 17.20985 8.3758 3.0774-.2099 6.1735-1.2171 8.4783-3.267 3.5058-3.119 4.6784-8.1496 4.6013-12.841-.1472-8.9507-4.7631-23.160041-15.9843-22.2259709z" fill="#e3000b"/><g fill="#fff"><path d="m12.3425 12.1621c-.3618.2304-.8559.3948-1.3823.3948-2.17306 0-2.60074-2.4686-1.48181-3.98306 1.84341-1.51447 4.21351-3.19301 6.78131-2.76481 2.403.4274 5.069 2.79773 5.069 5.29977 0 1.2837-.6588 2.5675-1.7449 3.357 1.5474 1.0868 3.1601 2.5676 3.9502 4.4112.4281 1.0534.6262 2.2387.6262 3.4564 0 4.1805-3.1277 7.2424-7.4065 7.2424-4.2463 0-8.5591-2.8638-9.3162-7.3735.26308-1.0205 1.05336-2.1726 2.5676-2.3045 1.1845.0992 1.8763 1.0204 2.1396 1.9092.2634 1.7449 1.613 3.2264 3.3579 3.2264 1.58 0 3.7194-1.3496 3.7194-3.292 0-2.0741-3.4887-4.1479-5.4314-4.5426-.8888-.1975-2.1726-1.1192-2.1726-2.3045 0-1.7441 1.3826-2.3701 2.7657-2.995l.164-.0666c.2633-.0656 1.6793-.6252 1.6793-.9541 0-.5267-1.1526-.4282-1.5803-.4282-.8237.1649-1.6127.79-2.1064 1.5142z"/><path d="m27.6887 28.9503c-2.2052-1.4159.0995-4.7738 2.5349-2.996 2.1067 1.909-.296 4.4439-2.5349 2.996z"/></g></svg>