<svg fill="none" height="39" viewBox="0 0 34 39" width="34" xmlns="http://www.w3.org/2000/svg"><path d="m13.4408.364811c-3.3169.691269-6.17432 2.918899-8.16192 5.662639-1.98761 2.74373-3.18527 5.98085-4.08026 9.24865-1.497009 5.4645-2.074638 11.7613 1.18491 16.3959 3.78064 5.3761 11.21637 6.518 17.78867 6.4958 2.3302-.0077 4.7319-.1189 6.8484-1.0945 5.1449-2.3723 6.8303-8.874 6.852-14.5397.0396-10.4837-7.8152-24.79805-20.4318-22.168789z" fill="#e3000b"/><g fill="#fff"><path d="m12.9284 7.52471c1.005-.86589 2.1484-1.80108 3.1526-1.80108.6932 0 1.2132.38084 1.5593 1.31685v9.11152c-.0343 3.0142-.0343 5.3361-.0343 8.3498.7622 0 1.663 0 2.3554-.0346 1.5247.4163 2.3562 1.4557 2.3562 2.4255 0 1.1087-.8661 2.1481-2.5292 2.3909-1.4903 0-3.1182.069-4.6773.1727-1.3168.1045-3.0835.2081-4.3311.2081-1.83567-.1735-2.73703-1.3515-2.73703-2.4602 0-1.1779.93601-2.3207 3.04893-2.39.2078 0 .7278-.0347 1.1439.0693 0-1.9402 0-3.9151.0346-5.8899v-2.8416c0-1.1087.069-1.905 0-2.7718-1.4903-.1726-2.49455-1.2469-2.49455-2.3556 0-.8316.31185-1.52477 1.14335-2.00954.138-.0352.1727-.06985.2081-.10422l.4153-.31182c.3115-.10366.8661-.55434 1.3858-1.07431z"/><path d="m26.0328 29.0754c-2.3219-1.4895.1036-5.0238 2.6669-3.1526 2.2177 2.0095-.3115 4.6768-2.6669 3.1526z"/></g></svg>