<svg fill="none" height="51" viewBox="0 0 52 51" width="52" xmlns="http://www.w3.org/2000/svg"><path d="m25.7186 49.1206c12.9937 0 23.5272-10.4919 23.5272-23.4343 0-12.9425-10.5335-23.43439-23.5272-23.43439s-23.52719 10.49189-23.52719 23.43439c0 12.9424 10.53349 23.4343 23.52719 23.4343z" fill="#fff"/><path d="m51.0594 24.4297c-.2284-6.1682-2.8557-11.8796-6.9678-16.22018.514-.51407 1.028-1.02805 1.542-1.5992 1.2566-1.25645-.6854-3.1983-1.9418-1.94185-.514.51398-1.0852 1.08513-1.5991 1.59911-2.8558-2.45574-6.1683-4.28343-9.8236-5.31148-5.3115-1.484949-11.0801-1.256453-16.2202.79965-4.6262 1.88468-8.2815 5.14015-11.2514 9.08105-1.77052 2.2845-3.02698 4.5119-3.71237 7.3676-.685307 2.8557-1.08513 5.8256-1.08513 8.7383.114248 5.9398 2.513 11.2513 5.76847 16.163l.05708.0572c-.39982.514-.79955 1.028-1.08513 1.5991-.39982.6854.39983 1.4279 1.02805 1.0281.97088-.5141 1.82761-1.3137 2.68433-2.1704 3.1412 3.3126 8.053 5.54 12.3936 6.5109 5.0831 1.1423 9.8806.6854 14.6211-1.2565 2.056-.8566 4.1692-1.7134 5.8827-3.084 2.1132-1.6564 3.6552-3.8838 5.0831-6.0541 2.9698-4.5118 4.8546-9.8234 4.6261-15.3063zm-18.2191-8.7953c-.7425.7424-1.4849 1.4849-2.2274 2.2274l-1.7135 1.7704c-1.6562 1.6564-3.2554 3.3126-4.9117 4.9689l-1.8276 1.9419c-.971.9709-1.8848 1.9418-2.8558 2.9128l-1.7133 1.6563c-2.7415 2.7986-5.4829 5.6542-8.22431 8.4528-.28557.2856-.57115.571-.85672.8566-2.34158-3.3697-4.22635-6.9678-4.85467-11.08-.57115-4.1121-.22841-9.4237 1.59919-13.2503 1.71336-3.6552 5.14011-7.25345 8.50991-9.48088 3.8837-2.5129 8.5098-3.59812 13.1361-3.25538 4.7975.34256 9.2524 2.28451 12.7362 5.31148-1.7134 1.71348-3.3697 3.42678-5.0831 5.08318zm-1.1423 4.9688c.8566-.8566 1.7704-1.7705 2.6273-2.6273l2.056-2.0561c1.4849-1.4849 2.9699-2.9699 4.4548-4.4548.3427-.3427.6283-.6282.971-.9709 2.6843 2.9128 4.6262 6.5109 5.4829 10.5088.9138 4.6834.2855 9.6522-1.7135 13.8785-1.9418 4.1122-4.6261 8.0531-8.7383 10.1092-1.9419.9709-3.9979 1.9989-6.1112 2.57-2.3987.6854-5.1402.6283-7.596.3427-2.7415-.3427-5.4259-1.1994-7.9389-2.3416-1.9418-.9138-3.7123-2.056-5.5971-3.0841.17133-.1714.28558-.2856.4569-.4569 3.1412-3.0841 6.2825-6.1112 9.4237-9.2523l1.6563-1.6564c1.0853-1.0851 2.1704-2.1132 3.1984-3.1983l2.3988-2.3417c.8567-.9138 1.7705-1.7704 2.6272-2.6272z" fill="#e3000b"/><path d="m45.8595 24.2397c-.089-.9675-.2577-1.9413-.5014-2.8951-.2804-1.0936-.6903-2.0828-1.219-2.9422-.9119-1.4797-2.3763-2.3271-4.0189-2.3271-.8447 0-1.6284.2134-2.3296.6342-.2025.1214-.3955.2564-.5782.4042-.1054-.1227-.2168-.2404-.3339-.3527l-.0018-.0017-.0017-.0017c-.5404-.5165-1.4886-1.1321-2.9372-1.1321-.7375 0-1.4477.1945-2.0871.5599-.0322-.5475-.1176-1.085-.2563-1.6031-.2137-.7946-.5663-1.4943-1.0489-2.0836l-.0023-.0028-.0022-.0028c-.7833-.9518-1.9221-1.476-3.2065-1.476-1.332 0-2.575.5743-3.5003 1.6169-.6067.685-1.1011 1.5296-1.4712 2.5125-.0504.1337-.0988.2712-.1463.4103-.5034-1.0642-1.1444-2.0081-1.9129-2.8099-1.2077-1.2604-2.8286-1.9267-4.6872-1.9267-1.2775 0-2.4621.3381-3.5211 1.0046-.8558.5381-1.6312 1.2344-2.30369 2.0686-.61848.7669-1.15872 1.6459-1.60578 2.6123-.38591.834-.73078 1.6882-1.02471 2.5385-.28641.8281-.53625 1.6507-.7422 2.4444-.19406.7465-.35434 1.4129-.47611 1.9797-.23453 1.0563-.44261 2.1266-.61839 3.1817-.19462 1.1674-.29337 2.3623-.29337 3.5512 0 .3619.0155.8007.04743 1.3411.0412.7041.16167 1.3948.35778 2.0517.23211.782.58572 1.4878 1.04958 2.0937.80725 1.0578 2.01498 1.6423 3.39794 1.6423 1.40722 0 2.70062-.5687 3.64202-1.6013.4749-.5218.8819-1.1155 1.2152-1.7715.219.5828.501 1.1223.8437 1.6125.9061 1.2978 2.3147 2.0131 3.9657 2.0131 1.3162 0 2.4796-.4808 3.3648-1.3902.118-.1214.2289-.2487.3361-.3789.0403.0579.0802.1162.1218.1725.8815 1.1923 2.1287 1.8496 3.5114 1.8496 1.5159 0 2.5078-.6009 3.0727-1.1049.4123-.3685.757-.7968 1.0343-1.2773.4088.3732.857.7081 1.344 1.0012 1.243.7485 2.7464 1.128 4.4684 1.128 1.72 0 3.2314-.3833 4.4921-1.1394 1.2066-.7241 2.1867-1.6912 2.914-2.8751.6537-1.0634 1.1254-2.2701 1.4017-3.586.2472-1.1814.3724-2.3929.3724-3.6028.0001-.5229-.0408-1.2229-.1248-2.1398z" fill="#fff"/><g fill="#e3000b"><path d="m21.1232 22.8951c-.1501-.7306-.3231-1.6158-.52-2.6556-.1967-1.0397-.4916-2.0373-.8851-2.9926-.3935-.9554-.9132-1.7705-1.5596-2.4448-.6463-.6745-1.4942-1.0117-2.5431-1.0117-.7122 0-1.3586.1827-1.939.548-.581.3654-1.1057.8386-1.5738 1.4192-.4684.5808-.8759 1.2461-1.2224 1.9952-.3468.7494-.651 1.5033-.9132 2.2619-.26246.7588-.48725 1.4991-.67435 2.22-.18757.7213-.33718 1.3445-.44957 1.8687-.22478 1.0118-.42154 2.0234-.59017 3.035-.16864 1.0115-.25291 2.0329-.25291 3.063 0 .2998.01402.6884.04223 1.1661.02803.4777.10747.9371.23889 1.3771.13077.4403.31834.8197.56196 1.1381.24325.3188.59017.4777 1.03974.4777.58038 0 1.06308-.2108 1.44728-.6324.3838-.4215.6975-.9225.9414-1.5034.2432-.5803.4258-1.1802.5479-1.7985.1217-.6181.2011-1.1333.2389-1.5455 1.2926-.1685 2.5945-.3653 3.906-.59.0374.4312.0655 1.0023.0843 1.7142.0184.712.0984 1.4097.2389 2.0935.1404.684.3838 1.2742.7306 1.7704.3464.4961.8571.7446 1.5315.7446.5058 0 .9177-.1643 1.2365-.4918.3183-.3276.562-.7209.7307-1.1803.1685-.4588.2854-.9456.3512-1.4613.0655-.5149.0984-.9598.0984-1.3347 0-1.2177-.0844-2.4351-.2529-3.6531-.1689-1.2177-.3656-2.4168-.5903-3.597zm-4.44 1.3769c-1.0494.1875-2.1264.328-3.2317.4215.0186-.2059.0704-.6225.1546-1.2504.0843-.6274.2012-1.2738.3513-1.939.1497-.6648.3324-1.2549.548-1.7703.2152-.5151.4637-.7728.7447-.7728.3372 0 .5993.1967.7868.59.187.3935.3275.843.4216 1.3489.0934.5058.1545 1.0073.1825 1.5035.0282.4965.0422.857.0422 1.0818z"/><path d="m28.9033 17.584c0-.2812-.0048-.6275-.014-1.0398-.0096-.4119-.0658-.8101-.1685-1.1944-.1032-.3837-.2627-.7068-.4777-.9694-.2156-.262-.5199-.3934-.9133-.3934-.4874 0-.9133.2064-1.2787.6182-.3652.4122-.6699.9414-.9132 1.5877-.2436.6463-.4451 1.3726-.6042 2.1778-.1593.8058-.2858 1.5926-.3792 2.3605-.094.7685-.1546 1.4754-.1828 2.1217-.0281.6464-.042 1.1478-.042 1.5033 0 .3188.0139.8009.042 1.4473.0282.6463.0747 1.3585.1405 2.1357.0655.7776.1639 1.5784.2952 2.4026.1308.8247.309 1.5692.5338 2.234.2248.6653.4961 1.2132.8149 1.644.3184.4308.693.6463 1.124.6463.468 0 .8334-.1172 1.096-.3513.2623-.2344.4637-.529.6043-.8851.1405-.3556.229-.7351.2669-1.1382.0373-.4027.0561-.7728.0561-1.11 0-1.311-.0421-2.6176-.1265-3.9199-.0841-1.302-.1263-2.5994-.1263-3.8921 0-1.0116.0422-2.0091.1263-2.9927.0842-.9835.1264-1.9812.1264-2.9928z"/><path d="m42.8979 24.5108c-.075-.8148-.2154-1.625-.4214-2.4306-.2065-.8053-.4966-1.5126-.8712-2.1217-.375-.6085-.8712-.9132-1.4893-.9132-.3 0-.5669.0702-.801.2108-.2344.1405-.4354.323-.6042.5479-.1687.2248-.2998.4734-.3934.7447-.0939.2718-.1405.5388-.1405.8009 0 .1685.0093.2999.0282.3935.0935.7868.1966 1.5736.3091 2.3604.1124.7869.1685 1.5833.1685 2.3886 0 .356-.0189.7495-.0561 1.1803-.0378.4312-.1264.8385-.2671 1.2224-.1405.3842-.3468.7074-.6181.9694-.2719.2626-.6511.3935-1.138.3935-.3563 0-.6372-.1028-.8431-.3093-.2064-.2058-.3654-.4635-.4778-.7727-.1123-.309-.1826-.6366-.2107-.9836-.0282-.3463-.0422-.6507-.0422-.9132 0-.5431.0281-1.0911.0843-1.644.0562-.5522.1308-1.1002.2248-1.6439.0562-.4119.1168-.8149.1827-1.2083.0653-.3934.0985-.8053.0985-1.2365 0-.2809-.0189-.5901-.0563-.9273-.0377-.3372-.1171-.6555-.2387-.9554-.1221-.2995-.2908-.5523-.506-.7587-.2154-.206-.5106-.3092-.885-.3092-.3934 0-.7495.1828-1.0679.5481-.3188.3654-.5997.8008-.8431 1.3067-.2437.5057-.4453 1.0165-.6041 1.5316-.1594.5154-.2669.9228-.3231 1.2223-.1313.5435-.2248 1.0915-.2811 1.6439-.0561.5529-.0841 1.1008-.0841 1.6438 0 .9933.0983 1.9769.2949 2.9507.1968.9742.5244 1.8454.9837 2.6133.4587.7683 1.077 1.3865 1.8546 1.8548.7771.4679 1.7563.7023 2.9365.7023 1.1803 0 2.1681-.2388 2.9647-.7165.796-.4777 1.4332-1.1052 1.9109-1.8829.4777-.7771.8192-1.6578 1.0257-2.6414.2058-.9835.309-1.9812.309-2.9927-.0001-.4308-.038-1.0539-.1126-1.8688z"/></g></svg>