<svg fill="none" height="146" viewBox="0 0 303 146" width="303" xmlns="http://www.w3.org/2000/svg"><path clip-rule="evenodd" d="m151.755 95.3836s6.155-22.1689-1.918-29.4402c-17.068-2.9292-104.4869 1.4197-115.2134 6.7744-1.2333 3.1336-4.2607 27.3712 3.5132 30.4742 8.3968 3.359 37.2251 2.718 113.6182-7.8084z" fill="#fff" fill-rule="evenodd"/><path d="m52.6543 89.4961c0 .4232-.1777.821-.5332 1.1934-.3385.3723-.7871.7109-1.3457 1.0156-.5417.3047-1.1511.5755-1.8281.8125-.6771.22-1.3457.4062-2.0059.5586-.6602.1692-1.2865.2962-1.8789.3808-.5755.0847-1.0326.127-1.3711.127-.3216 0-.6686-.0339-1.041-.1016-.3555-.0508-.6517-.1777-.8887-.3808-.1354-.1016-.2539-.3301-.3555-.6856-.1015-.3555-.2031-.7786-.3046-1.2695-.0847-.4909-.1608-1.0156-.2286-1.5742-.0677-.5756-.1269-1.1341-.1777-1.6758-.0338-.5417-.0677-1.041-.1015-1.4981-.017-.457-.0254-.8125-.0254-1.0664 0-.4231.0084-.931.0254-1.5234.0338-.6094.0761-1.2526.1269-1.9297.0508-.694.1185-1.3965.2031-2.1074.0847-.711.1778-1.3796.2793-2.0059.1185-.6432.2539-1.2187.4063-1.7265.1692-.5079.347-.9056.5332-1.1934.3216-.457.7278-.6855 1.2187-.6855.3386 0 .6263.1184.8633.3554.237.2201.4232.5163.5586.8887.1523.3555.2624.7617.3301 1.2187.0846.4402.1439.8803.1777 1.3204.0339.4401.0508.8463.0508 1.2187v.8887c0 1.3203-.0339 2.6321-.1016 3.9355-.0507 1.2865-.0761 2.5899-.0761 3.9102v.9902c.7617-.237 1.5911-.457 2.4882-.6601.8972-.2201 1.752-.3301 2.5645-.3301.2878 0 .5755.0169.8633.0508.3047.0338.567.11.7871.2285.237.1015.4232.2624.5586.4824.1523.2031.2285.4824.2285.8379zm11.2734-1.0156c0 .5755-.1862 1.1425-.5586 1.7011-.3554.5417-.8125 1.0326-1.3711 1.4727-.5416.4232-1.1256.7702-1.7519 1.041-.6263.2539-1.2018.3809-1.7266.3809-.8971 0-1.7011-.2201-2.4121-.6602-.694-.457-1.278-1.0325-1.7519-1.7265-.474-.6941-.8379-1.4558-1.0918-2.2852-.237-.8464-.3555-1.6673-.3555-2.4629 0-.8463.1185-1.7519.3555-2.7168.237-.9648.5924-1.8535 1.0664-2.666.4909-.8125 1.1002-1.4896 1.8281-2.0313.7448-.5416 1.625-.8125 2.6406-.8125.5755 0 1.1257.1016 1.6504.3047.5248.1862.9818.4571 1.3711.8125.3893.3555.7025.7787.9395 1.2696.2369.4908.3554 1.041.3554 1.6504 0 .7955-.1692 1.5403-.5078 2.2343-.3385.694-.7871 1.2949-1.3457 1.8028-.5586.5078-1.2018.9225-1.9297 1.2441-.7278.3047-1.4726.474-2.2343.5078.0677.4909.2623.8464.5839 1.0664.3386.2201.7364.3301 1.1934.3301.3385 0 .6686-.0846.9902-.2539s.6348-.3555.9395-.5586c.3047-.2201.6009-.4147.8887-.584.3046-.1693.6093-.2539.914-.2539.3386 0 .6433.11.9141.3301.2708.22.4062.5078.4062.8633zm-4.1132-6.2207c0-.2201-.0593-.4486-.1778-.6856s-.3047-.3554-.5586-.3554c-.3724 0-.6855.1015-.9394.3046-.2539.1862-.4655.4317-.6348.7364-.1693.2877-.3047.6009-.4062.9394-.0847.3386-.1355.6517-.1524.9395.237-.0508.5163-.1185.8379-.2032.3385-.0846.6517-.1946.9395-.33.3046-.1524.5585-.3386.7617-.5586.22-.2201.3301-.4824.3301-.7871zm22.8769 3.1738c0 .7448-.0846 1.5657-.2539 2.4629-.1523.8802-.4232 1.7012-.8125 2.4629-.3724.7617-.8717 1.3965-1.498 1.9043-.6094.5078-1.3796.7617-2.3106.7617-.237 0-.4824-.0169-.7363-.0508-.2539-.0338-.4994-.0931-.7363-.1777-.2201-.0847-.4232-.1947-.6094-.3301-.1862-.1523-.3301-.347-.4317-.584l-.2285 3.6563c-.0169.3893-.0338.8548-.0508 1.3964 0 .5417-.0677 1.058-.2031 1.5489-.1185.4909-.3301.9056-.6348 1.2441-.2877.3555-.7109.5335-1.2695.5335-.3216 0-.5924-.17-.8125-.5081-.22-.3216-.3978-.7363-.5332-1.2441-.1185-.5078-.2116-1.0749-.2793-1.7012s-.11-1.2272-.1269-1.8027c-.017-.5756-.0254-1.1003-.0254-1.5743 0-.4739 0-.8209 0-1.041 0-1.1341-.0085-2.2597-.0254-3.3769-.0169-1.1341-.0254-2.2683-.0254-3.4024 0-.2031 0-.5162 0-.9394 0-.4401.0169-.9141.0508-1.4219.0338-.5078.0846-1.0326.1523-1.5742.0847-.5417.2031-1.0326.3555-1.4727.1523-.457.347-.8209.584-1.0918.2369-.2877.5247-.4316.8633-.4316.22 0 .4147.0677.5839.2031.1862.1185.3386.2793.4571.4824.1354.1862.2454.3894.33.6094.0847.2201.1524.4232.2032.6094.5247-.5925 1.1256-1.041 1.8027-1.3457.694-.3047 1.4303-.4571 2.209-.4571.8125 0 1.4726.2286 1.9805.6856.5247.457.9309 1.0241 1.2187 1.7012.3047.6771.5163 1.4049.6348 2.1836.1185.7617.1777 1.4557.1777 2.082zm-3.6309-.2031c0-.2539-.0253-.5078-.0761-.7617-.0339-.2709-.1101-.5163-.2285-.7364-.1016-.237-.2539-.4232-.4571-.5586-.2031-.1523-.457-.2285-.7617-.2285-.4062 0-.8379.1354-1.2949.4063-.4401.2539-.7702.5501-.9902.8886-.0847.1355-.1355.3555-.1524.6602s-.0254.5332-.0254.6855v.4825c.0169.1862.0339.3808.0508.5839.0169.2032.0339.3978.0508.584.0338.1862.0762.3301.1269.4317.0508.1523.1608.2962.3301.4316.1693.1185.3555.2285.5586.3301.2031.1015.4063.1777.6094.2285.22.0508.4062.0762.5586.0762.3554 0 .6432-.1354.8633-.4063.22-.2708.3893-.5924.5078-.9648.1354-.3724.22-.7533.2539-1.1426.0508-.4062.0761-.7363.0761-.9902zm15.9707 4.1894c0 .3047-.0169.7025-.0507 1.1934-.017.4909-.0847.9733-.2032 1.4472-.1184.4571-.3046.8549-.5585 1.1934-.254.3385-.6094.5078-1.0665.5078-.6263 0-1.1087-.2031-1.4472-.6094-.3386-.4062-.4994-.914-.4824-1.5234-.5417.474-1.1595.8464-1.8536 1.1172-.677.2708-1.3711.4062-2.082.4062-.4909 0-.9564-.1184-1.3965-.3554s-.8294-.5417-1.1679-.9141c-.3386-.3724-.6094-.7871-.8125-1.2441-.2032-.474-.3047-.9395-.3047-1.3965 0-.8125.2454-1.5234.7363-2.1328.5078-.6094 1.1256-1.1257 1.8535-1.5489.7279-.4401 1.4981-.7871 2.3106-1.041.8294-.2539 1.5657-.4231 2.2089-.5078 0-.0846 0-.1608 0-.2285.017-.0677.0254-.1439.0254-.2285 0-.5248-.1438-.9479-.4316-1.2695-.2878-.3217-.694-.4825-1.2188-.4825-.4231 0-.7871.0762-1.0918.2285-.3046.1355-.5924.2963-.8632.4825-.2709.1692-.5417.3301-.8125.4824-.2709.1354-.5756.2031-.9141.2031-.3724 0-.694-.1185-.9648-.3554-.2539-.237-.3809-.5417-.3809-.9141 0-.5586.1608-1.0664.4824-1.5235.3386-.457.7533-.8378 1.2442-1.1425.5078-.3216 1.0494-.5671 1.625-.7364.5924-.1862 1.1341-.2793 1.625-.2793.457 0 .914.0593 1.3711.1778.457.1015.8886.2708 1.2949.5078.4062.22.7702.4993 1.0918.8379.3385.3216.6093.7025.8125 1.1426.3047.6263.5501 1.2949.7363 2.0058.1862.694.3301 1.4134.4316 2.1582.1016.7279.1693 1.4642.2032 2.209.0338.7279.0507 1.4388.0507 2.1328zm-4.0624-.8125-.0762-1.7265c-.0339 0-.0677 0-.1016 0-.0338-.017-.0677-.0254-.1015-.0254-.2201 0-.4994.0592-.8379.1777-.3217.1016-.6348.2539-.9395.457-.3047.1862-.567.3978-.7871.6348-.2031.237-.3047.4824-.3047.7363 0 .237.0846.3978.2539.4825.1693.0846.364.1269.584.1269.3724 0 .7702-.0931 1.1934-.2793.4231-.2031.7955-.3978 1.1172-.584zm14.3962-5.1035c-.237.0169-.44 0-.609-.0508-.169-.0677-.339-.1354-.508-.2031-.152-.0677-.305-.127-.457-.1777-.152-.0677-.322-.0931-.508-.0762-.338.0169-.643.11-.914.2793-.254.1693-.491.3808-.711.6348-.203.2539-.381.5416-.533.8632-.152.3047-.271.6094-.355.9141-.051.2031-.094.5163-.127.9395-.017.4062-.026.8463-.026 1.3203-.017.4909-.025.9563-.025 1.3965 0 .4401-.017.7871-.051 1.041-.017.2708-.059.5924-.127.9648-.068.3555-.178.694-.33 1.0156-.1354.3216-.3216.5925-.5586.8125-.237.2201-.5417.3301-.9141.3301-.2877 0-.5416-.0846-.7617-.2539-.2031-.1693-.3808-.3893-.5332-.6601-.1354-.2878-.2539-.6179-.3555-.9903-.0846-.3724-.1523-.7532-.2031-1.1426-.0508-.4062-.0931-.8125-.1269-1.2187-.017-.4063-.0339-.7871-.0508-1.1426 0-.3724 0-.7109 0-1.0156.0169-.3047.0254-.5501.0254-.7363-.017-.5925-.0508-1.1849-.1016-1.7774-.0338-.6094-.0508-1.2103-.0508-1.8027 0-.3724.017-.7871.0508-1.2442.0339-.457.127-.8802.2793-1.2695.1523-.4062.3724-.7448.6602-1.0156.3046-.2709.7194-.4063 1.2441-.4063.2878 0 .5332.0931.7363.2793.2032.1862.364.4147.4824.6856.1358.2708.2368.5586.3048.8633.068.3046.11.5839.127.8378.406-.6601.863-1.1933 1.371-1.5996.508-.4231 1.168-.6517 1.98-.6855.407-.0169.804.0254 1.194.1269.406.0847.77.237 1.092.4571.338.2031.609.4739.812.8125.22.3385.339.7363.356 1.1933.033.5417-.127.9564-.483 1.2442-.355.2877-.787.4401-1.295.457zm12.797-5.6875c0 .3216-.034.6348-.101.9395-.051.2877-.153.5416-.305.7617-.152.22-.356.3978-.61.5332-.253.1185-.567.1777-.939.1777-.423 0-.736-.0846-.939-.2539-.204-.1693-.347-.3724-.432-.6094-.068-.2539-.102-.5247-.102-.8125 0-.2877-.017-.5501-.05-.7871-.017-.2539-.077-.4655-.178-.6347-.102-.1693-.288-.2539-.559-.2539-.254 0-.465.1946-.635.5839-.152.3894-.279.8379-.38 1.3457-.102.5079-.17 1.0072-.203 1.4981-.034.4739-.051.7956-.051.9648.22-.0338.431-.0592.634-.0761.204-.0339.424-.0508.661-.0508s.482.0254.736.0762c.254.0507.491.1354.711.2539.22.1015.398.2539.533.457.136.1862.203.4232.203.7109 0 .3047-.135.5755-.406.8125-.254.237-.567.4401-.939.6094-.356.1523-.72.2793-1.092.3809-.373.1015-.669.1692-.889.2031.051 1.168.076 2.3444.076 3.5293 0 1.1172-.025 2.2174-.076 3.3008-.034.5247-.22.9563-.559 1.2949-.321.3385-.744.5078-1.269.5078-.288 0-.533-.0592-.736-.1777-.204-.1016-.373-.2455-.508-.4317-.136-.1862-.246-.3978-.33-.6347-.068-.237-.11-.4825-.127-.7364-.085-1.0156-.153-2.0312-.203-3.0468-.051-1.0326-.068-2.0652-.051-3.0977-.119.0169-.237.0254-.356.0254-.101 0-.211 0-.33 0-.203 0-.448-.0254-.736-.0762s-.567-.1354-.838-.2539c-.254-.1354-.474-.2962-.66-.4824s-.279-.4232-.279-.711c0-.3723.127-.6855.381-.9394.236-.2539.524-.457.863-.6094.355-.1692.719-.2877 1.092-.3554.389-.0678.727-.1185 1.015-.1524v-.4062c0-.8295.076-1.7181.229-2.6661.152-.9479.423-1.8281.812-2.6406.39-.8125.923-1.4811 1.6-2.0058.677-.5417 1.54-.8125 2.59-.8125.66 0 1.227.1438 1.701.4316.474.2708.863.6348 1.168 1.0918.305.4401.525.9479.66 1.5234.135.5586.203 1.1257.203 1.7012zm10.182 7.9219c0 .931-.093 1.8535-.28 2.7676-.186.914-.499 1.735-.939 2.4629-.44.7109-1.033 1.2864-1.777 1.7265-.728.4401-1.642.6602-2.743.6602-1.083 0-1.988-.2116-2.716-.6348-.728-.4401-1.312-1.0156-1.752-1.7266-.423-.7109-.728-1.5149-.914-2.4121-.17-.8971-.254-1.8112-.254-2.7422 0-1.0156.118-2.0227.355-3.0214.051-.2709.144-.6433.28-1.1172.152-.4909.338-.9649.558-1.4219.237-.474.499-.8802.787-1.2188.305-.3385.635-.5078.99-.5078.339 0 .61.0931.813.2793s.364.4232.482.711c.119.2708.195.567.229.8886.034.3047.051.584.051.8379 0 .3894-.034.7702-.102 1.1426-.051.3724-.11.7448-.178 1.1172-.067.5078-.135 1.0156-.203 1.5234-.051.5078-.076 1.0157-.076 1.5235 0 .2539.009.5416.025.8633.034.3046.102.6009.204.8886.101.2878.245.5332.431.7364.186.1862.449.2793.787.2793.44 0 .787-.1185 1.041-.3555.271-.237.466-.5332.584-.8887.136-.3555.22-.7363.254-1.1426.034-.4062.051-.7786.051-1.1172 0-.7447-.051-1.4726-.152-2.1836-.102-.7278-.195-1.4641-.28-2.2089-.017-.0847-.025-.2032-.025-.3555 0-.2539.042-.5078.127-.7617s.203-.4824.355-.6856c.153-.2031.339-.3639.559-.4824.22-.1354.466-.2031.736-.2031.373 0 .703.1354.991.4062.287.2539.524.5925.711 1.0157.203.4062.363.8717.482 1.3964.135.5079.237 1.0157.305 1.5235.084.4909.135.9564.152 1.3965.034.4401.051.7871.051 1.041zm16.961-1.1172v1.3203c0 .5417-.017 1.1341-.051 1.7774-.017.6432-.068 1.2949-.152 1.955-.085.6433-.22 1.2272-.407 1.752-.169.5247-.389.9564-.66 1.2949s-.618.5078-1.041.5078c-.372 0-.66-.1523-.863-.457-.186-.3216-.322-.694-.406-1.1172-.085-.4232-.136-.8548-.153-1.2949 0-.4401 0-.7871 0-1.041 0-.7618.026-1.5066.076-2.2344.051-.7279.077-1.4727.077-2.2344 0-.0846 0-.237 0-.457 0-.2201-.017-.4401-.051-.6602-.034-.22-.093-.4147-.178-.584-.068-.1692-.178-.2539-.33-.2539-.305 0-.55.1608-.736.4825-.187.3046-.339.6686-.457 1.0918-.119.4231-.203.8463-.254 1.2695-.051.4062-.085.7109-.102.914-.034.2201-.068.5502-.101.9903-.017.4401-.051.9225-.102 1.4472-.034.5248-.102 1.0664-.203 1.625-.085.5417-.203 1.0411-.356 1.4981-.135.4401-.313.804-.533 1.0918-.22.2877-.491.4316-.812.4316-.406 0-.72-.1777-.94-.5332-.22-.3554-.381-.7702-.482-1.2441-.102-.474-.169-.9564-.203-1.4473-.017-.4909-.026-.8717-.026-1.1426 0-.2877 0-.567 0-.8379.017-.2708.026-.5501.026-.8378 0-.1185 0-.3132 0-.584 0-.2709-.009-.5671-.026-.8887 0-.3385-.017-.6855-.05-1.041-.017-.3555-.051-.6771-.102-.9649-.051-.3046-.127-.5501-.228-.7363-.102-.1862-.221-.2793-.356-.2793-.22 0-.423.1439-.609.4317-.187.2708-.347.6009-.483.9902-.135.3724-.245.7448-.33 1.1172-.068.3724-.101.6432-.101.8125v.1523c0 .8125.05 1.6081.152 2.3867.102.7787.152 1.5743.152 2.3868 0 .4739-.152.914-.457 1.3203-.304.3893-.728.584-1.269.584-.39 0-.711-.1439-.965-.4317-.254-.3047-.466-.694-.635-1.168-.169-.4739-.305-.9902-.406-1.5488-.085-.5755-.144-1.1341-.178-1.6758-.034-.5586-.059-1.0579-.076-1.498 0-.457 0-.7956 0-1.0156 0-.2539-.008-.6263-.025-1.1172 0-.4909.008-1.0241.025-1.5996.034-.5755.085-1.1595.152-1.752.068-.6094.178-1.1595.33-1.6504.153-.4909.347-.8886.584-1.1933.254-.3216.576-.4825.965-.4825.44 0 .796.1185 1.067.3555.287.237.431.5925.431 1.0664 0 .1016-.008.2031-.025.3047 0 .1016-.009.1947-.026.2793.187-.2708.415-.5417.686-.8125.271-.2878.559-.5417.863-.7617.322-.237.66-.4232 1.016-.5586.355-.1523.711-.2285 1.066-.2285.339 0 .644.0931.914.2793.271.1862.508.4232.711.7109.203.2708.373.5671.508.8887.136.3216.229.6263.279.914.17-.3046.373-.6093.61-.914.254-.3216.525-.6009.812-.8379.288-.237.601-.4316.94-.584.355-.1523.719-.2285 1.092-.2285.355 0 .66.1269.914.3809.254.2539.474.5839.66.9902.186.3893.33.8379.431 1.3457.102.4909.187.9818.254 1.4726.068.474.11.9226.127 1.3457.017.4063.026.7279.026.9649z" fill="#e3000b"/><g fill="#fff"><path d="m5.29263 122.16c-.91734 0-1.71734-.187-2.4-.56-.68267-.373-1.216-.885-1.6-1.536-.384005-.651-.576005-1.397-.576005-2.24 0-.651.106667-1.248.320005-1.792.21333-.544.512-1.013.896-1.408.384-.405.83733-.715 1.36-.928.53333-.224 1.10933-.336 1.728-.336.576 0 1.10933.107 1.6.32.49066.203.912.496 1.264.88.36266.373.64.816.832 1.328s.27733 1.072.256 1.68l-.01601.704h-6.79999l-.368-1.392h5.296l-.256.288v-.352c-.02134-.288-.11734-.549-.288-.784-.16-.235-.368-.416-.624-.544s-.544-.192-.864-.192c-.46934 0-.86934.091-1.2.272-.32.181-.56534.448-.736.8-.17067.352-.256.779-.256 1.28 0 .512.10666.955.32 1.328.224.373.53333.667.928.88.40533.203.88.304 1.424.304.37333 0 .71466-.059 1.024-.176.30933-.117.64-.32.992-.608l1.088 1.52c-.30934.277-.65067.512-1.024.704-.37334.181-.75734.32-1.152.416-.39467.096-.784.144-1.168.144zm8.20697 0c-.7893 0-1.4933-.128-2.112-.384-.608-.267-1.0986-.629-1.47197-1.088l1.40797-1.216c.3307.352.6987.608 1.104.768.4054.149.8107.224 1.216.224.16 0 .304-.016.432-.048.1387-.043.256-.096.352-.16.096-.075.1654-.16.208-.256.0534-.107.08-.219.08-.336 0-.235-.096-.421-.288-.56-.1066-.053-.272-.117-.496-.192-.224-.085-.512-.176-.864-.272-.544-.139-1.008-.299-1.392-.48-.3733-.192-.672-.405-.896-.64-.192-.224-.3413-.464-.448-.72-.096-.267-.144-.56-.144-.88 0-.384.0854-.731.256-1.04.1707-.32.4054-.592.704-.816.3094-.224.6614-.395 1.056-.512.3947-.128.8107-.192 1.248-.192.4374 0 .864.053 1.28.16s.8.261 1.152.464c.3627.192.6774.421.944.688l-1.216 1.344c-.192-.181-.4106-.347-.656-.496-.2346-.149-.48-.267-.736-.352s-.4853-.128-.688-.128c-.1813 0-.3466.016-.496.048-.1386.032-.256.08-.352.144s-.1706.149-.224.256c-.0426.096-.064.203-.064.32s.0267.229.08.336c.064.107.1494.197.256.272.1174.064.288.139.512.224.2347.085.5494.181.944.288.512.139.944.293 1.296.464.3627.171.6507.368.864.592.1814.192.3147.411.4.656.0854.245.128.517.128.816 0 .523-.1493.992-.448 1.408-.288.405-.688.725-1.2.96-.512.224-1.088.336-1.728.336zm5.8118-.16v-10.608h2.272v10.608zm-1.584-6.432v-2.032h5.584v2.032zm14.6271 6.432-3.552-8.464h2.496l2.256 6.32-.528.096 2.368-6.416h2.432l-3.728 8.464zm7.0516 0v-8.464h2.272v8.464zm1.12-10.208c-.4373 0-.7786-.107-1.024-.32-.2453-.213-.368-.517-.368-.912 0-.363.1227-.656.368-.88.256-.235.5974-.352 1.024-.352.4374 0 .7787.112 1.024.336.2454.213.368.512.368.896 0 .373-.128.672-.384.896-.2453.224-.5813.336-1.008.336zm6.4267 10.368c-.7894 0-1.4934-.128-2.112-.384-.608-.267-1.0987-.629-1.472-1.088l1.408-1.216c.3306.352.6986.608 1.104.768.4053.149.8106.224 1.216.224.16 0 .304-.016.432-.048.1386-.043.256-.096.352-.16.096-.075.1653-.16.208-.256.0533-.107.08-.219.08-.336 0-.235-.096-.421-.288-.56-.1067-.053-.272-.117-.496-.192-.224-.085-.512-.176-.864-.272-.544-.139-1.008-.299-1.392-.48-.3734-.192-.672-.405-.896-.64-.192-.224-.3414-.464-.448-.72-.096-.267-.144-.56-.144-.88 0-.384.0853-.731.256-1.04.1706-.32.4053-.592.704-.816.3093-.224.6613-.395 1.056-.512.3946-.128.8106-.192 1.248-.192.4373 0 .864.053 1.28.16s.8.261 1.152.464c.3626.192.6773.421.944.688l-1.216 1.344c-.192-.181-.4107-.347-.656-.496-.2347-.149-.48-.267-.7361-.352-.2559-.085-.4853-.128-.6879-.128-.1814 0-.3467.016-.496.048-.1387.032-.256.08-.352.144s-.1707.149-.224.256c-.0427.096-.064.203-.064.32s.0266.229.08.336c.064.107.1493.197.256.272.1173.064.288.139.512.224.2346.085.5493.181.944.288.512.139.944.293 1.296.464.3626.171.6506.368.864.592.1813.192.3146.411.4.656.0853.245.128.517.128.816 0 .523-.1494.992-.448 1.408-.288.405-.688.725-1.2.96-.512.224-1.088.336-1.728.336zm5.1877-.16v-8.464h2.272v8.464zm1.12-10.208c-.4373 0-.7787-.107-1.024-.32s-.368-.517-.368-.912c0-.363.1227-.656.368-.88.256-.235.5973-.352 1.024-.352.4373 0 .7787.112 1.024.336.2453.213.368.512.368.896 0 .373-.128.672-.384.896-.2453.224-.5813.336-1.008.336zm8.4586 10.368c-.3733 0-.736-.053-1.088-.16s-.672-.251-.96-.432c-.288-.192-.528-.405-.72-.64-.192-.245-.3146-.496-.368-.752l.512-.192-.112 1.984h-2.144v-11.808h2.272v5.36l-.432-.176c.064-.256.1867-.501.368-.736.1814-.245.4107-.459.688-.64.2774-.192.5814-.341.912-.448.3307-.107.672-.16 1.024-.16.736 0 1.392.192 1.968.576.576.373 1.0294.891 1.36 1.552.3414.661.512 1.419.512 2.272s-.1653 1.611-.496 2.272c-.3306.661-.784 1.184-1.36 1.568-.5653.373-1.2106.56-1.936.56zm-.544-1.936c.4267 0 .7947-.101 1.104-.304.32-.213.5707-.501.752-.864.1814-.373.272-.805.272-1.296 0-.48-.0906-.907-.272-1.28-.1706-.373-.416-.661-.736-.864s-.6933-.304-1.12-.304c-.4266 0-.8.101-1.12.304s-.5706.491-.752.864c-.1813.373-.272.8-.272 1.28 0 .491.0907.923.272 1.296.1814.363.432.651.752.864.32.203.6934.304 1.12.304zm6.0707 1.776v-11.84h2.272v11.84zm8.4375.16c-.9174 0-1.7174-.187-2.4-.56-.6827-.373-1.216-.885-1.6-1.536s-.576-1.397-.576-2.24c0-.651.1066-1.248.32-1.792.2133-.544.512-1.013.896-1.408.384-.405.8373-.715 1.36-.928.5333-.224 1.1093-.336 1.728-.336.576 0 1.1093.107 1.6.32.4906.203.912.496 1.264.88.3626.373.64.816.832 1.328s.2773 1.072.256 1.68l-.0161.704h-6.7999l-.368-1.392h5.296l-.256.288v-.352c-.0214-.288-.1174-.549-.288-.784-.16-.235-.368-.416-.624-.544s-.544-.192-.864-.192c-.4694 0-.8694.091-1.2.272-.32.181-.5654.448-.736.8-.1707.352-.256.779-.256 1.28 0 .512.1066.955.32 1.328.224.373.5333.667.928.88.4053.203.88.304 1.424.304.3733 0 .7146-.059 1.024-.176.3093-.117.64-.32.992-.608l1.088 1.52c-.3094.277-.6507.512-1.024.704-.3734.181-.7574.32-1.152.416-.3947.096-.784.144-1.168.144zm10.2492-.16v-8.464h2.192l.048 1.616-.336.064c.1173-.277.272-.528.464-.752s.416-.416.672-.576c.2667-.16.544-.283.832-.368.288-.096.576-.144.864-.144.4373 0 .832.069 1.184.208s.6507.357.896.656c.2453.288.4373.672.576 1.152l-.352-.032.112-.256c.1387-.256.3147-.485.528-.688.2133-.213.4533-.395.72-.544.2667-.16.544-.283.832-.368s.5707-.128.848-.128c.6613 0 1.2107.133 1.648.4.4373.256.7627.645.976 1.168.224.523.336 1.163.336 1.92v5.136h-2.272v-4.976c0-.384-.0533-.699-.16-.944s-.2613-.427-.464-.544c-.2027-.128-.464-.192-.784-.192-.2453 0-.4747.043-.688.128-.2027.075-.384.187-.544.336-.1493.139-.2667.304-.352.496s-.128.405-.128.64v5.056h-2.272v-4.992c0-.352-.0587-.651-.176-.896-.1067-.256-.2613-.448-.464-.576s-.4533-.192-.752-.192c-.2453 0-.4747.043-.688.128-.2027.075-.3787.187-.528.336-.1493.139-.272.304-.368.496-.0853.192-.128.4-.128.624v5.072zm19.2195.16c-.917 0-1.717-.187-2.4-.56s-1.216-.885-1.6-1.536-.576-1.397-.576-2.24c0-.651.107-1.248.32-1.792s.512-1.013.896-1.408c.384-.405.837-.715 1.36-.928.533-.224 1.109-.336 1.728-.336.576 0 1.109.107 1.6.32.491.203.912.496 1.264.88.363.373.64.816.832 1.328s.277 1.072.256 1.68l-.016.704h-6.8l-.368-1.392h5.296l-.256.288v-.352c-.021-.288-.117-.549-.288-.784-.16-.235-.368-.416-.624-.544s-.544-.192-.864-.192c-.469 0-.869.091-1.2.272-.32.181-.565.448-.736.8s-.256.779-.256 1.28c0 .512.107.955.32 1.328.224.373.533.667.928.88.405.203.88.304 1.424.304.373 0 .715-.059 1.024-.176s.64-.32.992-.608l1.088 1.52c-.309.277-.651.512-1.024.704-.373.181-.757.32-1.152.416s-.784.144-1.168.144zm-2.352-9.808-.816-.704 2.16-1.984h1.472l2.16 1.984-.816.704-2.32-1.312h.48zm7.695 9.648v-8.464h2.192l.048 1.616-.336.064c.117-.277.272-.528.464-.752s.416-.416.672-.576c.267-.16.544-.283.832-.368.288-.096.576-.144.864-.144.437 0 .832.069 1.184.208s.651.357.896.656c.245.288.437.672.576 1.152l-.352-.032.112-.256c.139-.256.315-.485.528-.688.213-.213.453-.395.72-.544.267-.16.544-.283.832-.368s.571-.128.848-.128c.661 0 1.211.133 1.648.4.437.256.763.645.976 1.168.224.523.336 1.163.336 1.92v5.136h-2.272v-4.976c0-.384-.053-.699-.16-.944s-.261-.427-.464-.544c-.203-.128-.464-.192-.784-.192-.245 0-.475.043-.688.128-.203.075-.384.187-.544.336-.149.139-.267.304-.352.496s-.128.405-.128.64v5.056h-2.272v-4.992c0-.352-.059-.651-.176-.896-.107-.256-.261-.448-.464-.576s-.453-.192-.752-.192c-.245 0-.475.043-.688.128-.203.075-.379.187-.528.336-.149.139-.272.304-.368.496-.085.192-.128.4-.128.624v5.072zm19.22.16c-.918 0-1.718-.187-2.4-.56-.683-.373-1.216-.885-1.6-1.536s-.576-1.397-.576-2.24c0-.651.106-1.248.32-1.792.213-.544.512-1.013.896-1.408.384-.405.837-.715 1.36-.928.533-.224 1.109-.336 1.728-.336.576 0 1.109.107 1.6.32.49.203.912.496 1.264.88.362.373.64.816.832 1.328s.277 1.072.256 1.68l-.017.704h-6.799l-.368-1.392h5.296l-.256.288v-.352c-.022-.288-.118-.549-.288-.784-.16-.235-.368-.416-.624-.544s-.544-.192-.864-.192c-.47 0-.87.091-1.2.272-.32.181-.566.448-.736.8-.171.352-.256.779-.256 1.28 0 .512.106.955.32 1.328.224.373.533.667.928.88.405.203.88.304 1.424.304.373 0 .714-.059 1.024-.176.309-.117.64-.32.992-.608l1.088 1.52c-.31.277-.651.512-1.024.704-.374.181-.758.32-1.152.416-.395.096-.784.144-1.168.144zm10.265-.16v-8.464h2.192l.08 2.72-.384-.56c.128-.437.336-.832.624-1.184.288-.363.624-.645 1.008-.848.394-.203.805-.304 1.232-.304.181 0 .357.016.528.048.17.032.314.069.432.112l-.608 2.496c-.128-.064-.283-.117-.464-.16-.182-.053-.368-.08-.56-.08-.256 0-.496.048-.72.144-.214.085-.4.213-.56.384-.16.16-.288.352-.384.576-.086.224-.128.469-.128.736v4.384zm9.824.16c-.704 0-1.339-.192-1.904-.576s-1.013-.907-1.344-1.568-.496-1.419-.496-2.272.165-1.605.496-2.256c.341-.661.8-1.179 1.376-1.552.576-.384 1.232-.576 1.968-.576.416 0 .795.064 1.136.192.352.117.656.283.912.496.267.213.491.459.672.736s.309.576.384.896l-.48-.08v-2.064h2.256v8.464h-2.288v-2.032l.512-.048c-.085.299-.224.581-.416.848s-.432.507-.72.72c-.277.203-.592.368-.944.496-.352.117-.725.176-1.12.176zm.624-1.968c.427 0 .8-.101 1.12-.304s.565-.485.736-.848c.181-.373.272-.805.272-1.296 0-.48-.091-.901-.272-1.264-.171-.363-.416-.645-.736-.848-.32-.213-.693-.32-1.12-.32-.416 0-.784.107-1.104.32-.309.203-.555.485-.736.848s-.272.784-.272 1.264c0 .491.091.923.272 1.296.181.363.427.645.736.848.32.203.688.304 1.104.304zm6.63 1.808v-8.464h2.176l.064 1.728-.448.192c.117-.384.325-.731.624-1.04.309-.32.677-.576 1.104-.768s.875-.288 1.344-.288c.64 0 1.173.128 1.6.384.437.256.763.645.976 1.168.224.512.336 1.147.336 1.904v5.184h-2.272v-5.008c0-.384-.053-.704-.16-.96s-.272-.443-.496-.56c-.213-.128-.48-.181-.8-.16-.256 0-.496.043-.72.128-.213.075-.4.187-.56.336-.149.149-.272.32-.368.512-.085.192-.128.4-.128.624v5.088h-1.12c-.245 0-.464 0-.656 0s-.357 0-.496 0zm13.809 3.68c-.672 0-1.333-.101-1.984-.304-.651-.192-1.179-.443-1.584-.752l.8-1.632c.213.149.459.283.736.4s.565.208.864.272c.309.064.624.096.944.096.555 0 1.008-.085 1.36-.256.363-.171.635-.427.816-.768.181-.331.272-.757.272-1.28v-1.472l.384.08c-.064.352-.24.677-.528.976-.288.288-.651.523-1.088.704-.437.171-.885.256-1.344.256-.789 0-1.488-.181-2.096-.544s-1.088-.864-1.44-1.504-.528-1.376-.528-2.208c0-.853.171-1.605.512-2.256.352-.661.827-1.179 1.424-1.552.608-.384 1.296-.576 2.064-.576.32 0 .624.037.912.112.299.075.571.181.816.32.256.128.48.277.672.448.203.16.368.336.496.528s.208.384.24.576l-.464.128.064-1.936h2.176v7.824c0 .693-.101 1.307-.304 1.84s-.501.981-.896 1.344c-.384.373-.859.656-1.424.848-.555.192-1.179.288-1.872.288zm.064-5.504c.448 0 .837-.101 1.168-.304.341-.203.603-.485.784-.848s.272-.789.272-1.28c0-.48-.091-.901-.272-1.264-.181-.373-.443-.661-.784-.864-.331-.203-.72-.304-1.168-.304-.437 0-.827.107-1.168.32-.331.203-.587.485-.768.848s-.272.784-.272 1.264.091.907.272 1.28c.181.363.437.645.768.848.341.203.731.304 1.168.304zm10.705 1.984c-.917 0-1.717-.187-2.4-.56-.682-.373-1.216-.885-1.6-1.536s-.576-1.397-.576-2.24c0-.651.107-1.248.32-1.792.214-.544.512-1.013.896-1.408.384-.405.838-.715 1.36-.928.534-.224 1.11-.336 1.728-.336.576 0 1.11.107 1.6.32.491.203.912.496 1.264.88.363.373.64.816.832 1.328s.278 1.072.256 1.68l-.016.704h-6.8l-.368-1.392h5.296l-.256.288v-.352c-.021-.288-.117-.549-.288-.784-.16-.235-.368-.416-.624-.544s-.544-.192-.864-.192c-.469 0-.869.091-1.2.272-.32.181-.565.448-.736.8-.17.352-.256.779-.256 1.28 0 .512.107.955.32 1.328.224.373.534.667.928.88.406.203.88.304 1.424.304.374 0 .715-.059 1.024-.176.31-.117.64-.32.992-.608l1.088 1.52c-.309.277-.65.512-1.024.704-.373.181-.757.32-1.152.416-.394.096-.784.144-1.168.144zm-1.488-9.664-.688-1.056 2.672-2.176 1.136 1.552zm-148.6375 29.664c-.736 0-1.3973-.187-1.984-.56-.5867-.384-1.0507-.901-1.392-1.552-.3307-.661-.496-1.424-.496-2.288 0-.843.1653-1.595.496-2.256.3413-.661.8-1.184 1.376-1.568.5867-.384 1.2533-.576 2-.576.3947 0 .7733.064 1.136.192.3733.117.704.283.992.496.2987.213.5387.453.72.72.1813.256.2827.528.304.816l-.576.096v-5.52h2.272v11.84h-2.144l-.096-1.952.448.048c-.0213.267-.1173.523-.288.768s-.4.469-.688.672c-.2773.192-.5973.347-.96.464-.352.107-.7253.16-1.12.16zm.512-1.888c.4267 0 .8-.107 1.12-.32s.5707-.507.752-.88.272-.811.272-1.312c0-.491-.0907-.923-.272-1.296-.1813-.384-.432-.677-.752-.88-.32-.213-.6933-.32-1.12-.32s-.8.107-1.12.32c-.3093.203-.5547.496-.736.88-.1707.373-.256.805-.256 1.296 0 .501.0853.939.256 1.312.1813.373.4267.667.736.88.32.213.6933.32 1.12.32zm9.719 1.888c-.704 0-1.3387-.192-1.904-.576s-1.0133-.907-1.344-1.568-.496-1.419-.496-2.272.1653-1.605.496-2.256c.3413-.661.8-1.179 1.376-1.552.576-.384 1.232-.576 1.968-.576.416 0 .7947.064 1.136.192.352.117.656.283.912.496.2667.213.4907.459.672.736s.3093.576.384.896l-.48-.08v-2.064h2.256v8.464h-2.288v-2.032l.512-.048c-.0853.299-.224.581-.416.848s-.432.507-.72.72c-.2773.203-.592.368-.944.496-.352.117-.7253.176-1.12.176zm.624-1.968c.4267 0 .8-.101 1.12-.304s.5653-.485.736-.848c.1813-.373.272-.805.272-1.296 0-.48-.0907-.901-.272-1.264-.1707-.363-.416-.645-.736-.848-.32-.213-.6933-.32-1.12-.32-.416 0-.784.107-1.104.32-.3093.203-.5547.485-.736.848s-.272.784-.272 1.264c0 .491.0907.923.272 1.296.1813.363.4267.645.736.848.32.203.688.304 1.104.304zm6.6299 1.808v-8.464h2.176l.064 1.728-.448.192c.1173-.384.3253-.731.624-1.04.3093-.32.6773-.576 1.104-.768.4266-.192.8746-.288 1.344-.288.64 0 1.1733.128 1.6.384.4373.256.7626.645.976 1.168.224.512.336 1.147.336 1.904v5.184h-2.272v-5.008c0-.384-.0534-.704-.16-.96-.1067-.256-.272-.443-.496-.56-.2134-.128-.48-.181-.8-.16-.256 0-.496.043-.72.128-.2134.075-.4.187-.56.336-.1494.149-.272.32-.368.512-.0854.192-.128.4-.128.624v5.088h-1.12c-.2454 0-.464 0-.656 0s-.3574 0-.496 0zm12.8011.16c-.7893 0-1.4933-.128-2.112-.384-.608-.267-1.0987-.629-1.472-1.088l1.408-1.216c.3307.352.6987.608 1.104.768.4053.149.8107.224 1.216.224.16 0 .304-.016.432-.048.1387-.043.256-.096.352-.16.096-.075.1653-.16.208-.256.0533-.107.08-.219.08-.336 0-.235-.096-.421-.288-.56-.1067-.053-.272-.117-.496-.192-.224-.085-.512-.176-.864-.272-.544-.139-1.008-.299-1.392-.48-.3733-.192-.672-.405-.896-.64-.192-.224-.3413-.464-.448-.72-.096-.267-.144-.56-.144-.88 0-.384.0853-.731.256-1.04.1707-.32.4053-.592.704-.816.3093-.224.6613-.395 1.056-.512.3947-.128.8107-.192 1.248-.192s.864.053 1.28.16.8.261 1.152.464c.3627.192.6773.421.944.688l-1.216 1.344c-.192-.181-.4107-.347-.656-.496-.2347-.149-.48-.267-.736-.352s-.4853-.128-.688-.128c-.1813 0-.3467.016-.496.048-.1387.032-.256.08-.352.144s-.1707.149-.224.256c-.0427.096-.064.203-.064.32s.0267.229.08.336c.064.107.1493.197.256.272.1173.064.288.139.512.224.2347.085.5493.181.944.288.512.139.944.293 1.296.464.3627.171.6507.368.864.592.1813.192.3147.411.4.656s.128.517.128.816c0 .523-.1493.992-.448 1.408-.288.405-.688.725-1.2.96-.512.224-1.088.336-1.728.336zm12.558-.16-3.552-8.464h2.496l2.256 6.32-.528.096 2.368-6.416h2.432l-3.728 8.464zm10.5613.16c-.864 0-1.6374-.187-2.32-.56-.672-.384-1.2054-.907-1.6-1.568-.384-.661-.576-1.419-.576-2.272s.192-1.605.576-2.256c.3946-.661.928-1.184 1.6-1.568.6826-.384 1.456-.576 2.32-.576.8533 0 1.616.192 2.288.576.6826.384 1.216.907 1.6 1.568.384.651.576 1.403.576 2.256s-.192 1.611-.576 2.272-.9174 1.184-1.6 1.568c-.672.373-1.4347.56-2.288.56zm0-1.984c.416 0 .7893-.101 1.12-.304.3306-.213.5866-.501.768-.864.192-.373.288-.789.288-1.248 0-.469-.096-.885-.288-1.248-.1814-.373-.4374-.661-.768-.864-.3307-.213-.704-.32-1.12-.32-.4267 0-.8054.107-1.136.32-.3307.213-.592.501-.784.864s-.2827.779-.272 1.248c-.0107.459.08.875.272 1.248.192.363.4533.651.784.864.3306.203.7093.304 1.136.304zm9.0213 1.984c-.7893 0-1.4933-.128-2.112-.384-.608-.267-1.0986-.629-1.472-1.088l1.408-1.216c.3307.352.6987.608 1.104.768.4054.149.8107.224 1.216.224.16 0 .304-.016.432-.048.1387-.043.256-.096.352-.16.096-.075.1654-.16.208-.256.0534-.107.08-.219.08-.336 0-.235-.096-.421-.288-.56-.1066-.053-.272-.117-.496-.192-.224-.085-.512-.176-.864-.272-.544-.139-1.008-.299-1.392-.48-.3733-.192-.672-.405-.896-.64-.192-.224-.3413-.464-.448-.72-.096-.267-.144-.56-.144-.88 0-.384.0854-.731.256-1.04.1707-.32.4054-.592.704-.816.3094-.224.6614-.395 1.056-.512.3947-.128.8107-.192 1.248-.192.4374 0 .864.053 1.28.16s.8.261 1.152.464c.3627.192.6774.421.944.688l-1.216 1.344c-.192-.181-.4106-.347-.656-.496-.2346-.149-.48-.267-.736-.352s-.4853-.128-.688-.128c-.1813 0-.3466.016-.496.048-.1386.032-.256.08-.352.144s-.1706.149-.224.256c-.0426.096-.064.203-.064.32s.0267.229.08.336c.064.107.1494.197.256.272.1174.064.288.139.512.224.2347.085.5494.181.944.288.512.139.944.293 1.296.464.3627.171.6507.368.864.592.1814.192.3147.411.4.656.0854.245.128.517.128.816 0 .523-.1493.992-.448 1.408-.288.405-.688.725-1.2.96-.512.224-1.088.336-1.728.336zm10.5579-.16v-9.056c0-.523.117-.997.352-1.424s.555-.763.96-1.008c.416-.245.901-.368 1.456-.368.373 0 .725.064 1.056.192.331.117.613.283.848.496l-.672 1.664c-.139-.085-.283-.155-.432-.208-.139-.064-.267-.096-.384-.096-.203 0-.373.037-.512.112-.128.064-.224.165-.288.304-.064.128-.096.293-.096.496v8.896h-1.136c-.245 0-.464 0-.656 0s-.357 0-.496 0zm-1.264-6.336v-1.92h5.376v1.92zm6.889 6.336v-8.464h2.192l.08 2.72-.384-.56c.128-.437.336-.832.624-1.184.288-.363.624-.645 1.008-.848.395-.203.806-.304 1.232-.304.182 0 .358.016.528.048.171.032.315.069.432.112l-.608 2.496c-.128-.064-.282-.117-.464-.16-.181-.053-.368-.08-.56-.08-.256 0-.496.048-.72.144-.213.085-.4.213-.56.384-.16.16-.288.352-.384.576-.085.224-.128.469-.128.736v4.384zm7.208 0v-8.464h2.272v8.464zm1.12-10.208c-.437 0-.779-.107-1.024-.32s-.368-.517-.368-.912c0-.363.123-.656.368-.88.256-.235.597-.352 1.024-.352.437 0 .779.112 1.024.336.245.213.368.512.368.896 0 .373-.128.672-.384.896-.245.224-.581.336-1.008.336zm7.435 13.888c-.672 0-1.334-.101-1.984-.304-.651-.192-1.179-.443-1.584-.752l.8-1.632c.213.149.458.283.736.4.277.117.565.208.864.272.309.064.624.096.944.096.554 0 1.008-.085 1.36-.256.362-.171.634-.427.816-.768.181-.331.272-.757.272-1.28v-1.472l.384.08c-.064.352-.24.677-.528.976-.288.288-.651.523-1.088.704-.438.171-.886.256-1.344.256-.79 0-1.488-.181-2.096-.544s-1.088-.864-1.44-1.504-.528-1.376-.528-2.208c0-.853.17-1.605.512-2.256.352-.661.826-1.179 1.424-1.552.608-.384 1.296-.576 2.064-.576.32 0 .624.037.912.112.298.075.57.181.816.32.256.128.48.277.672.448.202.16.368.336.496.528s.208.384.24.576l-.464.128.064-1.936h2.176v7.824c0 .693-.102 1.307-.304 1.84-.203.533-.502.981-.896 1.344-.384.373-.859.656-1.424.848-.555.192-1.179.288-1.872.288zm.064-5.504c.448 0 .837-.101 1.168-.304.341-.203.602-.485.784-.848.181-.363.272-.789.272-1.28 0-.48-.091-.901-.272-1.264-.182-.373-.443-.661-.784-.864-.331-.203-.72-.304-1.168-.304-.438 0-.827.107-1.168.32-.331.203-.587.485-.768.848-.182.363-.272.784-.272 1.264s.09.907.272 1.28c.181.363.437.645.768.848.341.203.73.304 1.168.304zm10.625 1.984c-.864 0-1.637-.187-2.32-.56-.672-.384-1.205-.907-1.6-1.568-.384-.661-.576-1.419-.576-2.272s.192-1.605.576-2.256c.395-.661.928-1.184 1.6-1.568.683-.384 1.456-.576 2.32-.576.853 0 1.616.192 2.288.576.683.384 1.216.907 1.6 1.568.384.651.576 1.403.576 2.256s-.192 1.611-.576 2.272-.917 1.184-1.6 1.568c-.672.373-1.435.56-2.288.56zm0-1.984c.416 0 .789-.101 1.12-.304.331-.213.587-.501.768-.864.192-.373.288-.789.288-1.248 0-.469-.096-.885-.288-1.248-.181-.373-.437-.661-.768-.864-.331-.213-.704-.32-1.12-.32-.427 0-.805.107-1.136.32s-.592.501-.784.864-.283.779-.272 1.248c-.011.459.08.875.272 1.248.192.363.453.651.784.864.331.203.709.304 1.136.304zm9.021 1.984c-.789 0-1.493-.128-2.112-.384-.608-.267-1.098-.629-1.472-1.088l1.408-1.216c.331.352.699.608 1.104.768.406.149.811.224 1.216.224.16 0 .304-.016.432-.048.139-.043.256-.096.352-.16.096-.075.166-.16.208-.256.054-.107.08-.219.08-.336 0-.235-.096-.421-.288-.56-.106-.053-.272-.117-.496-.192-.224-.085-.512-.176-.864-.272-.544-.139-1.008-.299-1.392-.48-.373-.192-.672-.405-.896-.64-.192-.224-.341-.464-.448-.72-.096-.267-.144-.56-.144-.88 0-.384.086-.731.256-1.04.171-.32.406-.592.704-.816.31-.224.662-.395 1.056-.512.395-.128.811-.192 1.248-.192.438 0 .864.053 1.28.16s.8.261 1.152.464c.363.192.678.421.944.688l-1.216 1.344c-.192-.181-.41-.347-.656-.496-.234-.149-.48-.267-.736-.352s-.485-.128-.688-.128c-.181 0-.346.016-.496.048-.138.032-.256.08-.352.144s-.17.149-.224.256c-.042.096-.064.203-.064.32s.027.229.08.336c.064.107.15.197.256.272.118.064.288.139.512.224.235.085.55.181.944.288.512.139.944.293 1.296.464.363.171.651.368.864.592.182.192.315.411.4.656.086.245.128.517.128.816 0 .523-.149.992-.448 1.408-.288.405-.688.725-1.2.96-.512.224-1.088.336-1.728.336zm10.35-4.176c-.085-.651-.17-1.328-.256-2.032-.074-.704-.133-1.397-.176-2.08-.042-.693-.064-1.355-.064-1.984v-1.216h2.384v1.216c0 .651-.026 1.328-.08 2.032-.042.704-.101 1.403-.176 2.096-.074.693-.154 1.349-.24 1.968zm.672 4.192c-.416 0-.736-.117-.96-.352s-.336-.571-.336-1.008c0-.395.118-.715.352-.96.246-.256.56-.384.944-.384.406 0 .72.117.944.352s.336.565.336.992c0 .405-.117.736-.352.992-.234.245-.544.368-.928.368z"/><path d="m301.686 27.9201c1.135 1.2075 1.076 3.106-.132 4.2406-1.207 1.1345-3.106 1.0754-4.24-.132zm-157.487 23.5466c-1.653.1098-3.083-1.1414-3.192-2.7946l-1.79-26.9407c-.109-1.6532 1.142-3.0824 2.795-3.1922s3.082 1.1414 3.192 2.7946l1.591 23.9473 23.947-1.5904c1.653-.1098 3.082 1.1414 3.192 2.7946s-1.141 3.0824-2.795 3.1922zm153.115-19.438c-36.911-39.28345-106.33-32.669441-151.057 18.4206l-4.514-3.9521c46.273-52.85646 119.854-61.2426 159.943-18.5771z"/></g></svg>