<svg fill="none" height="146" viewBox="0 0 322 146" width="322" xmlns="http://www.w3.org/2000/svg"><path d="m55.3466 69v-11.2h4.752c.6614 0 1.2587.16 1.792.48.544.3093.9707.736 1.28 1.28.32.544.48 1.1573.48 1.84 0 .6933-.16 1.3173-.48 1.872-.3093.5547-.736.9973-1.28 1.328-.5333.32-1.1306.48-1.792.48h-2.352v3.92zm2.368-6.08h2.112c.256 0 .4854-.064.688-.192.2027-.1387.3627-.32.48-.544.128-.224.192-.48.192-.768s-.064-.5387-.192-.752c-.1173-.224-.2773-.3947-.48-.512-.2026-.128-.432-.192-.688-.192h-2.112zm10.7769 6.24c-.704 0-1.3387-.192-1.904-.576s-1.0133-.9067-1.344-1.568-.496-1.4187-.496-2.272.1653-1.6053.496-2.256c.3413-.6613.8-1.1787 1.376-1.552.576-.384 1.232-.576 1.968-.576.416 0 .7947.064 1.136.192.352.1173.656.2827.912.496.2667.2133.4907.4587.672.736s.3093.576.384.896l-.48-.08v-2.064h2.256v8.464h-2.288v-2.032l.512-.048c-.0853.2987-.224.5813-.416.848s-.432.5067-.72.72c-.2773.2027-.592.368-.944.496-.352.1173-.7253.176-1.12.176zm.624-1.968c.4267 0 .8-.1013 1.12-.304s.5653-.4853.736-.848c.1813-.3733.272-.8053.272-1.296 0-.48-.0907-.9013-.272-1.264-.1707-.3627-.416-.6453-.736-.848-.32-.2133-.6933-.32-1.12-.32-.416 0-.784.1067-1.104.32-.3093.2027-.5547.4853-.736.848s-.272.784-.272 1.264c0 .4907.0907.9227.272 1.296.1813.3627.4267.6453.736.848.32.2027.688.304 1.104.304zm6.6299 1.808v-8.464h2.192l.08 2.72-.384-.56c.128-.4373.336-.832.624-1.184.288-.3627.624-.6453 1.008-.848.3946-.2027.8053-.304 1.232-.304.1813 0 .3573.016.528.048.1706.032.3146.0693.432.112l-.608 2.496c-.128-.064-.2827-.1173-.464-.16-.1814-.0533-.368-.08-.56-.08-.256 0-.496.048-.72.144-.2134.0853-.4.2133-.56.384-.16.16-.288.352-.384.576-.0854.224-.128.4693-.128.736v4.384zm8.1441 0v-10.608h2.272v10.608zm-1.584-6.432v-2.032h5.584v2.032zm7.2569 6.432v-8.464h2.272v8.464zm1.12-10.208c-.4374 0-.7787-.1067-1.024-.32-.2454-.2133-.368-.5173-.368-.912 0-.3627.1226-.656.368-.88.256-.2347.5973-.352 1.024-.352.4373 0 .7786.112 1.024.336.2453.2133.368.512.368.896 0 .3733-.128.672-.384.896-.2454.224-.5814.336-1.008.336zm7.2586 10.368c-.8107 0-1.536-.192-2.176-.576s-1.1467-.9067-1.52-1.568c-.3627-.6613-.544-1.4133-.544-2.256 0-.832.1813-1.5787.544-2.24.3733-.672.88-1.2 1.52-1.584s1.3653-.576 2.176-.576c.7573 0 1.4507.1387 2.08.416.629.2773 1.12.6613 1.472 1.152l-1.248 1.504c-.149-.2027-.336-.384-.56-.544-.224-.1707-.4693-.304-.736-.4-.256-.096-.5227-.144-.8-.144-.4373 0-.8267.1067-1.168.32-.3307.2027-.592.4853-.784.848s-.288.7787-.288 1.248c0 .4587.096.8693.288 1.232.2027.352.4747.64.816.864.3413.2133.7253.32 1.152.32.2773 0 .5387-.0373.784-.112.2453-.0853.4747-.208.688-.368.224-.16.427-.352.608-.576l1.232 1.504c-.363.4587-.864.832-1.504 1.12-.64.2773-1.3173.416-2.032.416zm5.184-.16v-8.464h2.272v8.464zm1.12-10.208c-.437 0-.779-.1067-1.024-.32s-.368-.5173-.368-.912c0-.3627.123-.656.368-.88.256-.2347.597-.352 1.024-.352.437 0 .779.112 1.024.336.245.2133.368.512.368.896 0 .3733-.128.672-.384.896-.245.224-.581.336-1.008.336zm3.579 13.728v-11.984h2.192l.064 1.904-.416-.144c.074-.3413.256-.656.544-.944.298-.288.666-.5227 1.104-.704.437-.1813.896-.272 1.376-.272.736 0 1.386.192 1.952.576.576.3733 1.029.8907 1.36 1.552.341.6507.512 1.4027.512 2.256 0 .8427-.166 1.5947-.496 2.256-.331.6613-.784 1.184-1.36 1.568-.576.3733-1.232.56-1.968.56-.491 0-.96-.0907-1.408-.272-.438-.192-.811-.4427-1.12-.752-.31-.3093-.502-.64-.576-.992l.528-.224v5.616zm4.352-5.328c.416 0 .784-.1013 1.104-.304s.57-.4853.752-.848c.181-.3733.272-.8.272-1.28s-.091-.9013-.272-1.264c-.182-.3627-.432-.6453-.752-.848-.31-.2027-.678-.304-1.104-.304-.427 0-.8.1013-1.12.304-.32.192-.571.4747-.752.848-.182.3627-.272.784-.272 1.264s.09.9067.272 1.28c.181.3627.432.6453.752.848s.693.304 1.12.304zm10.07 1.968c-.918 0-1.718-.1867-2.4-.56-.683-.3733-1.216-.8853-1.6-1.536s-.576-1.3973-.576-2.24c0-.6507.106-1.248.32-1.792.213-.544.512-1.0133.896-1.408.384-.4053.837-.7147 1.36-.928.533-.224 1.109-.336 1.728-.336.576 0 1.109.1067 1.6.32.49.2027.912.496 1.264.88.362.3733.64.816.832 1.328s.277 1.072.256 1.68l-.016.704h-6.8l-.368-1.392h5.296l-.256.288v-.352c-.022-.288-.118-.5493-.288-.784-.16-.2347-.368-.416-.624-.544s-.544-.192-.864-.192c-.47 0-.87.0907-1.2.272-.32.1813-.566.448-.736.8-.171.352-.256.7787-.256 1.28 0 .512.106.9547.32 1.328.224.3733.533.6667.928.88.405.2027.88.304 1.424.304.373 0 .714-.0587 1.024-.176.309-.1173.64-.32.992-.608l1.088 1.52c-.31.2773-.651.512-1.024.704-.374.1813-.758.32-1.152.416-.395.096-.784.144-1.168.144zm5.023-.16v-1.44l4.464-5.792v.64h-4.464v-1.872h6.752v1.472l-4.272 5.648-.064-.528h4.448v1.872zm16.879.16c-.704 0-1.339-.192-1.904-.576-.566-.384-1.014-.9067-1.344-1.568-.331-.6613-.496-1.4187-.496-2.272s.165-1.6053.496-2.256c.341-.6613.8-1.1787 1.376-1.552.576-.384 1.232-.576 1.968-.576.416 0 .794.064 1.136.192.352.1173.656.2827.912.496.266.2133.49.4587.672.736.181.2773.309.576.384.896l-.48-.08v-2.064h2.256v8.464h-2.288v-2.032l.512-.048c-.086.2987-.224.5813-.416.848s-.432.5067-.72.72c-.278.2027-.592.368-.944.496-.352.1173-.726.176-1.12.176zm.624-1.968c.426 0 .8-.1013 1.12-.304s.565-.4853.736-.848c.181-.3733.272-.8053.272-1.296 0-.48-.091-.9013-.272-1.264-.171-.3627-.416-.6453-.736-.848-.32-.2133-.694-.32-1.12-.32-.416 0-.784.1067-1.104.32-.31.2027-.555.4853-.736.848-.182.3627-.272.784-.272 1.264 0 .4907.09.9227.272 1.296.181.3627.426.6453.736.848.32.2027.688.304 1.104.304zm1.184-7.712-3.12-1.68 1.136-1.552 2.672 2.176zm10.368 9.52v-11.84h2.272v11.84zm7.589.16c-.704 0-1.338-.192-1.904-.576-.565-.384-1.013-.9067-1.344-1.568-.33-.6613-.496-1.4187-.496-2.272s.166-1.6053.496-2.256c.342-.6613.8-1.1787 1.376-1.552.576-.384 1.232-.576 1.968-.576.416 0 .795.064 1.136.192.352.1173.656.2827.912.496.267.2133.491.4587.672.736.182.2773.31.576.384.896l-.48-.08v-2.064h2.256v8.464h-2.288v-2.032l.512-.048c-.085.2987-.224.5813-.416.848s-.432.5067-.72.72c-.277.2027-.592.368-.944.496-.352.1173-.725.176-1.12.176zm.624-1.968c.427 0 .8-.1013 1.12-.304s.566-.4853.736-.848c.182-.3733.272-.8053.272-1.296 0-.48-.09-.9013-.272-1.264-.17-.3627-.416-.6453-.736-.848-.32-.2133-.693-.32-1.12-.32-.416 0-.784.1067-1.104.32-.309.2027-.554.4853-.736.848-.181.3627-.272.784-.272 1.264 0 .4907.091.9227.272 1.296.182.3627.427.6453.736.848.32.2027.688.304 1.104.304zm11.553 1.808v-11.84h2.272v11.84zm7.411.16c-.619 0-1.152-.1333-1.6-.4-.437-.2773-.779-.6667-1.024-1.168-.235-.512-.352-1.1253-.352-1.84v-5.216h2.272v4.848c0 .384.064.72.192 1.008.128.2773.309.4907.544.64s.523.224.864.224c.245 0 .475-.0373.688-.112.213-.0853.395-.2027.544-.352s.267-.3253.352-.528.128-.4213.128-.656v-5.072h2.272v8.464h-2.16l-.08-1.744.416-.192c-.128.3947-.341.752-.64 1.072s-.656.5707-1.072.752-.864.272-1.344.272zm7.982-.16v-10.608h2.272v10.608zm-1.584-6.432v-2.032h5.584v2.032zm7.881 6.432v-10.608h2.272v10.608zm-1.584-6.432v-2.032h5.584v2.032zm11.003 6.592c-.917 0-1.717-.1867-2.4-.56s-1.216-.8853-1.6-1.536-.576-1.3973-.576-2.24c0-.6507.107-1.248.32-1.792s.512-1.0133.896-1.408c.384-.4053.837-.7147 1.36-.928.533-.224 1.109-.336 1.728-.336.576 0 1.109.1067 1.6.32.491.2027.912.496 1.264.88.363.3733.64.816.832 1.328s.277 1.072.256 1.68l-.016.704h-6.8l-.368-1.392h5.296l-.256.288v-.352c-.021-.288-.117-.5493-.288-.784-.16-.2347-.368-.416-.624-.544s-.544-.192-.864-.192c-.469 0-.869.0907-1.2.272-.32.1813-.565.448-.736.8s-.256.7787-.256 1.28c0 .512.107.9547.32 1.328.224.3733.533.6667.928.88.405.2027.88.304 1.424.304.373 0 .715-.0587 1.024-.176s.64-.32.992-.608l1.088 1.52c-.309.2773-.651.512-1.024.704-.373.1813-.757.32-1.152.416s-.784.144-1.168.144zm13.945 0c-.811 0-1.536-.192-2.176-.576s-1.147-.9067-1.52-1.568c-.363-.6613-.544-1.4133-.544-2.256 0-.832.181-1.5787.544-2.24.373-.672.88-1.2 1.52-1.584s1.365-.576 2.176-.576c.757 0 1.451.1387 2.08.416s1.12.6613 1.472 1.152l-1.248 1.504c-.149-.2027-.336-.384-.56-.544-.224-.1707-.469-.304-.736-.4-.256-.096-.523-.144-.8-.144-.437 0-.827.1067-1.168.32-.331.2027-.592.4853-.784.848s-.288.7787-.288 1.248c0 .4587.096.8693.288 1.232.203.352.475.64.816.864.341.2133.725.32 1.152.32.277 0 .539-.0373.784-.112.245-.0853.475-.208.688-.368.224-.16.427-.352.608-.576l1.232 1.504c-.363.4587-.864.832-1.504 1.12-.64.2773-1.317.416-2.032.416zm8.928 0c-.864 0-1.637-.1867-2.32-.56-.672-.384-1.205-.9067-1.6-1.568-.384-.6613-.576-1.4187-.576-2.272s.192-1.6053.576-2.256c.395-.6613.928-1.184 1.6-1.568.683-.384 1.456-.576 2.32-.576.853 0 1.616.192 2.288.576.683.384 1.216.9067 1.6 1.568.384.6507.576 1.4027.576 2.256s-.192 1.6107-.576 2.272-.917 1.184-1.6 1.568c-.672.3733-1.435.56-2.288.56zm0-1.984c.416 0 .789-.1013 1.12-.304.331-.2133.587-.5013.768-.864.192-.3733.288-.7893.288-1.248 0-.4693-.096-.8853-.288-1.248-.181-.3733-.437-.6613-.768-.864-.331-.2133-.704-.32-1.12-.32-.427 0-.805.1067-1.136.32s-.592.5013-.784.864-.283.7787-.272 1.248c-.011.4587.08.8747.272 1.248.192.3627.453.6507.784.864.331.2027.709.304 1.136.304zm6.173 1.824v-8.464h2.176l.064 1.728-.448.192c.118-.384.326-.7307.624-1.04.31-.32.678-.576 1.104-.768.427-.192.875-.288 1.344-.288.64 0 1.174.128 1.6.384.438.256.763.6453.976 1.168.224.512.336 1.1467.336 1.904v5.184h-2.272v-5.008c0-.384-.053-.704-.16-.96-.106-.256-.272-.4427-.496-.56-.213-.128-.48-.1813-.8-.16-.256 0-.496.0427-.72.128-.213.0747-.4.1867-.56.336-.149.1493-.272.32-.368.512-.085.192-.128.4-.128.624v5.088h-1.12c-.245 0-.464 0-.656 0s-.357 0-.496 0zm10.77 0v-10.608h2.271v10.608zm-1.584-6.432v-2.032h5.584v2.032zm7.064 6.432v-8.464h2.192l.08 2.72-.384-.56c.128-.4373.336-.832.624-1.184.288-.3627.624-.6453 1.008-.848.395-.2027.806-.304 1.232-.304.182 0 .358.016.528.048.171.032.315.0693.432.112l-.608 2.496c-.128-.064-.282-.1173-.464-.16-.181-.0533-.368-.08-.56-.08-.256 0-.496.048-.72.144-.213.0853-.4.2133-.56.384-.16.16-.288.352-.384.576-.085.224-.128.4693-.128.736v4.384zm10.673.16c-.918 0-1.718-.1867-2.4-.56-.683-.3733-1.216-.8853-1.6-1.536s-.576-1.3973-.576-2.24c0-.6507.106-1.248.32-1.792.213-.544.512-1.0133.896-1.408.384-.4053.837-.7147 1.36-.928.533-.224 1.109-.336 1.728-.336.576 0 1.109.1067 1.6.32.49.2027.912.496 1.264.88.362.3733.64.816.832 1.328s.277 1.072.256 1.68l-.016.704h-6.8l-.368-1.392h5.296l-.256.288v-.352c-.022-.288-.118-.5493-.288-.784-.16-.2347-.368-.416-.624-.544s-.544-.192-.864-.192c-.47 0-.87.0907-1.2.272-.32.1813-.566.448-.736.8-.171.352-.256.7787-.256 1.28 0 .512.106.9547.32 1.328.224.3733.533.6667.928.88.405.2027.88.304 1.424.304.373 0 .714-.0587 1.024-.176.309-.1173.64-.32.992-.608l1.088 1.52c-.31.2773-.651.512-1.024.704-.374.1813-.758.32-1.152.416-.395.096-.784.144-1.168.144zm10.281-.16v-11.84h2.272v11.84zm8.437.16c-.917 0-1.717-.1867-2.4-.56-.682-.3733-1.216-.8853-1.6-1.536s-.576-1.3973-.576-2.24c0-.6507.107-1.248.32-1.792.214-.544.512-1.0133.896-1.408.384-.4053.838-.7147 1.36-.928.534-.224 1.11-.336 1.728-.336.576 0 1.11.1067 1.6.32.491.2027.912.496 1.264.88.363.3733.64.816.832 1.328s.278 1.072.256 1.68l-.016.704h-6.8l-.368-1.392h5.296l-.256.288v-.352c-.021-.288-.117-.5493-.288-.784-.16-.2347-.368-.416-.624-.544s-.544-.192-.864-.192c-.469 0-.869.0907-1.2.272-.32.1813-.565.448-.736.8-.17.352-.256.7787-.256 1.28 0 .512.107.9547.32 1.328.224.3733.534.6667.928.88.406.2027.88.304 1.424.304.374 0 .715-.0587 1.024-.176.31-.1173.64-.32.992-.608l1.088 1.52c-.309.2773-.65.512-1.024.704-.373.1813-.757.32-1.152.416-.394.096-.784.144-1.168.144zm-242.0268 23.52c-.672 0-1.3333-.1013-1.984-.304-.6507-.192-1.1787-.4427-1.584-.752l.8-1.632c.2133.1493.4587.2827.736.4s.5653.208.864.272c.3093.064.624.096.944.096.5547 0 1.008-.0853 1.36-.256.3627-.1707.6347-.4267.816-.768.1813-.3307.272-.7573.272-1.28v-1.472l.384.08c-.064.352-.24.6773-.528.976-.288.288-.6507.5227-1.088.704-.4373.1707-.8853.256-1.344.256-.7893 0-1.488-.1813-2.096-.544s-1.088-.864-1.44-1.504-.528-1.376-.528-2.208c0-.8533.1707-1.6053.512-2.256.352-.6613.8267-1.1787 1.424-1.552.608-.384 1.296-.576 2.064-.576.32 0 .624.0373.912.112.2987.0747.5707.1813.816.32.256.128.48.2773.672.448.2027.16.368.336.496.528s.208.384.24.576l-.464.128.064-1.936h2.176v7.824c0 .6933-.1013 1.3067-.304 1.84s-.5013.9813-.896 1.344c-.384.3733-.8587.656-1.424.848-.5547.192-1.1787.288-1.872.288zm.064-5.504c.448 0 .8373-.1013 1.168-.304.3413-.2027.6027-.4853.784-.848s.272-.7893.272-1.28c0-.48-.0907-.9013-.272-1.264-.1813-.3733-.4427-.6613-.784-.864-.3307-.2027-.72-.304-1.168-.304-.4373 0-.8267.1067-1.168.32-.3307.2027-.5867.4853-.768.848s-.272.784-.272 1.264.0907.9067.272 1.28c.1813.3627.4373.6453.768.848.3413.2027.7307.304 1.168.304zm9.8574 1.984c-.704 0-1.3387-.192-1.904-.576-.5654-.384-1.0134-.9067-1.344-1.568-.3307-.6613-.496-1.4187-.496-2.272s.1653-1.6053.496-2.256c.3413-.6613.8-1.1787 1.376-1.552.576-.384 1.232-.576 1.968-.576.416 0 .7946.064 1.136.192.352.1173.656.2827.912.496.2666.2133.4906.4587.672.736.1813.2773.3093.576.384.896l-.48-.08v-2.064h2.256v8.464h-2.288v-2.032l.512-.048c-.0854.2987-.224.5813-.416.848s-.432.5067-.72.72c-.2774.2027-.592.368-.944.496-.352.1173-.7254.176-1.12.176zm.624-1.968c.4266 0 .8-.1013 1.12-.304s.5653-.4853.736-.848c.1813-.3733.272-.8053.272-1.296 0-.48-.0907-.9013-.272-1.264-.1707-.3627-.416-.6453-.736-.848-.32-.2133-.6934-.32-1.12-.32-.416 0-.784.1067-1.104.32-.3094.2027-.5547.4853-.736.848-.1814.3627-.272.784-.272 1.264 0 .4907.0906.9227.272 1.296.1813.3627.4266.6453.736.848.32.2027.688.304 1.104.304zm9.4778 1.968c-.7893 0-1.4933-.128-2.112-.384-.608-.2667-1.0986-.6293-1.472-1.088l1.408-1.216c.3307.352.6987.608 1.104.768.4054.1493.8107.224 1.216.224.16 0 .304-.016.432-.048.1387-.0427.256-.096.352-.16.096-.0747.1654-.16.208-.256.0534-.1067.08-.2187.08-.336 0-.2347-.096-.4213-.288-.56-.1066-.0533-.272-.1173-.496-.192-.224-.0853-.512-.176-.864-.272-.544-.1387-1.008-.2987-1.392-.48-.3733-.192-.672-.4053-.896-.64-.192-.224-.3413-.464-.448-.72-.096-.2667-.144-.56-.144-.88 0-.384.0854-.7307.256-1.04.1707-.32.4054-.592.704-.816.3094-.224.6614-.3947 1.056-.512.3947-.128.8107-.192 1.248-.192.4374 0 .864.0533 1.28.16s.8.2613 1.152.464c.3627.192.6774.4213.944.688l-1.216 1.344c-.192-.1813-.4106-.3467-.656-.496-.2346-.1493-.48-.2667-.736-.352s-.4853-.128-.688-.128c-.1813 0-.3466.016-.496.048-.1386.032-.256.08-.352.144s-.1706.1493-.224.256c-.0426.096-.064.2027-.064.32s.0267.2293.08.336c.064.1067.1494.1973.256.272.1174.064.288.1387.512.224.2347.0853.5494.1813.944.288.512.1387.944.2933 1.296.464.3627.1707.6507.368.864.592.1814.192.3147.4107.4.656.0854.2453.128.5173.128.816 0 .5227-.1493.992-.448 1.408-.288.4053-.688.7253-1.2.96-.512.224-1.088.336-1.728.336zm4.9958 3.36v-11.984h2.192l.064 1.904-.416-.144c.0747-.3413.256-.656.544-.944.2987-.288.6667-.5227 1.104-.704s.896-.272 1.376-.272c.736 0 1.3867.192 1.952.576.576.3733 1.0293.8907 1.36 1.552.3413.6507.512 1.4027.512 2.256 0 .8427-.1653 1.5947-.496 2.256s-.784 1.184-1.36 1.568c-.576.3733-1.232.56-1.968.56-.4907 0-.96-.0907-1.408-.272-.4373-.192-.8107-.4427-1.12-.752s-.5013-.64-.576-.992l.528-.224v5.616zm4.352-5.328c.416 0 .784-.1013 1.104-.304s.5707-.4853.752-.848c.1813-.3733.272-.8.272-1.28s-.0907-.9013-.272-1.264-.432-.6453-.752-.848c-.3093-.2027-.6773-.304-1.104-.304s-.8.1013-1.12.304c-.32.192-.5707.4747-.752.848-.1813.3627-.272.784-.272 1.264s.0907.9067.272 1.28c.1813.3627.432.6453.752.848s.6933.304 1.12.304zm6.2462 1.808v-8.464h2.272v8.464zm1.12-10.208c-.4373 0-.7786-.1067-1.024-.32-.2453-.2133-.368-.5173-.368-.912 0-.3627.1227-.656.368-.88.256-.2347.5974-.352 1.024-.352.4374 0 .7787.112 1.024.336.2454.2133.368.512.368.896 0 .3733-.128.672-.384.896-.2453.224-.5813.336-1.008.336zm3.5947 10.208v-11.84h2.272v11.84zm4.5937 0v-11.84h2.272v11.84zm7.5895.16c-.704 0-1.3387-.192-1.904-.576s-1.0133-.9067-1.344-1.568-.496-1.4187-.496-2.272.1653-1.6053.496-2.256c.3413-.6613.8-1.1787 1.376-1.552.576-.384 1.232-.576 1.968-.576.416 0 .7947.064 1.136.192.352.1173.656.2827.912.496.2667.2133.4907.4587.672.736s.3093.576.384.896l-.48-.08v-2.064h2.256v8.464h-2.288v-2.032l.512-.048c-.0853.2987-.224.5813-.416.848s-.432.5067-.72.72c-.2773.2027-.592.368-.944.496-.352.1173-.7253.176-1.12.176zm.624-1.968c.4267 0 .8-.1013 1.12-.304s.5653-.4853.736-.848c.1813-.3733.272-.8053.272-1.296 0-.48-.0907-.9013-.272-1.264-.1707-.3627-.416-.6453-.736-.848-.32-.2133-.6933-.32-1.12-.32-.416 0-.784.1067-1.104.32-.3093.2027-.5547.4853-.736.848s-.272.784-.272 1.264c0 .4907.0907.9227.272 1.296.1813.3627.4267.6453.736.848.32.2027.688.304 1.104.304zm10.4857 5.488c-.672 0-1.333-.1013-1.984-.304-.65-.192-1.178-.4427-1.5838-.752l.7998-1.632c.214.1493.459.2827.736.4.278.1173.566.208.864.272.31.064.624.096.944.096.555 0 1.008-.0853 1.36-.256.363-.1707.635-.4267.816-.768.182-.3307.272-.7573.272-1.28v-1.472l.384.08c-.064.352-.24.6773-.528.976-.288.288-.65.5227-1.088.704-.437.1707-.885.256-1.344.256-.789 0-1.488-.1813-2.096-.544s-1.0878-.864-1.4398-1.504-.528-1.376-.528-2.208c0-.8533.1707-1.6053.512-2.256.352-.6613.8268-1.1787 1.4238-1.552.608-.384 1.296-.576 2.064-.576.32 0 .624.0373.912.112.299.0747.571.1813.816.32.256.128.48.2773.672.448.203.16.368.336.496.528s.208.384.24.576l-.464.128.064-1.936h2.176v7.824c0 .6933-.101 1.3067-.304 1.84-.202.5333-.501.9813-.896 1.344-.384.3733-.858.656-1.424.848-.554.192-1.178.288-1.872.288zm.064-5.504c.448 0 .838-.1013 1.168-.304.342-.2027.603-.4853.784-.848.182-.3627.272-.7893.272-1.28 0-.48-.09-.9013-.272-1.264-.181-.3733-.442-.6613-.784-.864-.33-.2027-.72-.304-1.168-.304-.437 0-.826.1067-1.168.32-.33.2027-.586.4853-.768.848-.181.3627-.272.784-.272 1.264s.091.9067.272 1.28c.182.3627.438.6453.768.848.342.2027.731.304 1.168.304zm10.706 1.984c-.918 0-1.718-.1867-2.4-.56-.683-.3733-1.216-.8853-1.6-1.536s-.576-1.3973-.576-2.24c0-.6507.106-1.248.32-1.792.213-.544.512-1.0133.896-1.408.384-.4053.837-.7147 1.36-.928.533-.224 1.109-.336 1.728-.336.576 0 1.109.1067 1.6.32.49.2027.912.496 1.264.88.362.3733.64.816.832 1.328s.277 1.072.256 1.68l-.016.704h-6.8l-.368-1.392h5.296l-.256.288v-.352c-.022-.288-.118-.5493-.288-.784-.16-.2347-.368-.416-.624-.544s-.544-.192-.864-.192c-.47 0-.87.0907-1.2.272-.32.1813-.566.448-.736.8-.171.352-.256.7787-.256 1.28 0 .512.106.9547.32 1.328.224.3733.533.6667.928.88.405.2027.88.304 1.424.304.373 0 .714-.0587 1.024-.176.309-.1173.64-.32.992-.608l1.088 1.52c-.31.2773-.651.512-1.024.704-.374.1813-.758.32-1.152.416-.395.096-.784.144-1.168.144zm13.433 0c-.704 0-1.339-.192-1.904-.576-.566-.384-1.014-.9067-1.344-1.568-.331-.6613-.496-1.4187-.496-2.272s.165-1.6053.496-2.256c.341-.6613.8-1.1787 1.376-1.552.576-.384 1.232-.576 1.968-.576.416 0 .794.064 1.136.192.352.1173.656.2827.912.496.266.2133.49.4587.672.736.181.2773.309.576.384.896l-.48-.08v-2.064h2.256v8.464h-2.288v-2.032l.512-.048c-.086.2987-.224.5813-.416.848s-.432.5067-.72.72c-.278.2027-.592.368-.944.496-.352.1173-.726.176-1.12.176zm.624-1.968c.426 0 .8-.1013 1.12-.304s.565-.4853.736-.848c.181-.3733.272-.8053.272-1.296 0-.48-.091-.9013-.272-1.264-.171-.3627-.416-.6453-.736-.848-.32-.2133-.694-.32-1.12-.32-.416 0-.784.1067-1.104.32-.31.2027-.555.4853-.736.848-.182.3627-.272.784-.272 1.264 0 .4907.09.9227.272 1.296.181.3627.426.6453.736.848.32.2027.688.304 1.104.304zm6.646 1.808v-11.84h2.272v11.84zm4.769 0v-8.464h2.272v8.464zm1.12-10.208c-.437 0-.778-.1067-1.024-.32-.245-.2133-.368-.5173-.368-.912 0-.3627.123-.656.368-.88.256-.2347.598-.352 1.024-.352.438 0 .779.112 1.024.336.246.2133.368.512.368.896 0 .3733-.128.672-.384.896-.245.224-.581.336-1.008.336zm3.563 10.208v-8.464h2.192l.048 1.616-.336.064c.117-.2773.272-.528.464-.752s.416-.416.672-.576c.267-.16.544-.2827.832-.368.288-.096.576-.144.864-.144.437 0 .832.0693 1.184.208s.651.3573.896.656c.245.288.437.672.576 1.152l-.352-.032.112-.256c.139-.256.315-.4853.528-.688.213-.2133.453-.3947.72-.544.267-.16.544-.2827.832-.368s.571-.128.848-.128c.661 0 1.211.1333 1.648.4.437.256.763.6453.976 1.168.224.5227.336 1.1627.336 1.92v5.136h-2.272v-4.976c0-.384-.053-.6987-.16-.944s-.261-.4267-.464-.544c-.203-.128-.464-.192-.784-.192-.245 0-.475.0427-.688.128-.203.0747-.384.1867-.544.336-.149.1387-.267.304-.352.496s-.128.4053-.128.64v5.056h-2.272v-4.992c0-.352-.059-.6507-.176-.896-.107-.256-.261-.448-.464-.576s-.453-.192-.752-.192c-.245 0-.475.0427-.688.128-.203.0747-.379.1867-.528.336-.149.1387-.272.304-.368.496-.085.192-.128.4-.128.624v5.072zm19.22.16c-.918 0-1.718-.1867-2.4-.56-.683-.3733-1.216-.8853-1.6-1.536s-.576-1.3973-.576-2.24c0-.6507.106-1.248.32-1.792.213-.544.512-1.0133.896-1.408.384-.4053.837-.7147 1.36-.928.533-.224 1.109-.336 1.728-.336.576 0 1.109.1067 1.6.32.49.2027.912.496 1.264.88.362.3733.64.816.832 1.328s.277 1.072.256 1.68l-.016.704h-6.8l-.368-1.392h5.296l-.256.288v-.352c-.022-.288-.118-.5493-.288-.784-.16-.2347-.368-.416-.624-.544s-.544-.192-.864-.192c-.47 0-.87.0907-1.2.272-.32.1813-.566.448-.736.8-.171.352-.256.7787-.256 1.28 0 .512.106.9547.32 1.328.224.3733.533.6667.928.88.405.2027.88.304 1.424.304.373 0 .714-.0587 1.024-.176.309-.1173.64-.32.992-.608l1.088 1.52c-.31.2773-.651.512-1.024.704-.374.1813-.758.32-1.152.416-.395.096-.784.144-1.168.144zm5.359-.16v-8.464h2.176l.064 1.728-.448.192c.117-.384.325-.7307.624-1.04.309-.32.677-.576 1.104-.768.426-.192.874-.288 1.344-.288.64 0 1.173.128 1.6.384.437.256.762.6453.976 1.168.224.512.336 1.1467.336 1.904v5.184h-2.272v-5.008c0-.384-.054-.704-.16-.96-.107-.256-.272-.4427-.496-.56-.214-.128-.48-.1813-.8-.16-.256 0-.496.0427-.72.128-.214.0747-.4.1867-.56.336-.15.1493-.272.32-.368.512-.086.192-.128.4-.128.624v5.088h-1.12c-.246 0-.464 0-.656 0s-.358 0-.496 0zm10.769 0v-10.608h2.272v10.608zm-1.584-6.432v-2.032h5.584v2.032zm10.154 6.592c-.704 0-1.338-.192-1.904-.576-.565-.384-1.013-.9067-1.344-1.568-.33-.6613-.496-1.4187-.496-2.272s.166-1.6053.496-2.256c.342-.6613.8-1.1787 1.376-1.552.576-.384 1.232-.576 1.968-.576.416 0 .795.064 1.136.192.352.1173.656.2827.912.496.267.2133.491.4587.672.736.182.2773.31.576.384.896l-.48-.08v-2.064h2.256v8.464h-2.288v-2.032l.512-.048c-.085.2987-.224.5813-.416.848s-.432.5067-.72.72c-.277.2027-.592.368-.944.496-.352.1173-.725.176-1.12.176zm.624-1.968c.427 0 .8-.1013 1.12-.304s.566-.4853.736-.848c.182-.3733.272-.8053.272-1.296 0-.48-.09-.9013-.272-1.264-.17-.3627-.416-.6453-.736-.848-.32-.2133-.693-.32-1.12-.32-.416 0-.784.1067-1.104.32-.309.2027-.554.4853-.736.848-.181.3627-.272.784-.272 1.264 0 .4907.091.9227.272 1.296.182.3627.427.6453.736.848.32.2027.688.304 1.104.304zm6.822 1.808v-8.464h2.272v8.464zm1.12-10.208c-.437 0-.778-.1067-1.024-.32-.245-.2133-.368-.5173-.368-.912 0-.3627.123-.656.368-.88.256-.2347.598-.352 1.024-.352.438 0 .779.112 1.024.336.246.2133.368.512.368.896 0 .3733-.128.672-.384.896-.245.224-.581.336-1.008.336zm3.579 10.208v-8.464h2.192l.08 2.72-.384-.56c.128-.4373.336-.832.624-1.184.288-.3627.624-.6453 1.008-.848.395-.2027.805-.304 1.232-.304.181 0 .357.016.528.048s.315.0693.432.112l-.608 2.496c-.128-.064-.283-.1173-.464-.16-.181-.0533-.368-.08-.56-.08-.256 0-.496.048-.72.144-.213.0853-.4.2133-.56.384-.16.16-.288.352-.384.576-.085.224-.128.4693-.128.736v4.384zm10.672.16c-.917 0-1.717-.1867-2.4-.56-.682-.3733-1.216-.8853-1.6-1.536s-.576-1.3973-.576-2.24c0-.6507.107-1.248.32-1.792.214-.544.512-1.0133.896-1.408.384-.4053.838-.7147 1.36-.928.534-.224 1.11-.336 1.728-.336.576 0 1.11.1067 1.6.32.491.2027.912.496 1.264.88.363.3733.64.816.832 1.328s.278 1.072.256 1.68l-.016.704h-6.8l-.368-1.392h5.296l-.256.288v-.352c-.021-.288-.117-.5493-.288-.784-.16-.2347-.368-.416-.624-.544s-.544-.192-.864-.192c-.469 0-.869.0907-1.2.272-.32.1813-.565.448-.736.8-.17.352-.256.7787-.256 1.28 0 .512.107.9547.32 1.328.224.3733.534.6667.928.88.406.2027.88.304 1.424.304.374 0 .715-.0587 1.024-.176.31-.1173.64-.32.992-.608l1.088 1.52c-.309.2773-.65.512-1.024.704-.373.1813-.757.32-1.152.416-.394.096-.784.144-1.168.144zm13.433 0c-.704 0-1.338-.192-1.904-.576-.565-.384-1.013-.9067-1.344-1.568-.33-.6613-.496-1.4187-.496-2.272s.166-1.6053.496-2.256c.342-.6613.8-1.1787 1.376-1.552.576-.384 1.232-.576 1.968-.576.416 0 .795.064 1.136.192.352.1173.656.2827.912.496.267.2133.491.4587.672.736.182.2773.31.576.384.896l-.48-.08v-2.064h2.256v8.464h-2.288v-2.032l.512-.048c-.085.2987-.224.5813-.416.848s-.432.5067-.72.72c-.277.2027-.592.368-.944.496-.352.1173-.725.176-1.12.176zm.624-1.968c.427 0 .8-.1013 1.12-.304s.566-.4853.736-.848c.182-.3733.272-.8053.272-1.296 0-.48-.09-.9013-.272-1.264-.17-.3627-.416-.6453-.736-.848-.32-.2133-.693-.32-1.12-.32-.416 0-.784.1067-1.104.32-.309.2027-.554.4853-.736.848-.181.3627-.272.784-.272 1.264 0 .4907.091.9227.272 1.296.182.3627.427.6453.736.848.32.2027.688.304 1.104.304zm9.099 1.808-3.552-8.464h2.496l2.256 6.32-.528.096 2.368-6.416h2.432l-3.728 8.464zm10.641.16c-.917 0-1.717-.1867-2.4-.56s-1.216-.8853-1.6-1.536-.576-1.3973-.576-2.24c0-.6507.107-1.248.32-1.792s.512-1.0133.896-1.408c.384-.4053.837-.7147 1.36-.928.533-.224 1.109-.336 1.728-.336.576 0 1.109.1067 1.6.32.491.2027.912.496 1.264.88.363.3733.64.816.832 1.328s.277 1.072.256 1.68l-.016.704h-6.8l-.368-1.392h5.296l-.256.288v-.352c-.021-.288-.117-.5493-.288-.784-.16-.2347-.368-.416-.624-.544s-.544-.192-.864-.192c-.469 0-.869.0907-1.2.272-.32.1813-.565.448-.736.8s-.256.7787-.256 1.28c0 .512.107.9547.32 1.328.224.3733.533.6667.928.88.405.2027.88.304 1.424.304.373 0 .715-.0587 1.024-.176s.64-.32.992-.608l1.088 1.52c-.309.2773-.651.512-1.024.704-.373.1813-.757.32-1.152.416s-.784.144-1.168.144zm9.039 0c-.811 0-1.536-.192-2.176-.576s-1.147-.9067-1.52-1.568c-.363-.6613-.544-1.4133-.544-2.256 0-.832.181-1.5787.544-2.24.373-.672.88-1.2 1.52-1.584s1.365-.576 2.176-.576c.757 0 1.451.1387 2.08.416s1.12.6613 1.472 1.152l-1.248 1.504c-.149-.2027-.336-.384-.56-.544-.224-.1707-.469-.304-.736-.4-.256-.096-.523-.144-.8-.144-.437 0-.827.1067-1.168.32-.331.2027-.592.4853-.784.848s-.288.7787-.288 1.248c0 .4587.096.8693.288 1.232.203.352.475.64.816.864.341.2133.725.32 1.152.32.277 0 .539-.0373.784-.112.245-.0853.475-.208.688-.368.224-.16.427-.352.608-.576l1.232 1.504c-.363.4587-.864.832-1.504 1.12-.64.2773-1.317.416-2.032.416zm9.898-.16v-8.464h2.176l.064 1.728-.448.192c.118-.384.326-.7307.624-1.04.31-.32.678-.576 1.104-.768.427-.192.875-.288 1.344-.288.64 0 1.174.128 1.6.384.438.256.763.6453.976 1.168.224.512.336 1.1467.336 1.904v5.184h-2.272v-5.008c0-.384-.053-.704-.16-.96-.106-.256-.272-.4427-.496-.56-.213-.128-.48-.1813-.8-.16-.256 0-.496.0427-.72.128-.213.0747-.4.1867-.56.336-.149.1493-.272.32-.368.512-.085.192-.128.4-.128.624v5.088h-1.12c-.245 0-.464 0-.656 0s-.357 0-.496 0zm13.889.16c-.864 0-1.637-.1867-2.32-.56-.672-.384-1.205-.9067-1.6-1.568-.384-.6613-.576-1.4187-.576-2.272s.192-1.6053.576-2.256c.395-.6613.928-1.184 1.6-1.568.683-.384 1.456-.576 2.32-.576.854 0 1.616.192 2.288.576.683.384 1.216.9067 1.6 1.568.384.6507.576 1.4027.576 2.256s-.192 1.6107-.576 2.272-.917 1.184-1.6 1.568c-.672.3733-1.434.56-2.288.56zm0-1.984c.416 0 .79-.1013 1.12-.304.331-.2133.587-.5013.768-.864.192-.3733.288-.7893.288-1.248 0-.4693-.096-.8853-.288-1.248-.181-.3733-.437-.6613-.768-.864-.33-.2133-.704-.32-1.12-.32-.426 0-.805.1067-1.136.32-.33.2133-.592.5013-.784.864s-.282.7787-.272 1.248c-.01.4587.08.8747.272 1.248.192.3627.454.6507.784.864.331.2027.71.304 1.136.304zm6.99 1.824v-10.608h2.272v10.608zm-1.584-6.432v-2.032h5.584v2.032zm7.065 6.432v-8.464h2.192l.08 2.72-.384-.56c.128-.4373.336-.832.624-1.184.288-.3627.624-.6453 1.008-.848.394-.2027.805-.304 1.232-.304.181 0 .357.016.528.048.17.032.314.0693.432.112l-.608 2.496c-.128-.064-.283-.1173-.464-.16-.182-.0533-.368-.08-.56-.08-.256 0-.496.048-.72.144-.214.0853-.4.2133-.56.384-.16.16-.288.352-.384.576-.086.224-.128.4693-.128.736v4.384zm10.672.16c-.918 0-1.718-.1867-2.4-.56-.683-.3733-1.216-.8853-1.6-1.536s-.576-1.3973-.576-2.24c0-.6507.106-1.248.32-1.792.213-.544.512-1.0133.896-1.408.384-.4053.837-.7147 1.36-.928.533-.224 1.109-.336 1.728-.336.576 0 1.109.1067 1.6.32.49.2027.912.496 1.264.88.362.3733.64.816.832 1.328s.277 1.072.256 1.68l-.016.704h-6.8l-.368-1.392h5.296l-.256.288v-.352c-.022-.288-.118-.5493-.288-.784-.16-.2347-.368-.416-.624-.544s-.544-.192-.864-.192c-.47 0-.87.0907-1.2.272-.32.1813-.566.448-.736.8-.171.352-.256.7787-.256 1.28 0 .512.106.9547.32 1.328.224.3733.533.6667.928.88.405.2027.88.304 1.424.304.373 0 .714-.0587 1.024-.176.309-.1173.64-.32.992-.608l1.088 1.52c-.31.2773-.651.512-1.024.704-.374.1813-.758.32-1.152.416-.395.096-.784.144-1.168.144z" fill="#fff"/><path clip-rule="evenodd" d="m275.956 134.701s11.088-26.049-3.456-34.593c-30.751-3.4413-188.2494 1.669-207.5748 7.96-2.2221 3.682-7.6763 32.162 6.3296 35.808 15.1281 3.946 67.0662 3.194 204.7012-9.175z" fill="#fff" fill-rule="evenodd"/><path d="m89.7393 122.434c0 .744-.0847 1.565-.2539 2.462-.1524.881-.4232 1.702-.8125 2.463-.3724.762-.8718 1.397-1.4981 1.905-.6094.507-1.3796.761-2.3105.761-.237 0-.4825-.017-.7364-.05-.2539-.034-.4993-.093-.7363-.178-.2201-.085-.4232-.195-.6094-.33-.1862-.153-.3301-.347-.4316-.584l-.2285 3.656c-.017.389-.0339.855-.0508 1.397 0 .541-.0677 1.057-.2031 1.548-.1185.491-.3301.906-.6348 1.245-.2878.355-.7109.533-1.2695.533-.3216 0-.5925-.17-.8125-.508-.2201-.322-.3978-.736-.5332-1.244-.1185-.508-.2116-1.075-.2793-1.701-.0677-.627-.1101-1.228-.127-1.803-.0169-.576-.0254-1.1-.0254-1.574s0-.821 0-1.041c0-1.134-.0084-2.26-.0254-3.377-.0169-1.134-.0254-2.269-.0254-3.403 0-.203 0-.516 0-.939 0-.44.017-.914.0508-1.422.0339-.508.0847-1.033.1524-1.574.0846-.542.2031-1.033.3554-1.473.1524-.457.347-.821.584-1.092.237-.287.5248-.431.8633-.431.2201 0 .4147.067.584.203.1862.118.3385.279.457.482.1354.186.2455.39.3301.61s.1523.423.2031.609c.5248-.592 1.1257-1.041 1.8028-1.346.694-.304 1.4303-.457 2.2089-.457.8125 0 1.4727.229 1.9805.686.5247.457.931 1.024 1.2188 1.701.3046.677.5162 1.405.6347 2.184.1185.761.1778 1.455.1778 2.082zm-3.6309-.204c0-.253-.0254-.507-.0762-.761-.0338-.271-.11-.517-.2285-.737-.1016-.237-.2539-.423-.457-.558-.2031-.153-.4571-.229-.7617-.229-.4063 0-.8379.136-1.295.407-.4401.253-.7701.55-.9902.888-.0846.136-.1354.356-.1523.66-.017.305-.0254.534-.0254.686v.482c.0169.187.0338.381.0508.584.0169.203.0338.398.0507.584.0339.187.0762.33.127.432.0508.152.1608.296.3301.432.1692.118.3554.228.5586.33.2031.101.4062.177.6093.228.2201.051.4063.076.5586.076.3555 0 .6433-.135.8633-.406.2201-.271.3893-.592.5078-.965.1354-.372.2201-.753.2539-1.142.0508-.407.0762-.737.0762-.991zm9.9277-7.617c0 .914-.0423 1.837-.1269 2.768-.0677.914-.1016 1.836-.1016 2.767 0 1.202.0339 2.404.1016 3.606.0846 1.202.1269 2.412.1269 3.631 0 .304-.0169.651-.0507 1.041-.0339.372-.1185.719-.254 1.041-.1184.321-.3046.592-.5585.812-.254.22-.5925.33-1.0157.33-.4062 0-.7617-.203-1.0664-.609-.2877-.389-.5332-.889-.7363-1.498-.1862-.626-.347-1.32-.4824-2.082-.1185-.762-.2116-1.498-.2793-2.209-.0508-.728-.0931-1.388-.127-1.981-.0169-.609-.0254-1.057-.0254-1.345 0-.322.0085-.787.0254-1.397.0339-.609.0931-1.269.1778-1.98.0846-.711.1946-1.431.33-2.158.1524-.745.347-1.414.584-2.006.237-.61.5163-1.101.8379-1.473.3385-.389.7363-.584 1.1934-.584.3724 0 .6517.127.8379.381.2031.237.347.533.4316.889.0846.338.1354.702.1523 1.091.017.373.0254.694.0254.965zm6.1189-2.336c0 .237-.067.449-.203.635-.118.186-.279.356-.482.508-.203.135-.423.245-.66.33-.237.068-.457.102-.661.102-.3381 0-.6344-.085-.8883-.254-.2539-.17-.3808-.432-.3808-.787 0-.254.0592-.474.1777-.661.1354-.203.2962-.364.4824-.482.1862-.135.3978-.237.635-.305.237-.067.465-.101.685-.101.322 0 .618.076.889.228.271.153.406.415.406.787zm.203 8.633v.762c0 .254-.008.499-.025.736-.017.288-.025.677-.025 1.168 0 .474-.017.99-.051 1.549s-.093 1.126-.178 1.701c-.068.576-.186 1.1-.355 1.574-.17.474-.398.864-.686 1.168-.271.288-.618.44-1.0409.457-.3216.017-.5925-.11-.8125-.38-.2201-.271-.4063-.618-.5586-1.041-.1354-.441-.237-.923-.3047-1.448-.0677-.541-.1185-1.058-.1524-1.549-.0338-.507-.0507-.973-.0507-1.396s0-.736 0-.94c0-.27 0-.651 0-1.142 0-.508.0169-1.05.0507-1.625.0339-.576.0931-1.16.1778-1.752.1015-.592.237-1.134.4062-1.625.1862-.491.4232-.889.711-1.193.2877-.305.6521-.457 1.0921-.457.457 0 .804.228 1.041.685s.414.99.533 1.6c.118.609.186 1.218.203 1.828.017.592.025 1.032.025 1.32zm12.594 5.51c0 .305-.017.702-.051 1.193-.017.491-.084.974-.203 1.448-.118.457-.304.854-.558 1.193-.254.338-.61.508-1.067.508-.626 0-1.108-.203-1.447-.61-.339-.406-.499-.914-.482-1.523-.542.474-1.16.846-1.854 1.117-.677.271-1.371.406-2.082.406-.491 0-.956-.118-1.396-.355-.441-.237-.83-.542-1.168-.914-.339-.373-.61-.787-.813-1.244-.203-.474-.305-.94-.305-1.397 0-.812.246-1.523.737-2.133.508-.609 1.125-1.125 1.853-1.548.728-.441 1.498-.788 2.311-1.041.829-.254 1.566-.424 2.209-.508 0-.085 0-.161 0-.229.017-.068.025-.144.025-.228 0-.525-.144-.948-.432-1.27-.287-.321-.694-.482-1.218-.482-.423 0-.787.076-1.092.228-.305.136-.593.296-.863.483-.271.169-.542.33-.813.482-.271.136-.575.203-.914.203-.372 0-.694-.118-.965-.355-.254-.237-.381-.542-.381-.914 0-.559.161-1.067.483-1.524.338-.457.753-.838 1.244-1.142.508-.322 1.049-.567 1.625-.737.592-.186 1.134-.279 1.625-.279.457 0 .914.059 1.371.178.457.101.889.271 1.295.508.406.22.77.499 1.092.837.338.322.609.703.812 1.143.305.626.55 1.295.737 2.006.186.694.33 1.413.431 2.158.102.728.17 1.464.203 2.209.034.728.051 1.439.051 2.133zm-4.062-.813-.077-1.726c-.033 0-.067 0-.101 0-.034-.017-.068-.026-.102-.026-.22 0-.499.06-.838.178-.321.102-.634.254-.939.457-.305.186-.567.398-.787.635-.203.237-.305.482-.305.736 0 .237.085.398.254.483.169.084.364.127.584.127.372 0 .77-.093 1.193-.28.424-.203.796-.397 1.118-.584zm17.088-4.265c0 .863-.017 1.726-.051 2.59-.017.863-.059 1.726-.127 2.589-.051.745-.119 1.541-.203 2.387-.085.847-.22 1.684-.407 2.514-.186.846-.431 1.65-.736 2.412-.305.779-.711 1.464-1.219 2.057-.491.592-1.091 1.066-1.802 1.421-.711.356-1.558.534-2.539.534-.457 0-.974-.076-1.549-.229-.559-.135-1.092-.338-1.6-.609-.491-.271-.914-.61-1.269-1.016-.339-.389-.508-.846-.508-1.371 0-.389.135-.753.406-1.092.288-.321.652-.482 1.092-.482.271 0 .525.042.762.127.253.101.499.211.736.33.254.118.491.22.711.305.237.101.474.152.711.152.626 0 1.151-.161 1.574-.482.423-.305.762-.703 1.016-1.194.253-.474.44-.999.558-1.574.136-.559.229-1.092.279-1.6-.338.39-.736.66-1.193.813-.44.135-.905.203-1.396.203-.898 0-1.659-.152-2.286-.457-.626-.322-1.134-.753-1.523-1.295-.389-.559-.677-1.202-.863-1.93s-.28-1.515-.28-2.361c0-.525.051-1.117.153-1.777.118-.661.288-1.329.508-2.006s.491-1.337.812-1.981c.339-.643.728-1.21 1.168-1.701s.931-.889 1.473-1.193c.558-.305 1.168-.457 1.828-.457.643 0 1.21.186 1.701.558.508.373.804.897.889 1.575.186-.356.431-.703.736-1.041.305-.356.677-.534 1.117-.534.237 0 .432.119.584.356.169.237.296.55.381.939.102.373.178.787.229 1.244.05.441.084.881.101 1.321.017.423.026.812.026 1.168zm-3.86 1.65c0-.254-.042-.584-.127-.99-.067-.406-.178-.796-.33-1.168-.135-.372-.313-.694-.533-.965s-.482-.406-.787-.406c-.39 0-.737.135-1.041.406-.288.271-.533.601-.737.99-.203.373-.363.779-.482 1.219-.102.423-.152.787-.152 1.092 0 .22.017.516.05.889.034.372.102.736.204 1.091.118.356.27.661.457.914.186.254.431.381.736.381.457 0 .855-.11 1.193-.33.339-.22.618-.499.838-.838.237-.338.415-.711.533-1.117.119-.406.178-.795.178-1.168zm16.301 2.488c0 .576-.186 1.143-.559 1.702-.355.541-.812 1.032-1.371 1.472-.541.423-1.125.77-1.752 1.041-.626.254-1.202.381-1.726.381-.897 0-1.701-.22-2.412-.66-.694-.457-1.278-1.033-1.752-1.727s-.838-1.455-1.092-2.285c-.237-.846-.356-1.667-.356-2.463 0-.846.119-1.752.356-2.716.237-.965.592-1.854 1.066-2.666.491-.813 1.101-1.49 1.828-2.032.745-.541 1.625-.812 2.641-.812.576 0 1.126.101 1.65.305.525.186.982.457 1.372.812.389.356.702.779.939 1.27.237.49.355 1.041.355 1.65 0 .796-.169 1.54-.507 2.234-.339.694-.787 1.295-1.346 1.803s-1.202.923-1.93 1.244c-.728.305-1.472.474-2.234.508.068.491.262.846.584 1.066.338.22.736.331 1.193.331.339 0 .669-.085.99-.254.322-.17.635-.356.94-.559.305-.22.601-.415.889-.584.304-.169.609-.254.914-.254.338 0 .643.11.914.33s.406.508.406.863zm-4.113-6.22c0-.22-.06-.449-.178-.686-.119-.237-.305-.355-.559-.355-.372 0-.685.101-.939.304-.254.187-.466.432-.635.737-.169.288-.305.601-.406.939-.085.339-.136.652-.152.94.237-.051.516-.119.837-.203.339-.085.652-.195.94-.331.305-.152.558-.338.762-.558.22-.22.33-.483.33-.787zm21.912-6.069c0 .085-.085.33-.254.737-.152.406-.364.905-.635 1.498-.271.592-.584 1.261-.939 2.006-.339.728-.694 1.481-1.067 2.259-.372.762-.736 1.515-1.092 2.26-.355.745-.685 1.422-.99 2.031-.288.593-.533 1.101-.736 1.524-.203.406-.33.66-.381.762.525-.17 1.058-.305 1.6-.407.558-.118 1.117-.177 1.675-.177.271 0 .559.025.864.076.304.034.584.118.838.254.27.118.49.287.66.507.186.204.279.483.279.838 0 .373-.127.711-.381 1.016-.254.288-.584.542-.99.762-.389.22-.838.406-1.346.558-.508.153-1.015.28-1.523.381-.508.102-.99.169-1.447.203-.457.051-.838.076-1.143.076-.389 0-.821-.016-1.295-.05-.457-.034-.897-.127-1.32-.28-.423-.152-.779-.372-1.067-.66-.271-.304-.406-.728-.406-1.269 0-.373.102-.872.305-1.498.22-.644.474-1.295.761-1.955.288-.678.584-1.321.889-1.93.322-.626.576-1.117.762-1.473.575-1.066 1.151-2.124 1.726-3.174.593-1.066 1.168-2.141 1.727-3.224-.592.338-1.27.651-2.031.939-.762.271-1.481.407-2.158.407-.237 0-.491-.034-.762-.102-.254-.068-.491-.161-.711-.279-.203-.136-.373-.305-.508-.508s-.203-.44-.203-.711c0-.44.144-.846.432-1.219.287-.372.66-.711 1.117-1.015.474-.305.998-.576 1.574-.813.592-.237 1.185-.432 1.777-.584.593-.152 1.151-.271 1.676-.355.542-.085.999-.127 1.371-.127.982 0 1.786.194 2.412.584.627.389.94 1.1.94 2.132zm11.553 12.823c0 .321-.085.634-.254.939-.17.288-.567.626-1.194 1.016-.626.389-1.32.761-2.082 1.117-.762.338-1.498.635-2.209.889-.711.237-1.235.355-1.574.355-.237 0-.516-.059-.838-.178-.321-.101-.643-.237-.965-.406-.321-.169-.618-.364-.888-.584-.254-.22-.441-.432-.559-.635-.068-.118-.135-.355-.203-.711-.051-.355-.102-.77-.152-1.244-.034-.474-.068-.973-.102-1.498-.034-.541-.068-1.049-.102-1.523-.017-.491-.033-.923-.05-1.295 0-.373 0-.643 0-.813 0-.626.017-1.345.05-2.158.051-.812.136-1.625.254-2.437.119-.83.288-1.617.508-2.362.237-.761.55-1.405.94-1.929.118-.153.355-.314.711-.483.355-.169.77-.33 1.244-.482.491-.153 1.015-.296 1.574-.432.558-.135 1.092-.245 1.599-.33.525-.101.999-.178 1.422-.228.424-.068.745-.102.965-.102.254 0 .491.059.711.178.237.101.432.245.584.431.169.187.296.398.381.635.102.22.152.457.152.711 0 .22-.034.406-.101.559-.051.152-.136.321-.254.507-.169.221-.525.483-1.067.788-.541.304-1.134.609-1.777.914-.626.287-1.236.55-1.828.787-.576.237-.982.406-1.219.508-.067.389-.144.787-.228 1.193-.068.389-.119.787-.153 1.193.525-.271 1.118-.524 1.778-.761s1.286-.356 1.879-.356c1.201 0 1.802.593 1.802 1.777 0 .288-.059.542-.177.762-.102.22-.246.415-.432.584-.169.169-.372.322-.609.457-.22.119-.44.237-.661.356-.541.287-1.108.541-1.701.761-.592.204-1.185.407-1.777.61-.034.135-.068.288-.102.457-.033.152-.05.304-.05.457 0 .237.017.474.05.711.034.237.068.474.102.711.203-.068.525-.178.965-.33.457-.153.931-.305 1.422-.457.491-.153.965-.28 1.422-.381.457-.119.795-.178 1.015-.178.254 0 .491.059.711.178.22.101.406.245.559.431.152.17.271.373.355.61.102.237.153.474.153.711zm-2.616-19.399c0 .186-.051.373-.152.559-.102.169-.229.33-.381.482-.135.153-.288.296-.457.432-.169.118-.322.228-.457.33-.118.085-.254.186-.406.305-.136.101-.288.203-.457.304-.153.085-.313.161-.483.229-.152.068-.304.101-.457.101-.135 0-.254-.033-.355-.101-.102-.085-.153-.203-.153-.356 0-.254.094-.558.28-.914.203-.372.448-.728.736-1.066.288-.356.593-.652.914-.889.322-.254.618-.381.889-.381.237 0 .448.102.635.305.203.186.304.406.304.66zm16.149 10.03c0 1.167-.271 2.217-.813 3.148-.541.931-1.261 1.752-2.158 2.463.271.406.55.88.838 1.422.288.541.542 1.117.762 1.726.237.593.423 1.194.558 1.803.153.592.229 1.143.229 1.65 0 .542-.136 1.025-.407 1.448-.253.44-.694.66-1.32.66-.525 0-.982-.254-1.371-.762-.372-.508-.711-1.109-1.016-1.803-.287-.711-.558-1.43-.812-2.158-.237-.728-.466-1.312-.686-1.752-.304.102-.601.22-.888.356-.288.118-.584.237-.889.355-.017.373-.051.889-.102 1.549-.033.643-.126 1.286-.279 1.93-.135.643-.347 1.202-.635 1.675-.287.474-.685.711-1.193.711-.559 0-.99-.228-1.295-.685s-.525-.999-.66-1.625c-.118-.626-.186-1.261-.203-1.904-.017-.661-.026-1.177-.026-1.549 0-.796.017-1.574.051-2.336.034-.779.051-1.566.051-2.362 0-.727-.017-1.455-.051-2.183-.017-.728-.025-1.464-.025-2.209 0-.169 0-.381 0-.635 0-.271.008-.542.025-.812.034-.288.068-.559.102-.813s.093-.457.178-.609c.169-.356.55-.694 1.142-1.016.61-.321 1.27-.601 1.981-.838.727-.254 1.43-.448 2.107-.584.694-.152 1.21-.228 1.549-.228.863 0 1.625.161 2.285.482.66.322 1.21.762 1.65 1.32.441.542.771 1.177.991 1.905.22.711.33 1.464.33 2.26zm-4.698.355c0-.44-.101-.77-.304-.99-.203-.237-.533-.356-.99-.356-.339 0-.686.06-1.041.178-.339.119-.652.254-.94.406.068 1.338.093 2.666.076 3.987.356-.119.72-.271 1.092-.457.372-.187.711-.415 1.016-.686.321-.271.584-.575.787-.914s.304-.728.304-1.168zm11.401 13.838c-1.033 0-1.93-.262-2.692-.787-.761-.508-1.396-1.194-1.904-2.057-.491-.88-.863-1.896-1.117-3.047-.237-1.151-.356-2.361-.356-3.631 0-1.184.127-2.386.381-3.605.271-1.219.677-2.319 1.219-3.301s1.227-1.786 2.057-2.412c.829-.626 1.819-.939 2.97-.939 1.118 0 2.049.304 2.793.914.762.592 1.363 1.371 1.803 2.336.457.948.779 2.014.965 3.199.203 1.185.305 2.37.305 3.554 0 1.321-.136 2.573-.407 3.758-.253 1.168-.651 2.201-1.193 3.098-.525.897-1.193 1.608-2.006 2.133-.795.525-1.735.787-2.818.787zm.305-14.168c-.322 0-.601.127-.838.381-.22.254-.407.592-.559 1.015-.152.407-.262.872-.33 1.397-.068.508-.102 1.024-.102 1.549 0 .592.034 1.185.102 1.777.085.593.203 1.126.355 1.6.153.474.339.854.559 1.142.237.288.516.432.838.432.372 0 .669-.186.889-.559.22-.372.389-.821.507-1.345.136-.525.22-1.067.254-1.625.051-.559.076-1.024.076-1.397 0-.457-.033-.939-.101-1.447-.051-.508-.144-.973-.279-1.397-.136-.44-.314-.804-.534-1.091-.22-.288-.499-.432-.837-.432zm25.162 4.672c0 .863-.017 1.726-.051 2.59-.017.863-.059 1.726-.127 2.589-.051.745-.119 1.541-.203 2.387-.085.847-.22 1.684-.406 2.514-.187.846-.432 1.65-.737 2.412-.304.779-.711 1.464-1.219 2.057-.49.592-1.091 1.066-1.802 1.421-.711.356-1.558.534-2.539.534-.457 0-.974-.076-1.549-.229-.559-.135-1.092-.338-1.6-.609-.491-.271-.914-.61-1.269-1.016-.339-.389-.508-.846-.508-1.371 0-.389.135-.753.406-1.092.288-.321.652-.482 1.092-.482.271 0 .525.042.762.127.254.101.499.211.736.33.254.118.491.22.711.305.237.101.474.152.711.152.626 0 1.151-.161 1.574-.482.423-.305.762-.703 1.016-1.194.254-.474.44-.999.558-1.574.136-.559.229-1.092.28-1.6-.339.39-.737.66-1.194.813-.44.135-.905.203-1.396.203-.897 0-1.659-.152-2.285-.457-.627-.322-1.135-.753-1.524-1.295-.389-.559-.677-1.202-.863-1.93s-.279-1.515-.279-2.361c0-.525.05-1.117.152-1.777.118-.661.288-1.329.508-2.006s.491-1.337.812-1.981c.339-.643.728-1.21 1.168-1.701s.931-.889 1.473-1.193c.558-.305 1.168-.457 1.828-.457.643 0 1.21.186 1.701.558.508.373.804.897.889 1.575.186-.356.431-.703.736-1.041.305-.356.677-.534 1.117-.534.237 0 .432.119.584.356.17.237.297.55.381.939.102.373.178.787.229 1.244.05.441.084.881.101 1.321.017.423.026.812.026 1.168zm-3.86 1.65c0-.254-.042-.584-.127-.99-.067-.406-.177-.796-.33-1.168-.135-.372-.313-.694-.533-.965s-.482-.406-.787-.406c-.389 0-.736.135-1.041.406-.288.271-.533.601-.736.99-.204.373-.364.779-.483 1.219-.101.423-.152.787-.152 1.092 0 .22.017.516.051.889.033.372.101.736.203 1.091.118.356.271.661.457.914.186.254.431.381.736.381.457 0 .855-.11 1.193-.33.339-.22.618-.499.838-.838.237-.338.415-.711.534-1.117.118-.406.177-.795.177-1.168zm16.453 3.428c0 .305-.017.702-.05 1.193-.017.491-.085.974-.204 1.448-.118.457-.304.854-.558 1.193-.254.338-.609.508-1.067.508-.626 0-1.108-.203-1.447-.61-.338-.406-.499-.914-.482-1.523-.542.474-1.16.846-1.854 1.117-.677.271-1.371.406-2.082.406-.491 0-.956-.118-1.396-.355s-.83-.542-1.168-.914c-.339-.373-.61-.787-.813-1.244-.203-.474-.304-.94-.304-1.397 0-.812.245-1.523.736-2.133.508-.609 1.126-1.125 1.853-1.548.728-.441 1.498-.788 2.311-1.041.829-.254 1.566-.424 2.209-.508 0-.085 0-.161 0-.229.017-.068.025-.144.025-.228 0-.525-.144-.948-.431-1.27-.288-.321-.694-.482-1.219-.482-.423 0-.787.076-1.092.228-.305.136-.592.296-.863.483-.271.169-.542.33-.813.482-.27.136-.575.203-.914.203-.372 0-.694-.118-.965-.355-.253-.237-.38-.542-.38-.914 0-.559.16-1.067.482-1.524.339-.457.753-.838 1.244-1.142.508-.322 1.05-.567 1.625-.737.593-.186 1.134-.279 1.625-.279.457 0 .914.059 1.371.178.457.101.889.271 1.295.508.406.22.77.499 1.092.837.339.322.609.703.813 1.143.304.626.55 1.295.736 2.006.186.694.33 1.413.431 2.158.102.728.17 1.464.204 2.209.033.728.05 1.439.05 2.133zm-4.062-.813-.076-1.726c-.034 0-.068 0-.102 0-.034-.017-.068-.026-.101-.026-.22 0-.5.06-.838.178-.322.102-.635.254-.94.457-.304.186-.567.398-.787.635-.203.237-.305.482-.305.736 0 .237.085.398.254.483.17.084.364.127.584.127.373 0 .771-.093 1.194-.28.423-.203.795-.397 1.117-.584zm1.549-12.339c0 .135-.026.22-.076.253-.051.034-.136.051-.254.051-.203 0-.432-.051-.686-.152-.237-.102-.482-.229-.736-.381-.237-.152-.474-.313-.711-.482-.22-.17-.406-.322-.559-.457-.169.135-.372.296-.609.482-.22.186-.457.364-.711.533-.254.153-.508.288-.762.406-.254.102-.491.153-.711.153-.084 0-.169-.017-.254-.051-.067-.034-.101-.118-.101-.254 0-.254.11-.575.33-.965.22-.389.491-.761.812-1.117.322-.355.661-.66 1.016-.914s.669-.381.939-.381c.271 0 .584.127.94.381.355.237.685.525.99.863.322.339.593.694.813 1.067.22.372.33.694.33.965zm13.457 6.982c0 .085-.009.178-.026.279-.017.085-.042.17-.076.254-.152.39-.389.72-.711.99-.321.254-.702.381-1.142.381-.66 0-1.109-.33-1.346-.99-.034-.085-.051-.178-.051-.279 0-.119-.008-.237-.025-.356v-.736c-.034-.237-.093-.423-.178-.559-.085-.135-.228-.203-.432-.203-.287 0-.567.186-.837.559-.254.355-.483.787-.686 1.295-.186.491-.339.998-.457 1.523-.119.525-.178.948-.178 1.27 0 .254.017.567.051.939.034.356.102.703.203 1.041.102.339.237.635.406.889.187.237.424.355.711.355.288 0 .55-.084.787-.254.254-.186.5-.397.737-.634.22-.203.457-.415.711-.635.271-.22.575-.33.914-.33.423 0 .753.152.99.457.254.305.381.652.381 1.041 0 .575-.153 1.117-.457 1.625-.305.491-.686.922-1.143 1.295-.457.355-.965.635-1.523.838-.559.22-1.092.33-1.6.33-.914 0-1.693-.229-2.336-.686-.626-.457-1.134-1.032-1.523-1.726-.39-.711-.669-1.481-.838-2.311-.169-.829-.254-1.616-.254-2.361 0-.863.118-1.794.355-2.793.237-1.016.601-1.955 1.092-2.819.491-.863 1.117-1.582 1.879-2.158.779-.575 1.701-.863 2.768-.863.66 0 1.227.144 1.701.432.491.287.889.668 1.193 1.142.322.457.559.973.711 1.549.169.576.254 1.143.254 1.701v.254c0 .085-.008.169-.025.254zm12.949 3.174c0 .288-.009.719-.025 1.295 0 .558-.026 1.151-.077 1.777-.033.609-.084 1.193-.152 1.752-.068.542-.152.94-.254 1.193-.135.322-.313.601-.533.838s-.516.356-.889.356c-.575 0-.99-.229-1.244-.686s-.423-1.024-.508-1.701c-.084-.677-.118-1.413-.101-2.209s.008-1.532-.026-2.209c-.033-.677-.127-1.244-.279-1.701s-.432-.686-.838-.686c-.558 0-.99.093-1.295.28-.288.169-.499.397-.635.685-.118.288-.194.618-.228.99-.017.373-.042.762-.076 1.168-.034.39-.059.914-.076 1.575-.017.66-.093 1.311-.229 1.955-.135.643-.364 1.202-.685 1.675-.305.458-.762.686-1.372.686-.372 0-.677-.144-.914-.432-.22-.287-.397-.66-.533-1.117-.135-.457-.237-.965-.304-1.523-.051-.559-.085-1.1-.102-1.625 0-.542 0-1.033 0-1.473.017-.44.025-.77.025-.99 0-.339.009-.897.026-1.676.034-.779.093-1.642.177-2.59.085-.965.195-1.955.331-2.97.135-1.016.313-1.939.533-2.768.22-.846.482-1.532.787-2.057.321-.524.694-.778 1.117-.761.271.017.499.135.686.355.203.22.364.508.482.863.135.339.245.711.33 1.118.085.406.144.812.178 1.218.051.39.076.754.076 1.092.017.339.025.601.025.787 0 .44-.008.88-.025 1.321-.017.44-.042.88-.076 1.32.389-.525.905-.957 1.549-1.295.66-.339 1.32-.508 1.98-.508.846 0 1.481.237 1.904.711.441.457.754 1.033.94 1.727.186.677.288 1.405.305 2.183.016.762.025 1.447.025 2.057zm5.992-11.147c0 .237-.068.449-.203.635-.118.186-.279.356-.482.508-.204.135-.424.245-.661.33-.237.068-.457.102-.66.102-.338 0-.634-.085-.888-.254-.254-.17-.381-.432-.381-.787 0-.254.059-.474.177-.661.136-.203.297-.364.483-.482.186-.135.398-.237.635-.305.237-.067.465-.101.685-.101.322 0 .618.076.889.228.271.153.406.415.406.787zm.203 8.633v.762c0 .254-.008.499-.025.736-.017.288-.026.677-.026 1.168 0 .474-.016.99-.05 1.549s-.093 1.126-.178 1.701c-.068.576-.186 1.1-.355 1.574-.17.474-.398.864-.686 1.168-.271.288-.618.44-1.041.457-.322.017-.593-.11-.813-.38-.22-.271-.406-.618-.558-1.041-.136-.441-.237-.923-.305-1.448-.068-.541-.118-1.058-.152-1.549-.034-.507-.051-.973-.051-1.396s0-.736 0-.94c0-.27 0-.651 0-1.142 0-.508.017-1.05.051-1.625.034-.576.093-1.16.178-1.752.101-.592.237-1.134.406-1.625.186-.491.423-.889.711-1.193.288-.305.651-.457 1.092-.457.457 0 .804.228 1.041.685s.414.99.533 1.6c.118.609.186 1.218.203 1.828.017.592.025 1.032.025 1.32zm9.242-4.875c0 .491-.169.855-.507 1.092-.322.237-.686.465-1.092.685-.406.204-.779.449-1.117.737-.322.288-.483.719-.483 1.295 0 .304.068.567.203.787.153.22.33.423.534.609.22.17.457.347.711.533.253.187.482.398.685.635.22.237.398.525.533.863.153.339.229.754.229 1.245 0 .711-.186 1.413-.559 2.107-.355.677-.821 1.287-1.396 1.828-.559.525-1.194.948-1.905 1.27-.711.321-1.413.482-2.107.482-.288 0-.576-.025-.863-.076-.288-.034-.55-.11-.787-.229-.22-.118-.407-.279-.559-.482-.152-.22-.229-.499-.229-.838 0-.474.094-.838.28-1.092.186-.271.423-.482.711-.634.287-.153.592-.271.914-.356.338-.085.651-.186.939-.305.288-.135.525-.304.711-.507.186-.204.279-.491.279-.864 0-.355-.143-.719-.431-1.091-.271-.39-.576-.796-.914-1.219-.339-.44-.652-.906-.94-1.397-.271-.491-.406-1.032-.406-1.625 0-.728.144-1.396.432-2.006.304-.626.702-1.168 1.193-1.625.508-.457 1.083-.812 1.727-1.066.643-.271 1.32-.406 2.031-.406.271 0 .533.025.787.076.271.051.508.144.711.279.203.119.364.288.482.508.136.203.203.466.203.787z" fill="#e3000b"/><path d="m1.01197 21.886c-1.240828 1.098-1.356645 2.994-.258686 4.2348 1.097956 1.2408 2.993916 1.3566 4.234746.2587zm91.65023 15.7992c1.483.7388 3.2842.1356 4.023-1.3474l12.0398-24.1668c.739-1.483.136-3.28417-1.347-4.02302-1.483-.73884-3.284-.13558-4.023 1.34741l-10.7024 21.48161-21.4816-10.7023c-1.483-.7389-3.2842-.1356-4.023 1.3474-.7389 1.483-.1356 3.2841 1.3474 4.023zm-87.67417-11.3057c19.26617-17.04788 38.27787-22.37366 53.53567-19.74129 15.2068 2.62358 27.2458 13.23379 32.6316 29.31459l5.6894-1.9056c-6.0257-17.9911-19.7359-30.2912-37.3009-33.321634-17.5139-3.021626-38.2964 3.254914-58.53183 21.160434z" fill="#fff"/></svg>