<svg fill="none" height="160" viewBox="0 0 333 160" width="333" xmlns="http://www.w3.org/2000/svg"><path clip-rule="evenodd" d="m214.87 126.803s12.261-26.505-1.924-35.9795c-30.639-4.886-188.583-6.3594-208.21467-.6727-2.38878 3.7184-9.1161 32.9832 4.7471 37.3612 14.97367 4.738 67.01737 6.189 205.39157-.709z" fill="#fff" fill-rule="evenodd"/><path d="m22.166 109.088c0 .694-.0338 1.413-.1015 2.158-.0678.728-.1862 1.439-.3555 2.133s-.4063 1.354-.711 1.98c-.2877.61-.6601 1.151-1.1171 1.625-.4571.457-1.0072.821-1.6504 1.092-.6433.271-1.3965.406-2.2598.406-1.2695 0-2.3783-.296-3.3262-.888-.931-.593-1.7096-1.346-2.3359-2.26-.62631-.931-1.0918-1.964-1.39649-3.098-.30469-1.151-.45703-2.285-.45703-3.402 0-.119 0-.229 0-.33 0-.102.00846-.195.02539-.279.01693-.356.04232-.838.07617-1.448.05078-.609.12695-1.261.22852-1.955.10156-.694.22851-1.405.38086-2.133.16927-.727.38086-1.379.63476-1.955.27082-.575.59242-1.0491.96482-1.4215s.8125-.5586 1.3203-.5586c.3724 0 .6856.11.9395.3301.2539.22.457.4993.6094.8379.1692.3211.2877.6681.3554 1.0411.0677.355.1016.685.1016.99 0 .457-.0508.923-.1523 1.397-.0847.457-.1693.914-.254 1.371-.1354.728-.2454 1.455-.33 2.183-.0847.728-.127 1.473-.127 2.235 0 .389.0169.863.0508 1.422.0508.558.1608 1.1.3301 1.625.1692.507.4062.947.7109 1.32.3216.355.7533.533 1.2949.533.5248 0 .9395-.178 1.2442-.533.3216-.356.5586-.779.7109-1.27.1524-.491.2455-1.007.2793-1.548.0508-.542.0762-1.008.0762-1.397 0-1.117-.0931-2.217-.2793-3.301-.1862-1.1-.4317-2.192-.7363-3.275-.0847-.288-.1609-.576-.2286-.863-.0507-.288-.0761-.576-.0761-.864 0-.474.1354-.888.4062-1.2439.2878-.3554.6856-.5332 1.1934-.5332.4232 0 .8125.1693 1.1679.5079.3724.3212.7025.7532.9903 1.2952.2877.524.5332 1.117.7363 1.777.2201.66.4063 1.32.5586 1.98.1523.644.2624 1.262.3301 1.854.0846.592.1354 1.075.1523 1.447.017.17.0254.339.0254.508zm8.8867 9.623c-.2877 0-.5162-.135-.6855-.406-.1693-.254-.2962-.55-.3809-.889-.0846-.339-.1439-.677-.1777-1.016-.0169-.355-.0254-.626-.0254-.812 0-.508.0254-1.016.0762-1.524.0677-.507.1354-1.015.2031-1.523.0846-.508.1523-1.016.2031-1.523.0677-.508.1016-1.016.1016-1.524 0-.203-.0085-.423-.0254-.66s-.0592-.457-.127-.66c-.0507-.22-.1438-.398-.2793-.533-.1354-.136-.3131-.203-.5332-.203-.1523 0-.3216.126-.5078.38-.1862.237-.3639.517-.5332.838-.1523.305-.2877.618-.4062.94-.1016.304-.1524.533-.1524.685v1.143c.017.372.0254.753.0254 1.142v1.473c-.0169.305-.0423.618-.0761.94-.0339.321-.0847.634-.1524.939-.0508.305-.1269.601-.2285.889-.1016.27-.237.516-.4063.736-.1523.203-.3385.372-.5586.508-.22.135-.4824.203-.7871.203-.3385 0-.6178-.11-.8379-.33-.22-.22-.3977-.5-.5332-.838-.1354-.356-.2369-.745-.3046-1.168-.0508-.44-.0931-.863-.127-1.27-.0169-.423-.0254-.804-.0254-1.142.0169-.356.0254-.635.0254-.838v-1.193c0-.644-.0169-1.278-.0508-1.905-.0169-.626-.0254-1.252-.0254-1.879 0-.338 0-.77 0-1.295.017-.524.0847-1.032.2032-1.523.1184-.508.3131-.939.5839-1.295.2709-.355.6687-.533 1.1934-.533.237 0 .4486.076.6348.228.1862.153.347.339.4824.559.1523.22.2708.457.3555.711.1015.254.1777.474.2285.66.1692-.237.3639-.465.584-.685.2369-.22.4993-.415.7871-.584.2877-.17.6093-.305.9648-.407.3555-.101.7617-.152 1.2188-.152.8632 0 1.5319.212 2.0058.635.4909.406.8464.922 1.0664 1.549.237.609.3809 1.269.4317 1.98.0507.711.0761 1.354.0761 1.93 0 .288-.0254.719-.0761 1.295-.0508.558-.1354 1.185-.2539 1.879-.1016.677-.2455 1.379-.4317 2.107-.1862.711-.4062 1.363-.6601 1.955-.2539.593-.5586 1.075-.9141 1.447-.3385.373-.7279.559-1.168.559zm23.0547-9.09c0 .491-.0423 1.05-.1269 1.676-.0677.609-.1862 1.236-.3555 1.879-.1523.643-.3639 1.269-.6348 1.879-.2539.609-.5755 1.159-.9648 1.65-.3724.474-.8125.855-1.3203 1.143-.4909.287-1.0664.431-1.7266.431-.694 0-1.3288-.161-1.9043-.482-.5586-.322-1.041-.762-1.4472-1.32-.0508.457-.237.863-.5586 1.218-.3217.339-.7279.508-1.2188.508-.2878 0-.5332-.144-.7363-.432-.1862-.287-.3386-.651-.4571-1.091-.1184-.457-.2115-.957-.2792-1.498-.0508-.542-.0847-1.067-.1016-1.575-.0169-.507-.0254-.964-.0254-1.371 0-.406 0-.694 0-.863 0-.575 0-1.151 0-1.727.0169-.575.0339-1.159.0508-1.751 0-.288-.0085-.72-.0254-1.295 0-.576.0085-1.211.0254-1.905.0169-.711.0508-1.43.1015-2.158.0678-.745.1778-1.422.3301-2.031.1524-.6095.364-1.1089.6348-1.4982s.6178-.5924 1.041-.6094c.3385 0 .6263.1185.8633.3555s.4316.5501.584.9395c.1692.3896.2962.8296.3808 1.3206.1016.474.1693.956.2032 1.447.0507.474.0761.931.0761 1.371.017.423.0254.77.0254 1.041 0 .051-.0084.169-.0254.356v.558.559.254c.1524-.322.3724-.635.6602-.94.2877-.305.6094-.575.9648-.812.3555-.237.7279-.432 1.1172-.584.3893-.153.7617-.229 1.1172-.229.7109 0 1.3034.186 1.7773.559.4909.355.8803.812 1.168 1.371.2878.558.4909 1.168.6094 1.828.1185.643.1777 1.253.1777 1.828zm-3.7324.762c0-.203-.0169-.423-.0508-.66-.0169-.237-.0762-.457-.1777-.661-.0847-.203-.2116-.372-.3809-.507-.1523-.136-.3554-.203-.6094-.203-.2708 0-.5416.059-.8124.177-.254.119-.4994.271-.7364.457-.237.187-.457.39-.6601.61-.2032.203-.3809.406-.5332.609l-.2539 2.26c.2708.389.6009.702.9902.939.3893.22.8294.33 1.3203.33.3724 0 .6771-.118.9141-.355.2539-.237.4485-.525.584-.863.1523-.356.2539-.728.3046-1.118.0677-.389.1016-.727.1016-1.015zm10.1055 8.353c-.8633 0-1.6166-.228-2.2598-.685s-1.1849-1.041-1.625-1.752-.7702-1.498-.9902-2.361c-.2201-.881-.3301-1.744-.3301-2.59 0-.897.11-1.82.3301-2.768.22-.965.5586-1.837 1.0156-2.615.457-.796 1.041-1.439 1.7519-1.93.711-.508 1.5573-.762 2.5391-.762.9479 0 1.752.263 2.4121.788.6771.507 1.2188 1.151 1.625 1.929.4063.762.694 1.6.8633 2.514s.2285 1.777.1777 2.59c-.0507.897-.1946 1.802-.4316 2.717-.2201.914-.5501 1.735-.9902 2.462-.4401.728-.9987 1.321-1.6758 1.778s-1.4811.685-2.4121.685zm.2539-11.476c-.2539 0-.4824.135-.6856.406-.1862.271-.347.601-.4824.99-.1185.39-.2116.804-.2793 1.244-.0677.424-.1016.796-.1016 1.118 0 .406.0339.846.1016 1.32.0846.474.1947.914.3301 1.32.1354.39.2962.72.4824.99.2031.254.4316.381.6856.381.2708 0 .4993-.127.6855-.381.2031-.253.3639-.575.4824-.964.1185-.39.2031-.813.2539-1.27.0508-.474.0762-.914.0762-1.32 0-.373-.0339-.779-.1016-1.219-.0677-.457-.1692-.88-.3046-1.27-.1185-.389-.2793-.71-.4825-.964-.1862-.254-.4062-.381-.6601-.381zm17.6718 3.478c0 .931-.093 1.854-.2792 2.768s-.4994 1.735-.9395 2.463c-.4401.711-1.0326 1.286-1.7773 1.726-.7279.44-1.642.66-2.7422.66-1.0834 0-1.989-.211-2.7168-.634-.7279-.44-1.3119-1.016-1.752-1.727-.4232-.711-.7278-1.515-.914-2.412-.1693-.897-.254-1.811-.254-2.742 0-1.016.1185-2.023.3555-3.022.0508-.27.1439-.643.2793-1.117.1524-.491.3386-.965.5586-1.422.237-.474.4994-.88.7871-1.218.3047-.339.6348-.508.9903-.508.3385 0 .6093.093.8125.279.2031.186.3639.423.4824.711.1185.271.1946.567.2285.889.0338.304.0508.584.0508.838 0 .389-.0339.77-.1016 1.142-.0508.373-.11.745-.1777 1.117-.0677.508-.1354 1.016-.2031 1.524-.0508.508-.0762 1.015-.0762 1.523 0 .254.0084.542.0254.863.0338.305.1015.601.2031.889s.2454.533.4316.736c.1862.187.4486.28.7871.28.4401 0 .7872-.119 1.0411-.356.2708-.237.4655-.533.5839-.888.1355-.356.2201-.737.254-1.143.0338-.406.0507-.779.0507-1.117 0-.745-.0507-1.473-.1523-2.184-.1016-.728-.1947-1.464-.2793-2.209-.0169-.084-.0254-.203-.0254-.355 0-.254.0423-.508.127-.762.0846-.254.2031-.482.3554-.685.1524-.204.3386-.364.5586-.483.2201-.135.4655-.203.7363-.203.3724 0 .7025.135.9903.406.2877.254.5247.593.7109 1.016.2031.406.3639.872.4824 1.396.1355.508.237 1.016.3047 1.524.0847.491.1354.956.1524 1.396.0338.44.0507.787.0507 1.041zm10.9688-2.488c0 .085-.0085.178-.0254.279-.0169.085-.0423.17-.0762.254-.1523.39-.3893.72-.7109.99-.3216.254-.7025.381-1.1426.381-.6601 0-1.1087-.33-1.3457-.99-.0338-.085-.0508-.178-.0508-.279 0-.119-.0084-.237-.0254-.356v-.736c-.0338-.237-.0931-.423-.1777-.559-.0846-.135-.2285-.203-.4316-.203-.2878 0-.5671.186-.8379.559-.2539.355-.4824.787-.6856 1.295-.1862.491-.3385.998-.457 1.523s-.1777.948-.1777 1.27c0 .254.0169.567.0507.939.0339.356.1016.703.2032 1.041.1015.339.237.635.4062.889.1862.237.4232.355.711.355.2877 0 .5501-.084.7871-.254.2539-.186.4993-.397.7363-.634.2201-.203.457-.415.7109-.635.2709-.22.5756-.33.9141-.33.4232 0 .7533.152.9902.457.2539.305.3809.652.3809 1.041 0 .575-.1523 1.117-.457 1.625-.3047.491-.6856.922-1.1426 1.295-.457.355-.9649.635-1.5235.838-.5585.22-1.0918.33-1.5996.33-.914 0-1.6927-.229-2.3359-.686-.6263-.457-1.1341-1.032-1.5234-1.726-.3894-.711-.6687-1.481-.8379-2.311-.1693-.829-.2539-1.616-.2539-2.361 0-.863.1185-1.794.3554-2.793.237-1.016.6009-1.955 1.0918-2.819.4909-.863 1.1172-1.582 1.8789-2.158.7787-.575 1.7012-.863 2.7676-.863.6602 0 1.2272.144 1.7012.432.4909.287.8887.668 1.1933 1.142.3217.457.5586.973.711 1.549.1693.576.2539 1.143.2539 1.701v.254c0 .085-.0085.169-.0254.254zm12.949 3.174c0 .288-.008.719-.025 1.295 0 .558-.026 1.151-.076 1.777-.034.609-.085 1.193-.153 1.752-.067.542-.152.94-.254 1.193-.135.322-.313.601-.533.838s-.516.356-.888.356c-.576 0-.9907-.229-1.2446-.686s-.4232-1.024-.5078-1.701c-.0847-.677-.1185-1.413-.1016-2.209s.0085-1.532-.0254-2.209c-.0338-.677-.1269-1.244-.2793-1.701-.1523-.457-.4316-.686-.8379-.686-.5586 0-.9902.093-1.2949.28-.2877.169-.4993.397-.6347.685-.1185.288-.1947.618-.2286.99-.0169.373-.0423.762-.0761 1.168-.0339.39-.0593.914-.0762 1.575-.0169.66-.0931 1.311-.2285 1.955-.1354.643-.364 1.202-.6856 1.675-.3047.458-.7617.686-1.3711.686-.3724 0-.677-.144-.914-.432-.2201-.287-.3978-.66-.5332-1.117s-.237-.965-.3047-1.523c-.0508-.559-.0847-1.1-.1016-1.625 0-.542 0-1.033 0-1.473.0169-.44.0254-.77.0254-.99 0-.339.0085-.897.0254-1.676.0339-.779.0931-1.642.1777-2.59.0847-.965.1947-1.955.3301-2.97.1354-1.016.3132-1.939.5332-2.768.2201-.846.4824-1.5319.7871-2.0567.3216-.5247.694-.7786 1.1172-.7617.2708.0169.4994.1354.6856.3555.2031.22.3639.5078.4824.8633.1354.3386.2454.7106.3301 1.1176.0846.406.1438.812.1777 1.218.0508.39.0762.754.0762 1.092.0169.339.0254.601.0254.787 0 .44-.0085.88-.0254 1.321-.017.44-.0424.88-.0762 1.32.3893-.525.9056-.957 1.5488-1.295.6602-.339 1.3203-.508 1.9805-.508.8463 0 1.4816.237 1.9046.711.44.457.753 1.033.939 1.727.186.677.288 1.405.305 2.183.017.762.025 1.447.025 2.057zm6.627 7.312c-.863 0-1.616-.228-2.26-.685-.643-.457-1.184-1.041-1.625-1.752-.44-.711-.77-1.498-.99-2.361-.22-.881-.33-1.744-.33-2.59 0-.897.11-1.82.33-2.768.22-.965.559-1.837 1.016-2.615.457-.796 1.041-1.439 1.752-1.93.711-.508 1.557-.762 2.539-.762.948 0 1.752.263 2.412.788.677.507 1.219 1.151 1.625 1.929.406.762.694 1.6.863 2.514s.229 1.777.178 2.59c-.051.897-.195 1.802-.432 2.717-.22.914-.55 1.735-.99 2.462-.44.728-.999 1.321-1.676 1.778s-1.481.685-2.412.685zm.254-11.476c-.254 0-.482.135-.685.406-.187.271-.347.601-.483.99-.118.39-.211.804-.279 1.244-.068.424-.102.796-.102 1.118 0 .406.034.846.102 1.32.084.474.194.914.33 1.32.135.39.296.72.482.99.203.254.432.381.686.381.271 0 .499-.127.685-.381.204-.253.364-.575.483-.964.118-.39.203-.813.254-1.27.051-.474.076-.914.076-1.32 0-.373-.034-.779-.102-1.219-.067-.457-.169-.88-.304-1.27-.119-.389-.28-.71-.483-.964-.186-.254-.406-.381-.66-.381zm13.762 11.451c-.288 0-.516-.135-.686-.406-.169-.254-.296-.55-.381-.889-.084-.339-.143-.677-.177-1.016-.017-.355-.026-.626-.026-.812 0-.508.026-1.016.076-1.524.068-.507.136-1.015.204-1.523.084-.508.152-1.016.203-1.523.067-.508.101-1.016.101-1.524 0-.203-.008-.423-.025-.66s-.059-.457-.127-.66c-.051-.22-.144-.398-.279-.533-.136-.136-.314-.203-.534-.203-.152 0-.321.126-.507.38-.187.237-.364.517-.534.838-.152.305-.287.618-.406.94-.101.304-.152.533-.152.685v1.143c.017.372.025.753.025 1.142v1.473c-.017.305-.042.618-.076.94-.034.321-.085.634-.152.939-.051.305-.127.601-.229.889-.101.27-.237.516-.406.736-.152.203-.339.372-.559.508-.22.135-.482.203-.787.203-.338 0-.618-.11-.838-.33s-.397-.5-.533-.838c-.135-.356-.237-.745-.305-1.168-.05-.44-.093-.863-.127-1.27-.016-.423-.025-.804-.025-1.142.017-.356.025-.635.025-.838v-1.193c0-.644-.016-1.278-.05-1.905-.017-.626-.026-1.252-.026-1.879 0-.338 0-.77 0-1.295.017-.524.085-1.032.203-1.523.119-.508.314-.939.584-1.295.271-.355.669-.533 1.194-.533.237 0 .448.076.635.228.186.153.347.339.482.559.152.22.271.457.355.711.102.254.178.474.229.66.169-.237.364-.465.584-.685.237-.22.499-.415.787-.584.288-.17.609-.305.965-.407.355-.101.762-.152 1.219-.152.863 0 1.532.212 2.005.635.491.406.847.922 1.067 1.549.237.609.381 1.269.432 1.98.05.711.076 1.354.076 1.93 0 .288-.026.719-.076 1.295-.051.558-.136 1.185-.254 1.879-.102.677-.246 1.379-.432 2.107-.186.711-.406 1.363-.66 1.955-.254.593-.559 1.075-.914 1.447-.339.373-.728.559-1.168.559zm21.836-4.291c0 .305-.017.702-.051 1.193-.017.491-.085.974-.203 1.448-.119.457-.305.854-.559 1.193-.254.338-.609.508-1.066.508-.626 0-1.109-.203-1.447-.61-.339-.406-.5-.914-.483-1.523-.542.474-1.159.846-1.853 1.117-.677.271-1.371.406-2.082.406-.491 0-.957-.118-1.397-.355s-.829-.542-1.168-.914c-.338-.373-.609-.787-.812-1.244-.203-.474-.305-.94-.305-1.397 0-.812.245-1.523.736-2.133.508-.609 1.126-1.125 1.854-1.548.728-.441 1.498-.788 2.31-1.041.83-.254 1.566-.424 2.209-.508 0-.085 0-.161 0-.229.017-.068.026-.144.026-.228 0-.525-.144-.948-.432-1.27-.288-.321-.694-.482-1.219-.482-.423 0-.787.076-1.091.228-.305.136-.593.296-.864.483-.271.169-.541.33-.812.482-.271.136-.576.203-.914.203-.373 0-.694-.118-.965-.355-.254-.237-.381-.542-.381-.914 0-.559.161-1.067.482-1.524.339-.457.754-.838 1.245-1.142.507-.322 1.049-.567 1.625-.737.592-.186 1.134-.279 1.625-.279.457 0 .914.059 1.371.178.457.101.888.271 1.295.508.406.22.77.499 1.091.837.339.322.61.703.813 1.143.305.626.55 1.295.736 2.006.186.694.33 1.413.432 2.158.101.728.169 1.464.203 2.209.034.728.051 1.439.051 2.133zm-4.063-.813-.076-1.726c-.034 0-.068 0-.102 0-.033-.017-.067-.026-.101-.026-.22 0-.499.06-.838.178-.322.102-.635.254-.939.457-.305.186-.567.398-.788.635-.203.237-.304.482-.304.736 0 .237.084.398.254.483.169.084.364.127.584.127.372 0 .77-.093 1.193-.28.423-.203.796-.397 1.117-.584zm11.502 5.307c-1.202 0-2.141-.161-2.818-.482-.66-.305-1.16-.745-1.498-1.321-.322-.575-.516-1.269-.584-2.082-.068-.812-.102-1.718-.102-2.717 0-.795.026-1.591.076-2.386.051-.813.127-1.676.229-2.59-.237 0-.423.008-.559.025-.135 0-.245 0-.33 0-.541 0-1.007-.118-1.396-.355-.406-.237-.61-.601-.61-1.092 0-.305.119-.575.356-.812.22-.237.508-.441.863-.61.356-.169.736-.304 1.143-.406.423-.102.821-.169 1.193-.203 0-.474.034-.999.102-1.574.067-.576.186-1.109.355-1.6.186-.508.432-.931.736-1.2695.305-.3386.694-.5079 1.168-.5079.271 0 .508.0847.711.2539.22.1524.398.3555.534.6094.135.2371.237.5081.304.8121.068.305.102.601.102.889 0 .339-.026.686-.076 1.041-.051.356-.144.796-.28 1.32.288-.033.483-.05.584-.05.102-.017.195-.026.28-.026.287 0 .584.026.888.076.322.051.61.136.864.254.27.119.49.28.66.483.169.186.254.414.254.685 0 .305-.127.576-.381.813-.237.237-.542.44-.914.609-.373.169-.77.305-1.194.406-.423.085-.821.144-1.193.178-.102.694-.178 1.337-.229 1.93-.033.575-.076 1.159-.126 1.752-.034.288-.068.584-.102.888-.017.288-.025.584-.025.889 0 .22.008.483.025.787.017.288.076.567.178.838.101.271.262.508.482.711.22.186.525.279.914.279.237 0 .483-.017.736-.05.254-.051.508-.077.762-.077.44 0 .753.153.94.457.203.305.304.694.304 1.168 0 .356-.11.669-.33.94-.203.254-.465.457-.787.609-.321.17-.685.296-1.092.381-.389.085-.761.127-1.117.127zm9.75 0c-1.202 0-2.141-.161-2.818-.482-.66-.305-1.16-.745-1.498-1.321-.322-.575-.516-1.269-.584-2.082-.068-.812-.102-1.718-.102-2.717 0-.795.026-1.591.076-2.386.051-.813.127-1.676.229-2.59-.237 0-.423.008-.559.025-.135 0-.245 0-.33 0-.541 0-1.007-.118-1.396-.355-.406-.237-.61-.601-.61-1.092 0-.305.119-.575.356-.812.22-.237.508-.441.863-.61.356-.169.736-.304 1.143-.406.423-.102.821-.169 1.193-.203 0-.474.034-.999.102-1.574.067-.576.186-1.109.355-1.6.186-.508.432-.931.736-1.2695.305-.3386.694-.5079 1.168-.5079.271 0 .508.0847.711.2539.22.1524.398.3555.534.6094.135.2371.237.5081.304.8121.068.305.102.601.102.889 0 .339-.026.686-.076 1.041-.051.356-.144.796-.28 1.32.288-.033.483-.05.584-.05.102-.017.195-.026.28-.026.287 0 .584.026.888.076.322.051.61.136.864.254.27.119.49.28.66.483.169.186.254.414.254.685 0 .305-.127.576-.381.813-.237.237-.542.44-.914.609-.373.169-.77.305-1.194.406-.423.085-.821.144-1.193.178-.102.694-.178 1.337-.229 1.93-.033.575-.076 1.159-.126 1.752-.034.288-.068.584-.102.888-.017.288-.025.584-.025.889 0 .22.008.483.025.787.017.288.076.567.178.838.101.271.262.508.482.711.22.186.525.279.914.279.237 0 .483-.017.736-.05.254-.051.508-.077.762-.077.44 0 .753.153.94.457.203.305.304.694.304 1.168 0 .356-.11.669-.33.94-.203.254-.465.457-.787.609-.321.17-.685.296-1.092.381-.389.085-.761.127-1.117.127zm14.625-4.494c0 .305-.017.702-.051 1.193-.017.491-.084.974-.203 1.448-.118.457-.304.854-.558 1.193-.254.338-.61.508-1.067.508-.626 0-1.108-.203-1.447-.61-.339-.406-.499-.914-.482-1.523-.542.474-1.16.846-1.854 1.117-.677.271-1.371.406-2.082.406-.491 0-.956-.118-1.396-.355-.441-.237-.83-.542-1.168-.914-.339-.373-.61-.787-.813-1.244-.203-.474-.305-.94-.305-1.397 0-.812.246-1.523.737-2.133.508-.609 1.125-1.125 1.853-1.548.728-.441 1.498-.788 2.311-1.041.829-.254 1.566-.424 2.209-.508 0-.085 0-.161 0-.229.017-.068.025-.144.025-.228 0-.525-.144-.948-.431-1.27-.288-.321-.694-.482-1.219-.482-.423 0-.787.076-1.092.228-.305.136-.592.296-.863.483-.271.169-.542.33-.813.482-.271.136-.575.203-.914.203-.372 0-.694-.118-.965-.355-.254-.237-.381-.542-.381-.914 0-.559.161-1.067.483-1.524.338-.457.753-.838 1.244-1.142.508-.322 1.049-.567 1.625-.737.592-.186 1.134-.279 1.625-.279.457 0 .914.059 1.371.178.457.101.889.271 1.295.508.406.22.77.499 1.092.837.338.322.609.703.812 1.143.305.626.55 1.295.737 2.006.186.694.33 1.413.431 2.158.102.728.17 1.464.203 2.209.034.728.051 1.439.051 2.133zm-4.062-.813-.076-1.726c-.034 0-.068 0-.102 0-.034-.017-.068-.026-.102-.026-.22 0-.499.06-.837.178-.322.102-.635.254-.94.457-.305.186-.567.398-.787.635-.203.237-.305.482-.305.736 0 .237.085.398.254.483.169.084.364.127.584.127.373 0 .77-.093 1.194-.28.423-.203.795-.397 1.117-.584zm15.006-5.357c0 .085-.009.178-.026.279-.017.085-.042.17-.076.254-.152.39-.389.72-.711.99-.322.254-.702.381-1.143.381-.66 0-1.108-.33-1.345-.99-.034-.085-.051-.178-.051-.279 0-.119-.008-.237-.025-.356v-.736c-.034-.237-.094-.423-.178-.559-.085-.135-.229-.203-.432-.203-.288 0-.567.186-.838.559-.254.355-.482.787-.685 1.295-.186.491-.339.998-.457 1.523-.119.525-.178.948-.178 1.27 0 .254.017.567.051.939.034.356.101.703.203 1.041.101.339.237.635.406.889.186.237.423.355.711.355s.55-.084.787-.254c.254-.186.5-.397.737-.634.22-.203.457-.415.71-.635.271-.22.576-.33.915-.33.423 0 .753.152.99.457.254.305.381.652.381 1.041 0 .575-.153 1.117-.457 1.625-.305.491-.686.922-1.143 1.295-.457.355-.965.635-1.523.838-.559.22-1.092.33-1.6.33-.914 0-1.693-.229-2.336-.686-.626-.457-1.134-1.032-1.523-1.726-.39-.711-.669-1.481-.838-2.311-.17-.829-.254-1.616-.254-2.361 0-.863.118-1.794.355-2.793.237-1.016.601-1.955 1.092-2.819.491-.863 1.117-1.582 1.879-2.158.779-.575 1.701-.863 2.768-.863.66 0 1.227.144 1.701.432.491.287.888.668 1.193 1.142.322.457.559.973.711 1.549.169.576.254 1.143.254 1.701v.254c0 .085-.009.169-.025.254zm12.949 3.174c0 .288-.009.719-.026 1.295 0 .558-.025 1.151-.076 1.777-.034.609-.084 1.193-.152 1.752-.068.542-.152.94-.254 1.193-.135.322-.313.601-.533.838s-.517.356-.889.356c-.575 0-.99-.229-1.244-.686s-.423-1.024-.508-1.701-.118-1.413-.101-2.209c.016-.796.008-1.532-.026-2.209s-.127-1.244-.279-1.701-.432-.686-.838-.686c-.559 0-.99.093-1.295.28-.288.169-.499.397-.635.685-.118.288-.194.618-.228.99-.017.373-.043.762-.076 1.168-.034.39-.06.914-.077 1.575-.016.66-.093 1.311-.228 1.955-.135.643-.364 1.202-.686 1.675-.304.458-.761.686-1.371.686-.372 0-.677-.144-.914-.432-.22-.287-.398-.66-.533-1.117s-.237-.965-.305-1.523c-.05-.559-.084-1.1-.101-1.625 0-.542 0-1.033 0-1.473.017-.44.025-.77.025-.99 0-.339.009-.897.026-1.676.033-.779.093-1.642.177-2.59.085-.965.195-1.955.33-2.97.136-1.016.314-1.939.534-2.768.22-.846.482-1.5319.787-2.0567.321-.5247.694-.7786 1.117-.7617.271.0169.499.1354.685.3555.204.22.364.5078.483.8633.135.3386.245.7106.33 1.1176.085.406.144.812.178 1.218.05.39.076.754.076 1.092.017.339.025.601.025.787 0 .44-.008.88-.025 1.321-.017.44-.043.88-.076 1.32.389-.525.905-.957 1.548-1.295.661-.339 1.321-.508 1.981-.508.846 0 1.481.237 1.904.711.44.457.753 1.033.94 1.727.186.677.287 1.405.304 2.183.017.762.026 1.447.026 2.057zm12.441 2.056c0 .576-.186 1.143-.558 1.702-.356.541-.813 1.032-1.372 1.472-.541.423-1.125.77-1.751 1.041-.627.254-1.202.381-1.727.381-.897 0-1.701-.22-2.412-.66-.694-.457-1.278-1.033-1.752-1.727s-.838-1.455-1.092-2.285c-.237-.846-.355-1.667-.355-2.463 0-.846.118-1.752.355-2.716.237-.965.593-1.854 1.067-2.666.49-.813 1.1-1.49 1.828-2.032.744-.541 1.625-.812 2.64-.812.576 0 1.126.101 1.651.305.524.186.981.457 1.371.812.389.356.702.779.939 1.27.237.49.356 1.041.356 1.65 0 .796-.17 1.54-.508 2.234-.339.694-.787 1.295-1.346 1.803-.558.508-1.202.923-1.93 1.244-.727.305-1.472.474-2.234.508.068.491.262.846.584 1.066.339.22.736.331 1.193.331.339 0 .669-.085.991-.254.321-.17.634-.356.939-.559.305-.22.601-.415.889-.584.304-.169.609-.254.914-.254.338 0 .643.11.914.33s.406.508.406.863zm-4.113-6.22c0-.22-.059-.449-.178-.686-.118-.237-.305-.355-.558-.355-.373 0-.686.101-.94.304-.254.187-.465.432-.635.737-.169.288-.304.601-.406.939-.085.339-.135.652-.152.94.237-.051.516-.119.838-.203.338-.085.651-.195.939-.331.305-.152.559-.338.762-.558.22-.22.33-.483.33-.787zm1.422-9.0139c0 .1862-.051.3724-.153.5586-.101.1693-.228.3301-.38.4824-.136.1524-.288.2962-.457.4317-.17.1184-.322.2285-.458.3302-.118.084-.253.186-.406.305-.135.101-.288.203-.457.304-.152.085-.313.161-.482.229-.153.067-.305.101-.457.101-.136 0-.254-.034-.356-.101-.101-.085-.152-.203-.152-.356 0-.254.093-.5583.279-.9138.203-.3724.449-.7279.737-1.0664.287-.3555.592-.6517.914-.8887.321-.2539.617-.3809.888-.3809.237 0 .449.1016.635.3047.203.1862.305.4063.305.6602z" fill="#e3000b"/><g fill="#fff"><path d="m1.30006 153.52v-11.984h2.192l.064 1.904-.416-.144c.07467-.341.256-.656.544-.944.29867-.288.66667-.523 1.104-.704.43734-.181.896-.272 1.376-.272.736 0 1.38667.192 1.952.576.576.373 1.02934.891 1.36 1.552.34134.651.512 1.403.512 2.256 0 .843-.16533 1.595-.496 2.256-.33066.661-.784 1.184-1.36 1.568-.576.373-1.232.56-1.968.56-.49066 0-.96-.091-1.408-.272-.43733-.192-.81066-.443-1.12-.752-.30933-.309-.50133-.64-.576-.992l.528-.224v5.616zm4.352-5.328c.416 0 .784-.101 1.104-.304s.57067-.485.752-.848c.18134-.373.272-.8.272-1.28s-.09066-.901-.272-1.264c-.18133-.363-.432-.645-.752-.848-.30933-.203-.67733-.304-1.104-.304-.42666 0-.8.101-1.12.304-.32.192-.57066.475-.752.848-.18133.363-.272.784-.272 1.264s.09067.907.272 1.28c.18134.363.432.645.752.848s.69334.304 1.12.304zm6.05424 1.808v-8.464h2.192l.08 2.72-.384-.56c.128-.437.336-.832.624-1.184.288-.363.624-.645 1.008-.848.3947-.203.8053-.304 1.232-.304.1813 0 .3573.016.528.048s.3147.069.432.112l-.608 2.496c-.128-.064-.2827-.117-.464-.16-.1813-.053-.368-.08-.56-.08-.256 0-.496.048-.72.144-.2133.085-.4.213-.56.384-.16.16-.288.352-.384.576-.0853.224-.128.469-.128.736v4.384zm9.8243.16c-.704 0-1.3387-.192-1.904-.576-.5654-.384-1.0134-.907-1.344-1.568-.3307-.661-.496-1.419-.496-2.272s.1653-1.605.496-2.256c.3413-.661.8-1.179 1.376-1.552.576-.384 1.232-.576 1.968-.576.416 0 .7946.064 1.136.192.352.117.656.283.912.496.2666.213.4906.459.672.736.1813.277.3093.576.384.896l-.48-.08v-2.064h2.256v8.464h-2.288v-2.032l.512-.048c-.0854.299-.224.581-.416.848s-.432.507-.72.72c-.2774.203-.592.368-.944.496-.352.117-.7254.176-1.12.176zm.624-1.968c.4266 0 .8-.101 1.12-.304s.5653-.485.736-.848c.1813-.373.272-.805.272-1.296 0-.48-.0907-.901-.272-1.264-.1707-.363-.416-.645-.736-.848-.32-.213-.6934-.32-1.12-.32-.416 0-.784.107-1.104.32-.3094.203-.5547.485-.736.848-.1814.363-.272.784-.272 1.264 0 .491.0906.923.272 1.296.1813.363.4266.645.736.848.32.203.688.304 1.104.304zm7.4458 1.808v-10.608h2.272v10.608zm-1.584-6.432v-2.032h5.584v2.032zm7.2569 6.432v-8.464h2.272v8.464zm1.12-10.208c-.4373 0-.7787-.107-1.024-.32s-.368-.517-.368-.912c0-.363.1227-.656.368-.88.256-.235.5973-.352 1.024-.352.4373 0 .7787.112 1.024.336.2453.213.368.512.368.896 0 .373-.128.672-.384.896-.2453.224-.5813.336-1.008.336zm9.4186 13.728v-5.552l.464.08c-.0213.267-.1226.528-.304.784-.1706.245-.4.469-.688.672-.2773.203-.5866.363-.928.48-.3413.117-.6986.176-1.072.176-.7466 0-1.4133-.187-2-.56-.576-.384-1.0346-.907-1.376-1.568-.3306-.661-.496-1.419-.496-2.272s.1654-1.611.496-2.272c.3307-.661.784-1.179 1.36-1.552.576-.384 1.232-.576 1.968-.576.4054 0 .7894.064 1.152.192.3734.117.704.277.992.48s.5227.432.704.688c.1814.256.2827.523.304.8l-.544.08.064-2.064h2.176v11.984zm-2.064-5.328c.4267 0 .8-.101 1.12-.304s.5654-.485.736-.848c.1814-.363.272-.789.272-1.28s-.0906-.917-.272-1.28c-.1706-.373-.416-.661-.736-.864s-.6933-.304-1.12-.304c-.4266 0-.8.107-1.12.32-.32.203-.5706.491-.752.864-.1706.363-.256.784-.256 1.264s.0854.907.256 1.28c.1814.363.432.645.752.848s.6934.304 1.12.304zm9.5267 1.968c-.6187 0-1.152-.133-1.6-.4-.4374-.277-.7787-.667-1.024-1.168-.2347-.512-.352-1.125-.352-1.84v-5.216h2.272v4.848c0 .384.064.72.192 1.008.128.277.3093.491.544.64.2346.149.5226.224.864.224.2453 0 .4746-.037.688-.112.2133-.085.3946-.203.544-.352.1493-.149.2666-.325.352-.528.0853-.203.128-.421.128-.656v-5.072h2.272v8.464h-2.16l-.08-1.744.416-.192c-.128.395-.3414.752-.64 1.072-.2987.32-.656.571-1.072.752s-.864.272-1.344.272zm11.1821 0c-.9173 0-1.7173-.187-2.4-.56s-1.216-.885-1.6-1.536-.576-1.397-.576-2.24c0-.651.1067-1.248.32-1.792s.512-1.013.896-1.408c.384-.405.8373-.715 1.36-.928.5333-.224 1.1093-.336 1.728-.336.576 0 1.1093.107 1.6.32.4907.203.912.496 1.264.88.3627.373.64.816.832 1.328s.2773 1.072.256 1.68l-.016.704h-6.8l-.368-1.392h5.296l-.256.288v-.352c-.0213-.288-.1173-.549-.288-.784-.16-.235-.368-.416-.624-.544s-.544-.192-.864-.192c-.4693 0-.8693.091-1.2.272-.32.181-.5653.448-.736.8s-.256.779-.256 1.28c0 .512.1067.955.32 1.328.224.373.5333.667.928.88.4053.203.88.304 1.424.304.3733 0 .7147-.059 1.024-.176s.64-.32.992-.608l1.088 1.52c-.3093.277-.6507.512-1.024.704-.3733.181-.7573.32-1.152.416s-.784.144-1.168.144zm14.2812 0c-.9173 0-1.7173-.187-2.4-.56-.6826-.373-1.216-.885-1.6-1.536s-.576-1.397-.576-2.24c0-.651.1067-1.248.32-1.792.2134-.544.512-1.013.896-1.408.384-.405.8374-.715 1.36-.928.5334-.224 1.1094-.336 1.728-.336.576 0 1.1094.107 1.6.32.4907.203.912.496 1.264.88.3627.373.64.816.832 1.328s.2774 1.072.256 1.68l-.016.704h-6.8l-.368-1.392h5.296l-.256.288v-.352c-.0213-.288-.1173-.549-.288-.784-.16-.235-.368-.416-.624-.544s-.544-.192-.864-.192c-.4693 0-.8693.091-1.2.272-.32.181-.5653.448-.736.8-.1706.352-.256.779-.256 1.28 0 .512.1067.955.32 1.328.224.373.5334.667.928.88.4054.203.88.304 1.424.304.3734 0 .7147-.059 1.024-.176.3094-.117.64-.32.992-.608l1.088 1.52c-.3093.277-.6506.512-1.024.704-.3733.181-.7573.32-1.152.416-.3946.096-.784.144-1.168.144zm6.175-.16v-10.608h2.272v10.608zm-1.584-6.432v-2.032h5.584v2.032zm11.9712 9.952v-11.984h2.192l.064 1.904-.416-.144c.0746-.341.256-.656.544-.944.2986-.288.6666-.523 1.104-.704.4373-.181.896-.272 1.3759-.272.736 0 1.387.192 1.952.576.576.373 1.029.891 1.36 1.552.341.651.512 1.403.512 2.256 0 .843-.165 1.595-.496 2.256s-.784 1.184-1.36 1.568c-.576.373-1.232.56-1.968.56-.4906 0-.9599-.091-1.4079-.272-.4374-.192-.8107-.443-1.12-.752-.3094-.309-.5014-.64-.576-.992l.528-.224v5.616zm4.352-5.328c.4159 0 .7839-.101 1.1039-.304s.571-.485.752-.848c.181-.373.272-.8.272-1.28s-.091-.901-.272-1.264-.432-.645-.752-.848c-.309-.203-.677-.304-1.1039-.304-.4267 0-.8.101-1.12.304-.32.192-.5707.475-.752.848-.1814.363-.272.784-.272 1.264s.0906.907.272 1.28c.1813.363.432.645.752.848s.6933.304 1.12.304zm6.0699 1.808v-11.84h2.272v11.84zm7.412.16c-.619 0-1.152-.133-1.6-.4-.437-.277-.779-.667-1.024-1.168-.235-.512-.352-1.125-.352-1.84v-5.216h2.272v4.848c0 .384.064.72.192 1.008.128.277.309.491.544.64s.523.224.864.224c.245 0 .475-.037.688-.112.213-.085.395-.203.544-.352s.267-.325.352-.528.128-.421.128-.656v-5.072h2.272v8.464h-2.16l-.08-1.744.416-.192c-.128.395-.341.752-.64 1.072s-.656.571-1.072.752-.864.272-1.344.272zm10.014 0c-.789 0-1.493-.128-2.112-.384-.608-.267-1.099-.629-1.472-1.088l1.408-1.216c.331.352.699.608 1.104.768.405.149.811.224 1.216.224.16 0 .304-.016.432-.048.139-.043.256-.096.352-.16.096-.075.165-.16.208-.256.053-.107.08-.219.08-.336 0-.235-.096-.421-.288-.56-.107-.053-.272-.117-.496-.192-.224-.085-.512-.176-.864-.272-.544-.139-1.008-.299-1.392-.48-.373-.192-.672-.405-.896-.64-.192-.224-.341-.464-.448-.72-.096-.267-.144-.56-.144-.88 0-.384.085-.731.256-1.04.171-.32.405-.592.704-.816.309-.224.661-.395 1.056-.512.395-.128.811-.192 1.248-.192s.864.053 1.28.16.8.261 1.152.464c.363.192.677.421.944.688l-1.216 1.344c-.192-.181-.411-.347-.656-.496-.235-.149-.48-.267-.736-.352s-.485-.128-.688-.128c-.181 0-.347.016-.496.048-.139.032-.256.08-.352.144s-.171.149-.224.256c-.043.096-.064.203-.064.32s.027.229.08.336c.064.107.149.197.256.272.117.064.288.139.512.224.235.085.549.181.944.288.512.139.944.293 1.296.464.363.171.651.368.864.592.181.192.315.411.4.656s.128.517.128.816c0 .523-.149.992-.448 1.408-.288.405-.688.725-1.2.96-.512.224-1.088.336-1.728.336zm9.902-.16v-11.84h2.24v5.104l-.448.192c.117-.384.325-.731.624-1.04.309-.32.677-.576 1.104-.768s.875-.288 1.344-.288c.64 0 1.173.128 1.6.384.437.256.763.645.976 1.168.224.512.336 1.147.336 1.904v5.184h-2.272v-5.008c0-.384-.053-.704-.16-.96s-.272-.443-.496-.56c-.213-.128-.48-.181-.8-.16-.256 0-.496.043-.72.128-.213.075-.4.187-.56.336-.149.149-.272.32-.368.512-.085.192-.128.4-.128.624v5.088h-1.12c-.245 0-.464 0-.656 0s-.357 0-.496 0zm11.059 3.68 1.856-4.352.032 1.312-4.128-9.104h2.576l2.064 4.88c.085.181.165.395.24.64.085.235.155.464.208.688l-.384.16c.064-.181.139-.389.224-.624s.171-.485.256-.752l1.776-4.992h2.592l-3.552 8.464-1.456 3.68zm12.156 0c-.672 0-1.333-.101-1.984-.304-.65-.192-1.178-.443-1.584-.752l.8-1.632c.214.149.459.283.736.4.278.117.566.208.864.272.31.064.624.096.944.096.555 0 1.008-.085 1.36-.256.363-.171.635-.427.816-.768.182-.331.272-.757.272-1.28v-1.472l.384.08c-.064.352-.24.677-.528.976-.288.288-.65.523-1.088.704-.437.171-.885.256-1.344.256-.789 0-1.488-.181-2.096-.544s-1.088-.864-1.44-1.504-.528-1.376-.528-2.208c0-.853.171-1.605.512-2.256.352-.661.827-1.179 1.424-1.552.608-.384 1.296-.576 2.064-.576.32 0 .624.037.912.112.299.075.571.181.816.32.256.128.48.277.672.448.203.16.368.336.496.528s.208.384.24.576l-.464.128.064-1.936h2.176v7.824c0 .693-.101 1.307-.304 1.84-.202.533-.501.981-.896 1.344-.384.373-.858.656-1.424.848-.554.192-1.178.288-1.872.288zm.064-5.504c.448 0 .838-.101 1.168-.304.342-.203.603-.485.784-.848.182-.363.272-.789.272-1.28 0-.48-.09-.901-.272-1.264-.181-.373-.442-.661-.784-.864-.33-.203-.72-.304-1.168-.304-.437 0-.826.107-1.168.32-.33.203-.586.485-.768.848-.181.363-.272.784-.272 1.264s.091.907.272 1.28c.182.363.438.645.768.848.342.203.731.304 1.168.304zm6.882 1.824v-8.464h2.272v8.464zm1.12-10.208c-.438 0-.779-.107-1.024-.32-.246-.213-.368-.517-.368-.912 0-.363.122-.656.368-.88.256-.235.597-.352 1.024-.352.437 0 .778.112 1.024.336.245.213.368.512.368.896 0 .373-.128.672-.384.896-.246.224-.582.336-1.008.336zm7.594 10.368c-.917 0-1.717-.187-2.4-.56-.682-.373-1.216-.885-1.6-1.536s-.576-1.397-.576-2.24c0-.651.107-1.248.32-1.792.214-.544.512-1.013.896-1.408.384-.405.838-.715 1.36-.928.534-.224 1.11-.336 1.728-.336.576 0 1.11.107 1.6.32.491.203.912.496 1.264.88.363.373.64.816.832 1.328s.278 1.072.256 1.68l-.016.704h-6.8l-.368-1.392h5.296l-.256.288v-.352c-.021-.288-.117-.549-.288-.784-.16-.235-.368-.416-.624-.544s-.544-.192-.864-.192c-.469 0-.869.091-1.2.272-.32.181-.565.448-.736.8-.17.352-.256.779-.256 1.28 0 .512.107.955.32 1.328.224.373.534.667.928.88.406.203.88.304 1.424.304.374 0 .715-.059 1.024-.176.31-.117.64-.32.992-.608l1.088 1.52c-.309.277-.65.512-1.024.704-.373.181-.757.32-1.152.416-.394.096-.784.144-1.168.144zm-1.488-9.664-.688-1.056 2.672-2.176 1.136 1.552zm6.847 9.504v-8.464h2.176l.064 1.728-.448.192c.118-.384.326-.731.624-1.04.31-.32.678-.576 1.104-.768.427-.192.875-.288 1.344-.288.64 0 1.174.128 1.6.384.438.256.763.645.976 1.168.224.512.336 1.147.336 1.904v5.184h-2.272v-5.008c0-.384-.053-.704-.16-.96-.106-.256-.272-.443-.496-.56-.213-.128-.48-.181-.8-.16-.256 0-.496.043-.72.128-.213.075-.4.187-.56.336-.149.149-.272.32-.368.512-.085.192-.128.4-.128.624v5.088h-1.12c-.245 0-.464 0-.656 0s-.357 0-.496 0zm10.146 0v-8.464h2.272v8.464zm1.12-10.208c-.438 0-.779-.107-1.024-.32-.246-.213-.368-.517-.368-.912 0-.363.122-.656.368-.88.256-.235.597-.352 1.024-.352.437 0 .778.112 1.024.336.245.213.368.512.368.896 0 .373-.128.672-.384.896-.246.224-.582.336-1.008.336zm9.418 13.728v-5.552l.464.08c-.021.267-.122.528-.304.784-.17.245-.4.469-.688.672-.277.203-.586.363-.928.48-.341.117-.698.176-1.072.176-.746 0-1.413-.187-2-.56-.576-.384-1.034-.907-1.376-1.568-.33-.661-.496-1.419-.496-2.272s.166-1.611.496-2.272c.331-.661.784-1.179 1.36-1.552.576-.384 1.232-.576 1.968-.576.406 0 .79.064 1.152.192.374.117.704.277.992.48s.523.432.704.688c.182.256.283.523.304.8l-.544.08.064-2.064h2.176v11.984zm-2.064-5.328c.427 0 .8-.101 1.12-.304s.566-.485.736-.848c.182-.363.272-.789.272-1.28s-.09-.917-.272-1.28c-.17-.373-.416-.661-.736-.864s-.693-.304-1.12-.304c-.426 0-.8.107-1.12.32-.32.203-.57.491-.752.864-.17.363-.256.784-.256 1.264s.086.907.256 1.28c.182.363.432.645.752.848s.694.304 1.12.304zm9.527 1.968c-.619 0-1.152-.133-1.6-.4-.438-.277-.779-.667-1.024-1.168-.235-.512-.352-1.125-.352-1.84v-5.216h2.272v4.848c0 .384.064.72.192 1.008.128.277.309.491.544.64.234.149.522.224.864.224.245 0 .474-.037.688-.112.213-.085.394-.203.544-.352.149-.149.266-.325.352-.528.085-.203.128-.421.128-.656v-5.072h2.272v8.464h-2.16l-.08-1.744.416-.192c-.128.395-.342.752-.64 1.072-.299.32-.656.571-1.072.752s-.864.272-1.344.272zm11.182 0c-.917 0-1.717-.187-2.4-.56s-1.216-.885-1.6-1.536-.576-1.397-.576-2.24c0-.651.107-1.248.32-1.792s.512-1.013.896-1.408c.384-.405.837-.715 1.36-.928.533-.224 1.109-.336 1.728-.336.576 0 1.109.107 1.6.32.491.203.912.496 1.264.88.363.373.64.816.832 1.328s.277 1.072.256 1.68l-.016.704h-6.8l-.368-1.392h5.296l-.256.288v-.352c-.021-.288-.117-.549-.288-.784-.16-.235-.368-.416-.624-.544s-.544-.192-.864-.192c-.469 0-.869.091-1.2.272-.32.181-.565.448-.736.8s-.256.779-.256 1.28c0 .512.107.955.32 1.328.224.373.533.667.928.88.405.203.88.304 1.424.304.373 0 .715-.059 1.024-.176s.64-.32.992-.608l1.088 1.52c-.309.277-.651.512-1.024.704-.373.181-.757.32-1.152.416s-.784.144-1.168.144z"/><path d="m331.962 14.2304c1.253 1.0834 1.391 2.9779.308 4.2315-1.084 1.2536-2.978 1.3916-4.232.3082zm-139.912 47.2698c-1.657.0277-3.022-1.2929-3.05-2.9495l-.45-26.9963c-.027-1.6566 1.293-3.022 2.95-3.0496 1.656-.0276 3.022 1.293 3.049 2.9496l.401 23.9967 23.996-.4002c1.657-.0276 3.022 1.293 3.05 2.9496.027 1.6566-1.293 3.022-2.95 3.0496zm135.988-42.7301c-20.184-17.44299-45.862-15.0307-70.87-3.8935-24.969 11.1197-48.418 30.6216-63.012 45.7097l-4.312-4.1713c14.906-15.4123 38.97-35.4797 64.883-47.01948 25.873-11.52243 54.444-14.86012 77.235 4.83488z"/></g></svg>