<svg fill="none" height="180" viewBox="0 0 460 180" width="460" xmlns="http://www.w3.org/2000/svg"><path clip-rule="evenodd" d="m281.286 7.0075-10.572-1.19017-10.673-.99588-10.751-1.02015-10.583-.99587-10.584-.59507-10.75-.60724-10.662-.607246-10.672-.400771-10.573-.388633h-10.673l-10.674-.20647-10.662.20647h-10.672l-10.584.388633-10.661.400771-10.662.607246-10.761.60724-10.573.59507-10.5817 1.00801-10.7635 1.00801-10.6616.99588c-5.5841.62665-10.1646 4.85657-10.4301 10.46937-.0713 1.5067-.1071 3.0644-.1071 4.6751 0 48.0808 45.9402 50.0382 118.122 50.0382 72.184 0 104.748-16.5776 114.697-30.1209 4.83-6.5676 7.949-15.0178 9.355-23.9583.775-4.9304-2.941-9.25141-7.888-9.9133z" fill="#fff" fill-rule="evenodd"/><path d="m79.2217 24.0879c0 .694-.0339 1.4134-.1016 2.1582-.0677.7279-.1862 1.4388-.3555 2.1328-.1692.694-.4062 1.3542-.7109 1.9805-.2877.6094-.6601 1.151-1.1172 1.625-.457.457-1.0071.8209-1.6504 1.0918-.6432.2708-1.3965.4062-2.2597.4062-1.2696 0-2.3783-.2962-3.3262-.8886-.931-.5925-1.7096-1.3458-2.3359-2.2598-.6263-.931-1.0918-1.9636-1.3965-3.0977-.3047-1.151-.4571-2.2851-.4571-3.4023 0-.1185 0-.2285 0-.3301s.0085-.1947.0254-.2793c.017-.3555.0424-.8379.0762-1.4473.0508-.6093.127-1.261.2285-1.955.1016-.694.2285-1.405.3809-2.1328.1693-.7279.3808-1.3796.6347-1.9551.2709-.5755.5925-1.0495.9649-1.4219s.8125-.5586 1.3203-.5586c.3724 0 .6855.11.9395.3301.2539.22.457.4993.6093.8379.1693.3216.2878.6686.3555 1.041.0677.3555.1016.6855.1016.9902 0 .4571-.0508.9226-.1524 1.3965-.0846.457-.1693.9141-.2539 1.3711-.1354.7279-.2454 1.4557-.3301 2.1836-.0846.7279-.1269 1.4727-.1269 2.2344 0 .3893.0169.8633.0508 1.4218.0507.5586.1608 1.1003.33 1.625.1693.5079.4063.948.711 1.3204.3216.3554.7532.5332 1.2949.5332.5247 0 .9395-.1778 1.2441-.5332.3217-.3555.5586-.7787.711-1.2696.1523-.4909.2454-1.0071.2793-1.5488.0508-.5417.0761-1.0072.0761-1.3965 0-1.1172-.0931-2.2174-.2793-3.3008-.1861-1.1002-.4316-2.192-.7363-3.2754-.0846-.2877-.1608-.5755-.2285-.8632-.0508-.2878-.0762-.5756-.0762-.8633 0-.474.1354-.8887.4063-1.2442.2877-.3554.6855-.5332 1.1933-.5332.4232 0 .8125.1693 1.168.5079.3724.3216.7025.7532.9902 1.2949.2878.5247.5332 1.1172.7364 1.7773.22.6602.4062 1.3203.5586 1.9805.1523.6432.2623 1.2611.33 1.8535.0847.5924.1355 1.0749.1524 1.4473.0169.1692.0254.3385.0254.5078zm8.8867 9.623c-.2878 0-.5163-.1354-.6855-.4062-.1693-.2539-.2963-.5501-.3809-.8887-.0846-.3385-.1439-.6771-.1777-1.0156-.017-.3555-.0254-.6263-.0254-.8125 0-.5078.0254-1.0156.0761-1.5234.0677-.5079.1355-1.0157.2032-1.5235.0846-.5078.1523-1.0156.2031-1.5234.0677-.5078.1016-1.0156.1016-1.5235 0-.2031-.0085-.4231-.0254-.6601-.017-.237-.0593-.457-.127-.6602-.0508-.22-.1439-.3978-.2793-.5332s-.3131-.2031-.5332-.2031c-.1523 0-.3216.127-.5078.3809-.1862.2369-.3639.5162-.5332.8378-.1524.3047-.2878.6179-.4063.9395-.1015.3047-.1523.5332-.1523.6855v1.1426c.0169.3724.0254.7533.0254 1.1426v1.4727c-.0169.3047-.0423.6178-.0762.9394-.0338.3216-.0846.6348-.1523.9395-.0508.3047-.127.6009-.2285.8886-.1016.2709-.237.5163-.4063.7364-.1523.2031-.3385.3724-.5586.5078-.22.1354-.4824.2031-.7871.2031-.3385 0-.6178-.11-.8379-.3301-.22-.22-.3978-.4993-.5332-.8379-.1354-.3554-.237-.7448-.3047-1.1679-.0508-.4401-.0931-.8633-.1269-1.2696-.017-.4231-.0254-.804-.0254-1.1425.0169-.3555.0254-.6348.0254-.8379v-1.1934c0-.6432-.017-1.278-.0508-1.9043-.0169-.6263-.0254-1.2526-.0254-1.8789 0-.3385 0-.7702 0-1.2949.0169-.5248.0846-1.0326.2031-1.5235.1185-.5078.3132-.9394.584-1.2949.2708-.3554.6686-.5332 1.1934-.5332.2369 0 .4485.0762.6347.2285.1862.1524.347.3386.4825.5586.1523.2201.2708.4571.3554.711.1016.2539.1778.4739.2285.6601.1693-.237.364-.4655.584-.6855.237-.2201.4994-.4147.7871-.584.2878-.1693.6094-.3047.9649-.4063.3554-.1015.7617-.1523 1.2187-.1523.8633 0 1.5319.2116 2.0059.6348.4909.4062.8463.9225 1.0664 1.5488.237.6094.3809 1.2695.4316 1.9805.0508.7109.0762 1.3541.0762 1.9297 0 .2877-.0254.7194-.0762 1.2949-.0507.5586-.1354 1.1849-.2539 1.8789-.1015.6771-.2454 1.3795-.4316 2.1074-.1862.7109-.4063 1.3626-.6602 1.9551-.2539.5924-.5586 1.0748-.914 1.4472-.3386.3724-.7279.5586-1.168.5586zm15.5646-5.2304c0 .5755-.186 1.1425-.559 1.7011-.355.5417-.812 1.0326-1.371 1.4727-.542.4232-1.125.7702-1.7518 1.041-.6263.2539-1.2018.3809-1.7266.3809-.8971 0-1.7011-.2201-2.4121-.6602-.694-.457-1.278-1.0325-1.7519-1.7265-.474-.6941-.8379-1.4558-1.0918-2.2852-.237-.8464-.3555-1.6673-.3555-2.4629 0-.8463.1185-1.7519.3555-2.7168.237-.9648.5924-1.8535 1.0664-2.666.4909-.8125 1.1003-1.4896 1.8281-2.0313.7448-.5416 1.625-.8125 2.6406-.8125.5756 0 1.1257.1016 1.6501.3047.525.1862.982.4571 1.371.8125.39.3555.703.7787.94 1.2696.237.4908.355 1.041.355 1.6504 0 .7955-.169 1.5403-.507 2.2343-.339.694-.788 1.2949-1.346 1.8028-.559.5078-1.202.9225-1.9299 1.2441-.7278.3047-1.4726.474-2.2343.5078.0677.4909.2623.8464.584 1.0664.3385.2201.7363.3301 1.1933.3301.3386 0 .6686-.0846.9903-.2539.3216-.1693.6346-.3555.9396-.5586.304-.2201.601-.4147.888-.584.305-.1693.61-.2539.915-.2539.338 0 .643.11.914.3301.27.22.406.5078.406.8633zm-4.1134-6.2207c0-.2201-.0593-.4486-.1778-.6856s-.3047-.3554-.5586-.3554c-.3724 0-.6855.1015-.9394.3046-.2539.1862-.4655.4317-.6348.7364-.1692.2877-.3047.6009-.4062.9394-.0847.3386-.1354.6517-.1524.9395.237-.0508.5163-.1185.8379-.2032.3386-.0846.6517-.1946.9395-.33.3047-.1524.5586-.3386.7617-.5586.22-.2201.3301-.4824.3301-.7871zm17.1644 11.6543c-1.202 0-2.142-.1608-2.819-.4825-.66-.3046-1.159-.7448-1.498-1.3203-.321-.5755-.516-1.2695-.584-2.082-.067-.8125-.101-1.7181-.101-2.7168 0-.7956.025-1.5911.076-2.3867.051-.8125.127-1.6758.228-2.5899-.237 0-.423.0085-.558.0254-.136 0-.246 0-.33 0-.542 0-1.007-.1185-1.397-.3554-.406-.237-.609-.601-.609-1.0918 0-.3047.118-.5756.355-.8125.22-.237.508-.4401.864-.6094.355-.1693.736-.3047 1.142-.4063.423-.1015.821-.1692 1.194-.2031 0-.4739.033-.9987.101-1.5742s.186-1.1087.356-1.5996c.186-.5078.431-.931.736-1.2695.305-.3386.694-.5079 1.168-.5079.271 0 .508.0847.711.2539.22.1524.398.3555.533.6094.135.237.237.5078.305.8125.067.3047.101.6009.101.8887 0 .3385-.025.6855-.076 1.041s-.144.7956-.279 1.3203c.288-.0338.482-.0508.584-.0508.101-.0169.194-.0254.279-.0254.288 0 .584.0254.889.0762.321.0508.609.1354.863.2539.271.1185.491.2793.66.4825.169.1861.254.4147.254.6855 0 .3047-.127.5755-.381.8125-.237.237-.541.4401-.914.6094-.372.1692-.77.3047-1.193.4062-.423.0847-.821.1439-1.194.1778-.101.694-.177 1.3372-.228 1.9296-.034.5756-.076 1.1595-.127 1.752-.034.2878-.068.584-.102.8887-.017.2877-.025.584-.025.8886 0 .2201.008.4825.025.7871.017.2878.077.5671.178.8379.102.2709.263.5079.483.711.22.1862.524.2793.914.2793.237 0 .482-.017.736-.0508.254-.0508.508-.0762.762-.0762.44 0 .753.1524.939.4571.203.3046.305.694.305 1.1679 0 .3555-.11.6686-.33.9395-.203.2539-.466.457-.787.6093-.322.1693-.686.2963-1.092.3809-.39.0846-.762.127-1.117.127zm14.472-5.4336c0 .5755-.186 1.1425-.558 1.7011-.356.5417-.813 1.0326-1.371 1.4727-.542.4232-1.126.7702-1.752 1.041-.627.2539-1.202.3809-1.727.3809-.897 0-1.701-.2201-2.412-.6602-.694-.457-1.278-1.0325-1.752-1.7265-.474-.6941-.838-1.4558-1.092-2.2852-.237-.8464-.355-1.6673-.355-2.4629 0-.8463.118-1.7519.355-2.7168.237-.9648.593-1.8535 1.067-2.666.491-.8125 1.1-1.4896 1.828-2.0313.745-.5416 1.625-.8125 2.64-.8125.576 0 1.126.1016 1.651.3047.525.1862.982.4571 1.371.8125.389.3555.702.7787.939 1.2696.237.4908.356 1.041.356 1.6504 0 .7955-.169 1.5403-.508 2.2343s-.787 1.2949-1.346 1.8028c-.558.5078-1.202.9225-1.929 1.2441-.728.3047-1.473.474-2.235.5078.068.4909.263.8464.584 1.0664.339.2201.737.3301 1.194.3301.338 0 .668-.0846.99-.2539.321-.1693.635-.3555.939-.5586.305-.2201.601-.4147.889-.584.305-.1693.609-.2539.914-.2539.339 0 .643.11.914.3301.271.22.406.5078.406.8633zm-4.113-6.2207c0-.2201-.059-.4486-.178-.6856-.118-.237-.304-.3554-.558-.3554-.373 0-.686.1015-.94.3046-.254.1862-.465.4317-.635.7364-.169.2877-.304.6009-.406.9394-.084.3386-.135.6517-.152.9395.237-.0508.516-.1185.838-.2032.338-.0846.651-.1946.939-.33.305-.1524.559-.3386.762-.5586.22-.2201.33-.4824.33-.7871zm15.844-2.3614c0 .2709-.051.5586-.153.8633-.101.2878-.228.584-.38.8887-.153.3047-.314.6009-.483.8887-.169.2708-.321.5247-.457.7617-.338.5416-.677 1.0918-1.016 1.6504-.321.5586-.651 1.1087-.99 1.6504.153.2369.364.567.635.9902s.533.8717.787 1.3457c.271.457.499.9141.686 1.3711.186.457.279.8463.279 1.168 0 .3046-.119.6009-.356.8886-.236.2878-.524.4317-.863.4317-.355 0-.719-.127-1.092-.3809-.355-.2539-.711-.5501-1.066-.8887-.339-.3554-.652-.7194-.939-1.0918-.288-.3893-.534-.7109-.737-.9648-.22.237-.508.5586-.863.9648-.339.4063-.711.8041-1.117 1.1934-.39.3893-.779.7279-1.168 1.0156-.39.2709-.737.4063-1.041.4063-.356 0-.635-.127-.838-.3809s-.305-.5501-.305-.8887c0-.3385.11-.7701.33-1.2949.237-.5247.508-1.0664.813-1.625.321-.5586.635-1.0918.939-1.5996.322-.5078.567-.9056.737-1.1933-.17-.3047-.381-.7025-.635-1.1934-.254-.5078-.5-1.0326-.737-1.5742-.22-.5586-.414-1.1003-.584-1.625-.152-.5417-.228-.9903-.228-1.3457 0-.3893.118-.7025.355-.9395s.551-.3554.94-.3554c.423 0 .821.1692 1.193.5078.373.3216.72.7194 1.041 1.1933.322.4571.601.9395.838 1.4473.254.4909.457.8971.61 1.2187.203-.3046.482-.7194.837-1.2441.373-.5247.788-1.041 1.245-1.5488s.931-.9479 1.421-1.3203c.491-.3724.957-.5586 1.397-.5586.288 0 .516.1269.685.3808.187.237.28.4994.28.7871zm6.677 14.0157c-1.201 0-2.141-.1608-2.818-.4825-.66-.3046-1.159-.7448-1.498-1.3203-.322-.5755-.516-1.2695-.584-2.082s-.101-1.7181-.101-2.7168c0-.7956.025-1.5911.076-2.3867.05-.8125.127-1.6758.228-2.5899-.237 0-.423.0085-.558.0254-.136 0-.246 0-.33 0-.542 0-1.008-.1185-1.397-.3554-.406-.237-.609-.601-.609-1.0918 0-.3047.118-.5756.355-.8125.22-.237.508-.4401.863-.6094.356-.1693.737-.3047 1.143-.4063.423-.1015.821-.1692 1.193-.2031 0-.4739.034-.9987.102-1.5742s.186-1.1087.355-1.5996c.187-.5078.432-.931.737-1.2695.304-.3386.694-.5079 1.168-.5079.271 0 .508.0847.711.2539.22.1524.397.3555.533.6094.135.237.237.5078.305.8125.067.3047.101.6009.101.8887 0 .3385-.025.6855-.076 1.041s-.144.7956-.279 1.3203c.287-.0338.482-.0508.584-.0508.101-.0169.194-.0254.279-.0254.288 0 .584.0254.889.0762.321.0508.609.1354.863.2539.271.1185.491.2793.66.4825.169.1861.254.4147.254.6855 0 .3047-.127.5755-.381.8125-.237.237-.542.4401-.914.6094-.372.1692-.77.3047-1.193.4062-.424.0847-.821.1439-1.194.1778-.101.694-.177 1.3372-.228 1.9296-.034.5756-.076 1.1595-.127 1.752-.034.2878-.068.584-.102.8887-.017.2877-.025.584-.025.8886 0 .2201.008.4825.025.7871.017.2878.076.5671.178.8379.102.2709.262.5079.482.711.22.1862.525.2793.914.2793.237 0 .483-.017.737-.0508.254-.0508.508-.0762.762-.0762.44 0 .753.1524.939.4571.203.3046.305.694.305 1.1679 0 .3555-.11.6686-.33.9395-.204.2539-.466.457-.788.6093-.321.1693-.685.2963-1.091.3809-.39.0846-.762.127-1.118.127zm14.956-8.1758c0 .931-.094 1.8535-.28 2.7676-.186.914-.499 1.735-.939 2.4629-.44.7109-1.033 1.2864-1.778 1.7265-.727.4401-1.641.6602-2.742.6602-1.083 0-1.989-.2116-2.717-.6348-.727-.4401-1.311-1.0156-1.751-1.7266-.424-.7109-.728-1.5149-.915-2.4121-.169-.8971-.253-1.8112-.253-2.7422 0-1.0156.118-2.0227.355-3.0214.051-.2709.144-.6433.279-1.1172.153-.4909.339-.9649.559-1.4219.237-.474.499-.8802.787-1.2188.305-.3385.635-.5078.99-.5078.339 0 .61.0931.813.2793s.364.4232.482.711c.119.2708.195.567.229.8886.034.3047.05.584.05.8379 0 .3894-.033.7702-.101 1.1426-.051.3724-.11.7448-.178 1.1172-.068.5078-.135 1.0156-.203 1.5234-.051.5078-.076 1.0157-.076 1.5235 0 .2539.008.5416.025.8633.034.3046.102.6009.203.8886.102.2878.246.5332.432.7364.186.1862.449.2793.787.2793.44 0 .787-.1185 1.041-.3555.271-.237.466-.5332.584-.8887.136-.3555.22-.7363.254-1.1426.034-.4062.051-.7786.051-1.1172 0-.7447-.051-1.4726-.152-2.1836-.102-.7278-.195-1.4641-.28-2.2089-.017-.0847-.025-.2032-.025-.3555 0-.2539.042-.5078.127-.7617.084-.2539.203-.4824.355-.6856.153-.2031.339-.3639.559-.4824.22-.1354.465-.2031.736-.2031.373 0 .703.1354.99.4062.288.2539.525.5925.711 1.0157.203.4062.364.8717.483 1.3964.135.5079.237 1.0157.304 1.5235.085.4909.136.9564.153 1.3965.034.4401.051.7871.051 1.041zm10.359-2.2344c-.237.0169-.44 0-.609-.0508-.17-.0677-.339-.1354-.508-.2031-.153-.0677-.305-.127-.457-.1777-.153-.0677-.322-.0931-.508-.0762-.339.0169-.643.11-.914.2793-.254.1693-.491.3808-.711.6348-.203.2539-.381.5416-.533.8632-.153.3047-.271.6094-.356.9141-.051.2031-.093.5163-.127.9395-.017.4062-.025.8463-.025 1.3203-.017.4909-.025.9563-.025 1.3965 0 .4401-.017.7871-.051 1.041-.017.2708-.06.5924-.127.9648-.068.3555-.178.694-.33 1.0156-.136.3216-.322.5925-.559.8125-.237.2201-.542.3301-.914.3301-.288 0-.542-.0846-.762-.2539-.203-.1693-.381-.3893-.533-.6601-.135-.2878-.254-.6179-.355-.9903-.085-.3724-.153-.7532-.203-1.1426-.051-.4062-.094-.8125-.127-1.2187-.017-.4063-.034-.7871-.051-1.1426 0-.3724 0-.7109 0-1.0156.017-.3047.025-.5501.025-.7363-.017-.5925-.051-1.1849-.101-1.7774-.034-.6094-.051-1.2103-.051-1.8027 0-.3724.017-.7871.051-1.2442.033-.457.127-.8802.279-1.2695.152-.4062.372-.7448.66-1.0156.305-.2709.719-.4063 1.244-.4063.288 0 .533.0931.737.2793.203.1862.363.4147.482.6856.135.2708.237.5586.305.8633.067.3046.11.5839.127.8378.406-.6601.863-1.1933 1.371-1.5996.508-.4231 1.168-.6517 1.98-.6855.406-.0169.804.0254 1.194.1269.406.0847.77.237 1.091.4571.339.2031.61.4739.813.8125.22.3385.338.7363.355 1.1933.034.5417-.127.9564-.482 1.2442-.356.2877-.787.4401-1.295.457zm12.797 4.9766c0 .5755-.186 1.1425-.559 1.7011-.355.5417-.812 1.0326-1.371 1.4727-.542.4232-1.126.7702-1.752 1.041-.626.2539-1.202.3809-1.726.3809-.898 0-1.702-.2201-2.412-.6602-.695-.457-1.278-1.0325-1.752-1.7265-.474-.6941-.838-1.4558-1.092-2.2852-.237-.8464-.356-1.6673-.356-2.4629 0-.8463.119-1.7519.356-2.7168.237-.9648.592-1.8535 1.066-2.666.491-.8125 1.1-1.4896 1.828-2.0313.745-.5416 1.625-.8125 2.641-.8125.575 0 1.126.1016 1.65.3047.525.1862.982.4571 1.371.8125.39.3555.703.7787.94 1.2696.237.4908.355 1.041.355 1.6504 0 .7955-.169 1.5403-.507 2.2343-.339.694-.788 1.2949-1.346 1.8028-.559.5078-1.202.9225-1.93 1.2441-.728.3047-1.473.474-2.234.5078.067.4909.262.8464.584 1.0664.338.2201.736.3301 1.193.3301.339 0 .669-.0846.99-.2539.322-.1693.635-.3555.94-.5586.304-.2201.601-.4147.888-.584.305-.1693.61-.2539.915-.2539.338 0 .643.11.914.3301.27.22.406.5078.406.8633zm-4.113-6.2207c0-.2201-.06-.4486-.178-.6856-.119-.237-.305-.3554-.559-.3554-.372 0-.685.1015-.939.3046-.254.1862-.466.4317-.635.7364-.169.2877-.305.6009-.406.9394-.085.3386-.136.6517-.153.9395.237-.0508.517-.1185.838-.2032.339-.0846.652-.1946.94-.33.304-.1524.558-.3386.761-.5586.221-.2201.331-.4824.331-.7871zm23.257 2.3613c0 .4909-.042 1.0495-.127 1.6758-.067.6093-.186 1.2357-.355 1.8789-.152.6432-.364 1.2695-.635 1.8789-.254.6094-.575 1.1595-.965 1.6504-.372.4739-.812.8548-1.32 1.1426-.491.2877-1.066.4316-1.727.4316-.694 0-1.328-.1608-1.904-.4824-.558-.3216-1.041-.7617-1.447-1.3203-.051.457-.237.8632-.559 1.2187-.321.3386-.728.5078-1.218.5078-.288 0-.534-.1439-.737-.4316-.186-.2878-.338-.6517-.457-1.0918-.118-.457-.211-.9564-.279-1.4981-.051-.5416-.085-1.0664-.102-1.5742s-.025-.9648-.025-1.3711c0-.4062 0-.694 0-.8633 0-.5755 0-1.151 0-1.7265.017-.5755.034-1.1595.051-1.752 0-.2877-.009-.7194-.026-1.2949 0-.5755.009-1.2103.026-1.9043.017-.7109.05-1.4303.101-2.1582.068-.7448.178-1.4219.33-2.0312.153-.6094.364-1.1088.635-1.4981s.618-.5924 1.041-.6094c.339 0 .626.1185.863.3555s.432.5501.584.9395c.17.3893.297.8294.381 1.3203.102.4739.17.9564.203 1.4472.051.474.077.931.077 1.3711.016.4232.025.7702.025 1.041 0 .0508-.009.1693-.025.3555v.5586.5586.2539c.152-.3216.372-.6348.66-.9394.287-.3047.609-.5756.965-.8125.355-.237.727-.4317 1.117-.584.389-.1524.761-.2285 1.117-.2285.711 0 1.303.1862 1.777.5586.491.3554.88.8124 1.168 1.371s.491 1.168.61 1.8282c.118.6432.177 1.2526.177 1.8281zm-3.732.7617c0-.2031-.017-.4232-.051-.6601-.017-.237-.076-.4571-.178-.6602-.084-.2031-.211-.3724-.38-.5078-.153-.1354-.356-.2031-.61-.2031-.271 0-.541.0592-.812.1777-.254.1185-.5.2708-.737.457s-.457.3894-.66.6094c-.203.2031-.381.4063-.533.6094l-.254 2.2597c.271.3894.601.7025.99.9395.39.22.83.3301 1.321.3301.372 0 .677-.1185.914-.3555.254-.237.448-.5247.584-.8633.152-.3554.254-.7278.304-1.1172.068-.3893.102-.7278.102-1.0156zm14.092-1.8789c-.237.0169-.44 0-.61-.0508-.169-.0677-.338-.1354-.507-.2031-.153-.0677-.305-.127-.457-.1777-.153-.0677-.322-.0931-.508-.0762-.339.0169-.644.11-.914.2793-.254.1693-.491.3808-.711.6348-.203.2539-.381.5416-.534.8632-.152.3047-.27.6094-.355.9141-.051.2031-.093.5163-.127.9395-.017.4062-.025.8463-.025 1.3203-.017.4909-.026.9563-.026 1.3965 0 .4401-.017.7871-.05 1.041-.017.2708-.06.5924-.127.9648-.068.3555-.178.694-.331 1.0156-.135.3216-.321.5925-.558.8125-.237.2201-.542.3301-.914.3301-.288 0-.542-.0846-.762-.2539-.203-.1693-.381-.3893-.533-.6601-.136-.2878-.254-.6179-.356-.9903-.084-.3724-.152-.7532-.203-1.1426-.05-.4062-.093-.8125-.127-1.2187-.017-.4063-.034-.7871-.05-1.1426 0-.3724 0-.7109 0-1.0156.016-.3047.025-.5501.025-.7363-.017-.5925-.051-1.1849-.102-1.7774-.033-.6094-.05-1.2103-.05-1.8027 0-.3724.017-.7871.05-1.2442.034-.457.127-.8802.28-1.2695.152-.4062.372-.7448.66-1.0156.305-.2709.719-.4063 1.244-.4063.288 0 .533.0931.736.2793s.364.4147.483.6856c.135.2708.237.5586.304.8633.068.3046.11.5839.127.8378.407-.6601.864-1.1933 1.371-1.5996.508-.4231 1.168-.6517 1.981-.6855.406-.0169.804.0254 1.193.1269.407.0847.77.237 1.092.4571.339.2031.609.4739.813.8125.22.3385.338.7363.355 1.1933.034.5417-.127.9564-.482 1.2442-.356.2877-.787.4401-1.295.457zm12.949 5.916c0 .3047-.017.7025-.051 1.1934-.017.4909-.084.9733-.203 1.4472-.118.4571-.305.8549-.559 1.1934-.253.3385-.609.5078-1.066.5078-.626 0-1.109-.2031-1.447-.6094-.339-.4062-.5-.914-.483-1.5234-.541.474-1.159.8464-1.853 1.1172-.677.2708-1.371.4062-2.082.4062-.491 0-.957-.1184-1.397-.3554s-.829-.5417-1.168-.9141c-.338-.3724-.609-.7871-.812-1.2441-.203-.474-.305-.9395-.305-1.3965 0-.8125.246-1.5234.736-2.1328.508-.6094 1.126-1.1257 1.854-1.5489.728-.4401 1.498-.7871 2.311-1.041.829-.2539 1.565-.4231 2.209-.5078 0-.0846 0-.1608 0-.2285.016-.0677.025-.1439.025-.2285 0-.5248-.144-.9479-.432-1.2695-.287-.3217-.694-.4825-1.218-.4825-.424 0-.788.0762-1.092.2285-.305.1355-.593.2963-.864.4825-.27.1692-.541.3301-.812.4824-.271.1354-.576.2031-.914.2031-.372 0-.694-.1185-.965-.3554-.254-.237-.381-.5417-.381-.9141 0-.5586.161-1.0664.483-1.5235.338-.457.753-.8378 1.244-1.1425.508-.3216 1.049-.5671 1.625-.7364.592-.1862 1.134-.2793 1.625-.2793.457 0 .914.0593 1.371.1778.457.1015.889.2708 1.295.5078.406.22.77.4993 1.092.8379.338.3216.609.7025.812 1.1426.305.6263.55 1.2949.736 2.0058.187.694.33 1.4134.432 2.1582.102.7279.169 1.4642.203 2.209.034.7279.051 1.4388.051 2.1328zm-4.063-.8125-.076-1.7265c-.034 0-.067 0-.101 0-.034-.017-.068-.0254-.102-.0254-.22 0-.499.0592-.838.1777-.321.1016-.635.2539-.939.457-.305.1862-.567.3978-.787.6348-.203.237-.305.4824-.305.7363 0 .237.085.3978.254.4825.169.0846.364.1269.584.1269.372 0 .77-.0931 1.193-.2793.423-.2031.796-.3978 1.117-.584zm13.026-9.5722c0 .4908-.169.8548-.508 1.0918-.322.2369-.686.4654-1.092.6855-.406.2031-.778.4486-1.117.7363-.322.2878-.482.7194-.482 1.295 0 .3046.067.567.203.7871.152.22.33.4231.533.6093.22.1693.457.347.711.5332s.482.3978.685.6348c.22.237.398.5247.534.8633.152.3385.228.7532.228 1.2441 0 .711-.186 1.4134-.558 2.1074-.356.6771-.821 1.2865-1.397 1.8282-.559.5247-1.193.9479-1.904 1.2695s-1.414.4824-2.108.4824c-.287 0-.575-.0254-.863-.0761-.288-.0339-.55-.1101-.787-.2286-.22-.1185-.406-.2793-.559-.4824-.152-.22-.228-.4993-.228-.8379 0-.4739.093-.8379.279-1.0918.186-.2708.423-.4824.711-.6347.288-.1524.593-.2709.914-.3555.339-.0846.652-.1862.94-.3047.287-.1354.524-.3047.711-.5078.186-.2031.279-.4909.279-.8633 0-.3555-.144-.7194-.432-1.0918-.271-.3893-.575-.7956-.914-1.2187-.338-.4401-.652-.9056-.939-1.3965-.271-.4909-.407-1.0326-.407-1.625 0-.7279.144-1.3965.432-2.0059.305-.6263.703-1.1679 1.193-1.625.508-.457 1.084-.8125 1.727-1.0664.643-.2708 1.32-.4062 2.031-.4062.271 0 .533.0254.787.0761.271.0508.508.1439.711.2793.203.1185.364.2878.483.5078.135.2032.203.4655.203.7872zm8.455 0c0 .4908-.169.8548-.508 1.0918-.322.2369-.685.4654-1.092.6855-.406.2031-.778.4486-1.117.7363-.321.2878-.482.7194-.482 1.295 0 .3046.067.567.203.7871.152.22.33.4231.533.6093.22.1693.457.347.711.5332s.482.3978.686.6348c.22.237.397.5247.533.8633.152.3385.228.7532.228 1.2441 0 .711-.186 1.4134-.558 2.1074-.356.6771-.821 1.2865-1.397 1.8282-.558.5247-1.193.9479-1.904 1.2695s-1.414.4824-2.108.4824c-.287 0-.575-.0254-.863-.0761-.288-.0339-.55-.1101-.787-.2286-.22-.1185-.406-.2793-.559-.4824-.152-.22-.228-.4993-.228-.8379 0-.4739.093-.8379.279-1.0918.186-.2708.423-.4824.711-.6347.288-.1524.593-.2709.914-.3555.339-.0846.652-.1862.94-.3047.287-.1354.524-.3047.711-.5078.186-.2031.279-.4909.279-.8633 0-.3555-.144-.7194-.432-1.0918-.271-.3893-.575-.7956-.914-1.2187-.338-.4401-.651-.9056-.939-1.3965-.271-.4909-.406-1.0326-.406-1.625 0-.7279.143-1.3965.431-2.0059.305-.6263.703-1.1679 1.194-1.625.507-.457 1.083-.8125 1.726-1.0664.643-.2708 1.32-.4062 2.031-.4062.271 0 .534.0254.787.0761.271.0508.508.1439.711.2793.203.1185.364.2878.483.5078.135.2032.203.4655.203.7872zm11.654 9.4453c0 .5755-.186 1.1425-.558 1.7011-.356.5417-.813 1.0326-1.371 1.4727-.542.4232-1.126.7702-1.752 1.041-.627.2539-1.202.3809-1.727.3809-.897 0-1.701-.2201-2.412-.6602-.694-.457-1.278-1.0325-1.752-1.7265-.474-.6941-.838-1.4558-1.092-2.2852-.237-.8464-.355-1.6673-.355-2.4629 0-.8463.118-1.7519.355-2.7168.237-.9648.593-1.8535 1.067-2.666.49-.8125 1.1-1.4896 1.828-2.0313.744-.5416 1.625-.8125 2.64-.8125.576 0 1.126.1016 1.651.3047.524.1862.981.4571 1.371.8125.389.3555.702.7787.939 1.2696.237.4908.356 1.041.356 1.6504 0 .7955-.17 1.5403-.508 2.2343-.339.694-.787 1.2949-1.346 1.8028-.558.5078-1.202.9225-1.929 1.2441-.728.3047-1.473.474-2.235.5078.068.4909.263.8464.584 1.0664.339.2201.736.3301 1.193.3301.339 0 .669-.0846.991-.2539.321-.1693.634-.3555.939-.5586.305-.2201.601-.4147.889-.584.305-.1693.609-.2539.914-.2539.338 0 .643.11.914.3301.271.22.406.5078.406.8633zm-4.113-6.2207c0-.2201-.059-.4486-.178-.6856-.118-.237-.304-.3554-.558-.3554-.373 0-.686.1015-.94.3046-.254.1862-.465.4317-.635.7364-.169.2877-.304.6009-.406.9394-.085.3386-.135.6517-.152.9395.237-.0508.516-.1185.838-.2032.338-.0846.651-.1946.939-.33.305-.1524.559-.3386.762-.5586.22-.2201.33-.4824.33-.7871zm1.422-9.0137c0 .1862-.051.3724-.153.5586-.101.1693-.228.3301-.38.4824-.136.1524-.288.2962-.457.4317-.17.1184-.322.2285-.457.33-.119.0847-.254.1862-.407.3047-.135.1016-.287.2031-.457.3047-.152.0846-.313.1608-.482.2285-.153.0677-.305.1016-.457.1016-.136 0-.254-.0339-.356-.1016-.101-.0846-.152-.2031-.152-.3555 0-.2539.093-.5585.279-.914.203-.3724.449-.7279.737-1.0664.287-.3555.592-.6517.914-.8887.321-.2539.618-.3809.888-.3809.237 0 .449.1016.635.3047.203.1862.305.4063.305.6602zm14.346 15.2344c0 .5755-.187 1.1425-.559 1.7011-.356.5417-.813 1.0326-1.371 1.4727-.542.4232-1.126.7702-1.752 1.041-.626.2539-1.202.3809-1.727.3809-.897 0-1.701-.2201-2.412-.6602-.694-.457-1.278-1.0325-1.752-1.7265-.474-.6941-.838-1.4558-1.092-2.2852-.237-.8464-.355-1.6673-.355-2.4629 0-.8463.118-1.7519.355-2.7168.237-.9648.593-1.8535 1.067-2.666.491-.8125 1.1-1.4896 1.828-2.0313.745-.5416 1.625-.8125 2.641-.8125.575 0 1.125.1016 1.65.3047.525.1862.982.4571 1.371.8125.389.3555.703.7787.94 1.2696.237.4908.355 1.041.355 1.6504 0 .7955-.169 1.5403-.508 2.2343-.338.694-.787 1.2949-1.346 1.8028-.558.5078-1.201.9225-1.929 1.2441-.728.3047-1.473.474-2.235.5078.068.4909.263.8464.584 1.0664.339.2201.737.3301 1.194.3301.338 0 .668-.0846.99-.2539s.635-.3555.939-.5586c.305-.2201.601-.4147.889-.584.305-.1693.61-.2539.914-.2539.339 0 .643.11.914.3301.271.22.407.5078.407.8633zm-4.114-6.2207c0-.2201-.059-.4486-.178-.6856-.118-.237-.304-.3554-.558-.3554-.372 0-.686.1015-.94.3046-.253.1862-.465.4317-.634.7364-.17.2877-.305.6009-.407.9394-.084.3386-.135.6517-.152.9395.237-.0508.516-.1185.838-.2032.339-.0846.652-.1946.939-.33.305-.1524.559-.3386.762-.5586.22-.2201.33-.4824.33-.7871zm-152.991 29.1601c.152.2031.339.4571.559.7617.22.3047.431.6348.634.9903.204.3385.373.6771.508 1.0156.153.3216.229.5924.229.8125 0 .4062-.144.7279-.432.9648-.288.254-.609.3809-.965.3809-.254 0-.55-.11-.888-.3301-.339-.2031-.678-.4485-1.016-.7363-.339-.2878-.669-.5755-.99-.8633-.305-.3047-.542-.5501-.711-.7363-.779.5078-1.676.8971-2.692 1.168-1.015.2708-1.98.4062-2.894.4062-.796 0-1.524-.1185-2.184-.3555-.643-.2369-1.21-.5755-1.701-1.0156-.474-.457-.846-1.0071-1.117-1.6504-.254-.6601-.381-1.3965-.381-2.209 0-.6432.127-1.2526.381-1.8281.271-.5924.609-1.1341 1.015-1.625.407-.5078.855-.9648 1.346-1.3711.491-.4232.973-.804 1.447-1.1426-.237-.3046-.448-.6347-.634-.9902-.187-.3724-.347-.7532-.483-1.1426-.118-.3893-.211-.7786-.279-1.1679-.068-.4063-.102-.7871-.102-1.1426 0-.6094.11-1.1765.33-1.7012.221-.5417.517-1.0072.889-1.3965.389-.4062.847-.7194 1.371-.9394.542-.2201 1.126-.3301 1.752-.3301.576 0 1.134.1185 1.676.3555.542.2369 1.024.5586 1.447.9648.423.3893.762.8548 1.016 1.3965.271.5247.406 1.0918.406 1.7012 0 .4739-.085.9225-.254 1.3457-.152.4062-.364.7955-.635 1.1679-.253.3724-.541.7279-.863 1.0664-.305.3386-.609.6602-.914.9649.491.7448.99 1.4726 1.498 2.1836.525.7109 1.05 1.4303 1.574 2.1582.204-.2031.432-.4147.686-.6348.254-.237.525-.4486.812-.6348.288-.2031.584-.3639.889-.4824.305-.1354.609-.2031.914-.2031.423 0 .728.1185.914.3555.203.22.305.5247.305.914 0 .3555-.085.711-.254 1.0664-.169.3386-.381.6602-.635.9649-.237.3047-.499.5924-.787.8633-.288.2539-.55.4739-.787.6601zm-7.186-12.7207c-.338 0-.575.11-.71.3301-.136.22-.204.5163-.204.8887 0 .4231.085.8125.254 1.1679.187.3386.44.6433.762.9141.339-.2878.635-.6263.889-1.0156.271-.3893.406-.7956.406-1.2188 0-.2877-.161-.5332-.482-.7363-.305-.2201-.61-.3301-.915-.3301zm-.837 8.0996c-.542.3894-.974.8548-1.295 1.3965-.305.5248-.457 1.1172-.457 1.7774 0 1.1171.575 1.6757 1.726 1.6757.474 0 .965-.0846 1.473-.2539.525-.1862.999-.4147 1.422-.6855-.271-.3555-.525-.6856-.762-.9902-.237-.3047-.465-.6094-.686-.9141-.22-.3047-.448-.6179-.685-.9395-.22-.3216-.466-.677-.736-1.0664zm22.978 8.9375c-.863 0-1.616-.2285-2.26-.6855-.643-.457-1.185-1.041-1.625-1.752-.44-.7109-.77-1.498-.99-2.3613-.22-.8802-.33-1.7435-.33-2.5898 0-.8972.11-1.8197.33-2.7676.22-.9649.559-1.8366 1.016-2.6153.457-.7955 1.041-1.4388 1.752-1.9296.711-.5079 1.557-.7618 2.539-.7618.948 0 1.752.2624 2.412.7871.677.5079 1.219 1.1511 1.625 1.9297.406.7618.694 1.5996.863 2.5137s.229 1.7773.178 2.5899c-.051.8971-.195 1.8027-.432 2.7167-.22.9141-.55 1.7351-.99 2.4629-.44.7279-.999 1.3204-1.676 1.7774s-1.481.6855-2.412.6855zm.254-11.4765c-.254 0-.482.1354-.686.4062-.186.2708-.347.6009-.482.9902-.118.3894-.212.8041-.279 1.2442-.068.4232-.102.7956-.102 1.1172 0 .4062.034.8463.102 1.3203.084.4739.194.9141.33 1.3203.135.3893.296.7194.482.9902.203.2539.432.3809.686.3809.271 0 .499-.127.685-.3809.203-.2539.364-.5755.483-.9648.118-.3893.203-.8125.254-1.2695.05-.474.076-.9141.076-1.3203 0-.3724-.034-.7787-.102-1.2188-.067-.457-.169-.8802-.304-1.2695-.119-.3894-.28-.711-.483-.9649-.186-.2539-.406-.3808-.66-.3808zm13.762 11.4511c-.288 0-.517-.1354-.686-.4062-.169-.2539-.296-.5501-.381-.8887-.084-.3385-.144-.6771-.177-1.0156-.017-.3555-.026-.6263-.026-.8125 0-.5078.026-1.0156.076-1.5234.068-.5079.136-1.0157.203-1.5235.085-.5078.153-1.0156.204-1.5234.067-.5078.101-1.0156.101-1.5235 0-.2031-.008-.4231-.025-.6601s-.059-.457-.127-.6602c-.051-.22-.144-.3978-.279-.5332-.136-.1354-.314-.2031-.534-.2031-.152 0-.321.127-.507.3809-.187.2369-.364.5162-.534.8378-.152.3047-.287.6179-.406.9395-.102.3047-.152.5332-.152.6855v1.1426c.017.3724.025.7533.025 1.1426v1.4727c-.017.3047-.042.6178-.076.9394s-.085.6348-.152.9395c-.051.3047-.127.6009-.229.8886-.101.2709-.237.5163-.406.7364-.153.2031-.339.3724-.559.5078s-.482.2031-.787.2031c-.338 0-.618-.11-.838-.3301-.22-.22-.398-.4993-.533-.8379-.135-.3554-.237-.7448-.305-1.1679-.05-.4401-.093-.8633-.127-1.2696-.017-.4231-.025-.804-.025-1.1425.017-.3555.025-.6348.025-.8379v-1.1934c0-.6432-.017-1.278-.05-1.9043-.017-.6263-.026-1.2526-.026-1.8789 0-.3385 0-.7702 0-1.2949.017-.5248.085-1.0326.203-1.5235.119-.5078.313-.9394.584-1.2949.271-.3554.669-.5332 1.194-.5332.237 0 .448.0762.634.2285.187.1524.347.3386.483.5586.152.2201.271.4571.355.711.102.2539.178.4739.229.6601.169-.237.364-.4655.584-.6855.237-.2201.499-.4147.787-.584s.609-.3047.965-.4063c.355-.1015.762-.1523 1.219-.1523.863 0 1.531.2116 2.005.6348.491.4062.847.9225 1.067 1.5488.237.6094.381 1.2695.431 1.9805.051.7109.077 1.3541.077 1.9297 0 .2877-.026.7194-.077 1.2949-.05.5586-.135 1.1849-.253 1.8789-.102.6771-.246 1.3795-.432 2.1074-.186.7109-.406 1.3626-.66 1.9551-.254.5924-.559 1.0748-.914 1.4472-.339.3724-.728.5586-1.168.5586zm14.345-10.4609c0 .0846-.008.1777-.025.2793-.017.0846-.042.1693-.076.2539-.152.3893-.389.7194-.711.9902-.322.2539-.703.3809-1.143.3809-.66 0-1.108-.3301-1.345-.9902-.034-.0847-.051-.1778-.051-.2793 0-.1185-.009-.237-.026-.3555v-.7363c-.033-.237-.093-.4232-.177-.5586-.085-.1354-.229-.2032-.432-.2032-.288 0-.567.1862-.838.5586-.254.3555-.482.7872-.685 1.295-.187.4909-.339.9987-.457 1.5234-.119.5247-.178.9479-.178 1.2695 0 .2539.017.5671.051.9395.034.3555.101.7025.203 1.041.101.3385.237.6348.406.8887.186.237.423.3554.711.3554s.55-.0846.787-.2539c.254-.1862.499-.3977.736-.6347.22-.2032.457-.4147.711-.6348.271-.22.576-.3301.914-.3301.424 0 .754.1524.991.4571.254.3046.381.6517.381 1.041 0 .5755-.153 1.1172-.458 1.625-.304.4909-.685.9225-1.142 1.2949-.457.3555-.965.6348-1.524.8379-.558.22-1.091.3301-1.599.3301-.914 0-1.693-.2286-2.336-.6856-.626-.457-1.134-1.0325-1.524-1.7265-.389-.711-.668-1.4812-.837-2.3106-.17-.8294-.254-1.6165-.254-2.3613 0-.8633.118-1.7943.355-2.793.237-1.0156.601-1.9551 1.092-2.8183.491-.8633 1.117-1.5827 1.879-2.1583.779-.5755 1.701-.8632 2.767-.8632.661 0 1.228.1438 1.702.4316.49.2878.888.6686 1.193 1.1426.322.457.559.9733.711 1.5488.169.5755.254 1.1426.254 1.7012v.2539c0 .0846-.009.1693-.026.2539zm7.338 10.6641c-1.202 0-2.141-.1608-2.818-.4825-.66-.3046-1.16-.7448-1.498-1.3203-.322-.5755-.516-1.2695-.584-2.082s-.102-1.7181-.102-2.7168c0-.7956.026-1.5911.077-2.3867.05-.8125.126-1.6758.228-2.5899-.237 0-.423.0085-.559.0254-.135 0-.245 0-.33 0-.541 0-1.007-.1185-1.396-.3554-.406-.237-.609-.601-.609-1.0918 0-.3047.118-.5756.355-.8125.22-.237.508-.4401.863-.6094.356-.1693.737-.3047 1.143-.4063.423-.1015.821-.1692 1.193-.2031 0-.4739.034-.9987.102-1.5742.067-.5755.186-1.1087.355-1.5996.186-.5078.432-.931.737-1.2695.304-.3386.694-.5079 1.168-.5079.27 0 .507.0847.71.2539.221.1524.398.3555.534.6094.135.237.237.5078.304.8125.068.3047.102.6009.102.8887 0 .3385-.025.6855-.076 1.041s-.144.7956-.28 1.3203c.288-.0338.483-.0508.584-.0508.102-.0169.195-.0254.28-.0254.287 0 .584.0254.888.0762.322.0508.61.1354.864.2539.271.1185.491.2793.66.4825.169.1861.254.4147.254.6855 0 .3047-.127.5755-.381.8125-.237.237-.542.4401-.914.6094-.373.1692-.77.3047-1.194.4062-.423.0847-.82.1439-1.193.1778-.101.694-.178 1.3372-.228 1.9296-.034.5756-.077 1.1595-.127 1.752-.034.2878-.068.584-.102.8887-.017.2877-.025.584-.025.8886 0 .2201.008.4825.025.7871.017.2878.076.5671.178.8379.101.2709.262.5079.482.711.22.1862.525.2793.914.2793.237 0 .483-.017.737-.0508.254-.0508.507-.0762.761-.0762.44 0 .754.1524.94.4571.203.3046.304.694.304 1.1679 0 .3555-.11.6686-.33.9395-.203.2539-.465.457-.787.6093-.321.1693-.685.2963-1.092.3809-.389.0846-.761.127-1.117.127zm14.955-8.1758c0 .931-.093 1.8535-.279 2.7676-.186.914-.499 1.735-.939 2.4629-.44.7109-1.033 1.2864-1.778 1.7265-.728.4401-1.642.6602-2.742.6602-1.083 0-1.989-.2116-2.717-.6348-.728-.4401-1.312-1.0156-1.752-1.7266-.423-.7109-.728-1.5149-.914-2.4121-.169-.8971-.254-1.8112-.254-2.7422 0-1.0156.119-2.0227.356-3.0214.051-.2709.144-.6433.279-1.1172.152-.4909.339-.9649.559-1.4219.237-.474.499-.8802.787-1.2188.305-.3385.635-.5078.99-.5078.339 0 .609.0931.813.2793.203.1862.364.4232.482.711.119.2708.195.567.229.8886.033.3047.05.584.05.8379 0 .3894-.034.7702-.101 1.1426-.051.3724-.11.7448-.178 1.1172-.068.5078-.135 1.0156-.203 1.5234-.051.5078-.076 1.0157-.076 1.5235 0 .2539.008.5416.025.8633.034.3046.102.6009.203.8886.102.2878.246.5332.432.7364.186.1862.448.2793.787.2793.44 0 .787-.1185 1.041-.3555.271-.237.465-.5332.584-.8887.135-.3555.22-.7363.254-1.1426.034-.4062.051-.7786.051-1.1172 0-.7447-.051-1.4726-.153-2.1836-.101-.7278-.194-1.4641-.279-2.2089-.017-.0847-.025-.2032-.025-.3555 0-.2539.042-.5078.127-.7617.084-.2539.203-.4824.355-.6856.152-.2031.339-.3639.559-.4824.22-.1354.465-.2031.736-.2031.372 0 .702.1354.99.4062.288.2539.525.5925.711 1.0157.203.4062.364.8717.483 1.3964.135.5079.237 1.0157.304 1.5235.085.4909.136.9564.153 1.3965.033.4401.05.7871.05 1.041zm12.188 2.7422c0 .5755-.186 1.1425-.559 1.7011-.355.5417-.812 1.0326-1.371 1.4727-.541.4232-1.125.7702-1.752 1.041-.626.2539-1.202.3809-1.726.3809-.897 0-1.701-.2201-2.412-.6602-.694-.457-1.278-1.0325-1.752-1.7265-.474-.6941-.838-1.4558-1.092-2.2852-.237-.8464-.356-1.6673-.356-2.4629 0-.8463.119-1.7519.356-2.7168.237-.9648.592-1.8535 1.066-2.666.491-.8125 1.1-1.4896 1.828-2.0313.745-.5416 1.625-.8125 2.641-.8125.576 0 1.126.1016 1.65.3047.525.1862.982.4571 1.371.8125.39.3555.703.7787.94 1.2696.237.4908.355 1.041.355 1.6504 0 .7955-.169 1.5403-.507 2.2343-.339.694-.788 1.2949-1.346 1.8028-.559.5078-1.202.9225-1.93 1.2441-.728.3047-1.472.474-2.234.5078.068.4909.262.8464.584 1.0664.338.2201.736.3301 1.193.3301.339 0 .669-.0846.99-.2539.322-.1693.635-.3555.94-.5586.305-.2201.601-.4147.889-.584.304-.1693.609-.2539.914-.2539.338 0 .643.11.914.3301.27.22.406.5078.406.8633zm-4.113-6.2207c0-.2201-.06-.4486-.178-.6856-.119-.237-.305-.3554-.559-.3554-.372 0-.685.1015-.939.3046-.254.1862-.466.4317-.635.7364-.169.2877-.305.6009-.406.9394-.085.3386-.136.6517-.153.9395.237-.0508.517-.1185.838-.2032.339-.0846.652-.1946.94-.33.305-.1524.558-.3386.762-.5586.22-.2201.33-.4824.33-.7871zm16.25 3.4785c0 .931-.093 1.8535-.28 2.7676-.186.914-.499 1.735-.939 2.4629-.44.7109-1.033 1.2864-1.777 1.7265-.728.4401-1.642.6602-2.743.6602-1.083 0-1.989-.2116-2.716-.6348-.728-.4401-1.312-1.0156-1.752-1.7266-.424-.7109-.728-1.5149-.914-2.4121-.17-.8971-.254-1.8112-.254-2.7422 0-1.0156.118-2.0227.355-3.0214.051-.2709.144-.6433.279-1.1172.153-.4909.339-.9649.559-1.4219.237-.474.499-.8802.787-1.2188.305-.3385.635-.5078.99-.5078.339 0 .61.0931.813.2793s.364.4232.482.711c.119.2708.195.567.229.8886.034.3047.051.584.051.8379 0 .3894-.034.7702-.102 1.1426-.051.3724-.11.7448-.178 1.1172-.067.5078-.135 1.0156-.203 1.5234-.051.5078-.076 1.0157-.076 1.5235 0 .2539.008.5416.025.8633.034.3046.102.6009.203.8886.102.2878.246.5332.432.7364.186.1862.449.2793.787.2793.44 0 .787-.1185 1.041-.3555.271-.237.466-.5332.584-.8887.136-.3555.22-.7363.254-1.1426.034-.4062.051-.7786.051-1.1172 0-.7447-.051-1.4726-.152-2.1836-.102-.7278-.195-1.4641-.28-2.2089-.017-.0847-.025-.2032-.025-.3555 0-.2539.042-.5078.127-.7617.084-.2539.203-.4824.355-.6856.153-.2031.339-.3639.559-.4824.22-.1354.465-.2031.736-.2031.373 0 .703.1354.99.4062.288.2539.525.5925.711 1.0157.204.4062.364.8717.483 1.3964.135.5079.237 1.0157.304 1.5235.085.4909.136.9564.153 1.3965.034.4401.051.7871.051 1.041zm8.988-6.7031c0 .4908-.169.8548-.508 1.0918-.322.2369-.685.4654-1.092.6855-.406.2031-.778.4486-1.117.7363-.322.2878-.482.7194-.482 1.295 0 .3046.067.567.203.7871.152.22.33.4231.533.6093.22.1693.457.347.711.5332s.482.3978.685.6348c.221.237.398.5247.534.8633.152.3385.228.7532.228 1.2441 0 .711-.186 1.4134-.558 2.1074-.356.6771-.821 1.2865-1.397 1.8282-.558.5247-1.193.9479-1.904 1.2695s-1.414.4824-2.108.4824c-.287 0-.575-.0254-.863-.0761-.288-.0339-.55-.1101-.787-.2286-.22-.1185-.406-.2793-.559-.4824-.152-.22-.228-.4993-.228-.8379 0-.4739.093-.8379.279-1.0918.186-.2708.423-.4824.711-.6347.288-.1524.593-.2709.914-.3555.339-.0846.652-.1862.94-.3047.287-.1354.524-.3047.711-.5078.186-.2031.279-.4909.279-.8633 0-.3555-.144-.7194-.432-1.0918-.271-.3893-.575-.7956-.914-1.2187-.338-.4401-.652-.9056-.939-1.3965-.271-.4909-.407-1.0326-.407-1.625 0-.7279.144-1.3965.432-2.0059.305-.6263.703-1.1679 1.193-1.625.508-.457 1.084-.8125 1.727-1.0664.643-.2708 1.32-.4062 2.031-.4062.271 0 .533.0254.787.0761.271.0508.508.1439.711.2793.203.1185.364.2878.483.5078.135.2032.203.4655.203.7872zm11.654 9.4453c0 .5755-.186 1.1425-.558 1.7011-.356.5417-.813 1.0326-1.371 1.4727-.542.4232-1.126.7702-1.752 1.041-.627.2539-1.202.3809-1.727.3809-.897 0-1.701-.2201-2.412-.6602-.694-.457-1.278-1.0325-1.752-1.7265-.474-.6941-.838-1.4558-1.092-2.2852-.237-.8464-.355-1.6673-.355-2.4629 0-.8463.118-1.7519.355-2.7168.237-.9648.593-1.8535 1.067-2.666.49-.8125 1.1-1.4896 1.828-2.0313.744-.5416 1.625-.8125 2.64-.8125.576 0 1.126.1016 1.651.3047.524.1862.981.4571 1.371.8125.389.3555.702.7787.939 1.2696.237.4908.356 1.041.356 1.6504 0 .7955-.17 1.5403-.508 2.2343-.339.694-.787 1.2949-1.346 1.8028-.558.5078-1.202.9225-1.93 1.2441-.727.3047-1.472.474-2.234.5078.068.4909.262.8464.584 1.0664.339.2201.736.3301 1.193.3301.339 0 .669-.0846.991-.2539.321-.1693.634-.3555.939-.5586.305-.2201.601-.4147.889-.584.305-.1693.609-.2539.914-.2539.338 0 .643.11.914.3301.271.22.406.5078.406.8633zm-4.113-6.2207c0-.2201-.059-.4486-.178-.6856-.118-.237-.305-.3554-.558-.3554-.373 0-.686.1015-.94.3046-.254.1862-.465.4317-.635.7364-.169.2877-.304.6009-.406.9394-.085.3386-.135.6517-.152.9395.237-.0508.516-.1185.838-.2032.338-.0846.651-.1946.939-.33.305-.1524.559-.3386.762-.5586.22-.2201.33-.4824.33-.7871zm15.996.1015c0 .2709-.017.6433-.051 1.1172-.034.457-.084.9564-.152 1.4981-.068.5247-.169 1.0664-.305 1.625-.118.5416-.262 1.041-.431 1.498-.17.4401-.373.804-.61 1.0918-.237.2708-.508.4063-.812.4063-.373 0-.694-.1778-.965-.5332-.254-.3724-.474-.8379-.66-1.3965-.17-.5756-.305-1.2103-.407-1.9043-.101-.694-.177-1.3711-.228-2.0313-.051-.6771-.085-1.2949-.102-1.8535 0-.5755 0-1.0156 0-1.3203s0-.6856 0-1.1426c0-.4739.017-.9733.051-1.498.051-.5248.119-1.041.203-1.5489.102-.5247.246-.9987.432-1.4218.186-.4232.432-.7618.736-1.0157.305-.2708.686-.4062 1.143-.4062.406 0 .736.1777.99.5332.271.3385.482.7871.635 1.3457.169.5417.288 1.151.355 1.8281.085.6771.136 1.3457.153 2.0059.033.6432.042 1.2441.025 1.8027zm-.482 9.6485c0 .2877-.068.5416-.204.7617-.135.2031-.313.3724-.533.5078-.22.1523-.457.2624-.711.3301s-.508.1015-.761.1015c-.373 0-.728-.1015-1.067-.3047-.338-.1861-.508-.4908-.508-.914 0-.2539.068-.4824.204-.6856.152-.22.338-.4062.558-.5586.22-.1523.457-.2708.711-.3554.271-.0847.525-.127.762-.127.389 0 .745.1016 1.066.3047.322.1862.483.4994.483.9395z" fill="#e3000b"/><path d="m118.508 79.1432v.0001c5.085 1.9009 8.557 4.3263 10.572 7.0674 2.062 2.806 2.53 5.8791 1.63 8.6099-1.739 5.2714-8.153 8.2374-14.023 5.8364l.946-2.314c-9.272-3.792-32.4489-15.17-48.2129-24.022-10.5182-5.904-11.4275-5.6173-14.9-4.5224-1.7316.546-4.1005 1.2929-8.6161 1.5734-13.572.843-28.1509-3.793-38.26394-21.915zm0 0c-9.24-3.4533-45.9242-17.2727-56.8702-21.4824zm-56.0117-34.5782v.0005c.4748 4.8911-.2135 9.1304-1.9867 12.5706.3582.1975.7332.3727 1.1278.5245zm0 0c-.6047-6.2174-2.4776-12.8287-6.8746-17.8736l-.0002-.0002m6.8748 17.8738-6.8748-17.8738m0 0c-1.6307-1.8707-3.648-3.5448-5.4609-5.0494-.6092-.5055-1.1952-.9919-1.7358-1.4602-2.2902-1.9838-4.0311-3.8295-4.9423-6.1094l-1.2762-3.1933m13.4152 15.8123-13.4152-15.8123m0 0-2.6439 2.199m2.6439-2.199-2.6439 2.199m0 0c-2.0265 1.6856-3.7973 3.1335-5.794 4.0586zm-34.10525 37.5977c5.27165 9.4463 11.79285 15.516 18.89535 19.0847 7.0852 3.5599 14.5844 4.5493 21.7065 4.1069 3.5769-.2222 5.9334-.7276 7.7072-1.2283.5659-.1598 1.1134-.3322 1.5635-.474.206-.0649.3915-.1233.5491-.1711.5604-.1703.9273-.2597 1.2568-.2989.5426-.0646 1.2765-.0335 2.936.6336 1.7158.6898 4.1798 1.9582 8.1244 4.1724zm-2.7552-12.1913c-.64308 3.6333.26942 7.7382 2.75504 12.191l28.31111-33.5387c-1.5566.7209-3.2819 1.1347-5.2017 1.4338-.959.1494-1.9387.2664-2.962.3843-.117.0135-.2346.027-.3529.0406-.9021.1036-1.8401.2113-2.7704.342l-.0013.0002c-4.1552.5863-9.3215 1.9295-12.48212 5.9768h-.00003c-1.27918 1.6382-2.03836 3.4866-2.43137 5.371-2.47498 1.9047-4.28161 4.5067-4.86433 7.799z" fill="#fff" stroke="#fff" stroke-width="5"/><path d="m117.633 81.485c-9.242-3.454-45.936-17.277-56.893-21.491-10.957-4.216-9.479-22.337-25.812-28.658-16.332-6.322-37.40195 0-27.28795 18.121 10.11305 18.122 24.69195 22.758 38.26395 21.915 13.571-.843 7.7531-5.899 23.5161 2.949 15.764 8.852 38.9409 20.23 48.2129 24.022 9.272 3.793 19.268-9.655 0-16.858z" fill="#e3000b"/><path d="m10.723 40.413c-1.38602-4.514-1.66002-9.838 1.246-13.56 2.52-3.227 6.807-4.468 10.861-5.04 4.055-.57 8.273-.687 11.99-2.408 2.341-1.085 4.356-2.754 6.342-4.405 2.288 5.725 8.524 8.687 12.576 13.334 3.923 4.501 5.693 10.529 6.271 16.473 1.421 14.636-8.555 20.989-22.205 18.725-12.267-2.035-23.4-11.133-27.081-23.119z" fill="#f7a600"/><path d="m456.138 152c1.657 0 3-1.343 3-3s-1.343-3-3-3zm-174.327-86.4837c-1.647-.1719-3.123 1.0246-3.295 2.6725l-2.802 26.8542c-.172 1.6479 1.025 3.1232 2.673 3.2951 1.648.172 3.123-1.0245 3.295-2.6724l2.491-23.8704 23.87 2.4908c1.648.1719 3.123-1.0246 3.295-2.6725s-1.024-3.1232-2.672-3.2951zm174.327 80.4837c-32.816 0-63.173-4.219-91.644-16.203-28.449-11.974-55.187-31.7739-80.664-63.1866l-4.66 3.7794c26.024 32.0872 53.535 52.5372 82.996 64.9382 29.438 12.391 60.651 16.672 93.972 16.672z" fill="#fff"/></svg>