<svg fill="none" height="170" viewBox="0 0 349 170" width="349" xmlns="http://www.w3.org/2000/svg"><path d="m163.812 85.5021c.591-8.6722 4.622-28.936 16.026-40.6133 19.076-2.6091 66.762-8.7621 104.9-12.5003 47.672-4.6727 53.262 17.6116 55.47 63.1613 1.786 36.8692-121.268 24.2622-148.418 23.3372-21.721-.741-27.702-22.5654-27.978-33.3849z" fill="#fff"/><path clip-rule="evenodd" d="m339.884 24.5436-.079-.6985-.026-.1977-.08-.5008-.184-.6744-.051-.1977-.158-.4877-.263-.6195-.093-.1977-.25-.4744-.34-.5822-.121-.1713-.317-.4328-.435-.5272-.142-.1581-.356-.3691-.661-.5931-.143-.1076-8.712-6.7219-8.607-6.60326-.158-.13183-1.384-.88305-1.492-.81716-1.513-.69857-1.582-.57991-1.608-.461318-1.621-.32949-1.647-.235068-1.674-.092244-1.661.0263458-1.674.1317962-1.663.276799-1.647.384428-1.619.525011-1.516.60628-.092.05273-19.085 8.51441-.198.0768-.753.4218-.172.0923-.445.3031-.554.4108-.171.1318-.383.3558-.476.4745-.143.1582-.319.3954-.419.5536-.121.1845-.248.4218-.33.6326-.092.1977-.184.4613-.225.6327-.065.1977-.134.514-.156.8567-.053.3822-.04.8699v.1845l.014.5273.065.659.027.2108.105.5404.158.6327.051.1977.171.514.251.6041.092.2131.25.4613.341.6041.134.1845.29.3976.448.5668.512.514.015.0131-.2 20.8511-.105-.0528-.525-.2504-.095-.0263-.039-.0264-.857-.3053-.975-.2637-.778-.1559-.108-.0527h-.169l-1.146-.1846-1.266-.1428h-.079l-.461-.0417-.896-.0527-.42-.0132h-.134l-1.107.0286-1.503.079h-.092l-.764.0638v-.2461l-1.11.3691h-.843v.1428l-.58.1054-.751.1845-.042.0286-.448.1186-.442.1669-.083-.6545-.198-1.0303-.015-.1318-.04-.134-.158-.5799-.132-.3955-.158-.4744-.053-.0923-.184-.4218-.277-.5667-.077-.1054-.015-.0528-.29-.4217-.185-.2482-.356-.4108-.382-.3823-.224-.1845-.226-.1713-.42-.3032-.514-.2767-.224-.0923-.369-.1713-.556-.1582-.751-.1428-.211-.0286-.514-.0263h-.077l-.503.0263-.487.0528-.134.0263-.369.0659h-.014l-.527-.2504-.327-.1428-.514-.1581-.593-.1582-.343-.0659-.514-.0769-.604-.0527-.411-.0132h-.171l-.738.0505h-.156l-.554.0791-.619.134-.185.0505-.49.134-.604.2109-.646.29-.698.369-.132.0791-.079.0527-.595.3954-.356.2505-.501.4195-.319.2922-.474.4459-.29.3295-.527.6063-.027.0264-.397.5381-.286-.7095-.171-.369-.527-1.0281-.106-.2131-.503-.8017-.235-.3559-.514-.6744-.277-.3405-.553-.6195-.303-.3031-.62-.5821-.342-.2768-.697-.5404-.121-.0923-.156-.1054-.575-.3383-.04-.0417-.553-.3032-.661-.3053-.488-.1977-.685-.235-.49-.1341-.71-.1559-.461-.0923-.791-.1076-.422-.0264-.881-.0395h-.263l-.817.0505h-.053l-.554.0659-.617.1054h-.053l-.595.134-.709.2241-.477.1713-.802.3164-.226.1208-.725.3822-.356.1977-.646.4218-.316.224-.738.5668-.095.0813-.103-.1977-.053-.1187-.29-.3976-.303-.4195-.342-.3844-.396-.3691-.384-.3536-.356-.2505-.051-.0527-.145-.0923-.327-.1977-.435-.235-.277-.145-.501-.1977-.503-.1713-.395-.1187-.158-.0285-.593-.1318-.108-.0132-.525-.0659-.646-.0395h-.318l-1.503.0769-2.137.2504-2.228.3295h-.052l-.936.1559-.844.1845-.751.1714-.079.0154-.764.2108-.791.2241-.497.1824-.046-.022-.553-.2504-.159-.0506-.131-.0527-.844-.2636-.923-.235-.896-.1977-.092-.0154-.066-.0132-1.199-.1713-1.147-.1428-.171-.0132-1.674-.0923h-.435l-1.421.0506-.093.0131-.711.0528-.857.1054-.725.1186h-.026l-1.266.2636-1.16.29-.065.0154-.778.224-.356.1318-.633.2373-.382.1713-.619.3032-.132.0527-.134.0922-.604.3559-.092.0505-.449.3185-.448.3405-.134.1077-.395.369-.527.5536-.106.1318-.039.0417-.264.3405-.237.3559-.171.2768-.264.4744-.169.3845-.145.3404-.158.5141-.106.3954-.079.3295-.079.5404-.026.4481-.014.3822v.2241l.04.6063.053.3295.105.5008.079.3823.132.4217.213.4877.143.3295.226.4327.303.4482.224.3053.264.3031.105.145.108.0769.264.2636.29.2373.356.2899.461.29.316.1845.488.2373.514.1845.343.0923.461.1317.54.0659.382.0528.475.0131.422-.0131.184-.0154-1.001 2.3724-.014.0417-.645 1.5553-.688 1.7903v.0286l-.527 1.4893-.525 1.6739v.0286l-.029.0395-.235.9885-.184.9731-.121.7909-.027.3954-.026.6985v.1186l.013.3822.027.4109.052.3558.106.5009.092.3976.132.4195.2.4899.169.369.226.3954.303.435.227.3031.303.3691.171.1713.303.29.303.2504.343.2636.448.2768.33.1845.461.2241.512.1845.356.1054.448.1055.514.0659.382.0527.448.0132h.066l.525-.0264.595-.0791.541-.1054.525-.1582.371-.1449.09-.0132.556-.2636.474-.2768.409-.2768.411-.29.395-.369.369-.3691.29-.3295.079-.0922.488-.6327.503-.7512.474-.7777.411-.7512.051-.0791.052-.1208.231-.457.004.0089.398.7117.185.2504.419.6194.305.3559.433.4745.319.3163.474.4482.343.2899.696.5272.093.0528.803.525.409.2372.767.3822.448.2131.896.3405.169.0527.134.0396.857.2372.448.1054.804.1318h.04l.448.0527.843.0528h.264l.988-.0418.422-.0263.857-.134.474-.0637.831-.1977.503-.145.883-.3185.132-.0505.131-.0528.818-.3822.448-.235.687-.4218.433-.29.633-.4744.397-.3427.053-.0506.736.7227.343.3186.896.7381.105.0636.145.1077.817.525.09.0527.464.2505.709.3163.093.0527.514.1977.764.235.106.0286.503.1318.777.145.079.0132.554.0659.962.0505h.29l1.094-.0505.527-.0659.831-.134h.05l.582-.1318.857-.2373.092-.0263.488-.1846.846-.3427.525-.2613.909-.5141.237-.1449.791-.5932.341-.2372.687-.6041.303-.2768.62-.6326.277-.29.604-.7249.237-.3185.444-.6195.215.3669-.369.369-.316.3295-.227.2768-.131.1713-.343.5141-.143.2482-.264.4613-.171.3976-.134.3031-.156.5272-.184.7096-.066.5404-.042.4217-.013.4108v.2241l.052.7117.04.3163.105.5141.121.5118.079.3185.198.5118.211.4767.134.29.277.4745.303.4481.224.3163.105.134.583.6722.079.0791.369.3559.501.4349.041.0395.448.3559.723.4745.213.1449.778.4196.397.1999.686.29.395.1428.778.2636.197.0527.804.1977.42.0923.674.1054.462.0395.738.0418h.25l.831-.0264.432-.0417.675-.1055.474-.0659.541-.1318h.039l.606-.1713.594-.224.065-.0154.488-.2109.699-.3427.118-.0769.079-.0417.752-.4613.435-.29.619-.4877.395-.3558.554-.5404.343-.3559.54-.659.119-.1208.079-.1318.474-.6876.227-.3273.395-.6875.184-.3405.435-.9095.409-1.0434.053-.156.395-1.2147.369-1.329.29-1.2917.042-.145v-.0659l.211-1.1708.197-1.3444.13-1.1642.294.1362.369.1318.409.1318.435.1208.066.0395.738.145.699.1054.672.0791h.079l1.45.1186 1.357.0418h.844l.988-.0154 1.54-.0505 1.924-.145 1.848-.2768.224-.0263.698-.1714.739-.224.604-.2373.134-.0527.224-.0923.035-.0197.02.0593.079.2109.211.4898.263.5009.079.1581.29.4613.343.5009.092.1186.316.3844.383.4086.066.0791.408.3822.62.5272.105.0791 15.105 11.4799.12.0923.765.5272h.053l.21.1186.501.2768.411.1845.567.2263.369.1318.777.2504.974.224.922.145.185.0132.883.0791h1.002l.777-.0527.398-.0264.604-.1054.422-.0659.566-.1428.488-.145.619-.2372.159-.0505 17.437-7.6314.145-.0659.687-.3558.064-.0264.475-.2768.461-.3295.134-.0659.448-.369.42-.3822.121-.1055.382-.3954.369-.4349.143-.1846.305-.4349.29-.4745.132-.2262.237-.4745.211-.5009.105-.2768.158-.514.121-.5404.027-.1318 7.486-32.2123.198-.1054.432-.3054.541-.4085.184-.1451.385-.3558.474-.4745.143-.1559.329-.3976.409-.5668.121-.1845.248-.435.33-.6041.092-.1977.184-.4634.224-.6305.066-.1999.134-.5118.156-.8589.053-.3823.04-.8699v-.1977z" fill="#fff" fill-rule="evenodd"/><path d="m332.955 21.7228-8.701-6.7087-8.528-6.5505c-5.048-3.54546-11.572-4.19128-17.239-1.66069l-19.111 8.52749c-1.398.6327-2.344 1.9244-2.531 3.4796-.185 1.5553.422 3.0446 1.634 3.9826l1.279.9863v.1209l-.33 35.6237c-.105 1.1994.501 2.3988 1.674 3.2819l15.118 11.4909c.738.5689 1.924.9885 3.163 1.1357 1.237.1428 2.478.0132 3.335-.3559l17.397-7.6049c1.345-.5953 2.217-1.6212 2.401-2.8206l8.053-34.6902.014-.1186 1.489-.659c1.397-.6195 2.346-1.9265 2.531-3.4796.184-1.5552-.438-3.0446-1.648-3.9804zm-1.228 3.64c-.026.235-.158.8171-.788 1.0939l-19.125 8.5276c-4.958 2.2142-10.715 1.5289-15.012-1.7925l-16.583-12.7826c-.538-.4217-.538-1.0149-.512-1.2521.027-.2372.172-.804.804-1.094l19.109-8.5275c4.589-2.04512 9.822-1.58162 13.984 1.1071l.027-.0132.226.156.369.2372-.013.0418 8.079 6.1793v-.0132l2.966 2.2802.015.0132 5.942 4.5867c.554.4217.539 1.0126.512 1.2521z" fill="#e3000b"/><path d="m319.101 25.2703-9.556 4.2682c-2.992 1.3312-6.656.8962-9.266-1.1072l-8.358-6.456c-.633-.4899-1.542-.3559-2.03.3031-.474.659-.356 1.597.29 2.0825l8.359 6.4561c1.711 1.3202 3.741 2.1505 5.878 2.4009 2.122.2483 4.297-.079 6.26-.9621l9.558-4.2572c.738-.3295 1.079-1.2016.765-1.9529-.317-.7644-1.162-1.1071-1.9-.7754z" fill="#f7a600"/><g fill="#e3000b"><path d="m198.567 40.2939c-.197-.3427-.604-.6195-1.199-.8435-.593-.2131-1.252-.3823-1.964-.5141-.712-.1186-1.397-.2108-2.069-.2767l-1.529-.0791-1.329.0527c-.554.0263-1.16.1054-1.806.2241-.646.1054-1.304.2636-1.974.4481-.675.1713-1.279.4108-1.819.6985-.554.29-.989.6327-1.332 1.0413-.342.4217-.511.8962-.511 1.4498 0 .5272.156.9489.446 1.2653.305.3163.687.4876 1.159.4876l.462-.0395c1.028-.2262 2.095-.4349 3.202-.6063 1.094-.1713 2.175-.2504 3.23-.2504l.909.0286.909.1054-1.605 4.0068-1.608 3.9914-1.042 2.4778c-.421.9512-.817 1.9375-1.186 2.9678-.382 1.0148-.711 2.0165-1.001 3.0028-.277.9753-.411 1.8343-.411 2.5306 0 .5272.158.9512.461 1.2785.319.3185.688.4745 1.147.4745.593 0 1.107-.2636 1.542-.7886.435-.5272.896-1.2653 1.41-2.2165.503-.949.989-1.9639 1.463-3.0446l1.331-3.2028 1.015-2.5833.593-1.4498.791-2.0034.883-2.267c.303-.7886.567-1.5399.802-2.2648l.595-1.9374c.143-.569.224-1.0171.224-1.3312l-.013-.435c-.017-.134-.07-.2526-.176-.3976z"/><path d="m208.02 48.3229c-.421 0-.845.0395-1.265.0922-.411.0505-.817.1318-1.228.2241l-.063-4.9821 1.37-.1077c.525-.0395 1.066-.1054 1.619-.1845l1.648-.2482c.527-.0923.988-.2131 1.357-.3427.475-.1845.897-.4613 1.292-.8304.398-.369.595-.8567.595-1.4761 0-.3976-.092-.7249-.25-.9885-.171-.2768-.382-.5031-.633-.6722-.263-.1714-.553-.3054-.87-.3845-.318-.0768-.619-.1186-.909-.1186l-1.215.0659-1.882.2109-2.188.3295c-.765.1186-1.463.2636-2.109.4196-.646.1581-1.226.3295-1.7.514-.488.1845-.789.3822-.91.5799-.105.145-.184.4108-.224.7908l-.105 1.2522-.042 1.2916v.8963l.013 1.4893.053 2.2802.132 2.2274c.052.6986.107 1.1335.171 1.3444.079.2504.264.4877.554.6964.292.2262.606.4108.975.5689.356.156.712.29 1.067.3691.341.079.633.0922.857.0505.29-.0505.58-.1187.857-.2241l.83-.3295c.279-.1186.569-.224.87-.3031.29-.0923.633-.145 1.002-.145.804 0 1.37.3185 1.726.9226.343.6195.528 1.3576.528 2.2011 0 .8962-.264 1.6629-.778 2.3087-.512.6305-1.186.9622-2.003.9622-.686 0-1.237-.1187-1.674-.3559-.422-.2241-.818-.4745-1.147-.7645-.34-.2899-.696-.5403-1.041-.7776-.356-.224-.791-.3405-1.305-.3405-.527 0-.962.1846-1.292.5536-.329.369-.49.8435-.49 1.4344 0 .8304.227 1.5839.675 2.2539.448.6699 1.015 1.2521 1.698 1.7265.687.4877 1.412.8568 2.175 1.1072.777.2504 1.476.369 2.122.369 1.173 0 2.242-.1845 3.189-.5799.962-.3976 1.779-.9512 2.478-1.6893.688-.7249 1.228-1.6211 1.608-2.6755.382-1.0544.567-2.2538.567-3.5982 0-2.4252-.567-4.2704-1.714-5.5247-1.142-1.2565-2.805-1.8891-4.991-1.8891z"/><path d="m232.322 43.301c-.673-1.1994-1.556-2.1747-2.636-2.9391-1.094-.7535-2.437-1.1357-4.02-1.1357-.923 0-1.817.213-2.676.6194-.857.4086-1.648.9622-2.386 1.6607-.725.6986-1.383 1.5157-1.963 2.4384-.596.9357-1.094 1.8979-1.516 2.8974-.422 1.0171-.751 2.0319-.975 3.06-.225 1.028-.341 2.0165-.341 2.9523 0 1.3312.198 2.702.604 4.1386.398 1.4235.975 2.7415 1.727 3.9409.751 1.2148 1.66 2.2011 2.728 2.9787 1.081.7776 2.28 1.1599 3.625 1.1599 1.581 0 2.976-.3976 4.189-1.1863 1.228-.7908 2.229-1.8188 3.047-3.0841.817-1.2653 1.434-2.6888 1.858-4.2572.419-1.5684.633-3.1237.633-4.679 0-1.5135-.145-3.0182-.449-4.5208-.303-1.5025-.777-2.8469-1.449-4.0441zm-2.926 10.8737c-.224.9358-.541 1.8034-.963 2.6096-.421.8172-.951 1.5026-1.583 2.0693-.633.5536-1.343.8304-2.149.8304-.659 0-1.225-.2373-1.713-.6986-.488-.4745-.883-1.0412-1.186-1.7134-.317-.6854-.541-1.3971-.686-2.1484-.145-.7512-.213-1.4366-.213-2.0297 0-.7513.121-1.597.356-2.5306.237-.949.569-1.8189 1.002-2.6492.435-.8172.962-1.5135 1.597-2.0671.617-.5689 1.342-.8457 2.148-.8457.659 0 1.213.2372 1.689.7117.475.4877.87 1.0676 1.158 1.753.305.6875.527 1.4234.674 2.2011.143.7776.211 1.4498.211 2.0297 0 .7227-.116 1.5531-.342 2.4779z"/><path d="m253.357 47.6221c-.066-.6063-.145-1.1599-.264-1.6871-.119-.514-.264-.9248-.461-1.2521-.198-.3185-.435-.4745-.725-.4745-.541 0-.989.2351-1.358.6964-.382.4745-.672.9512-.896 1.4234-.105-.9094-.461-1.6211-1.065-2.122-.607-.503-1.305-.7534-2.083-.7534-.804 0-1.542.1999-2.214.6194-.672.4108-1.279.9358-1.806 1.608-.54.659-1.002 1.4213-1.41 2.2933-.398.8699-.738 1.7662-1.002 2.6888-.263.9094-.461 1.8189-.606 2.702-.132.8962-.198 1.698-.198 2.4119 0 1.1335.119 2.2011.343 3.1896.224.9754.58 1.8452 1.052 2.5833.475.7513 1.081 1.3312 1.845 1.753.767.4218 1.69.6326 2.784.6326.593 0 1.173-.0922 1.711-.2899.556-.1977 1.03-.5536 1.436-1.0808-.05.6876-.171 1.4125-.316 2.1879-.158.7666-.397 1.4762-.698 2.122s-.725 1.1862-1.237 1.608c-.514.4218-1.147.6458-1.911.6458-.29 0-.582-.0659-.859-.1977l-.857-.4217-.896-.435c-.303-.1186-.62-.1845-.949-.1845-.527 0-.976.2262-1.305.6744-.343.4349-.514.9226-.514 1.4498 0 .7095.211 1.329.633 1.8716.421.5426.935.9885 1.542 1.3575.604.3691 1.265.6459 1.95.8436.686.1977 1.318.2899 1.874.2899 1.184 0 2.228-.235 3.082-.7249.87-.4745 1.608-1.1203 2.214-1.9243.607-.7886 1.094-1.7112 1.463-2.7546.369-1.0413.675-2.1352.897-3.2665.226-1.1225.395-2.267.487-3.4159.108-1.1444.2-2.2142.251-3.2159.079-1.1731.145-2.3461.171-3.506l.053-3.5059v-1.0544l-.042-1.608c-.011-.5777-.048-1.1686-.116-1.7771zm-4.758 8.2508c-.145.5535-.356 1.0544-.633 1.5157s-.62.8303-1.041 1.1335c-.411.2899-.897.4481-1.45.4481-.369 0-.675-.1713-.896-.514-.224-.3405-.409-.7645-.541-1.2368-.132-.4898-.211-.9753-.263-1.4761l-.051-1.1994c0-.4108.064-.9094.198-1.4916.132-.5931.316-1.1335.567-1.6475.25-.525.553-.9622.909-1.329.369-.3691.778-.5404 1.252-.5404.369 0 .696.1713.962.5404.266.369.488.804.659 1.3048.185.5031.319 1.0281.411 1.5817.092.5535.132 1.0017.132 1.3443-.005.4987-.068 1.0259-.215 1.5663z"/><path d="m260.804 53.3422c.382.0791.804.1582 1.279.1999l1.357.1055 1.16.0395h.725l.87-.0264 1.397-.0527c.527-.0132 1.081-.0505 1.647-.1186.569-.0527 1.081-.1318 1.542-.224.462-.0923.846-.2 1.16-.3186.303-.1318.462-.3031.462-.5008 0-.3054-.264-.5536-.791-.7535-.525-.2109-1.134-.3822-1.817-.5008-.698-.1318-1.373-.2241-2.045-.2768s-1.16-.0923-1.463-.0923l-.975.0264-1.397.0659c-.501.0395-1.015.0791-1.556.1582-.54.0637-1.015.1559-1.434.2767-.422.1055-.767.2483-1.044.4328-.29.1845-.419.4107-.419.6612 0 .224.132.4086.382.5535.264.134.578.2527.96.3449z"/><path d="m271.955 56.7029c-.527-.2109-1.133-.3822-1.819-.5009-.696-.134-1.371-.2262-2.043-.2767l-1.463-.0791-.975.0132-1.397.0659-1.555.1559c-.541.0659-1.015.1582-1.437.2768-.42.1076-.778.2636-1.052.4481-.277.1714-.411.3976-.411.6458 0 .2131.121.3845.382.5273.251.1581.582.2767.962.369.369.0923.804.1582 1.279.1977l1.357.1076 1.158.0396h.725l.87-.0132 1.397-.0527 1.634-.1186 1.556-.2263c.461-.0922.843-.2109 1.146-.3405.317-.145.475-.3053.475-.4899.002-.3009-.262-.5513-.789-.749z"/></g><path clip-rule="evenodd" d="m287.045 63.3986c.528-.3823 1.055-.8304 1.595-1.3576.541-.525 1.044-1.0654 1.516-1.6058.461-.5535.844-.9885 1.144-1.3048l.989 1.2785c.398.5118.817 1.0148 1.292 1.4761.476.4745.951.8809 1.436 1.2258.503.3427.989.514 1.463.514.462 0 .844-.1977 1.173-.5821.317-.3954.475-.7886.475-1.2126 0-.4195-.119-.9621-.382-1.5684-.251-.6195-.554-1.2368-.91-1.8716s-.712-1.2389-1.081-1.8057l-.856-1.3443 1.357-2.2275 1.358-2.2274.617-1.0545c.226-.369.448-.7644.646-1.173.213-.4196.384-.8172.514-1.2257.143-.3954.211-.7777.211-1.1467 0-.3954-.119-.7513-.356-1.0808-.235-.3273-.554-.5008-.949-.5008-.595 0-1.226.2504-1.885.7512-.672.5141-1.305 1.1072-1.924 1.7925-.617.6854-1.173 1.3839-1.661 2.0957l-1.144 1.6739-.817-1.6608c-.33-.6721-.712-1.3312-1.147-1.9506-.435-.6327-.91-1.173-1.41-1.6212-.503-.4481-1.044-.6744-1.608-.6744-.528 0-.949.1714-1.266.4899-.327.3163-.487.7381-.487 1.2653 0 .4877.105 1.0786.329 1.8035.211.7249.475 1.4498.789 2.2011.305.7381.632 1.4498.975 2.1242l.857 1.6321-.973 1.608-1.279 2.1615c-.422.7513-.777 1.4894-1.094 2.2011-.305.7096-.461 1.2917-.461 1.753 0 .4481.132.8567.408 1.1994.277.3427.659.514 1.136.514.409.0044.883-.1801 1.41-.5645z" fill="#fff" fill-rule="evenodd"/><path clip-rule="evenodd" d="m311.323 59.0248c-.461-.3185-.83-.7403-1.133-1.2389-.29-.5009-.514-1.0412-.659-1.6344-.158-.5799-.226-1.1334-.226-1.6606l.028-.6195c.027-.2504.106-.4196.235-.5118.369-.2263.804-.3977 1.305-.5141.514-.1054.951-.1713 1.345-.1713 1.173 0 2.122.3295 2.86.9753.751.659 1.12 1.5948 1.12 2.8052 0 .9753-.303 1.7398-.923 2.2538-.617.5272-1.397.7908-2.333.7908-.617 0-1.157-.1604-1.619-.4745zm4.247 4.9008c1.078-.3426 2.029-.8435 2.833-1.5025.789-.6744 1.435-1.5047 1.896-2.5064.475-1.0149.712-2.1726.712-3.506 0-1.0807-.171-2.1219-.488-3.1368-.318-1.0149-.791-1.9243-1.412-2.7151-.604-.7909-1.371-1.4213-2.28-1.9112-.894-.4744-1.938-.7117-3.096-.7117-.369 0-.738.0286-1.107.0791-.371.0659-.711.145-1.054.2636.316-.7381.698-1.4367 1.144-2.1088.448-.6722.925-1.318 1.45-1.9112.237-.2767.554-.5799.951-.9094l1.173-1.028c.369-.3559.697-.7117.974-1.0808.276-.369.41-.7095.41-1.0281 0-.5667-.213-1.0016-.632-1.2916-.422-.2768-.897-.4218-1.424-.4218-.922 0-1.845.2636-2.792.7908-.962.5272-1.874 1.2126-2.728 2.0825-.883.8699-1.689 1.8584-2.438 2.9765-.765 1.1071-1.422 2.2538-1.991 3.4291-.58 1.1862-1.028 2.3438-1.342 3.4795-.318 1.1445-.474 2.1726-.474 3.0974 0 1.2784.156 2.5174.474 3.7146.316 1.1994.817 2.2801 1.476 3.2291.659.9512 1.514 1.7134 2.557 2.2802 1.042.5821 2.267.8589 3.691.8589 1.247.0044 2.423-.1692 3.517-.5119z" fill="#fff" fill-rule="evenodd"/><path d="m192.735 89.4336c0 .7448-.085 1.5657-.254 2.4629-.152.8802-.423 1.7012-.813 2.4629-.372.7617-.871 1.3965-1.498 1.9043-.609.5078-1.379.7617-2.31.7617-.237 0-.483-.0169-.736-.0508-.254-.0338-.5-.0931-.737-.1777-.22-.0847-.423-.1947-.609-.3301-.186-.1523-.33-.347-.432-.584l-.228 3.6563c-.017.3893-.034.8549-.051 1.3969 0 .541-.068 1.057-.203 1.548-.119.491-.33.906-.635 1.245-.288.355-.711.533-1.27.533-.321 0-.592-.17-.812-.508-.22-.322-.398-.736-.533-1.244-.119-.508-.212-1.075-.28-1.701-.067-.627-.11-1.2276-.126-1.8031-.017-.5756-.026-1.1003-.026-1.5743 0-.4739 0-.8209 0-1.041 0-1.1341-.008-2.2597-.025-3.3769-.017-1.1341-.026-2.2683-.026-3.4024 0-.2031 0-.5162 0-.9394 0-.4401.017-.9141.051-1.4219s.085-1.0326.152-1.5742c.085-.5417.204-1.0326.356-1.4727.152-.457.347-.8209.584-1.0918.237-.2877.525-.4316.863-.4316.22 0 .415.0677.584.2031.186.1185.339.2793.457.4824.136.1862.246.3894.33.6094.085.2201.153.4232.203.6094.525-.5925 1.126-1.041 1.803-1.3457.694-.3047 1.43-.4571 2.209-.4571.813 0 1.473.2286 1.981.6856.524.457.931 1.0241 1.218 1.7012.305.6771.517 1.4049.635 2.1836.119.7617.178 1.4557.178 2.082zm-3.631-.2031c0-.2539-.025-.5078-.076-.7617-.034-.2709-.11-.5163-.229-.7364-.101-.237-.254-.4232-.457-.5586-.203-.1523-.457-.2285-.761-.2285-.407 0-.838.1354-1.295.4063-.44.2539-.771.5501-.991.8886-.084.1355-.135.3555-.152.6602s-.025.5332-.025.6855v.4825c.017.1862.034.3808.05.5839.017.2032.034.3978.051.584.034.1862.076.3301.127.4317.051.1523.161.2962.33.4316.17.1185.356.2285.559.3301.203.1015.406.1777.609.2285.22.0508.406.0762.559.0762.355 0 .643-.1354.863-.4063.22-.2708.389-.5924.508-.9648.135-.3724.22-.7533.254-1.1426.051-.4062.076-.7363.076-.9902zm10.004 8.5058c-.863 0-1.617-.2285-2.26-.6855s-1.185-1.041-1.625-1.752c-.44-.7109-.77-1.498-.99-2.3613-.22-.8802-.33-1.7435-.33-2.5898 0-.8972.11-1.8197.33-2.7676.22-.9649.559-1.8366 1.016-2.6153.457-.7955 1.041-1.4388 1.751-1.9296.711-.5079 1.558-.7618 2.54-.7618.947 0 1.752.2624 2.412.7871.677.5079 1.218 1.1511 1.625 1.9297.406.7618.694 1.5996.863 2.5137s.228 1.7773.178 2.5899c-.051.8971-.195 1.8027-.432 2.7167-.22.9141-.55 1.7351-.99 2.4629-.44.7279-.999 1.3204-1.676 1.7774s-1.481.6855-2.412.6855zm.254-11.4765c-.254 0-.483.1354-.686.4062-.186.2708-.347.6009-.482.9902-.119.3894-.212.8041-.279 1.2442-.068.4232-.102.7956-.102 1.1172 0 .4062.034.8463.102 1.3203.084.4739.194.9141.33 1.3203.135.3893.296.7194.482.9902.203.2539.432.3809.686.3809.27 0 .499-.127.685-.3809.203-.2539.364-.5755.483-.9648.118-.3893.203-.8125.253-1.2695.051-.474.077-.9141.077-1.3203 0-.3724-.034-.7787-.102-1.2188-.068-.457-.169-.8802-.305-1.2695-.118-.3894-.279-.711-.482-.9649-.186-.2539-.406-.3808-.66-.3808zm12.467 11.6543c-1.202 0-2.142-.1608-2.819-.4825-.66-.3046-1.159-.7448-1.498-1.3203-.321-.5755-.516-1.2695-.584-2.082-.067-.8125-.101-1.7181-.101-2.7168 0-.7956.025-1.5911.076-2.3867.051-.8125.127-1.6758.228-2.5899-.237 0-.423.0085-.558.0254-.136 0-.246 0-.33 0-.542 0-1.007-.1185-1.397-.3554-.406-.237-.609-.601-.609-1.0918 0-.3047.118-.5756.355-.8125.22-.237.508-.4401.864-.6094.355-.1693.736-.3047 1.142-.4063.423-.1015.821-.1692 1.194-.2031 0-.4739.033-.9987.101-1.5742s.186-1.1087.356-1.5996c.186-.5078.431-.931.736-1.2695.305-.3386.694-.5079 1.168-.5079.271 0 .508.0847.711.2539.22.1524.398.3555.533.6094.135.237.237.5078.305.8125.067.3047.101.6009.101.8887 0 .3385-.025.6855-.076 1.041s-.144.7956-.279 1.3203c.288-.0338.482-.0508.584-.0508.101-.0169.194-.0254.279-.0254.288 0 .584.0254.889.0762.321.0508.609.1354.863.2539.271.1185.491.2793.66.4825.169.1861.254.4147.254.6855 0 .3047-.127.5755-.381.8125-.237.237-.541.4401-.914.6094-.372.1692-.77.3047-1.193.4062-.423.0847-.821.1439-1.194.1778-.101.694-.177 1.3372-.228 1.9296-.034.5756-.076 1.1595-.127 1.752-.034.2878-.068.584-.102.8887-.017.2877-.025.584-.025.8886 0 .2201.008.4825.025.7871.017.2878.077.5671.178.8379.102.2709.262.5079.483.711.22.1862.524.2793.914.2793.237 0 .482-.017.736-.0508.254-.0508.508-.0762.762-.0762.44 0 .753.1524.939.4571.203.3046.305.694.305 1.1679 0 .3555-.11.6686-.33.9395-.203.2539-.466.457-.787.6093-.322.1693-.686.2963-1.092.3809-.39.0846-.762.127-1.117.127zm11.273-14.8789c0 .4908-.169.8548-.508 1.0918-.321.2369-.685.4654-1.092.6855-.406.2031-.778.4486-1.117.7363-.321.2878-.482.7194-.482 1.295 0 .3046.068.567.203.7871.152.22.33.4231.533.6093.22.1693.457.347.711.5332s.483.3978.686.6348c.22.237.397.5247.533.8633.152.3385.228.7532.228 1.2441 0 .711-.186 1.4134-.558 2.1074-.356.6771-.821 1.2865-1.397 1.8282-.558.5247-1.193.9479-1.904 1.2695s-1.413.4824-2.107.4824c-.288 0-.576-.0254-.864-.0761-.287-.0339-.55-.1101-.787-.2286-.22-.1185-.406-.2793-.558-.4824-.153-.22-.229-.4993-.229-.8379 0-.4739.093-.8379.279-1.0918.187-.2708.424-.4824.711-.6347.288-.1524.593-.2709.914-.3555.339-.0846.652-.1862.94-.3047.288-.1354.525-.3047.711-.5078s.279-.4909.279-.8633c0-.3555-.144-.7194-.432-1.0918-.27-.3893-.575-.7956-.914-1.2187-.338-.4401-.651-.9056-.939-1.3965-.271-.4909-.406-1.0326-.406-1.625 0-.7279.144-1.3965.431-2.0059.305-.6263.703-1.1679 1.194-1.625.507-.457 1.083-.8125 1.726-1.0664.643-.2708 1.321-.4062 2.031-.4062.271 0 .534.0254.788.0761.27.0508.507.1439.711.2793.203.1185.363.2878.482.5078.135.2032.203.4655.203.7872zm18.078-2.7422c0 1.2356-.051 2.4629-.152 3.6816-.085 1.2188-.127 2.446-.127 3.6816 0 .9987.025 1.989.076 2.9708.068.9817.102 1.972.102 2.9707 0 .2708-.009.6009-.026.9902-.017.3724-.076.7363-.178 1.0918-.084.3555-.236.6601-.457.9141-.203.2539-.499.3808-.888.3808-.508 0-.931-.1862-1.27-.5586-.321-.3893-.524-.8209-.609-1.2949-.322.6094-.787 1.1256-1.397 1.5488-.609.4232-1.269.6348-1.98.6348-.762 0-1.422-.2624-1.981-.7871-.541-.5248-.998-1.1595-1.371-1.9043-.355-.7448-.626-1.5235-.812-2.336-.169-.8125-.254-1.5149-.254-2.1074 0-.4232.025-.9056.076-1.4472.051-.5417.136-1.0918.254-1.6504.135-.5586.305-1.1003.508-1.625.203-.5417.457-1.0241.762-1.4473.321-.4232.694-.7617 1.117-1.0156.44-.2539.939-.3809 1.498-.3809.609 0 1.193.1777 1.752.5332.558.3555.982.7956 1.269 1.3203l.229-4.0371c.017-.3216.042-.694.076-1.1172.034-.4401.102-.8548.203-1.2441.119-.3893.296-.7194.533-.9902.237-.2709.584-.4063 1.041-.4063.491 0 .872.1185 1.143.3555s.465.5416.584.914c.135.3555.211.7448.228 1.168.034.4232.051.821.051 1.1934zm-4.138 11.2734c0-.3893-.009-.7702-.026-1.1426s-.017-.7532 0-1.1426c-.101-.22-.22-.457-.355-.7109-.136-.2708-.305-.5163-.508-.7363-.186-.237-.398-.4317-.635-.584s-.491-.2285-.762-.2285c-.304 0-.55.0931-.736.2793s-.322.4147-.406.6855c-.085.2539-.144.5332-.178.8379-.017.3047-.025.5671-.025.7871 0 .2032.017.5078.05.9141.034.3893.094.7871.178 1.1934.102.4062.237.7617.406 1.0664.17.3046.398.457.686.457.22 0 .44-.0423.66-.127.22-.1015.423-.22.609-.3554.204-.1524.39-.3132.559-.4825.186-.1862.347-.3554.483-.5078zm16.453.9141c0 .5755-.187 1.1425-.559 1.7011-.355.5417-.812 1.0326-1.371 1.4727-.542.4232-1.126.7702-1.752 1.041-.626.2539-1.202.3809-1.727.3809-.897 0-1.701-.2201-2.412-.6602-.694-.457-1.278-1.0325-1.752-1.7265-.474-.6941-.838-1.4558-1.091-2.2852-.237-.8464-.356-1.6673-.356-2.4629 0-.8463.119-1.7519.356-2.7168.237-.9648.592-1.8535 1.066-2.666.491-.8125 1.1-1.4896 1.828-2.0313.745-.5416 1.625-.8125 2.641-.8125.575 0 1.125.1016 1.65.3047.525.1862.982.4571 1.371.8125.39.3555.703.7787.94 1.2696.237.4908.355 1.041.355 1.6504 0 .7955-.169 1.5403-.508 2.2343-.338.694-.787 1.2949-1.345 1.8028-.559.5078-1.202.9225-1.93 1.2441-.728.3047-1.473.474-2.234.5078.067.4909.262.8464.584 1.0664.338.2201.736.3301 1.193.3301.338 0 .669-.0846.99-.2539.322-.1693.635-.3555.94-.5586.304-.2201.6-.4147.888-.584.305-.1693.61-.2539.914-.2539.339 0 .644.11.914.3301.271.22.407.5078.407.8633zm-4.114-6.2207c0-.2201-.059-.4486-.177-.6856-.119-.237-.305-.3554-.559-.3554-.372 0-.686.1015-.939.3046-.254.1862-.466.4317-.635.7364-.169.2877-.305.6009-.406.9394-.085.3386-.136.6517-.153.9395.237-.0508.516-.1185.838-.2032.339-.0846.652-.1946.94-.33.304-.1524.558-.3386.761-.5586.22-.2201.33-.4824.33-.7871zm16.758 18.1292c-.406 0-.872-.068-1.396-.203-.508-.119-.991-.297-1.448-.534s-.846-.524-1.168-.863c-.304-.338-.457-.728-.457-1.168 0-.169.043-.338.127-.508.085-.169.195-.321.33-.457.153-.118.314-.22.483-.304.169-.068.347-.102.533-.102.203 0 .398.025.584.076.203.068.406.144.609.229.22.084.432.16.635.228.22.068.449.102.686.102.423 0 .787-.144 1.092-.432.321-.288.592-.6685.812-1.1425.22-.457.398-.9733.533-1.5488.136-.5586.237-1.1172.305-1.6758.085-.5586.144-1.0833.178-1.5742s.059-.8887.076-1.1933c-.593.8971-1.185 1.5911-1.778 2.082-.575.4739-1.286.7109-2.132.7109-.644 0-1.211-.1354-1.701-.4062-.474-.2709-.881-.6263-1.219-1.0664-.339-.4401-.618-.9395-.838-1.4981-.22-.5755-.389-1.1679-.508-1.7773-.102-.6094-.169-1.2018-.203-1.7774-.034-.5924-.034-1.1341 0-1.625.017-.3724.059-.8548.127-1.4472.085-.6094.211-1.2019.381-1.7774.169-.5755.406-1.0579.711-1.4472.304-.4063.702-.5925 1.193-.5586.322.0169.584.1608.787.4316.203.2539.364.5755.483.9649.135.3893.228.8209.279 1.2949.068.457.11.914.127 1.3711.017.457.017.8802 0 1.2695v.8633c0 .2877.008.5755.025.8633.017.2877.076.5501.178.7871.102.22.254.3978.457.5332.22.1354.525.2031.914.2031.44 0 .787-.11 1.041-.3301.271-.22.466-.4909.584-.8125.135-.3385.22-.694.254-1.0664.034-.3893.051-.7532.051-1.0918 0-.237 0-.5247 0-.8633 0-.3385 0-.694 0-1.0664.017-.3724.051-.7363.101-1.0918.068-.3724.161-.7024.28-.9902.135-.3047.304-.5501.507-.7363.22-.1862.5-.2793.838-.2793.423 0 .787.1692 1.092.5078.305.3216.559.7532.762 1.2949.22.5247.389 1.1087.508 1.752.135.6432.237 1.2864.304 1.9297.068.6263.11 1.2102.127 1.7519.034.5247.051.9395.051 1.2441 0 .711-.025 1.5235-.076 2.4375-.051.8972-.152 1.8282-.305 2.793-.135.9479-.347 1.8789-.635 2.793-.287.9307-.668 1.7607-1.142 2.4887-.457.727-1.024 1.311-1.701 1.752-.677.44-1.49.66-2.438.66zm18.738-10.9691c0 .3047-.016.7025-.05 1.1934-.017.4909-.085.9733-.203 1.4472-.119.4571-.305.8549-.559 1.1934s-.609.5078-1.066.5078c-.627 0-1.109-.2031-1.448-.6094-.338-.4062-.499-.914-.482-1.5234-.542.474-1.16.8464-1.854 1.1172-.677.2708-1.371.4062-2.082.4062-.491 0-.956-.1184-1.396-.3554s-.83-.5417-1.168-.9141c-.339-.3724-.61-.7871-.813-1.2441-.203-.474-.304-.9395-.304-1.3965 0-.8125.245-1.5234.736-2.1328.508-.6094 1.126-1.1257 1.854-1.5489.727-.4401 1.498-.7871 2.31-1.041.829-.2539 1.566-.4231 2.209-.5078 0-.0846 0-.1608 0-.2285.017-.0677.025-.1439.025-.2285 0-.5248-.143-.9479-.431-1.2695-.288-.3217-.694-.4825-1.219-.4825-.423 0-.787.0762-1.092.2285-.304.1355-.592.2963-.863.4825-.271.1692-.542.3301-.813.4824-.27.1354-.575.2031-.914.2031-.372 0-.694-.1185-.964-.3554-.254-.237-.381-.5417-.381-.9141 0-.5586.16-1.0664.482-1.5235.339-.457.753-.8378 1.244-1.1425.508-.3216 1.05-.5671 1.625-.7364.593-.1862 1.134-.2793 1.625-.2793.457 0 .914.0593 1.371.1778.457.1015.889.2708 1.295.5078.407.22.77.4993 1.092.8379.339.3216.609.7025.813 1.1426.304.6263.55 1.2949.736 2.0058.186.694.33 1.4134.432 2.1582.101.7279.169 1.4642.203 2.209.034.7279.05 1.4388.05 2.1328zm-4.062-.8125-.076-1.7265c-.034 0-.068 0-.102 0-.034-.017-.068-.0254-.101-.0254-.22 0-.5.0592-.838.1777-.322.1016-.635.2539-.94.457-.304.1862-.567.3978-.787.6348-.203.237-.304.4824-.304.7363 0 .237.084.3978.253.4825.17.0846.364.1269.584.1269.373 0 .771-.0931 1.194-.2793.423-.2031.795-.3978 1.117-.584zm10.41 5.1289c-.863 0-1.616-.2285-2.26-.6855-.643-.457-1.185-1.041-1.625-1.752-.44-.7109-.77-1.498-.99-2.3613-.22-.8802-.33-1.7435-.33-2.5898 0-.8972.11-1.8197.33-2.7676.22-.9649.559-1.8366 1.016-2.6153.457-.7955 1.041-1.4388 1.752-1.9296.711-.5079 1.557-.7618 2.539-.7618.948 0 1.752.2624 2.412.7871.677.5079 1.219 1.1511 1.625 1.9297.406.7618.694 1.5996.863 2.5137s.229 1.7773.178 2.5899c-.051.8971-.195 1.8027-.432 2.7167-.22.9141-.55 1.7351-.99 2.4629-.44.7279-.999 1.3204-1.676 1.7774s-1.481.6855-2.412.6855zm.254-11.4765c-.254 0-.482.1354-.686.4062-.186.2708-.347.6009-.482.9902-.118.3894-.212.8041-.279 1.2442-.068.4232-.102.7956-.102 1.1172 0 .4062.034.8463.102 1.3203.084.4739.194.9141.33 1.3203.135.3893.296.7194.482.9902.203.2539.432.3809.686.3809.271 0 .499-.127.685-.3809.203-.2539.364-.5755.483-.9648.118-.3893.203-.8125.254-1.2695.05-.474.076-.9141.076-1.3203 0-.3724-.034-.7787-.102-1.2188-.067-.457-.169-.8802-.304-1.2695-.119-.3894-.28-.711-.483-.9649-.186-.2539-.406-.3808-.66-.3808zm17.672 3.4785c0 .931-.093 1.8535-.279 2.7676-.187.914-.5 1.735-.94 2.4629-.44.7109-1.032 1.2864-1.777 1.7265-.728.4401-1.642.6602-2.742.6602-1.084 0-1.989-.2116-2.717-.6348-.728-.4401-1.312-1.0156-1.752-1.7266-.423-.7109-.728-1.5149-.914-2.4121-.169-.8971-.254-1.8112-.254-2.7422 0-1.0156.118-2.0227.355-3.0214.051-.2709.144-.6433.28-1.1172.152-.4909.338-.9649.558-1.4219.237-.474.5-.8802.787-1.2188.305-.3385.635-.5078.991-.5078.338 0 .609.0931.812.2793s.364.4232.483.711c.118.2708.194.567.228.8886.034.3047.051.584.051.8379 0 .3894-.034.7702-.102 1.1426-.051.3724-.11.7448-.177 1.1172-.068.5078-.136 1.0156-.204 1.5234-.05.5078-.076 1.0157-.076 1.5235 0 .2539.009.5416.026.8633.033.3046.101.6009.203.8886.101.2878.245.5332.431.7364.187.1862.449.2793.787.2793.441 0 .788-.1185 1.041-.3555.271-.237.466-.5332.584-.8887.136-.3555.221-.7363.254-1.1426.034-.4062.051-.7786.051-1.1172 0-.7447-.051-1.4726-.152-2.1836-.102-.7278-.195-1.4641-.279-2.2089-.017-.0847-.026-.2032-.026-.3555 0-.2539.042-.5078.127-.7617s.203-.4824.356-.6856c.152-.2031.338-.3639.558-.4824.22-.1354.466-.2031.736-.2031.373 0 .703.1354.991.4062.287.2539.524.5925.711 1.0157.203.4062.364.8717.482 1.3964.135.5079.237 1.0157.305 1.5235.084.4909.135.9564.152 1.3965.034.4401.051.7871.051 1.041zm10.359-2.2344c-.237.0169-.44 0-.609-.0508-.169-.0677-.339-.1354-.508-.2031-.152-.0677-.305-.127-.457-.1777-.152-.0677-.322-.0931-.508-.0762-.338.0169-.643.11-.914.2793-.254.1693-.491.3808-.711.6348-.203.2539-.381.5416-.533.8632-.152.3047-.271.6094-.355.9141-.051.2031-.094.5163-.127.9395-.017.4062-.026.8463-.026 1.3203-.017.4909-.025.9563-.025 1.3965 0 .4401-.017.7871-.051 1.041-.017.2708-.059.5924-.127.9648-.068.3555-.178.694-.33 1.0156-.135.3216-.322.5925-.559.8125-.237.2201-.541.3301-.914.3301-.287 0-.541-.0846-.761-.2539-.203-.1693-.381-.3893-.534-.6601-.135-.2878-.253-.6179-.355-.9903-.085-.3724-.152-.7532-.203-1.1426-.051-.4062-.093-.8125-.127-1.2187-.017-.4063-.034-.7871-.051-1.1426 0-.3724 0-.7109 0-1.0156.017-.3047.025-.5501.025-.7363-.016-.5925-.05-1.1849-.101-1.7774-.034-.6094-.051-1.2103-.051-1.8027 0-.3724.017-.7871.051-1.2442.034-.457.127-.8802.279-1.2695.153-.4062.373-.7448.66-1.0156.305-.2709.72-.4063 1.245-.4063.287 0 .533.0931.736.2793s.364.4147.482.6856c.136.2708.237.5586.305.8633.068.3046.11.5839.127.8378.406-.6601.863-1.1933 1.371-1.5996.508-.4231 1.168-.6517 1.98-.6855.407-.0169.805.0254 1.194.1269.406.0847.77.237 1.092.4571.338.2031.609.4739.812.8125.22.3385.339.7363.356 1.1933.033.5417-.127.9564-.483 1.2442-.355.2877-.787.4401-1.295.457zm8.074 10.4102c-1.201 0-2.141-.1608-2.818-.4825-.66-.3046-1.159-.7448-1.498-1.3203-.322-.5755-.516-1.2695-.584-2.082s-.101-1.7181-.101-2.7168c0-.7956.025-1.5911.076-2.3867.05-.8125.127-1.6758.228-2.5899-.237 0-.423.0085-.558.0254-.136 0-.246 0-.33 0-.542 0-1.008-.1185-1.397-.3554-.406-.237-.609-.601-.609-1.0918 0-.3047.118-.5756.355-.8125.22-.237.508-.4401.863-.6094.356-.1693.737-.3047 1.143-.4063.423-.1015.821-.1692 1.193-.2031 0-.4739.034-.9987.102-1.5742s.186-1.1087.355-1.5996c.187-.5078.432-.931.737-1.2695.304-.3386.694-.5079 1.168-.5079.271 0 .508.0847.711.2539.22.1524.397.3555.533.6094.135.237.237.5078.305.8125.067.3047.101.6009.101.8887 0 .3385-.025.6855-.076 1.041s-.144.7956-.279 1.3203c.287-.0338.482-.0508.584-.0508.101-.0169.194-.0254.279-.0254.288 0 .584.0254.889.0762.321.0508.609.1354.863.2539.271.1185.491.2793.66.4825.169.1861.254.4147.254.6855 0 .3047-.127.5755-.381.8125-.237.237-.542.4401-.914.6094-.372.1692-.77.3047-1.193.4062-.424.0847-.821.1439-1.194.1778-.101.694-.177 1.3372-.228 1.9296-.034.5756-.076 1.1595-.127 1.752-.034.2878-.068.584-.102.8887-.017.2877-.025.584-.025.8886 0 .2201.008.4825.025.7871.017.2878.076.5671.178.8379.102.2709.262.5079.482.711.22.1862.525.2793.914.2793.237 0 .483-.017.737-.0508.254-.0508.508-.0762.762-.0762.44 0 .753.1524.939.4571.203.3046.305.694.305 1.1679 0 .3555-.11.6686-.33.9395-.204.2539-.466.457-.788.6093-.321.1693-.685.2963-1.091.3809-.39.0846-.762.127-1.118.127z" fill="#e3000b"/><path d="m2.09805 126.152c-1.464761-.774-2.0244342-2.589-1.250066-4.054.774366-1.465 2.589536-2.025 4.054296-1.25zm148.81895-14.247c1.624.328 2.675 1.91 2.348 3.534l-5.341 26.467c-.328 1.624-1.91 2.675-3.534 2.347s-2.675-1.91-2.347-3.534l4.747-23.526-23.526-4.747c-1.624-.328-2.675-1.91-2.347-3.534.327-1.624 1.91-2.675 3.534-2.348zm-146.01472 8.943c38.69532 20.457 68.59462 22.176 91.67122 17.018 23.2075-5.187 39.8125-17.364 52.0905-25.519l3.32 4.998c-12.046 8.001-29.603 20.901-54.1016 26.377-24.6294 5.505-55.98 3.473-95.78435-17.57z" fill="#fff"/></svg>