<svg fill="none" height="190" viewBox="0 0 364 190" width="364" xmlns="http://www.w3.org/2000/svg"><path d="m52.9245 122.6c-.8666 0-1.7333-.127-2.6-.38-.8533-.253-1.5466-.58-2.08-.98l1.12-2.24c.28.187.5867.347.92.48.3467.147.7067.26 1.08.34.3734.08.7534.12 1.14.12.68 0 1.2334-.1 1.66-.3.4267-.2.7467-.507.96-.92.2134-.4.32-.907.32-1.52v-1.78l.62.1c-.0933.44-.3266.84-.7 1.2-.36.36-.8066.653-1.34.88-.5333.213-1.1.32-1.7.32-.96 0-1.82-.22-2.58-.66-.7466-.453-1.34-1.073-1.78-1.86-.4266-.8-.64-1.72-.64-2.76 0-1.067.2134-2.007.64-2.82.4267-.827 1.0134-1.473 1.76-1.94.7467-.48 1.5867-.72 2.52-.72.4 0 .78.047 1.14.14.3734.093.7134.22 1.02.38.32.147.6.327.84.54.2534.2.4534.42.6.66.16.24.2667.487.32.74l-.66.16.12-2.4h3.04v9.76c0 .867-.1333 1.633-.4 2.3-.2533.68-.6333 1.253-1.14 1.72-.4933.48-1.0933.84-1.8 1.08-.7066.24-1.5066.36-2.4.36zm.08-7.16c.52 0 .9667-.113 1.34-.34.3867-.24.68-.567.88-.98.2134-.413.32-.9.32-1.46s-.1066-1.047-.32-1.46c-.2-.427-.4933-.753-.88-.98-.3733-.24-.82-.36-1.34-.36-.5066 0-.9466.12-1.32.36-.3733.227-.6666.553-.88.98-.2.413-.3.9-.3 1.46s.1 1.047.3 1.46c.2134.413.5067.74.88.98.3734.227.8134.34 1.32.34zm8.4389 2.56v-10.62h3.04l.14 3.46-.6-.66c.16-.573.42-1.087.78-1.54.3734-.453.8067-.813 1.3-1.08.4934-.267 1.02-.4 1.58-.4.24 0 .46.02.66.06.2134.04.4067.087.58.14l-.88 3.54c-.1466-.093-.3466-.167-.6-.22-.24-.067-.4933-.1-.76-.1-.2933 0-.5666.053-.82.16-.2533.093-.4666.233-.64.42-.1733.187-.3133.407-.42.66-.0933.253-.14.54-.14.86v5.32zm12.5724.18c-.8934 0-1.6934-.233-2.4-.7-.6934-.48-1.2467-1.133-1.66-1.96-.4134-.84-.62-1.787-.62-2.84 0-1.08.2066-2.033.62-2.86.4133-.827.98-1.473 1.7-1.94.72-.48 1.54-.72 2.46-.72.5066 0 .9666.073 1.38.22.4266.147.8.353 1.12.62.32.253.5933.553.82.9.2266.333.3933.693.5 1.08l-.66-.08v-2.52h3.18v10.62h-3.24v-2.56l.72-.02c-.1067.373-.28.727-.52 1.06s-.5334.627-.88.88c-.3467.253-.7334.453-1.16.6-.4267.147-.88.22-1.36.22zm.88-2.7c.4933 0 .92-.113 1.28-.34s.64-.547.84-.96c.2-.427.3-.927.3-1.5s-.1-1.067-.3-1.48c-.2-.427-.48-.753-.84-.98-.36-.24-.7867-.36-1.28-.36-.48 0-.9.12-1.26.36-.3467.227-.62.553-.82.98-.2.413-.3.907-.3 1.48s.1 1.073.3 1.5c.2.413.4733.733.82.96.36.227.78.34 1.26.34zm-2.3-9.5-1.16-1 2.88-2.58h1.92l2.88 2.58-1.16 1-2.98-1.72h.6zm15.3436 12.22c-1.0267 0-1.9467-.24-2.76-.72-.8134-.48-1.46-1.133-1.94-1.96-.4667-.84-.7-1.787-.7-2.84s.2333-1.993.7-2.82c.48-.84 1.1266-1.5 1.94-1.98.8133-.48 1.7333-.72 2.76-.72.9466 0 1.8133.167 2.6.5.8.333 1.4333.8 1.9 1.4l-1.74 2.08c-.1867-.213-.4067-.413-.66-.6-.2534-.187-.5334-.333-.84-.44-.3067-.107-.6267-.16-.96-.16-.5067 0-.9534.12-1.34.36-.3867.227-.6867.547-.9.96-.2134.413-.32.887-.32 1.42 0 .507.1066.967.32 1.38.2266.413.5333.74.92.98.3866.24.8266.36 1.32.36.3466 0 .6666-.04.96-.12.2933-.093.56-.227.8-.4.2533-.173.4866-.387.7-.64l1.72 2.1c-.4534.573-1.0867 1.027-1.9 1.36-.8.333-1.66.5-2.58.5zm11.2984 0c-1.1733 0-2.1933-.233-3.06-.7-.8667-.48-1.54-1.127-2.02-1.94-.48-.827-.72-1.767-.72-2.82 0-.813.1333-1.56.4-2.24s.64-1.267 1.12-1.76c.48-.507 1.0467-.893 1.7-1.16.6667-.28 1.3933-.42 2.18-.42.7467 0 1.4262.133 2.0402.4.626.267 1.166.64 1.62 1.12.453.48.8 1.047 1.04 1.7s.346 1.367.32 2.14l-.02.86h-8.4602l-.46-1.8h6.3202l-.34.38v-.4c-.027-.333-.134-.627-.32-.88-.174-.267-.407-.473-.7002-.62-.2933-.147-.6267-.22-1-.22-.52 0-.9667.107-1.34.32-.36.2-.6333.5-.82.9-.1867.387-.28.867-.28 1.44 0 .587.12 1.1.36 1.54.2533.427.6133.76 1.08 1 .48.24 1.0467.36 1.7.36.4532 0 .8532-.067 1.2002-.2.36-.133.746-.36 1.16-.68l1.5 2.12c-.414.36-.854.653-1.32.88-.467.227-.947.393-1.44.5-.48.12-.9602.18-1.4402.18zm16.9852-.02c-.894 0-1.694-.233-2.4-.7-.694-.48-1.247-1.133-1.66-1.96-.414-.84-.62-1.787-.62-2.84 0-1.08.206-2.033.62-2.86.413-.827.98-1.473 1.7-1.94.72-.48 1.54-.72 2.46-.72.506 0 .966.073 1.38.22.426.147.8.353 1.12.62.32.253.593.553.82.9.226.333.393.693.5 1.08l-.66-.08v-2.52h3.18v10.62h-3.24v-2.56l.72-.02c-.107.373-.28.727-.52 1.06s-.534.627-.88.88c-.347.253-.734.453-1.16.6-.427.147-.88.22-1.36.22zm.88-2.7c.493 0 .92-.113 1.28-.34s.64-.547.84-.96c.2-.427.3-.927.3-1.5s-.1-1.067-.3-1.48c-.2-.427-.48-.753-.84-.98-.36-.24-.787-.36-1.28-.36-.48 0-.9.12-1.26.36-.347.227-.62.553-.82.98-.2.413-.3.907-.3 1.48s.1 1.073.3 1.5c.2.413.473.733.82.96.36.227.78.34 1.26.34zm1.56-9.28-4.1-2.2 1.46-2.08 3.58 2.84zm16.85 12.02c-.787 0-1.46-.167-2.02-.5-.547-.347-.974-.84-1.28-1.48-.294-.64-.44-1.407-.44-2.3v-6.56h3.22v6.12c0 .427.066.793.2 1.1.133.307.333.547.6.72.266.16.586.24.96.24.28 0 .533-.047.76-.14.24-.093.44-.22.6-.38.173-.173.306-.367.4-.58.093-.227.14-.473.14-.74v-6.34h3.22v10.62h-3.02l-.14-2.18.6-.24c-.16.507-.427.96-.8 1.36-.374.387-.82.7-1.34.94-.52.227-1.074.34-1.66.34zm9.212-.22v-10.62h3.04l.1 2.16-.64.24c.146-.48.406-.913.78-1.3.386-.4.846-.72 1.38-.96.533-.24 1.093-.36 1.68-.36.8 0 1.473.167 2.02.5.546.32.96.807 1.24 1.46.28.64.42 1.427.42 2.36v6.52h-3.22v-6.26c0-.427-.06-.78-.18-1.06s-.307-.487-.56-.62c-.24-.147-.54-.213-.9-.2-.28 0-.54.047-.78.14-.24.08-.447.207-.62.38-.174.16-.314.347-.42.56-.094.213-.14.447-.14.7v6.36h-1.58c-.374 0-.694 0-.96 0-.267 0-.487 0-.66 0zm19.081 0v-10.62h3.04l.1 1.92-.42.02c.16-.347.36-.653.6-.92.254-.267.534-.487.84-.66.32-.187.647-.327.98-.42.347-.093.694-.14 1.04-.14.52 0 .994.08 1.42.24.427.16.8.42 1.12.78.32.347.574.82.76 1.42l-.5-.04.16-.32c.174-.32.394-.607.66-.86.28-.267.587-.487.92-.66.334-.187.68-.327 1.04-.42s.707-.14 1.04-.14c.84 0 1.54.167 2.1.5.56.32.98.807 1.26 1.46.294.653.44 1.447.44 2.38v6.48h-3.22v-6.22c0-.427-.06-.78-.18-1.06s-.3-.487-.54-.62c-.226-.147-.513-.22-.86-.22-.28 0-.54.047-.78.14-.226.093-.426.22-.6.38-.16.16-.286.347-.38.56-.093.213-.14.453-.14.72v6.32h-3.22v-6.24c0-.4-.06-.74-.18-1.02s-.3-.493-.54-.64-.52-.22-.84-.22c-.28 0-.54.047-.78.14-.226.093-.426.22-.6.38-.16.16-.286.347-.38.56-.093.213-.14.447-.14.7v6.34zm24.319.2c-1.174 0-2.194-.233-3.06-.7-.867-.48-1.54-1.127-2.02-1.94-.48-.827-.72-1.767-.72-2.82 0-.813.133-1.56.4-2.24.266-.68.64-1.267 1.12-1.76.48-.507 1.046-.893 1.7-1.16.666-.28 1.393-.42 2.18-.42.746 0 1.426.133 2.04.4.626.267 1.166.64 1.62 1.12.453.48.8 1.047 1.04 1.7s.346 1.367.32 2.14l-.02.86h-8.46l-.46-1.8h6.32l-.34.38v-.4c-.027-.333-.134-.627-.32-.88-.174-.267-.407-.473-.7-.62-.294-.147-.627-.22-1-.22-.52 0-.967.107-1.34.32-.36.2-.634.5-.82.9-.187.387-.28.867-.28 1.44 0 .587.12 1.1.36 1.54.253.427.613.76 1.08 1 .48.24 1.046.36 1.7.36.453 0 .853-.067 1.2-.2.36-.133.746-.36 1.16-.68l1.5 2.12c-.414.36-.854.653-1.32.88-.467.227-.947.393-1.44.5-.48.12-.96.18-1.44.18zm6.838-.2v-10.62h3.2v10.62zm1.6-12.72c-.6 0-1.073-.14-1.42-.42-.333-.293-.5-.707-.5-1.24 0-.48.174-.873.52-1.18.347-.307.814-.46 1.4-.46.6 0 1.067.147 1.4.44.334.28.5.68.5 1.2 0 .493-.173.893-.52 1.2-.333.307-.793.46-1.38.46zm4.627 12.72v-14.8h3.2v14.8zm6.074 0v-14.8h3.2v14.8zm10.919.2c-1.173 0-2.193-.233-3.06-.7-.867-.48-1.54-1.127-2.02-1.94-.48-.827-.72-1.767-.72-2.82 0-.813.133-1.56.4-2.24s.64-1.267 1.12-1.76c.48-.507 1.047-.893 1.7-1.16.667-.28 1.393-.42 2.18-.42.747 0 1.427.133 2.04.4.627.267 1.167.64 1.62 1.12s.8 1.047 1.04 1.7.347 1.367.32 2.14l-.02.86h-8.46l-.46-1.8h6.32l-.34.38v-.4c-.027-.333-.133-.627-.32-.88-.173-.267-.407-.473-.7-.62s-.627-.22-1-.22c-.52 0-.967.107-1.34.32-.36.2-.633.5-.82.9-.187.387-.28.867-.28 1.44 0 .587.12 1.1.36 1.54.253.427.613.76 1.08 1 .48.24 1.047.36 1.7.36.453 0 .853-.067 1.2-.2.36-.133.747-.36 1.16-.68l1.5 2.12c-.413.36-.853.653-1.32.88s-.947.393-1.44.5c-.48.12-.96.18-1.44.18zm10.279.02c-.787 0-1.46-.167-2.02-.5-.547-.347-.973-.84-1.28-1.48-.293-.64-.44-1.407-.44-2.3v-6.56h3.22v6.12c0 .427.067.793.2 1.1s.333.547.6.72c.267.16.587.24.96.24.28 0 .533-.047.76-.14.24-.093.44-.22.6-.38.173-.173.307-.367.4-.58.093-.227.14-.473.14-.74v-6.34h3.22v10.62h-3.02l-.14-2.18.6-.24c-.16.507-.427.96-.8 1.36-.373.387-.82.7-1.34.94-.52.227-1.073.34-1.66.34zm9.212-.22v-10.62h3.04l.14 3.46-.6-.66c.16-.573.42-1.087.78-1.54.373-.453.807-.813 1.3-1.08s1.02-.4 1.58-.4c.24 0 .46.02.66.06.213.04.407.087.58.14l-.88 3.54c-.147-.093-.347-.167-.6-.22-.24-.067-.493-.1-.76-.1-.293 0-.567.053-.82.16-.253.093-.467.233-.64.42s-.313.407-.42.66c-.093.253-.14.54-.14.86v5.32zm-189.5595 25v-13.3h3.2v13.3zm-1.88-7.82v-2.8h7.14v2.8zm12.791 8c-.8933 0-1.6933-.233-2.4-.7-.6933-.48-1.2466-1.133-1.66-1.96-.4133-.84-.62-1.787-.62-2.84 0-1.08.2067-2.033.62-2.86.4134-.827.98-1.473 1.7-1.94.72-.48 1.54-.72 2.46-.72.5067 0 .9667.073 1.38.22.4267.147.8.353 1.12.62.32.253.5934.553.82.9.2267.333.3934.693.5 1.08l-.66-.08v-2.52h3.18v10.62h-3.24v-2.56l.72-.02c-.1066.373-.28.727-.52 1.06s-.5333.627-.88.88c-.3466.253-.7333.453-1.16.6-.4266.147-.88.22-1.36.22zm.88-2.7c.4934 0 .92-.113 1.28-.34s.64-.547.84-.96c.2-.427.3-.927.3-1.5s-.1-1.067-.3-1.48c-.2-.427-.48-.753-.84-.98-.36-.24-.7866-.36-1.28-.36-.48 0-.9.12-1.26.36-.3466.227-.62.553-.82.98-.2.413-.3.907-.3 1.48s.1 1.073.3 1.5c.2.413.4734.733.82.96.36.227.78.34 1.26.34zm11.8083 2.74c-.7866 0-1.46-.167-2.02-.5-.5466-.347-.9733-.84-1.28-1.48-.2933-.64-.44-1.407-.44-2.3v-6.56h3.22v6.12c0 .427.0667.793.2 1.1.1334.307.3334.547.6.72.2667.16.5867.24.96.24.28 0 .5334-.047.76-.14.24-.093.44-.22.6-.38.1734-.173.3067-.367.4-.58.0934-.227.14-.473.14-.74v-6.34h3.22v10.62h-3.02l-.14-2.18.6-.24c-.16.507-.4266.96-.8 1.36-.3733.387-.82.7-1.34.94-.52.227-1.0733.34-1.66.34zm15.7521-.22-2.26-3.42-1.04-1.46-4.2-5.74h3.84l2.18 3.26 1.14 1.56 4.14 5.8zm-7.6 0 4.28-5.96 1.72 2.06-2.22 3.9zm7.02-4.62-1.7-2.04 2.1-3.96h3.78zm16.5951 4.84c-.92 0-1.74-.233-2.46-.7-.707-.48-1.2667-1.133-1.68-1.96-.4133-.84-.62-1.793-.62-2.86s.2067-2.013.62-2.84c.4133-.84.98-1.5 1.7-1.98s1.547-.72 2.48-.72c.48 0 .94.073 1.38.22s.84.347 1.2.6.653.547.88.88c.227.32.36.653.4 1l-.76.18v-6.84h3.22v14.8h-2.98l-.18-2.42.64.1c-.04.333-.173.653-.4.96-.213.307-.493.58-.84.82-.347.227-.747.407-1.2.54-.44.147-.907.22-1.4.22zm.82-2.66c.493 0 .92-.12 1.28-.36s.633-.573.82-1c.2-.427.3-.927.3-1.5 0-.587-.1-1.093-.3-1.52-.187-.427-.46-.76-.82-1s-.787-.36-1.28-.36-.92.12-1.28.36c-.347.24-.62.573-.82 1s-.3.933-.3 1.52c0 .573.1 1.073.3 1.5s.473.76.82 1c.36.24.787.36 1.28.36zm13.306 2.64c-1.173 0-2.193-.233-3.06-.7-.867-.48-1.54-1.127-2.02-1.94-.48-.827-.72-1.767-.72-2.82 0-.813.133-1.56.4-2.24s.64-1.267 1.12-1.76c.48-.507 1.047-.893 1.7-1.16.667-.28 1.393-.42 2.18-.42.747 0 1.427.133 2.04.4.627.267 1.167.64 1.62 1.12s.8 1.047 1.04 1.7.347 1.367.32 2.14l-.02.86h-8.46l-.46-1.8h6.32l-.34.38v-.4c-.027-.333-.133-.627-.32-.88-.173-.267-.407-.473-.7-.62s-.627-.22-1-.22c-.52 0-.967.107-1.34.32-.36.2-.633.5-.82.9-.187.387-.28.867-.28 1.44 0 .587.12 1.1.36 1.54.253.427.613.76 1.08 1 .48.24 1.047.36 1.7.36.453 0 .853-.067 1.2-.2.36-.133.747-.36 1.16-.68l1.5 2.12c-.413.36-.853.653-1.32.88s-.947.393-1.44.5c-.48.12-.96.18-1.44.18zm13.065-.2v-10.62h3.04l.14 3.46-.6-.66c.16-.573.42-1.087.78-1.54.373-.453.807-.813 1.3-1.08s1.02-.4 1.58-.4c.24 0 .46.02.66.06.213.04.407.087.58.14l-.88 3.54c-.147-.093-.347-.167-.6-.22-.24-.067-.493-.1-.76-.1-.293 0-.567.053-.82.16-.253.093-.467.233-.64.42s-.313.407-.42.66c-.093.253-.14.54-.14.86v5.32zm13.712.2c-1.173 0-2.193-.233-3.06-.7-.866-.48-1.54-1.127-2.02-1.94-.48-.827-.72-1.767-.72-2.82 0-.813.134-1.56.4-2.24.267-.68.64-1.267 1.12-1.76.48-.507 1.047-.893 1.7-1.16.667-.28 1.394-.42 2.18-.42.747 0 1.427.133 2.04.4.627.267 1.167.64 1.62 1.12.454.48.8 1.047 1.04 1.7s.347 1.367.32 2.14l-.02.86h-8.46l-.46-1.8h6.32l-.34.38v-.4c-.026-.333-.133-.627-.32-.88-.173-.267-.406-.473-.7-.62-.293-.147-.626-.22-1-.22-.52 0-.966.107-1.34.32-.36.2-.633.5-.82.9-.186.387-.28.867-.28 1.44 0 .587.12 1.1.36 1.54.254.427.614.76 1.08 1 .48.24 1.047.36 1.7.36.454 0 .854-.067 1.2-.2.36-.133.747-.36 1.16-.68l1.5 2.12c-.413.36-.853.653-1.32.88-.466.227-.946.393-1.44.5-.48.12-.96.18-1.44.18zm6.639-.2v-10.62h3.04l.1 1.92-.42.02c.16-.347.36-.653.6-.92.253-.267.533-.487.84-.66.32-.187.647-.327.98-.42.347-.093.693-.14 1.04-.14.52 0 .993.08 1.42.24s.8.42 1.12.78c.32.347.573.82.76 1.42l-.5-.04.16-.32c.173-.32.393-.607.66-.86.28-.267.587-.487.92-.66.333-.187.68-.327 1.04-.42s.707-.14 1.04-.14c.84 0 1.54.167 2.1.5.56.32.98.807 1.26 1.46.293.653.44 1.447.44 2.38v6.48h-3.22v-6.22c0-.427-.06-.78-.18-1.06s-.3-.487-.54-.62c-.227-.147-.513-.22-.86-.22-.28 0-.54.047-.78.14-.227.093-.427.22-.6.38-.16.16-.287.347-.38.56s-.14.453-.14.72v6.32h-3.22v-6.24c0-.4-.06-.74-.18-1.02s-.3-.493-.54-.64-.52-.22-.84-.22c-.28 0-.54.047-.78.14-.227.093-.427.22-.6.38-.16.16-.287.347-.38.56s-.14.447-.14.7v6.34zm19.258 4.4v-15.02h3.04l.12 2.38-.6-.18c.094-.44.32-.84.68-1.2s.814-.647 1.36-.86c.56-.227 1.147-.34 1.76-.34.907 0 1.714.24 2.42.72.707.467 1.26 1.113 1.66 1.94.414.813.62 1.76.62 2.84 0 1.067-.206 2.013-.62 2.84-.4.827-.96 1.48-1.68 1.96-.706.467-1.52.7-2.44.7-.6 0-1.173-.113-1.72-.34-.546-.227-1.006-.533-1.38-.92-.373-.387-.62-.807-.74-1.26l.74-.28v7.02zm5.54-6.92c.48 0 .9-.113 1.26-.34.36-.24.64-.567.84-.98s.3-.907.3-1.48c0-.56-.1-1.047-.3-1.46-.2-.427-.48-.753-.84-.98-.346-.24-.766-.36-1.26-.36-.493 0-.92.113-1.28.34s-.64.553-.84.98-.3.92-.3 1.48c0 .573.1 1.067.3 1.48s.48.74.84.98c.36.227.787.34 1.28.34zm7.664 2.52v-14.8h3.2v14.8zm6.234 0v-10.62h3.2v10.62zm1.6-12.72c-.6 0-1.073-.14-1.42-.42-.333-.293-.5-.707-.5-1.24 0-.48.173-.873.52-1.18s.813-.46 1.4-.46c.6 0 1.067.147 1.4.44.333.28.5.68.5 1.2 0 .493-.173.893-.52 1.2-.333.307-.793.46-1.38.46zm8.187 12.92c-1.04 0-1.96-.167-2.76-.5-.787-.333-1.413-.78-1.88-1.34l1.94-1.68c.413.413.88.72 1.4.92.52.187 1.013.28 1.48.28.187 0 .353-.02.5-.06s.267-.093.36-.16c.107-.08.187-.167.24-.26.053-.107.08-.227.08-.36 0-.267-.12-.473-.36-.62-.12-.067-.32-.147-.6-.24s-.64-.2-1.08-.32c-.627-.16-1.173-.347-1.64-.56-.453-.227-.827-.487-1.12-.78-.267-.28-.473-.587-.62-.92-.147-.347-.22-.733-.22-1.16 0-.493.113-.94.34-1.34.24-.4.553-.747.94-1.04.4-.293.853-.513 1.36-.66.52-.16 1.053-.24 1.6-.24.587 0 1.147.067 1.68.2s1.027.32 1.48.56c.467.24.88.527 1.24.86l-1.68 1.88c-.24-.227-.513-.427-.82-.6-.293-.187-.6-.333-.92-.44s-.613-.16-.88-.16c-.2 0-.38.02-.54.06-.147.027-.273.08-.38.16-.107.067-.187.153-.24.26-.053.093-.08.207-.08.34s.033.26.1.38c.08.12.187.22.32.3s.347.173.64.28c.293.093.693.213 1.2.36.627.173 1.167.367 1.62.58s.813.467 1.08.76c.213.227.373.493.48.8.107.293.16.613.16.96 0 .68-.193 1.287-.58 1.82-.373.52-.893.933-1.56 1.24-.667.293-1.427.44-2.28.44zm9.902 0c-1.04 0-1.96-.167-2.76-.5-.786-.333-1.413-.78-1.88-1.34l1.94-1.68c.414.413.88.72 1.4.92.52.187 1.014.28 1.48.28.187 0 .354-.02.5-.06.147-.04.267-.093.36-.16.107-.08.187-.167.24-.26.054-.107.08-.227.08-.36 0-.267-.12-.473-.36-.62-.12-.067-.32-.147-.6-.24s-.64-.2-1.08-.32c-.626-.16-1.173-.347-1.64-.56-.453-.227-.826-.487-1.12-.78-.266-.28-.473-.587-.62-.92-.146-.347-.22-.733-.22-1.16 0-.493.114-.94.34-1.34.24-.4.554-.747.94-1.04.4-.293.854-.513 1.36-.66.52-.16 1.054-.24 1.6-.24.587 0 1.147.067 1.68.2.534.133 1.027.32 1.48.56.467.24.88.527 1.24.86l-1.68 1.88c-.24-.227-.513-.427-.82-.6-.293-.187-.6-.333-.92-.44s-.613-.16-.88-.16c-.2 0-.38.02-.54.06-.146.027-.273.08-.38.16-.106.067-.186.153-.24.26-.053.093-.08.207-.08.34s.034.26.1.38c.08.12.187.22.32.3.134.08.347.173.64.28.294.093.694.213 1.2.36.627.173 1.167.367 1.62.58.454.213.814.467 1.08.76.214.227.374.493.48.8.107.293.16.613.16.96 0 .68-.193 1.287-.58 1.82-.373.52-.893.933-1.56 1.24-.666.293-1.426.44-2.28.44zm10.243-.02c-.894 0-1.694-.233-2.4-.7-.694-.48-1.247-1.133-1.66-1.96-.414-.84-.62-1.787-.62-2.84 0-1.08.206-2.033.62-2.86.413-.827.98-1.473 1.7-1.94.72-.48 1.54-.72 2.46-.72.506 0 .966.073 1.38.22.426.147.8.353 1.12.62.32.253.593.553.82.9.226.333.393.693.5 1.08l-.66-.08v-2.52h3.18v10.62h-3.24v-2.56l.72-.02c-.107.373-.28.727-.52 1.06s-.534.627-.88.88c-.347.253-.734.453-1.16.6-.427.147-.88.22-1.36.22zm.88-2.7c.493 0 .92-.113 1.28-.34s.64-.547.84-.96c.2-.427.3-.927.3-1.5s-.1-1.067-.3-1.48c-.2-.427-.48-.753-.84-.98-.36-.24-.787-.36-1.28-.36-.48 0-.9.12-1.26.36-.347.227-.62.553-.82.98-.2.413-.3.907-.3 1.48s.1 1.073.3 1.5c.2.413.473.733.82.96.36.227.78.34 1.26.34zm13.243 7.12c-.867 0-1.733-.127-2.6-.38-.853-.253-1.547-.58-2.08-.98l1.12-2.24c.28.187.587.347.92.48.347.147.707.26 1.08.34s.753.12 1.14.12c.68 0 1.233-.1 1.66-.3s.747-.507.96-.92c.213-.4.32-.907.32-1.52v-1.78l.62.1c-.093.44-.327.84-.7 1.2-.36.36-.807.653-1.34.88-.533.213-1.1.32-1.7.32-.96 0-1.82-.22-2.58-.66-.747-.453-1.34-1.073-1.78-1.86-.427-.8-.64-1.72-.64-2.76 0-1.067.213-2.007.64-2.82.427-.827 1.013-1.473 1.76-1.94.747-.48 1.587-.72 2.52-.72.4 0 .78.047 1.14.14.373.093.713.22 1.02.38.32.147.6.327.84.54.253.2.453.42.6.66.16.24.267.487.32.74l-.66.16.12-2.4h3.04v9.76c0 .867-.133 1.633-.4 2.3-.253.68-.633 1.253-1.14 1.72-.493.48-1.093.84-1.8 1.08s-1.507.36-2.4.36zm.08-7.16c.52 0 .967-.113 1.34-.34.387-.24.68-.567.88-.98.213-.413.32-.9.32-1.46s-.107-1.047-.32-1.46c-.2-.427-.493-.753-.88-.98-.373-.24-.82-.36-1.34-.36-.507 0-.947.12-1.32.36-.373.227-.667.553-.88.98-.2.413-.3.9-.3 1.46s.1 1.047.3 1.46c.213.413.507.74.88.98.373.227.813.34 1.32.34zm13.499 2.76c-1.173 0-2.193-.233-3.06-.7-.867-.48-1.54-1.127-2.02-1.94-.48-.827-.72-1.767-.72-2.82 0-.813.133-1.56.4-2.24s.64-1.267 1.12-1.76c.48-.507 1.047-.893 1.7-1.16.667-.28 1.393-.42 2.18-.42.747 0 1.427.133 2.04.4.627.267 1.167.64 1.62 1.12s.8 1.047 1.04 1.7.347 1.367.32 2.14l-.02.86h-8.46l-.46-1.8h6.32l-.34.38v-.4c-.027-.333-.133-.627-.32-.88-.173-.267-.407-.473-.7-.62s-.627-.22-1-.22c-.52 0-.967.107-1.34.32-.36.2-.633.5-.82.9-.187.387-.28.867-.28 1.44 0 .587.12 1.1.36 1.54.253.427.613.76 1.08 1 .48.24 1.047.36 1.7.36.453 0 .853-.067 1.2-.2.36-.133.747-.36 1.16-.68l1.5 2.12c-.413.36-.853.653-1.32.88s-.947.393-1.44.5c-.48.12-.96.18-1.44.18z" fill="#fff"/><path clip-rule="evenodd" d="m43.2895 63.2287s-12.607-38.5501 1.1852-51.9635c30.0991-6.45636 185.7243-5.46443 205.1843 3.1426 2.428 5.4215 9.636 47.8513-3.94 53.9057-14.663 6.5511-65.924 7.6208-202.4295-5.0848z" fill="#fff" fill-rule="evenodd"/><path d="m67.2388 34.2324c-.0508.4401-.1269.8718-.2285 1.2949-.0846.4232-.1946.8041-.3301 1.1426-.1354.3216-.3131.5755-.5332.7617-.2031.2032-.4401.3047-.7109.3047s-.5163-.2116-.7363-.6347c-.2201-.4063-.4317-.948-.6348-1.625-.1862-.694-.3639-1.4727-.5332-2.336-.1523-.8633-.2962-1.735-.4316-2.6152-.1185-.8971-.2201-1.7689-.3047-2.6152-.0847-.8464-.1524-1.5827-.2032-2.209-.1015.6432-.22 1.3626-.3554 2.1582-.1354.7955-.2962 1.608-.4824 2.4375-.1862.8125-.3894 1.6165-.6094 2.4121-.2201.7786-.4571 1.4811-.711 2.1074-.2539.6094-.5247 1.1003-.8125 1.4727-.2877.3724-.5924.5586-.914.5586-.2878 0-.5755-.1947-.8633-.584-.2878-.3894-.5671-.8972-.8379-1.5235-.2708-.6432-.5247-1.3541-.7617-2.1328-.237-.7786-.457-1.5573-.6602-2.3359-.2031-.7956-.3808-1.5404-.5332-2.2344-.1523-.7109-.2708-1.3034-.3554-1.7773 0 .3554-.0085.7532-.0254 1.1933v.9141c0 .0846-.0085.3639-.0254.8379 0 .4739-.0254 1.041-.0762 1.7011-.0508.6602-.1269 1.3711-.2285 2.1329-.1016.7448-.2539 1.4388-.457 2.082-.1862.6432-.4232 1.1849-.711 1.625-.2877.4401-.6432.6771-1.0664.7109-.3385-.1523-.6263-.4062-.8633-.7617-.22-.3724-.4062-.804-.5586-1.2949-.1523-.4909-.2708-1.0156-.3554-1.5742-.0847-.5586-.1524-1.1003-.2032-1.625-.0507-.5417-.0846-1.041-.1015-1.4981 0-.457 0-.8294 0-1.1172 0-.5078.0254-1.1425.0762-1.9043.0677-.7786.1692-1.5911.3046-2.4375.1355-.8463.3132-1.6927.5332-2.539.2201-.8464.4825-1.5996.7872-2.2598.3216-.6771.6855-1.2272 1.0918-1.6504.4231-.4232.9056-.6347 1.4472-.6347.2539 0 .5248.1438.8125.4316.2878.2878.5755.6686.8633 1.1426.2878.457.5671.9733.8379 1.5488s.5247 1.1595.7617 1.752c.2539.5755.474 1.1341.6602 1.6757.1862.5248.3385.9733.457 1.3457.1354-.4062.3047-.8802.5078-1.4218.2031-.5417.4232-1.1003.6602-1.6758.2539-.5925.5247-1.168.8125-1.7266.3047-.5755.6178-1.0833.9394-1.5234.3216-.457.6433-.821.9649-1.0918.3385-.2878.677-.4317 1.0156-.4317.5924 0 1.1003.2201 1.5234.6602.4232.4401.7787 1.0156 1.0664 1.7266.2878.694.5163 1.4811.6856 2.3613.1693.8633.2962 1.7266.3808 2.5898.1016.8464.1608 1.642.1778 2.3868.0338.7447.0508 1.3457.0508 1.8027v.7617c0 .3216-.0085.6856-.0254 1.0918 0 .4063-.017.8379-.0508 1.2949-.0339.4571-.0762.9141-.127 1.3711zm6.8301 3.5039c-.8633 0-1.6165-.2285-2.2598-.6855-.6432-.457-1.1849-1.041-1.625-1.752-.4401-.7109-.7701-1.498-.9902-2.3613-.22-.8802-.3301-1.7435-.3301-2.5898 0-.8972.1101-1.8197.3301-2.7676.2201-.9649.5586-1.8366 1.0156-2.6153.4571-.7955 1.041-1.4388 1.752-1.9296.7109-.5079 1.5573-.7618 2.539-.7618.948 0 1.752.2624 2.4122.7871.677.5079 1.2187 1.1511 1.625 1.9297.4062.7618.694 1.5996.8632 2.5137.1693.9141.2286 1.7773.1778 2.5899-.0508.8971-.1947 1.8027-.4317 2.7167-.22.9141-.5501 1.7351-.9902 2.4629-.4401.7279-.9987 1.3204-1.6758 1.7774s-1.4811.6855-2.4121.6855zm.2539-11.4765c-.2539 0-.4824.1354-.6855.4062-.1862.2708-.347.6009-.4825.9902-.1184.3894-.2115.8041-.2793 1.2442-.0677.4232-.1015.7956-.1015 1.1172 0 .4062.0338.8463.1015 1.3203.0847.4739.1947.9141.3301 1.3203.1354.3893.2963.7194.4824.9902.2032.2539.4317.3809.6856.3809.2708 0 .4993-.127.6855-.3809.2032-.2539.364-.5755.4825-.9648s.2031-.8125.2539-1.2695c.0508-.474.0761-.9141.0761-1.3203 0-.3724-.0338-.7787-.1015-1.2188-.0677-.457-.1693-.8802-.3047-1.2695-.1185-.3894-.2793-.711-.4824-.9649-.1862-.2539-.4063-.3808-.6602-.3808zm10.7402-6.9825c0 .237-.0677.4486-.2031.6348-.1185.1862-.2793.3555-.4824.5078-.2031.1354-.4232.2455-.6602.3301-.2369.0677-.457.1016-.6601.1016-.3386 0-.6348-.0847-.8887-.2539-.2539-.1693-.3808-.4317-.3808-.7872 0-.2539.0592-.4739.1777-.6601.1354-.2031.2962-.3639.4824-.4824.1862-.1354.3978-.237.6348-.3047s.4655-.1016.6855-.1016c.3216 0 .6179.0762.8887.2285.2708.1524.4062.4147.4062.7871zm.2032 8.6329v.7617c0 .2539-.0085.4993-.0254.7363-.0169.2878-.0254.6771-.0254 1.168 0 .4739-.0169.9902-.0508 1.5488-.0338.5586-.0931 1.1257-.1777 1.7012-.0677.5755-.1862 1.1002-.3555 1.5742-.1693.4739-.3978.8633-.6855 1.168-.2709.2877-.6179.4401-1.0411.457-.3216.0169-.5924-.11-.8125-.3809-.22-.2708-.4062-.6178-.5585-1.041-.1355-.4401-.237-.9225-.3047-1.4473-.0677-.5416-.1185-1.0579-.1524-1.5488-.0338-.5078-.0508-.9733-.0508-1.3965 0-.4231 0-.7363 0-.9394 0-.2708 0-.6517 0-1.1426 0-.5078.017-1.0495.0508-1.625.0339-.5755.0931-1.1595.1778-1.7519.1015-.5925.2369-1.1342.4062-1.625.1862-.4909.4232-.8887.7109-1.1934.2878-.3047.6517-.457 1.0918-.457.4571 0 .8041.2285 1.0411.6855.2369.457.4147.9902.5332 1.5996.1184.6094.1862 1.2188.2031 1.8281.0169.5925.0254 1.0326.0254 1.3204zm9.0136 9.8007c-.2877 0-.5162-.1354-.6855-.4062-.1693-.2539-.2962-.5501-.3809-.8887-.0846-.3385-.1438-.6771-.1777-1.0156-.0169-.3555-.0254-.6263-.0254-.8125 0-.5078.0254-1.0156.0762-1.5234.0677-.5079.1354-1.0157.2031-1.5235.0846-.5078.1524-1.0156.2031-1.5234.0677-.5078.1016-1.0156.1016-1.5235 0-.2031-.0085-.4231-.0254-.6601s-.0592-.457-.1269-.6602c-.0508-.22-.1439-.3978-.2793-.5332-.1355-.1354-.3132-.2031-.5332-.2031-.1524 0-.3217.127-.5079.3809-.1862.2369-.3639.5162-.5332.8378-.1523.3047-.2877.6179-.4062.9395-.1016.3047-.1524.5332-.1524.6855v1.1426c.017.3724.0254.7533.0254 1.1426v1.4727c-.0169.3047-.0423.6178-.0761.9394-.0339.3216-.0847.6348-.1524.9395-.0508.3047-.1269.6009-.2285.8886-.1016.2709-.237.5163-.4062.7364-.1524.2031-.3386.3724-.5586.5078-.2201.1354-.4825.2031-.7871.2031-.3386 0-.6179-.11-.8379-.3301-.2201-.22-.3978-.4993-.5332-.8379-.1355-.3554-.237-.7448-.3047-1.1679-.0508-.4401-.0931-.8633-.127-1.2696-.0169-.4231-.0254-.804-.0254-1.1425.017-.3555.0254-.6348.0254-.8379v-1.1934c0-.6432-.0169-1.278-.0508-1.9043-.0169-.6263-.0254-1.2526-.0254-1.8789 0-.3385 0-.7702 0-1.2949.017-.5248.0847-1.0326.2032-1.5235.1185-.5078.3131-.9394.584-1.2949.2708-.3554.6686-.5332 1.1933-.5332.237 0 .4486.0762.6348.2285.1862.1524.347.3386.4824.5586.1523.2201.2708.4571.3555.711.1015.2539.1777.4739.2285.6601.1693-.237.3639-.4655.584-.6855.237-.2201.4993-.4147.7871-.584.2877-.1693.6094-.3047.9648-.4063.3555-.1015.7617-.1523 1.2188-.1523.8633 0 1.5319.2116 2.0058.6348.4909.4062.8464.9225 1.0664 1.5488.237.6094.3809 1.2695.4317 1.9805.0508.7109.0762 1.3541.0762 1.9297 0 .2877-.0254.7194-.0762 1.2949-.0508.5586-.1354 1.1849-.2539 1.8789-.1016.6771-.2455 1.3795-.4317 2.1074-.1862.7109-.4062 1.3626-.6601 1.9551-.2539.5924-.5586 1.0748-.9141 1.4472-.3385.3724-.7278.5586-1.168.5586zm12.3652-14.6757c0 .4908-.169.8548-.508 1.0918-.321.2369-.685.4654-1.092.6855-.406.2031-.778.4486-1.117.7363-.321.2878-.482.7194-.482 1.295 0 .3046.068.567.203.7871.152.22.33.4231.533.6093.22.1693.457.347.711.5332s.483.3978.686.6348c.22.237.397.5247.533.8633.152.3385.228.7532.228 1.2441 0 .711-.186 1.4134-.558 2.1074-.356.6771-.821 1.2865-1.397 1.8282-.558.5247-1.193.9479-1.904 1.2695s-1.413.4824-2.107.4824c-.288 0-.5759-.0254-.8637-.0761-.2877-.0339-.5501-.1101-.7871-.2286-.22-.1185-.4062-.2793-.5586-.4824-.1523-.22-.2285-.4993-.2285-.8379 0-.4739.0931-.8379.2793-1.0918.1862-.2708.4232-.4824.7109-.6347.2878-.1524.5925-.2709.9141-.3555.3386-.0846.6516-.1862.9396-.3047.288-.1354.525-.3047.711-.5078s.279-.4909.279-.8633c0-.3555-.144-.7194-.432-1.0918-.27-.3893-.575-.7956-.914-1.2187-.338-.4401-.6513-.9056-.9391-1.3965-.2708-.4909-.4062-1.0326-.4062-1.625 0-.7279.1439-1.3965.4316-2.0059.3047-.6263.7027-1.1679 1.1937-1.625.507-.457 1.083-.8125 1.726-1.0664.643-.2708 1.321-.4062 2.031-.4062.271 0 .534.0254.788.0761.27.0508.507.1439.711.2793.203.1185.363.2878.482.5078.135.2032.203.4655.203.7872zm18.078-2.7422c0 1.2356-.051 2.4629-.152 3.6816-.085 1.2188-.127 2.446-.127 3.6816 0 .9987.025 1.989.076 2.9708.068.9817.102 1.972.102 2.9707 0 .2708-.009.6009-.026.9902-.017.3724-.076.7363-.177 1.0918-.085.3555-.237.6601-.458.9141-.203.2539-.499.3808-.888.3808-.508 0-.931-.1862-1.27-.5586-.321-.3893-.524-.8209-.609-1.2949-.322.6094-.787 1.1256-1.397 1.5488-.609.4232-1.269.6348-1.98.6348-.762 0-1.422-.2624-1.981-.7871-.541-.5248-.998-1.1595-1.371-1.9043-.355-.7448-.626-1.5235-.812-2.336-.169-.8125-.254-1.5149-.254-2.1074 0-.4232.025-.9056.076-1.4472.051-.5417.136-1.0918.254-1.6504.135-.5586.305-1.1003.508-1.625.203-.5417.457-1.0241.762-1.4473.321-.4232.694-.7617 1.117-1.0156.44-.2539.939-.3809 1.498-.3809.609 0 1.193.1777 1.752.5332.558.3555.982.7956 1.269 1.3203l.229-4.0371c.017-.3216.042-.694.076-1.1172.034-.4401.102-.8548.203-1.2441.119-.3893.296-.7194.533-.9902.237-.2709.584-.4063 1.041-.4063.491 0 .872.1185 1.143.3555s.465.5416.584.914c.135.3555.211.7448.228 1.168.034.4232.051.821.051 1.1934zm-4.138 11.2734c0-.3893-.009-.7702-.026-1.1426s-.017-.7532 0-1.1426c-.101-.22-.22-.457-.355-.7109-.136-.2708-.305-.5163-.508-.7363-.186-.237-.398-.4317-.635-.584s-.491-.2285-.762-.2285c-.304 0-.55.0931-.736.2793s-.322.4147-.406.6855c-.085.2539-.144.5332-.178.8379-.017.3047-.025.5671-.025.7871 0 .2032.017.5078.05.9141.034.3893.094.7871.178 1.1934.102.4062.237.7617.406 1.0664.17.3046.398.457.686.457.22 0 .44-.0423.66-.127.22-.1015.423-.22.61-.3554.203-.1524.389-.3132.558-.4825.186-.1862.347-.3554.483-.5078zm16.453.9141c0 .5755-.187 1.1425-.559 1.7011-.355.5417-.812 1.0326-1.371 1.4727-.542.4232-1.126.7702-1.752 1.041-.626.2539-1.202.3809-1.727.3809-.897 0-1.701-.2201-2.412-.6602-.694-.457-1.278-1.0325-1.752-1.7265-.474-.6941-.837-1.4558-1.091-2.2852-.237-.8464-.356-1.6673-.356-2.4629 0-.8463.119-1.7519.356-2.7168.237-.9648.592-1.8535 1.066-2.666.491-.8125 1.1-1.4896 1.828-2.0313.745-.5416 1.625-.8125 2.641-.8125.575 0 1.125.1016 1.65.3047.525.1862.982.4571 1.371.8125.39.3555.703.7787.94 1.2696.237.4908.355 1.041.355 1.6504 0 .7955-.169 1.5403-.508 2.2343-.338.694-.787 1.2949-1.345 1.8028-.559.5078-1.202.9225-1.93 1.2441-.728.3047-1.473.474-2.234.5078.067.4909.262.8464.584 1.0664.338.2201.736.3301 1.193.3301.338 0 .669-.0846.99-.2539.322-.1693.635-.3555.94-.5586.304-.2201.601-.4147.888-.584.305-.1693.61-.2539.914-.2539.339 0 .644.11.914.3301.271.22.407.5078.407.8633zm-4.114-6.2207c0-.2201-.059-.4486-.177-.6856-.119-.237-.305-.3554-.559-.3554-.372 0-.685.1015-.939.3046-.254.1862-.466.4317-.635.7364-.169.2877-.305.6009-.406.9394-.085.3386-.136.6517-.153.9395.237-.0508.517-.1185.838-.2032.339-.0846.652-.1946.94-.33.304-.1524.558-.3386.761-.5586.22-.2201.33-.4824.33-.7871zm20.668.9902c0 .0846-.008.1777-.025.2793-.017.0846-.042.1693-.076.2539-.153.3893-.39.7194-.711.9902-.322.2539-.703.3809-1.143.3809-.66 0-1.108-.3301-1.345-.9902-.034-.0847-.051-.1778-.051-.2793 0-.1185-.009-.237-.026-.3555v-.7363c-.033-.237-.093-.4232-.177-.5586-.085-.1354-.229-.2032-.432-.2032-.288 0-.567.1862-.838.5586-.254.3555-.482.7872-.685 1.295-.187.4909-.339.9987-.457 1.5234-.119.5247-.178.9479-.178 1.2695 0 .2539.017.5671.051.9395.033.3555.101.7025.203 1.041.101.3385.237.6348.406.8887.186.237.423.3554.711.3554s.55-.0846.787-.2539c.254-.1862.499-.3977.736-.6347.22-.2032.457-.4147.711-.6348.271-.22.576-.3301.914-.3301.424 0 .754.1524.991.4571.253.3046.38.6517.38 1.041 0 .5755-.152 1.1172-.457 1.625-.304.4909-.685.9225-1.142 1.2949-.457.3555-.965.6348-1.524.8379-.558.22-1.091.3301-1.599.3301-.914 0-1.693-.2286-2.336-.6856-.626-.457-1.134-1.0325-1.524-1.7265-.389-.711-.668-1.4812-.837-2.3106-.17-.8294-.254-1.6165-.254-2.3613 0-.8633.118-1.7943.355-2.793.237-1.0156.601-1.9551 1.092-2.8183.491-.8633 1.117-1.5827 1.879-2.1583.778-.5755 1.701-.8632 2.767-.8632.661 0 1.228.1438 1.702.4316.49.2878.888.6686 1.193 1.1426.322.457.558.9733.711 1.5488.169.5755.254 1.1426.254 1.7012v.2539c0 .0846-.009.1693-.026.2539zm12.213 6.1699c0 .3047-.017.7025-.051 1.1934-.016.4909-.084.9733-.203 1.4472-.118.4571-.304.8549-.558 1.1934s-.61.5078-1.067.5078c-.626 0-1.108-.2031-1.447-.6094-.338-.4062-.499-.914-.482-1.5234-.542.474-1.16.8464-1.854 1.1172-.677.2708-1.371.4062-2.082.4062-.491 0-.956-.1184-1.396-.3554s-.83-.5417-1.168-.9141c-.339-.3724-.61-.7871-.813-1.2441-.203-.474-.305-.9395-.305-1.3965 0-.8125.246-1.5234.737-2.1328.508-.6094 1.125-1.1257 1.853-1.5489.728-.4401 1.498-.7871 2.311-1.041.829-.2539 1.566-.4231 2.209-.5078 0-.0846 0-.1608 0-.2285.017-.0677.025-.1439.025-.2285 0-.5248-.144-.9479-.431-1.2695-.288-.3217-.694-.4825-1.219-.4825-.423 0-.787.0762-1.092.2285-.305.1355-.592.2963-.863.4825-.271.1692-.542.3301-.813.4824-.271.1354-.575.2031-.914.2031-.372 0-.694-.1185-.965-.3554-.254-.237-.381-.5417-.381-.9141 0-.5586.161-1.0664.483-1.5235.338-.457.753-.8378 1.244-1.1425.508-.3216 1.05-.5671 1.625-.7364.592-.1862 1.134-.2793 1.625-.2793.457 0 .914.0593 1.371.1778.457.1015.889.2708 1.295.5078.406.22.77.4993 1.092.8379.338.3216.609.7025.812 1.1426.305.6263.55 1.2949.737 2.0058.186.694.33 1.4134.431 2.1582.102.7279.17 1.4642.203 2.209.034.7279.051 1.4388.051 2.1328zm-4.062-.8125-.076-1.7265c-.034 0-.068 0-.102 0-.034-.017-.068-.0254-.102-.0254-.22 0-.499.0592-.837.1777-.322.1016-.635.2539-.94.457-.305.1862-.567.3978-.787.6348-.203.237-.305.4824-.305.7363 0 .237.085.3978.254.4825.169.0846.364.1269.584.1269.373 0 .77-.0931 1.194-.2793.423-.2031.795-.3978 1.117-.584zm20.998-3.9863v1.3203c0 .5417-.017 1.1341-.051 1.7774-.017.6432-.068 1.2949-.152 1.955-.085.6433-.22 1.2272-.407 1.752-.169.5247-.389.9564-.66 1.2949s-.618.5078-1.041.5078c-.372 0-.66-.1523-.863-.457-.186-.3216-.322-.694-.406-1.1172-.085-.4232-.136-.8548-.153-1.2949 0-.4401 0-.7871 0-1.041 0-.7618.026-1.5066.077-2.2344.05-.7279.076-1.4727.076-2.2344 0-.0846 0-.237 0-.457 0-.2201-.017-.4401-.051-.6602-.034-.22-.093-.4147-.178-.584-.068-.1692-.178-.2539-.33-.2539-.305 0-.55.1608-.736.4825-.186.3046-.339.6686-.457 1.0918-.119.4231-.203.8463-.254 1.2695-.051.4062-.085.7109-.102.914-.034.2201-.067.5502-.101.9903-.017.4401-.051.9225-.102 1.4472-.034.5248-.101 1.0664-.203 1.625-.085.5417-.203 1.0411-.355 1.4981-.136.4401-.314.804-.534 1.0918-.22.2877-.491.4316-.812.4316-.406 0-.72-.1777-.94-.5332-.22-.3554-.38-.7702-.482-1.2441-.102-.474-.169-.9564-.203-1.4473-.017-.4909-.026-.8717-.026-1.1426 0-.2877 0-.567 0-.8379.017-.2708.026-.5501.026-.8378 0-.1185 0-.3132 0-.584 0-.2709-.009-.5671-.026-.8887 0-.3385-.016-.6855-.05-1.041-.017-.3555-.051-.6771-.102-.9649-.051-.3046-.127-.5501-.228-.7363-.102-.1862-.22-.2793-.356-.2793-.22 0-.423.1439-.609.4317-.186.2708-.347.6009-.483.9902-.135.3724-.245.7448-.33 1.1172-.067.3724-.101.6432-.101.8125v.1523c0 .8125.05 1.6081.152 2.3867.102.7787.152 1.5743.152 2.3868 0 .4739-.152.914-.457 1.3203-.304.3893-.728.584-1.269.584-.389 0-.711-.1439-.965-.4317-.254-.3047-.466-.694-.635-1.168-.169-.4739-.304-.9902-.406-1.5488-.085-.5755-.144-1.1341-.178-1.6758-.034-.5586-.059-1.0579-.076-1.498 0-.457 0-.7956 0-1.0156 0-.2539-.008-.6263-.025-1.1172 0-.4909.008-1.0241.025-1.5996.034-.5755.085-1.1595.152-1.752.068-.6094.178-1.1595.33-1.6504.153-.4909.347-.8886.584-1.1933.254-.3216.576-.4825.965-.4825.44 0 .796.1185 1.067.3555.287.237.431.5925.431 1.0664 0 .1016-.008.2031-.025.3047 0 .1016-.008.1947-.025.2793.186-.2708.414-.5417.685-.8125.271-.2878.559-.5417.863-.7617.322-.237.661-.4232 1.016-.5586.356-.1523.711-.2285 1.066-.2285.339 0 .644.0931.915.2793.27.1862.507.4232.71.7109.204.2708.373.5671.508.8887.136.3216.229.6263.28.914.169-.3046.372-.6093.609-.914.254-.3216.525-.6009.812-.8379.288-.237.601-.4316.94-.584.355-.1523.719-.2285 1.092-.2285.355 0 .66.1269.914.3809.254.2539.474.5839.66.9902.186.3893.33.8379.432 1.3457.101.4909.186.9818.253 1.4726.068.474.11.9226.127 1.3457.017.4063.026.7279.026.9649zm5.865-9.3438c0 .237-.068.4486-.203.6348-.119.1862-.279.3555-.483.5078-.203.1354-.423.2455-.66.3301-.237.0677-.457.1016-.66.1016-.338 0-.635-.0847-.889-.2539-.253-.1693-.38-.4317-.38-.7872 0-.2539.059-.4739.177-.6601.136-.2031.297-.3639.483-.4824.186-.1354.398-.237.635-.3047s.465-.1016.685-.1016c.322 0 .618.0762.889.2285.271.1524.406.4147.406.7871zm.203 8.6329v.7617c0 .2539-.008.4993-.025.7363-.017.2878-.026.6771-.026 1.168 0 .4739-.017.9902-.05 1.5488-.034.5586-.094 1.1257-.178 1.7012-.068.5755-.186 1.1002-.356 1.5742-.169.4739-.397.8633-.685 1.168-.271.2877-.618.4401-1.041.457-.322.0169-.593-.11-.813-.3809-.22-.2708-.406-.6178-.558-1.041-.136-.4401-.237-.9225-.305-1.4473-.068-.5416-.118-1.0579-.152-1.5488-.034-.5078-.051-.9733-.051-1.3965 0-.4231 0-.7363 0-.9394 0-.2708 0-.6517 0-1.1426 0-.5078.017-1.0495.051-1.625s.093-1.1595.177-1.7519c.102-.5925.237-1.1342.407-1.625.186-.4909.423-.8887.711-1.1934.287-.3047.651-.457 1.091-.457.457 0 .804.2285 1.041.6855s.415.9902.534 1.5996c.118.6094.186 1.2188.203 1.8281.017.5925.025 1.0326.025 1.3204zm6.627 9.8261c-.863 0-1.616-.2285-2.26-.6855-.643-.457-1.185-1.041-1.625-1.752-.44-.7109-.77-1.498-.99-2.3613-.22-.8802-.33-1.7435-.33-2.5898 0-.8972.11-1.8197.33-2.7676.22-.9649.559-1.8366 1.016-2.6153.457-.7955 1.041-1.4388 1.752-1.9296.711-.5079 1.557-.7618 2.539-.7618.948 0 1.752.2624 2.412.7871.677.5079 1.219 1.1511 1.625 1.9297.406.7618.694 1.5996.863 2.5137s.229 1.7773.178 2.5899c-.051.8971-.195 1.8027-.432 2.7167-.22.9141-.55 1.7351-.99 2.4629-.44.7279-.999 1.3204-1.676 1.7774s-1.481.6855-2.412.6855zm.254-11.4765c-.254 0-.482.1354-.686.4062-.186.2708-.347.6009-.482.9902-.118.3894-.212.8041-.279 1.2442-.068.4232-.102.7956-.102 1.1172 0 .4062.034.8463.102 1.3203.084.4739.194.9141.33 1.3203.135.3893.296.7194.482.9902.203.2539.432.3809.686.3809.271 0 .499-.127.685-.3809.203-.2539.364-.5755.483-.9648.118-.3893.203-.8125.254-1.2695.05-.474.076-.9141.076-1.3203 0-.3724-.034-.7787-.102-1.2188-.067-.457-.169-.8802-.304-1.2695-.119-.3894-.28-.711-.483-.9649-.186-.2539-.406-.3808-.66-.3808zm13.762 11.4511c-.288 0-.517-.1354-.686-.4062-.169-.2539-.296-.5501-.381-.8887-.084-.3385-.144-.6771-.177-1.0156-.017-.3555-.026-.6263-.026-.8125 0-.5078.026-1.0156.076-1.5234.068-.5079.136-1.0157.203-1.5235.085-.5078.153-1.0156.204-1.5234.067-.5078.101-1.0156.101-1.5235 0-.2031-.008-.4231-.025-.6601s-.059-.457-.127-.6602c-.051-.22-.144-.3978-.279-.5332-.136-.1354-.314-.2031-.534-.2031-.152 0-.321.127-.507.3809-.187.2369-.364.5162-.534.8378-.152.3047-.287.6179-.406.9395-.101.3047-.152.5332-.152.6855v1.1426c.017.3724.025.7533.025 1.1426v1.4727c-.017.3047-.042.6178-.076.9394s-.085.6348-.152.9395c-.051.3047-.127.6009-.229.8886-.101.2709-.237.5163-.406.7364-.153.2031-.339.3724-.559.5078s-.482.2031-.787.2031c-.338 0-.618-.11-.838-.3301-.22-.22-.398-.4993-.533-.8379-.135-.3554-.237-.7448-.305-1.1679-.05-.4401-.093-.8633-.127-1.2696-.017-.4231-.025-.804-.025-1.1425.017-.3555.025-.6348.025-.8379v-1.1934c0-.6432-.017-1.278-.05-1.9043-.017-.6263-.026-1.2526-.026-1.8789 0-.3385 0-.7702 0-1.2949.017-.5248.085-1.0326.203-1.5235.119-.5078.313-.9394.584-1.2949.271-.3554.669-.5332 1.194-.5332.237 0 .448.0762.634.2285.187.1524.347.3386.483.5586.152.2201.271.4571.355.711.102.2539.178.4739.229.6601.169-.237.364-.4655.584-.6855.237-.2201.499-.4147.787-.584s.609-.3047.965-.4063c.355-.1015.762-.1523 1.219-.1523.863 0 1.531.2116 2.005.6348.491.4062.847.9225 1.067 1.5488.237.6094.381 1.2695.431 1.9805.051.7109.077 1.3541.077 1.9297 0 .2877-.026.7194-.077 1.2949-.05.5586-.135 1.1849-.253 1.8789-.102.6771-.246 1.3795-.432 2.1074-.186.7109-.406 1.3626-.66 1.9551-.254.5924-.559 1.0748-.914 1.4472-.339.3724-.728.5586-1.168.5586zm12.365-14.6757c0 .4908-.169.8548-.508 1.0918-.321.2369-.685.4654-1.092.6855-.406.2031-.778.4486-1.117.7363-.321.2878-.482.7194-.482 1.295 0 .3046.067.567.203.7871.152.22.33.4231.533.6093.22.1693.457.347.711.5332s.482.3978.686.6348c.22.237.397.5247.533.8633.152.3385.228.7532.228 1.2441 0 .711-.186 1.4134-.558 2.1074-.356.6771-.821 1.2865-1.397 1.8282-.558.5247-1.193.9479-1.904 1.2695s-1.414.4824-2.108.4824c-.287 0-.575-.0254-.863-.0761-.288-.0339-.55-.1101-.787-.2286-.22-.1185-.406-.2793-.559-.4824-.152-.22-.228-.4993-.228-.8379 0-.4739.093-.8379.279-1.0918.186-.2708.423-.4824.711-.6347.288-.1524.593-.2709.914-.3555.339-.0846.652-.1862.94-.3047.287-.1354.524-.3047.711-.5078.186-.2031.279-.4909.279-.8633 0-.3555-.144-.7194-.432-1.0918-.271-.3893-.575-.7956-.914-1.2187-.338-.4401-.651-.9056-.939-1.3965-.271-.4909-.406-1.0326-.406-1.625 0-.7279.143-1.3965.431-2.0059.305-.6263.703-1.1679 1.194-1.625.507-.457 1.083-.8125 1.726-1.0664.643-.2708 1.32-.4062 2.031-.4062.271 0 .534.0254.787.0761.271.0508.508.1439.711.2793.204.1185.364.2878.483.5078.135.2032.203.4655.203.7872zm-163.253 21.4707c0 .998-.041 1.9892-.123 2.9736-.0684.9844-.1026 1.9756-.1026 2.9736 0 .8067.0205 1.6065.0616 2.3994.0547.793.082 1.5928.082 2.3995 0 .2187-.0068.4853-.0205.7998-.0137.3007-.0615.5947-.1436.8818-.0683.2871-.1914.5332-.3691.7383-.1641.2051-.4033.3076-.7178.3076-.4101 0-.7519-.1504-1.0254-.4512-.2597-.3144-.4238-.6631-.4922-1.0459-.2597.4922-.6357.9092-1.1279 1.251s-1.0254.5127-1.5996.5127c-.6152 0-1.1484-.2119-1.5996-.6357-.4375-.4239-.8066-.9366-1.1074-1.5381-.2871-.6016-.5059-1.2305-.6563-1.8868-.1367-.6562-.2051-1.2236-.2051-1.7021 0-.3418.0205-.7314.0616-1.1689.041-.4375.1093-.8819.205-1.3331.1094-.4511.2461-.8886.4102-1.3125.1641-.4375.3691-.8271.6152-1.1689.2598-.3418.5606-.6152.9024-.8203.3554-.2051.7588-.3076 1.2099-.3076.4922 0 .9639.1435 1.4151.4306.4511.2871.7929.6426 1.0254 1.0664l.1845-3.2607c.0137-.2598.0342-.5605.0616-.9023.0273-.3555.082-.6905.164-1.0049.0957-.3145.2393-.5811.4307-.7998.1914-.2188.4717-.3282.8408-.3282.3965 0 .7041.0957.9229.2872.2187.1914.3759.4375.4716.7382.1094.2871.1709.6016.1846.9434.0274.3418.041.6631.041.9639zm-3.3427 9.1054c0-.3144-.0069-.622-.0206-.9228-.0136-.3008-.0136-.6084 0-.9229-.082-.1777-.1777-.3691-.2871-.5742-.1093-.2187-.2461-.417-.4101-.5947-.1504-.1914-.3213-.3487-.5127-.4717s-.3965-.1846-.6153-.1846c-.246 0-.4443.0752-.5947.2256s-.2597.335-.3281.5537c-.0684.2051-.1162.4307-.1436.6768-.0136.2461-.0205.458-.0205.6357 0 .1641.0137.4102.0411.7383.0273.3145.0751.6357.1435.9639.082.3281.1914.6152.3281.8613s.3213.3691.5537.3691c.1778 0 .3555-.0341.5332-.1025.1778-.082.3418-.1777.4922-.2871.1641-.1231.3145-.2529.4512-.3897.1504-.1503.2803-.2871.3897-.4101zm13.289.7383c0 .4649-.1504.9229-.4512 1.374-.2871.4375-.6562.834-1.1074 1.1895-.4375.3418-.9092.6221-1.415.8408-.5059.2051-.9707.3076-1.3945.3076-.7247 0-1.3741-.1777-1.9483-.5332-.5605-.3691-1.0322-.834-1.415-1.3945-.3828-.5606-.6768-1.1758-.8819-1.8457-.1914-.6836-.2871-1.3467-.2871-1.9893 0-.6836.0957-1.415.2871-2.1943s.4785-1.4971.8614-2.1533c.3964-.6563.8886-1.2032 1.4765-1.6407.6016-.4375 1.3125-.6562 2.1328-.6562.4649 0 .9092.082 1.333.2461.4239.1504.793.3691 1.1075.6562.3144.2872.5673.6289.7588 1.0254.1914.3965.2871.8409.2871 1.333 0 .6426-.1368 1.2442-.4102 1.8047-.2734.5606-.6357 1.0459-1.0869 1.4561-.4512.4101-.9707.7451-1.5586 1.0049-.5879.2461-1.1895.3828-1.8047.4101.0547.3965.2119.6836.4717.8613.2734.1778.5947.2667.9639.2667.2734 0 .54-.0684.7998-.2051.2597-.1367.5127-.2871.7588-.4512.246-.1777.4853-.335.7177-.4717.2461-.1367.4922-.2051.7383-.2051.2734 0 .5195.0889.7383.2666.2187.1778.3281.4102.3281.6973zm-3.3223-5.0244c0-.1777-.0478-.3623-.1435-.5537s-.2461-.2871-.4512-.2871c-.3008 0-.5537.082-.7588.2461-.205.1504-.3759.3486-.5127.5947-.1367.2324-.2461.4853-.3281.7588-.0683.2734-.1094.5264-.123.7588.1914-.041.417-.0957.6767-.1641.2735-.0683.5264-.1572.7588-.2666.2461-.123.4512-.2734.6152-.4512.1778-.1777.2666-.3896.2666-.6357zm12.92-3.7529c0 .7382-.0342 1.4834-.1026 2.2353-.0547.7383-.082 1.4834-.082 2.2354 0 .9707.0273 1.9414.082 2.9121.0684.9707.1026 1.9482.1026 2.9326 0 .2461-.0137.5264-.041.8408-.0274.3008-.0957.5811-.2051.8408-.0957.2598-.2461.4786-.4512.6563s-.4785.2666-.8203.2666c-.3281 0-.6152-.1641-.8613-.4922-.2325-.3145-.4307-.7178-.5948-1.21-.1504-.5058-.2802-1.0664-.3896-1.6816-.0957-.6152-.1709-1.21-.2256-1.7842-.041-.5879-.0752-1.1211-.1025-1.5996-.0137-.4922-.0205-.8545-.0205-1.0869 0-.2598.0068-.6357.0205-1.1279.0273-.4922.0752-1.0254.1435-1.5996.0684-.5743.1572-1.1553.2666-1.7432.1231-.6016.2803-1.1416.4717-1.6201.1914-.4922.417-.8887.6768-1.1895.2734-.3144.5947-.4717.9638-.4717.3008 0 .5264.1026.6768.3077.164.1914.2803.4306.3486.7177.0684.2735.1094.5674.1231.8819.0136.3008.0205.5605.0205.7793zm5.455 13.0224c-.6972 0-1.3056-.1845-1.8251-.5537-.5196-.3691-.9571-.8408-1.3125-1.415-.3555-.5742-.6221-1.21-.7999-1.9072-.1777-.711-.2666-1.4083-.2666-2.0918 0-.7247.0889-1.4698.2666-2.2354.1778-.7793.4512-1.4834.8204-2.1123.3691-.6426.8408-1.1621 1.415-1.5586.5742-.4102 1.2578-.6152 2.0508-.6152.7656 0 1.415.2119 1.9482.6357.5469.4102.9844.9297 1.3125 1.5586.3281.6152.5606 1.292.6973 2.0303s.1846 1.4355.1435 2.0918c-.041.7246-.1572 1.456-.3486 2.1943-.1777.7383-.4443 1.4014-.7998 1.9893s-.8066 1.0664-1.3535 1.4355c-.5469.3692-1.1963.5537-1.9483.5537zm.2051-9.2695c-.2051 0-.3896.1094-.5537.3281-.1504.2188-.2803.4854-.3896.7998-.0957.3145-.1709.6494-.2256 1.0049-.0547.3418-.082.6426-.082.9024 0 .3281.0273.6835.082 1.0664.0683.3828.1572.7382.2666 1.0664.1094.3144.2392.581.3896.7998.1641.205.3487.3076.5537.3076.2188 0 .4034-.1026.5538-.3076.164-.2051.2939-.4649.3896-.7793.0957-.3145.1641-.6563.2051-1.0254.041-.3828.0615-.7383.0615-1.0664 0-.3008-.0273-.6289-.082-.9844-.0547-.3691-.1367-.7109-.2461-1.0254-.0957-.3144-.2256-.5742-.3897-.7793-.1504-.2051-.3281-.3076-.5332-.3076zm14.5811 1.6816c0 .6973-.0137 1.3946-.041 2.0918-.0137.6973-.0479 1.3946-.1026 2.0918-.041.6016-.0957 1.2442-.164 1.9278-.0684.6836-.1778 1.3603-.3282 2.0302-.1504.6836-.3486 1.333-.5947 1.9483-.2461.6289-.5742 1.1826-.9844 1.6611-.3964.4785-.8818.8613-1.456 1.1484-.5742.2872-1.2578.4307-2.0508.4307-.3691 0-.7861-.0615-1.251-.1846-.4511-.1093-.8818-.2734-1.292-.4921-.3965-.2188-.7382-.4922-1.0254-.8204-.2734-.3144-.4101-.6836-.4101-1.1074 0-.3144.1094-.6084.3281-.8818.2324-.2598.5264-.3897.8818-.3897.2188 0 .4239.0342.6153.1026.2051.082.4033.1709.5947.2666.2051.0957.3965.1777.5742.2461.1914.082.3828.123.5742.123.5059 0 .9297-.1299 1.2715-.3896.3418-.2461.6153-.5674.8203-.9639.2051-.3828.3555-.8066.4512-1.2715.1094-.4512.1846-.8818.2256-1.292-.2734.3145-.5947.5332-.9639.6563-.3554.1094-.7314.164-1.1279.164-.7246 0-1.3398-.123-1.8457-.3691-.5059-.2598-.916-.6084-1.2305-1.0459-.3144-.4512-.5468-.9707-.6972-1.5586s-.2256-1.2236-.2256-1.9072c0-.4238.041-.9024.123-1.4356.0957-.5332.2324-1.0732.4102-1.6201.1777-.5469.3965-1.0801.6562-1.5996.2735-.5195.5879-.9775.9434-1.374s.7519-.7178 1.1894-.9639c.4512-.2461.9434-.3691 1.4766-.3691.5195 0 .9775.1504 1.374.4511.4102.3008.6494.7247.7178 1.2715.1504-.2871.3486-.5674.5947-.8408.2461-.2871.5469-.4307.9024-.4307.1914 0 .3486.0957.4717.2872.1367.1914.2392.4443.3076.7587.082.3008.1435.6358.1845 1.0049.0411.3555.0684.711.0821 1.0664.0136.3418.0205.6563.0205.9434zm-3.1172 1.333c0-.205-.0342-.4716-.1025-.7998-.0547-.3281-.1436-.6425-.2666-.9433-.1094-.3008-.253-.5606-.4307-.7793-.1777-.2188-.3897-.3281-.6358-.3281-.3144 0-.5947.1093-.8408.3281-.2324.2187-.4306.4853-.5947.7998-.1641.3008-.2939.6289-.3896.9844-.0821.3418-.1231.6357-.1231.8818 0 .1777.0137.417.041.7178.0274.3008.0821.5947.1641.8818.0957.2871.2187.5332.3691.7383s.3487.3076.5948.3076c.3691 0 .6904-.0889.9638-.2666.2735-.1777.499-.4033.6768-.6768.1914-.2734.3349-.5742.4306-.9023s.1436-.6426.1436-.9434zm7.957-8.6543c0 .1915-.055.3624-.164.5127-.096.1504-.226.2872-.39.4102-.164.1094-.341.1982-.533.2666-.191.0547-.369.082-.533.082-.274 0-.513-.0683-.718-.205-.205-.1368-.307-.3487-.307-.6358 0-.2051.047-.3828.143-.5332.109-.1641.239-.2939.39-.3896.15-.1094.321-.1914.512-.2461.192-.0547.376-.0821.554-.0821.26 0 .499.0616.718.1846.219.1231.328.335.328.6357zm.164 6.9727v.6152c0 .2051-.007.4034-.02.5948-.014.2324-.021.5468-.021.9433 0 .3828-.014.7998-.041 1.251s-.075.9092-.143 1.374c-.055.4649-.151.8887-.288 1.2715-.136.3828-.321.6973-.553.9434-.219.2324-.499.3554-.841.3691-.26.0137-.479-.0889-.656-.3076-.178-.2188-.329-.499-.452-.8408-.109-.3555-.191-.7451-.246-1.169-.054-.4375-.0954-.8545-.1227-1.251-.0273-.4101-.041-.7861-.041-1.1279s0-.5947 0-.7588c0-.2187 0-.5263 0-.9228 0-.4102.0137-.8477.041-1.3125.0273-.4649.0747-.9365.1437-1.4151.082-.4785.191-.916.328-1.3125.15-.3964.342-.7177.574-.9638.233-.2461.527-.3692.882-.3692.369 0 .649.1846.841.5537.191.3692.335.7998.431 1.292.095.4922.15.9844.164 1.4766.013.4785.02.834.02 1.0664zm7.465-3.9375c0 .3965-.137.6904-.41.8818-.26.1914-.554.376-.882.5537-.328.1641-.629.3624-.902.5948-.26.2324-.39.581-.39 1.0459 0 .2461.055.458.164.6357.123.1778.267.3418.431.4922.177.1367.369.2803.574.4307s.39.3213.554.5127c.177.1914.321.4238.43.6972.123.2735.185.6084.185 1.0049 0 .5742-.151 1.1416-.451 1.7022-.287.5468-.663 1.039-1.128 1.4765-.451.4239-.964.7656-1.538 1.0254-.575.2598-1.142.3897-1.702.3897-.233 0-.465-.0205-.698-.0616-.232-.0273-.444-.0888-.636-.1845-.177-.0957-.328-.2256-.451-.3897-.123-.1777-.184-.4033-.184-.6767 0-.3828.075-.6768.225-.8819.151-.2187.342-.3896.575-.5127.232-.123.478-.2187.738-.2871.273-.0683.526-.1504.759-.2461.232-.1093.423-.2461.574-.4101.15-.1641.225-.3965.225-.6973 0-.2871-.116-.581-.348-.8818-.219-.3145-.465-.6426-.738-.9844-.274-.3555-.527-.7314-.759-1.1279-.219-.3965-.328-.834-.328-1.3125 0-.5879.116-1.128.348-1.6202.246-.5058.568-.9433.964-1.3125.41-.3691.875-.6562 1.395-.8613.519-.2187 1.066-.3281 1.64-.3281.219 0 .431.0205.636.0615.219.041.41.1162.574.2256.164.0957.294.2324.39.4102.109.164.164.3759.164.6357zm5.599 12.0176c-.971 0-1.73-.1299-2.277-.3897-.533-.2461-.936-.6015-1.21-1.0664-.26-.4648-.417-1.0254-.471-1.6816-.055-.6563-.082-1.3877-.082-2.1944 0-.6425.02-1.2851.061-1.9277.041-.6562.103-1.3535.185-2.0918-.192 0-.342.0069-.452.0205-.109 0-.198 0-.266 0-.438 0-.814-.0957-1.128-.2871-.328-.1914-.492-.4853-.492-.8818 0-.2461.095-.4649.287-.6563.178-.1914.41-.3554.697-.4922.287-.1367.595-.246.923-.3281.342-.082.663-.1367.964-.164 0-.3829.027-.8067.082-1.2715.055-.4649.15-.8955.287-1.292.15-.4102.349-.752.595-1.0254s.56-.4102.943-.4102c.219 0 .41.0684.574.2051.178.1231.322.2871.431.4922.109.1914.191.4102.246.6562.055.2461.082.4854.082.7178 0 .2735-.02.5537-.061.8408-.041.2872-.117.6426-.226 1.0664.232-.0273.39-.041.472-.041.082-.0136.157-.0205.225-.0205.233 0 .472.0205.718.0615.26.0411.492.1094.697.2051.219.0957.397.2256.533.3897.137.1504.206.3349.206.5537 0 .2461-.103.4648-.308.6562-.191.1914-.438.3555-.738.4922-.301.1367-.622.2461-.964.3281-.342.0684-.663.1163-.964.1436-.082.5605-.144 1.0801-.185 1.5586-.027.4648-.061.9365-.102 1.415-.028.2325-.055.4717-.082.7178-.014.2324-.021.4717-.021.7178 0 .1777.007.3896.021.6357.013.2324.061.458.143.6768.082.2187.212.4101.39.5742.178.1504.424.2256.738.2256.192 0 .39-.0137.595-.041.205-.041.41-.0616.615-.0616.356 0 .609.1231.759.3692.164.2461.246.5605.246.9433 0 .2872-.089.5401-.267.7588-.164.2051-.375.3692-.635.4922-.26.1367-.554.2393-.882.3076-.315.0684-.615.1026-.902.1026zm6.48-15.0528c0 .1915-.055.3624-.164.5127-.096.1504-.226.2872-.39.4102-.164.1094-.341.1982-.533.2666-.191.0547-.369.082-.533.082-.274 0-.513-.0683-.718-.205-.205-.1368-.307-.3487-.307-.6358 0-.2051.047-.3828.143-.5332.109-.1641.239-.2939.39-.3896.15-.1094.321-.1914.512-.2461.192-.0547.376-.0821.554-.0821.26 0 .499.0616.718.1846.219.1231.328.335.328.6357zm.164 6.9727v.6152c0 .2051-.007.4034-.02.5948-.014.2324-.021.5468-.021.9433 0 .3828-.014.7998-.041 1.251s-.075.9092-.143 1.374c-.055.4649-.151.8887-.288 1.2715-.136.3828-.321.6973-.553.9434-.219.2324-.499.3554-.841.3691-.26.0137-.479-.0889-.656-.3076-.178-.2188-.329-.499-.452-.8408-.109-.3555-.191-.7451-.246-1.169-.054-.4375-.095-.8545-.123-1.251-.027-.4101-.041-.7861-.041-1.1279s0-.5947 0-.7588c0-.2187 0-.5263 0-.9228 0-.4102.014-.8477.041-1.3125.028-.4649.076-.9365.144-1.4151.082-.4785.191-.916.328-1.3125.15-.3964.342-.7177.574-.9638.233-.2461.527-.3692.882-.3692.369 0 .649.1846.841.5537.191.3692.335.7998.431 1.292.095.4922.15.9844.164 1.4766.013.4785.02.834.02 1.0664zm10.992-2.1943c-.109.998-.218 1.9892-.328 2.9736-.109.9844-.184 1.9687-.225 2.9531-.069 1.1348-.096 2.208-.082 3.2198.013 1.0117.02 2.0849.02 3.2197 0 .2734-.007.6084-.02 1.0049 0 .3964-.048.7793-.144 1.1484s-.253.6836-.472.9434c-.205.2597-.519.3896-.943.3896-.205 0-.383-.0615-.533-.1846-.137-.123-.26-.2871-.369-.4922-.096-.1914-.178-.4101-.246-.6562-.055-.2461-.103-.499-.144-.7588-.068-.5332-.109-1.0664-.123-1.5996 0-.5195 0-.9023 0-1.1484v-1.5996-1.1485c-.315.4102-.725.7246-1.231.9434-.492.2051-.984.3076-1.476.3076-.615 0-1.149-.1436-1.6-.4307-.437-.3008-.8-.6767-1.087-1.1279-.287-.4648-.499-.9707-.635-1.5176-.137-.5469-.205-1.0801-.205-1.5996v-.123c0-.711.109-1.4766.328-2.2969.218-.834.54-1.6065.964-2.3174.437-.7109.977-1.2988 1.62-1.7637.656-.4785 1.415-.7177 2.276-.7177.465 0 .889.0957 1.271.2871.397.1914.677.5058.841.9433.11-.3144.274-.5674.493-.7588.232-.205.526-.3076.881-.3076.452 0 .766.1504.944.4512.191.2871.287.6084.287.9639 0 .1504-.007.2871-.021.4101-.013.1231-.027.2529-.041.3897zm-4.717.4922c-.314 0-.608.1298-.881.3896-.274.2461-.513.5537-.718.9229-.205.3554-.369.7382-.492 1.1484-.11.4101-.164.7725-.164 1.0869 0 .1914.013.3965.041.6152.041.2188.095.4307.164.6358.082.1914.184.3555.307.4922.137.123.308.1845.513.1845.178 0 .383-.041.615-.123.246-.0957.486-.2119.718-.3486.232-.1504.438-.3145.615-.4922.178-.1778.301-.3487.369-.5127.041-.0957.076-.2393.103-.4307s.048-.3896.061-.5947c.028-.2188.048-.4307.062-.6358.014-.205.02-.3623.02-.4716 0-.1641-.041-.3487-.123-.5537-.068-.2188-.164-.4239-.287-.6153-.123-.2051-.266-.3691-.43-.4922-.164-.1367-.328-.205-.493-.205zm14.684 3.1787c0 .7519-.075 1.497-.226 2.2353-.15.7383-.403 1.4014-.758 1.9893-.356.5742-.834 1.039-1.436 1.3945-.588.3555-1.326.5332-2.215.5332-.875 0-1.606-.1709-2.194-.5127-.588-.3555-1.06-.8203-1.415-1.3945-.342-.5742-.588-1.2237-.738-1.9483-.137-.7246-.205-1.4628-.205-2.2148 0-.8203.095-1.6338.287-2.4404.041-.2188.116-.5196.225-.9024.123-.3965.274-.7793.451-1.1484.192-.3828.404-.711.636-.9844.246-.2734.513-.4101.8-.4101.273 0 .492.0751.656.2255s.294.3418.39.5743c.096.2187.157.458.184.7177.028.2461.041.4717.041.6768 0 .3144-.027.6221-.082.9228-.041.3008-.088.6016-.143.9024-.055.4101-.109.8203-.164 1.2305-.041.4101-.062.8203-.062 1.2304 0 .2051.007.4375.021.6973.027.2461.082.4853.164.7178.082.2324.198.4306.349.5947.15.1504.362.2256.635.2256.356 0 .636-.0957.841-.2871.219-.1914.376-.4307.472-.7178.109-.2871.177-.5947.205-.9229.027-.3281.041-.6289.041-.9023 0-.6016-.041-1.1895-.123-1.7637-.082-.5879-.157-1.1826-.226-1.7842-.013-.0683-.02-.164-.02-.2871 0-.205.034-.4101.102-.6152.069-.2051.164-.3896.287-.5537s.274-.294.452-.3897c.177-.1093.376-.164.594-.164.301 0 .568.1094.8.3281.232.2051.424.4785.574.8203.164.3281.294.7041.39 1.1279.109.4102.191.8204.246 1.2305.068.3965.109.7725.123 1.1279.027.3555.041.6358.041.8409zm9.844 2.2148c0 .4649-.151.9229-.451 1.374-.287.4375-.657.834-1.108 1.1895-.437.3418-.909.6221-1.415.8408-.506.2051-.971.3076-1.394.3076-.725 0-1.374-.1777-1.949-.5332-.56-.3691-1.032-.834-1.415-1.3945-.382-.5606-.676-1.1758-.881-1.8457-.192-.6836-.288-1.3467-.288-1.9893 0-.6836.096-1.415.288-2.1943.191-.7793.478-1.4971.861-2.1533.396-.6563.889-1.2032 1.476-1.6407.602-.4375 1.313-.6562 2.133-.6562.465 0 .909.082 1.333.2461.424.1504.793.3691 1.108.6562.314.2872.567.6289.758 1.0254.192.3965.288.8409.288 1.333 0 .6426-.137 1.2442-.411 1.8047-.273.5606-.635 1.0459-1.086 1.4561-.452.4101-.971.7451-1.559 1.0049-.588.2461-1.19.3828-1.805.4101.055.3965.212.6836.472.8613.273.1778.595.2667.964.2667.273 0 .54-.0684.8-.2051.259-.1367.512-.2871.758-.4512.246-.1777.486-.335.718-.4717.246-.1367.492-.2051.738-.2051.274 0 .52.0889.739.2666.218.1778.328.4102.328.6973zm-3.322-5.0244c0-.1777-.048-.3623-.144-.5537s-.246-.2871-.451-.2871c-.301 0-.554.082-.759.2461-.205.1504-.376.3486-.513.5947-.136.2324-.246.4853-.328.7588-.068.2734-.109.5264-.123.7588.192-.041.417-.0957.677-.1641.273-.0683.526-.1572.759-.2666.246-.123.451-.2734.615-.4512.178-.1777.267-.3896.267-.6357z" fill="#e3000b"/><path d="m358.337 156.921c1.308-1.017 3.193-.781 4.21.528 1.017 1.308.78 3.193-.528 4.209zm-107.287 2.66c-.132-1.652 1.099-3.098 2.751-3.23l26.913-2.158c1.652-.132 3.098 1.1 3.23 2.751.133 1.652-1.099 3.098-2.75 3.23l-23.924 1.918 1.918 23.923c.132 1.652-1.099 3.098-2.751 3.23-1.651.133-3.097-1.099-3.23-2.751zm110.969 2.077c-36.476 28.348-80.497 25.026-109.924-.033l3.89-4.568c27.258 23.212 68.117 26.47 102.352-.136z" fill="#fff"/><path d="m189.72 89.1569c-.487 1.6146-1.435 3.027-2.775 4.1067-2.043 1.6454-4.838 2.3967-7.97 2.155-.03-.0023-.059-.0052-.088-.0087-3.267-.2741-5.443-1.7254-6.791-3.6742-.963-1.3923-1.439-2.9449-1.696-4.2659-.155.698-.321 1.3994-.479 1.9701-.091.3291-.193.6657-.302.9473-.051.1337-.13.3221-.239.5099-.054.093-.147.2404-.286.3945-.116.129-.408.4288-.895.5916-.257.0861-.529.1189-.799.0966l-9.32-.7705c-.108-.0089-.216-.0267-.321-.0532-.823-.2061-1.19-.8275-1.258-.9423l-.002-.0029c-.12-.2021-.182-.3854-.211-.4736-.061-.1927-.095-.3805-.115-.5046-.043-.2706-.075-.598-.098-.9282-.048-.6759-.075-1.5446-.075-2.4046 0-.8541.027-1.7546.097-2.4811.034-.3522.085-.7375.17-1.0781.041-.1632.111-.4051.237-.6536.081-.1598.409-.7943 1.188-1.0822l.693 1.876-.707-1.8708c.285-.1078.585-.1569.758-.1825.216-.0319.459-.0569.713-.0762.509-.0389 1.13-.0599 1.791-.0553.457.0032.956.0188 1.468.053-.093-.4392-.156-.8834-.202-1.2935-.096-.8506-.142-1.7652-.177-2.5683-.007-.1405-.012-.2765-.018-.4079-.019-.4466-.036-.841-.057-1.1817-.05-.0104-.101-.0221-.151-.0354-.157-.0421-.523-.1523-.878-.4488-.44-.3685-.757-.9409-.757-1.618 0 .0021 0 .0024 0 .0005 0-.0044 0-.0211-.001-.0571l-.004-.1753v-.0146c-.003-.143-.007-.3323-.012-.5519-.009-.4537-.018-1.0428-.018-1.6403 0-.5909.009-1.2187.039-1.7404.014-.257.036-.5265.071-.7687.009-.0596.019-.1263.033-.1973l-.234-1.9955-.004-.034c-.03-.3005-.036-1.2429-.039-2.2649-.004-1.1049-.001-2.509.003-3.8875.004-1.3793.011-2.7363.016-3.7482.003-.506.006-.9259.007-1.2194l.003-.3403v-.0896-.023-.0058-.0015-.0004c0-.0001 0-.0001 1.986.0129l-1.986-.013c.001-.0899.007-.1784.02-.2651l.169-1.4204c-.019-.1548-.027-.2869-.032-.3688v-.0015c-.015-.2581-.021-.5577-.022-.8681-.001-.625.02-1.3829.051-2.1218.031-.7415.074-1.4842.119-2.0839.022-.2988.045-.5722.069-.7969.018-.1739.049-.4564.106-.685.041-.1632.101-.3172.177-.4598.135-.2546.297-.4289.401-.5279.17-.1613.334-.2623.431-.3172.194-.1097.377-.1748.482-.2092.226-.0748.479-.1323.709-.1782.479-.0957 1.126-.1929 1.89-.2897 1.539-.1952 3.692-.4064 6.229-.6052 5.077-.3979 11.767-.7514 18.301-.8221h.001c6.516-.0705 13.271.0533 18.543.3371 2.632.1417 4.927.3249 6.652.5492.857.1114 1.619.2389 2.23.389.303.0746.615.1658.901.2822.234.0953.679.2948 1.048.6869l.003.003c.92.9831 1.256 2.2324 1.394 3.0222.074.4261.105.8021.118 1.0736.003.0621.005.1194.006.1714l.612 2.3843c.023.0682.037.1196.044.1442l.002.0047c.027.099.049.1956.065.2754.033.1621.065.3512.094.5474.016.1081.033.2251.05.3499.368-.4579.926-.7357 1.526-.7452l.031 1.9997c-.031-1.9997-.031-1.9997-.031-1.9997h.001l.002-.0001.008-.0001.03-.0004.115-.0016c.1-.0013.247-.0031.436-.0049.376-.0036.916-.0075 1.575-.0087 1.319-.0023 3.118.0064 5.041.0505 1.918.0441 3.978.124 5.809.266 1.78.1379 3.513.3452 4.683.6923l.001.0001c.933.2769 1.749.5302 2.408.811.672.2865 1.355.6718 1.898 1.308.555.6506.806 1.3778.951 2.0507.13.5976.205 1.3099.283 2.0447l.013.1251v.0003c.187 1.7617.257 4.5347.239 6.8297-.009 1.1548-.04 2.2316-.094 3.0364-.027.3924-.062.7731-.113 1.0803-.023.1379-.064.3597-.144.5853-.036.1007-.124.332-.302.5753-.093.1272-.349.4418-.782.6475.006.0491.012.1007.018.1548.006.05.012.1022.018.1568.055.4802.123 1.1021.153 1.7228.029.5932.031 1.3275-.106 1.9954-.021.1011-.052.2359-.099.3906.128-.0028.253-.0048.374-.0059.528-.0051 1.044.0049 1.472.0474.208.0206.464.0552.717.1236.127.0343.304.0906.495.1855.172.0861.49.2691.761.619l.006.0079c.273.3547.409.7292.481.9741.08.268.129.5375.16.7765.064.4779.079.9896.074 1.438-.006.4551-.034.9001-.073 1.2622-.019.1783-.043.362-.075.5293-.016.0816-.038.1878-.071.3007l-.001.0059c-.019.066-.097.3395-.284.6198-.035.0513-.071.1006-.109.148-.28.3852-.974 1.3-1.671 2.1671-.426.5296-.888 1.0851-1.297 1.5326-.202.2212-.416.444-.623.632-.103.0936-.228.2003-.366.3001-.114.0818-.353.2455-.673.3538-.287.0971-.592.1276-.893.0895l-8.616-1.0946c-.395.0237-.735-.0013-1.001-.0392-.162-.0232-.299-.0516-.406-.0778-.053-.0131-.1-.0258-.139-.0371-.019-.0056-.037-.011-.052-.0159l-.023-.007-.01-.0033-.004-.0015-.003-.0008-.001-.0004c0-.0002-.001-.0004.632-1.8975l-.633 1.8971c-.588-.1964-1.025-.6402-1.233-1.1773-.288 1.5815-.934 3.0812-1.972 4.3277-1.686 2.0254-4.25 3.1912-7.431 3.0572-.042.0004-.084-.0005-.126-.0027-3.235-.1713-5.662-1.5746-7.209-3.7123-1.023-1.4149-1.607-3.0729-1.848-4.7647-.081.1346-.167.2661-.246.3853-.316.4727-.756 1.0689-1.184 1.6354-.435.5744-.883 1.1504-1.228 1.5914zm0 0c.014.0175.027.0348.041.0519.382.4686.955.7395 1.56.7369l15.208-.064h.001c.023.0005.595.0159.868.0074.181-.0057.454-.0211.737-.0821.142-.0308.354-.0871.583-.198zm.006-6.6942c-.092.1935-.152.4004-.178.6125-.18-.5262-.404-1.0297-.674-1.5064.029.0315.057.0626.085.0937.084.0938.169.1883.27.2981.123.1334.297.3223.497.5021zm32.381.6909c.093.0027.205.0136.329.0387.517.1047.805.346.913.5612l.001.0023c.077.154.089.2724.082.3585-.007.0926-.039.1885-.1.279-.128.1891-.34.3034-.573.2957-.319-.0121-.668-.0704-.954-.1713-.168-.0592-.268-.1161-.322-.1532 0-.0038.001-.0079.002-.0122.034-.1804.171-.5711.622-1.1987zm-5.2-1.9033c-.003.0058-.003.0041.002-.0038-.001.0013-.001.0026-.002.0038zm4.969 1.918c-.001.0001 0-.0001.002-.0005zm9.638-.4324c-.059-.7402-.177-1.4701-.356-2.1776.234.6343.335 1.2467.366 1.7938.011.2141.012.4174.006.6069-.005-.0743-.01-.1486-.016-.2229zm-20.483 2.363c0 .0001-.006-.0003-.017-.0013.012.0008.017.0013.017.0013zm-49.165-11.0655c-.001-.0064-.002-.0074 0-.0022zm19.305 11.5535c.009-.0009.017-.0019.026-.003.042-.0051.077-.0079.106-.0092.032.084.071.218.104.4171.047.2816.07.6245.072 1.025-.007.0151-.023.0448-.058.0903-.094.122-.276.2877-.559.4499-.277.1591-.589.2781-.875.3432-.113.0258-.212.0409-.294.0482-.047-.0497-.101-.1148-.16-.1964-.232-.3244-.387-.7083-.418-1.0161-.027-.2581.03-.3767.129-.4801.145-.1513.626-.5059 1.927-.6689zm.247-.0078c0 .0001-.001-.0002-.004-.001.003.0005.005.0009.004.001zm.063 1.4318c.001-.0039.002-.0059.002-.006s0 .0019-.002.006zm-1.659 1.0552c0 .0003-.005-.0026-.015-.01.01.006.015.0096.015.01zm51.658-22.1278c-1.058.0039-2.099-.0095-2.912-.0448.005-.5764.029-1.2631.066-1.9706.043-.8086.101-1.6182.162-2.2837.777-.0176 1.766-.0144 2.77.0081 1.02.0229 2.025.0651 2.811.122.018.641.025 1.4164.021 2.1938-.004.6828-.016 1.3517-.036 1.9201-.814.0306-1.844.0512-2.882.0551zm4.24-.1385c.004-.0006.004-.0006.002-.0002z" fill="#fff" stroke="#fff" stroke-linejoin="round" stroke-width="4"/><path d="m180.53 78.967c-5.888-.352-8.691 4.2098-8.34 7.017.35 2.8054 1.473 7.0184 6.939 7.4389v.0016c5.467.4218 9.04-2.6653 8.97-7.017-.07-4.3516-2.809-7.1539-7.569-7.4405zm-4.834 9.6106c-.562.2133-1.752.0717-1.752-1.4011 0-1.4729-.562-3.9997 3.153-4.9121.476-.1163 1.261 1.1242.631 1.5444-.631.422-1.82 1.4745-1.964 2.3135-.14.8424.489 2.2484-.068 2.4553zm3.436 1.3375c-1.473-.2819-4.485-5.5442 1.82-6.3163h.001c2.117-.2597 2.523 1.5444 2.526 3.439 0 1.895-2.876 3.1575-4.347 2.8773z" fill="#f7a600"/><path d="m221.881 75.1074c-4.205 0-7.079 2.8787-7.219 7.1586-.14 4.2801 1.963 8.4914 7.289 8.7733v-.0033c5.328.2802 7.92-3.7895 7.57-8.1395-.351-4.3499-2.996-7.7891-7.64-7.7891zm-3.503 7.4023c-.385.07-1.401-.1401-1.576-.4204-.317-.5047.489-2.4918 1.858-4.0364 1.365-1.5413 3.993-1.5762 4.904-1.2259s1.541 1.4745.946 1.788l.001-.0016c-.597.3184-3.541-.3503-4.522 1.019-.981 1.3678-1.226 2.8072-1.611 2.8773zm4.309 4.178c-1.927-.0717-5.011-1.2292-1.855-5.1588h-.002c.54-.6735 3.364-.5621 4.309 1.3325.947 1.8949-.526 3.8947-2.452 3.8263z" fill="#f7a600"/><g fill="#e3000b"><path d="m219.495 73.2876c.42-.2786-.14-7.6507-.14-7.6507l.073-1.9678c.629-.1403-.422-11.6473-.701-12.1408l-.702-2.7371s.072-2.035-.979-3.1574c-1.054-1.1209-14.93-1.7547-27.896-1.6146-12.965.1403-26.579 1.4045-26.701 1.8949v-.0017c-.14.5621-.421 5.7542-.211 6.3848l-.21 1.7578v-.0017s-.07 10.6679 0 11.3687l.281 2.3899c-.281.4219-.141 4.7034-.141 4.9836s.911.0701 1.473.4205c.561.3503.14 5.6143.981 7.5788.842 1.9649 2.874 1.6146 2.874 2.1049 0 .492-.772.3519-2.874-.2117-2.102-.5573-5.676-.4189-6.237-.207-.56.207-.42 6.6649-.14 6.7351l9.32.7705c.418-.1401 1.612-6.5281 1.612-6.5281s2.381-7.6491 10.302-7.859c7.918-.2102 10.652 4.7018 11.703 5.4739 1.052.7723 19.484.1387 20.185.1387.702 0 .772-1.1226 2.383-4.2801l-.003.0016c1.613-3.1573 5.328-3.3675 5.748-3.646z"/><path d="m211.226 83.11c-.351-.0701-10.092-.1401-14.017-.0701-3.924.0701-5.676.2802-5.676.2802s.304 2.1413-.221 4.6257l15.217-.0641c.422 0 1.262.0684 1.401-.1385.143-.2118 3.646-4.5634 3.296-4.6332z"/><path d="m246.698 78.1977c-.49-.6321-10.442.4189-10.936.4189-.488 0-2.382.4234-2.802-.2802-.42-.7037.07-1.7547.841-1.7547.77 0 7.149-.2119 8.27-.5621 1.121-.3503.35-4.1415.35-4.9838 0-.8421.841-1.2625 1.191-1.2625s.421-7.4388.07-10.7346c-.35-3.3008-.35-3.5109-4.133-4.6335-3.787-1.1224-17.101-.9108-17.101-.9108-.493.9108 0 19.2978 0 19.2978s1.119.0686 3.503.7007c2.382.6305 1.471-.2101 5.116 3.3692s2.173 8.0724 2.173 8.0724.421.1403 1.051.0701l8.824 1.1209c.631-.2132 3.575-4.1414 3.715-4.353l.001.0033c.141-.2104.351-2.9474-.133-3.5781zm-19.981-10.5323-.001.0033c-.386-.4204.07-7.2287.315-7.8591.132-.3375 9.007-.1752 9.219.2435.212.4189.207 7.474-.072 7.6842-.279.2098-9.075.3501-9.461-.0719z"/></g><path d="m228 61h6v4h-6z" fill="#fff"/></svg>