<svg width="1171" height="733" viewBox="0 0 1171 733" fill="none" xmlns="http://www.w3.org/2000/svg">
<path d="M1167.2 728.991C1115.88 723.935 1066.15 720.356 1014.83 720.356C977.289 719.231 939.724 718.326 902.151 718.136C864.605 717.947 827.057 724.957 789.486 725.445C751.938 725.93 714.309 717.262 676.745 718.167C639.195 719.069 601.738 730.139 564.179 731.206C526.626 732.273 488.994 725.996 451.442 726.969C413.883 727.942 376.327 727.272 338.776 727.897C301.209 728.521 263.675 727.204 226.126 727.219C188.556 727.239 150.992 733.769 113.447 732.925C75.8821 732.078 38.7992 729.434 1.26827 727.467C1.65708 667.507 0.68039 608.439 0.753486 548.716C0.826582 488.834 0.0987327 429.041 0.00230827 369.24C-0.0956715 309.436 2.95881 249.62 2.83594 189.741C2.71464 130.018 3.35695 74.9745 3.35695 15.0142C43.793 17.5421 83.2602 11.0908 123.696 13.6188C162.367 14.7412 200.985 22.6461 239.622 22.732C278.291 22.8205 316.959 18.4016 355.602 17.7494C394.262 17.0972 432.965 20.2824 471.608 19.1904C510.262 18.0983 548.818 8.53508 587.461 7.29891C626.111 6.0678 664.782 6.67957 703.431 5.60013C742.08 4.5207 780.72 1.62368 819.377 0.999278C858.025 0.374876 896.697 -0.107961 935.36 0.0209641C974.002 0.149889 1012.65 3.69154 1051.32 4.87209C1089.94 6.05011 1127.45 9.60945 1166.11 12.1349C1166.62 71.9637 1167.89 129.929 1167.77 189.758C1167.66 249.59 1170.21 309.413 1170.27 369.245C1170.33 429.066 1169.96 488.849 1171 548.671C1171 609.341 1164.6 667.532 1164.6 728.203C1164.6 728.594 1167.2 728.991 1167.2 728.991Z" fill="white"/>
</svg>
