<svg width="600" height="343" viewBox="0 0 600 343" fill="none" xmlns="http://www.w3.org/2000/svg">
<path d="M1.48289 29.4591C1.28075 29.4655 0.793387 29.5026 0.626769 29.6837C0.141026 30.2146 0.255735 32.4036 0.293368 33.1217C0.490318 36.8797 1.47661 36.8449 2.26922 36.8171C124.635 32.5062 567.395 8.31458 569.739 8.18113C571.281 8.09296 574.339 8.50364 575.982 9.98135C576.142 10.1252 576.643 10.4214 577.01 10.638C578.446 11.4879 580.234 12.5446 580.334 14.4531L582.655 58.7396C582.733 60.2253 583.742 60.6281 582.765 60.8379C585.326 92.4587 585.877 133.334 588.433 182.102C594.702 301.719 589.699 258.749 590.878 297.326C590.917 298.565 590.938 299.268 590.943 299.395C591.084 303.177 587.961 306.608 584.122 306.885C579.588 307.214 538.541 310.18 512.708 312.534C438.567 317.172 363.494 319.14 290.892 321.045L290.765 321.049C261.455 321.817 231.147 322.612 201.223 323.574C140.88 325.691 28.7574 335.386 27.6426 335.483C25.8496 335.64 24.1237 335.082 22.7781 333.915C21.4357 332.749 20.6395 331.119 20.538 329.324C20.5212 329.022 18.744 297.909 16.3786 252.774C12.4484 177.781 15.1638 221.989 13.5726 155.326L13.5678 155.195C13.4649 153.232 11.7739 151.672 9.79905 151.717C8.81536 151.741 7.89917 152.148 7.22052 152.861C6.54087 153.576 6.17974 154.512 6.20401 155.499C7.79539 222.164 5.07737 177.927 9.00632 252.896C11.236 295.44 12.9855 326.288 13.1773 329.666C13.3998 333.549 15.0978 337.014 17.9616 339.501C20.8263 341.988 24.4971 343.174 28.2962 342.844C32.929 342.444 142.123 333.042 201.506 330.958C231.633 329.991 261.89 329.197 291.152 328.43C363.852 326.524 439.029 324.553 513.321 319.903L513.568 319.888C540.421 317.441 584.754 314.261 585.18 314.231C593.154 313.656 599.648 306.711 599.359 299.068C599.355 298.949 598.117 259.536 598.227 255.036C598.545 242.002 599.155 237.964 598.586 227.091C597.401 204.495 596.401 181.939 595.433 160.127C594.513 139.392 593.643 119.806 592.668 101.206C591.79 84.4447 590.65 70.4292 590.015 58.319L587.696 14.0673C587.546 11.2119 585.517 8.06479 581.493 4.44707C578.548 1.79947 573.092 0.589286 569.454 0.794735C567.105 0.928406 123.945 25.1432 1.48289 29.4591Z" fill="#F7A600"/>
</svg>
