<svg fill="none" height="119" viewBox="0 0 125 119" width="125" xmlns="http://www.w3.org/2000/svg"><g fill="#fff"><path d="m122.4 73.9813c.055-.2381.064-.3601 0 0z"/><path d="m1.30626 47.8046c.01191-.0737.01712-.1101.02902-.1823-.0186-.1392-.03348-.2679-.04093-.3915z"/><path d="m13.4232 20.2727c.0492-.0506.0834-.0856.1295-.1332-.029-.0037-.0238-.0476-.1295.1332z"/><path d="m27.3552 109.342c-.1287-.077-.2612-.161-.4353-.277.2166.153.3408.229.4353.277z"/><path d="m107.583 22.666s.053.0536.092.0938c-.067-.0833-.134-.1682-.202-.2538z"/><path d="m107.675 22.7598c.229.2888.474.5604.712.8417.238.2805.485.5566.738.829.036-.0357-.613-.803-.937-1.1966.089.1302-.345-.3044-.513-.4741z"/><path d="m108.188 23.2339c-.019-.0283-.062-.0827-.139-.1727.031.0394.08.1005.139.1727z"/><path d="m19.2335 21.0534.1622-.2567c-.0699.1034-.119.183-.1622.2567z"/><path d="m26.4554 104.824c.1146.08.2449.172.3513.246-.1764-.135-.2776-.203-.3513-.246z"/><path d="m36.1359 4.29505c.0208.02605.09.02828.1674.02307.0335-.01116.0581-.01935.0752-.02604z"/><path d="m109.901 84.2377c.016-.003.039-.0171.069-.0461l.196-.5157c-.132.2574-.216.4398-.265.5618z"/><path d="m59.9713 1.0229c.1354-.00298.2709-.00595.4063-.00967-.1794 0-.3111.00297-.4063.00967z"/><path d="m112.855 72.3032c-.035.1027-.07.2054-.108.3081.043-.1146.078-.2151.108-.3081z"/><path d="m123.32 65.0266c.055-.998.057-1.9967.067-2.9954l.045.8022c-.132-3.2558-.432-6.042-.798-8.5782-.369-2.5354-.795-4.8253-1.33-7.0653-.524-2.2303-1.184-4.4606-2.096-6.7683-.912-2.3122-2.116-4.7093-3.76-7.2826.506.6429.186.1317-.261-.5627-.463-.6824-1.042-1.5523-.975-1.693-.354-.6891-.754-1.3179-1.153-1.9177-.407-.5946-.854-1.1319-1.285-1.6588-.108-.1303-.218-.2598-.326-.3885-.113-.1243-.226-.2471-.338-.3699-.226-.2433-.45-.4837-.669-.7226-.221-.2381-.441-.474-.657-.7077-.224-.2284-.444-.4576-.659-.6876-.009.0082-.041-.0037-.151-.099l-.714-.835-1.49-1.6148c-.25-.2679-.512-.5225-.768-.7844 2.096 1.6156-2.438-2.0346-.53-.5366-2.003-2.048-4.321-4.0975-6.8973-6.0323-2.5756-1.9364-5.4102-3.7582-8.419-5.37752-3.0087-1.62009-6.1894-3.04149-9.4481-4.18381-3.2559-1.14753-6.5809-2.03237-9.8568-2.63665l.5604.18456c-.416-.07293-.8439-.14809-1.28-.224-.2188-.03572-.4376-.07963-.6609-.10865-.2232-.02828-.448-.05656-.6727-.08559-.4502-.05655-.9049-.11386-1.3567-.17041-.4524-.05359-.9071-.08037-1.3529-.12279-.4472-.03572-.8863-.08261-1.3164-.11014-.4287-.02531-.8469-.04986-1.2495-.07368-.2612-.01935-.512-.03274-.7591-.0439-.0476-.00596-.0975-.01265-.1429-.01861-.2671-.02902-.5172-.05581-.7464-.08037-.7911-.13246-2.7014-.39814-1.9036-.45172-.4443.01042-.8878.02009-1.3306.03721-2.3323-.11163-4.0878-.04912-5.5569.00074-.7337.04689-1.3968.08931-2.0264.12949-.6281.05879-1.2227.1146-1.8203.17042-.5953.07293-1.1944.14586-1.8336.22326-.637.09079-1.3135.19795-2.0666.3133-1.4988.27237-3.305.60874-5.6648 1.25321l.8402-.1481c-.2322.06996-.4636.14065-.6921.20986-.227.07591-.451.15107-.6697.224-.4376.14735-.8551.28502-1.2324.40409-.7457.26419-1.3351.44949-1.6127.47628-2.7639.98754-5.4876 2.24-7.9002 3.5319-2.4134 1.29265-4.515 2.62622-6.1098 3.69782-.1898.2136-.3639.4473-.5447.6683-.9935.742-2.6062 1.7407-2.8748 2.3539-.6318.6229-1.2741 1.2331-1.8717 1.8872-.3036.297-.5745.5686-.8267.8343-.2449.2731-.4786.5335-.7159.7992-.2412.2635-.4867.5314-.7539.8231-.2627.2954-.5522.6095-.8893.9578-.003.0029-.0075.0074-.0075.0074-.0833.0848-.1711.1749-.256.2612.0045.0037.0157-.0007.0261-.0052-1.2473 1.4623-1.1967 1.4913-1.2056 1.5606-.0022.0364-.0171.084-.2069.3356-.1808.2597-.5298.7271-1.2041 1.6022-.4569.544-.6176.9102-.8245 1.3507-.0997.2225-.22179.4584-.37137.7621-.15107.3028-.34977.6623-.63554 1.1147-.46213.5589-.86995 1.152-1.30232 1.7362-.98753 1.6797-1.43628 2.7342-1.93562 3.9941-.48893 1.2643-1.03368 2.7401-1.89916 5.405-.4681 1.2636-.79852 2.208-1.01359 2.6061-.21283.3982-.29023.2545-.1533-.64-.10046.6118-.16149.9876-.20614 1.2577-.03944.2701-.05804.4361-.09079.6236-.032.1876-.07442.3997-.14809.7643-.07367.3647-.18605.8811-.30958 1.6878-.20316.4703-.15628.1265-.10568-.602-.70028 2.8234-.256 1.7763-.6333 3.9285.10121.6586.32819 1.4229.24707 2.121l.17116-.8238c-.19869 2.2868-.37209 4.7769-.51944 7.4373l-.09674-.1027c-.0134.4733.00446.9459.01116 1.4192.01117.4726.01265.9459.03126 1.4184l-.12205.1809c.03126.6757.05358 1.3514.09302 2.0264l.15479 2.0219-.00223-.5566c.02679.4755.15405 1.4869.26791 2.6039.064.5581.15107 1.1393.2173 1.6945.03646.2768.06326.5477.09972.8037.03572.256.06995.4986.10047.7196l-.08112-.0528c.04093.3141.08037.6236.12056.931.0387.3073.08483.6102.14214.9101.10865.6006.22028 1.1915.34009 1.7764.13767.5812.27907 1.1594.42419 1.7369.0692.2895.15255.5753.23813.8633.08559.2865.17042.5745.25675.864.71144 2.3099 1.58958 4.6809 2.78325 7.3935-.14809-.2188-.30586-.4339-.44576-.6572.33562.9578.45172 1.0598.58492 1.2049.06773.0722.14214.154.25749.3564.05805.102.12503.2337.20689.4101.0826.1749.192.3892.31553.6645l-.10716.1861c.28874.4502.50604.8305.67944 1.1676.1853.3319.3267.6229.448.9012.24558.5537.40707 1.0679.74716 1.7072l-.14437-.6995 1.35515 2.3694c1.5561 2.5764.7509 1.7176.4063 1.411.4265.5425.8335 1.0947 1.2845 1.6186l.0588.448c.5276.5515.7338.8648 1.0099 1.3053.2917.4294.6578.9823 1.5017 2.0026.0342.1109-.0573.0395-.0937.0328-.0358-.0075-.0216.0543.25.4145l1.4884 1.6082 1.5471 1.5512-.9146-.949c-.3029-.3195-.6184-.629-.9042-.9609l.4332.055c.4889.4815.8878.8929 1.2264 1.2689.1696.187.3252.365.4703.536.1503.166.2932.325.4316.479.5552.615 1.0062 1.197 1.7466 1.842-.3423-.293-.6883-.583-1.0136-.894 2.2996 2.219 2.3762 2.387 3.6823 3.646-.3907-.409-.9667-1.048.023-.213.7442.594.329.41 1.0032 1.01.1466-.009.6728.339 1.3901.818.3573.241.745.538 1.1632.832.4197.291.8521.605 1.2674.92-.0373.009-.0893.007-.2114-.055.4517.282.7181.375 1.4742.914l-.5819-.104.8126.388.4056.192.4138.177c.25.161.5365.327.8223.487.285.16.5701.314.8253.433.5053.247.8566.427.7531.458l-.6206-.273c2.6485 1.427 5.4318 2.606 8.2909 3.53l.067.206c.4659.006 1.6298.397 2.6746.667.2605.07.512.139.7405.2.2307.053.4383.097.6102.128.3431.062.5418.07.4867-.02.2017.065.4555.139.7435.209.2887.065.6117.132.9488.198.675.142 1.4162.246 2.0718.352 1.3128.195 2.2943.328 1.7794.437 2.9201.391 5.1825.452 7.5854.493 1.2019.013 2.441.02 3.8185.021.3445.001.698.002 1.0612.004.3661-.006.7434-.011 1.1319-.016.7784-.01 1.6059-.014 2.496-.012.6355.037 1.5486.024 2.6307-.012.2708-.01.5522-.021.8424-.033.2902-.013.5886-.048.8937-.075.6118-.061 1.2525-.125 1.9081-.19.3275-.039.6616-.058.9935-.115.3327-.051.6675-.103 1.0039-.154.6705-.107 1.3448-.211 2.0078-.316.6586-.134 1.3068-.265 1.9312-.393.3126-.064.6192-.127.9176-.188.1488-.03.2962-.061.442-.091.1444-.036.2865-.072.4257-.107.544-.148 1.0761-.294 1.597-.435.5202-.145 1.0337-.272 1.5256-.445.4949-.162.9801-.322 1.4594-.479.477-.16.9525-.299 1.4072-.486.4569-.175.9087-.349 1.3559-.521.2233-.086.4465-.171.6668-.257.2225-.084.4435-.17.6579-.27.8617-.386 1.719-.756 2.5659-1.147.8328-.422 1.6677-.845 2.5154-1.274.8245-.47 1.6617-.948 2.5228-1.439.4182-.266.8424-.535 1.2725-.809.2158-.138.4331-.276.6519-.415.2188-.14.4428-.276.6556-.432.4317-.304.8722-.615 1.3213-.932.225-.158.451-.318.681-.481.227-.166.448-.344.675-.519.579-.38 1.193-.788 1.809-1.246.604-.472 1.226-.977 1.861-1.502.623-.538 1.234-1.123 1.866-1.707.317-.287.618-.603.924-.914.303-.314.615-.625.914-.946 2.392-2.5862 4.53-5.4491 6.22-7.919l.724-1.4765c1.123-1.6387 2.284-3.8787 3.309-6.3858 1.036-2.5049 1.912-5.2778 2.673-7.9583.25-1.3448.348-2.0525.405-2.3636-.055.2456-.159.6162-.283.713.093-.3848.196-.8707.3-1.3798.094-.5112.177-1.0463.262-1.5241.089-.4777.142-.9026.203-1.1907.058-.288.11-.4405.154-.3773l-.029.4026c.084.1295.232-1.0701.325-2.5235.031-.3624.046-.7419.063-1.12.019-.378.04-.7546.059-1.1133.026-.7181.056-1.3641.115-1.8061zm-32.2638-51.6532c.451.2753.9146.5313 1.3559.8216l.3609.2329c.2873.2776.573.5559.8529.8402.4509.4673.9064.9257 1.3492 1.3968-1.161-.9935-2.8093-2.3754-4.3126-3.4433-.2017-.1511-.4004-.2932-.5961-.4302.3327.1898.6646.3811.9898.582zm-29.4809-11.872c.0967.00893.1942.01935.291.02902-.1831-.01116-.3595-.02233-.5292-.03423-.4874-.032-.9927-.03051-1.498-.01935-.1697-.0186-.3416-.03721-.5187-.05433l-.6221.06326-.6214.08186c-.6177-.04019-1.2354-.09377-1.8545-.10716-.6192-.01786-1.2391-.05433-1.859-.04614l-.0045-.16596c1.827-.04316 4.4644-.0186 7.2164.25303zm-11.1918 1.0359c.0402-.01339.128-.03125.2709-.05507-.0916.01786-.1809.03721-.2709.05507zm69.9075 61.2167c-.017.4182-.046.698-.069.9086-.047.419-.092.5522-.121.9243-.086 1.7526-.237 3.5044-.475 5.2465-.253 1.7392-.575 3.4694-.987 5.1796-.427 1.7049-.928 3.3927-1.518 5.0485-.606 1.6499-1.284 3.2722-2.053 4.8521-.784 1.5695-1.631 3.1092-2.574 4.5872-.23.3735-.485.73-.726 1.0961l-.365.5455c-.125.1794-.258.355-.386.5321l-.774 1.0597-.814 1.0307c-1.103 1.3559-2.259 2.6702-3.503 3.8921-.604.6289-1.262 1.2086-1.902 1.805-.631.607-1.313 1.152-1.976 1.717-2.6808 2.225-5.5496 4.181-8.5524 5.832-3.0028 1.652-6.138 2.997-9.3306 4.052-3.1881 1.072-6.4543 1.785-9.6982 2.291-.4063.061-.8119.123-1.216.184-.2024.029-.4041.067-.6072.087l-.6095.063c-.8119.083-1.6209.167-2.4261.249-.8082.058-1.6156.094-2.4178.141-.4011.02-.8008.049-1.2011.063-.4004.004-.8008.009-1.1989.013-.6185-.025-1.542-.012-2.6263-.023-1.0872-.018-2.3233-.039-3.5363-.086-2.4298-.083-4.7725-.283-5.7213-.45-4.1184-.265-8.317-.961-12.3356-2.23-4.0253-1.249-7.8244-3.132-11.2239-5.394.0879.054.1794.103.2709.15-.5388-.347-1.0634-.716-1.597-1.073-.5246-.37-1.0337-.761-1.5524-1.141-.1198-.111-.1205-.142-.0126-.081-1.7637-1.271-3.8713-3.145-5.8471-5.3206-1.9855-2.1671-3.8363-4.6236-5.3492-6.845l.1972.2448c-.5522-.8104-1.1289-1.5992-1.6439-2.432-.2642-.4122-.5283-.8223-.7918-1.2331-.2649-.4093-.5046-.8365-.7576-1.2525-.25-.4189-.5001-.8372-.7494-1.2554-.2314-.4197-.4628-.8402-.6935-1.2592-.1139-.2098-.233-.4182-.3431-.6303l-.3185-.6422c-.20989-.4301-.43314-.8528-.63109-1.2867-.38921-.8729-.79331-1.7369-1.13563-2.6285-.3721-.8781-.67944-1.7815-1.0054-2.6753-.15925-.4495-.29395-.9064-.4413-1.3581-.14661-.4518-.29321-.9042-.41526-1.3641l-.38548-1.3731-.50754-2.0748-.43237-2.0904-.24112-1.4005-.11832-.7003-.09675-.7033-.19125-1.4072-.14586-1.411c-.02307-.2352-.0521-.4703-.0707-.7062l-.04986-.707c-.032-.4711-.06995-.9421-.09674-1.4132l-.05284-1.4162c-.00744-.2359-.02158-.4718-.02307-.7077l-.00298-.7077c-.00074-.4718-.00818-.9444-.00372-1.4155l.04019-1.4139c.0067-.4718.03572-.9422.06697-1.4125.03052-.4703.05358-.9414.09005-1.411.096-.9369.15851-1.8783.29395-2.81.21507-1.8724.56484-3.7232.94884-5.565.22102-.9146.41451-1.8359.6787-2.7394.12725-.4524.24037-.9094.38028-1.3589l.42195-1.3462c.13321-.451.30214-.89.45619-1.3343.16223-.4413.30362-.8908.48297-1.3254l.52242-1.3098c.08409-.2195.17786-.4353.27535-.6489l.28725-.6445c.36689-.8669.80224-1.6997 1.21597-2.5451.2144-.4182.4488-.826.672-1.2398l.3386-.6192c.1176-.2039.2426-.4033.3632-.605l.7323-1.2063.7829-1.1736c.2537-.3974.5373-.7725.8156-1.1512l.4182-.5693c.1377-.1906.2776-.3796.4294-.5627 1.1632-1.4965 2.4283-2.9149 3.75-4.2835 1.338-1.3537 2.7572-2.6322 4.2396-3.8422 1.4943-1.1959 3.0631-2.307 4.6891-3.3384 1.0746-.6542 2.1901-1.2748 3.3354-1.8709-.0014.0134.0008.0231.0097.0283l.0223-.0454c.3915-.2039.7874-.40412 1.1855-.60281-.6928.42191-1.146.69061-1.2085.64741l-.0231.0469c-2.2913 1.3678-4.3274 3.0065-6.237 4.8342-1.9103 1.8315-3.6964 3.8505-5.5033 6.0882 0 0 .0486-.1012.149-.2701-2.1246 3.2945-3.7419 6.8532-4.9638 10.4841.7776-.8521 1.5211-1.6938 2.3374-2.473.8462-1.3871 1.8032-2.6969 2.7811-3.9709.247-.3171.512-.6207.7657-.931l.384-.4629.192-.2307.2024-.2218c.5433-.5894 1.062-1.1929 1.6372-1.7466 2.6925-3.351 5.9275-6.2586 9.5011-8.6749 3.5706-2.4268 7.511-4.31556 11.6227-5.70496 6.6195-2.06065 13.6364-2.79665 20.5231-2.26753.2887.01637.576.03646.8633.05804 2.7296.48968 5.4199 1.21005 8.0364 2.14326.1749.07293.4622.18307.8484.32521.384.14958.8632.33637 1.4266.55516.5648.21358 1.1989.49563 1.9096.78363.3512.15553.7189.31777 1.1021.48744.1913.08484.387.17116.5849.25972.198.09302.3974.18753.6021.28428 3.2707 1.51595 7.2595 3.76185 10.9819 6.39705 3.7314 2.624 7.1517 5.6558 9.6473 8.2396.32.3163.611.6378.896.9436.283.3066.556.6013.814.8819.501.5775.963 1.0895 1.348 1.5501.382.4629.707.8566.966 1.1706.259.3141.438.5582.556.6996-.346-.5455-.723-1.0702-1.095-1.6008-.366-.5358-.762-1.0493-1.152-1.5687 2.063 2.3427 3.663 4.5291 4.986 6.6031 1.322 2.0763 2.37 4.0409 3.275 6.0026.217.4949.447.9801.652 1.475.2.4964.399.9927.599 1.4906.187.5016.359 1.0091.542 1.5189l.137.3832c.04.1303.079.2605.119.3915.08.2619.162.5246.243.7896.634 2.1239 1.166 4.4122 1.551 7.0377l-.127-.5752c.058.7702.311 1.3462.523 3.8913.033.637.099 1.3954.088 2.3122.017.9153-.024 1.9862-.103 3.2424-.06.6274-.105 1.3023-.196 2.0242-.101.7211-.18 1.4958-.336 2.3152-.073.4107-.142.8349-.227 1.2718-.093.4346-.19.8841-.289 1.3469-.092.4644-.225.9362-.347 1.4237-.062.2441-.126.4911-.19.7427-.064.2515-.145.5023-.219.759l-.024-.0067c-.071.288-.094.4346-.143.6497-.041.1704-.092.39-.212.7531.122-.3639.231-.7322.345-1.0991.145-.4718.297-.9422.419-1.4199-.335 1.7391-.597 3.2818-1.335 5.5367-.183.4703-.287.6162-.343.6482-.629 1.8299-1.358 3.6242-2.165 5.3827-.312.5083-.616 1.0173-.932 1.5196-.379.7985-.397 1.0627-.624 1.638-.253.5588-.677 1.4608-2.06 3.3912.589-.6824.308-.1637-.1.4547-.202.3111-.423.6542-.575.8878-.148.2359-.232.361-.116.2635-.169.1748-.53.5856-.824.9123-.106.1414-.212.2947-.331.4488-.121.1518-.247.3103-.377.4748-.262.3259-.529.6816-.824 1.0314-.297.3483-.604.7062-.911 1.0657-.307.3587-.638.6965-.947 1.0389-.158.1689-.308.3401-.464.5008-.157.1578-.311.3126-.461.4629-.3014.2992-.5767.5916-.8394.8431-.5299.4972-.9474.8998-1.1751 1.1394 0 0 .541-.4316 1.3879-1.1088.4096-.3587.8926-.7829 1.4226-1.2458.256-.2426.522-.4964.797-.7576.137-.1302.276-.2627.417-.3951.137-.14.273-.2799.412-.4213.276-.2842.557-.573.838-.8617.274-.2955.541-.6006.811-.8983.55-.5879 1.037-1.2108 1.518-1.7748.467-.5731.879-1.1245 1.254-1.5933.357-.4808.661-.8893.887-1.1944-.278.4241-.496.7575-.663 1.012-.165.2568-.295.4257-.371.5425-.157.23-.14.2188-.033.0864.224-.2598.766-1.0374 1.014-1.3552l.095-.2605c1.313-2.0509 1.422-1.9929 2.039-3.0496-.011-.006-.041.0201-.07.0431l-.056.1474c-.078.0885-.062.0201-.014-.102-.042.0119-.011-.1004.311-.6816l-.046.1198c.225-.4577.532-1.0813.825-1.6767.294-.5953.546-1.175.712-1.5203l.121.0364c.14-.4338.503-1.3522.99-2.5205.224-.5917.499-1.2399.756-1.9342.127-.3475.257-.704.389-1.0657.066-.1808.136-.3616.199-.5454.062-.1846.123-.3706.185-.5559.124-.3721.249-.7457.372-1.1156.12-.3721.225-.7457.335-1.1096.106-.3661.22-.7241.314-1.0746.091-.3527.179-.6943.263-1.021.081-.3274.171-.6392.234-.9369.064-.2962.123-.5753.179-.8313.107-.5127.202-.9354.24-1.239.542-2.4149.628-5.4914.686-8.5641.018-1.2279-.027-1.9944-.022-2.4945-.001-.2501.003-.4332.008-.5738.001-.1399.006-.2366.013-.3148.028-.3118.09-.3185.04-1.5583-.295-3.0847-.064.6378-.224-.5939l-.072-.9235c-.024-.3081-.045-.6169-.087-.9235-.076-.6133-.137-1.2302-.229-1.8434.388 2.1232.257.9585.243.5581-.055-.3988-.151-.8208-.233-1.2621-.09-.4398-.16-.9027-.272-1.3626-.108-.4614-.217-.928-.325-1.3886-.104-.4629-.249-.908-.368-1.3426-.233-.8714-.526-1.6513-.76-2.2779-.06-.1555-.117-.3021-.17-.4368-.057-.134-.115-.2538-.169-.3617-.107-.2166-.199-.3818-.275-.4845-.366-1.0232-.692-1.7711-.931-2.3672-.233-.5999-.435-1.0211-.587-1.3805-.159-.3572-.285-.6437-.419-.9473-.146-.2977-.309-.608-.531-1.0188.135.2828.335.7047.503 1.0567.155.3587.275.6489.255.6646-.337-.806-.453-.9801-.425-.8834.031.0953.177.4763.326.8-.081-.1451-.174-.3207-.277-.5232-.109-.1994-.232-.4234-.365-.669-.269-.4889-.558-1.0768-.918-1.69-.175-.3103-.357-.6326-.544-.9637-.183-.3342-.397-.6601-.599-1.0002-.206-.3371-.411-.6824-.625-1.0225-.221-.3357-.441-.6713-.659-1.0039-.876-1.3299-1.786-2.5571-2.512-3.4665-.354-.4621-.687-.8238-.928-1.0947-.244-.2679-.413-.4323-.484-.4628l.038-.0328c-.56-.3259-.047.5314-1.369-.7509-.256-.32-.502-.6511-.768-.9615-.453-.4197-.898-.8468-1.355-1.2599-.842-.9094-.368-.5246-.35-.5425-.277-.256-.566-.5254-.8674-.8044-.3043-.2746-.6206-.5597-.9458-.8521-.6378-.5976-1.347-1.1877-2.0488-1.8151-.893-.7553-1.8203-1.5189-2.7497-2.2445 1.69 1.1416 3.354 2.3256 4.928 3.6227l.6184.4957.6023.5164 1.199 1.0359c.772.7212 1.566 1.4192 2.304 2.1746l.564.5573c.188.1846.375.3714.553.5664l1.084 1.1535c.364.3825.698.7903 1.049 1.1847.348.3967.697.7918 1.023 1.2063.405.4465.825.8834 1.222 1.3388l1.179 1.3805c1.366 2.0882 2.744 4.3669 3.989 6.8197 1.247 2.4506 2.361 5.0768 3.214 7.808.107.3416.217.6809.32 1.0262l.288 1.0508c.201.6988.358 1.4088.534 2.1128.169.7062.308 1.4176.46 2.1239.125.7114.268 1.4176.374 2.1268.446 2.8331.669 5.6462.654 8.3252l.214.2181c.006.7539 0 1.3083-.009 1.7265z"/><path d="m111.94 75.9698.044-.1213c-.085-.0231-.12.1674-.044.1213z"/><path d="m116.638 49.3331c.114.7442.244 1.3909.328 1.8583-.296-2.0629-.348-2.153-.328-1.8583z"/><path d="m105.6 88.9514-.265.3512-.284.3394c-.19.227-.382.4539-.57.6891-.312.419-.407.5485-.364.5247.047-.0209.22-.2062.427-.4361.315-.4294.582-.7941.771-1.0516.18-.2641.285-.4167.285-.4167z"/><path d="m107.906 87.4585-.12.32c.324-.5425.289-.5343.12-.32z"/></g><path d="m107.675 22.7598c-.039-.0402-.092-.0938-.092-.0938l-.11-.16c.068.0856.135.1705.202.2538zm0 0c.229.2888.474.5604.712.8417.238.2805.485.5566.738.829m-1.45-1.6707c.168.1697.602.6043.513.4741m.937 1.1966c.036-.0357-.613-.803-.937-1.1966m.937 1.1966c.215.23.435.4592.659.6876.216.2337.436.4696.657.7077.219.2389.443.4793.669.7226.112.1228.225.2456.338.3699.108.1287.218.2582.326.3885.431.5269.878 1.0642 1.285 1.6588.399.5998.799 1.2286 1.153 1.9177-.067.1407.512 1.0106.975 1.693.447.6944.767 1.2056.261.5627 1.644 2.5733 2.848 4.9704 3.76 7.2826.912 2.3077 1.572 4.538 2.096 6.7683.535 2.24.961 4.5299 1.33 7.0653.366 2.5362.666 5.3224.798 8.5782l-.045-.8022c-.01.9987-.012 1.9974-.067 2.9954l.248-.963c-.059.442-.089 1.088-.115 1.8061-.019.3587-.04.7353-.059 1.1133-.017.3781-.032.7576-.063 1.12-.093 1.4534-.241 2.653-.325 2.5235l.029-.4026c-.044-.0632-.096.0893-.154.3773-.061.288-.114.713-.203 1.1907-.085.4778-.168 1.0129-.262 1.5241-.104.5091-.207.995-.3 1.3798.124-.0968.228-.4674.283-.713-.057.3111-.155 1.0188-.405 2.3636-.761 2.6805-1.637 5.4534-2.673 7.9583-1.025 2.5071-2.186 4.7471-3.309 6.3858l-.724 1.4765c-1.69 2.47-3.828 5.3328-6.22 7.919-.299.321-.611.632-.914.946-.306.311-.607.627-.924.914-.632.584-1.243 1.169-1.866 1.707-.635.525-1.257 1.03-1.861 1.502-.616.458-1.23.866-1.809 1.246-.227.175-.448.353-.675.519-.23.163-.456.323-.681.481-.4491.317-.8896.628-1.3213.932-.2128.156-.4368.292-.6556.432-.2188.139-.4361.277-.6519.415-.4301.274-.8543.543-1.2725.809-.8611.491-1.6983.969-2.5228 1.439-.8477.429-1.6826.852-2.5154 1.274-.8469.391-1.7042.761-2.5659 1.147-.2144.1-.4354.186-.6579.27-.2203.086-.4435.171-.6668.257-.4472.172-.899.346-1.3559.521-.4547.187-.9302.326-1.4072.486-.4793.157-.9645.317-1.4594.479-.4919.173-1.0054.3-1.5256.445-.5209.141-1.053.287-1.597.435-.1392.035-.2813.071-.4257.107-.1458.03-.2932.061-.442.091-.2984.061-.605.124-.9176.188-.6244.128-1.2726.259-1.9312.393-.663.105-1.3373.209-2.0078.316-.3363.051-.6712.103-1.0039.154-.3319.057-.666.076-.9935.115-.6556.065-1.2963.129-1.9081.19-.3051.027-.6035.062-.8937.075-.2903.012-.5716.023-.8424.033-1.0821.036-1.9952.049-2.6307.012-.8901-.002-1.7176.002-2.496.012-.3885.005-.7658.01-1.1319.016-.3632-.002-.7167-.003-1.0612-.004-1.3775-.001-2.6166-.008-3.8185-.021-2.4029-.041-4.6653-.102-7.5854-.493.5149-.109-.4666-.242-1.7794-.437-.6556-.106-1.3968-.21-2.0718-.352-.3371-.066-.6601-.133-.9488-.198-.288-.07-.5418-.144-.7435-.209.0551.09-.1436.082-.4867.02-.1719-.031-.3795-.075-.6102-.128-.2285-.061-.48-.13-.7405-.2-1.0448-.27-2.2087-.661-2.6746-.667l-.067-.206c-2.8591-.924-5.6424-2.103-8.2909-3.53l.6206.273c.1035-.031-.2478-.211-.7531-.458-.2552-.119-.5403-.273-.8253-.433-.2858-.16-.5723-.326-.8223-.487l-.4138-.177-.4056-.192-.8126-.388.5819.104c-.7561-.539-1.0225-.632-1.4742-.914.1221.062.1741.064.2114.055-.4153-.315-.8477-.629-1.2674-.92-.4182-.294-.8059-.591-1.1632-.832-.7173-.479-1.2435-.827-1.3901-.818-.6742-.6-.259-.416-1.0032-1.01-.9897-.835-.4137-.196-.023.213-1.3061-1.259-1.3827-1.427-3.6823-3.646.3253.311.6713.601 1.0136.894-.7404-.645-1.1914-1.227-1.7466-1.842-.1384-.154-.2813-.313-.4316-.479-.1451-.171-.3007-.349-.4703-.536-.3386-.376-.7375-.7874-1.2264-1.2689l-.4332-.055c.2858.3319.6013.6414.9042.9609l.9146.949-1.5471-1.5512-1.4884-1.6082c-.2716-.3602-.2858-.422-.25-.4145.0364.0067.1279.0781.0937-.0328-.8439-1.0203-1.21-1.5732-1.5017-2.0026-.2761-.4405-.4823-.7538-1.0099-1.3053l-.0588-.448c-.451-.5239-.858-1.0761-1.2845-1.6186.3446.3066 1.1498 1.1654-.4063-1.411l-1.35515-2.3694.14437.6995c-.34009-.6393-.50158-1.1535-.74716-1.7072-.1213-.2783-.2627-.5693-.448-.9012-.1734-.3371-.3907-.7174-.67944-1.1676l.10716-.1861c-.12353-.2753-.23293-.4896-.31553-.6645-.08186-.1764-.14884-.3081-.20689-.4101-.11535-.2024-.18976-.2842-.25749-.3564-.1332-.1451-.2493-.2471-.58492-1.2049.1399.2233.29767.4384.44576.6572-1.19367-2.7126-2.07181-5.0836-2.78325-7.3935-.08633-.2895-.17116-.5775-.25675-.864-.08558-.288-.16893-.5738-.23813-.8633-.14512-.5775-.28652-1.1557-.42419-1.7369-.11981-.5849-.23144-1.1758-.34009-1.7764-.05731-.2999-.10344-.6028-.14214-.9101-.04019-.3074-.07963-.6169-.12056-.931l.08112.0528c-.03052-.221-.06475-.4636-.10047-.7196-.03646-.256-.06326-.5269-.09972-.8037-.06623-.5552-.1533-1.1364-.2173-1.6945-.11386-1.117-.24112-2.1284-.26791-2.6039l.00223.5566-.15479-2.0219c-.03944-.675-.06176-1.3507-.09302-2.0264l.12205-.1809c-.01861-.4725-.02009-.9458-.03126-1.4184-.0067-.4733-.02456-.9459-.01116-1.4192l.09674.1027c.14735-2.6604.32075-5.1505.51944-7.4373l-.17116.8238c.08112-.6981-.14586-1.4624-.24707-2.121.3773-2.1522-.06698-1.1051.6333-3.9285-.0506.7285-.09748 1.0723.10568.602.12353-.8067.23591-1.3231.30958-1.6878.07367-.3646.11609-.5767.14809-.7643.03275-.1875.05135-.3535.09079-.6236.04465-.2701.10568-.6459.20614-1.2577-.13693.8945-.05953 1.0382.1533.64.21507-.3981.54549-1.3425 1.01359-2.6061.86548-2.6649 1.41023-4.1407 1.89916-5.405.49934-1.2599.94809-2.3144 1.93562-3.9941.43237-.5842.84019-1.1773 1.30232-1.7362.28577-.4524.48447-.8119.63554-1.1147.14958-.3037.27167-.5396.37137-.7621.2069-.4405.3676-.8067.8245-1.3507.6743-.8751 1.0233-1.3425 1.2041-1.6022.1898-.2516.2047-.2992.2069-.3356.0089-.0693-.0417-.0983 1.2056-1.5606-.0104.0045-.0216.0089-.0261.0052.0849-.0863.1727-.1764.256-.2612 0 0 .0045-.0045.0075-.0074.3371-.3483.6266-.6624.8893-.9578.2672-.2917.5127-.5596.7539-.8231.2373-.2657.471-.5261.7159-.7992.2522-.2657.5231-.5373.8267-.8343.5976-.6541 1.2399-1.2643 1.8717-1.8872.2686-.6132 1.8813-1.6119 2.8748-2.3539.1808-.221.3549-.4547.5447-.6683 1.5948-1.0716 3.6964-2.40517 6.1098-3.69782 2.4126-1.2919 5.1363-2.54436 7.9002-3.5319.2776-.02679.867-.21209 1.6127-.47628.3773-.11907.7948-.25674 1.2324-.40409.2187-.07293.4427-.14809.6697-.224.2285-.06921.4599-.1399.6921-.20986l-.8402.1481c2.3598-.64447 4.166-.98084 5.6648-1.25321.7531-.11535 1.4296-.22251 2.0666-.3133.6392-.0774 1.2383-.15033 1.8336-.22326.5976-.05582 1.1922-.11163 1.8203-.17042.6296-.04018 1.2927-.0826 2.0264-.12949 1.4691-.04986 3.2246-.11237 5.5569-.00074.4428-.01712.8863-.02679 1.3306-.03721-.7978.05358 1.1125.31926 1.9036.45172.2292.02456.4793.05135.7464.08037.0454.00596.0953.01265.1429.01861.2471.01116.4979.02455.7591.0439.4026.02382.8208.04837 1.2495.07368.4301.02753.8692.07442 1.3164.11014.4458.04242.9005.0692 1.3529.12279.4518.05655.9065.11386 1.3567.17041.2247.02903.4495.05731.6727.08559.2233.02902.4421.07293.6609.10865.4361.07591.864.15107 1.28.224l-.5604-.18456c3.2759.60428 6.6009 1.48912 9.8568 2.63665 3.2587 1.14232 6.4394 2.56372 9.4481 4.18381 3.0088 1.61932 5.8434 3.44112 8.419 5.37752 2.5763 1.9348 4.8943 3.9843 6.8973 6.0323-1.908-1.498 2.626 2.1522.53.5366.256.2619.518.5165.768.7844l1.49 1.6148.714.835c.11.0953.142.1072.151.099zm-.937-1.1966c-.019-.0283-.062-.0827-.139-.1727.031.0394.08.1005.139.1727zm-88.9545-2.1805.1622-.2567c-.0699.1034-.119.183-.1622.2567zm0 0c-.1004.1689-.149.2701-.149.2701 1.8069-2.2377 3.593-4.2567 5.5033-6.0882 1.9096-1.8277 3.9457-3.4664 6.237-4.8342l.0231-.0469c.0625.0432.5157-.2255 1.2085-.64741-.3981.19869-.794.39891-1.1855.60281l-.0223.0454c-.0089-.0052-.0112-.0149-.0097-.0283-1.1453.5961-2.2608 1.2167-3.3354 1.8709-1.626 1.0314-3.1948 2.1425-4.6891 3.3384-1.4824 1.21-2.9016 2.4885-4.2396 3.8422-1.3217 1.3686-2.5868 2.787-3.75 4.2835-.1518.1831-.2917.3721-.4294.5627l-.4182.5693c-.2783.3787-.5619.7538-.8156 1.1512l-.7829 1.1736-.7323 1.2063c-.1206.2017-.2456.4011-.3632.605l-.3386.6192c-.2232.4138-.4576.8216-.672 1.2398-.41373.8454-.84908 1.6782-1.21597 2.5451l-.28725.6445c-.09749.2136-.19126.4294-.27535.6489l-.52242 1.3098c-.17935.4346-.32074.8841-.48297 1.3254-.15405.4443-.32298.8833-.45619 1.3343l-.42195 1.3462c-.13991.4495-.25303.9065-.38028 1.3589-.26419.9035-.45768 1.8248-.6787 2.7394-.384 1.8418-.73377 3.6926-.94884 5.565-.13544.9317-.19795 1.8731-.29395 2.81-.03647.4696-.05953.9407-.09005 1.411-.03125.4703-.06027.9407-.06697 1.4125l-.04019 1.4139c-.00446.4711.00298.9437.00372 1.4155l.00298.7077c.00149.2359.01563.4718.02307.7077l.05284 1.4162c.02679.4711.06474.9421.09674 1.4132l.04986.707c.0186.2359.04763.471.0707.7062l.14586 1.411.19125 1.4072.09675.7033.11832.7003.24112 1.4005.43237 2.0904.50754 2.0748.38548 1.3731c.12205.4599.26865.9123.41526 1.3641.14735.4517.28205.9086.4413 1.3581.32596.8938.6333 1.7972 1.0054 2.6753.34232.8916.74642 1.7556 1.13563 2.6285.19795.4339.4212.8566.63109 1.2867l.3185.6422c.1101.2121.2292.4205.3431.6303.2307.419.4621.8395.6935 1.2592.2493.4182.4994.8365.7494 1.2554.253.416.4927.8432.7576 1.2525.2635.4108.5276.8209.7918 1.2331.515.8328 1.0917 1.6216 1.6439 2.432l-.1972-.2448c1.5129 2.2214 3.3637 4.6779 5.3492 6.845 1.9758 2.1756 4.0834 4.0496 5.8471 5.3206-.1079-.061-.1072-.03.0126.081.5187.38 1.0278.771 1.5524 1.141.5336.357 1.0582.726 1.597 1.073-.0915-.047-.183-.096-.2709-.15 3.3995 2.262 7.1986 4.145 11.2239 5.394 4.0186 1.269 8.2172 1.965 12.3356 2.23.9488.167 3.2915.367 5.7213.45 1.213.047 2.4491.068 3.5363.086 1.0843.011 2.0078-.002 2.6263.023.3981-.004.7985-.009 1.1989-.013.4003-.014.8-.043 1.2011-.063.8022-.047 1.6096-.083 2.4178-.141.8052-.082 1.6142-.166 2.4261-.249l.6095-.063c.2031-.02.4048-.058.6072-.087.4041-.061.8097-.123 1.216-.184 3.2439-.506 6.5101-1.219 9.6982-2.291 3.1926-1.055 6.3278-2.4 9.3306-4.052 3.0028-1.651 5.8716-3.607 8.5524-5.832.663-.565 1.345-1.11 1.976-1.717.64-.5964 1.298-1.1761 1.902-1.805 1.244-1.2219 2.4-2.5361 3.503-3.8921l.814-1.0307.774-1.0597c.128-.1771.261-.3527.386-.5321l.365-.5455c.241-.3661.496-.7226.726-1.0961.943-1.478 1.79-3.0177 2.574-4.5872.769-1.5799 1.447-3.2022 2.053-4.8521.59-1.6558 1.091-3.3436 1.518-5.0485.412-1.7102.734-3.4404.987-5.1796.238-1.7421.389-3.4939.475-5.2465.029-.3721.074-.5053.121-.9243.023-.2106.052-.4904.069-.9086.009-.4182.015-.9726.009-1.7265l-.214-.2181c.015-2.679-.208-5.4921-.654-8.3252-.106-.7092-.249-1.4154-.374-2.1268-.152-.7063-.291-1.4177-.46-2.1239-.176-.704-.333-1.414-.534-2.1128l-.288-1.0508c-.103-.3453-.213-.6846-.32-1.0262-.853-2.7312-1.967-5.3574-3.214-7.808-1.245-2.4528-2.623-4.7315-3.989-6.8197l-1.179-1.3805c-.397-.4554-.817-.8923-1.222-1.3388-.326-.4145-.675-.8096-1.023-1.2063-.351-.3944-.685-.8022-1.049-1.1847l-1.084-1.1535c-.178-.195-.365-.3818-.553-.5664l-.564-.5573c-.738-.7554-1.532-1.4534-2.304-2.1746l-1.199-1.0359-.6023-.5164-.6184-.4957c-1.574-1.2971-3.238-2.4811-4.928-3.6227.9294.7256 1.8567 1.4892 2.7497 2.2445.7018.6274 1.411 1.2175 2.0488 1.8151.3252.2924.6415.5775.9458.8521.3014.279.5914.5484.8674.8044-.018.0179-.492-.3669.35.5425.457.4131.902.8402 1.355 1.2599.266.3104.512.6415.768.9615 1.322 1.2823.809.425 1.369.7509l-.038.0328c.071.0305.24.1949.484.4628.241.2709.574.6326.928 1.0947.726.9094 1.636 2.1366 2.512 3.4665.218.3326.438.6682.659 1.0039.214.3401.419.6854.625 1.0225.202.3401.416.666.599 1.0002.187.3311.369.6534.544.9637.36.6132.649 1.2011.918 1.69.133.2456.256.4696.365.669.103.2025.196.3781.277.5232-.149-.3237-.295-.7047-.326-.8-.028-.0967.088.0774.425.8834.02-.0157-.1-.3059-.255-.6646-.168-.352-.368-.7739-.503-1.0567.222.4108.385.7211.531 1.0188.134.3036.26.5901.419.9473.152.3594.354.7806.587 1.3805.239.5961.565 1.344.931 2.3672.076.1027.168.2679.275.4845.054.1079.112.2277.169.3617.053.1347.11.2813.17.4368.234.6266.527 1.4065.76 2.2779.119.4346.264.8797.368 1.3426.108.4606.217.9272.325 1.3886.112.4599.182.9228.272 1.3626.082.4413.178.8633.233 1.2621.014.4004.145 1.5651-.243-.5581.092.6132.153 1.2301.229 1.8434.042.3066.063.6154.087.9235l.072.9235c.16 1.2317-.071-2.4908.224.5939.05 1.2398-.012 1.2465-.04 1.5583-.007.0782-.012.1749-.013.3148-.005.1406-.009.3237-.008.5738-.005.5001.04 1.2666.022 2.4945-.058 3.0727-.144 6.1492-.686 8.5641-.038.3036-.133.7263-.24 1.239-.056.256-.115.5351-.179.8313-.063.2977-.153.6095-.234.9369-.084.3267-.172.6683-.263 1.021-.094.3506-.208.7085-.314 1.0746-.11.3639-.215.7375-.335 1.1096-.123.3699-.248.7435-.372 1.1156-.062.1853-.123.3713-.185.5559-.063.1838-.133.3646-.199.5454-.132.3617-.262.7182-.389 1.0657-.257.6943-.532 1.3425-.756 1.9342-.487 1.1683-.85 2.0867-.99 2.5205l-.121-.0364c-.166.3453-.418.925-.712 1.5203-.293.5954-.6 1.219-.825 1.6767l.046-.1198c-.322.5812-.353.6935-.311.6816-.048.1221-.064.1905.014.102l.056-.1474c.029-.023.059-.0491.07-.0431-.617 1.0567-.726.9987-2.039 3.0496l-.095.2605c-.248.3178-.79 1.0954-1.014 1.3552-.107.1324-.124.1436.033-.0864.076-.1168.206-.2857.371-.5425.167-.2545.385-.5879.663-1.012-.226.3051-.53.7136-.887 1.1944-.375.4688-.787 1.0202-1.254 1.5933-.481.564-.968 1.1869-1.518 1.7748-.27.2977-.537.6028-.811.8983-.281.2887-.562.5775-.838.8617-.139.1414-.275.2813-.412.4213-.141.1324-.28.2649-.417.3951-.275.2612-.541.515-.797.7576-.53.4629-1.013.8871-1.4226 1.2458-.8469.6772-1.3879 1.1088-1.3879 1.1088.2277-.2396.6452-.6422 1.1751-1.1394.2627-.2515.538-.5439.8394-.8431.15-.1503.304-.3051.461-.4629.156-.1607.306-.3319.464-.5008.309-.3424.64-.6802.947-1.0389.307-.3595.614-.7174.911-1.0657.295-.3498.562-.7055.824-1.0314.13-.1645.256-.323.377-.4748.119-.1541.225-.3074.331-.4488.294-.3267.655-.7375.824-.9123-.116.0975-.032-.0276.116-.2635.152-.2337.373-.5767.575-.8878.408-.6184.689-1.1371.1-.4547 1.383-1.9304 1.807-2.8324 2.06-3.3912.227-.5753.245-.8395.624-1.638.315-.5023.62-1.0113.932-1.5196.807-1.7585 1.536-3.5528 2.165-5.3827.056-.032.16-.1779.343-.6482.738-2.2549 1-3.7976 1.335-5.5367-.122.4777-.274.9481-.419 1.4199-.114.3669-.223.7352-.345 1.0991.12-.3631.171-.5827.212-.7531.049-.2151.072-.3617.143-.6497l.024.0067c.074-.2567.155-.5075.219-.759.064-.2516.128-.4986.19-.7427.122-.4875.255-.9593.347-1.4237.099-.4628.196-.9123.289-1.3469.085-.4369.154-.8611.227-1.2718.156-.8194.235-1.5941.336-2.3152.091-.7219.136-1.3968.196-2.0242.079-1.2562.12-2.3271.103-3.2424.011-.9168-.055-1.6752-.088-2.3122-.212-2.5451-.465-3.1211-.523-3.8913l.127.5752c-.385-2.6255-.917-4.9138-1.551-7.0377-.081-.265-.163-.5277-.243-.7896-.04-.131-.079-.2612-.119-.3915l-.137-.3832c-.183-.5098-.355-1.0173-.542-1.5189-.2-.4979-.399-.9942-.599-1.4906-.205-.4949-.435-.9801-.652-1.475-.905-1.9617-1.953-3.9263-3.275-6.0026-1.323-2.074-2.924-4.2604-4.986-6.6031.39.5194.786 1.0329 1.152 1.5687.372.5306.749 1.0553 1.095 1.6008-.118-.1414-.297-.3855-.556-.6996-.259-.314-.584-.7077-.966-1.1706-.385-.4606-.847-.9726-1.348-1.5501-.258-.2806-.531-.5753-.814-.8819-.285-.3058-.576-.6273-.896-.9436-2.4957-2.5838-5.9159-5.6156-9.6473-8.2396-3.7224-2.6352-7.7112-4.8811-10.9819-6.39705-.2047-.09675-.4041-.19126-.6021-.28428-.1979-.08856-.3936-.17488-.5849-.25972-.3832-.16967-.7509-.33191-1.1021-.48744-.7107-.288-1.3448-.57005-1.9096-.78363-.5634-.21879-1.0426-.40558-1.4266-.55516-.3862-.14214-.6735-.25228-.8484-.32521-2.6165-.93321-5.3068-1.65358-8.0364-2.14326-.2873-.02158-.5746-.04167-.8633-.05804-6.8867-.52912-13.9036.20688-20.5231 2.26753-4.1117 1.3894-8.0521 3.27816-11.6227 5.70496-3.5736 2.4163-6.8086 5.3239-9.5011 8.6749-.5752.5537-1.0939 1.1572-1.6372 1.7466l-.2024.2218-.192.2307-.384.4629c-.2537.3103-.5187.6139-.7657.931-.9779 1.274-1.9349 2.5838-2.7811 3.9709-.8163.7792-1.5598 1.6209-2.3374 2.473 1.2219-3.6309 2.8392-7.1896 4.9638-10.4841zm103.1665 52.9279c.055-.2381.064-.3601 0 0zm-121.09374-26.1767c.01191-.0737.01712-.1101.02902-.1823-.0186-.1392-.03348-.2679-.04093-.3915zm12.11694-27.5319c.0492-.0506.0834-.0856.1295-.1332-.029-.0037-.0238-.0476-.1295.1332zm13.932 89.0693c-.1287-.077-.2612-.161-.4353-.277.2166.153.3408.229.4353.277zm-.8998-4.518c.1146.08.2449.172.3513.246-.1764-.135-.2776-.203-.3513-.246zm9.6805-100.52895c.0208.02605.09.02828.1674.02307.0335-.01116.0581-.01935.0752-.02604zm73.7651 79.94265c.016-.003.039-.0171.069-.0461l.196-.5157c-.132.2574-.216.4398-.265.5618zm-49.9297-83.2148c.1354-.00298.2709-.00595.4063-.00967-.1794 0-.3111.00297-.4063.00967zm52.8837 71.2803c-.035.1027-.07.2054-.108.3081.043-.1146.078-.2151.108-.3081zm-21.7988-58.9298c.451.2753.9146.5313 1.3559.8216l.3609.2329c.2873.2776.573.5559.8529.8402.4509.4673.9064.9257 1.3492 1.3968-1.161-.9935-2.8093-2.3754-4.3126-3.4433-.2017-.1511-.4004-.2932-.5961-.4302.3327.1898.6646.3811.9898.582zm-29.4809-11.872c.0967.00893.1942.01935.291.02902-.1831-.01116-.3595-.02233-.5292-.03423-.4874-.032-.9927-.03051-1.498-.01935-.1697-.0186-.3416-.03721-.5187-.05433l-.6221.06326-.6214.08186c-.6177-.04019-1.2354-.09377-1.8545-.10716-.6192-.01786-1.2391-.05433-1.859-.04614l-.0045-.16596c1.827-.04316 4.4644-.0186 7.2164.25303zm-11.1918 1.0359c.0402-.01339.128-.03125.2709-.05507-.0916.01786-.1809.03721-.2709.05507zm61.5565 73.4325.044-.1213c-.085-.0231-.12.1674-.044.1213zm4.698-26.6367c.114.7442.244 1.3909.328 1.8583-.296-2.0629-.348-2.153-.328-1.8583zm-11.038 39.6183-.265.3512-.284.3394c-.19.227-.382.4539-.57.6891-.312.419-.407.5485-.364.5247.047-.0209.22-.2062.427-.4361.315-.4294.582-.7941.771-1.0516.18-.2641.285-.4167.285-.4167zm2.306-1.4929-.12.32c.324-.5425.289-.5343.12-.32z" stroke="#fff"/></svg>