<svg fill="none" height="81" viewBox="0 0 101 81" width="101" xmlns="http://www.w3.org/2000/svg"><g fill="#f7a600"><path d="m2.8265 28.5616c15.5475-3.381 31.4247-3.8318 46.1978 2.8941 14.7807 6.7272 25.4872 19.1942 32.1107 33.7694 1.7635 3.881 7.9297 2.0304 6.4185-2.1519-11.7256-32.4581-54.1426-52.9658-86.07219-37.2828-1.70716.8391-.22361 3.1126 1.34519 2.7712z"/><path d="m70.1422 60.2916c3.1684 6.5736 8.4674 13.4362 16.6923 10.1538 6.4718-2.5817 11.855-12.5521 8.9402-19.2204-.5912-1.357-2.5644-2.142-3.639-.7525-3.1536 4.0812-1.8615 10.3472-6.3391 13.6834-4.8361 3.6025-10.0086-2.1875-13.0171-5.5989-1.0539-1.1952-3.3323.2936-2.6373 1.7346z"/></g></svg>