<svg fill="none" height="41" viewBox="0 0 102 41" width="102" xmlns="http://www.w3.org/2000/svg"><g fill="#f7a600"><path d="m6.27676 1.30364c10.31764 12.11216 22.67334 22.09336 38.50034 25.69696 15.8339 3.6071 31.9059.1796 46.0079-7.3995 3.7548-2.0182 7.5379 3.191 3.8011 5.6017-28.9984 18.7112-75.1666 9.3157-91.05889-22.51013-.84932-1.702117 1.70861-2.6113643 2.74955-1.38903z"/><path d="m79.0499 16.8625c6.5042-3.3084 14.8783-5.5555 19.4312 2.0402 3.5829 5.976 1.8219 17.1691-4.5377 20.7066-1.2927.7211-3.3379.1496-3.3506-1.6069-.0349-5.1576 4.7905-9.3585 3.2508-14.7259-1.6632-5.7965-9.2867-4.326-13.7472-3.4358-1.5627.3119-2.4727-2.2532-1.0465-2.9782z"/></g></svg>