<svg fill="none" height="37" viewBox="0 0 57 37" width="57" xmlns="http://www.w3.org/2000/svg"><g fill="#f7a600"><path d="m49.9568 32.0642c-1.4302-.6335-2.8431-1.2971-4.2828-1.9126-.1982-.0881-.3989-.1749-.5971-.263-.3978-.1786.2807.1251-.105-.052-.4822-.2162-.962-.4192-1.4531-.6194-.32-.1327-.6425-.264-.9614-.4004-.1604-.0685-.3183-.1384-.4787-.2069-.6326-.2693.2901.1424-.2685-.1173-.5036-.2351-1.0093-.4626-1.5182-.6868-.1394-.0622-.6747-.3026-.1158-.051-.1554-.0712-.3114-.1405-.4657-.2155-.7037-.3237-1.3954-.6667-2.0798-1.02-1.3772-.707-2.7274-1.4767-4.0766-2.2357-2.7096-1.5295-5.3024-3.2695-7.7403-5.2024-.137-.1052-.271-.2135-.4063-.3245-.6661-.5265.3773.3242-.0309-.0217-.2993-.2512-.5947-.5011-.8872-.7544-.5886-.5077-1.1651-1.0284-1.7344-1.5593-1.1316-1.0641-2.2176-2.177-3.2737-3.3204-1.1735-1.2657-2.2895-2.5848-3.3448-3.95442-.2894-.37499-.5703-.75786-.8537-1.13934-.2912-.39005.3365.48248.0569.08134-.1462-.21391-.2974-.42517-.4436-.63907-.6307-.91086-1.1831-1.88979-1.9256-2.71131-1.1229-1.24018-3.06308-1.35418-4.38319-.40262-1.44391 1.0394-1.63901 2.7144-1.00262 4.28357.67337 1.64045 2.02564 3.19205 3.07891 4.59635.9553 1.2797 1.9685 2.5184 3.0306 3.7114 2.2623 2.5435 4.7959 4.8248 7.4549 6.9502 5.201 4.162 11.0235 7.3807 17.3811 9.4016 3.5773 1.1415 7.2816 1.6185 11.0231 1.3772 1.5496-.0957 1.7665-1.9907.4035-2.5916z"/><path d="m12.9098 22.0915c-.418-3.1479-1.1155-6.2501-1.9218-9.3223-.1617-.6154-.292-1.2319-.4119-1.8556-.0472-.3299-.0526-.3606-.019-.0825-.0142-.1829-.0218-.3599-.0245-.5394-.0011-.1707.1412-1.20048-.0129-.49412.0438-.20307.4216-1.06739.0634-.41552.0287-.04756.305-.61985.3706-.61694-.2649.30352-.281.32985-.0465.07963.2662-.22416.2324-.2155-.0978.03531.1281-.0886.2604-.16976.3974-.23912.3165-.14892.2649-.12898-.1527.05221.1397-.04361.2799-.07461.4197-.09742-.4746.03747-.536.04828-.1826.02671.137.00753.8116-.05975.8941.05414-.1393-.02067-.2811-.03999-.4223-.06123.1515.02847.3027.06516.4519.10127.3031.07774.6009.16637.8972.26701 1.3507.45393 2.6763.99186 4.0095 1.49047 1.4986.5644 2.9989 1.1231 4.4955 1.6869.8005.2986 1.5989.5902 2.4224.8186.9716.2684 1.9883.357 2.9871.4922 1.19.163 2.5423-.939 2.8217-2.059.3127-1.2535-.137-2.54893-1.2361-3.26875-1.3686-.88941-2.7797-1.61482-4.3134-2.19386-1.3473-.50697-2.703-.99979-4.0527-1.49911-2.5212-.93324-5.0021-2.03731-7.7024-2.31316-1.3934-.1425-2.82321.13015-4.08342.73382-1.511.7202-2.52172 2.09845-3.12006 3.62016-1.0125 2.56419-.37576 5.3262.56649 7.7947 1.1656 3.0587 2.47915 6.074 4.04761 8.945.37868.6966 1.24468 1.0125 1.97618.7191.7848-.3192 1.0858-1.0441.9793-1.8592z"/></g></svg>