<svg fill="none" height="119" viewBox="0 0 120 119" width="120" xmlns="http://www.w3.org/2000/svg"><g clip-rule="evenodd" fill-rule="evenodd"><path d="m66.2194 77.4688c-.6919.9798-1.3315 1.9943-2.1115 2.916-4.9149 5.8032-11.1156 9.2774-18.6602 10.2978-1.674.2276-3.3643.343-5.047.5075-2.319.2286-4.6261.5165-6.8656 1.2152-1.2163.3822-2.1906-.5144-1.9215-1.7636.4316-2.009.3176-3.9917-.0893-5.9799-.3461-1.6814-.8361-3.3241-1.2636-4.9827-1.5973-6.2113-1.0293-12.2376 1.5574-18.0951.2465-.5577.5442-1.095.82-1.6411.1949-.1724.4439-.1844.6829-.2311 1.3202-.2616 2.6314-.5668 3.9297-.9223 3.7601-1.0232 7.3944-2.4116 10.9742-3.9444.286-.1215.5544-.3266.9018-.2619.2113.3917.484.7303.8021 1.0421 2.8983 2.8388 6.121 5.2479 9.6065 7.3195.4417.2624.9019.4915 1.4108.6011.9906.2128 1.7382-.1798 2.1285-1.1201.1596-.3857.2338-.7978.2705-1.2121.0288-.3162.056-.6304.083-.9481.1734.1467.148.3545.1531.5455.0541 1.9877.307 3.957.5352 5.9283.2999 2.5821.7238 5.1414 1.3364 7.6671.2457 1.0234.5104 2.0398.7666 3.0623zm-28.9234-12.1567c.0151.0324.0234.0689.0362.0732.0958.022.19.046.2862.0521 4.2337.2911 7.8733 2.0182 11.145 4.6129 2.9037 2.3031 5.2086 5.1475 7.297 8.1819.1466.2093.3036.4141.4551.6176.4731-.2383.8012-.5796 1.139-.8898.448-.4134.9011-.8291 1.2677-1.3278 1.4061-1.9049 1.4742-3.4651.2439-5.5082-.0777-.1246-.1518-.2495-.2346-.3719-1.9334-2.8313-4.398-5.0968-7.3194-6.8843-2.6017-1.5857-5.4519-2.5107-8.376-3.2558-.5451-.1403-1.1039-.2103-1.6699-.2177-.8158-.0059-1.4.325-1.7578 1.08-.6133 1.2888-1.4191 2.4572-2.347 3.542-.0724.0894-.1886.1648-.1654.2958zm9.4549 11.2618c-2.1718-1.8115-4.1847-3.2429-6.2339-4.6198-.7916-.529-1.6301-1.0028-2.5701-1.2251-1.5456-.3646-2.0812.1253-2.2975 1.4356-.005.0252-.0154.0492-.0153.0722-.1425 1.2155-.3352 2.4246-.3688 3.6505-.047 1.686.2099 3.3182.9548 4.849 1.0442 2.1509 2.7429 3.4474 5.1035 3.873.7521.1353 1.5066.1711 2.2666.1231 2.1082-.1417 4.084-.7916 5.9677-1.6997 1.4624-.7078 1.6282-1.6417.6377-2.9481-1.0772-1.4125-2.3586-2.6147-3.4447-3.5107z" fill="#e3000b"/><path d="m49.1068 54.5743c-.3439-.0651-.6124.1401-.9.2635-3.5818 1.5312-7.2142 2.9212-10.9744 3.9445-1.2983.3555-2.6096.6607-3.9299.9223-.239.0467-.4895.0606-.6828.2311-.3727-.1123-.7279.0292-1.0853.0806-3.3072.4764-6.6249.7836-9.9657.5734-1.723-.1086-3.407-.4102-4.9399-1.2651-1.0573-.5901-1.8647-1.4173-2.3575-2.5351-.3749-.8477-.4015-1.7088-.038-2.5671.1246-.2941.2435-.593.4127-.8624.904-1.4391 1.5146-3.0183 2.1625-4.5759.6318-1.5154 1.299-3.0108 2.3473-4.3113.9101-1.1294 2.0185-1.983 3.3415-2.5763 1.4665-.6586 3.0043-1.0537 4.582-1.3103 8.5823-1.4002 17.0449-1.0285 25.3506 1.6732 1.3735.4482 2.7047 1.0082 4.0446 1.5426.2234.0875.4353.2275.6886.2257.482.3423 1.0528.5141 1.5576.8102.7136.4204 1.4273.8213 1.9586 1.5034.6108.7853.5842 1.7518-.3166 2.6074-.5606.531-1.2614.8257-1.9412 1.1576-.8568.4212-1.7504.7621-2.5506 1.2903-.2014.0718-.413.1287-.6127.2217-1.9007.874-3.7992 1.7532-5.6942 2.6321-.1749.0714-.3711.1217-.4572.3239z" fill="#f7a600"/><path d="m55.8672 51.4143c.8001-.528 1.6935-.869 2.5503-1.2901.6798-.3319 1.382-.6283 1.9409-1.1574.9026-.8539.9274-1.8221.3167-2.6073-.5312-.682-1.2449-1.0829-1.9584-1.5032-.5047-.2961-1.0771-.466-1.5575-.8102-1.2018-3.1389-.8736-6.1849.7609-9.0588 2.2798-4.0111 5.7715-6.1584 10.402-6.4023 1.1774-.0582 2.3535-.0028 3.5084.2244.4393.0836.6635-.0344.8657-.4201.3737-.712.8356-1.3853 1.2017-2.1038.8909-1.748.6869-3.0601-.6389-4.4995-.5156-.5575-1.0755-1.0705-1.5335-1.6807-.434-.5768-.7196-1.2245-.7848-1.951-.1265-1.4037.92-2.2963 2.2868-1.9486.9905.2553 1.7329.8965 2.3681 1.6566 1.5101 1.805 2.1528 3.9239 2.1554 6.2544.0008 1.7918-.4387 3.4895-1.1163 5.1362-.3598.881-.3435.885.4965 1.3142.8515.4389 1.6542.9509 2.4001 1.5493.4914.393.4915.3929 1.0229-.0186 1.0078-.7813 2.0456-1.5207 3.2251-2.0257 2.6585-1.1397 5.342-1.3741 8.0534-.1965.8457.3685 1.5911.8747 2.1007 1.6596.8365 1.2873.2556 2.6034-1.2553 2.8509-.8759.1463-1.7048-.041-2.4964-.4194-.574-.2761-1.1353-.571-1.7125-.8433-1.572-.7505-2.9796-.5169-4.2503.687-.4832.4589-.9174.9526-1.3626 1.4437-.1836.2015-.2458.3717-.1067.64 1.8421 3.5725 1.4334 7.0612-.4996 10.4423-1.3338 2.3293-3.2988 4.0559-5.5662 5.4446-1.5996.9781-3.2975 1.7287-5.1293 2.1467-.1701-.0424-.3088-.1335-.4406-.2482-.6455-.5626-1.3342-1.0701-2.0548-1.5324-.7876-.5027-1.6001-.9414-2.5236-1.1367-1.165-.2424-1.962.2164-2.3312 1.3481-.0748.2313-.1185.476-.1499.718-.2011 1.6014-.3628 3.2065-.4885 4.8193-.0166.2282.0681.5029-.2279.6324-.1742-.1998-.1353-.4583-.181-.6902-.2011-1.0412-.5171-2.0355-1.0264-2.9675-.9489-1.7263-2.3796-2.806-4.3077-3.2324-.6423-.1374-1.3003-.1637-1.9557-.2238z" fill="#e3000b"/><path d="m63.367 58.5329c.296-.1294.2113-.4043.2279-.6326.1242-1.6114.2856-3.2206.4887-4.8209.0314-.242.0751-.4867.1499-.7182.3658-1.1317 1.1647-1.5926 2.332-1.3485.9238.1954 1.7365.6342 2.5244 1.1371.7224.4605 1.4098.9701 2.0554 1.5328.1318.1148.2725.2076.4408.2484.0926.2422.3126.3726.4959.531 2.0872 1.789 4.0008 3.7522 5.7281 5.8852 1.2844 1.5782 2.2685 3.3642 3.2354 5.1552 2.3937 4.4297 3.9936 9.1442 5.0237 14.0645.5145 2.4761.9814 4.9544.9148 7.4989-.0321 1.1586-.1737 2.2999-.6816 3.3638-.6213 1.3022-1.6562 1.953-3.0929 1.9886-.3503.0082-.6913-.0412-.9872-.2326-.8483-.5474-1.7987-.7424-2.7822-.8441-2.1138-.2195-4.0559-.9161-5.7839-2.1556-1.6524-1.1819-2.9942-2.6613-4.0923-4.3668-1.3201-2.0538-2.2729-4.275-3.0483-6.582-.083-.2537-.1232-.5269-.2938-.7466-.2563-1.0227-.5211-2.0394-.7685-3.0611-.6127-2.5264-1.0366-5.0864-1.3366-7.6692-.2283-1.9718-.4812-3.9416-.5353-5.9298-.0052-.1911.0203-.3989-.1532-.5457l-.0023.0144c.0856-.1011.1281-.2093.0732-.3377l-.0022.018c.0765-.4266.197-.8588-.1049-1.2518l.0005.0071c.0979-.081.1132-.1531-.0197-.2164z" fill="#f7a600"/><path d="m37.2903 65.3116c-.0251-.1327.093-.2065.1676-.2908.9282-1.0851 1.7378-2.2543 2.3478-3.5432.3579-.7553.9404-1.088 1.7585-1.0805.5678.0055 1.1269.0754 1.6706.2177 2.9251.7453 5.7764 1.6707 8.379 3.257 2.9225 1.7882 5.3861 4.053 7.3221 6.8869.0828.1225.1569.2476.2345.3722 1.2308 2.0439 1.1627 3.6047-.244 5.5103-.3666.4989-.8199.9146-1.268 1.3282-.3395.3123-.6661.6518-1.1394.8901-.1515-.2036-.3086-.4085-.4553-.6178-2.0875-3.0375-4.395-5.881-7.2997-8.1849-3.2729-2.5957-6.9138-4.3234-11.149-4.6147-.0947-.008-.1905-.0301-.2863-.0522-.0149-.0094-.0233-.0459-.0384-.0783z" fill="#fff"/><path d="m46.7574 76.5684c1.0863.8962 2.3716 2.0985 3.4385 3.5123.9892 1.3087.8233 2.2428-.6378 2.9489-1.8842.9083-3.8587 1.56-5.9694 1.7002-.7583.0496-1.5148.012-2.2671-.1233-2.3577-.426-4.0569-1.7227-5.1049-3.8739-.7451-1.5313-1.0022-3.1639-.9552-4.8505.0336-1.2261.2264-2.4356.369-3.6514.0034-.0234.0119-.0489.0153-.0722.2182-1.3091.7521-1.8008 2.298-1.436.9403.2224 1.7771.6946 2.5709 1.2254 2.0567 1.3767 4.0702 2.8085 6.2427 4.6205z" fill="#fff"/><path d="m55.8763 51.405c.6559.0636 1.3138.0863 1.9639.2303 1.9288.4265 3.36 1.5066 4.3092 3.2335.5111.9304.8256 1.927 1.0268 2.9685.0457.232.0068.4906.1811.6905l.0039-.0163c-.0855.0817-.0655.1509.0197.2164l-.0006-.0071c-.0605.4271-.0807.849.105 1.2519l.0021-.018c-.1561.084-.1083.213-.0732.3377l.0024-.0144c-.0289.3163-.0543.6323-.0832.9485-.0383.4164-.1108.8267-.2705 1.2124-.3904.9406-1.1365 1.3313-2.129 1.1204-.509-.1097-.9679-.3406-1.4113-.6012-3.4846-2.0705-6.71-4.482-9.6091-7.3215-.3166-.3138-.5908-.6508-.8022-1.0426.0842-.2038.2823-.2523.4564-.3343 1.899-.8795 3.7961-1.7606 5.6957-2.633.1978-.0946.4094-.1514.6129-.2217z" fill="#fff"/><g fill="#e3000b"><path d="m63.4879 59.9706c-.1879-.4044-.168-.8262-.106-1.2514.3041.3947.184.8266.106 1.2514z"/><path d="m63.418 60.2934c-.0352-.1247-.0831-.2536.073-.3375.055.1283.0126.2364-.073.3375z"/><path d="m63.3814 58.7278c-.0868-.0637-.1051-.1349-.0197-.2164.1329.0633.116.1375.0197.2164z"/></g></g></svg>