<svg fill="none" height="8" viewBox="0 0 77 8" width="77" xmlns="http://www.w3.org/2000/svg"><path d="m72.1222 5.25464c-1.5994-.45756-3.6047-.16084-5.4134-.00501-17.0256 1.45816-33.7231 1.79644-50.3408 1.82665-3.4472.00565-6.73748-.18478-9.90417-.57309-.82523-.10193-1.64184-.2276-2.38355-.39934-2.12595-.49483-3.9962587-1.16654-3.259863-2.58067.699793-1.34234 3.129223-1.96817 5.602103-2.37608 2.89431-.476637 5.83558-.749559 8.70498-.791246 13.974-.207369 28.0516-.632739 41.6347.052748 5.3018.265207 10.4681.716688 15.9437.737168 4.702.01876 5.1971 1.6964 1.3987 3.77516z" fill="#f7a600"/></svg>