<svg fill="none" height="8" viewBox="0 0 77 8" width="77" xmlns="http://www.w3.org/2000/svg"><path d="m5.15714 6.03611c1.59936-.45756 3.60462-.16085 5.41336-.00501 17.0256 1.45816 33.7231 1.79643 50.3407 1.82664 3.4473.00566 6.7376-.18478 9.9043-.57309.8252-.10193 1.6418-.2276 2.3835-.39933 2.126-.49484 3.9963-1.16654 3.2599-2.58067-.6998-1.34235-3.1292-1.96818-5.6021-2.37609-2.8943-.47663-5.8356-.74955-8.705-.79124-13.974-.207371-28.0516-.632741-41.6347.05275-5.3018.2652-10.4681.71669-15.94375.73716-4.70195.01876-5.197072 1.6964-1.39867 3.77516z" fill="#f7a600"/></svg>