<svg fill="none" height="570" viewBox="0 0 493 570" width="493" xmlns="http://www.w3.org/2000/svg"><path d="m476.094 192.14c-.006-.192-.042-.655-.213-.813-.503-.461-2.576-.353-3.256-.317-3.559.187-3.526 1.123-3.5 1.876 4.099 116.196 16.655 337.936 16.782 340.163.084 1.463-.305 4.368-1.704 5.927-.136.152-.417.628-.622.976-.805 1.364-1.805 3.062-3.613 3.156l-41.942 2.198c-1.407.074-1.789 1.032-1.987.105-29.947 2.427-68.659 2.945-114.846 5.366-113.286 5.937-241.2946 10.034-277.8293 11.148-1.1737.037-1.8396.057-1.9595.061-3.5819.133-6.8316-2.832-7.0947-6.478-.3118-4.305-3.0769-42.335-5.3097-66.864-4.4017-70.404-6.2762-141.691-8.0897-210.632l-.0034-.121c-.7316-27.832-1.4878-56.611-2.4032-85.026-2.0126-57.301-11.20942-163.7703-11.30195-164.8289-.14831-1.7025.37965-3.3414 1.4843-4.619 1.10481-1.2745 2.64835-2.0304 4.34865-2.1265.2856-.016 29.7519-1.6994 72.4982-3.9396 71.0233-3.7222 168.9383-8.47519 232.0733-9.97748l.123-.00448c1.86-.09745 3.337-1.70296 3.294-3.57826-.023-.93408-.408-1.80413-1.084-2.44865-.677-.645467-1.564-.988505-2.498-.965588-63.137 1.502388-161.024 6.252938-232.0249 9.973958-40.2927 2.1116-69.508 3.7689-72.7068 3.9506-3.67805.2107-6.95918 1.8227-9.31411 4.5416-2.35487 2.72-3.4779917 6.2056-3.164758 9.8131.379755 4.3992 9.298608 108.0872 11.279468 164.4762.9205 28.608 1.6762 57.34 2.4064 85.126 1.8145 69.034 3.6911 140.42 8.1043 210.967l.0143.234c2.3217 25.499 5.2894 66.649 5.3175 67.053.5461 7.572 7.1239 13.739 14.3625 13.466.1129-.004.6868-.021 1.6926-.052 29.3112-.877 132.8955-4.154 235.1785-9.514 21.4-1.122 42.762-2.069 63.42-2.986 19.637-.871 38.186-1.694 55.802-2.617 15.874-.832 29.148-1.913 40.617-2.514l41.91-2.196c2.704-.142 5.684-2.069 9.11-5.889 2.507-2.796 3.652-7.977 3.457-11.432-.127-2.23-12.705-224.351-16.808-340.638z" fill="#e3000b"/></svg>