<svg fill="none" height="32" viewBox="0 0 40 32" width="40" xmlns="http://www.w3.org/2000/svg"><path d="m20.5917 28.8961c.0591.8525.8645 1.9118 1.5272.7972.6017-.605 2.0789.7443 3.6407-.7505 1.1793-.9943 2.0186-2.1496 2.9646-3.2676.9926-1.664 1.8187-3.4613 2.4829-5.2881.2098-1.4211.8035-2.6527 1.1335-4.0209.4511-1.5128.409-3.0001.4679-4.5185.1054-2.71824-3.3398-6.02146-3.279-6.388.0271-.98527-.6631-2.73339-2.1058-1.52814-.5802.39927-1.1813-.41583-1.74-.22395-.7108.13281-.9455-.1286-1.5552-.19016-2.3402.50309-4.4012 3.43764-5.0549 5.74804.1273.83081.2806 2.31421.0735 3.53911-.06.5397-.2906 1.3597.044 1.9403-.3422.7459-.1584 1.3977.0157 2.225-.0286.9806.177 1.5468.3483 2.2142.1214.4733-.757.645-.5627 1.098.4046.5285.5446 1.0542.4387 1.1954-.682.9723-.0516 1.953.2941 3.1689.3675 1.0858-.5474 2.8844.5323 3.6691.1893.131.3522.336.3342.5806z" fill="#e3000b"/><path d="m24.9098 27.3273c.4332.7367.3677 2.0657-.8091 1.5209-.8383-.1589-1.2941 1.7892-3.4274 1.439-1.5349-.1535-2.8803-.6321-4.2926-1.0195-1.7595-.8115-3.457-1.8271-5.0375-2.9585-.9764-1.0537-2.1624-1.734-3.20802-2.676-1.22732-.9929-2.0333-2.2436-2.94023-3.4628-1.62359-2.1827-.64896-6.855-.90631-7.123-.57936-.7974-.99825-2.6296.87315-2.4509.70429.0013.7394-1.01085 1.3087-1.16838.66147-.29231.70725-.64058 1.17543-1.03606 2.21473-.90786 5.57368.34773 7.41898 1.88404.3647.7572 1.0768 2.0676 1.9401 2.9609.3546.4113 1.0083.9574 1.0605 1.6253.704.4219.9208 1.0635 1.2448 1.8444.578.7926.7284 1.376.9645 2.0233.1674.4591.989.1042 1.0848.5877-.035.6646.1467 1.1774.3139 1.234 1.1122.4165 1.1465 1.5818 1.5487 2.7802.3107 1.1034 2.0821 2.0699 1.6351 3.3275-.0821.2151-.1006.4763.0525.6679z" fill="#f7a600"/></svg>