<svg fill="none" height="92" viewBox="0 0 189 92" width="189" xmlns="http://www.w3.org/2000/svg"><g fill="#e3000b"><path d="m16.3381 1.84967c16.2146 24.07243 36.5609 44.70073 64.5087 54.48213 27.9592 9.7891 57.7952 6.8761 84.9112-3.9661 7.221-2.8873 13.008 7.3314 5.74 10.9338-56.403 27.9616-138.1572 1.4528-160.4289-59.49664-1.18997-3.25958 3.6331-4.38248 5.269-1.95319z"/><path d="m145.052 44.9927c12.469-4.6613 28.109-7.0151 34.802 7.6874 5.267 11.5675-.222 31.4943-12.476 36.6004-2.492 1.0417-6.081-.4141-5.744-3.6005.996-9.3556 10.605-15.9794 8.916-26.0243-1.825-10.848-15.945-9.7477-24.212-9.05-2.897.2445-4.02-4.5917-1.286-5.613z"/></g></svg>