<svg fill="none" height="132" viewBox="0 0 1144 132" width="1144" xmlns="http://www.w3.org/2000/svg"><path d="m1078.26 131.135c1.01-.313 2.07-.457 3.05-.841 6.83-2.679 13.23-6.255 18.62-11.173 11.12-10.157 21.69-20.8842 30.6-33.1086 4.8-6.5895 8.93-13.5629 11.55-21.3129 3.67-10.8644 1.49-22.662-9.4-30.4591-7.39-5.2961-14.85-10.4934-22.59-15.2703-7.78-4.8006-16.01-8.7989-23.95-13.30555-3.42-1.94338-6.91-3.77304-10.64-5.042886-5.18-1.761054-10.2.293846-12.57 5.220936-2.4 4.9614-1.55 9.6697 1.45 14.1378 2.9 4.305 6.76 7.5568 11.19 10.1373 6.61 3.8524 13.33 7.5204 19.94 11.3706 5.52 3.2133 10.97 6.5445 15.91 10.635.78.6478.77 1.0576.18 1.8169-3.43 4.408-7.1 8.6057-11 12.6062-.55.5641-1.08 1.1325-1.68 1.7653-.26-.6135-.1-1.0231-.05-1.4243.61-4.5989-.12-8.9875-2.54-12.9301-4.22-6.8919-10.63-10.2188-18.61-10.0751-11.46.2081-22.92.783-34.38 1.1819-17.01.5878-34.02.9739-51.036 1.2592-22.476.3753-44.951.652-67.433.6713-69.383.0601-138.767-.3561-208.15.577-17.651.2359-35.3.3647-52.952.5449-19.98.2016-39.961.5084-59.94.5813-46.778.1673-93.557.2102-140.335-.1373-21.759-.1609-43.516-.2874-65.275-.5298-24.846-.2789-49.693-.6457-74.537-1.0189-20.148-.3025-40.292-.6843-60.438-1.0082-17.057-.2724-34.114-.5491-51.173-.7464-22.263-.2553-44.531-.4247-66.796-.6457-30.097-.3003-60.1867-1.0553-90.2855-.8687-14.5475.0901-28.9834 1.523-43.3485 3.698-3.48995.5298-6.47151 2.16-8.70876 4.9979-1.33205 1.6902-2.001304 3.6851-2.756348 5.6478.178036.3367.094333.6585-.062253.9717.057916.2767.051527.5426-.113639.7829.0622053 2.2415.175879 4.4637 1.03388 6.5852 1.85758 4.5796 5.34752 7.3337 9.97642 8.6529 18.4321 5.251 37.2095 8.2455 56.3945 8.8589 20.5192.6564 41.0402 1.0962 61.5682 1.3621 23.786.3089 47.574.5792 71.362.9052 26.116.3561 52.229.7529 78.343 1.1455 18.539.281 37.076.562 55.613.8794 37.456.6478 74.917 1.0167 112.38 1.272 22.647.1544 45.294.1673 67.941.281 33.144.1652 66.291.0064 99.434-.2488 41.27-.3175 82.538-.7915 123.81-1.2269 48.638-.5127 97.278-.429 145.916-.3518 26.71.0429 53.422.0707 80.132-.191 25.06-.2445 50.116-.7206 75.156-1.4907 12.95-.399 25.89-.916 38.84-1.375 1.72-.0601 3.42-.3303 5.41-.7572-1.36 1.4114-2.54 2.6019-3.68 3.8245-6.41 6.8619-11.18 14.7366-14.22 23.5926-1.4 4.07-1.98 8.304-.68 12.581.26.854.61 1.669 1.07 2.432 2.32 4.271 10.61 4.531 12.46 4.563z" fill="#f7a600"/><path d="m125.042 104.91c-.746-.635-1.679-.39-2.503-.403-8.749-.161-17.471-.82-26.197-1.375-11.7653-.751-23.4449-2.27-35.1223-3.8356-10.0065-1.3406-19.9636-2.9343-29.8671-4.8627-2.0335-.3947-4.0284-.9288-5.9439-1.7096-1.5723-.6392-2.2201-1.731-1.8211-2.9816.3539-1.1003 1.4693-1.613 3.0352-1.3534 11.3256 1.8769 22.7328 3.1596 34.1357 4.4723 5.7851.6671 11.6088.9503 17.4218 1.3406 5.725.3862 11.4393.9567 17.1622 1.39 4.2085.3196 8.4235.5706 12.6385.813 7.207.4161 14.417.8129 21.626 1.2054 5.017.2746 10.036.5106 15.054.7959 6.827.3882 13.657.7572 20.48 1.2184 12.602.8533 25.189 2.0503 37.849 1.4023.583-.032 1.667-.39 1.643.53-.021.826-1.096.511-1.716.524-6.296.124-12.598.109-18.889.356-3.874.15-7.728.72-11.598 1.04-3.196.264-6.399.511-9.603.637-5.785.223-11.575.352-17.36.53-.309.009-.695-.154-.89.262h-4.82c-.171-.346-.5-.253-.779-.253-3.76-.018-7.522-.028-11.282-.028-.309 0-.697-.153-.875.281h-1.779z" fill="#fff"/></svg>