<svg fill="none" height="31" viewBox="0 0 358 31" width="358" xmlns="http://www.w3.org/2000/svg"><path d="m6.36115 22.9546c44.50085-2.9423 88.95475-5.4181 133.46585-5.7369 44.303-.3192 88.526 1.0633 132.672 4.1447 12.394.8662 24.781 1.8739 37.163 2.9156 12.586 1.0585 25.167 2.768 37.782 3.3888 9.246.4531 10.387-16.0786 1.313-17.4041-10.988-1.6051-22.162-2.0891-33.23-2.88428-11.091-.79635-22.191-1.44382-33.299-1.96474-22.224-1.0467-44.475-1.56597-66.731-1.8824-44.77-.63591-89.516.76549-134.3163 3.09764-25.103 1.30602-50.1317 3.20895-75.18005 6.06088-4.74509.5386-4.45303 10.5847.3605 10.2648z" fill="#e3000b" stroke="#fff" stroke-width="5"/></svg>