<svg fill="none" height="188" viewBox="0 0 365 188" width="365" xmlns="http://www.w3.org/2000/svg"><path d="m38.7581.592509c-15.31-.860474-28.5012 12.204291-29.46251 29.188991l-8.745908 104.5055c-.961294 16.985 13.292718 35.039 28.602718 35.9 0 0 55.8716 3.154 100.5436 5.676 44.672 2.521 108.147 6.11 108.147 6.11l88.682 5.007c15.31.861 22.542-14.07 29.465-29.186 6.923-15.125 8.912-108.0181 8.912-108.0181.966-16.9845-13.459-31.5268-28.769-32.3872 0 0-66.516-6.3985-83.31-6.5524-35.301-.3013-74.342-4.58454-74.342-4.58454s-74.597-3.84938-83.3342-4.34046c-8.7389-.50176-56.3887-1.318791-56.3887-1.318791z" fill="#fff"/></svg>