<svg fill="none" height="147" viewBox="0 0 359 147" width="359" xmlns="http://www.w3.org/2000/svg"><path d="m26.8238 16.2885c-15.235.8228-27.016627 12.0546-26.312219 25.0784l1.533279 80.4461c.70089 13.04 16.56844 25.413 31.80554 24.59 0 0 55.5994-2.986 100.0536-5.379 44.454-2.392 107.621-5.784 107.621-5.784l88.252-4.746c15.232-.823 20.932-12.887 26.311-25.084 5.378-12.1917-1.709-83.1369-1.709-83.1369-.707-13.03166-16.394-22.71269-31.629-21.891996 0 0-66.45 1.536026-83.083 3.039036-34.963 3.17989-74.015 3.68877-74.015 3.68877s-74.2018 4.26709-82.8941 4.73679c-8.697.4639-55.9341 4.4428-55.9341 4.4428z" fill="#fff"/></svg>