<svg fill="none" height="192" viewBox="0 0 361 192" width="361" xmlns="http://www.w3.org/2000/svg"><path d="m26.6453 15.3378c-15.3147.7719-27.01392 15.6884-26.129164 33.3252l2.629074 108.825c.88475 17.637 17.01269 34.728 32.32739 33.956 0 0 55.8904-2.802 100.5774-5.043s108.184-5.419 108.184-5.419l88.712-4.447c15.315-.772 20.887-16.969 26.132-33.324 5.244-16.363-2.844-112.4678-2.844-112.4678-.881-17.6371-16.798-31.084277-32.113-30.312411 0 0-66.825.607651-83.539 2.269811-35.129 3.5167-74.408 3.32858-74.408 3.32858s-74.583 4.11512-83.323 4.55562c-8.7428.4296-56.2057 4.753-56.2057 4.753z" fill="#fff"/></svg>