<svg fill="none" height="507" viewBox="0 0 839 507" width="839" xmlns="http://www.w3.org/2000/svg"><path d="m824.774 149.836c3.108 59.304 4.2 96.358 6.544 174.736 1.338 44.4 7.182 124.838 7.241 125.646.277 3.562-.896 7.032-3.27 9.74-2.393 2.729-5.706 4.344-9.328 4.548-2.406.136-473.822 25.759-598.414 29.318-1.931.055-3.504-1.464-3.598-3.399-.056-1.932 1.466-3.543 3.399-3.599 124.495-3.557 595.814-29.174 598.22-29.31 1.73-.098 3.314-.869 4.458-2.175 1.126-1.284 1.681-2.939 1.552-4.609-.059-.815-5.911-81.4-7.257-125.95-3.226-107.884-5.393-162.464-10.308-239.6715l-3.771-71.9403c-.086-1.6507-.838-3.18244-2.117-4.31106-1.322-1.1674-3.079-1.76528-4.822-1.6409-1.438.10345-144.804 10.37676-221.002 12.38936-114.493 5.012-566.8395 28.7064-569.0554 28.8226-3.50021.1834-6.09203 3.1782-5.90126 6.8182l3.29716 62.9136c4.7682 64.232 5.5411 101.756 7.7046 165.087.9266 27.121 1.8856 55.164 3.0298 82.729l.7151 13.741c2.1799 41.977 4.2338 81.626 8.1886 122.79.1999 1.903-1.2246 3.633-3.1495 3.818-1.924.185-3.6331-1.225-3.8181-3.149-3.9708-41.318-6.0295-81.039-8.2116-123.097l-.7169-13.775c-1.1476-27.629-2.1062-55.685-3.0336-82.818-2.16078-63.262-3.32953-100.696-7.69483-164.884l-3.301138-62.9893c-.3895887-7.4338 5.229318-13.7926 12.525268-14.1749 2.216-.1162 454.5938-23.8123 569.1768-28.8279 76.101-2.0086 219.308-12.271544 220.745-12.374936 3.607-.2591052 7.236.970636 9.958 3.374496 2.699 2.38298 4.288 5.64828 4.474 9.19244l3.768 71.9013c1.348 21.1708 2.6 42.7438 3.773 65.1308z" fill="#f7a600"/></svg>