<svg fill="none" height="20" viewBox="0 0 167 20" width="167" xmlns="http://www.w3.org/2000/svg"><path d="m3.81783 19.9357c2.476-.238 4.95598-.289 7.43297-.541 2.583-.266 5.159-.592 7.738-.895 5.061-.593 10.128-1.146 15.198-1.664 10.142-1.031 20.29-1.664 30.466-2.254 20.26-1.175 40.5192-1.676 60.8112-1.535 5.699.04 11.397.141 17.096.217 5.765.078 11.643.59 17.394.242 3.45-.208 6.786-2.895 6.619-6.61904-.173-3.871-2.916-6.258987-6.619-6.618987-5.039-.488-10.233-.1680001-15.294-.125-5.101.045-10.198.163998-15.296.335998-10.201.347-20.39.931989-30.5802 1.532989-20.51 1.213-40.891 3.32901-61.315 5.50401-5.669.604-11.332 1.25599-16.99 1.95299-2.97.367-5.945.71304-8.905 1.15204-2.96199.439-5.84899 1.123-8.79299 1.643-4.293.756-3.356983 8.096 1.03702 7.672z" fill="#f7a600"/></svg>