<svg fill="none" height="39" viewBox="0 0 44 39" width="44" xmlns="http://www.w3.org/2000/svg"><path d="m9.18822 22.0314h-.00027c-.23099-.0423-.59259-.0348-1.19546-.0116l-.03743.0014c-.54541.021-1.22007.0469-1.9201-.0094-1.45648-.1172-3.15008-.6021-4.37674-2.2962-.49164-.6789-.754818-1.4291-.626-2.2009.12752-.7639.60449-1.3389 1.1503-1.7476 1.05706-.7915 2.69517-1.2115 4.29401-1.3718 3.86317-.3878 7.19737.5871 9.14567 1.353-.9455-.8609-1.9097-1.8198-2.5987-2.5786-.7585-.8348-1.9134-2.5935-2.8565-4.25596-.47809-.84284-.92017-1.6932-1.24429-2.42709-.16175-.36622-.30077-.71834-.40006-1.03514-.09236-.29471-.17845-.64392-.17125-.97272v-.00001c.01539-.70173.39129-1.24195.89813-1.57991.47471-.31654 1.06357-.46389 1.64967-.51038 1.1828-.09383 2.6671.19707 4.1482.87794l-.4177.90859.4177-.90859c1.6458.75663 3.1562 2.58825 4.3044 4.40464 1.1735 1.85635 2.1066 3.92013 2.5163 5.38833.0185.0661.0365.1312.054.1952.1715-1.5506.6195-3.40274 1.573-5.14951l.0001-.00008c.2176-.39867.4364-.81815.6575-1.24227.4762-.91334.9637-1.84822 1.476-2.64327.763-1.18396 1.7216-2.29978 3.096-2.80994l.0002-.00008c.4284-.15892.9341-.32251 1.449-.38376.5193-.061751 1.1303-.029316 1.7011.2939 1.1725.66393 1.5818 2.1657 1.5542 4.22187m-24.24098 16.48994 23.24108-16.50338m-23.24108 16.50338c.15814.0289.36206.0715.60216.1216.88832.1854 2.27192.4743 3.66612.556.396.0233.8135.0317 1.2389.0139-.5047.3737-.986.788-1.4603 1.2121-.2033.1817-.4032.3633-.6042.5458-.412.3741-.8284.7522-1.2869 1.1438l-.0001.0001c-1.54343 1.3187-2.49639 2.9934-2.78929 4.6361-.29204 1.6378.07001 3.3229 1.28047 4.4713.50422.4786 1.07782.9002 1.75842 1.075.7235.1859 1.4315.0602 2.1191-.2992.657-.3435 1.3178-.9102 2.0209-1.6535.7106-.7511 1.5119-1.7344 2.4424-2.9646 1.9415-2.5668 2.6728-4.7759 2.8971-6.3945.1117-.8058.0962-1.4548.0481-1.9171-.024-.2309-.0561-.4148-.0845-.548-.0141-.0666-.0274-.1205-.0382-.1613-.0054-.0205-.0102-.0376-.0141-.0514l-.0054-.0182-.0022-.0072-.001-.0032-.0005-.0014c-.0002-.0007-.0004-.0014-.9544.2985l.954-.2999c-.1235-.3928-.4751-.6698-.8859-.6978-.4288-.0293-.8343-.0286-1.2198-.0011.7812-.8916.6084-2.0197.1448-2.8421-.0212-.0377-.0433-.0752-.066-.1125 1.1797.3067 2.1681-.2155 2.6975-.64.1174-.094.3049-.2511.4613-.4973.0042.0116.0085.0232.0128.0347.1622.4288.4159.7765.7756 1.0877.0071.0062.0147.0128.0228.0199.1135.0989.3272.285.6065.4223.2394.1177.5061.1925.8043.2102m-15.14048 3.2613 15.14048-3.2613m9.1005-13.22864-.9999-.01344m.9999.01344c0-.00001 0-.00003 0-.00005l-.9999-.01339m.9999.01344c-.0281 2.09696-.6565 4.47794-1.6348 6.58374-.8987 1.9342-2.1432 3.7444-3.6095 4.9007m4.2444-11.49788c-.0517 3.85231-2.3322 8.96668-5.1828 10.94948m.9384.5484c-.1496.0172-.2921.0349-.4281.0533-.028.0037-.0559.0075-.0835.0114l-.4268-.6131m.9384.5484c-.1209.0954-.2434.1863-.3673.2725l4.7608.3964c3.8382-.2243 8.0992.1131 8.9241 1.2546.8131 1.126.5907 2.4578-.3989 3.38-.2039.19-.3863.439-.5831.7075-.8049 1.0984-1.8494 2.524-5.583 1.5768-5.3384-1.3544-6.5823-2.2005-8.5519-3.5937m1.7993-3.9941c1.0494-.121 2.4455-.2183 4.3348-.3294h.0004c1.9613-.1146 4.048-.0873 5.7702.1206.8585.1037 1.6596.256 2.3211.4729.6153.2017 1.3.518 1.7016 1.0737l.0002.0002c1.1425 1.5822.7862 3.4725-.5278 4.697l-.0001.0001c-.1292.1204-.2388.2695-.4176.5129-.0614.0834-.1309.178-.2121.2863-.2812.3749-.657.8389-1.1981 1.228-1.1495.8264-2.7661 1.129-5.2659.4948-2.6926-.6831-4.4034-1.2503-5.7062-1.8408-.0179-.0081-.0357-.0162-.0535-.0243m-1.6854-7.2404.4265.6131m-.4265-.6131.4265.6131m0 0c-1.0338.1439-1.7919.3381-2.3944.6982zm1.2589 6.6273c-.8278-.979-1.7798-1.8102-2.8389-2.2841l.2926-.4138m2.5463 2.6979c.6093.7205 1.1514 1.5211 1.6194 2.3183 1.1972 2.0389 2.0543 4.3057 2.3845 5.8614.2781 1.307.3671 2.6057.0751 3.6289-.1502.526-.419 1.0405-.8764 1.419-.4712.39-1.0521.5604-1.6752.5441h-.0004c-.3685-.0098-.6672.0091-.9347.0323-.0525.0046-.1084.0099-.1664.0153-.2079.0197-.4438.0419-.6531.0437-.3046.0027-.636-.0325-.992-.175-.3458-.1385-.6546-.354-.9568-.6272l-.0007-.0006c-.3349-.3032-.814-.8731-1.32-1.5368-.5211-.6835-1.1149-1.5251-1.6838-2.4134-.5679-.8865-1.1203-1.8338-1.5523-2.727-.4212-.8706-.7709-1.7755-.8608-2.5527v-.0001c-.1606-1.3905-.2154-2.6259-.1083-3.6116.0988-.9097.3672-1.9359 1.1764-2.4745l.0003-.0001c.4344-.289.9141-.5739 1.5583-.5889.2795-.0066.5648.0401.8599.1174-.0102-.0113-.0203-.0227-.0303-.0341-.2632-.2998-.4932-.6595-.5854-1.0786-.0847-.3848-.0404-.7649.1195-1.1076m4.6032 4.9478c-1.2875-.5893-2.1465-1.1902-3.1236-1.8814l-1.4796-3.0664m2.0569 2.2499-.2927.4138zm-5.3652-4.3081c-.4122.3308-1.1042.6674-1.8876.4343z" fill="#fff" stroke="#fff" stroke-linejoin="round" stroke-width="2"/><g fill="#f7a600"><path d="m18.0527 20.4969c.9409-.9459-.091-2.6137-1.829-3.4075-1.551-.7088-5.2474-2.1408-9.64729-1.6991-3.08068.3089-5.668578 1.5842-4.10828 3.7386 1.98203 2.7375 5.44347 1.6524 6.89973 1.9188 1.66544.3041 6.49874 1.6475 8.68484-.5508z"/><path d="m19.1332 17.1462c-.9334-.2788-3.8611-2.9881-5.3692-4.6489-1.36-1.4967-4.44063-6.70953-4.41243-7.99656.02821-1.28623 2.55123-1.57945 5.27853-.32568 2.7278 1.25404 5.5188 6.44264 6.2752 9.15314.757 2.7111.5279 3.0536.1155 3.3838-.4122.3307-1.1042.6673-1.8876.4342z"/><path d="m25.7929 18.6474c.8754-.5234 2.4596-.6982 6.7872-.9525 3.8382-.2244 8.0992.113 8.924 1.2545.8132 1.1261.5907 2.4578-.3988 3.38-1.038.9672-1.5199 3.4631-6.1662 2.2843-5.3383-1.3543-6.5823-2.2004-8.5518-3.5936-1.4515-1.0263-1.5499-1.8022-.5944-2.3727z"/><path d="m25.4093 22.2338c3.2944 1.2041 5.94 6.995 6.5504 9.8719.5322 2.5006.2027 4.4281-1.4722 4.3842-1.6798-.0447-2.0725.4385-3.0592-.4531-1.0411-.9427-4.815-6.1848-5.0946-8.6035-.3148-2.7246-.1817-4.5994.6287-5.1388.8286-.551 1.0968-.5537 2.4469-.0607z"/><path d="m20.0207 22.086s1.0451 3.3252-2.6425 8.2006-5.0382 5.4448-6.855 3.72c-1.81682-1.7236-1.29797-5.2566 1.4701-7.6216 2.7688-2.3649 4.3706-4.5486 8.0274-4.299z"/><path d="m22.8736 15.7258c-.1434-1.4711.0322-4.4552 1.4985-7.14158 1.4582-2.67065 2.5659-5.44508 4.6998-6.2372 1.629-.60427 3.4112-.8754 3.3566 3.18099-.0516 3.85232-2.3322 8.96669-5.1827 10.94949-2.636 1.8349-3.2015 1.3131-3.6969.8842-.4949-.4281-.5992-.8541-.6753-1.6359z"/></g></svg>