<svg fill="none" height="68" viewBox="0 0 79 68" width="79" xmlns="http://www.w3.org/2000/svg"><path d="m32.6258 20.4797.4067.3966c.0002-.0003.0005-.0005.0008-.0008l-.4064-.3958m-.0011 0h.0011m-.0011 0c-.8847.0262-1.7124.1672-2.4884.3947l2.4895-.3947m-.0011 0-1.0268-1.0013 1.0279 1.0013m.7471.0053c.2489-.3265.4595-.7166.5624-1.1766.1573-.7029.0072-1.3121-.197-1.7549-.1637-.3549-.3887-.65-.4799-.7697-.0068-.0088-.0128-.0167-.018-.0236-.0305-.0403-.0513-.0687-.0647-.0872-.1702-.3661-.5039-.9282-1.1578-1.2724-.8362-.44-1.6207-.2437-2.0319-.0708-.3136.1319-.595.3304-.6768.3882-.0073.0051-.013.0091-.017.0118-.023.0159-.0409.028-.0541.0368-1.0336.432-1.9076 1.0153-2.6626 1.5918-.3123-.3126-.6625-.5639-.9771-.7449-.1658-.0955-.3514-.1885-.547-.2643-.1557-.0603-.4772-.174-.8688-.186zm0 0c.2712.0117.5476.0341.8291.068l.0006.0001c1.1433.138 2.821.3495 4.3212 1.2761.8391-1.1734 1.8729-2.4158 3.263-3.3387-.0572-.0152-.1144-.0306-.1716-.0462-.5321-.1446-1.1096-.4018-1.5749-.8853-.4971-.5164-.6916-1.1078-.7511-1.5949-.0475-.3893-.0098-.7576.0054-.9057.0011-.0109.0021-.0206.0029-.0291.0046-.0465.0074-.0798.0091-.102-.0472-.3988-.059-1.0598.3318-1.6945.5018-.8148 1.2986-1.0294 1.7334-1.0814.336-.0401.6792-.0081.7802.0013.009.0009.0161.0015.0211.002.0305.0025.0534.0041.07.0052 1.1118-.136 2.1666-.065 3.1169.0589m-11.9871 8.2662 11.9871-8.2662m-26.1267 18.4987c-.2965-.261-.4921-.5619-.614-.8038-.2119-.4205-.3146-.873-.3755-1.254zm0 0c-1.2875 2.2102-2.2342 4.5662-3.1091 6.7437-.114.2837-.2268.5643-.3389.8412l-.0001.0001c-.2258.5577-.4777 1.1425-.7391 1.7493-.8618 2.0006-1.826 4.2388-2.2938 6.523-.0366.1788-.1328.4246-.3477.8869-.0209.0449-.0432.0926-.0668.1428-.1807.3851-.4314.9195-.6028 1.4694-.2044.6556-.3521 1.4894-.1576 2.4158.1989.9473.7119 1.7863 1.4794 2.5183 1.6025 1.5281 3.5536 2.5612 5.8321 2.7985h.0003l.0027.0003c.7732.0804 2.1293.2214 3.3163-.4082 1.4043-.7449 1.9758-2.1658 2.1623-3.7001v-.0002c.3372-2.7753 1.3013-5.5926 2.4749-8.3465.3685-.8645.7854-1.4675 1.2637-1.8502.4362-.3491 1.0468-.6163 2.0447-.5989h.0002c.3404.0059.6822.0121 1.0253.0184 2.581.0471 5.2328.0956 7.8744.0101h.0013c.101-.0034.1401-.0025.1961-.0013.0602.0013.1399.0031.337.0005.2375-.0031.6174-.0167 1.0234-.1184.429-.1075.9552-.3298 1.4066-.7952.4548-.4688.6921-1.038.7937-1.5972zm19.7606-2.082c-.9618.1753-1.9247.2623-2.7843.34-.1065.0096-.2114.0191-.3145.0286-1.0515.0967-1.9618.1966-2.8257.4144zm0 0c.7961.0213 1.6992-.0891 2.6508-.6369 1.3449-.7741 2.7735-1.4533 4.2669-2.1347zm19.7615-8.7112c.0759-.3188.0791-.6166.0591-.8461-.0408-.4684-.1925-.9085-.3412-1.2643l-.0001-.0002c-1.3714-3.2822-3.6367-5.7484-6.0229-7.84592zm0 0c2.9277 1.5443 5.5553 3.5122 8.0187 5.3573.5838.4372 1.1584.8676 1.7256 1.2837l.0002.0002c2.1313 1.5641 4.2678 3.3316 6.2073 5.2913 2.5165 2.5427 2.2638 6.8728-.5618 9.0793zm-13.3954-7.7055c.1053-.4118.2705-.7898.4418-1.0942.0936-.1661.2059-.3405.3367-.5051.1043-.1314.3254-.3927.6621-.5995l.0015-.0009c.468-.28683 1.2772-.76983 2.2224-.96057 1.0746-.21683 2.3293-.05466 3.4257.90915zm21.5004 29.5583-.0003-.0002c-.3617-.3285-.7205-.6558-1.0772-.9812-2.353-2.1466-4.6188-4.2136-7.0724-6.0066-.8563-.6257-2.0872-.6145-3.6531.3373zm0 0c.435.3949.8992.79 1.3801 1.0865.4955.3056 1.1502.5962 1.9416.59.8044-.0062 1.4616-.316 1.967-.6644.4825-.3325.9297-.7721 1.3456-1.2186m-6.6343.2065 6.6343-.2065m-26.4225-12.1212.0001-.0001c.5673-.6243.8316-1.0862.9254-1.4537.0742-.2906.0865-.6833-.2517-1.3215-.4799-.9055-1.2502-1.0764-1.8341-.8104zm0 0c-.2698.2969-.532.5887-.7897.8755-.9365 1.0422-1.813 2.0176-2.7714 2.926-.9724.9214-1.3251 2.0365-1.2974 3.0881.0011.0441.003.0879.0054.1315-.4599-.704-1.0872-1.2327-1.6431-1.5799l-.0007-.0005c-.6258-.3906-1.2823-.5528-1.7115-.6464-.2078-.0453-.3626-.0759-.4892-.1009-.2051-.0405-.3367-.0665-.5013-.1171l-.0004-.0001m9.1993-4.5762-9.1993 4.5762m-5.8811-3.3111v.0002c-.0443.3409.1311.9634.8724 1.4386zm0 0c.0455-.3506.1674-.6381.3293-.8423m-.3293.8423.3293-.8423m5.5518 4.1534c-.3979-.1222-.7753-.2331-1.1354-.3389m1.1354.3389-1.1354-.3389m6.1426 5.108c-.0071.2016-.0292.4099-.0682.6249zm0 0c.2887.5611.78 1.1232 1.5607 1.386.7688.2588 1.4545.0954 1.8074-.0143.3062-.0952.6203-.2392.7834-.314.0237-.0109.0442-.0203.0611-.0279.1064-.0479.1603-.0688.1779-.0759.4981-.0982.8808-.3128 1.0949-.4434.1172-.0714.2247-.144.2939-.1907.081-.0546.1192-.0803.1533-.1016.7432-.462 1.4766-.922 2.206-1.3796 1.3475-.8452 2.6814-1.6819 4.0386-2.5069zm-23.609-19.8634.0001-.0002c.4415-1.3953 1.4551-2.1605 2.4963-2.5027.9134-.3001 1.8623-.2821 2.4148-.2652zm0 0c-.9435 2.9824-1.5871 6.2252-1.0273 9.7283zm54.2236 22.6393c.2818-.3025.47-.4934.6505-.6344zm-41.1736-11.6984c.1472-.1858.3685-.358.7482-.4537zm4.4164 3.8145c-1.521-.447-2.7329-.8031-3.8729-1.5331zm-7.4234-17.9515-.0004.0001z" fill="#fff" stroke="#fff" stroke-width="4"/><g clip-rule="evenodd" fill-rule="evenodd"><path d="m38.9917 24.6986c1.6826-2.4175 3.1654-5.0857 6.4127-5.6973 2.0801-.3913 4.2033-.1561 6.2623.2379 6.1129 1.1712 10.8335 5.1643 15.6797 8.7193 2.061 1.5122 4.105 3.2051 5.9465 5.0654 1.6746 1.6914 1.5015 4.6291-.3771 6.0956-.3182.2485-.6019.5462-.8785.843-1.5575 1.6717-2.1268 1.6112-3.7983.0945-2.6943-2.4458-5.3613-4.9593-8.2859-7.096-1.8022-1.3166-3.9889-.9023-5.8671.2389-2.0937 1.2724-4.16 2.5899-6.2406 3.883-.2846.1773-.5679.4163-.8832.4722-.7517.1333-1.7371 1.0988-2.2167.0297-.4054-.9036-.7849-2.1276.2648-3.1218 1.2888-1.2211 2.4548-2.5754 3.6519-3.8926 1.3123-1.4439 2.032-2.9795.9527-5.0157-.8792-1.6586-2.7129-2.4773-4.4342-1.6925-1.4993.6839-2.9937 1.3924-4.419 2.2126-.5976.344-1.1577.399-1.7891.3601.0067-.5782.013-1.157.0191-1.7363z" fill="#e3000b"/><path d="m38.7799 25.0289c-.0061.5816-.0126 1.1625-.0195 1.7435-2.0683.4112-4.2079.3322-6.2713.8523-1.6136.4069-2.3968 1.6667-2.5652 2.964-.1588 1.2222.492 2.5498 1.7797 3.375 1.7123 1.0967 3.6294 1.5264 5.5065 2.1028.7428.2282 1.5921.2516 2.226.6472.844.5273 1.5279 1.3693 1.3254 2.4833-.1895 1.0425-1.1261.8594-1.8596.8836-2.9306.0949-5.875.0215-8.8013-.0293-2.858-.0497-4.304 1.5966-5.1825 3.6581-1.2033 2.8237-2.2492 5.8395-2.6191 8.8849-.3036 2.4971-1.5927 2.5519-3.2917 2.3752-1.7666-.184-3.316-.9815-4.6486-2.2524-2.1219-2.0236-.0814-3.8569.2749-5.5955.5613-2.7414 1.8704-5.3145 2.9294-7.9297 1.5802-3.902 3.0869-7.9476 6.0235-10.9599 2.777-2.8485 5.6325-6.1294 10.3036-5.5669 1.775.2142 3.7339.5437 4.8898 2.3638z" fill="#f7a600"/><path d="m52.9693 17.7435c-1.5271-1.4301-2.3541-3.5859-4.8711-3.999-1.0789-.1768-.2784-1.8451.0626-2.0547.9258-.5678 2.1532-1.2133 3.2407-.2567 2.2641 1.9914 4.2603 4.2026 5.4552 7.0641.4648 1.1133.0739 1.2748-.822 1.1082-1.2351-.2291-2.473-.513-3.0588-1.8766-.0007.0004.0373-.0909.0373-.0909z" fill="#e3000b"/><path d="m51.2527 16.594c.9584 1.4509.7736 2.0055-.5636 1.6941-2.7509-.6413-5.5487-1-8.288-1.745-1.2591-.342-.7455-1.1728-.8312-1.7688-.132-.9171.5962-.5345 1.1279-.6042 2.0937-.2739 4.1062.3712 6.1531.58 1.3369.1369 1.6813 1.6289 2.4018 1.8439z" fill="#e3000b"/><path d="m23.3088 26.0646c.5593-1.9897.1272-4.2606 2.084-5.8607.8389-.6852-.7413-1.7316-1.1472-1.7439-1.1028-.0337-2.5074.0148-2.939 1.3784-.8981 2.8381-1.4475 5.7349-.9579 8.7971.1903 1.1909.6147 1.1377 1.3008.5516.946-.8079 1.865-1.6642 1.646-3.132.0009 0-.0808-.0597-.0808-.0597z" fill="#f7a600"/><path d="m24.1376 24.1268c-.0559 1.7302.3991 2.119 1.3891 1.1883 2.0366-1.9155 4.2646-3.6086 6.2361-5.6084.9062-.9182.0202-1.3836-.223-1.9419-.3743-.8592-.8005-.1681-1.2972.0345-1.9559.7984-3.352 2.3516-5.0103 3.5446-1.0827.7782-.5858 2.2408-1.0947 2.7829z" fill="#f7a600"/></g></svg>