<svg fill="none" height="109" viewBox="0 0 155 109" width="155" xmlns="http://www.w3.org/2000/svg"><path d="m85.2583 41.3306c-2.1797-.6648-4.274-1.5332-6.2663-2.3593-.2313-.0959-.4612-.1913-.6898-.2857-2.3097-.954-4.5078-1.8248-6.7988-2.3834zm0 0c1.4143.8249 2.9808 1.4438 5.0391 1.3826 3.8367-.1131 7.7109.0707 11.6306.315 3.302.2063 5.538 2.8671 5.494 6.3262-.029 2.2323-.702 3.6643-1.698 4.7126-1.055 1.1106-2.623 1.9496-4.706 2.6672-.868.2993-1.7269.6006-2.5798.8998-3.1665 1.1107-6.25 2.1923-9.4115 3.0308l.5123 1.9333m-4.2807-21.2675 16.4117 17.2945m0 0c-.844.2909-1.6871.5867-2.5304.8825-3.1767 1.1145-6.3559 2.2299-9.6006 3.0905m12.131-3.973c4.411-1.52 7.683-3.88 7.752-9.245m-7.752 9.245 7.752-9.245m-19.883 13.218c-3.344.886-3.951 3.815-4.136 6.115-.1562 1.9403 1.414 2.0404 2.9556 2.1386.6202.0395 1.2358.0787 1.7324.2374l-1.0647-10.4242m.5127 1.9332-.5127-1.9332m0 0c-2.2523.5969-3.6772 1.9413-4.5112 3.5315-.7863 1.4995-1.0078 3.1393-1.1057 4.3562-.0863 1.0722.1484 2.1522.9456 2.985.7246.7569 1.652 1.0219 2.2913 1.1421.5516.1036 1.1585.1415 1.6097.1697.0736.0046.1431.009.2075.0133.5582.0374.8494.0774 1.0188.1315.7078.2262 1.3932.2258 1.8868.1991.2543-.0138.5021-.0381.7046-.0581.2161-.0214.3811-.038.5381-.048 2.0587-.1288 4.108-.2651 6.1528-.4011 3.7994-.2526 7.5834-.5043 11.3824-.7048 4.907-.2588 8.929 1.2149 10.688 4.8363 3.152 6.4923 5.582 13.3473 8.049 20.3028.373 1.0539.748 2.1101 1.126 3.1676m-40.9837-39.6231 40.9837 39.6231m1.458-53.5392c5.02 6.706 8.599 14.2938 12.053 21.6176.726 1.5388 1.446 3.0659 2.173 4.5707v.0002c2.627 5.4404 5.022 11.2636 6.792 17.233 1.933 6.5123-2.608 13.5007-9.368 14.6347zm0 0c.208-.0153.424-.0541.644-.124.989-.3137 1.545-1.0773 1.842-1.7404.29-.6446.438-1.4052.523-2.1909v-.0002c.82-7.6549-.958-14.7509-3.49-21.4823m.481 25.5378-51.7968-27.912c-2.2321.6703-4.4789 1.2307-6.7125 1.7424 2.9306.4727 5.8668 1.5532 8.7452 3.529l.0004.0003c2.829 1.9431 6.4671 4.5574 7.8518 8.859 5.4631-2.782 11.7519-5.8474 19.1289-3.5759l.001.0002c.564.1738 1.12.3644 1.666.5701-2.423-1.9238-4.864-3.9106-7.19-6.0678m27.825-2.6831v.0001l-1.872.704zm0 0c-.858-2.2803-2.551-3.4567-4.341-3.9831-1.672-.4915-3.467-.4322-4.771-.3587l-.001.0001c-.456.0261-.864.1728-1.126.2827-.301.1258-.605.2872-.894.4653-.573.3521-1.202.8401-1.73 1.4213-.431.4734-.938 1.1652-1.155 2.0238m0 0c-.502-.3816-1.019-.7708-1.563-1.1678-2.019-1.474-4.241-2.9185-6.851-3.8826l-.001-.0002c-.068-.0254-.187-.0891-.494-.2838-.019-.0118-.04-.025-.062-.0392-.235-.1502-.662-.4229-1.109-.5938-.551-.2104-1.478-.4021-2.43.1343-.838.4722-1.271 1.2844-1.523 1.9447-.022.0576-.086.1692-.346.5428-.011.0153-.022.0313-.034.0479-.205.2937-.547.785-.778 1.3506-.271.6651-.423 1.5066-.158 2.4497.252.8947.817 1.658 1.542 2.3291m13.807-2.8317c-.033.1292-.059.2621-.078.3986-.142 1.0529.214 2.0279.951 2.7745l1.338-1.4967c-.523-.3882-1.043-.7851-1.574-1.1908-.211-.1605-.423-.3223-.637-.4856zm-13.807 2.8317 1.359-1.467-1.36 1.4666c0 .0001 0 .0002.001.0004zm26.848 76.3939c.45 1.259.903 2.383 1.44 3.294.547.929 1.259 1.774 2.289 2.303 1.036.533 2.148.619 3.251.499 1.078-.117 2.283-.447 3.615-.888.926-.307 1.73-.559 2.513-.691zm-65.1789-61.4877-.0002.0002c-1.1839 1.5922-1.4203 4.1496.0039 6.6688 1.7555 3.1034 4.2166 5.4755 6.9208 8.082.6098.5878 1.232 1.1875 1.8612 1.8102l.0003.0003c.3818.378.773.6933 1.241 1.0706.2291.1847.4766.3843.7505.6133.7417.6202 1.6261 1.4248 2.2473 2.493l.0005.0008c1.358 2.3377 2.2155 5.8162-.2509 8.8047-.5931.7186-1.3117 1.2542-2.1666 1.5187-.8481.2625-1.6479.2017-2.3113.039-.6418-.1575-1.2199-.4267-1.6672-.6536-.2675-.1357-.4493-.2336-.6094-.3197-.1821-.0981-.3362-.181-.5564-.2874l-.0012-.0005c-5.556-2.6863-10.9831-5.6545-16.3357-8.5821-.7106-.3886-1.4198-.7765-2.1278-1.1629l-.0002-.0001c-2.5897-1.4136-4.8357-1.6794-6.8453-1.3182-2.0583.37-4.0366 1.4292-5.9887 2.9431l-1.2257-1.5804 1.2256 1.5804c-5.6836 4.4078-11.1464 9.2917-15.2368 14.8896l-.0001.0001c-1.9222 2.63-4.0105 4.0769-6.4726 4.0668-2.2252-.0092-4.2275-1.2586-5.8451-2.3309l-.0003-.0002c-3.91006-2.5928-6.48932-6.3147-7.94536-10.7362l-.00003-.0001c-.63667-1.9337-.68831-3.6703-.204-5.2367.47676-1.5419 1.41099-2.7161 2.38827-3.6435.84306-.7999 1.81705-1.5028 2.64974-2.1038.10833-.0781.21428-.1546.31724-.2293.96094-.6974 1.68904-1.2619 2.20034-1.8539.0001-.0001.0002-.0002.0003-.0003l1.5138 1.307zm0 0c1.4561-1.9586 3.7658-3.2065 6.6722-2.4981zm3.6931-28.5857c.6181-.1215 1.2529-.24314 1.9152-.36002 2.4614-.43438 5.0923-.75261 7.8603-.46915l.0004.00004c.0731.00749.2082.00261.5699-.03691.022-.0024.0461-.00512.0722-.00808.2774-.03133.7808-.08822 1.2582-.0445.5872.05378 1.5041.29019 2.1226 1.19092.5444.793.575 1.7127.5107 2.4168-.0056.0616.0026.1901.0715.64.0028.0185.0058.0377.0089.0577.0546.3539.146.946.1035 1.5552-.0498.7163-.2839 1.5386-.9372 2.2684-.6196.6921-1.463 1.1281-2.4082 1.4115zm0 0c.1832-.86736.0328-1.71233-.1452-2.32726-.2185-.75451-.5685-1.46969-.9273-2.03789-.1814-.28741-.3834-.5663-.5977-.81153-.1872-.21406-.4888-.52558-.887-.74972zm-25.2445 11.7092c-.2704.7425-.4719 1.4909-.4959 2.1971-.0247.7267.1384 1.6567.8873 2.3733.2778.2659.5817.4488.8841.574zm0 0v-.0001l1.8793.6844zm66.1423 27.4563c.056-4.37-2.855-8.066-7.369-8.348zm-54.095-26.453c.0662-.1013.1308-.2051.1937-.3117.055.0702.1126.1366.1724.1992-.1223.0375-.2443.075-.3661.1125z" fill="#fff" stroke="#fff" stroke-width="4"/><g clip-rule="evenodd" fill-rule="evenodd"><path d="m88.1 35.9441c6.305-3.111 12.478-6.956 19.997-4.641 4.816 1.484 9.004 4.301 12.875 7.373 11.491 9.124 16.823 22.508 22.921 35.131 2.593 5.369 4.943 11.09 6.676 16.932 1.576 5.312-2.156 11.1499-7.782 12.0939-.953.16-1.89.459-2.811.764-5.187 1.718-6.313.968-8.083-3.9819-2.852-7.981-5.569-16.071-9.259-23.671-2.274-4.683-7.34-6.237-12.592-5.96-5.855.309-11.704.741-17.555 1.107-.801.051-1.67.23-2.396-.002-1.731-.553-4.907.345-4.688-2.376.185-2.3.792-5.229 4.136-6.115 4.106-1.089 8.107-2.586 12.131-3.973 4.411-1.52 7.683-3.88 7.752-9.245.056-4.37-2.855-8.066-7.369-8.348-3.932-.245-7.882-.434-11.815-.318-1.649.049-2.888-.454-4.169-1.228.677-1.179 1.354-2.36 2.031-3.542z" fill="#e3000b"/><path d="m88.1 35.944c-.677 1.182-1.354 2.362-2.032 3.542-4.796-1.425-9.181-3.93-14.091-5.127-3.84-.936-6.917.781-8.751 3.248-1.728 2.324-1.883 5.75-.132 8.847 2.329 4.117 5.848 7.0951 9.116 10.3291 1.293 1.2799 3.043 2.258 3.917 3.761 1.163 2.002 1.632 4.4719-.064 6.5269-1.587 1.923-3.337.523-4.899-.231-6.238-3.016-12.313-6.391-18.376-9.7-5.921-3.232-10.826-1.451-15.018 1.8-5.742 4.453-11.374 9.471-15.626 15.29-3.487 4.771-6.246 3.471-9.598 1.249-3.48501-2.311-5.81501-5.638-7.15101-9.695-2.127-6.46 4.235-7.972 6.96601-11.135 4.305-4.988 9.982-8.813 15.184-12.998 7.762-6.244 15.534-12.862 25.117-15.802 9.062-2.78 18.782-6.3579 27.91-.0919 3.468 2.382 7.189 5.2009 7.528 10.1869z" fill="#f7a600"/><path d="m125.16 36.6371c-1.574-4.63-.837-9.981-5.668-13.61-2.071-1.555 1.536-4.106 2.496-4.161 2.605-.147 5.935-.121 7.127 3.049 2.482 6.599 4.146 13.355 3.373 20.565-.301 2.805-1.311 2.706-3.008 1.374-2.34-1.835-4.623-3.786-4.289-7.24-.002 0 .183-.146.183-.146z" fill="#e3000b"/><path d="m123.028 32.2531c.348 4.027-.675 4.961-3.123 2.854-5.035-4.336-10.492-8.144-15.384-12.68-2.249-2.084-.22-3.223.283-4.539.774-2.025 1.863-.441 3.058 0 4.705 1.738 8.187 5.271 12.241 7.947 2.647 1.749 1.66 5.186 2.925 6.418z" fill="#e3000b"/><path d="m54.311 20.5891c3.452-3.464 5.147-8.593 11.083-9.724 2.544-.483.429-4.36304-.408-4.83404-2.274-1.28-5.275-2.72301-7.742-.40201-5.134 4.83105-9.604 10.16505-12.085 16.97905-.965 2.65-.014 3.007 2.096 2.559 2.909-.617 5.817-1.3631 7.039-4.6121.002.001-.101-.211-.101-.211z" fill="#f7a600"/><path d="m58.155 17.5921c-2.086 3.463-1.579 4.752 1.546 3.938 6.43-1.676 13.006-2.69 19.396-4.609 2.936-.88 1.617-2.796 1.745-4.199.197-2.159-1.479-1.217-2.746-1.347-4.99-.511-9.671 1.127-14.489 1.745-3.145.402-3.773 3.924-5.452 4.472z" fill="#f7a600"/></g></svg>