<svg fill="none" height="179" viewBox="0 0 169 179" width="169" xmlns="http://www.w3.org/2000/svg"><path d="m87.7498 126.466h-.0001c-2.9959 3.178-6.4043 5.794-9.895 8.165-4.3448 2.953-8.8992 5.536-13.6479 7.773-4.3579 2.053-8.8917 3.761-13.6874 4.829-2.2053.491-4.5888.861-7.0924.632m44.3228-21.399-44.1819 19.39m44.1819-19.39c1.9151-2.032 3.7731-4.368 4.8559-7.511m-4.8559 7.511 4.8559-7.511m-49.1787 28.91.1409-2.009m-.1409 2.009h.0001l.1408-2.009m-.1409 2.009c-.9672-.089-2.0313-.289-3.0888-.788m3.2297-1.221c-.8354-.077-1.6506-.241-2.4237-.606m-.806 1.827.806-1.827m-.806 1.827c-.0001 0-.0002 0-.0003 0l.8063-1.827m-.806 1.827.806-1.827m39.811-36.658h.0003c2.0028-.125 4.1236-.166 6.2841.17 1.0194.158 2.2894.431 3.4758 1.201h.0002c1.0642.692 1.8282 1.74 2.2753 2.823.4468 1.083.6415 2.358.3829 3.586m-12.4186-7.78 12.4186 7.78m-12.4186-7.78c-.1724.011-.3463.022-.5218.032-1.9975.123-4.1833.257-6.324.75zm12.4186 7.78c-.2017.958-.4939 1.866-.7681 2.583m.7681-2.583s0 0 0-.001l-.7681 2.584m-23.8286-83.0687.0054-.0147c.3726-1.0279.8709-2.1662 1.6948-3.1977.8296-1.0392 1.9149-1.8044 3.2366-2.0338 1.32-.2292 2.6129.1216 3.7665.8089l.0001.0001c1.8178 1.0832 3.1636 2.5747 4.2843 3.9961 2.1523 2.7296 3.8657 5.6911 5.3671 8.6895l.0001.0001c5.1288 10.2444 8.7097 20.998 10.5487 32.2998m-28.9036-40.5483 26.9473 40.8406m-26.9473-40.8406-.005.0147m.005-.0147-.005.0147m28.9086 40.5336-1.9563.2923m1.9563-.2923c0-.0001-.0001-.0001-.0001-.0001l-1.9562.2924m1.9563-.2923c.7034 4.3227 1.0818 8.6903.9662 13.0937m-2.9225-12.8014c.8449 5.1914 1.2023 10.4056.786 15.6409m2.1365-2.8395c-.3079.9743-.6011 1.9635-.8654 2.9684l-1.2711-.1289m2.1365-2.8395c-.0266 1.0115-.0792 2.0248-.1599 3.0399l24.56-40.0302m-24.4001 36.9903c.2901-.9184.5933-1.8235.8972-2.7157m-3.0337 5.5552 1.2711.129m-1.2711-.129 1.2711.129m0 0c-.1844.7012-.3547 1.4101-.5059 2.1268l-.0136.0644c-.1655.7831-.4002 1.8934-.277 3.0962m.7965-5.2874-2.722 4.5639c-.3395.4903-.7376.9233-1.2375 1.2527-1.2284.8089-2.4218.6096-3.6225-.1613m6.7855-.3679c-.0932.154-.192.3068-.2967.4582l-.0003.0004c-.4397.635-1.0055 1.2686-1.7656 1.7692l-.0006.001c-.9379.617-1.9622.904-3.0296.824-1.031-.078-1.9483-.484-2.7281-.9851m7.8209-2.0677c.5787-.9564.9401-1.958 1.1692-2.9527.1765-.7664.2744-1.5287.3328-2.2631l8.79 11.0766-1.055-1.728m-9.237-4.1328c.0075.0737.0164.1477.0268.222m-7.8477 1.8457 1.0354-1.6998m-1.0354 1.6998s-.0001 0-.0001-.0001l1.0355-1.6997m-1.0354 1.6998c-.6404-.411-1.225-.8662-1.7627-1.3535m2.7981-.3463c-1.7619-1.1309-3.0705-2.6886-4.1928-4.4249m0 0-1.162.7643c.982 1.2587 1.833 2.5957 2.5567 4.0069m-1.3947-4.7712-1.1621.7642m1.1621-.7642c-1.6403-2.537-2.8038-5.2977-3.8345-8.1182-.8849-2.4211-1.6199-4.888-2.3549-7.3548l-.0001-.0001v-.0001l-.0001-.0003-.0003-.0009-.0003-.001-.0003-.001-.0002-.001c-.1966-.6595-.3931-1.3191-.5925-1.9777-.4828-1.595-1.2196-3.0824-1.9559-4.5689-.0942-.1902-.1884-.3804-.2821-.5708l7.8591 23.359m2.5568 4.007c-1.2239-1.1092-2.2045-2.3848-3.0453-3.6856l-1.4858-2.5675m4.5311 6.2531c.7061 1.3768 1.2909 2.8246 1.758 4.3386l.0004.001c.0812.264.2755.986-.0921 1.76-.3451.727-.9692 1.019-1.1424 1.101m-3.0807-11.2076c-.6076-.779-1.2655-1.528-1.9743-2.2461m1.9743 2.2461-17.606-47.6215c.2056 5.4746 1.6469 10.6255 3.5825 15.5481 1.2861 3.2712 2.8309 6.4113 4.3321 9.4627l.0623.1266c.0956.1943.1901.3853.2831.5734.7455 1.5069 1.4012 2.8324 1.8307 4.2512.1939.6404.3868 1.2882.5813 1.9409.7371 2.4745 1.4956 5.0204 2.4044 7.5071.7269 1.9891 1.5385 4.0062 2.5553 5.9654m0 0c-.1081-.1095-.2174-.2182-.3278-.3263m5.3828 13.78-.8613-1.834m.8613 1.834-.0027.001-.8586-1.835m.8613 1.834-6.8962-.238c2.0892-.246 4.1247-.696 6.0349-1.596m0 0c.2224-.104.2828-.203.2043-.458-1.1893-3.8559-3.1937-7.2175-6.0863-10.0472m0 0 1.3605-1.4408m-1.3605 1.4408 1.3605-1.4408m-1.3605 1.4408 1.3605-1.4408m0 0c-2.7834-2.723-5.9747-4.7975-9.0628-6.7023h-.0001c-.9662-.5959-1.9105-1.163-2.8429-1.723-1.4868-.8929-2.9432-1.7675-4.4095-2.7116-2.4518-1.5788-5.0638-2.9768-7.9277-3.9402-2.7849-.9367-5.6831-1.5117-8.7018-1.4831h-.0001c-2.7745.0263-5.5538.5342-8.1515 1.9747-3.1327 1.7367-4.8886 4.503-5.7011 7.7576-.5225 2.0913-.2465 4.1955.9586 6.114.7461 1.1883 1.6858 2.135 2.653 2.9277 2.6649 2.184 5.6658 3.6883 8.4962 5.045l.8173-1.8214-.8173 1.8215c2.5027 1.2001 5.0429 2.2791 7.7348 3.3721l.0244.01.0247.009c.5055.19 1.0428.407 1.628.644l.1216.049c.6227.252 1.2916.521 1.9731.774h.0001c3.1931 1.186 6.4626 2.157 9.834 2.81m13.349-14.927-13.349 14.927m0 0h-.0001l.3269-1.932zm27.8183-8.8398v.0001l1.9633-.2451zm0 0c.3673 2.6428 1.8598 4.5368 3.8842 5.8228.973.619 2.456 1.343 4.258.787 0-.001.001-.001.001-.001l-.609-1.93m0 0c.594-.184 1.152-.443 1.676-.768m-1.676.768c-.973.3-1.813-.046-2.623-.561zm1.676-.768 1.056 1.727m-1.056-1.727 1.056 1.727m0 0c2.961-1.835 5.659-4.0075 8.113-6.4296v-.0001c6.312-6.2327 11.647-13.2775 15.467-21.4713l-1.795-.8921m-21.785 28.7931 21.785-28.7931m0 0 1.795.892c.937-2.0111 1.767-4.1989 2.145-6.5755.672-4.2217.314-8.3986-.939-12.4775-.535-1.7424-1.342-3.5517-2.764-5.0957v-.0003c-.972-1.0544-2.181-1.86-3.639-1.9865-1.456-.1264-2.757.4609-3.853 1.3326l1.239 1.598m6.016 22.3129-6.016-22.3129m0 0-1.239-1.598c-1.482 1.1785-2.722 2.5514-3.841 3.8519l1.503 1.3444-1.503-1.3444c-3.582 4.1632-6.774 8.5991-9.75 13.1559-1.249 1.912-2.53 3.9289-3.589 6.1044-1.295 2.6615-2.365 5.4166-3.267 7.7371-.07.1818-.14.3609-.208.5371l-.007.0162-.006.0163c-.65 1.7609-1.135 3.0997-1.5959 4.4537m0 0 1.8749.6922-1.8748-.6924c-.0001 0-.0001.0001-.0001.0002zm-30.772-50.9116c-1.232 3.5703-1.6742 7.2457-1.5335 10.9684zm-32.0386 100.329 1.9635-.244z" fill="#fff" stroke="#fff" stroke-width="4"/><g clip-rule="evenodd" fill-rule="evenodd"><path d="m90.5528 118.58c-.964 2.779-2.6402 4.892-4.5222 6.86-2.9148 3.046-6.2596 5.583-9.7607 7.927-4.3422 2.908-8.8965 5.454-13.6492 7.661-4.3504 2.02-8.8341 3.682-13.5478 4.718-2.173.477-4.3706.801-6.622.599-.8521-.076-1.6838-.24-2.4726-.606-1.4564-.675-2.1944-1.826-2.143-3.374.066-1.987-.081-3.957-.3592-5.924-.2703-1.911.3966-3.465 1.6808-4.823 1.3804-1.461 2.9779-2.66 4.618-3.804 6.997-4.88 14.3058-9.257 22.0133-12.975 2.6606-1.284 5.3646-2.496 8.2758-3.158 2.1822-.497 4.4272-.604 6.6623-.744 1.993-.123 3.9882-.156 5.9791.148.9636.146 1.911.368 2.7487.903 1.3392.855 2.1269 2.748 1.8019 4.271-.1812.85-.4498 1.672-.7032 2.321z" fill="#f7a600"/><path d="m70.6138 36.3417c.349-.9489.767-1.8587 1.4086-2.6499 1.2328-1.5209 2.8431-1.7952 4.5694-.7849 1.5292.8951 2.7142 2.158 3.8047 3.5167 2.0787 2.5896 3.7563 5.4278 5.2542 8.3658 5.1522 10.1067 8.7449 20.7024 10.5933 31.8312.8659 5.2128 1.2342 10.4487.8127 15.7064-.1353 1.6886-.488 3.3042-1.4782 4.7136-.3462.4926-.7524.9277-1.2625 1.2588-1.2535.8131-2.472.6137-3.6983-.1596-1.7994-1.1346-3.1364-2.698-4.2833-4.4409-1.6762-2.5467-2.8658-5.3182-3.9199-8.1499-1.1475-3.0822-2.0491-6.2383-3.0164-9.3744-.5572-1.8064-1.4441-3.475-2.2882-5.1599-1.5617-3.1177-3.126-6.234-4.4217-9.4695-1.9284-4.8151-3.3206-9.746-3.5219-14.9297-.1376-3.5208.2861-6.956 1.4475-10.2738z" fill="#f7a600"/><path d="m103.2 82.8214c.976-2.465 2.108-5.3793 3.496-8.1798 1.026-2.068 2.278-4.0086 3.557-5.929 3.022-4.5401 6.244-8.9321 9.847-13.0405 1.135-1.2944 2.306-2.5583 3.672-3.6244 1.764-1.3758 3.387-1.2412 4.951.4185 1.169 1.2413 1.875 2.7397 2.374 4.3255 1.202 3.8194 1.541 7.7032.908 11.6235-.344 2.1316-1.111 4.1433-2.032 6.0827-3.797 7.9962-9.118 14.9032-15.463 21.0499-2.423 2.3469-5.077 4.4425-7.982 6.2092-.538.327-1.111.588-1.721.773-.999.303-1.862-.044-2.695-.561-1.661-1.032-2.7555-2.4438-3.0332-4.3886-.1311-.9179.0541-1.8109.2439-2.6961.558-2.6013 1.3883-5.12 2.2583-7.6279.464-1.3382.954-2.6667 1.619-4.435z" fill="#e3000b"/><path d="m55.8809 100.858c-2.7122-1.0823-5.2451-2.1416-7.7295-3.3128-2.8706-1.3533-5.7109-2.7645-8.2023-4.7733-.867-.699-1.6451-1.483-2.2464-2.4249-.9025-1.4132-1.1142-2.9337-.7147-4.5148.7119-2.8197 2.2004-5.0809 4.8133-6.5109 2.2732-1.2444 4.7474-1.7106 7.3312-1.7368 2.7939-.0281 5.5083.4933 8.1674 1.3724 2.6968.8916 5.191 2.1978 7.586 3.715 2.4291 1.5384 4.9316 2.9541 7.3894 4.4452 3.121 1.8936 6.1861 3.8638 8.8318 6.4103 2.9347 2.8245 4.9693 6.181 6.1781 10.0326.0797.254.0186.353-.2067.457-1.9358.901-3.9989 1.351-6.1166 1.599-3.9059.457-7.7907.149-11.6592-.587-3.2918-.625-6.4999-1.56-9.6539-2.711-1.3207-.482-2.6136-1.034-3.7679-1.46z" fill="#e3000b"/></g></svg>