<svg fill="none" height="188" viewBox="0 0 155 188" width="155" xmlns="http://www.w3.org/2000/svg"><g fill="#fff"><path d="m118.152 20.2458c-3.745-1.6334-7.619 1.0688-10.251 3.552-3.566 3.37-6.443 7.5421-9.2239 11.558-6.065 8.7541-12.3586 21.582-17.6616 26.5906-1.171 1.0475-2.4778 1.9231-3.847 2.7151-.7242-.3463-1.4281-.6256-2.0261-.8097-2.3178-.6845-4.7538-.858-7.0971-.5194-.9034.1189-2.3323.3241-3.7517.6323l-.1976.0459c-4.085.9491-5.863 3.4635-7.2917 5.4827l-.4696.6571c-.6089.8403-1.3674 1.6651-2.1686 2.5429-2.3645 2.586-5.3072 5.8042-5.638 10.9524-.1853 3.0035.4953 5.9639 1.9728 8.5739l.541.9584c.2679 2.1731 1.138 4.2182 2.937 5.6574 2.4123 1.9356 5.7828 2.5266 8.8021 2.4086 6.4823-.252 12.7742-3.4246 17.1779-8.1525 4.9332-5.3225 6.2703-11.5373 7.1955-18.5157.5734-4.3406 1.6478-8.2351 4.0907-11.9259 2.3414-3.5404 5.711-6.044 8.9369-8.7344 6.171-5.1434 12.139-10.4621 17.101-16.8155 2.258-2.8892 4.776-6.2049 4.867-10.0385.036-2.7199-1.405-5.6878-3.998-6.8157z"/><path d="m87.7663 101.767c-7.5723.546-15.0949 1.667-22.4979 3.354-6.7996 1.543-13.7704 3.318-20.1145 6.267-3.9335 1.828-12.7398 5.365-11.7983 10.952.0765.463.229.914.454 1.326 1.8967 5.753 4.9318 11.256 7.6548 16.63 2.8543 5.632 6.8326 15.173 10.6729 20.207 3.1171 4.083 7.0074 6.839 12.2303 7.203 10.3445.724 20.887-1.768 29.9025-6.826 4.714-2.65 7.1049-6.841 8.1379-12.057 1.199-6.049.581-16.208.659-22.36.059-4.578.248-9.164.012-13.745-.101-1.939-.089-4.163-.671-6.071-.476-1.563-1.36-2.916-3.0468-3.718-3.5193-1.674-7.8164-1.432-11.5949-1.162z"/><path d="m68.7152 67.9466c-1.1397.1523-2.311.3335-3.4324.5749-.2072.0457-.3846.1061-.5722.1641-.1432.0428-.2971.0809-.4291.1308-.1559.0601-.2951.1308-.437.1996-.1186.0563-.2455.1073-.358.1693-.1353.077-.2561.1648-.3802.2487-.1012.069-.2086.1323-.302.2042-.1179.0896-.2231.1931-.3317.2925-.0872.0777-.1801.1519-.2635.2359-.1069.1062-.2039.2245-.3047.3365-.0778.0874-.1589.1709-.2339.2601-.0953.1155-.1879.2423-.2821.3623-.0769.1016-.1553.1965-.2317.3004-.0579.0804-.1193.1665-.1789.2498-.279.3855-.5611.7885-.8691 1.2142-2.6588 3.6572-6.6091 6.1234-6.9273 11.0581-.1287 2.0833.3495 4.1621 1.3772 5.9791.0931-.0216 1.2178 1.5336 1.3329 1.6887.6061.8476 1.0939 1.505 2.1029 1.9024.9263.3304 1.911.4582 2.8923.3762.9061-.0454 1.8159-.1777 2.7128-.3861.847-.1968 1.6856-.4706 2.5076-.7956.2607-.1037.5123-.2363.7681-.3508.5549-.2486 1.1077-.5063 1.6442-.8032.2963-.167.581-.3528.8718-.5329.4789-.2979.9488-.6033 1.4028-.9361.2902-.2135.5739-.4349.8513-.6621.4294-.3463.8454-.7086 1.2486-1.0847.2637-.2455.5223-.4923.7731-.7516.3907-.3995.7573-.8197 1.1133-1.2447.2193-.2615.4446-.5173.6522-.7881.363-.4769.6885-.9713 1.0056-1.471.1527-.2389.3252-.4752.4672-.7188.4333-.7516.8221-1.5193 1.136-2.3006 1.3605-3.3843 1.4121-7.4576-.7811-10.5213-.8642-1.2064-2.083-1.8064-3.49-2.2381-1.6375-.486-3.3624-.6069-5.055-.3621z"/><path d="m73.6196 113.026c-11.5282.701-23.8284 7.443-23.8284 7.443-4.4988 2.465-7.1702 4.533-5.9363 4.601 0 0 0 0 1.1224-.031 5.0668-.112 10.1183-.589 15.1169-1.428 3.1945-.517 3.1945-.517 3.1945-.517 3.5052-.735 6.7921-1.432 7.3053-1.551.5126-.122 2.1299-.526 3.5962-.9 1.4635-.376 4.512-2.243 3.5739-3.159-.9375-.915-2.9655-4.39-3.6974-4.481-.0034-.004-.0034-.004-.4471.023z"/></g><path d="m106.527 22.3442.001-.0013c1.386-1.307 3.205-2.7787 5.271-3.6936 2.095-.9273 4.608-1.3466 7.152-.2366 3.516 1.5302 5.242 5.3729 5.199 8.6752v.0104l-.001.0105c-.108 4.5929-3.098 8.4177-5.273 11.2008l-.017.0214c-5.099 6.5292-11.204 11.9596-17.396 17.1204zm0 0c-3.682 3.4804-6.6381 7.7486-9.3569 11.6749l-.137.1977c-2.3136 3.3394-4.6687 7.2759-6.9495 11.0882-.7536 1.2596-1.499 2.5055-2.2322 3.712-3.015 4.9612-5.7733 9.1661-8.1895 11.4568-.7954.7088-1.6771 1.3428-2.631 1.938-.4509-.1856-.89-.3452-1.2999-.4714l-.0111-.0034m30.8071-39.5928-30.8071 39.5928m0 0-.0111-.0033m.0111.0033-.0111-.0033m0 0c-2.5881-.7643-5.3102-.9603-7.9369-.5826-.9224.1216-2.409.3348-3.9028.6592l-.0141.003m11.8538-.0796-11.8538.0796m0 0-.014.0033m.014-.0033-.014.0033m0 0-.1976.0459m.1976-.0459-.1976.0459m0 0c-4.8251 1.121-6.9792 4.1658-8.438 6.2278l-.0284.0402-.0053.0075-.4565.6389c-.0012.0016-.0024.0032-.0035.0049-.5206.7175-1.1805 1.4404-1.987 2.324l-.0347.038-.0011.0012-.0816.0893c-2.3441 2.5629-5.6991 6.2312-6.0751 12.0832l-.0003.0051m17.1115-21.4601-17.1115 21.4601m0 0c-.209 3.3876.5591 6.7326 2.2277 9.6808.0003.0005.0006.001.0008.0015l.3531.6255c.372 2.4055 1.4269 4.8155 3.6161 6.5666 2.9411 2.359 6.8708 2.973 10.1292 2.846 1.0205-.04 2.0348-.146 3.0379-.313m-19.3648-19.4074 19.3648 19.4074m15.529-8.479-.0033.0036c-3.5437 3.8046-8.2412 6.6924-13.3499 8.0134 6.4503-1.322 12.9817-2.222 19.55-2.6954l.0013-.0001c3.6844-.2632 8.524-.5863 12.5962 1.3505 2.323 1.105 3.508 2.993 4.101 4.941.565 1.855.649 3.973.715 5.639.013.322.025.628.04.911v.001c.185 3.589.115 7.2.046 10.724-.021 1.059-.041 2.109-.055 3.149-.021 1.649.007 3.502.038 5.507.027 1.788.055 3.697.053 5.689-.005 4.067-.147 8.293-.788 11.528zm0 0c5.3839-5.8086 6.7779-12.5715 7.7113-19.6123l.0001-.0009m-7.7114 19.6132 7.7114-19.6132m-23.2404 28.0922c-.3578.079-.7153.159-1.0726.24-6.8108 1.547-13.9616 3.359-20.5131 6.404h-.0001c-.2654.123-.5622.258-.8841.405-1.9376.88-4.7818 2.173-7.1506 3.839-2.6547 1.867-5.573 4.808-4.8933 8.852.1016.612.2946 1.214.5793 1.779 1.6417 4.924 4.0862 9.677 6.3946 14.165.4486.873.892 1.735 1.3235 2.586l.0001.001c.7659 1.511 1.5764 3.227 2.4518 5.081.7788 1.649 1.609 3.407 2.5047 5.225 1.8328 3.722 3.8607 7.522 5.9104 10.209h.0002c3.3539 4.394 7.723 7.57 13.6803 7.985h.0008l.139-1.995m1.5291-64.776 28.3734 57.95c-9.0155 5.058-19.558 7.55-29.9025 6.826m0 0c-5.2229-.364-9.1132-3.12-12.2303-7.203zm24.7695-92.8682c.5504-4.1654 1.5586-7.7343 3.7758-11.0841l.0004-.0006m-3.7762 11.0847 3.7762-11.0847m0 0c1.8354-2.7753 4.3514-4.8441 7.1527-7.1474m-7.1527 7.1474 7.1527-7.1474m0 0c.458-.377.924-.7602 1.396-1.1538z" stroke="#fff" stroke-width="4"/><path d="m118.151 20.2459c-3.744-1.6334-7.618 1.0688-10.25 3.5519-3.566 3.3701-6.443 7.5422-9.224 11.5581-6.065 8.7541-12.3586 21.5819-17.6616 26.5906-1.171 1.0475-2.4778 1.923-3.847 2.715-.7242-.3463-1.4281-.6255-2.0261-.8096-2.3178-.6845-4.7538-.8581-7.0971-.5195-.9034.119-2.3323.3241-3.7517.6324l-.1976.0459c-4.085.949-5.863 3.4634-7.2917 5.4826l-.4696.6572c-.6089.8403-1.3674 1.6651-2.1686 2.5429-2.3645 2.586-5.3072 5.8042-5.638 10.9524-.1853 3.0035.4953 5.9638 1.9728 8.5738l.541.9585c.2679 2.1731 1.138 4.2182 2.937 5.6574 2.4123 1.9355 5.7828 2.5265 8.8021 2.4085 6.4823-.252 12.7742-3.4246 17.1779-8.1525 4.9332-5.3224 6.2703-11.5373 7.1955-18.5156.5734-4.3406 1.6478-8.2352 4.0907-11.9259 2.3414-3.5404 5.711-6.044 8.937-8.7344 6.171-5.1434 12.139-10.4622 17.101-16.8155 2.258-2.8892 4.776-6.205 4.867-10.0385.036-2.7199-1.405-5.6878-3.999-6.8157z" fill="#f7a600"/><path d="m87.7663 101.767c-7.5724.546-15.0949 1.667-22.498 3.354-6.7996 1.543-13.7704 3.319-20.1145 6.267-3.9334 1.828-12.7398 5.365-11.7983 10.952.0765.463.2291.914.454 1.326 1.8967 5.753 4.9319 11.256 7.6548 16.63 2.8543 5.632 6.8326 15.173 10.6729 20.207 3.1172 4.084 7.0074 6.839 12.2303 7.203 10.3445.724 20.887-1.768 29.9026-6.826 4.7139-2.65 7.1049-6.841 8.1379-12.057 1.199-6.049.581-16.208.659-22.36.059-4.578.248-9.164.012-13.745-.102-1.939-.089-4.163-.672-6.071-.475-1.563-1.359-2.916-3.0459-3.718-3.5192-1.674-7.8164-1.431-11.5948-1.162z" fill="#e3000b"/><path d="m68.7152 67.9466c-1.1397.1523-2.311.3335-3.4324.5749-.2072.0458-.3846.1061-.5722.1641-.1432.0428-.2971.081-.4291.1308-.1559.0601-.2951.1308-.4371.1996-.1185.0563-.2455.1073-.3579.1694-.1353.0769-.2561.1648-.3802.2486-.1012.069-.2086.1323-.302.2042-.118.0897-.2232.1931-.3317.2925-.0872.0777-.1801.1519-.2635.2359-.1069.1062-.2039.2245-.3047.3365-.0778.0875-.159.1709-.234.2601-.0952.1155-.1878.2423-.282.3623-.0769.1017-.1554.1965-.2317.3004-.0579.0804-.1193.1665-.1789.2498-.279.3855-.5612.7885-.8691 1.2142-2.6588 3.6572-6.6092 6.1235-6.9274 11.0581-.1286 2.0833.3496 4.1621 1.3772 5.9792.0931-.0217 1.2179 1.5335 1.3329 1.6887.6062.8475 1.094 1.5049 2.1029 1.9023.9264.3304 1.911.4582 2.8924.3762.9061-.0453 1.8158-.1777 2.7128-.3861.8469-.1968 1.6856-.4706 2.5076-.7956.2607-.1037.5123-.2363.7681-.3508.5549-.2486 1.1077-.5063 1.6442-.8032.2963-.167.581-.3528.8718-.5328.4789-.298.9488-.6034 1.4028-.9362.2902-.2135.5738-.4349.8513-.6621.4293-.3463.8454-.7086 1.2486-1.0847.2637-.2455.5222-.4923.7731-.7516.3906-.3995.7573-.8197 1.1133-1.2447.2192-.2615.4446-.5173.6521-.7881.3631-.4768.6886-.9713 1.0057-1.471.1527-.2389.3252-.4752.4672-.7188.4333-.7516.8221-1.5193 1.136-2.3006 1.3605-3.3843 1.4121-7.4576-.7811-10.5212-.8643-1.2065-2.083-1.8064-3.4901-2.2382-1.6374-.486-3.3623-.6069-5.0549-.3621z" fill="#fff"/><path d="m73.6195 113.026c-11.5282.701-23.8284 7.443-23.8284 7.443-4.4988 2.465-7.1702 4.533-5.9363 4.601 0 0 0 0 1.1224-.031 5.0668-.112 10.1183-.589 15.1169-1.428 3.1945-.517 3.1945-.517 3.1945-.517 3.5053-.735 6.7921-1.432 7.3053-1.551.5126-.122 2.1299-.526 3.5962-.9 1.4635-.376 4.512-2.243 3.5739-3.159-.9375-.914-2.9655-4.39-3.6974-4.481-.0034-.004-.0034-.004-.4471.023z" fill="#fff"/></svg>