<svg fill="none" height="116" viewBox="0 0 118 116" width="118" xmlns="http://www.w3.org/2000/svg"><path d="m30.0771 57.4871c-3.9792-2.3984-8.0677-5.0305-10.7793-8.5283-1.6952-2.1867-2.8876-4.7397-3.2417-7.801-.3519-3.0421.1388-6.4556 1.5996-10.3582l.0001-.0003c.1145-.3057.1391-.4889.1408-.5827-.0487-.0237-.1315-.0554-.264-.0848-.8279-.1838-2.2512.0595-3.2819.7063l-.0007.0004c-2.0314 1.2734-4.0874 1.9142-6.18228 1.6568-2.08328-.2559-3.87499-1.3602-5.46473-2.912l-.60299-.5886v-.8426-.0079-.0078-.0079-.0078-.0079-.0079-.0078-.0079-.0079-.0078-.0079-.0079-.0078-.0079-.0079-.0078-.0079-.0078-.0079-.0079-.0078-.0079-.0079-.0078-.0079-.0079-.0078-.0079-.0079-.0078-.0079-.0078-.0079-.0079-.0078-.0079-.0079-.0078-.0079-.0079-.0078-.0079-.0079-.0078-.0079-.0078-.0079-.0079-.0078-.0079-.0079-.0078-.0079-.0079-.0078-.0079-.0078-.0079-.0079-.0078-.0079-.0079-.0078-.0079-.0079-.0078-.0079-.0079-.0078-.0079-.0078-.0079-.0079-.0078-.0079-.0079-.0078-.0079-.0079-.0078-.0079-.0079-.0078-.0079-.0078-.0079-.0079-.0078-.0079-.0079-.0078-.0079-.0079-.0078-.0079-.0078-.0079-.0079-.0078-.0079-.0079-.0078-.0079-.0079-.0078-.0079-.0079-.0078-.0079-.0078-.0079-.0079-.0078-.0079-.0079-.0078-.0079-.0079-.0078-.0079-.0079-.0078-.0079-.0078-.0079-.0079-.0078-.0079-.0079-.0078-.0079-.0079-.0078-.0079-.0079-.0078-.0079-.0078-.0079-.0079-.0078-.0079-.0079-.0078-.0079-.0079-.0078-.0079-.0079-.0078-.0079-.0078-.0079-.0079-.0078-.0079-.0079-.0078-.0079-.0079-.0078-.0079-.0078-.0079-.0079-.0078-.0079-.0079-.0078-.0079-.0079-.0078-.0079-.0079-.0078-.0079-.0078-.0079-.0079-.0078-.0079-.0079-.0078-.0079-.0079-.0078-.0079-.0079-.0078-.0079-.0078-.0079-.0079-.0078-.0079-.0079-.0078-.0079-.0079-.0078-.0079-.0079-.0078-.0079-.0078-.0079-.0079-.0078-.0079-.0079-.0078-.0079-.0079-.0078-.0079-.0078-.0079-.0079-.0078-.0079-.0079-.0078-.0079-.0079-.0078-.0079-.0079-.0078-.0079-.0078-.0079-.0079-.0078-.0079-.0079-.0078-.0079-.0079-.0078-.0079-.0079-.0078-.0079-.0078-.0079-.0079-.0078-.0079-.0079-.0078-.0079-.0079-.0078-.0079-.0079-.0078-.0079-.0078-.0079-.0079-.0078-.0079-.0079-.0078-.0079-.0079-.0078-.0079-.0079-.0078-.0079-.0078-.0079-.0079-.0078-.0079-.0079-.0078-.0079-.0079-.0078-.0079-.0078-.0079-.0079-.0078-.0079-.0079-.0078-.0079-.0079-.0078-.0079-.0079-.0078-.0079-.0078-.0079-.0079-.0078-.0079-.0079-.0078-.0079-.0079-.0078-.0079-.0079-.0078-.0079-.0078-.0079-.0079-.0078-.0079-.0079-.0078-.0079-.0079-.0078-.0079-.0078-.0079-.0079-.0078-.0079-.0079-.0078-.0079-.0079-.0078-.0079-.0079-.0078-.0079-.0078-.0079-.0079-.0078-.0079-.0079-.0078-.0079-.0079-.0078-.0079-.0079-.0078-.0079-.0078-.0079-.0079-.0078-.0079-.0079-.0078-.0079-.0079-.0078-.0079-.0079-.0078-.0079-.0078-.0079-.0079-.0078-.0079-.0079-.0078-.0079-.0079-.0078-.0079-.0078-.0079-.0079-.0078-.0079-.0079-.0078-.0079-.0079-.0078-.0079-.0079-.0078-.0079-.0078-.0079-.0079-.0078-.0079-.0079-.0078-.0079-.0079-.0078-.0079-.0079-.0078-.0079-.0078-.0079-.0079-.0078-.0079-.0079-.0078-.0079-.0079-.0078-.0079-.0079-.0078-.0079-.0078-.0079-.0079-.0078-.0079-.0079-.0078-.0079-.0079-.0078-.0079-.0079-.0078-.0079-.0078-.0079-.0079-.0078-.0079-.0079-.0078-.0079-.0079-.0078-.0079-.0078-.0079-.0079-.0078-.0079-.0079-.0078-.0079-.0079-.0078-.0079-.0079-.0078-.0079-.0078-.0079-.0079-.0078-.0079-.0079-.0078-.0079-.0079-.0078-.0079-.0079-.0078-.0079-.0078-.0079-.0079-.0078-.0079-.0079-.0078-.0079-.0079-.0078-.0079-.0079-.0078-.0079-.0078-.0079-.0079-.0078-.0079-.0079-.0078-.0079-.0079-.0078-.0079-.0079-.0078-.0079-.0078-.0079-.0079-.0078-.0079-.0079-.0078-.0079-.0079-.0078-.0079-.0078-.0079-.0079-.0078-1.1344l.97362-.5822c3.23487-1.9342 6.66351-3.4114 10.23548-3.6299 3.653-.2234 7.2625.8812 10.7648 3.7495h.0001c.2358.1932.4146.2395.6197.2387.2683-.001.6874-.0907 1.3291-.3911zm0 0c-12.0967 10.0546-15.2314 24.3757-18.2231 38.0433-.2693 1.2302-.5374 2.4552-.8108 3.6712-.7198 3.2014-1.54397 7.3004 1.6159 10.3204 3.2532 3.109 7.4137 2.615 11.0639 1.651h.0003c9.2435-2.442 14.8118-8.692 19.4655-15.4718m-13.1117-38.2141 13.1117 38.2141m0 0c9.341 10.9458 20.8037 18.4398 36.9171 16.3638m-36.9171-16.3638-17.2656-73.3251c.2705-.1269.3653-.2371.3929-.2738.0266-.0353.044-.0729.0533-.1388.0111-.0781.0093-.1959-.0243-.3498-.0335-.1532-.0896-.3006-.1466-.4147l-.0001-.0003c-1.9298-3.8684-1.9364-7.3311-.7934-10.4866 1.0952-3.02359 3.2136-5.65919 5.2503-8.02392l.5985-.69477h.9169.0105.0105.0105.0104.0105.0105.0105.0105.0104.0105.0105.0105.0104.0105.0105.0105.0105.0104.0105.0105.0105.0104.0105.0105.0105.0105.0104.0105.0105.0105.0105.0104.0105.0105.0105.0104.0105.0105.0105.0105.0104.0105.0105.0105.0105.0104.0105.0105.0105.0104.0105.0105.0105.0105.0104.0105.0105.0105.0105.0104.0105.0105.0105.0105.0104.0105.0105.0105.0105.0104.0105.0105.0105.0104.0105.0105.0105.0105.0104.0105.0105.0105.0105.0104.0105.0105.0105.0105.0104.0105.0105.0105.0105.0104.0105.0105.0105.0105.0104.0105.0105.0105.0105.0104.0105.0105.0105.0105.0104.0105.0105.0105.0105.0104.0105.0105.0105.0105.0104.0105.0105.0105.0105.0104.0105.0105.0105.0105.0105.0104.0105.0105.0105.0105.0104.0105.0105.0105.0105.0104.0105.0105.0105.0105.0104.0105.0105.0105.0105.0104.0105.0105.0105.0105.0104.0105.0105.0105.0105.0105.0104.0105.0105.0105.0105.0104.0105.0105.0105.0105.0104.0105.0105.0105.0105.0105.0104.0105.0105.0105.0105.0104.0105.0105.0105.0105.0104.0105.0105.0105.0105.0104.0105.0105.0105.0105.0105.0104.0105.0105.0105.0105.0104.0105.0105.0105.0105.0104.0105.0105.0105.0105.0105.0104.0105.0105.0105.0105.0104.0105.0105.0105.0105.0105.0104.0105.0105.0105.0105.0104.0105.0105.0105.0105.0104.0105.0105.0105.0105.0105.0104.0105.0105.0105.0105.0104.0105.0105.0105.0105.0105.0104.0105.0105.0105.0105.0104.0105.0105.0105.0105.0104.0105.0105.0105.0105.0105.0104.0105.0105.0105.0105.0104.0105.0105.0105.0105.0105.0104.0105.0105.0105.0105.0104.0105.0105.0105.0105.0104.0105.0105.0105.0105.0105.0104.0105.0105.0105.0105.0104.0105.0105.0105.0105.0105.0104.0105.0105.0105.0105.0104.0105.0105.0105.0105.0104.0105.0105.0105.0105.0105.0104.0105.0105.0105.0105.0104.0105.0105.0105.0105.0104.0105.0105.0105.0105.0105.0104.0105.0105.0105.0105.0104.0105.0105.0105.0105.0104.0105.0105.0105.0105.0104.0105.0105.0105.0105.0105.0104.0105.0105.0105.0105.0104.0105.0105.0105.0105.0104.0105.0105.0105.0105.0104.0105.0105.0105.0105.0104.0105.0105.0105.0105.0104.0105.0105.0105.0105.0105.0104.0105.0105.0105.0105.0104.0105.0105.0105.0105.0104.0105.0105.0105.0105.0104.0105.0105.0105.0105.0104.0105.0105.0105.0105.0104.0105.0105.0105.0105.0104.0105.0105.0105.0105.0104.0105.0105.0105.0105.0104.0105.0105.0105.0105.0104.0105.0105.0105.0105.0104.0105.0105.0105.0104.0105.0105.0105.0105.0104.0105.0105.0105.0105.0104.0105.0105.0105.0105.0104.0105.0105.0105.0105.0104.0105.0105.0105.0104.0105.0105.0105.0105.0104.0105.0105.0105.0105.0104.0105.0105.0105.0104.0105.0105.0105.0105.0104.0105.0105.0105.0105.0104.0105.0105.0105.0104.0105.0105.0105.0105.0104.0105.0105.0105.0104.0105.0105.0105.0105.0104.0105.0105 1.435l.4596 1.35935c.6426 1.90033.8838 3.84726.4079 5.73432-.4836 1.91752-1.6514 3.54962-3.4208 4.89022l-.001.0008c-.6331.479-.8488.9451-.9225 1.4314-.0876.5787.0086 1.3403.3189 2.3627.0825.2719.1574.4026.1933.4547.0143.003.0339.0064.0599.0099.1885.0254.44.0194.9408-.0084.0221-.0012.0446-.0024.0677-.0037.431-.0242 1.032-.058 1.6553-.0021m41.3752 93.8424c.4304-.056.9964-.217 1.4225-.338.049-.014.0961-.028.141-.04.5331-.151 1.0459-.291 1.518-.375.1625-.029.3057-.049.4298-.061l.2505.83h1.4854c.5902 0 .7957.117 1.2393.368l.0246.014c.6721.381 1.6029.902 3.2367.902h2.1211l-.1246-2.117c-.2897-4.924.601-9.754 1.5451-14.8737.0834-.4523.1673-.9068.2507-1.3639 1.0111-5.5369 1.9555-11.3995 1.0332-17.5081l-.0001-.0006c-.4144-2.7383-.9549-5.407-1.7806-8.0396.8959.1103 1.8089.2415 2.747.3763l.2018.029c2.0523.2946 4.2247.6001 6.3927.6636 4.423.1294 8.976-.7467 13.136-4.6893l.624-.5916v-.86-.0157-.0157-.0158-.0157-.0157-.0158-.0157-.0157-.0157-.0158-.0157-.0157-.0158-.0157-.0157-.0157-.0158-.0157-.0157-.0157-.0158-.0157-.0157-.0158-.0157-.0157-.0157-.0158-.0157-.0157-.0158-.0157-.0157-.0157-.0158-.0157-.0157-.0158-.0157-.0157-.0157-.0158-.0157-.0157-.0158-.0157-.0157-.0157-.0158-.0157-.0157-.0158-.0157-.0157-.0157-.0158-.0157-.0157-.0158-.0157-.0157-.0157-.0158-.0157-.0157-.0158-.0157-.0157-.0157-.0158-.0157-.0157-.0157-.0158-.0157-.0157-.0158-.0157-.0157-.0157-.0158-.0157-.0157-.0158-.0157-.0157-.0157-.0158-.0157-.0157-.0158-.0157-.0157-.0157-.0158-.0157-.0157-.0158-.0157-.0157-.0157-.0158-.0157-.0157-.0158-.0157-.0157-.0157-.0158-.0157-.0157-.0158-.0157-.0157-.0157-.0158-.0157-.0157-.0158-.0157-.0157-.0157-.0158-.0157-.0157-.0158-.0157-.0157-.0157-.0158-.0157-.0157-.0157-.0158-.0157-.0157-.0158-.0157-.0157-.0157-.0158-.0157-.0157-.0158-.0157-.0157-.0157-.0158-.0157-.0157-.0158-.0157-.0157-.0157-.0158-.0157-.0157-.0158-.0157-.0157-.0157-.0158-.0157-.0157-.0158-.0157-.0157-.0157-.0158-.0157-.0157-.0158-.0157-.0157-.0157-.0158-.0157-.0157-.0158-.0157-.0157-.0157-.0158-.0157-.0157-.0158-.0157-.0157-.0157-.0158-.0157-.0157-.0158-.0157-.0157-.0157-.0158-.0157-.0157-.0157-.0158-.0157-.0157-.0158-.0157-.0157-.0157-.0158-.0157-.0157-.0158-.0157-.0157-.0157-.0158-.0157-.0157-.0158-.0157-.0157-.0157-.0158-.0157-.0157-.0158-.0157-.0157-.0157-.0158-.0157-.0157-.0158-.0157-.0157-.0157-.0158-.0157-.0157-.0158-.0157-.0157-.0157-.0158-.0157-.0157-.0157-.0158-.0157-.0157-.0158-.0157-.0157-.0157-.0158-.0157-.0157-.0158-.0157-.0157-.0157-.0158-.0157-.0157-.0158-.0157-.0157-.0157-.0158-.0157-.0157-.0158-.0157-.0157-.0157-.0158-.0157-.0157-.0158-.0157-.0157-.0157-.0158-.0157-.0157-.0158-.0157-.0157-.0157-.0158-.0157-.0157-.0158-.0157-.0157-.0157-.0158-.0157-.0157-.0158-.0157-.0157-.0157-.0158-.0157-.0157-.0157-.0158-.0157-.0157-.0158-.0157-.0157-.0157-.0158-.0157-.0157-.0158-.0157-.0157-.0157-.0158-.0157-.0157-.0158-.0157-.0157-.0157-.0158-.0157-.0157-.0158-.0157-.0157-.0157-.0158-.0157-.0157-.0158-.0157-.0157-.0157-.0158-.0157-.0157-.0158-.0157-.0157-.0157-.0158-.0157-.0157-.0158-.0157-.0157-.0157-.0158-.0157-.0157-.0158-.0157-.0157-.0157-.0158-.0157-.0157-.0158-.0157-.0157-.0157-.0158-.0157-.0157-.0157-.0158-.0157-.0157-.0158-.0157-.0157-.0157-.0158-.0157-.0157-.0158-.0157-.0157-.0157-.0158-.0157-.0157-.0158-.0157-.0157-.0157-.0158-.0157-.0157-.0158-.0157-.0157-.0157-.0158-.0157-.0157-.0158-.0157-.0157-.0157-.0158-.0157-.0157-.0158-.0157-.0157-.0157-.0158-.0157-.0157-.0158-.0157-.0157-.0157-.0158-.0157-.0157-.0158-.0157-.0157-.0157-.0158-.0157-.0157-.0157-.0158-.0157-.0157-.0158-.0157-.0157-.0157-.0158-.0157-.0157-.0158-.0157-.0157-.0157-.0158-.0157-.0157-.0158-.0157-.0157-.0157-.0158-.0157-.0157-.0158-.0157-.0157-.0157-.0158-.0157-.0157-.0158-.0157-.0157-.0157-.0158-.0157-.0157-.0158-.0157-.0157-.0157-.0158-.0157-.0157-.0157-.0158-.0157-.0157-.0158-.0157-.0157-.0157-.0158-.0157-.0157-.0158-.0157-.0157-.0157-.0158-.0157-.0157-.0158-.0157-.0157-.0157-.0158-.0157-.0157-.0158-.0157-.0157-.0157-.0158-.0157-.0157-.0158-.0157-.6438l-.376-.5229c-.641-.8936-1.185-1.8828-1.733-2.9717-.181-.3599-.37-.7468-.565-1.1458-.364-.7456-.749-1.5336-1.141-2.2674-1.259-2.3524-2.911-4.7927-5.848-6.5436-15.6529-9.3308-31.646-7.3644-47.2479-3.4654.4647-4.5896-1.0862-9.0018-4.0451-12.5367-3.6579-4.37-9.4478-7.4016-16.3133-8.0173m41.3752 93.8424-.2555-1.984zm-41.3752-93.8424-.1786 1.992zm-20.9412 11.9144c.0005-.0002.0022.0048.0039.0157-.0035-.01-.0044-.0155-.0039-.0157zm.0673.1168c-.0002.0001-.0027-.0017-.0067-.006.0048.0037.0069.0059.0067.006zm18.1174-12.0355c0-.0001.0013.0003.0036.0013-.0025-.0008-.0036-.0013-.0036-.0013zm.0529.0351c.0016.0015.0023.0023.0023.0024 0 0-.0008-.0008-.0023-.0024z" fill="#fff" stroke="#fff" stroke-width="4"/><path d="m48.9999 49.5129 23 2.5 12 13.5 4.5 14.5v17.5l-7 8.5001-18-2-12.5-9.5001-12.5-26z" fill="#fff"/><g clip-rule="evenodd" fill-rule="evenodd"><path d="m85.3531 110.081c-.5487-1.817-4.3343-.15-5.5027 0-16.1365 2.079-27.3887-5.924-36.8312-17.7258 1.3723-9.0635 2.7459-18.1271 4.1196-27.1906.8907 8.4609 4.9969 7.4704 9.9966 3.3178 3.1819-2.6454 6.1922-5.4934 9.2802-8.2489 8.0501 1.6321 16.1673 3.0427 23.5427 6.9604 1.3978 3.4131 2.1826 6.9013 2.7433 10.607 1.7345 11.4875-3.5133 22.2581-2.8479 33.5641-2.2349 0-2.2658-1.284-4.5006-1.284zm-10.1898-41.4778c-9.2776 1.824-17.1908 5.9242-22.7794 13.812-2.3677 3.342-1.426 6.5001 1.2999 8.9602 3.6796 3.3245 4.3718-1.3622 5.8072-2.801 5.0855-5.0935 10.3776-9.6957 17.3397-12.0968 1.5883-.5476 5.3498.4898 3.9265-3.2319-.8626-2.2522-1.9693-5.2532-5.5939-4.6425zm-.5406 33.0808c7.1929-.863 10.5627-5.0863 10.7304-11.7192.0576-2.2628.44-6.8221-3.0774-6.0558-7.3002 1.5932-14.9304 5.2532-17.2941 12.321-1.3093 3.912 6.1224 4.033 9.6411 5.454z" fill="#e3000b"/><path d="m33.6182 57.2781c-9.6693-5.8222-19.6069-11.0378-14.0894-25.7773 1.481-3.954-3.5348-4.1177-6.3411-2.3568-3.55624 2.2293-6.38404 1.7448-9.1877-.9919 0-1.3421 0-2.6843 0-4.0264 6.2244-3.7218 12.4233-5.1955 18.7067-.0497 1.1832.969 2.5139.8375 4.0646.1114 2.0981-.9838 1.705-2.9031 1.2167-3.8815-3.3697-6.755.102-11.5747 4.1827-16.31249h5.3659c1.1241 3.3245.6197 6.15779-2.3261 8.38979-2.0806 1.5743-1.9975 3.707-1.3106 5.9699.8102 2.6682 2.7071 1.6871 4.6522 1.8615 12.7814 1.1462 21.1294 11.2446 17.934 21.3-4.8709 4.7149-7.9602 9.4299.0121 14.1341-4.9004.7637-7.8838 3.6467-9.2293 8.3442.7204-12.9692-5.8944-11.0043-13.6507-6.7148z" fill="#e3000b"/><path d="m56.4981 55.6474c-7.9736-4.7043-4.8842-9.4193-.0134-14.1342 16.5295-4.3754 32.8873-7.0557 48.8283 2.4467 4.971 2.9635 5.755 8.2945 8.687 12.3773v8.0529c-7.315 6.9336-15.8749 3.1769-24.0417 2.8024-7.3754-3.9177-15.4926-5.3283-23.5441-6.9604-3.3053-1.5273-6.6094-3.056-9.9161-4.5847z" fill="#f7a600"/><path d="m33.6182 57.2781c7.7577-4.2895 14.3724-6.2544 13.6507 6.7107.1073.1208.3273.2846.3005.3638-.0993.2858-.279.5435-.4293.812-1.3723 9.0635-2.746 18.127-4.1196 27.1906-4.946 7.5603-10.3239 14.3788-19.8081 16.8838-3.5736.944-6.7462 1.155-9.1715-1.163-2.2389-2.14-1.8057-5.059-1.0464-8.4356 3.5576-15.824 6.097-31.9459 20.6237-42.3623z" fill="#f7a600"/></g></svg>