<svg fill="none" height="23" viewBox="0 0 29 23" width="29" xmlns="http://www.w3.org/2000/svg"><path d="m15.0029 20.6307c.0431.6212.6298 1.393 1.1127.5809.4384-.4408 1.5147.5423 2.6527-.5469.8593-.7244 1.4708-1.5662 2.1601-2.3808.7232-1.2124 1.3251-2.522 1.8091-3.853.1528-1.0354.5854-1.9328.8259-2.9297.3287-1.1023.2979-2.18595.3409-3.29228.0768-1.98057-2.4335-4.38736-2.3892-4.65443.0198-.71789-.4831-1.99161-1.5343-1.11343-.4227.29091-.8607-.30298-1.2678-.16318-.5179.09677-.6889-.0937-1.1332-.13855-1.705.36656-3.2067 2.50473-3.683 4.18813.0927.60535.2044 1.6862.0535 2.57867-.0437.39326-.2117.99074.032 1.41367-.2493.5436-.1153 1.0185.0115 1.6213-.0208.7144.129 1.127.2538 1.6133.0885.3449-.5516.47-.41.8.2948.385.3968.7681.3196.871-.4969.7084-.0375 1.423.2143 2.3089.2678.7912-.3988 2.1017.3878 2.6734.138.0954.2567.2448.2436.423z" fill="#e3000b"/><path d="m18.1497 19.4876c.3156.5368.2679 1.5051-.5895 1.1082-.6108-.1158-.9429 1.3036-2.4973 1.0484-1.1183-.1118-2.0986-.4605-3.1277-.7428-1.2819-.5913-2.51876-1.3313-3.6704-2.1556-.71138-.7677-1.57555-1.2634-2.33741-1.9498-.89425-.7234-1.4815-1.6347-2.14231-2.5231-1.18298-1.5903-.47285-4.99466-.66036-5.18993-.42213-.581-.72734-1.91594.6362-1.78578.51316.001.53874-.7365.95354-.85128.48196-.21298.51532-.46674.85645-.7549 1.61369-.66148 4.06113.25336 5.40569 1.37273.2656.55177.7845 1.50649 1.4135 2.15737.2584.29967.7347.69758.7727 1.18429.513.3074.6709.7748.907 1.3438.4211.5775.5308 1.0026.7027 1.4742.122.3345.7207.0759.7905.4282-.0255.4843.1069.8579.2287.8992.8103.3035.8354 1.1525 1.1284 2.0257.2264.804 1.5171 1.5082 1.1914 2.4245-.0599.1567-.0733.347.0382.4866z" fill="#f7a600"/></svg>