<svg fill="none" height="18" viewBox="0 0 16 18" width="16" xmlns="http://www.w3.org/2000/svg"><path d="m15.195 15.0286c.2871.5526.1887 1.5171-.6467 1.0758-.6039-.1476-1.0099 1.2525-2.5488.9164-1.1109-.1702-2.07165-.5698-3.08449-.9055-1.24926-.6576-2.44567-1.4613-3.55258-2.3448-.67023-.8039-1.50728-1.3441-2.23217-2.0694-.85516-.7693-1.39391-1.71007-2.00733-2.63178-1.098124-1.65005-.210794-5.01259-.387826-5.2174-.391146-.6023-.626071-1.95139.728786-1.75004.5124.02786.57655-.7073.99679-.80021.49245-.18747.53904-.43913.89478-.709038 1.6461-.5761249 4.0423.465558 5.32639 1.653758.23645.56491.70463 1.54549 1.29871 2.22839.24234.31278.69714.73507.70974 1.22308.4961.33383.6294.80892.8354 1.38947.3903.59876.4775 1.02897.6246 1.50896.1043.34044.7156.11353.7669.46899-.0508.48224.0618.86233.1813.9099.7934.34542.774 1.19462 1.0209 2.08202.184.8147 1.4361 1.5855 1.0628 2.4835-.0679.1534-.0913.3427.0128.4879z" fill="#fff"/></svg>