<svg fill="none" height="7" viewBox="0 0 218 7" width="218" xmlns="http://www.w3.org/2000/svg"><path d="m1.07412 6.28146c-.0631.00675-.085812.00943-.174999-.08107-.605797-.52008-1.532998-1.9317-.267554-3.90799.023558-.03648.1363-.17155.195197-.19722.08498-.01081 1.677726-.21345 4.020136-.51199.54438-.07024 1.10053-.14049 1.66594-.21208 1.69371-.22829 3.41855-.449832 5.17536-.544392 3.5111-.240451 7.1358-.605172 10.8589-.651101 1.8612-.056736 3.7476-.1161797 5.655-.175617 1.9066.00405254 3.8359.00675935 5.7845.00946105 3.8998-.03377125 7.8712.12833495 11.9107.19857895 8.0705.225592 16.3918.591665 24.8175.63084 8.4475.008105 17.0204.016217 25.5848.024322 56.2184.004053 112.0494.008101 112.0494.008101s3.982.430917 6.774 1.071217c4.736.89427 2.843 1.82365-.093 2.32346.306.09051-7.022.7916-7.022.7916s-56.602 0-113.6049 0c-8.4483-.01351-16.9042-.02837-25.2373-.04052-8.3533-.05539-16.5576-.44173-24.5054-.6376-3.9722-.08916-7.8812-.20129-11.7062-.17292-1.9124.01216-3.8064-.03513-5.676.02296-1.8687.05944-3.7164.11618-5.5396.17292-.9113.02837-1.8174.05674-2.7169.08511-.8977.06754-1.7896.13373-2.6756.19857-1.7703.13239-3.5153.26071-5.2326.38904-1.71891.0851-3.39915.37959-5.055.57006-.35843.04457-.71097.09051-1.05594.13509-2.28773.29178-3.8443.49036-3.92844.50117z" fill="#f7a600"/></svg>