<svg fill="none" height="7" viewBox="0 0 142 7" width="142" xmlns="http://www.w3.org/2000/svg"><path d="m.699658 6.28146c-.041104.00675-.055897.00943-.113992-.08107-.394602-.52008-.998558-1.9317-.174279-3.90799.015346-.03648.088783-.17155.127147-.19722.055354-.01081 1.092826-.21345 2.618626-.51199.35459-.07024.71686-.14049 1.08515-.21208 1.10324-.22829 2.22676-.449832 3.37111-.544392 2.28705-.240451 4.64808-.605172 7.07328-.651101 1.2123-.056736 2.441-.1161797 3.6835-.175617 1.2419.00405254 2.4986.00675935 3.7679.00946105 2.5402-.03377125 5.1271.12833495 7.7583.19857895 5.257.225592 10.6773.591665 16.1655.63084 5.5025.008105 11.0867.016217 16.6654.024322 36.6191.004053 72.9867.008101 72.9867.008101s2.593.430917 4.412 1.071217c3.085.89427 1.852 1.82365-.061 2.32346.2.09051-4.574.7916-4.574.7916s-36.8686 0-73.999 0c-5.5031-.01351-11.0111-.02837-16.4391-.04052-5.4411-.05539-10.7852-.44173-15.9622-.6376-2.5873-.08916-5.1336-.20129-7.6251-.17292-1.2457.01216-2.4794-.03513-3.6972.02296-1.2172.05944-2.4208.11618-3.6084.17292-.5936.02837-1.1838.05674-1.7697.08511-.5848.06754-1.1657.13373-1.7428.19857-1.15315.13239-2.28982.26071-3.4084.38904-1.11969.0851-2.21416.37959-3.29274.57006-.23347.04457-.46311.09051-.68781.13509-1.49017.29178-2.504086.49036-2.558892.50117z" fill="#f7a600"/></svg>