<svg fill="none" height="7" viewBox="0 0 350 7" width="350" xmlns="http://www.w3.org/2000/svg"><path d="m1.72451 6.28146c-.10131.00675-.13778.00943-.28097-.08107-.972607-.52008-2.46123-1.9317-.42956-3.90799.03783-.03648.21883-.17155.31339-.19722.13644-.01081 2.69359-.21345 6.45436-.51199.874-.07024 1.7669-.14049 2.67467-.21208 2.7193-.22829 5.4885-.449832 8.3091-.544392 5.6371-.240451 11.4565-.605172 17.434-.651101 2.9881-.056736 6.0167-.1161797 9.0791-.175617 3.061.00405254 6.1585.00675935 9.2871.00946105 6.2611-.03377125 12.6372.12833495 19.1226.19857895 12.9573.225592 26.3177.591665 39.8447.63084 13.562.008105 27.326.016217 41.076.024322 90.259.004053 179.897.008101 179.897.008101s6.392.430917 10.874 1.071217c7.604.89427 4.565 1.82365-.148 2.32346.491.09051-11.274.7916-11.274.7916s-90.875 0-182.393 0c-13.564-.01351-27.14-.02837-40.519-.04052-13.4112-.05539-26.5834-.44173-39.3435-.6376-6.3773-.08916-12.6534-.20129-18.7943-.17292-3.0705.01216-6.1113-.03513-9.1129.02296-3.0002.05944-5.9666.11618-8.8939.17292-1.463.02837-2.9179.05674-4.3619.08511-1.4414.06754-2.8733.13373-4.2957.19857-2.8422.13239-5.6439.26071-8.401.38904-2.7597.0851-5.4574.37959-8.11585.57006-.57546.04457-1.14147.09051-1.69532.13509-3.67296.29178-6.17203.49036-6.30712.50117z" fill="#fff"/></svg>