<svg enable-background="new 0 0 182.167 65.833" height="65.833" viewBox="0 0 182.167 65.833" width="182.167" xmlns="http://www.w3.org/2000/svg"><path d="m2.677 6.801c-.053-.093-.074-.127-.054-.303.035-1.16.679-3.207 3.5-2.192.052.021.265.128.333.207l3.771 6.295c4.363 7.158 8.919 14.192 14.594 20.067 2.826 2.93 5.921 5.557 9.322 7.623.871.472 1.705 1.027 2.602 1.436.902.396 1.794.832 2.701 1.201l2.761.922c.945.213 1.906.364 2.858.557 7.851 1.152 15.917-.75 23.565-3.69 3.846-1.468 7.638-3.187 11.457-4.938l5.745-2.618c1.889-.89 3.855-1.778 5.844-2.605 3.997-1.622 8.257-3.035 12.87-3.309 2.306-.101 4.664.119 6.947.734 2.288.632 4.399 1.737 6.336 3.027 1.93 1.359 3.438 2.955 5.05 4.492.779.787 1.45 1.647 2.18 2.469.729.824 1.426 1.662 2.061 2.527 2.678 3.422 5.016 6.909 7.568 10.162 2.502 3.285 5.35 6.122 8.42 8.518 1.578.959 3.225 1.916 4.998 2.299 1.754.418 3.565.547 5.385.25l1.882-.398.922-.305c.617-.18 1.226-.431 1.829-.699 0 0 1.47-.473 3.439-1.4 1.974-.902 4.441-2.258 6.514-3.393 6.9-4.061 5.001-1.363 1.32 2.072.229-.125-2.008 1.867-4.563 3.701-1.274.918-2.636 1.783-3.71 2.383-.52.321-1.003.527-1.326.695-.326.16-.516.254-.516.254-.686.32-1.448.523-2.178.776-.363.13-.738.233-1.129.31l-1.656.359c-1.16.133-2.32.287-3.508.212-2.351-.071-4.729-.604-6.82-1.607-1.092-.425-2.055-1.076-3.051-1.669-.957-.627-1.741-1.389-2.619-2.082l-1.279-1.066c-.416-.362-.764-.777-1.148-1.163l-2.256-2.36c-1.332-1.666-2.764-3.305-3.973-5.012-2.539-3.389-4.859-6.768-7.423-9.879l-1.955-2.271c-.656-.752-1.402-1.379-2.097-2.074-.703-.69-1.404-1.387-2.16-1.912-.719-.615-1.526-1.051-2.307-1.541-1.621-.847-3.324-1.498-5.127-1.785-1.803-.269-3.666-.266-5.543-.041-3.767.521-7.525 1.869-11.232 3.479l-11.255 5.127c-3.777 1.723-7.609 3.43-11.583 4.891-3.972 1.455-8.093 2.689-12.378 3.338-4.28.656-8.699.723-13.058-.028-2.204-.316-4.333-1.069-6.396-1.862-1.001-.457-2.015-.889-3-1.376l-2.854-1.632c-3.7-2.345-6.982-5.215-9.938-8.323-5.929-6.241-10.545-13.396-14.891-20.53z" fill="#f7a600"/><path d="m2.333 2c8.334 13 16.667 28 29.667 37.333 5.333 3.667 11.333 6 18 6.334 7 0 13.667-2.334 20-5 11.667-5.001 28-17 41.334-12.667 13.666 4.332 18 21.333 29 29.667 5.333 4 11.666 5 18.333 3.333 7.667-2.333 14-6.667 20-11.333" fill="none" stroke="#000" stroke-miterlimit="10" stroke-width="6"/></svg>