<svg enable-background="new 0 0 136.75 99.75" height="99.75" viewBox="0 0 136.75 99.75" width="136.75" xmlns="http://www.w3.org/2000/svg"><path d="m125.805 85.224c-2.883.626-6.324 1.478-9.049 2.11-1.361.318-2.543.594-3.385.793-.844.18-1.348.285-1.348.285l-2.525.734c-.419.129-.844.234-1.268.34l-2.846.717c-5.838 1.394-11.76 2.301-17.65 2.343-5.883.05-11.729-.807-17.199-2.767-1.378-.459-2.68-1.115-4.026-1.656-1.339-.563-2.574-1.371-3.868-2.038-1.309-.653-2.466-1.559-3.709-2.321-1.185-.85-2.336-1.744-3.472-2.654-4.456-3.77-8.297-8.291-11.397-13.27-3.136-5.029-5.479-10.551-6.92-16.283l2.009-.55 4.427-1.212c1.479-.389 2.954-.795 4.391-1.361 5.742-2.1 11.577-4.178 17.117-7.416 2.714-1.665 5.446-3.519 7.728-5.8l1.717-1.698 1.658-1.825c.531-.648 1.02-1.383 1.524-2.075.476-.724.86-1.532 1.282-2.3 1.548-3.165 2.09-7.206.904-10.78-.611-1.702-1.394-3.308-2.337-4.765-.44-.75-1.103-1.416-1.655-2.115-.603-.666-1.309-1.228-1.969-1.834-2.816-2.226-6.123-3.464-9.361-4.162-3.214-.69-6.622-.863-9.984-.419-6.801.877-12.954 4.924-16.919 10.166-2.009 2.625-3.627 5.5-4.839 8.519-1.173 3.031-1.988 6.191-2.428 9.398-.618 5.457-.496 10.92.354 16.293l-1.583.434c-5.822 1.765-11.854 2.85-17.834 4.101l-8.858 1.827c-.12.047-.336.251-.38.305-2.394 2.902-.355 4.512.986 5.026.196.095.244.085.376.06l8.986-1.853c5.964-1.259 11.966-2.314 17.841-4.092l1.576-.432c1.333 5.205 3.32 10.226 5.905 14.923 3.053 5.517 6.892 10.619 11.487 14.996 4.61 4.381 9.999 7.907 15.799 10.529 5.832 2.613 12.172 4.068 18.501 4.441 6.337.385 12.644-.242 18.747-1.431 1.517-.335 3.061-.587 4.553-.991l2.133-.539 1.307-.33 2.58-.746s.922-.332 2.297-.826c1.354-.537 3.164-1.219 4.924-1.95 3.525-1.458 6.897-2.999 6.576-2.941 5.571-2.784 8.815-5.316-.876-2.908zm-90.186-50.887c.414-5.698 2.115-11.317 5.254-15.978 3.034-4.72 7.645-8.199 12.885-9.425 2.629-.624 5.389-.543 8.142-.199 2.782.421 5.415 1.259 7.57 2.654.522.363 1.081.69 1.513 1.142l.701.624c.212.225.395.477.594.713.192.245.408.461.588.722l.495.838c.368.548.604 1.127.862 1.698 1.018 2.262 1.029 4.599.164 6.937-.846 2.339-2.544 4.446-4.629 6.461l-1.529 1.517c-.52.493-1.111.888-1.663 1.338-.571.426-1.094.906-1.703 1.29l-1.829 1.159c-4.913 3.052-10.597 5.159-16.317 7.23l-2.134.771c-.721.234-1.465.409-2.196.616l-4.405 1.201-1.892.517c-.579-3.912-.774-7.879-.471-11.826z" fill="#f7a600"/><path d="m1 57.5c12.179-2.563 24.461-4.904 36-8.75 8.333-3.205 24-7 36.82-17.545 10.661-8.769 3.514-25.872-12.82-26.282-23.212-.584-29.487 28.846-27.564 38.462 3.774 18.867 13.461 35.897 30.128 44.872 20.513 12.179 49.814 2.968 69.686-6.007" fill="none" stroke="#000" stroke-miterlimit="10" stroke-width="8"/></svg>