<svg fill="none" height="78" viewBox="0 0 55 78" width="55" xmlns="http://www.w3.org/2000/svg"><path d="m2.65546 68.1823c-.152-.015-.20696-.021-.42096.108-1.473998.727-3.615 2.768-.643 5.783.055.055.31595.262.45495.302 3.38.36 6.76002.719 10.20005 1.138 3.609.46 7.303.786 10.987 1.125 1.831.215 3.709.236 5.573.313l5.614.192c3.93-.056 8.118-.56 12.083-2.768 1.962-1.095 3.762-2.77 5.003-4.771.33-.493.5939-1.012.8319-1.543.271-.525.4421-1.059.6261-1.593.209-.559.294-1.011.416-1.495l.347-1.438.343-1.439c.113-.48.146-.971.223-1.456l.3809-2.92c.08-1.934.2391-3.887.1421-5.787-.051-3.834-.481-7.551-.889-11.186l-.606-5.4-.051-.47-.001-.578v-1.367l-.001-2.734-.0031-6.327s-.638-9.463-1.586-16.09799c-1.324-11.259-2.6989-6.759-3.4379.22-.136-.729-1.173 16.69199-1.173 16.69199v6.796 2.688.672c-.004.157-.005.433.026.616l.0409.369.1471 1.353.607 5.358c.783 7.035 1.309 13.906-.372 20.268l-.2861 1.2c-.099.386-.2239.659-.3259.998-.117.314-.278.586-.404.887l-.4991.809c-.737 1.018-1.7379 1.847-2.9679 2.49-2.473 1.294-5.715 1.763-8.996 1.74l-5.24-.197c-1.746-.063-3.49-.102-5.253-.308-3.514-.324-7.024-.635-10.588-1.09-3.38604-.413-6.84404-.783-10.30204-1.152z" fill="#e3000b"/></svg>