<svg fill="none" height="271" viewBox="0 0 754 271" width="754" xmlns="http://www.w3.org/2000/svg"><path d="m3.32422 1.89159c32.99998 1.86374 64.97298 3.18325 97.97278 3.18325 24.138.41468 48.292.74828 72.451.81817 24.142.06989 48.285-2.51417 72.443-2.69402 24.143-.17892 48.338 3.01646 72.491 2.68285 24.144-.33268 48.229-4.41333 72.379-4.80657 24.146-.393253 48.343 1.92057 72.489 1.5618 24.15-.35877 48.298-.11182 72.443-.342 24.155-.23017 48.289.25534 72.433.24975 24.157-.00745 48.31-2.414463 72.451-2.103218 24.154.312176 47.998 1.286908 72.13 2.011898-.25 22.103.378 43.8771.331 65.8925-.047 22.0741.421 44.116.483 66.16.063 22.045-1.901 44.095-1.822 66.168.078 22.016-.335 42.306-.335 64.409-26-.932-51.377 1.446-77.377.515-24.865-.414-49.696-3.328-74.539-3.36-24.864-.032-49.727 1.596-74.574 1.837-24.858.24-49.744-.934-74.591-.531-24.854.402-49.645 3.928-74.492 4.383-24.852.454-49.717.229-74.568.626-24.851.398-49.696 1.466-74.552 1.696-24.85.231-49.716.409-74.576.361-24.846-.047-49.695-1.353-74.5578-1.788-24.833-.434-48.9529-1.747-73.80894-2.677-.333-22.055-1.14501-43.423-1.07001-65.477.073-22.056-1.57201-44.108-1.60901-66.164-.037-22.052.19899-44.0895-.468014-66.1412 0-22.3649 4.116024-43.8156 4.116024-66.18048.002-.14444-1.67303-.29073-1.67303-.29073z" fill="#f7a600"/></svg>