<svg fill="none" height="72" viewBox="0 0 50 72" width="50" xmlns="http://www.w3.org/2000/svg"><path d="m2.10946 68.8378c.002.151.002.206.153.403.883 1.364 3.146 3.349 5.819.074.049-.06.22601-.345.25101-.488l-.01301-5.171-.07399-5.196c-.009-3.041-.20101-6.113-.30301-9.171-.048-1.528-.21699-3.067-.31999-4.601l-.179-2.302-.08901-1.15-.02199-.288-.00901-.121.005.079-.007-.518c-.062-6.207-.486-12.15-.016-17.848.189-1.39.276-2.832.599-4.151.259-1.386.551-2.619 1.065-3.742.21-.595.54-1.099.813-1.643.34504-.484.63804-1.014 1.04504-1.439.745-.914 1.643-1.68496 2.679-2.30596 2.042-1.28 4.605-1.98501 7.307-2.30301l.479-.06199.345-.026.69-.05401c.457-.046.929-.04701 1.395-.06601.935-.029 1.88-.028 2.834.013 0 0 2.227-.102 5.337-.008 3.106.08 7.088.386 10.432.542 5.662.42 7.472-.03198 6.967-.71198-.495-.676-3.178-1.679-6.544-2.707.366.016-3.665-1.11001-7.951-2.01001-2.14-.45-4.347-.81699-6.036-1.028992-.842-.113-1.555-.18402-2.057-.22702-.501-.047-.789-.072999-.789-.072999-1.059-.014-2.122-.009-3.196.043-.535.017-1.078.074023-1.617.111023l-.405.030975-.563.069-1.219.157013c-1.631.265-3.273.64901-4.899 1.21701-1.622.599-3.217 1.38899-4.70004 2.41199-1.474 1.047-2.783 2.34601-3.882 3.78501-1.077 1.46-1.895 3.05696-2.521 4.68396-.286.813-.561 1.666-.759 2.471l-.486 2.388c-.188.801-.232 1.581-.345 2.372-.09.787-.216 1.581-.244 2.356-.467995 6.265 0 12.304.03 18.08l.004.358c0 .108.01301.24.02301.359l.00999.137.04201.546.08399 1.092.168 2.184c.094 1.459.265 2.903.297 4.374.097 2.937.279 5.854.287 8.812l.073 5.118z" fill="#e3000b"/></svg>