<svg fill="none" height="98" viewBox="0 0 100 98" width="100" xmlns="http://www.w3.org/2000/svg"><path d="m50.6498.302361c-16.0446 0-31.7883 6.627029-41.53742 19.700639-.76437 1.0226-1.48326 2.0774-2.15668 3.1631-8.70595 14.0375-9.31481 32.7698-1.40111 47.2695 6.79431 12.4486 19.23701 21.3159 32.85641 25.2772 9.4644 2.7509 19.7578 3.2614 29.1255.1966 8.6502-2.8286 16.2015-8.6253 21.6929-15.8817 9.3427-12.3444 12.6436-29.0521 8.6987-44.0198-1.9836-7.5249-5.7805-14.5378-10.8656-20.418-4.8797-5.64702-11.492-11.20892-18.6604-13.55779-.3507-.11591-.6984-.23914-1.0476-.36092-6.291-2.184553-12.2622-1.7282757-18.7631-1.368829" fill="#e3000f"/><path d="m7.53392 34.0257 2.49558 9.5774c.179.6852.7981 1.165 1.5068 1.165h.9066 1.0813c.8598 0 1.5566-.6984 1.5566-1.5581v-9.5775-1.3189h1.0813c.8598 0 1.5566.6969 1.5566 1.5581v1.0563c0 .6485.4035 1.2295 1.0109 1.4583l.4152.1556c.4343.1628.9169.1232 1.3189-.1072l.8715-.4973c.2245-.1276.4123-.3081.5487-.5267l1.1106-1.7782 1.9058-3.0179c.135-.2127.3184-.3902.537-.5164l2.0525-1.1884c.4827-.2787 1.0784-.2787 1.5611 0l2.0231 1.1723c.2377.1364.5062.2083.7805.2083h.9419c.4739 0 .9214-.2157 1.2178-.5854l1.3028-1.6314c.22-.2758.3389-.6192.3389-.9727v-.5165c0-.8612.6983-1.5581 1.5581-1.5581.3521 0 .6895-.1467.9287-.4049l.5252-.5634c.2685-.289.4181-.6675.4181-1.0622v-.9844c0-.333.1071-.6573.3052-.9258l.5164-.6998c.3023-.4079.3316-.9566.0763-1.3938-.3521-.6015-1.1223-.8084-1.7268-.4621l-2.0731 1.184 4.0919-5.3741c.0851-.113.1555-.2362.2068-.3668l.6544-1.6403c.4078-1.0226-.3463-2.1346-1.4466-2.1346h-.0778-4.2781c-.3067 0-.606-.0895-.8612-.25973l-3.1896-2.1156c-.4108-.27288-.9257-.33891-1.3879-.16725-3.4521 1.272-17.8491 7.57628-22.36638 25.57938-.06456.2583-.06309.5326.0044.7908z" fill="#fff"/><path d="m67.9412 11.5757-2.6423 6.2383c-.336.7922-1.0461 1.3629-1.8911 1.5199l-6.5082 1.206c-.6426.1203-1.2163.4812-1.6036 1.0094l-.0983.1379c-.5179.7071-.6367 1.6285-.3154 2.4428l.5002 1.2808c.3213.8172.1996 1.7429-.3227 2.4515l-3.2512 4.4176c-.3228.4401-.4973.9712-.4973 1.517v1.2837 2.9563 2.7494c0 1.1267-.6661 3.6121 1.605 3.0384 2.8433-.7203 3.6429-5.176 7.1082-5.1775.6823 0 2.0438-.3712 2.9446-.6411.5766-.1731 1.1928-.1394 1.7459.0983l.0044.0014c.7907.339 1.36 1.0505 1.5111 1.8956l.0455.2509c.2142 1.1751 1.2206 2.0598 2.4149 2.0642h.0455c.9243 0 2.8535-.4475 4.2356-.801.9668-.2465 1.9879.0865 2.6203.8582l.9419 1.1503c.2993.3653.6939.6411 1.1385.7966l3.4961 1.2163c.27.0924.5546.1423.8407.1423h2.3181.044c1.137 0 2.1317.7511 2.456 1.8398.3843 1.2954.71 2.7097 1.6461 3.6502 1.4466 1.4524 3.8116 1.1355 5.4958.983.9419-.0895 1.6946-.8481 1.7313-1.7973.1804-4.7711-1.3087-10.0821-2.5118-14.5304-2.0363-7.5235-5.4592-15.135-11.4583-20.3301-3.1293-2.7098-6.8808-4.5701-10.9139-5.4386-1.1928-.25677-2.4003.3961-2.8756 1.5199z" fill="#f7a600"/><path d="m43.1367 17.7979c-.0748.3037-.1232.6324-.1467.986-.1584 2.4721.6588 5.3931 3.3832 6.0269 3.2541.7585 2.8125-1.9879 2.6614-4.3838-.0337-.5545.3022-1.0651.8245-1.2602l3.0737-1.1532c.3506-.132.625-.4108.7511-.7629l.4724-1.3292c.2186-.6118-.0586-1.2882-.6426-1.5698-.6103-.2949-1.3482-.65-1.7781-.8568-.2377-.1145-.4988-.1482-.7585-.1042-3.2453.5531-7.0246 1.0607-7.8404 4.4072z" fill="#fff"/><path d="m46.4743 64.5642c-.1511.6881 7.8213 2.7039 9.8914 3.2145.3271.0821.6323.22.9052.4122l3.7808 2.6599c.5252.3683.9023.9096 1.0637 1.5302l1.1355 4.3369c.1277.49.1174 1.002-.0308 1.4862-.3917 1.2558-1.159 3.747-1.3556 4.4278-.2641.9228-1.5816 3.5622-1.4495 4.353.0895.5325.5941 2.2608.9184 3.3333.1702.5751.5296 1.0739 1.0182 1.4231l.0044.0029c.6895.4915 1.5654.6353 2.3738.3859l5.6103-1.7312c.5384-.1643 1.0094-.493 1.3527-.9405.7732-1.0094 2.12-2.8609 2.3063-3.7925.2245-1.1268 1.0241-4.3603 1.2544-5.2875.0411-.1673.0998-.3316.1717-.4886l1.6197-3.4815c.0777-.1643.1731-.3257.2817-.4709l4.0287-5.4196c.1922-.2582.4284-.4798.6998-.6544l1.787-1.1619c.7688-.5003 1.2339-1.3557 1.2339-2.2741v-.4122c0-.9053-.4534-1.7518-1.2075-2.2536l-1.2383-.8274c-.914-.6089-1.3703-1.7092-1.1546-2.7861l.3639-1.8222c.0469-.2347.0631-.4739.0469-.713l-.1467-2.1963c-.0587-.8788-.5399-1.674-1.2925-2.1332l-3.3216-2.029c-.1526-.0939-.3125-.1717-.4798-.2318l-4.1857-1.5361c-.826-.3023-1.7444-.1878-2.4692.3095-.9257.6353-2.1464.6338-3.0707-.0014l-.4563-.314c-.4533-.311-.9873-.4768-1.536-.4768h-2.4575c-.3976 0-.7937.0895-1.1546.2582l-3.4536 1.6256c-.3184.1496-.6632.2362-1.0138.2538l-3.6576.1878c-.6074.0323-1.1884.2655-1.6446.6675-.8671.76-2.2506 2.0129-2.6057 2.547-.5281.7907-2.4691 2.6379-2.4662 6.3292z" fill="#fff"/><path d="m42.2636 90.8331c-9.8694-3.3935-18.7719-10.2098-25.3637-18.2188-1.5772-1.9161-3.059-3.9686-3.8556-6.3204-1.4261-4.2107.5707-8.0194 1.8456-11.9747.7923-2.4648.4431-4.623 3.0223-5.6954 4.8136-1.9968 10.1203 3.0589 14.6346 7.9415 8.2101 8.8806 12.6892 20.2171 17.2799 31.1927.3726.8891.7526 1.8368.6088 2.7905-.5208 3.4551-6.3248.9184-8.1719.2846z" fill="#f7a600"/></svg>