<svg fill="none" height="127" viewBox="0 0 214 127" width="214" xmlns="http://www.w3.org/2000/svg"><g fill="#fff"><path d="m40.8265 52.9954-17.0768 38.3096c-1.4711 2.5542-4.8176 4.173-8.4556 4.173l5.6757-12.5189-11.02997-28.9819h6.69947l7.899 20.5829 8.217-17.8363c.4141-.8956 2.3955-3.7284 8.0712-3.7284zm0-9.9515c-7.3655 0-12.405 3.0352-15.2412 6.568-.8179-1.6774-2.0904-3.0906-3.6723-4.0784-1.5818-.9877-3.4093-1.5102-5.2737-1.5077h-6.69947c-1.60952.0019-3.19452.395-4.61875 1.1456-1.42424.7506-2.6451 1.8363-3.55766 3.1636-.912559 1.3274-1.489513 2.8567-1.6812692 4.4566-.1917568 1.5999.0074208 3.2225.5804112 4.7283l9.542338 25.1042-3.97598 8.7406c-.68729 1.5159-.98376 3.1802-.86226 4.8404.12151 1.6603.6571 3.2636 1.55774 4.6629.90065 1.399 2.13755 2.55 3.5975 3.347 1.4599.797 3.0962 1.215 4.759 1.214 7.2694 0 13.8098-3.506 17.0635-9.1483.1723-.2985.3313-.6037.4705-.9188l16.9774-38.0907c.7206-1.5162 1.0463-3.1902.9468-4.8662s-.6209-3.2996-1.5158-4.7196-2.1341-2.5903-3.6022-3.4018c-1.4682-.8115-3.1176-1.238-4.7946-1.2397z"/><path d="m50.0476 58.7538c7.4781 0 13.5448 6.2395 13.5448 13.932 0 7.6924-6.0667 13.932-13.5448 13.932-7.4749 0-13.5415-6.2495-13.5415-13.932s6.0666-13.932 13.5415-13.932zm-.0398 22.122c4.188 0 7.5908-3.6323 7.5908-8.1071s-3.4028-8.0839-7.5908-8.0839-7.5974 3.6124-7.5974 8.0839 3.3994 8.1071 7.5908 8.1071zm.0331-32.0734c-12.9484 0-23.4814 10.7143-23.4814 23.8834 0 13.169 10.533 23.8834 23.4814 23.8834s23.4848-10.7177 23.4848-23.8834c0-13.1658-10.5364-23.8834-23.4848-23.8834z"/><path d="m81.2258 58.6942c9.8041 0 12.2593 8.7241 12.2593 14.1576 0 7.4105-4.6851 13.6633-11.8551 13.6633-4.7744 0-6.9811-1.6055-9.0387-3.6688v8.5516c0 2.468-3.8235 4.581-5.9639 4.581v-36.3525h5.6724v3.0882c2.76-2.7632 4.5458-4.0204 8.9061-4.0204zm-.6626 22.3476c4.2443 0 7.6935-3.7815 7.6935-8.4388s-3.4359-8.4355-7.6737-8.4355c-4.2377 0-7.6901 3.7782-7.6901 8.4355s3.4392 8.4388 7.6835 8.4388zm.656-32.299c-2.4534-.0431-4.8971.3189-7.233 1.0715-.5473-.0927-1.1015-.1393-1.6566-.1394h-5.6823c-2.6363 0-5.1645 1.0485-7.0286 2.9147-1.8641 1.8663-2.9114 4.3975-2.9114 7.0368v36.3525c0 2.6393 1.0473 5.1701 2.9114 7.0371 1.8641 1.866 4.3923 2.914 7.0286 2.914 5.2781 0 12.2161-3.499 14.8337-9.4635h.159c3.107.0238 6.1799-.649 8.9932-1.9692 2.8134-1.3202 5.2958-3.2543 7.2652-5.6602 3.5686-4.3123 5.5366-9.9713 5.5366-15.9754 0-3.0716-.527-9.0425-4.0456-14.5091-3.976-6.1898-10.4369-9.5998-18.1636-9.5998z"/><path d="m102.713 51.0083v34.83h-6.2294v-29.9107c0-2.6537 3.2305-4.9193 6.2354-4.9193zm.006-9.9514c-3.6994.0182-7.2933 1.2381-10.2412 3.4763-3.7705 2.8561-5.9341 7.0092-5.9341 11.3944v29.914c0 2.6393 1.0472 5.1704 2.9113 7.0367 1.8641 1.8662 4.3924 2.9147 7.0286 2.9147h6.2294c2.636 0 5.164-1.0485 7.028-2.9147 1.864-1.8663 2.912-4.3974 2.912-7.0367v-34.83c0-2.6393-1.048-5.1704-2.912-7.0367-1.864-1.8662-4.392-2.9147-7.028-2.9147z"/><path d="m118.408 58.671c3.495 0 6.59 1.7182 8.883 4.2724v-3.619h5.944v26.5372h-5.964v-3.0783c-1.116 1.2546-2.483 2.2615-4.011 2.9562s-3.184 1.0617-4.862 1.0774c-6.779 0-12.654-5.7619-12.654-14.0779 0-8.8203 5.103-14.078 12.654-14.078zm.745 22.2779c4.351 0 7.879-3.7583 7.879-8.3858 0-4.6274-3.528-8.3857-7.879-8.3857-4.35 0-7.879 3.7583-7.879 8.3857 0 4.6275 3.529 8.3858 7.879 8.3858zm-.755-32.2393c-6.511 0-12.362 2.4679-16.477 6.9494-4.0028 4.3587-6.1167 10.2632-6.1167 17.08 0 6.4684 2.2961 12.4923 6.4647 16.9539 2.064 2.2184 4.56 3.9905 7.333 5.2073 2.774 1.2168 5.767 1.8526 8.796 1.8681 2.343-.0038 4.67-.3926 6.888-1.151.655.1311 1.321.1967 1.988.1957h5.964c2.636 0 5.165-1.0485 7.029-2.9147 1.864-1.8663 2.911-4.3975 2.911-7.0367v-26.5372c0-2.6392-1.047-5.1704-2.911-7.0367-1.864-1.8662-4.393-2.9147-7.029-2.9147h-5.947c-.866-.002-1.728.1095-2.565.3317-2.042-.6569-4.173-.9926-6.318-.9951z"/><path d="m144.507 59.3776v26.4807h-5.964v-21.5614c0-2.6537 2.962-4.9193 5.964-4.9193zm0-9.9515c-3.753.0113-7.391 1.2978-10.318 3.6489-3.545 2.8461-5.58 6.9361-5.58 11.2219v21.5614c0 2.6393 1.048 5.1705 2.912 7.0367 1.864 1.8663 4.392 2.9147 7.028 2.9147h5.964c2.636 0 5.165-1.0484 7.029-2.9147 1.864-1.8662 2.911-4.3974 2.911-7.0367v-26.4807c0-2.6393-1.047-5.1705-2.911-7.0368-1.864-1.8662-4.393-2.9147-7.029-2.9147z"/><path d="m156.077 51.0283v8.2929h7.322c0 2.322-1.988 5.2875-4.817 5.2875h-2.505v21.2529h-6.296v-29.9173c0-2.6537 3.291-4.916 6.296-4.916zm-.004-9.9514c-3.687.0204-7.27 1.2263-10.221 3.4399-3.82 2.856-6.01 7.0223-6.01 11.4275v29.9173c0 2.6393 1.047 5.1704 2.911 7.0367s4.392 2.9147 7.028 2.9147h6.296c2.636 0 5.164-1.0484 7.028-2.9147s2.912-4.3974 2.912-7.0367v-13.4411c1.401-.8706 2.65-1.9654 3.697-3.2408 2.244-2.7131 3.519-6.0988 3.622-9.6197 0-.0829 0-.1692 0-.2554-.001-2.1974-.728-4.3327-2.068-6.0728-1.341-1.7402-3.218-2.9873-5.341-3.5469-.321-2.3884-1.496-4.579-3.309-6.1652-1.812-1.5861-4.137-2.46-6.545-2.4594z"/><path d="m129.931 90.1771c-6.156 6.1632-37.6222 26.8689-65.4242 26.8689-14.7873 0-26.364-7.689-26.364-21.263 2.6705 4.644 11.1327 10.98 25.9034 10.98 18.8329 0 40.2298-8.1405 54.8488-16.5859zm0-9.9515h-11.036c-1.744-.0019-3.459.4557-4.97 1.3269-12.76 7.374-32.5634 15.2588-49.8788 15.2588-11.4839 0-16.5665-4.7368-17.2954-6.004-.873-1.5137-2.1288-2.7706-3.6411-3.6441-1.5122-.8734-3.2276-1.3327-4.9735-1.3316-.868-.0037-1.7325.1078-2.5712.3317-2.115.567-3.9839 1.8174-5.3164 3.5568-1.3324 1.7395-2.0539 3.8708-2.0524 6.0629 0 18.38 14.9298 31.214 36.304 31.214 16.9277 0 33.9249-6.601 45.2068-12.14 12.899-6.336 23.1-13.531 27.169-17.5813 1.41-1.3837 2.376-3.1563 2.775-5.0918.399-1.9356.214-3.9463-.532-5.776-.747-1.8297-2.02-3.3954-3.659-4.4976-1.638-1.1022-3.568-1.691-5.542-1.6913z"/><path d="m165.636 48.0728c.44 0 .881.4179.55.8458l-6.153 8.0607h-2.608l7.757-8.7075c.057-.0635.127-.1141.205-.1484.079-.0343.163-.0516.249-.0506zm0-9.9515c-1.487-.0001-2.956.3139-4.313.9215-1.356.6076-2.569 1.4952-3.56 2.6047l-7.756 8.7075c-1.28 1.4324-2.118 3.2053-2.413 5.1043s-.035 3.843.75 5.597c.784 1.7541 2.059 3.2431 3.671 4.2873 1.611 1.0443 3.491 1.5989 5.41 1.597h2.608c1.528-.0009 3.035-.3545 4.404-1.0334 1.37-.6789 2.564-1.6646 3.491-2.8808l6.157-8.0606c1.188-1.5391 1.92-3.3818 2.111-5.3176.192-1.9357-.165-3.8864-1.028-5.629-.889-1.7685-2.251-3.2555-3.934-4.2955s-3.621-1.5924-5.598-1.5957z"/><path d="m121.598 30.764c1.263-.0293 2.513.2484 3.645.8093.312.1392.654.1985.994.1725h.464c.393-.0279.786.0404 1.146.1991 7.856 3.8379 19.191 10.9664 19.191 16.2042-.457 2.2888-1.024 3.7251-1.657 4.644.059.1338.088.2785.086.4246 0 1.6055-3.644 4.77-5.947 4.77-1.17 0-2.028-.3317-2.028-1.3268.053-.5862.285-1.1419.663-1.5923-2.538-.0431-5.013-.7861-6.991-2.4547-1.925-.4273-3.688-1.3977-5.079-2.7963-.762-.4478-1.677-.4777-2.459-.9155-2.266-1.3103-6-3.274-6-6.1069 0-1.4562-1.349-1.4662-1.349-2.2954 0-.972.663-1.5392.663-2.468 0-.9951-.968-.7397-.968-3.3171 0-2.6106 1.601-3.9574 5.607-3.9574zm-.019-9.9581c-4.179 0-7.512.9587-10.196 2.9357-3.449 2.5409-5.351 6.4385-5.351 10.9731-.009 1.312.144 2.6202.458 3.8943-.1.6219-.15 1.2509-.149 1.8808-.012 2.1644.65 4.2788 1.892 6.0505.662 2.2623 2.06 4.7966 4.8 7.1882 1.625 1.3612 3.382 2.5548 5.245 3.5626l.382.2189.102.0598c.725.3994 1.485.7325 2.27.9951 1.707 1.3175 3.614 2.3524 5.649 3.065.946.6231 1.944 1.1636 2.982 1.6155.918 1.2472 2.086 2.2889 3.429 3.0584 1.955 1.0991 4.167 1.6578 6.408 1.6187 4.576 0 8.333-2.5442 10.169-4.0635 2.183-1.8045 4.715-4.6207 5.483-8.3625.743-1.7388 1.3-3.5511 1.664-5.4069.126-.6424.191-1.2956.192-1.9505 0-3.5758-1.385-7.0953-4.112-10.4655-1.901-2.2702-4.066-4.3057-6.448-6.0638-3.813-2.9157-8.946-6.0338-14.111-8.5615-1.436-.7163-3.001-1.1339-4.602-1.2273-1.972-.6728-4.043-1.0092-6.127-.9952z"/><path d="m155.063 9.95217c.679 0 1.295.05643 1.514.20233.507.3317 1.024.7497 1.09 1.2373 2.349 0 4.705 3.2906 4.705 7.0556l-.315 19.1432c0 1.4462-2.233 7.4536-5.122 7.4536-2.982 0-7.637-6.7006-7.637-11.4342-.332-.5606-1.299-.0929-1.485-.7961-1.955-3.3901-3.074-9.9017-3.074-15.8526 0-1.841 2.319-4.0867 4.602-4.2924.343-.6475.826-1.2096 1.415-1.6448s1.268-.7324 1.988-.8696c.764-.146 1.541-.21381 2.319-.20233zm0-9.9514201c-1.637-.0127503-3.27.1687461-4.864.5406941l-.056.016585c-2.467.603011-4.741 1.821821-6.61 3.542701-5.063 2.37176-8.748 7.46027-8.748 12.86057 0 3.0318.305 13.315 4.165 20.4004.355.7097.789 1.3773 1.292 1.9903.798 2.6109 1.985 5.0859 3.522 7.3408 3.645 5.3539 8.304 8.2929 13.158 8.2929 2.909 0 8.389-1.0847 12.365-8.3559.626-1.1477 2.651-5.1416 2.697-8.9165l.308-19.1034v-.1625c.004-3.7591-1.112-7.4339-3.204-10.55518-1.466-2.20387-3.483-3.98461-5.851-5.16478-.358-.28859-.742-.57387-1.16-.85251-2.515-1.678469-5.215-1.8741801-7.014-1.8741801z"/><path d="m187.901 19.24c6.819.9388 9.201 3.6489 9.913 7.0357-.934 5.5496-7.133 9.4538-12.921 13.4875 0 1.0117-.521 1.1311-1.117 1.1311-.182 0-.374 0-.56 0-.097-.0051-.194-.0051-.292 0-.546.3948-1.292.8061-1.679 1.4197-.079.3833-.286.7281-.587.9769-.302.2487-.679.3863-1.07.3898-.103.0008-.207-.0081-.308-.0265-1.326 1.0648-2.436 1.6254-3.618 1.6287-.729 1.0781-1.939.9288-2.717 1.0681-.564.1592-.845.3981-1.326.3981-.137-.0018-.274-.0196-.407-.0531-.04.0033-.08.0033-.119 0-.693 0-1.23-1.0449-1.432-1.914-.587.1517-1.192.2286-1.799.2289-.301 0-.583-.0199-.855-.0431.607-1.4264 1.196-2.4017 1.19-5.3075.861-1.559 1.736-3.1114 2.051-4.9425.069-.4312-.332-.471-.564-.6634.511-.7033 1.134-1.3667.951-2.322l1.372-.0962c-.026-.5042-.298-1.1577.543-1.1577.111.002.222.0109.332.0265l-.295-1.9239 1.507-.2123c2.956-4.9392 6.958-8.6776 13.807-9.1719zm0-9.99452c-.239 0-.477 0-.716.02654-4.852.29034-9.524 1.94858-13.475 4.78328-2.212 1.6219-4.174 3.5612-5.821 5.7553-2.095 1.1253-3.717 2.9647-4.573 5.1847-.199.2156-.387.4411-.566.6634-.801 1.0452-1.387 2.2393-1.723 3.5128-.91 1.5939-1.359 3.4098-1.296 5.2444l-.182.3318-.073.1293c-.813 1.4784-1.238 3.1389-1.236 4.8265v.4975c0 .0995-.089.209-.132.3019l-.252.5838c-.577 1.3533-.848 2.8179-.791 4.2884.056 1.4704.437 2.9101 1.116 4.2153s1.638 2.4435 2.809 3.3328 2.525 1.5076 3.963 1.8102c1.615 1.1394 3.515 1.8046 5.487 1.9206.391.0424.783.0635 1.176.0631 1.245-.0078 2.481-.2185 3.658-.6237 1.627-.2218 3.2-.7424 4.639-1.5358 1.145-.373 2.243-.8773 3.273-1.5027 1.781-.5853 3.393-1.5924 4.702-2.9356 1.415-.5373 2.699-1.3708 3.767-2.4448.379-.3813.729-.7904 1.047-1.224 6.173-4.2857 13.416-9.6661 14.91-18.5163.209-1.2329.185-2.4942-.07-3.7185-.808-4.0243-3.012-7.6327-6.222-10.1869-3.081-2.4381-7.028-3.964-12.067-4.644-.448-.0624-.9-.09343-1.352-.09288z"/><path d="m187.573 54.4251c2.74.0498 5.364.0233 8.098.3318 4.556.1061 6.192 1.8111 7.779 4.8463.822 1.3003.736 3.075.212 4.4682-.828.9951-1.146 1.569-.076 2.6703.332.5838-1.067 3.0252-1.656 3.2972-1.82.8617-3.806 1.3146-5.819 1.3269h-.331c-1.69-.083-3.406-.219-4.97-.9122-.905-.3146-1.862-.452-2.82-.4047h-.864c-.332 0-.63 0-.941-.0233-1.624-.1194-3.476.1858-4.639-1.2472-1.037-.8293-2.73-.199-3.529-1.4927-.881-.5109-2.319.0166-3.167-1.4264-1.362-.5971-2.18-.2488-2.922-1.7083-.103-.3881-.265-.8857-.603-.8857h-.067c-.12.0225-.242.0347-.364.0365-1.514 0-1.05-2.1694-.332-3.0053 1.107-.6236 1.846-1.0317 2.575-2.2988.924-1.2207 1.869-.4644 3.101-1.1776 1.438-.7795 2.982-1.7349 4.437-2.0632 2.153-.1095 4.731-.3318 6.881-.3318zm-.017-9.9514h-.023c-1.792 0-3.721.1261-5.424.2322l-1.918.1128c-.564.0295-1.125.106-1.677.2289-2.068.5176-4.052 1.3297-5.891 2.4115-2.897.4794-5.503 2.045-7.289 4.3787-.888.5508-1.684 1.2381-2.359 2.0367-2.584 3.0617-4.191 8.2928-1.961 13.106.893 1.9472 2.348 3.582 4.178 4.6938 1.249 1.3298 2.789 2.3517 4.499 2.9854 1.194.8304 2.524 1.4445 3.93 1.8145.51.297 1.042.5564 1.59.7762.539.217 1.093.3966 1.657.5373 3.21 2.05 6.593 2.1263 8.101 2.1595h.467.139c.616.0365 1.176.0398 1.544.0398h.775c2.585.9454 5.076 1.1909 7.402 1.3036h.226.576c3.478-.012 6.91-.7876 10.056-2.2722 4.639-2.1959 6.514-7.5067 6.842-8.5516.482-1.4975.648-3.0789.487-4.644.996-3.7459.496-7.733-1.395-11.1157-2.226-4.1597-6.295-9.5102-15.751-9.8917-2.555-.2654-4.894-.2952-7.16-.3317l-1.448-.0233z"/><path d="m165.55 68.9972c.546.0321 1.061.2689 1.441.6634.082.1029.188.1844.309.2375.12.0531.252.0763.383.0677h.206c1.623 0 2.18 2.4314 3.396 3.1877 1.325.9189 2.74 1.3766 2.853 2.8859 0 .2256.573.6303 1.401.8227.557.2919-.169 1.171.331 1.5392.811.5117 1.532 1.1539 2.134 1.9007.842.6634 1.551 1.1676 1.816 2.1827.798.2985 1.236 1.2936 1.614 1.8741.806 1.2812 1.796 2.4369 2.938 3.43 1.226 2.8096 1.571 7.3706-.331 9.7623-.663.4345-1.093.3682-1.683 1.0748-.398.6402-1.657.3317-1.895 1.1875-.192 1.0216-.696 1.3836-1.266 1.3836-.745 0-1.607-.621-2.044-1.185-.239-.4076-6.296-.8753-8.4-3.6484-1.172-1.5458-2.415-2.9855-3.197-4.8331-.782-1.6188-1.193-3.3172-2.137-4.8828-.836-2.3455-1.451-4.7643-1.836-7.2248.027-1.8708-.082-3.6886.275-5.6391.332-2.7366 2.876-2.604 2.982-3.6887-.125-.8293.232-1.1377.716-1.1377zm.006-9.9913c-1.537-.0059-3.057.3213-4.456.9591-1.399.6379-2.644 1.5713-3.648 2.7362-.408.4731-.773.9815-1.09 1.5193-.365.3193-.712.6582-1.041 1.015-1.773 1.9499-2.918 4.3906-3.283 7.0025-.309 1.9622-.44 3.9485-.391 5.9344v1.0946c-.013.5592.021 1.1185.103 1.6719.475 3.082 1.242 6.1119 2.289 9.0491.223.6332.51 1.2422.855 1.8178.113.1924.358.8359.54 1.307.275.7198.613 1.6021 1.06 2.5575 1.147 2.6238 2.677 4.5977 3.804 6.0507l.53.686c3.267 4.313 8.426 5.892 11.597 6.658 1.995 1.351 4.344 2.083 6.752 2.103 1.643.003 3.266-.363 4.748-1.072 1.483-.709 2.787-1.743 3.817-3.025.301-.205.591-.426.868-.663.285-.156.593-.332.921-.557.862-.578 1.63-1.285 2.276-2.097 2.29-2.886 3.496-6.664 3.489-10.9265-.003-3.0976-.629-6.1628-1.842-9.0127-.57-1.305-1.412-2.4724-2.472-3.4233-.361-.3141-.694-.6606-.994-1.0349-.063-.1095-.129-.2189-.198-.3317l-.05-.0863c-.588-1.0396-1.297-2.0051-2.114-2.8759-.759-1.0949-1.667-2.0785-2.697-2.9224-.07-.0796-.142-.1526-.212-.2289-.68-1.4632-1.686-2.7502-2.942-3.7616-1.079-1.4367-2.417-2.6575-3.946-3.5991-.551-.796-1.177-1.5369-1.869-2.2126-1.361-1.3144-3.015-2.2864-4.824-2.8361-1.714-.9366-3.631-1.4367-5.583-1.4563z"/></g><path clip-rule="evenodd" d="m9.9375 53.9771h6.6995l7.8989 20.5829 8.217-17.8363c.4142-.8956 2.3956-3.7285 8.0713-3.7285l-17.0768 38.3097c-1.4711 2.5542-4.8176 4.1729-8.4556 4.1729l5.6757-12.5188z" fill="#000" fill-rule="evenodd"/><path d="m50.0452 58.7537c-7.4749 0-13.5415 6.2395-13.5415 13.9319 0 7.6925 6.0666 13.932 13.5415 13.932 7.4748 0 13.5448-6.2495 13.5448-13.932 0-7.6824-6.0667-13.9319-13.5448-13.9319zm-.0398 5.931c4.188 0 7.5908 3.6223 7.5908 8.0938s-3.4028 8.1071-7.5908 8.1071-7.5974-3.6422-7.5974-8.117 3.4061-8.0839 7.5974-8.0839z" fill="#000"/><path clip-rule="evenodd" d="m81.2234 58.6941c-4.3603 0-6.1462 1.2572-8.9062 4.0204v-3.0883h-5.6724v36.3525c2.1305 0 5.964-2.113 5.964-4.5809v-8.5516c2.0576 2.0632 4.2642 3.6687 9.0387 3.6687 7.17 0 11.855-6.2528 11.855-13.6633 0-5.4334-2.4651-14.1575-12.2592-14.1575zm-.6428 5.4733c4.2444 0 7.6935 3.7782 7.6935 8.4355 0 4.6572-3.4558 8.4388-7.6935 8.4388s-7.6902-3.7816-7.6902-8.4388c0-4.6573 3.4459-8.4355 7.6902-8.4355z" fill="#000" fill-rule="evenodd"/><path clip-rule="evenodd" d="m96.4812 55.9276v29.914h6.2288v-34.83c-2.9818-.0033-6.2288 2.249-6.2288 4.916z" fill="#000" fill-rule="evenodd"/><path d="m118.405 58.6708c-7.551 0-12.653 5.2576-12.653 14.0779 0 8.3161 5.874 14.078 12.653 14.078 1.678-.0158 3.335-.3828 4.863-1.0774 1.528-.6947 2.894-1.7017 4.01-2.9563v3.0783h5.964v-26.5371h-5.954v3.619c-2.293-2.5641-5.387-4.2824-8.883-4.2824zm.756 5.5164c4.35 0 7.879 3.7583 7.879 8.3857s-3.529 8.3857-7.879 8.3857c-4.351 0-7.879-3.7583-7.879-8.3857s3.528-8.3857 7.879-8.3857z" fill="#000"/><path clip-rule="evenodd" d="m138.534 64.2801v21.5614h5.964v-26.4642c-3.002 0-5.964 2.2358-5.964 4.9028z" fill="#000" fill-rule="evenodd"/><path clip-rule="evenodd" d="m149.779 55.9441v29.9173h6.295v-21.253h2.505c2.833 0 4.818-2.9555 4.818-5.2875h-7.323v-8.2928c-3.005 0-6.295 2.2523-6.295 4.916z" fill="#000" fill-rule="evenodd"/><path clip-rule="evenodd" d="m38.1403 95.7863c2.6705 4.6437 11.1327 10.9797 25.9035 10.9797 18.8328 0 40.2302-8.1403 54.8482-16.5857h11.037c-6.156 6.1632-37.6227 26.8687-65.4247 26.8687-14.7873 0-26.364-7.689-26.364-21.2627z" fill="#cf000c" fill-rule="evenodd"/><path clip-rule="evenodd" d="m157.423 56.9789h2.607l6.153-8.0606c.454-.5905-.55-1.1577-.994-.6469z" fill="#cf000c" fill-rule="evenodd"/><path clip-rule="evenodd" d="m116 34.7212c0-2.6106 1.6-3.9574 5.606-3.9574 1.262-.0293 2.513.2485 3.645.8094.639.3715 1.875-.0398 2.617.3682 7.856 3.8379 19.191 10.9665 19.191 16.2042-1.385 6.9395-3.777 6.077-6.11 6.7007-3.446.597-7.064.0398-9.761-2.2358-1.925-.4274-3.688-1.3977-5.079-2.7963-.762-.4479-1.677-.4777-2.459-.9156-2.266-1.3102-6-3.274-6-6.1068 0-1.4563-1.349-1.4662-1.349-2.2955 0-.9719.663-1.5425.663-2.4679 0-.9952-.968-.7398-.968-3.3172z" fill="#cf000c" fill-rule="evenodd"/><path clip-rule="evenodd" d="m139.541 57.9909c-1.17 0-2.028-.3318-2.028-1.3269 0-1.7249 3.39-4.6805 6.156-4.6805.931 0 1.819.3881 1.819 1.2439 0 1.5989-3.644 4.7635-5.947 4.7635z" fill="#000" fill-rule="evenodd"/><path clip-rule="evenodd" d="m152.741 10.1543c-.724.1335-1.408.429-2.002.8644s-1.082.9994-1.427 1.65c-2.28.2057-4.602 2.4514-4.602 4.2924 0 5.9509 1.12 12.4625 3.074 15.8526.186.7032 1.16.2355 1.485.7961 0 4.7336 4.665 11.4342 7.637 11.4342 2.889 0 5.122-6.0073 5.122-7.4536l.322-19.1432c0-3.765-2.356-7.0556-4.705-7.0556-.066-.4876-.583-.8989-1.09-1.2373-.507-.33833-3.085-.19237-3.807 0z" fill="#f4ad17" fill-rule="evenodd"/><path clip-rule="evenodd" d="m166.988 44.981c.888.0968 1.786.0339 2.651-.1858.215.9156.802 2.0334 1.551 1.9041.758.1791 1.023-.146 1.729-.3317.779-.1394 1.988 0 2.717-1.0682 1.183 0 2.319-.5639 3.618-1.6287.436.0786.886-.0161 1.253-.2638s.624-.629.715-1.063c.388-.6137 1.133-1.025 1.68-1.4198.825-.0895 1.972.3616 1.968-1.1311 5.808-4.0602 12.008-7.9479 12.932-13.514-.702-3.3902-3.085-6.0969-9.903-7.039-6.842.4942-10.852 4.2327-13.807 9.1719l-1.508.2123.295 1.9239c-1.242-.1758-.907.5672-.878 1.1312l-1.368.0995c.182.9454-.441 1.6088-.951 2.322.235.1791.633.2189.563.6634-.331 1.8311-1.189 3.3835-2.051 4.9425.004 2.8727-.589 3.8479-1.206 5.2743z" fill="#cf000c" fill-rule="evenodd"/><path d="m171.296 63.2651c-1.945.3616-1.468-2.0699-.713-2.9688 1.107-.6237 1.846-1.0317 2.575-2.2988.924-1.2207 1.868-.4644 3.101-1.1776 1.438-.7795 2.982-1.7349 4.437-2.0633 2.153-.1094 4.731-.3317 6.881-.3317 2.74.0498 5.365.0232 8.098.3317 4.556.1062 6.193 1.8112 7.78 4.8464.821 1.3003.735 3.075.212 4.4682-.829.9951-1.147 1.569-.076 2.6703.331.5838-1.067 3.0252-1.657 3.2972-1.917.9102-4.018 1.3644-6.14 1.3269-1.689-.083-3.406-.219-4.97-.9123-1.474-.5871-3.081-.3317-4.638-.4246-1.624-.1194-3.476.1858-4.639-1.2472-1.037-.8293-2.73-.199-3.529-1.4927-.881-.5108-2.319.0166-3.167-1.4264-1.362-.5971-2.18-.2488-2.922-1.7083-.11-.4113-.289-.9487-.663-.879z" fill="#cf000c"/><path d="m166.988 69.6605c-.748-.7928-2.398-1.1842-2.147.4511-.102 1.0847-2.65.952-2.982 3.6887-.357 1.9372-.248 3.755-.275 5.6391.385 2.4604 1 4.8793 1.836 7.2247.944 1.569 1.355 3.2641 2.137 4.8829.782 1.8543 2.024 3.2872 3.197 4.833 2.094 2.7632 8.161 3.2309 8.4 3.649.768.995 2.862 2.159 3.313-.1991.248-.8625 1.498-.5474 1.895-1.1876.59-.7065 1.034-.6402 1.683-1.0747 1.899-2.3917 1.554-6.966.332-9.7624-1.142-.9931-2.133-2.1487-2.939-3.4299-.378-.5805-.815-1.5756-1.614-1.8742-.265-1.015-.974-1.5093-1.816-2.1827-.602-.7467-1.322-1.389-2.133-1.9007-.504-.3682.222-1.2472-.332-1.5391-.828-.1924-1.391-.5971-1.401-.8227-.113-1.5093-1.528-1.967-2.853-2.8859-1.242-.7729-1.796-3.2873-3.496-3.1845-.15.0214-.304.0026-.446-.0545-.141-.0571-.265-.1504-.359-.2705z" fill="#f4ad17"/></svg>