<svg fill="none" height="278" viewBox="0 0 437 278" width="437" xmlns="http://www.w3.org/2000/svg"><g fill="#fff"><path d="m83.2624 115.854-34.8267 83.749c-3.0002 5.584-9.825 9.123-17.2444 9.123l11.5751-27.368-22.4948-63.357h13.6631l16.1092 44.996 16.7579-38.992c.8446-1.958 4.8854-8.151 16.4606-8.151zm0-21.7549c-15.0213 0-25.299 6.6349-31.0832 14.3579-1.6679-3.666-4.2631-6.756-7.4892-8.9154-3.2261-2.1593-6.9531-3.3015-10.7553-3.296h-13.6631c-3.2824.0041-6.5149.8635-9.4195 2.5044-2.90459 1.641-5.39445 4.014-7.25553 6.916-1.86109 2.902-3.037736 6.245-3.428807 9.743-.39107 3.497.015135 7.044 1.183697 10.336l19.46074 54.881-8.1086 19.108c-1.4017 3.314-2.0063 6.952-1.7585 10.582.2478 3.629 1.3401 7.134 3.1769 10.193 1.8367 3.059 4.3593 5.575 7.3367 7.317s6.3144 2.655 9.7056 2.655c14.8253 0 28.164-7.665 34.7996-20 .3514-.653.6757-1.32.9595-2.009l34.6236-83.271c1.47-3.314 2.134-6.974 1.931-10.638s-1.266-7.213-3.091-10.317c-1.8251-3.105-4.3523-5.6628-7.3465-7.4369s-6.3579-2.7064-9.7781-2.71z"/><path d="m102.068 128.442c15.251 0 27.624 13.64 27.624 30.457s-12.373 30.457-27.624 30.457c-15.2441 0-27.6166-13.662-27.6166-30.457s12.3725-30.457 27.6166-30.457zm-.081 48.361c8.541 0 15.481-7.94 15.481-17.723 0-9.782-6.94-17.672-15.481-17.672-8.5411 0-15.4942 7.897-15.4942 17.672s6.9329 17.723 15.4812 17.723zm.068-70.116c-26.4076 0-47.8887 23.423-47.8887 52.212s21.4811 52.212 47.8887 52.212c26.407 0 47.895-23.43 47.895-52.212s-21.488-52.212-47.895-52.212z"/><path d="m165.653 128.312c19.994 0 25.002 19.072 25.002 30.95 0 16.201-9.555 29.87-24.178 29.87-9.737 0-14.237-3.51-18.433-8.02v18.694c0 5.396-7.798 10.015-12.163 10.015v-79.471h11.568v6.751c5.629-6.04 9.271-8.789 18.163-8.789zm-1.352 48.855c8.656 0 15.691-8.267 15.691-18.449 0-10.181-7.008-18.44-15.65-18.44s-15.683 8.259-15.683 18.44c0 10.182 7.014 18.449 15.669 18.449zm1.338-70.61c-5.003-.094-9.987.697-14.751 2.343-1.116-.203-2.246-.305-3.378-.305h-11.589c-5.376 0-10.532 2.292-14.334 6.372s-5.937 9.613-5.937 15.383v79.471c0 5.77 2.135 11.303 5.937 15.383s8.958 6.372 14.334 6.372c10.764 0 24.914-7.651 30.252-20.689h.325c6.336.052 12.603-1.419 18.34-4.305 5.738-2.886 10.801-7.114 14.817-12.374 7.278-9.427 11.291-21.798 11.291-34.924 0-6.715-1.074-19.768-8.25-31.719-8.109-13.531-21.285-20.986-37.043-20.986z"/><path d="m209.473 111.51v76.143h-12.703v-65.388c0-5.802 6.588-10.755 12.717-10.755zm.014-21.7546c-7.545.0397-14.875 2.7065-20.887 7.5997-7.689 6.2439-12.102 15.3229-12.102 24.9099v65.395c0 5.77 2.136 11.303 5.938 15.383 3.801 4.08 8.957 6.372 14.334 6.372h12.703c5.377 0 10.533-2.292 14.335-6.372 3.801-4.08 5.937-9.613 5.937-15.383v-76.142c0-5.77-2.136-11.304-5.937-15.3835-3.802-4.0798-8.958-6.3719-14.335-6.3719z"/><path d="m241.482 128.261c7.129 0 13.44 3.756 18.116 9.34v-7.911h12.123v58.013h-12.163v-6.73c-2.277 2.743-5.063 4.944-8.179 6.463-3.117 1.519-6.495 2.321-9.917 2.355-13.825 0-25.806-12.596-25.806-30.776 0-19.282 10.406-30.776 25.806-30.776zm1.52 48.702c8.873 0 16.069-8.216 16.069-18.332s-7.196-18.332-16.069-18.332c-8.872 0-16.068 8.216-16.068 18.332s7.196 18.332 16.068 18.332zm-1.54-70.479c-13.278 0-25.211 5.396-33.604 15.193-8.163 9.528-12.474 22.436-12.474 37.338 0 14.141 4.683 27.31 13.184 37.064 4.21 4.849 9.3 8.723 14.957 11.383 5.656 2.66 11.761 4.05 17.937 4.084 4.779-.008 9.525-.858 14.048-2.516 1.335.287 2.693.43 4.054.428h12.163c5.377 0 10.533-2.292 14.335-6.372 3.801-4.08 5.937-9.613 5.937-15.383v-58.013c0-5.77-2.136-11.304-5.937-15.383-3.802-4.08-8.958-6.372-14.335-6.372h-12.129c-1.765-.005-3.524.239-5.23.725-4.165-1.436-8.512-2.17-12.886-2.176z"/><path d="m294.709 129.806v57.89h-12.163v-47.136c0-5.801 6.041-10.754 12.163-10.754zm0-21.755c-7.653.024-15.072 2.837-21.042 7.977-7.23 6.222-11.379 15.163-11.379 24.532v47.136c0 5.769 2.136 11.303 5.938 15.383 3.801 4.08 8.958 6.372 14.334 6.372h12.163c5.376 0 10.532-2.292 14.334-6.372s5.938-9.614 5.938-15.383v-57.89c0-5.77-2.136-11.303-5.938-15.383s-8.958-6.372-14.334-6.372z"/><path d="m318.305 111.554v18.129h14.933c0 5.076-4.054 11.559-9.825 11.559h-5.108v46.462h-12.839v-65.403c0-5.801 6.71-10.747 12.839-10.747zm-.007-21.755c-7.52.0447-14.828 2.6808-20.846 7.5199-7.791 6.2441-12.258 15.3521-12.258 24.9821v65.403c0 5.769 2.136 11.303 5.938 15.383 3.801 4.079 8.957 6.371 14.334 6.371h12.839c5.376 0 10.532-2.292 14.334-6.371 3.801-4.08 5.937-9.614 5.937-15.383v-29.384c2.858-1.903 5.405-4.297 7.541-7.085 4.576-5.931 7.176-13.333 7.386-21.03 0-.181 0-.37 0-.558-.002-4.804-1.485-9.472-4.218-13.276s-6.563-6.531-10.891-7.754c-.655-5.221-3.053-10.0103-6.748-13.4778-3.696-3.4675-8.439-5.3779-13.348-5.3765z"/><path d="m264.984 197.137c-12.555 13.474-76.728 58.739-133.428 58.739-30.157 0-53.7671-16.81-53.7671-46.483 5.4463 10.152 22.7041 24.003 52.8281 24.003 38.408 0 82.046-17.796 111.859-36.259zm0-21.755h-22.508c-3.558-.004-7.053.997-10.136 2.901-26.022 16.12-66.41 33.358-101.723 33.358-23.421 0-33.7863-10.356-35.2729-13.126-1.7803-3.309-4.3414-6.057-7.4256-7.966-3.0841-1.91-6.5825-2.914-10.1431-2.911-1.7701-.008-3.5333.235-5.2436.725-4.3135 1.239-8.1249 3.973-10.8424 7.775-2.7174 3.803-4.1888 8.462-4.1857 13.255 0 40.181 30.448 68.237 74.0383 68.237 34.523 0 69.188-14.43 92.196-26.54 26.306-13.851 47.111-29.58 55.409-38.434 2.874-3.025 4.845-6.9 5.659-11.132.815-4.231.437-8.627-1.085-12.626-1.522-4-4.12-7.423-7.462-9.833-3.342-2.409-7.276-3.696-11.302-3.697z"/><path d="m337.799 105.093c.899 0 1.798.914 1.122 1.849l-12.548 17.622h-5.318l15.819-19.036c.117-.139.259-.249.419-.324s.332-.113.506-.111zm0-21.7551c-3.03-.0004-6.027.686-8.794 2.0144s-5.241 3.2687-7.261 5.6941l-15.818 19.0356c-2.61 3.132-4.319 7.007-4.921 11.159-.602 4.151-.071 8.401 1.529 12.235 1.6 3.835 4.2 7.09 7.487 9.373s7.119 3.495 11.034 3.491h5.318c3.116-.002 6.19-.775 8.983-2.259s5.229-3.639 7.119-6.298l12.555-17.621c2.424-3.365 3.916-7.393 4.307-11.625s-.336-8.496-2.097-12.3057c-1.814-3.8661-4.591-7.1168-8.023-9.3904-3.432-2.2737-7.384-3.4813-11.418-3.4885z"/><path d="m247.99 67.2538c2.574-.064 5.125.5432 7.433 1.7695.636.3042 1.333.4338 2.027.377h.946c.801-.061 1.603.0884 2.338.4351 16.021 8.3902 39.138 23.974 39.138 35.4246-.933 5.003-2.088 8.143-3.379 10.152.119.293.179.609.176.928 0 3.51-7.433 10.428-12.129 10.428-2.386 0-4.136-.725-4.136-2.9.108-1.282.58-2.497 1.352-3.481-5.176-.095-10.224-1.719-14.258-5.366-3.926-.935-7.521-3.056-10.359-6.114-1.554-.979-3.419-1.044-5.014-2.001-4.622-2.864-12.237-7.1575-12.237-13.3504 0-3.1835-2.75-3.2052-2.75-5.0181 0-2.1248 1.351-3.3648 1.351-5.3953 0-2.1755-1.973-1.6171-1.973-7.2516 0-5.7071 3.264-8.6513 11.433-8.6513zm-.041-21.7694c-8.52 0-15.318 2.0957-20.792 6.4177-7.034 5.5548-10.912 14.0755-10.912 23.9885-.02 2.8683.293 5.7282.932 8.5134-.204 1.3597-.305 2.7346-.304 4.1117-.023 4.7317 1.326 9.3539 3.858 13.2273 1.352 4.945 4.203 10.486 9.792 15.714 3.312 2.976 6.896 5.585 10.696 7.788l.777.479.21.13c1.478.874 3.028 1.602 4.628 2.176 3.482 2.88 7.372 5.143 11.521 6.701 1.93 1.362 3.964 2.543 6.082 3.531 1.872 2.727 4.254 5.004 6.994 6.686 3.986 2.403 8.497 3.624 13.068 3.539 9.332 0 16.994-5.562 20.738-8.883 4.453-3.945 9.615-10.102 11.183-18.282 1.514-3.801 2.651-7.763 3.392-11.82.259-1.404.39-2.832.392-4.264 0-7.8173-2.824-15.5113-8.386-22.8789-3.877-4.9628-8.291-9.4127-13.149-13.2561-7.778-6.3742-18.244-13.1907-28.779-18.7165-2.927-1.566-6.12-2.4787-9.386-2.6831-4.022-1.4708-8.245-2.2062-12.494-2.1755z"/><path d="m316.237 21.7563c1.385 0 2.642.1233 3.088.4424 1.034.7252 2.088 1.6389 2.223 2.7049 4.791 0 9.595 7.1936 9.595 15.4242l-.642 41.8494c0 3.1617-4.554 16.2944-10.446 16.2944-6.082 0-15.576-14.6483-15.576-24.9964-.675-1.2256-2.648-.2031-3.027-1.7404-3.987-7.4112-6.271-21.6462-6.271-34.6557 0-4.0247 4.731-8.934 9.386-9.3837.7-1.4154 1.686-2.6443 2.887-3.5957s2.586-1.601 4.053-1.901c1.559-.3192 3.143-.4674 4.73-.4424zm0-21.7549275c-3.338-.0278736-6.668.3688995-9.92 1.1820175l-.114.03626c-5.031 1.31825-9.669 3.98271-13.481 7.74477-10.325 5.18498-17.839 16.30898-17.839 28.11468 0 6.628.621 29.1081 8.494 44.5977.724 1.5515 1.608 3.011 2.635 4.351 1.626 5.7078 4.047 11.1185 7.183 16.0482 7.433 11.704 16.933 18.129 26.833 18.129 5.933 0 17.109-2.371 25.218-18.267 1.277-2.5092 5.405-11.2401 5.5-19.4925l.628-41.7623v-.3554c.008-8.2176-2.267-16.2512-6.534-23.0747-2.99-4.818-7.104-8.71088-11.933-11.29086-.73-.6309-1.514-1.25454-2.365-1.86368-5.129-3.66934-10.636-4.0971875-14.305-4.0971875z"/><path d="m383.208 42.0611c13.906 2.0523 18.765 7.9769 20.218 15.3808-1.906 12.132-14.549 20.6672-26.354 29.4852 0 2.2118-1.06 2.4728-2.277 2.4728-.371 0-.763 0-1.142 0-.198-.0111-.396-.0111-.594 0-1.115.863-2.636 1.7622-3.426 3.1038-.16.8378-.582 1.5916-1.197 2.1354s-1.385.8446-2.182.8522c-.211.0018-.421-.0176-.628-.058-2.703 2.3278-4.967 3.5533-7.379 3.5606-1.487 2.3571-3.953 2.0301-5.541 2.3351-1.149.348-1.723.87-2.703.87-.28-.004-.559-.043-.831-.116-.081.007-.162.007-.243 0-1.413 0-2.507-2.2842-2.919-4.1841-1.199.3316-2.432.4997-3.67.5004-.614 0-1.189-.0436-1.743-.0943 1.237-3.1182 2.439-5.2502 2.426-11.6027 1.757-3.4082 3.541-6.802 4.183-10.8049.142-.9427-.676-1.0298-1.149-1.4504 1.04-1.5373 2.311-2.9876 1.939-5.0761l2.798-.2103c-.054-1.1023-.608-2.5308 1.108-2.5308.226.0043.452.0237.676.058l-.602-4.206 3.075-.4641c6.027-10.7977 14.19-18.9703 28.157-20.0508zm0-21.8492c-.487 0-.973 0-1.46.058-9.896.6347-19.423 4.2599-27.481 10.4569-4.512 3.5457-8.512 7.785-11.873 12.5816-4.271 2.4602-7.579 6.4813-9.324 11.3344-.406.4713-.791.9644-1.156 1.4503-1.633 2.285-2.828 4.8953-3.514 7.6795-1.855 3.4844-2.77 7.4541-2.642 11.4649l-.371.7251-.149.2828c-1.658 3.2319-2.525 6.862-2.521 10.5512v1.0878c0 .2175-.182.4568-.27.6599l-.513 1.2762c-1.178 2.9585-1.729 6.1604-1.614 9.375.114 3.2145.892 6.3615 2.276 9.2155 1.385 2.853 3.341 5.341 5.73 7.286 2.388 1.944 5.148 3.295 8.082 3.957 3.292 2.491 7.168 3.945 11.189 4.199.797.092 1.598.138 2.399.137 2.539-.017 5.059-.477 7.46-1.363 3.319-.485 6.526-1.623 9.46-3.357 2.336-.816 4.576-1.918 6.676-3.285 3.631-1.28 6.921-3.482 9.589-6.418 2.886-1.175 5.505-2.997 7.683-5.345.773-.833 1.486-1.728 2.135-2.676 12.589-9.3687 27.36-21.1309 30.408-40.4783.426-2.6954.378-5.4526-.142-8.1291-1.649-8.7976-6.144-16.6859-12.69-22.2698-6.285-5.33-14.332-8.6657-24.61-10.1523-.914-.1364-1.835-.2043-2.757-.2031z"/><path d="m382.539 118.98c5.589.109 10.94.051 16.515.725 9.291.232 12.629 3.959 15.866 10.595 1.676 2.842 1.5 6.722.432 9.768-1.689 2.175-2.337 3.43-.155 5.837.676 1.276-2.176 6.614-3.379 7.208-3.71 1.884-7.76 2.874-11.865 2.901h-.676c-3.446-.181-6.946-.479-10.136-1.994-1.846-.688-3.798-.988-5.75-.885h-1.764c-.675 0-1.284 0-1.919-.051-3.311-.261-7.088.406-9.46-2.726-2.115-1.813-5.568-.435-7.196-3.264-1.798-1.116-4.73.037-6.46-3.118-2.777-1.305-4.446-.544-5.96-3.734-.21-.849-.541-1.937-1.23-1.937h-.135c-.245.05-.494.076-.743.08-3.088 0-2.142-4.742-.676-6.57 2.257-1.363 3.764-2.255 5.25-5.025 1.886-2.669 3.811-1.015 6.325-2.575 2.933-1.704 6.082-3.792 9.048-4.51 4.392-.239 9.649-.725 14.035-.725zm-.033-21.7552h-.048c-3.655 0-7.588.2756-11.061.5076l-3.913.2466c-1.15.0644-2.294.2317-3.419.5003-4.219 1.1316-8.265 2.9067-12.014 5.2717-5.909 1.048-11.224 4.471-14.866 9.572-1.811 1.205-3.435 2.707-4.811 4.453-5.271 6.693-8.548 18.129-4 28.651 1.821 4.257 4.789 7.831 8.52 10.261 2.548 2.908 5.689 5.141 9.177 6.527 2.434 1.815 5.147 3.158 8.014 3.966 1.041.65 2.125 1.217 3.243 1.697 1.1.475 2.229.867 3.379 1.175 6.548 4.482 13.447 4.648 16.521 4.721h.953.284c1.257.08 2.399.087 3.149.087h1.581c5.271 2.067 10.352 2.603 15.096 2.85h.459 1.176c7.092-.026 14.093-1.722 20.508-4.968 9.46-4.8 13.285-16.41 13.954-18.694.982-3.274 1.321-6.731.993-10.153 2.032-8.189 1.011-16.905-2.845-24.3-4.541-9.093-12.839-20.7903-32.124-21.6243-5.21-.5801-9.98-.6454-14.602-.7251l-2.953-.0508z"/><path d="m337.624 150.836c1.115.07 2.164.588 2.94 1.45.168.225.384.403.63.519.246.117.514.167.782.148h.419c3.311 0 4.446 5.316 6.926 6.969 2.703 2.009 5.588 3.01 5.818 6.309 0 .493 1.169 1.378 2.858 1.798 1.136.639-.344 2.56.676 3.365 1.654 1.119 3.124 2.523 4.352 4.155 1.716 1.451 3.162 2.553 3.703 4.772 1.628.653 2.52 2.828 3.29 4.097 1.646 2.801 3.665 5.327 5.994 7.498 2.5 6.143 3.203 16.114-.676 21.342-1.351.95-2.229.805-3.432 2.35-.811 1.399-3.379.725-3.865 2.596-.392 2.233-1.419 3.024-2.582 3.024-1.52 0-3.277-1.356-4.169-2.589-.486-.892-12.839-1.915-17.129-7.977-2.392-3.379-4.926-6.527-6.521-10.566-1.595-3.539-2.433-7.251-4.358-10.674-1.706-5.128-2.959-10.415-3.744-15.794.054-4.09-.169-8.064.561-12.328.676-5.983 5.865-5.693 6.081-8.064-.256-1.813.473-2.487 1.46-2.487zm.014-21.842c-3.135-.013-6.235.702-9.088 2.097-2.854 1.394-5.392 3.435-7.44 5.981-.832 1.034-1.576 2.146-2.223 3.321-.744.699-1.453 1.439-2.122 2.219-3.618 4.263-5.952 9.599-6.696 15.309-.631 4.289-.898 8.632-.798 12.973v2.393c-.026 1.222.044 2.445.21 3.655.97 6.737 2.533 13.361 4.669 19.782.455 1.384 1.039 2.716 1.743 3.974.23.421.73 1.828 1.102 2.857.561 1.574 1.25 3.503 2.162 5.591 2.338 5.736 5.46 10.051 7.757 13.227l1.081 1.501c6.663 9.428 17.184 12.879 23.651 14.555 4.068 2.953 8.859 4.553 13.771 4.597 3.351.007 6.66-.794 9.683-2.344 3.024-1.55 5.684-3.81 7.784-6.612.615-.448 1.206-.932 1.771-1.45.581-.341 1.209-.725 1.878-1.218 1.758-1.262 3.324-2.808 4.642-4.583 4.67-6.309 7.129-14.569 7.116-23.887-.007-6.772-1.285-13.473-3.757-19.703-1.162-2.853-2.881-5.405-5.041-7.484-.738-.687-1.417-1.444-2.027-2.262-.129-.24-.264-.479-.406-.725l-.101-.189c-1.198-2.273-2.646-4.384-4.311-6.287-1.548-2.394-3.399-4.544-5.501-6.389-.142-.174-.29-.333-.432-.5-1.386-3.199-3.439-6.013-6.001-8.224-2.199-3.14-4.929-5.809-8.047-7.868-1.123-1.74-2.399-3.359-3.811-4.837-2.776-2.873-6.148-4.998-9.839-6.2-3.494-2.047-7.405-3.141-11.386-3.183z"/></g><path clip-rule="evenodd" d="m20.2667 118h13.6631l16.1092 44.996 16.7579-38.992c.8446-1.958 4.8854-8.15 16.4605-8.15l-34.8266 83.749c-3.0002 5.584-9.825 9.122-17.2444 9.122l11.5751-27.367z" fill="#000" fill-rule="evenodd"/><path d="m102.063 128.442c-15.2444 0-27.6169 13.641-27.6169 30.457 0 16.817 12.3725 30.457 27.6169 30.457 15.244 0 27.623-13.662 27.623-30.457 0-16.794-12.372-30.457-27.623-30.457zm-.081 12.966c8.541 0 15.48 7.919 15.48 17.694 0 9.776-6.939 17.724-15.48 17.724-8.5414 0-15.4945-7.963-15.4945-17.745 0-9.783 6.9464-17.673 15.4945-17.673z" fill="#000"/><path clip-rule="evenodd" d="m165.648 128.312c-8.893 0-12.535 2.748-18.163 8.789v-6.751h-11.569v79.471c4.345 0 12.163-4.62 12.163-10.015v-18.695c4.196 4.511 8.697 8.021 18.434 8.021 14.623 0 24.177-13.67 24.177-29.87 0-11.878-5.027-30.95-25.001-30.95zm-1.311 11.965c8.656 0 15.69 8.26 15.69 18.441s-7.047 18.448-15.69 18.448c-8.642 0-15.683-8.267-15.683-18.448s7.027-18.441 15.683-18.441z" fill="#000" fill-rule="evenodd"/><path clip-rule="evenodd" d="m196.765 122.264v65.395h12.703v-76.142c-6.081-.007-12.703 4.917-12.703 10.747z" fill="#000" fill-rule="evenodd"/><path d="m241.477 128.261c-15.399 0-25.805 11.494-25.805 30.776 0 18.18 11.98 30.776 25.805 30.776 3.423-.035 6.801-.837 9.917-2.356 3.117-1.518 5.903-3.72 8.179-6.462v6.729h12.163v-58.013h-12.143v7.912c-4.675-5.606-10.987-9.362-18.116-9.362zm1.541 12.059c8.872 0 16.069 8.216 16.069 18.332s-7.197 18.333-16.069 18.333-16.069-8.217-16.069-18.333 7.197-18.332 16.069-18.332z" fill="#000"/><path clip-rule="evenodd" d="m282.527 140.523v47.136h12.163v-57.854c-6.122 0-12.163 4.888-12.163 10.718z" fill="#000" fill-rule="evenodd"/><path clip-rule="evenodd" d="m305.461 122.3v65.403h12.839v-46.461h5.108c5.778 0 9.825-6.462 9.825-11.56h-14.933v-18.129c-6.129 0-12.839 4.924-12.839 10.747z" fill="#000" fill-rule="evenodd"/><path clip-rule="evenodd" d="m77.7835 209.4c5.4463 10.152 22.7045 24.003 52.8275 24.003 38.408 0 82.046-17.796 111.859-36.259h22.509c-12.555 13.474-76.729 58.739-133.428 58.739-30.158 0-53.7675-16.81-53.7675-46.483z" fill="#cf000c" fill-rule="evenodd"/><path clip-rule="evenodd" d="m321.05 124.563h5.318l12.548-17.622c.926-1.29-1.122-2.53-2.027-1.414z" fill="#cf000c" fill-rule="evenodd"/><path clip-rule="evenodd" d="m236.571 75.9043c0-5.707 3.264-8.6512 11.434-8.6512 2.574-.064 5.125.5431 7.432 1.7694 1.305.8122 3.825-.087 5.339.805 16.021 8.3901 39.137 23.9739 39.137 35.4245-2.824 15.17-7.703 13.285-12.46 14.648-7.027 1.305-14.406.087-19.907-4.887-3.926-.935-7.52-3.056-10.358-6.114-1.555-.979-3.42-1.044-5.014-2.001-4.622-2.864-12.238-7.1575-12.238-13.3504 0-3.1835-2.75-3.2052-2.75-5.0181 0-2.1248 1.352-3.372 1.352-5.3953 0-2.1755-1.973-1.6171-1.973-7.2516z" fill="#cf000c" fill-rule="evenodd"/><path clip-rule="evenodd" d="m284.582 126.774c-2.385 0-4.135-.725-4.135-2.9 0-3.771 6.912-10.232 12.554-10.232 1.899 0 3.71.848 3.71 2.719 0 3.495-7.433 10.413-12.129 10.413z" fill="#000" fill-rule="evenodd"/><path clip-rule="evenodd" d="m311.503 22.1984c-1.476.2919-2.872.9379-4.083 1.8897s-2.206 2.1848-2.911 3.6071c-4.649.4496-9.386 5.3589-9.386 9.3836 0 13.0095 2.284 27.2445 6.271 34.6557.379 1.5373 2.365.5148 3.027 1.7404 0 10.3481 9.514 24.9964 15.576 24.9964 5.892 0 10.446-13.1327 10.446-16.2945l.656-41.8493c0-8.2306-4.805-15.4242-9.595-15.4242-.136-1.066-1.19-1.9652-2.224-2.7049-1.033-.7397-6.291-.4206-7.764 0z" fill="#f4ad17" fill-rule="evenodd"/><path clip-rule="evenodd" d="m340.559 98.3333c1.81.2117 3.641.0742 5.405-.4061.44 2.0014 1.636 4.4448 3.163 4.1628 1.547.391 2.088-.319 3.527-.726 1.588-.304 4.054 0 5.541-2.3346 2.412 0 4.73-1.2327 7.379-3.5605.889.1717 1.806-.0352 2.555-.5768.749-.5415 1.273-1.3751 1.459-2.3239.79-1.3415 2.311-2.2407 3.426-3.1037 1.682-.1958 4.02.7905 4.013-2.4728 11.846-8.876 24.489-17.3749 26.374-29.5432-1.433-7.4111-6.291-13.3285-20.198-15.388-13.953 1.0805-22.129 9.2531-28.157 20.0508l-3.074.4641.601 4.206c-2.534-.3843-1.851 1.24-1.791 2.4728l-2.79.2176c.371 2.0667-.899 3.517-1.94 5.0761.48.3916 1.291.4786 1.149 1.4503-.676 4.0029-2.426 7.3967-4.183 10.805.007 6.2799-1.202 8.4119-2.459 11.5301z" fill="#cf000c" fill-rule="evenodd"/><path d="m349.343 138.305c-3.966.791-2.993-4.525-1.453-6.49 2.257-1.363 3.764-2.255 5.251-5.025 1.885-2.669 3.811-1.016 6.324-2.575 2.933-1.704 6.082-3.792 9.048-4.51 4.393-.24 9.65-.726 14.035-.726 5.588.109 10.94.051 16.515.726 9.291.232 12.629 3.959 15.866 10.594 1.675 2.843 1.5 6.723.432 9.768-1.689 2.176-2.338 3.43-.155 5.838.675 1.276-2.176 6.613-3.379 7.208-3.909 1.99-8.195 2.983-12.521 2.901-3.446-.182-6.946-.479-10.136-1.995-3.007-1.283-6.284-.725-9.46-.928-3.311-.261-7.088.406-9.46-2.726-2.115-1.813-5.568-.436-7.196-3.264-1.798-1.116-4.731.037-6.46-3.118-2.778-1.305-4.447-.544-5.96-3.734-.223-.9-.588-2.074-1.352-1.922z" fill="#cf000c"/><path d="m340.558 152.286c-1.527-1.733-4.892-2.589-4.379.986-.209 2.371-5.405 2.081-6.081 8.064-.73 4.235-.507 8.209-.561 12.328.785 5.379 2.038 10.666 3.744 15.794 1.925 3.43 2.763 7.135 4.358 10.674 1.595 4.054 4.129 7.187 6.521 10.566 4.27 6.041 16.643 7.063 17.129 7.977 1.568 2.175 5.838 4.721 6.757-.435.507-1.886 3.055-1.197 3.866-2.596 1.202-1.545 2.108-1.4 3.432-2.35 3.872-5.228 3.169-15.228.676-21.342-2.329-2.171-4.349-4.697-5.994-7.498-.77-1.269-1.662-3.444-3.29-4.097-.541-2.219-1.987-3.299-3.703-4.772-1.228-1.632-2.698-3.036-4.352-4.155-1.027-.805.453-2.726-.676-3.365-1.689-.42-2.838-1.305-2.858-1.798-.23-3.299-3.115-4.3-5.818-6.309-2.534-1.69-3.662-7.186-7.129-6.961-.308.046-.621.005-.91-.12-.288-.124-.54-.328-.732-.591z" fill="#f4ad17"/></svg>