<svg fill="none" height="42" viewBox="0 0 23 42" width="23" xmlns="http://www.w3.org/2000/svg"><path d="m1.00796.92648c-.316178.31888-.493189.74695-.493189 1.19271 0 .44575.177011.87382.493189 1.1927l17.66464 17.85131-17.66464 17.8477c-.316178.3189-.493189.747-.493189 1.1927 0 .4458.177011.8739.493189 1.1928.15369.1554.33744.279.54041.3634s.42104.1279.64134.1279c.22031 0 .43838-.0435.64135-.1279s.38672-.208.5404-.3634l18.78474-18.9869c.3299-.3335.5146-.7807.5146-1.2463s-.1847-.9128-.5146-1.2463l-18.78474-18.986848c-.15368-.155493-.33743-.27908-.5404-.363467-.20297-.084388-.42104-.127864-.64135-.127864-.2203 0-.43837.043476-.64134.127864-.20297.084387-.38672.207974-.54041.363467z" fill="#43856a"/></svg>