<svg fill="none" height="42" viewBox="0 0 23 42" width="23" xmlns="http://www.w3.org/2000/svg"><path d="m22.4256.92648c.3162.31888.4932.74695.4932 1.19271 0 .44575-.177.87382-.4932 1.1927l-17.66459 17.85131 17.66459 17.8477c.3162.3189.4932.747.4932 1.1927 0 .4458-.177.8739-.4932 1.1928-.1537.1554-.3374.279-.5404.3634-.2029.0844-.421.1279-.6413.1279s-.4384-.0435-.6414-.1279c-.2029-.0844-.3867-.208-.5404-.3634l-18.78472-18.9869c-.329924-.3335-.514572-.7807-.514572-1.2463s.184648-.9128.514572-1.2463l18.78472-18.986848c.1537-.155493.3375-.27908.5404-.363467.203-.084388.4211-.127864.6414-.127864s.4384.043476.6413.127864c.203.084387.3867.207974.5404.363467z" fill="#43856a"/></svg>