<svg width="14" height="17" viewBox="0 0 14 17" fill="none" xmlns="http://www.w3.org/2000/svg">
<path d="M5 1.21118V2.21118H9V1.21118C9 0.679932 9.4375 0.211182 10 0.211182C10.5312 0.211182 11 0.679932 11 1.21118V2.21118H12.5C13.3125 2.21118 14 2.89868 14 3.71118V5.21118H0V3.71118C0 2.89868 0.65625 2.21118 1.5 2.21118H3V1.21118C3 0.679932 3.4375 0.211182 4 0.211182C4.53125 0.211182 5 0.679932 5 1.21118ZM0 6.21118H14V14.7112C14 15.5549 13.3125 16.2112 12.5 16.2112H1.5C0.65625 16.2112 0 15.5549 0 14.7112V6.21118ZM2 9.71118C2 9.99243 2.21875 10.2112 2.5 10.2112H3.5C3.75 10.2112 4 9.99243 4 9.71118V8.71118C4 8.46118 3.75 8.21118 3.5 8.21118H2.5C2.21875 8.21118 2 8.46118 2 8.71118V9.71118ZM6 9.71118C6 9.99243 6.21875 10.2112 6.5 10.2112H7.5C7.75 10.2112 8 9.99243 8 9.71118V8.71118C8 8.46118 7.75 8.21118 7.5 8.21118H6.5C6.21875 8.21118 6 8.46118 6 8.71118V9.71118ZM10.5 8.21118C10.2188 8.21118 10 8.46118 10 8.71118V9.71118C10 9.99243 10.2188 10.2112 10.5 10.2112H11.5C11.75 10.2112 12 9.99243 12 9.71118V8.71118C12 8.46118 11.75 8.21118 11.5 8.21118H10.5ZM2 13.7112C2 13.9924 2.21875 14.2112 2.5 14.2112H3.5C3.75 14.2112 4 13.9924 4 13.7112V12.7112C4 12.4612 3.75 12.2112 3.5 12.2112H2.5C2.21875 12.2112 2 12.4612 2 12.7112V13.7112ZM6.5 12.2112C6.21875 12.2112 6 12.4612 6 12.7112V13.7112C6 13.9924 6.21875 14.2112 6.5 14.2112H7.5C7.75 14.2112 8 13.9924 8 13.7112V12.7112C8 12.4612 7.75 12.2112 7.5 12.2112H6.5ZM10 13.7112C10 13.9924 10.2188 14.2112 10.5 14.2112H11.5C11.75 14.2112 12 13.9924 12 13.7112V12.7112C12 12.4612 11.75 12.2112 11.5 12.2112H10.5C10.2188 12.2112 10 12.4612 10 12.7112V13.7112Z" fill="#F7A600"/>
</svg>
