<svg fill="none" height="195" viewBox="0 0 249 195" width="249" xmlns="http://www.w3.org/2000/svg"><path clip-rule="evenodd" d="m18.8111 126.903c10.272 34.254 62.4165 33.346 104.9079 33.035 40.462-.296 88.246-2.145 105.781-34.576 18.865-34.8916-3.342-71.6409-37.099-92.4542-30.039-18.5209-71.264-13.8876-105.3986 4.5957-38.9247 21.0769-78.86977 53.7914-68.1913 89.3995z" fill="#f4ad17" fill-rule="evenodd"/><g fill="#cf000c"><path d="m128.318 100.722c-2.189-.9471-.72-2.2189.424-2.3352 1.411.2685 2.352.4519 3.623.0654 1.456-.2264 2.145.8115 3.713 1.1226 1.819.3673 3.816.6832 5.507 1.3592 2.308 1.227 5.104 2.651 7.375 3.933 2.861 1.691 5.637 3.259 8.413 5.1 4.752 2.821 5.8 4.904 6.264 7.813.352 1.328-.444 2.415-1.553 2.988-1.263.138-1.827.32-1.138 1.668.111.58-2.325 1.296-3.04 1.124-2.469-.614-4.822-1.579-6.986-2.865-1.767-1.003-3.403-2.208-4.874-3.59-1.32-1.267-3.114-2.074-4.704-3.065-1.659-1.058-3.734-1.982-4.372-3.593-.766-1.162-2.795-1.782-3.121-3.09-.726-.864-2.456-1.404-2.771-2.833-1.193-1.201-2.194-1.474-2.395-2.86.046-.329.072-.782-.357-.965z"/><path d="m98.5295 88.9639c-.0713 1.0006-.2541 1.874-.2577 2.7571.1977.2054.3452.4504.4325.7184.1269.6448.2907 1.269.4715 1.8637-.6014-2.1747-.7643-4.4518-.48-6.7127-.0892.1986-.1926.3914-.3094.5772.0626.2623.1104.5281.1431.7963z"/><path d="m104.357 76.5528c-.482.2814-.982.5319-1.495.7499-.069.226-.165.444-.286.6493-.123.2267-.295.4429-.437.7076-.141.2648-.336.5241-.508.7871-.092.1349-.203.2612-.29.4033l-.265.4406c-.183.2952-.375.5922-.572.886l-.485.9564-.2442.4787c-.0705.1558-.1227.3161-.1857.4659-.1181.3094-.2252.6164-.321.9209l.0252-.0054.4115-1.064c.0312-.0876.0624-.1753.102-.2647l.1304-.2539.2738-.5318c.338-.6718.72-1.3231 1.141-1.9501.206-.3171.456-.6055.699-.9134l.349-.4547c.121-.1453.257-.2771.384-.4151l.77-.8354z"/><path d="m107.585 74.0144c.048.0685.188.1216.121.2435.555-.2743 1.13-.5089 1.719-.7018-.624.1031-1.239.2564-1.84.4583z"/><path d="m112.672 72.8304.669-.0682c.223-.0366.448-.0527.673-.0481-.2-.0524-.393-.1243-.577-.2147-.246.1295-.502.2402-.765.331z"/><path d="m122.456 74.2888-.767-.3921c-.274-.1141-.56-.2001-.846-.3073-.061-.046-.212-.0175-.39.0083.334.1094.675.209 1.02.3076.345.0987.655.2641.983.3835z"/><path d="m115.519 72.0706c-.995-.0325-1.854-.1722-2.738-.1455-.209.1875-.457.3304-.725.4189-.651.1384-1.273.308-1.872.4932 2.186-.6201 4.459-.844 6.701-.6603-.196-.0737-.387-.1618-.569-.2636-.263.0679-.529.1204-.797.1573z"/><path d="m141.395 79.403c-.109-.2955-.215-.5959-.325-.8914l-.156-.447c-.058-.1448-.129-.2868-.196-.4298-.268-.5718-.538-1.1345-.804-1.7022-.132-.2799-.279-.552-.441-.8151l-.478-.7986-.485-.7969c-.156-.2641-.355-.5019-.531-.736-.37-.4941-.737-.9892-1.103-1.4629l-1.237-1.3616c-.213-.2178-.407-.4565-.635-.6625l-.709-.6419c-.462-.402-.899-.8307-1.391-1.1877-.493-.357-1.012-.7126-1.491-1.0683l-.373-.2594-.399-.2327-.8-.4522c-1.062-.6058-2.171-1.1319-3.318-1.5739-.579-.2108-1.174-.3753-1.768-.557l-.886-.242-.908-.1775-1.747-.2424-1.769-.1058-.883-.0468-.871.0145-1.741.0412c-.992.0877-1.979.2039-2.959.361-.006-.0248-.017-.0479-.033-.0679s-.036-.0364-.059-.0483c-.318-.2418-1.64-.2997-2.672-.0758-1.29.3152-2.562.7048-3.809 1.1666l-.922.3445-.46.1723c-.154.0632-.297.1408-.446.2072l-1.764.8465c-.292.1391-.576.2958-.849.4693l-.831.4952-.835.5002c-.275.1617-.5234.3688-.7691.5455l-1.5302 1.132-1.4608 1.2658c-.2336.2166-.4795.4146-.6974.6449l-.6495.6898c-.4216.4659-.8732.9128-1.2583 1.4091-.3852.4964-.762.9909-1.1372 1.4935l-.2808.3801-.2467.3982-.4893.7955c-.6494 1.0688-1.2183 2.1807-1.702 3.3268-.2346.5743-.4218 1.1681-.6282 1.7533l-.3028.8785-.2119.8971-.2947 1.715-.1678 1.7387-.0776.8679-.0146.8543-.0168 1.7058c.0838 2.2663.4446 4.5054 1.0746 6.6695.1233.6719.2944 1.3329.5121 1.9784.2303.6735.4392 1.3729.7193 2.0104.28.637.5858 1.226.8514 1.743.1182.241.2561.471.4125.689.1347.201.259.369.3726.528 2.3103 2.828 5.193 5.151 8.4762 6.834 3.284 1.682 6.902 2.687 10.638 2.957 2.846.597 5.766.858 8.698.778-.792-.077-1.589-.112-2.388-.104-.88-.026-1.819-.116-2.743-.171-.866-.14-1.72-.261-2.498-.445.351.009.7.027 1.053.022 1.635.037 3.276-.092 4.895-.385-.235.069-.463.16-.682.272-.398.201-.445.364-.265.483.351.234 1.638.291 2.688.072 1.289-.312 2.56-.7 3.806-1.162l.926-.345.456-.176c.154-.063.297-.136.445-.207l1.764-.846c.292-.14.576-.295.85-.466l.836-.496.826-.498c.278-.167.523-.369.768-.55l1.53-1.132 1.432-1.259c.234-.212.479-.415.697-.645l.65-.69c.421-.466.874-.908 1.259-1.405.385-.496.757-1.015 1.136-1.497l.282-.376.246-.399.489-.799c.65-1.0662 1.219-2.1754 1.703-3.3187.235-.5743.427-1.165.629-1.7534l.268-.8753.212-.897.309-1.7096.168-1.7386.081-.8689.015-.8543.017-1.7058c-.021-.3105-.044-.616-.064-.9224.115.1198.221.1052.306-.0197.252-.3523.353-1.617.166-2.636-.256-1.2582-.591-2.4972-1.003-3.7103zm-1.045 13.5678c-.15.341-.275.691-.376 1.0474-.783 2.6313-1.999 5.1325-3.6 7.4028-.853 1.227-1.818 2.376-2.883 3.434.251-.263.492-.533.718-.807l1.011-1.151c-.501.576-.999 1.123-1.491 1.651-.245.261-.505.508-.78.739l-.804.702c-.539.472-1.109.907-1.708 1.303l-.919.625c-.322.189-.664.369-1.008.554.564-.518 1.759-1.33 2.303-1.908.544-.577 1.173-1.08 1.723-1.65 2.211-2.069 4.087-4.455 5.561-7.0705 1.091-1.9365 1.94-3.9886 2.53-6.1106-.061.4091-.173.829-.277 1.2389zm-8.119 13.0802.944-.885.241-.223c-.398.37-.793.74-1.185 1.108zm-41.0661-19.3157c.0469-.4826.1198-.9665.2011-1.4522-.0556.4376-.107.8743-.1505 1.2837-.0157.0545-.0307.1131-.0506.1685zm36.3271-19.0454c.407.2095.805.4381 1.196.6726l.035.0263c.318.2418.624.4904.913.7467.533.4973.314.4724-.033.3051l.453.3783c.499.3175.997.635 1.463 1.0107.465.3756.891.7939 1.312 1.2304.427.5159.812 1.0663 1.216 1.5958.198.2688.379.5492.542.84l.507.8604c.147.2115.278.4331.394.6634-.059-.1162-.126-.2282-.2-.3353 1.56 2.9678 2.386 6.2723 2.414 9.6556.026.1348.015.2818.025.4203l-.026.0054.001-.4257c-.144-2.3777-.676-4.7046-1.576-6.8926-.896-2.1707-2.11-4.1934-3.604-6.0059.38.2617.731.5621 1.047.8965l-.793-.9602c-.286-.3039-.586-.592-.879-.8901l-.435-.4419c-.142-.1524-.295-.2941-.458-.4242l-.95-.8026c-.221-.1306-.421-.283-.657-.3936l-.703-.337c.182.0585.589.2426.895.355-1.77-1.3502-3.73-2.4474-5.825-3.2604 1.29.3902 2.536.8945 3.726 1.507zm2.688 32.2527c-1.815 2.0224-4.03 3.6624-6.502 4.8144l-1.1.486c-.097.021-.18.086-.274.123l-.283.091-.559.185c-.313.123-.623.263-.951.372-.329.11-.675.172-1.018.251-.344.079-.595.431-.774.521-.473-.004-.941-.008-1.42.002l-.366.007-.371-.022c-.253-.017-.509-.03-.776-.036-.163.065-.512.111-.829.235-.199-.111-.406-.209-.62-.291l-.991-.04-.987-.11c-.321-.053-.651-.063-.964-.148l-.918-.227.005.025-.486-.095c-.164-.036-.326-.103-.468-.162l-1.017-.354c-.346-.116-.663-.311-.998-.46-.332-.145-.655-.308-.968-.488-.523-.312-1.063-.574-1.527-.852l-.673-.522c-.21-.161-.406-.338-.587-.528-.013.121-.059.238-.132.339.189.072.366.168.527.286-.321-.148-.626-.26-.885-.353-.115-.249-.244-.491-.388-.724-.076-.12-.155-.235-.243-.373-.087-.139-.153-.252-.233-.375l-.723-.758c-.126-.13-.239-.27-.339-.42l-.32-.4373-.32-.4329c-.115-.1394-.216-.29-.3-.4497l-.543-.9335c-.1382-.0594-.1851.0827-.2528.14-.1313-.2988-.2323-.6104-.3015-.9304l-.2604-.9436c-.2035-.5346-.3514-1.0983-.5354-1.6457-.1841-.5473-.2203-1.1438-.3312-1.7197-.1233-.2542-.1962-.5192-.3378-.7779.1077-.194.1797-.4042.2127-.6206-.0254-.2158-.0381-.4333-.038-.6514.0102-.2192.022-.4303.0264-.6568-.0155-1.8412.2173-3.6847.6925-5.4824-.0362-.1879-.0661-.3431-.0326-.4185.2552-.6043.4599-1.1977.7444-1.7402.215-.4722.4258-.9435.6287-1.413.202-.4694.472-.8599.684-1.259.211-.3991.471-.7279.671-1.0521.166-.2867.351-.5628.553-.8264.176-.2892.074-.3691-.185-.3258l-.266.0491.081-.1961c.259-.1188.51-.2544.752-.4057.125-.0782.249-.1604.389-.2503.14-.09.263-.155.39-.2422l.816-.7089c.135-.1273.281-.2429.436-.3457l.457-.3289.453-.3279c.146-.1179.303-.2218.469-.3103l.97-.5679c.069-.1384-.078-.1788-.134-.2432.311-.1392.633-.2492.964-.3282l.949-.291c.556-.2186 1.133-.3818 1.697-.5809.565-.1991 1.179-.2557 1.767-.3831.263-.1295.54-.2109.805-.3576.195.098.406.1615.626.1876.221-.0324.443-.0522.666-.0593l.674.0069c1.88-.079 3.753.0871 5.572.4939.188-.041.348-.0755.428-.0461.608.2299 1.212.4139 1.751.6714l1.42.5686c.433.2253.858.4353 1.258.6294s.727.4381 1.051.6232c.287.1539.564.3255.829.5139.285.1637.37.0601.334-.1918-.032-.1642-.077-.3251-.136-.4811-.074-.1797-.188-.3848-.294-.5745-.222-.403-.486-.8436-.667-1.1917l-.051-.0825c.145.1144.281.2402.405.3761.011-.1221.054-.2402.126-.3424-.19-.069-.367-.1653-.527-.2857.291.131.589.2467.893.3468.111.2523.241.4957.389.7284.073.1205.152.2369.238.3485.08.1189.149.2528.23.3757l.73.799c.127.129.24.2697.339.4202l.319.4329.324.432c.112.1409.212.2917.297.4506l.542.9334c.139.0635.185-.0827.254-.1358.131.299.233.6102.305.9295.062.3186.169.6272.256.9404.204.5387.352 1.1024.535 1.6456.184.5433.221 1.1479.331 1.7198.124.2541.197.5233.338.7778-.106.1945-.178.4045-.212.6207.025.2157.038.4332.038.6513-.011.2193-.018.4295-.026.661.009 1.8418-.23 3.685-.71 5.4819.035.1838.065.339.032.4185-.255.6043-.459 1.2017-.744 1.7402l-.603 1.4075c-.248.4368-.477.8568-.685 1.255-.207.3982-.476.7288-.671 1.0521-.167.286-.35.563-.549.8295-.176.2893-.078.3659.18.3227.169-.0367.335-.0869.496-.1501.19-.0795.399-.1971.596-.308.419-.2313.878-.5052 1.239-.6942s.575-.3289.614-.2182c.061.5533-.044 1.1176-.304 1.6234-.131.2944-.279.5821-.442.8618-.123.1757-.263.3591-.406.5439-.073-.0413-.155-.063-.24-.0634zm-37.735-8.6252c-.0335-.3104-.059-.6241-.0763-.9409l.0323.0313.0307.3636c.0044.182.0047.3649.0133.546zm45.825 1.7257c-.019.0382-.045.0822-.063.1244.102-.4008.209-.7944.322-1.1849l.198-.6728.156-.6678c.106-.4485.226-.8662.366-1.2752-.11 1.1374-.313 2.2673-.608 3.3788-.016-.0858-.033-.1716-.049-.2533-.133.1684-.242.3539-.322.5508zm.951-10.9473c.051.4444.092.8865.125 1.3304.044.4376.049.8795.014 1.3205-.038-.2002-.078-.4085-.115-.6005s-.079-.4085-.146-.5982c.328 3.7352-.217 7.5235-1.595 11.0783l-.053.1094c-.113.2586-.25.5075-.408.7438.026-.2136.08-.424.16-.6261.093-.2153.198-.4256.315-.6302l-.459.8359c.014-.0626.035-.1353.053-.1988.217-.5978.401-1.2059.55-1.8214-.006-.0286.018-.0636.029-.0999l.182-.8013.191-.8203c.031-.1385.07-.2747.092-.4113l.056-.4122c.073-.552.139-1.094.203-1.6015.061-.8373.046-1.6757-.046-2.5052-.025-.2647-.144-.5095-.334-.6934-.018-1.7965-.215-3.581-.589-5.3279.045.1007.079.2083.121.31.617 1.9378.977 3.9532 1.072 5.9976.002.4675-.004.9328-.036 1.4035.029-.3468.054-.6968.083-1.0436.057.2941.088.5937.145.8878.03-.4321.052-.8625.066-1.291 0-.4301-.029-.8589-.086-1.2836-.045-.4158-.104-.8583-.16-1.2886-.01-.0491-.02-.1022-.029-.1512l-.155-1.2092c-.043-.6698-.123-1.3358-.24-1.9948-.091-.6314-.143-1.2455-.215-1.7108.482 1.7125.783 3.1621 1.067 4.5433-.119-1.3164-.346-2.6177-.68-3.8912.266.6277.502 1.2658.718 1.9084.041.18.069.3631.083.5479zm-46.8315 14.9021c.0055.0286.0118.0612.0173.0898-.0165-.0857-.0322-.1674-.0487-.2532zm25.5145-34.0246c.32-.0385.642-.0399.96-.0041.568.0674 1.126.1857 1.668.3533.159.0479.316.1034.469.1664-1.186-.1753-2.386-.2719-3.591-.2893-.192-.018-.389-.0433-.584-.0564.356-.0815.716-.1382 1.078-.1699zm-29.0489 24.5225c-.0308-.3114-.021-.6266.0291-.9383.0886-.5601.2279-1.1129.4161-1.652.1703-.4804.3717-.9505.6031-1.4075.2151-.4488.3902-.914.5233-1.3901.7854-2.6305 2.0018-5.1313 3.6005-7.4026.8532-1.2278 1.8199-2.3779 2.8874-3.4349-.2551.2639-.4919.5323-.7187.807l-1.015 1.1521c.5008-.5767.9988-1.123 1.4914-1.6512.2448-.2614.5052-.5083.7798-.7394l.8045-.7021c.2984-.268.612-.5193.9389-.7526-.9969 1.0239-1.9156 2.118-2.7481 3.2727-1.5981 1.7092-2.9842 3.5961-4.1276 5.6189-1.8025 3.1828-2.9362 6.6708-3.3317 10.2508-.0687-.3394-.1131-.6838-.133-1.0308zm9.317-17.4343c-.3149.2938-.6248.5908-.9405.8806-.0786.0681-.1523.1394-.2252.2148.3896-.3824.7824-.7484 1.1783-1.0982zm-5.8864 27.827c-.1597-.4207-.3278-.8396-.4707-1.2639l-.3312-1.3112-.1568-.6554c-.061-.2148-.1034-.4348-.1266-.6577-.0506-.4444-.0929-.8906-.1251-1.3304-.0451-.4378-.0484-.8802-.0097-1.3214.0385.2002.0786.4085.1148.5964.0197.1022.0401.2084.0598.3105.0373.3068.0921.6141.1427.9223.2725 2.3051.8812 4.549 1.8077 6.6636l-.1204-.1484-.2792-.565c-.2077-.3975-.338-.8246-.5053-1.2394zm19.1953 13.7785c-.308-.036-.599-.075-.896-.117-.172-.03-.341-.073-.506-.128-.111-.057-.226-.109-.345-.159l-.883-.388c-.261-.101-.51-.226-.745-.374.097.006.193.02.287.04l.38.109c.207.086.408.184.603.295l-.484-.24c1.136.299 2.295.516 3.469.648.14.024.278.058.417.079l.423.04 1.389.108c-.718.062-1.44.104-2.163.116l1.032.048c-.662.031-1.324.005-1.978-.077zm2.597.117c-.194.037-.393.029-.581-.023zm27.484-23.1828c.028.3133.017.63-.032.9433-.088.5589-.228 1.1105-.417 1.6479-.064.2051-.14.4065-.229.603 0 0-.008-.0409-.013-.0654.014-.282-.004-.5635-.052-.8397.28-1.0933.486-2.2013.615-3.3167.067.3384.11.6818.128 1.0276z"/><path d="m121.828 73.5395.254.1193.509.2345c.675.3084 1.327.6604 1.952 1.0538.313.196.598.4278.904.6552l.452.3276c.149.1125.274.2427.415.3612l.826.7274.738.8106c-.27-.4623-.509-.9424-.714-1.4372-.228-.0632-.447-.1513-.654-.2626-.227-.1124-.442-.2744-.706-.4001-.265-.1256-.499-.3176-.783-.4772-.135-.0858-.263-.1856-.406-.2695l-.441-.245c-.295-.1701-.587-.3493-.885-.5317l-.959-.4431-.48-.2196c-.153-.0689-.319-.1138-.47-.1705-.317-.1015-.62-.2017-.929-.2837l.005.0245 1.068.3686c.126-.0019.218.0208.304.0575z"/><path d="m130.449 81.2353c-.072.0495-.139.1928-.265.1289.275.5501.508 1.1194.698 1.7036-.09-.6231-.235-1.2361-.433-1.8325z"/><path d="m131.642 87.0149c.028.2233.036.4492.024.6751.06-.1548.11-.2943.172-.4192-.024.4096-.057.8211-.108 1.2279.089-.1997.192-.3939.308-.5813-.067-.2525-.118-.5092-.151-.7688l.019-.0427s-.006-.0289-.009-.0413c.077-.9759.25-1.83.252-2.6956-.197-.2059-.344-.4507-.432-.7184-.124-.6296-.281-1.2516-.472-1.8638.459 1.6828.66 3.4278.597 5.1818-.107-.1988-.196-.406-.267-.6196z"/><path d="m128.79 96.6303c.092-.1349.202-.2653.289-.4074.086-.1422.176-.2893.265-.4406.184-.2911.376-.5881.576-.887l.485-.9564.24-.4777c.076-.1526.123-.3161.186-.466.119-.311.231-.6162.325-.9218l-.025.0055c-.142.3542-.279.7075-.412 1.0599-.036.0885-.066.1803-.102.2647l-.131.2539-.26.5118c-.337.6714-.717 1.3225-1.137 1.9492-.21.3139-.461.6023-.699.9093l-.35.4547c-.115.1485-.257.2771-.382.4192l-.744.8808-.852.7509c.482-.2815.981-.532 1.494-.7499.073-.2249.169-.4425.286-.6494.123-.2266.295-.4428.437-.7076.141-.2647.322-.5295.511-.7961z"/><path d="m122.722 101.83c-.557.274-1.134.508-1.725.698.625-.103 1.242-.257 1.844-.459-.048-.052-.191-.117-.119-.239z"/><path d="m116.402 103.354c.202.05.396.124.578.219.245-.132.501-.244.765-.335l-.669.072c-.223.036-.449.05-.674.044z"/><path d="m107.967 101.795.784.393c.273.11.56.2.845.303.066.049.212.018.394-.009-.337-.105-.679-.208-1.023-.303-.345-.094-.672-.26-1-.384z"/></g></svg>