<svg fill="none" height="46" viewBox="0 0 46 46" width="46" xmlns="http://www.w3.org/2000/svg"><g fill="#cf000c"><g clip-rule="evenodd" fill-rule="evenodd"><path d="m2.76816 17.7205c-.18273-1.163.4222-1.8833 2.17238-2.1845.5495-.108 1.11536-.0783 1.64904.0866.3054.1174.81512-.1585 1.1694-.0328 3.69952 1.1195 9.15222 3.4429 9.51892 5.7763-.1194 3.1957-1.225 2.9913-2.2004 3.4445-1.4638.5251-3.0836.5488-4.4212-.2622-.87104-.0456-1.70905-.3454-2.41497-.8639-.3643-.1422-.76593-.0867-1.13822-.223-1.08305-.4208-2.85082-1.0075-3.04911-2.2695-.10194-.6488-.69181-.5519-.74986-.9213-.06803-.433.18155-.737.11677-1.1493-.06965-.4434-.47448-.2568-.65489-1.4051z"/><path d="m17.0498 3.99736c-.308.114-.5874.29749-.8171.53673-.2298.23924-.404.52804-.5096.84477-.9848.26367-1.8452 1.44176-1.7159 2.26404.4179 2.658 1.3661 5.4819 2.461 6.8487.1308.3001.5249.0178.7066.2437.3324 2.1142 2.848 4.7554 4.1435 4.5327 1.2679-.218 1.825-3.0695 1.7234-3.7155l-1.2063-8.5739c-.2644-1.68159-1.5282-2.97376-2.5594-2.79646-.0618-.21305-.3173-.3578-.5632-.47072-.246-.11291-1.3606.14112-1.663.28594z"/><path d="m25.687 18.5227c.3947-.0238.7826-.1193 1.1455-.2822.1583.3919.4929.846.8096.7323.3442.0227.4387-.1423.7342-.2782.3305-.1207.8689-.1495 1.1126-.6804.5156-.0887.9743-.4258 1.4674-.998.196.0022.3858-.0738.5291-.2118.1432-.1381.2286-.3273.2381-.5276.1265-.3027.4235-.5421.6348-.7591.3543-.102.8942.0116.7796-.6519 2.2489-2.2334 4.6864-4.44 4.7033-6.9831-.5448-1.47017-1.7756-2.49737-4.8204-2.40463-2.9572.73514-4.4462 2.70258-5.3921 5.12623l-.644.208.2636.8353c-.5554.0151-.3571.3211-.306.5704l-.5914.1458c.1459.4076-.0799.7502-.253 1.1064.1154.0621.2919.05.2927.2533-.0094.8398-.283 1.5974-.5503 2.3571.2028 1.2815.0119 1.7608-.1533 2.4421z"/></g><path d="m29.0431 24.9638c-.8645.1714-.651-.9277-.3172-1.3367.4885-.2855.8167-.4753 1.1364-1.0501.4077-.5535.8247-.216 1.3712-.5388.6346-.3577 1.3116-.7954 1.9587-.9506.9519-.0591 2.0908-.167 3.0423-.1821 1.2123.0098 2.3748-.0143 3.5833.1128 2.0141.025 2.7402.7883 3.4445 2.1493.3648.5813.3289 1.3831.0968 2.0141-.3642.4521-.5045.7126-.0306 1.204.1499.2637-.4679 1.3701-.7242 1.4884-.848.4167-1.7772.6283-2.7151.6184-.7465-.0232-1.5063-.0835-2.1993-.3902-.6526-.2576-1.3583-.1347-2.0454-.1681-.7177-.0479-1.537.0991-2.0464-.5423-.4616-.3753-1.2081-.0772-1.5608-.6576-.392-.2251-1.0358.0266-1.4033-.6286-.6029-.2631-.9637-.101-1.2941-.7565-.0485-.1856-.1289-.4325-.2965-.393z"/><path d="m25.3649 27.1753c-.333-.3549-1.0646-.5256-.9529.2141-.0449.4913-1.1747.4424-1.3179 1.6837-.1599.8792-.1051 1.7017-.1152 2.5475.1726 1.1123.4475 2.2046.8211 3.2624.4195.7066.6038 1.4718.9522 2.1997.3477.8375.9016 1.4798 1.4219 2.1735.933 1.2433 3.6244 1.4251 3.7294 1.6094.3428.4459 1.2721.9643 1.4742-.1016.1096-.393.6648-.2543.8393-.5474.2623-.3219.4576-.2932.7465-.4934.8387-1.0918.6808-3.1589.1339-4.4199-.5067-.4449-.9467-.9636-1.3059-1.5396-.1677-.2616-.3619-.7103-.7165-.8425-.1195-.4569-.4344-.6781-.808-.9788-.2676-.3357-.5883-.6234-.9488-.8512-.2225-.164.0973-.5658-.1493-.6937-.3671-.0889-.6168-.2649-.6223-.3659-.0524-.6845-.6798-.8838-1.2687-1.2935-.5504-.3448-.7989-1.4808-1.552-1.4272-.0655.0118-.1327.0059-.195-.0173s-.1173-.0629-.1595-.1149z"/><path clip-rule="evenodd" d="m19.9187 27.48c-.3948.0236-.7827.1197-1.1453.2836-.157-.3936-.4916-.8477-.8098-.7337-.3442-.0228-.4372.142-.7327.2779-.332.1209-.8689.1495-1.1141.6807-.5155.0887-.9742.4258-1.4673.998-.196-.0018-.3855.0743-.5287.2123s-.2287.327-.2386.5272c-.125.3024-.4218.5433-.6348.7591-.3543.102-.8869-.0129-.7795.652-2.2489 2.2334-4.68638 4.4401-4.70327 6.9834.54827 1.4545 1.78091 2.4844 4.82687 2.3899 2.9558-.7349 4.4448-2.7024 5.3921-5.1264l.6428-.2063-.2624-.8371c.5554-.0151.3557-.3208.3046-.5702l.5913-.1458c-.1456-.4062.08-.7502.2545-1.1067-.1154-.0621-.2934-.0497-.2941-.2531.0166-.841.2844-1.5977.5503-2.3572-.208-1.267-.0127-1.747.1481-2.4276z" fill-rule="evenodd"/></g></svg>