<svg fill="none" height="99" viewBox="0 0 78 99" width="78" xmlns="http://www.w3.org/2000/svg"><path d="m35.6517 21.2374h-11.9139c.0001-3.024-.1398-9.2115-.7008-9.7698-.7014-.6978-2.102-.6978-2.8028-1.3957-.7008-.6978-1.4016-1.39564-2.1025-1.39564-.7008 0-1.4016-1.39568-2.1024-1.39568s-1.4022-.69785-2.103-2.09353-1.4011-.69784-2.1019-1.39568c-.5607-.55828-1.1684-.98861-1.4022-1.134v-.95953l-2.80325-.69784c-.23364 0-1.12142.27914-2.80338 1.39568-1.40174 1.39569-1.40153.69785-2.10246 2.09353l-.00063.00126c-.70029 1.39442-.7004 1.39463-1.40101 2.09226-.700814.69785 0 .69785 0 2.79137v1.3957 2.7914c0 1.3956 0 .6978.70082 1.3956.70082.6979.70082 0 2.10257 1.3957.26291.6979.70071.6979.70071 1.3957v2.7914c0 2.0935.70092.6978.70092 1.3957 0 .6978 0 .6978.70082 4.8848 0 2.7914 0 1.3957-.70082 3.4893-.70082 1.3956 0 1.0467 0 4.187 0 1.3957.70082.6978.70082 1.3957 0 .6978.70072.6978.70072 1.3957 0 .6978.70092.6978.70092 2.0935s0 .6978-.70092 1.3957l-2.10246 2.0935c-1.40174 1.3957-.70071.6978-1.40153.6978s-.70093 1.3957-.70093 2.0936c0 .6978.70093.6978.70093 1.3957 0 .6978 1.40153.6978 2.10245.6978.70082 0 .70082.6976.70082 1.0466v.0002c0 .3489.70072 1.7446.70072 2.4424s-.70072.6978-2.10246 2.7914c-1.40174 2.0935-.70071 1.3957-1.40153 2.0935s0 .6978.70082 3.4892c.70081 2.7914 1.40163 2.0935 1.40163 2.7914v4.8849c0 1.1165.46722 1.5701.70082 1.6573v2.5297l1.40164 4.1871 2.10246-1.3957.70079-2.0935h4.2049l.7009 6.9784-1.4017.6978s.7592 8.8393 3.2413 9.7698v2.7914l-2.5405 1.3957v2.7913l8.4099.6979.7008-.6979h2.8033v1.3957h5.6065l1.4016-5.5827 2.1025-.6979c.7008 1.6283 2.2426 4.8849 2.8033 4.8849h2.1024l5.6066-4.8849 8.4098 1.3957-.7008-6.9784 4.2049-6.2806 7.0082-.6978 7.0082-8.3741h4.9057v-3.4892l-4.9057-7.6763-12.6148-9.0719v-2.7914l.7009-5.5827c-3.5041-5.8154-10.9328-18.2835-12.6148-21.6331-1.6819-3.3497-4.4385-4.6523-5.6065-4.8849l-.7009 4.8849h-4.2049z" fill="#dd513e" stroke="#dd513e"/></svg>