<svg width="24" height="21" viewBox="0 0 24 21" fill="none" xmlns="http://www.w3.org/2000/svg">
<path d="M23.7905 19.2491C21.3517 16.1976 19.0487 13.0387 16.9014 9.77535C15.8675 8.20408 14.8697 6.60726 13.9058 4.99044C13.0743 3.59441 12.5228 2.01647 11.6478 0.656255C11.6505 0.642648 11.6541 0.629596 11.6575 0.616543C11.7086 0.386601 11.4889 0.20498 11.2973 0.234695C10.6474 -0.227967 9.70907 0.483243 10.0915 1.34442C10.1659 1.51215 10.2462 1.67628 10.3225 1.84235C9.26696 3.78408 8.15779 5.70749 7.10611 7.647C4.90195 11.7129 2.70639 15.8266 0.132589 19.6726C-0.300913 20.3202 0.413074 20.99 1.05736 20.8745C8.36191 19.5679 15.8361 20.0572 23.1818 20.7179C24.0091 20.7929 24.2032 19.7653 23.7905 19.2491Z" fill="#E3000B"/>
<path d="M11.5982 14.112C11.2574 13.9693 11.0006 14.1787 10.8964 14.4608C10.885 14.4608 10.8736 14.4592 10.8628 14.4597C10.4787 14.4711 10.0769 14.7819 9.88972 15.1029C9.43289 15.8844 9.97553 16.9388 10.7609 17.246C11.5896 17.5709 12.5752 17.0582 12.8448 16.2198C13.1642 15.2229 12.4502 14.4672 11.5982 14.112Z" fill="white"/>
<path d="M12.168 12.538C12.3605 11.5005 12.258 10.3907 12.1805 9.34157C12.1072 8.36848 12.1191 7.24293 11.699 6.35398C11.5698 6.08211 11.1099 6.08211 10.9819 6.35398C10.5615 7.24015 10.5723 8.37126 10.5004 9.34157C10.4223 10.3924 10.3199 11.4994 10.5129 12.538C10.6651 13.3564 12.0153 13.3564 12.168 12.538Z" fill="white"/>
</svg>
