<svg fill="none" height="10" viewBox="0 0 17 10" width="17" xmlns="http://www.w3.org/2000/svg"><path clip-rule="evenodd" d="m16.6179 4.54635c.0938.09377.1464.22094.1464.35355s-.0526.25979-.1464.35356l-4.2426 4.24264c-.0938.09376-.221.14644-.3536.14644s-.2598-.05268-.3535-.14644c-.0938-.09377-.1465-.22095-.1465-.35356s.0527-.25978.1465-.35355l3.3891-3.38916-14.3493.0007c-.065744 0-.130844-.01295-.191583-.0381-.06074-.02516-.115929-.06204-.162417-.10853s-.083364-.10167-.108523-.16241-.038109-.12584-.038109-.19159c0-.06574.01295-.13084.038109-.19158s.062035-.11593.108523-.16242.101677-.08336.162417-.10852c.060739-.02516.125839-.03811.191583-.03811l14.3493.00071-3.3891-3.38916c-.0938-.093773-.1465-.220949-.1465-.353558 0-.132608.0527-.259785.1465-.353554.0937-.093768.2209-.146446.3535-.146446s.2598.052678.3536.146446z" fill="#000" fill-rule="evenodd"/></svg>