<svg fill="none" height="42" viewBox="0 0 37 42" width="37" xmlns="http://www.w3.org/2000/svg"><g clip-rule="evenodd" fill-rule="evenodd"><path d="m.945383 17.5063c-.112774-.8855.441787-1.477 1.975527-1.8142.48208-.1162.97293-.1273 1.43043-.0323.26089.0722.71504-.171 1.0181-.0954 3.17239.6408 7.82146 2.1044 8.04776 3.881-.2305 2.4704-1.1837 2.3792-2.0498 2.7871-1.2936.4926-2.70298.6082-3.83393.0633-.75554.0171-1.47232-.1637-2.06557-.5209-.31112-.0878-.66255-.0209-.98086-.1036-.92504-.2593-2.43887-.6055-2.56125-1.5663-.06291-.494-.57966-.3839-.61548-.6651-.04199-.3297.18709-.579.14711-.8929-.04299-.3376-.40239-.1695-.513734-1.0438z" fill="#cf000c"/><path d="m13.3387 5.85748c-.2836.11118-.5441.27654-.762.48368s-.3876.4507-.4963.71245c-.9026.27427-1.7302 1.27726-1.6471 1.93145.2688 2.11464 1.0109 4.32964 1.946 5.36174.106.2335.4746-.0186.6298.1519.2138 1.6821 2.3826 3.6513 3.5649 3.3905 1.1571-.2553 1.779-2.5871 1.7137-3.101l-.7387-6.83018c-.1701-1.33786-1.2611-2.29924-2.2021-2.09162-.0472-.16771-.2726-.26826-.4906-.34375-.2181-.07548-1.2378.19918-1.5176.33483z" fill="#f4ad17"/><path d="m20.0234 17.6373c.3456-.0424.6882-.1401 1.0116-.2886.1226.2949.3967.6276.6778.52.2997-.0031.3888-.1371.6522-.2605.2935-.1138.7648-.1688.9988-.5961.4538-.1001.8678-.3898 1.3212-.8643.1711-.0101.3399-.0806.4705-.1966.1306-.1159.2128-.2681.229-.4244.1225-.2428.3915-.4468.5846-.6282.3135-.1007.7805-.0451.7068-.5538 2.0529-1.8715 4.2695-3.7337 4.3857-5.71092-.4171-1.10949-1.451-1.83325-4.1136-1.577-2.6118.75015-3.9905 2.36909-4.9132 4.30962l-.5707.2006.1969.6332c-.4856.0453-.3246.2711-.29.4618l-.5222.149c.1111.308-.0997.5878-.2651.8751.0983.0413.253.0212.2455.1791-.0417.6532-.3108 1.2585-.5746 1.865.1261.9836-.0598 1.3675-.2312 1.907z" fill="#cf000c"/></g><path d="m23.1758 23.3162c-.7517.1799-.5247-.6601-.221-.9877.4322-.2437.7224-.4059 1.0204-.8574.3731-.4407.7192-.2112 1.2028-.4864.5609-.3066 1.1615-.676 1.7253-.8309.8226-.1005 1.8083-.2488 2.6289-.3162 1.0444-.0639 2.0471-.1505 3.0836-.1259 1.7347-.0997 2.3306.4321 2.8843 1.4153.2916.4162.2292 1.022.0045 1.5106-.3316.3618-.4627.5662-.0735.9083.1189.1896-.4569 1.059-.6824 1.1632-.7471.3635-1.5562.5775-2.3641.6253-.6424.0265-1.2948.0258-1.88-.1643-.5523-.1555-1.1653-.0215-1.7562-.0062-.6166.0062-1.3284.165-1.7422-.2878-.3832-.2554-1.0382.013-1.3194-.4032-.329-.1464-.8937.0809-1.1847-.3907-.5093-.1625-.8266-.0193-1.0856-.4933-.0345-.1369-.0942-.318-.2402-.2785z" fill="#cf000c"/><path d="m20.3088 25.0855c-.2832-.2628-.9305-.3536-.8607.2303-.0602.3953-1.0684.4264-1.2471 1.4269-.1788.7123-.1634 1.3659-.2069 2.0422.1089.8777.3102 1.7331.6011 2.5549.3462.5383.4798 1.1381.7616 1.6979.2767.6474.7458 1.126 1.1827 1.6478.7834.9351 3.1825.913 3.2688 1.0537.2883.3349 1.0981.6912 1.3222-.1728.114-.3208.6049-.2445.7728-.4895.2477-.2735.4211-.2626.6876-.4406.7945-.9243.7376-2.5656.3001-3.5389-.435-.3239-.8072-.7108-1.1048-1.1486-.1394-.1986-.2947-.5449-.6063-.6284-.0882-.3577-.3608-.5147-.6825-.7317-.2257-.2516-.5006-.4614-.8137-.6209-.1922-.1172.1101-.458-.1051-.5449-.3247-.0482-.5408-.1733-.5415-.2536-.019-.5435-.5718-.6637-1.0816-.9543-.4781-.2413-.6539-1.1332-1.3294-1.0436-.0591.0135-.119.013-.1737-.0017s-.1023-.0429-.138-.0818z" fill="#f4ad17"/><path clip-rule="evenodd" d="m15.955 24.9346c-.3456.0422-.6882.1404-1.0114.2897-.1214-.2964-.3955-.629-.6779-.5212-.2996.0032-.3875.1369-.6509.2603-.2947.114-.7647.1688-1 .5963-.4537.1001-.8677.3898-1.3211.8643-.1711.0104-.3396.081-.4702.1969-.1305.1158-.2127.2679-.2293.424-.1212.2426-.39.4477-.5846.6283-.31348.1006-.77402.0436-.70672.5537-2.05286 1.8714-4.26937 3.7335-4.38552 5.7107.42078 1.0969 1.45611 1.8227 4.11974 1.565 2.6104-.7498 3.9891-2.3687 4.913-4.3095l.5696-.1991-.1958-.6346c.4856-.0453.3233-.2708.2887-.4615l.5222-.149c-.111-.3068.0997-.5878.2663-.8753-.0982-.0413-.2542-.0209-.2467-.1789.048-.6545.3121-1.2587.5745-1.8648-.1311-.9719.0586-1.3567.2261-1.8953z" fill="#cf000c" fill-rule="evenodd"/></svg>