<svg width="42" height="40" viewBox="0 0 42 40" fill="none" xmlns="http://www.w3.org/2000/svg">
<mask id="path-1-inside-1_1815_217" fill="white">
<path d="M20.9652 0.123512C14.324 0.123512 7.80724 2.82841 3.77185 8.16456C3.45545 8.58195 3.15788 9.0125 2.87914 9.45564C-0.724472 15.1852 -0.976495 22.831 2.29919 28.7493C5.11151 33.8303 10.2619 37.4496 15.8993 39.0664C19.8169 40.1892 24.0776 40.3976 27.9551 39.1467C31.5356 37.9922 34.6613 35.6262 36.9343 32.6644C40.8015 27.6258 42.1679 20.8064 40.5349 14.6972C39.7139 11.6258 38.1422 8.76339 36.0374 6.36329C34.0176 4.05841 31.2805 1.78825 28.3133 0.829529C28.1682 0.782222 28.0243 0.73192 27.8797 0.682217C25.2757 -0.209436 22.8041 -0.023201 20.1132 0.123512"/>
</mask>
<path d="M3.77185 8.16456L6.16259 9.97685L6.16466 9.9741L3.77185 8.16456ZM2.87914 9.45564L0.339755 7.85829L0.339664 7.85843L2.87914 9.45564ZM2.29919 28.7493L-0.325581 30.202L-0.32558 30.202L2.29919 28.7493ZM15.8993 39.0664L15.0722 41.9502L15.0727 41.9503L15.8993 39.0664ZM27.9551 39.1467L27.0344 36.2915L27.0339 36.2916L27.9551 39.1467ZM36.9343 32.6644L34.5545 30.8378L34.5544 30.8379L36.9343 32.6644ZM40.5349 14.6972L43.4332 13.9225L43.4331 13.9224L40.5349 14.6972ZM36.0374 6.36329L33.7811 8.34049L33.7819 8.34133L36.0374 6.36329ZM28.3133 0.829529L27.3837 3.68185L27.391 3.68421L28.3133 0.829529ZM27.8797 0.682217L28.8553 -2.15473L28.8516 -2.15601L27.8797 0.682217ZM20.9652 -2.87649C13.5511 -2.87649 6.07525 0.145033 1.37903 6.35503L6.16466 9.9741C9.53922 5.5118 15.0968 3.12351 20.9652 3.12351L20.9652 -2.87649ZM1.38111 6.35228C1.0117 6.8396 0.664575 7.34191 0.339755 7.85829L5.41853 11.053C5.65119 10.6831 5.89921 10.3243 6.16258 9.97685L1.38111 6.35228ZM0.339664 7.85843C-3.83863 14.5017 -4.13711 23.3157 -0.325581 30.202L4.92396 27.2965C2.18412 22.3464 2.38969 15.8687 5.41862 11.0528L0.339664 7.85843ZM-0.32558 30.202C2.93899 36.1002 8.81274 40.1549 15.0722 41.9502L16.7263 36.1827C11.711 34.7443 7.28403 31.5604 4.92395 27.2965L-0.32558 30.202ZM15.0727 41.9503C19.4178 43.1957 24.3036 43.477 28.8762 42.0018L27.0339 36.2916C23.8515 37.3183 20.2159 37.1828 16.7258 36.1826L15.0727 41.9503ZM28.8757 42.0019C33.1023 40.6391 36.7154 37.8772 39.3142 34.4909L34.5544 30.8379C32.6072 33.3752 29.9689 35.3452 27.0344 36.2915L28.8757 42.0019ZM39.3142 34.491C43.746 28.7167 45.3081 20.9368 43.4332 13.9225L37.6367 15.4719C39.0277 20.676 37.857 26.535 34.5545 30.8378L39.3142 34.491ZM43.4331 13.9224C42.4867 10.3818 40.6846 7.11251 38.2929 4.38525L33.7819 8.34133C35.5998 10.4143 36.9411 12.8698 37.6367 15.4719L43.4331 13.9224ZM38.2936 4.38609C36.0953 1.87753 32.9268 -0.832544 29.2357 -2.02516L27.391 3.68421C29.6343 4.40905 31.9398 6.23928 33.7811 8.34049L38.2936 4.38609ZM29.243 -2.02278C29.128 -2.06027 29.0193 -2.09833 28.8553 -2.15473L26.9042 3.51916C27.0292 3.56217 27.2084 3.62471 27.3837 3.68184L29.243 -2.02278ZM28.8516 -2.15601C25.5944 -3.27131 22.5067 -3.01144 19.9499 -2.87204L20.2765 3.11906C23.1014 2.96504 24.957 2.85244 26.9079 3.52044L28.8516 -2.15601Z" fill="#E3000B" mask="url(#path-1-inside-1_1815_217)"/>
<path d="M21.2315 25.5568C20.457 25.2401 19.8732 25.7046 19.6365 26.3305C19.6106 26.3305 19.5847 26.3268 19.5601 26.328C18.6872 26.3533 17.7739 27.0426 17.3485 27.7547C16.3102 29.4882 17.5435 31.8272 19.3285 32.5085C21.2119 33.2292 23.452 32.0921 24.0648 30.2323C24.7907 28.0208 23.1679 26.3446 21.2315 25.5568Z" fill="#E3000B"/>
<path d="M22.7474 21.5426C23.2449 19.028 22.98 16.3384 22.7797 13.7956C22.5902 11.4372 22.6211 8.70923 21.5351 6.55475C21.2013 5.89581 20.0126 5.89581 19.6817 6.55475C18.5949 8.7025 18.6229 11.4439 18.437 13.7956C18.2353 16.3425 17.9704 19.0253 18.4693 21.5426C18.8626 23.5261 22.3526 23.5261 22.7474 21.5426Z" fill="#E3000B"/>
</svg>
