<svg fill="none" height="82" viewBox="0 0 82 82" width="82" xmlns="http://www.w3.org/2000/svg"><g fill="#cf000c"><path d="m45.3649 45.8311c-2.1712-1.0514-.7922-2.3016.3185-2.3788 1.3859.3273 2.3094.5499 3.5329.2004 1.4092-.1786 2.1233.911 3.6637 1.2877 1.7876.4435 3.7465.8409 5.4214 1.5963 2.2992 1.3435 5.0818 2.9061 7.3467 4.3045 2.8564 1.8388 5.6253 3.5492 8.4053 5.539 4.7458 3.0674 5.8521 5.2426 6.4226 8.242.3971 1.3749-.3341 2.4609-1.3916 3.0072-1.225.0948-1.767.2606-1.0415 1.669.1325.599-2.2126 1.2433-2.9165 1.04-2.4308-.7203-4.7629-1.7962-6.9236-3.194-1.7629-1.094-3.4058-2.3896-4.896-3.8609-1.3372-1.3481-3.1186-2.2413-4.708-3.3166-1.6598-1.1453-3.7195-2.1698-4.4068-3.845-.7935-1.2195-2.7962-1.9295-3.1674-3.283-.7425-.9126-2.4502-1.5298-2.8151-3.0076-1.2114-1.2755-2.1978-1.5916-2.4506-3.0206.0313-.3358.0387-.799-.3866-1.003z"/><path d="m15.47 34.9576c-.0244.9977-.154 1.8644-.122 2.747.1858.212.3281.4619.4173.7327.1398.6488.3118 1.2782.498 1.8788-.6271-2.1941-.8641-4.4756-.6986-6.7257-.0722.1955-.1574.3847-.2551.5664.0667.2643.1203.5317.1604.8008z"/><path d="m21.139 22.553c-.458.2708-.9343.5093-1.4256.7138-.0579.2291-.1425.4491-.252.6552-.1101.2278-.2694.4431-.3963.7093s-.3061.5249-.4633.7882c-.0841.1349-.1873.2602-.2656.4028l-.2401.4418c-.1668.2959-.3417.5933-.5215.8873l-.4332.9626-.2186.4818c-.0624.157-.1067.3194-.1619.4708-.1025.3128-.1942.6235-.2751.9322l.0243-.0047.3574-1.0755c.0269-.0887.0537-.1774.0886-.2677l.1167-.2554.2447-.5351c.3026-.6762.6474-1.3299 1.0324-1.9572.1874-.3174.4196-.6039.6431-.9107l.322-.4532c.1116-.1446.2391-.2746.3566-.4115l.7163-.828z"/><path d="m24.5874 19.9888c.0509.0767.1932.14.1315.2707.5445-.2787 1.1098-.5133 1.6911-.7018-.6202.089-1.2298.2332-1.8226.4311z"/><path d="m29.6784 18.8162.6657-.0485c.2212-.0311.4457-.04.6704-.0268-.2019-.0637-.3981-.1482-.5857-.2522-.2406.1302-.4915.2397-.7504.3275z"/><path d="m39.4548 20.3398-.7721-.4364c-.2749-.1288-.5605-.2289-.8468-.3511-.062-.0501-.2097-.0261-.3838-.0059.3339.1263.6741.2425 1.0183.358.3443.1154.6568.299.9844.4354z"/><path d="m32.5102 18.1216c-.9977-.0734-1.8654-.2592-2.7495-.2634-.2016.1978-.4433.3452-.7085.4321-.6457.1272-1.2623.2898-1.8536.4702 2.1631-.5975 4.4306-.7571 6.6857-.4705-.2004-.0884-.3948-.1922-.5816-.3108-.2605.0645-.5252.1121-.7925.1424z"/><path d="m57.3851 26.1301c-.1186-.307-.2341-.6191-.3527-.9261l-.1703-.4643c-.0629-.1506-.1379-.2989-.2089-.448-.284-.5963-.5701-1.1834-.8532-1.7755-.1395-.2918-.2941-.5763-.463-.8521l-.4977-.8367-.5058-.8352c-.1625-.2766-.3659-.5277-.5472-.7744-.3812-.5204-.7584-1.0416-1.135-1.541l-1.2609-1.442c-.2159-.2312-.4152-.4831-.6455-.7027l-.7174-.6845c-.4667-.4293-.9096-.8851-1.4044-1.2693-.4947-.3843-1.0147-.7681-1.4963-1.1505l-.3745-.2799-.3982-.2533-.7976-.4932c-1.0599-.6604-2.1625-1.2408-3.2986-1.73633-.5721-.23746-1.1592-.42806-1.7459-.63632l-.8731-.28075-.8925-.21545-1.7123-.31292-1.728-.17358-.8626-.08046-.8486-.01718-1.6944-.0217c-.9639.05337-1.9214.13627-2.8694.26135-.0071-.02566-.0192-.04977-.0355-.07085-.0163-.02107-.0364-.03866-.0592-.05168-.3193-.25967-1.6104-.3677-2.6071-.17609-1.2441.27591-2.468.62867-3.6651 1.05642l-.884.31946-.4419.15973c-.1475.05913-.2831.13358-.4255.19614l-1.6851.80331c-.2792.1319-.5492.2822-.8086.4501l-.7899.4773-.793.4823c-.2612.1558-.495.3591-.7273.5313l-1.4452 1.1046-1.3721 1.2445c-.2188.2136-.4505.4077-.6534.6358l-.6049.6837c-.3919.4623-.8138.9041-1.1689 1.3989-.3552.4949-.7023.9882-1.04745 1.49l-.2582.3795-.22423.3993-.44442.7979c-.58934 1.0723-1.09846 2.1918-1.52314 3.3495-.2053.5804-.36355 1.1825-.54081 1.7752l-.25934.8898-.16991.9123-.21731 1.7482-.09267 1.777-.04025.8873.02052.8757.05319 1.7489c.17404 2.3275.61692 4.6372 1.31916 6.88.14752.6936.34124 1.3779.57975 2.0479.25183.6993.48402 1.4243.78292 2.0881.29891.6638.62089 1.2792.90084 1.8191.12502.2513.26884.4928.43005.7222.1396.2106.2676.3883.3847.5549 2.367 2.9852 5.2711 5.4748 8.5399 7.3207 3.2688 1.846 6.8355 3.0106 10.488 3.4248 2.7983.7169 5.6548 1.0919 8.5093 1.1173-.7753-.1078-1.5538-.1725-2.3322-.1938-.858-.0593-1.7773-.1861-2.6801-.2764-.8497-.1753-1.6867-.331-2.453-.5488.3428.0221.6834.0534 1.0275.062 1.5951.0976 3.1886.0256 4.7551-.2149-.2263.0617-.4453.1465-.6536.2532-.38.1918-.4193.3577-.2389.4858.3517.2534 1.6085.3592 2.6233.1729 1.2435-.2723 2.4665-.6234 3.662-1.0514l.888-.3202.437-.1632c.1474-.0591.2839-.1294.4254-.1961l1.6851-.8034c.2785-.1323.5488-.2811.8095-.4459l.794-.478.7849-.4808c.2643-.1607.495-.359.7263-.5354l1.4453-1.1047 1.3437-1.2391c.2198-.2093.4505-.4076.6534-.6357l.6049-.6837c.3919-.4623.8147-.8998 1.1699-1.3947.3551-.4949.6966-1.0135 1.0465-1.4942l.2591-.3753.2242-.3993.4435-.8022c.5896-1.0694 1.0994-2.1862 1.525-3.3409.2053-.5805.3686-1.1792.5408-1.7752l.226-.8879.1699-.9123.2314-1.742.0926-1.7771.0443-.8881-.0205-.8756-.0532-1.749c-.0326-.3192-.0683-.6334-.0999-.9483.1168.127.2199.116.2979-.0089.2304-.3522.278-1.6456.0538-2.6975-.3011-1.2999-.6781-2.5831-1.1288-3.8424zm-.4657 13.8772c-.1317.3443-.2396.6986-.323 1.0605-.6558 2.6699-1.7395 5.1904-3.2073 7.4598-.7811 1.2269-1.675 2.3705-2.6701 3.416.2339-.2605.4578-.5278.6676-.8012l.9382-1.1436c-.4646.5731-.9276 1.1151-1.3862 1.6387-.2279.2591-.4716.5028-.7299.7296l-.7554.6906c-.5056.4641-1.0439.8895-1.6108 1.2728l-.871.6073c-.3061.182-.6312.3544-.9594.5319.5291-.5108 1.6597-1.2999 2.1667-1.8723.5069-.5724 1.0993-1.0645 1.6122-1.6293 2.0701-2.0406 3.8018-4.4186 5.1319-7.047.9841-1.9461 1.7283-4.0195 2.2161-6.1742-.0428.4172-.1343.8438-.2196 1.2604zm-7.3795 13.1173.8839-.8736.226-.2193c-.3726.3648-.7426.7291-1.1099 1.0929zm-40.81059-21.3219c.02607-.4932.07738-.9868.1368-1.482-.03634.4467-.06862.8927-.09435 1.3111-.01311.0553-.02529.1148-.04245.1709zm34.62829-18.1973c.4057.2298.8029.4789 1.193.7338l.0358.0283c.3193.2596.6274.5259.9203.7994.5395.5296.3251.496-.0198.3117l.457.4047c.4985.344.997.6879 1.4662 1.0903.4691.4024.9012.8471 1.3289 1.3102.4373.5449.8357 1.1236 1.2506 1.6815.2036.2829.3914.5772.5624.8814l.5288.9011c.152.2224.2895.4546.4114.695-.0622-.1214-.1319-.2387-.2086-.3513 1.641 3.1013 2.5811 6.5209 2.7467 9.9919.0308.1392.0261.2897.0407.432l-.0243.0047-.0164-.4367c-.2377-2.4439-.8512-4.85-1.8174-7.1272-.9614-2.2593-2.2268-4.3785-3.7573-6.2924.3816.2824.7357.6034 1.0567.9579l-.8115-1.0139c-.2909-.3223-.5952-.6288-.8934-.9453l-.4417-.4693c-.1441-.1614-.299-.3124-.4632-.4519l-.9586-.858c-.2215-.1421-.4224-.3058-.6564-.428l-.6989-.3714c.1795.0667.5836.2705.8862.397-1.7798-1.4499-3.7348-2.6474-5.8095-3.5582 1.2724.4476 2.5081 1.0107 3.6923 1.6827zm3.9349 33.1784c-1.6866 2.0075-3.7788 3.6084-6.1413 4.699l-1.052.4573c-.0932.0179-.1721.0815-.2616.1163l-.273.0832-.537.1692c-.2999.1149-.596.2465-.9117.3468-.3158.1003-.6508.1515-.9821.2196s-.5618.4203-.7329.5059c-.4609-.0213-.9178-.0434-1.384-.0506l-.3562-.0063-.3627-.0358c-.2468-.0273-.4968-.0496-.7579-.0654-.1555.0607-.4943.0951-.7982.2107-.1982-.122-.4041-.2294-.616-.3214l-.9676-.0779-.9664-.1485c-.3147-.067-.6363-.0887-.9454-.1876l-.9037-.2661.0056.0253-.4774-.1149c-.1617-.0437-.3218-.1185-.463-.1837l-1.0052-.4005c-.3418-.1322-.659-.3439-.9911-.5087-.3297-.1606-.6514-.3395-.9634-.5361-.5228-.3393-1.0596-.6275-1.5235-.9298l-.6773-.5602c-.2105-.1729-.4088-.3612-.5935-.5632-.008.1239-.0474.2422-.1142.343.1865.0807.3631.1857.5253.3124-.319-.163-.6216-.2895-.8771-.3943-.1221-.2597-.2584-.5125-.4082-.7572-.0785-.1256-.1601-.2463-.2514-.3914-.0912-.1452-.1597-.264-.2432-.3931l-.7355-.8042c-.1276-.1376-.2438-.2859-.3473-.4434l-.3298-.4599-.3289-.4557c-.1181-.1473-.2224-.3054-.3115-.4723l-.5668-.9774c-.1371-.066-.177.078-.2406.1343-.1402-.3114-.2513-.6346-.3318-.9654l-.2923-.9773c-.2201-.5558-.3872-1.1394-.5889-1.7076-.2017-.5681-.2613-1.1812-.3929-1.776-.1304-.2652-.2123-.5397-.3608-.8102.097-.1951.1586-.408.1819-.6287-.0335-.2223-.0547-.4458-.0636-.6695.001-.2245.0039-.4406-.0009-.6727-.0902-1.889.0615-3.7711.4513-5.5975-.0429-.194-.0784-.3543-.0487-.4304.224-.6104.3994-1.2114.6545-1.7575.1903-.4764.3766-.952.5547-1.426.1782-.474.4255-.8646.6154-1.2662.19-.4015.4301-.7292.6116-1.0543.1498-.288.3187-.5644.5055-.8273.1597-.2901.0563-.3758-.1937-.341l-.2571.0407.0702-.1982c.2477-.1124.4872-.2421.7166-.3885.1185-.0755.236-.1553.3688-.2424s.25-.1492.3706-.234l.7666-.6971c.1265-.1255.264-.2388.4109-.3385l.4318-.3205.4277-.3197c.1376-.1155.2865-.2163.4445-.3009l.9224-.5468c.0621-.1395-.0834-.1863-.1408-.2544.2973-.1314.6074-.2323.9261-.3012l.9132-.2635c.5336-.2037 1.0884-.35 1.6307-.5334.5424-.1834 1.1385-.2189 1.7058-.3279.2515-.1231.5183-.1964.7702-.3372.1939.1077.4029.1806.6179.2155.2141-.0251.4301-.0373.6467-.0364l.6575.0319c1.8287-.0118 3.6614.2274 5.4501.7115.1823-.035.3362-.0646.4154-.0315.602.2581 1.1978.469 1.7337.753l1.4077.6354c.4306.2471.8534.478 1.2513.6918s.7262.4761 1.0496.6778c.2865.1685.5633.3547.8288.5576.2844.1784.363.0753.3182-.1843-.0376-.1696-.0886-.3364-.1525-.4985-.0794-.187-.1986-.4016-.3101-.6001-.2326-.4214-.5079-.8831-.6982-1.2467l-.0529-.0866c.146.1227.283.2567.4096.4006.0056-.1247.0433-.2443.1092-.3464-.1878-.0778-.3648-.1831-.5253-.3124.2887.145.5839.2747.8843.3885.1189.2628.2557.5173.4092.7614.0756.1263.1576.2485.2457.3661.0826.1249.1557.2648.2392.3939l.7448.8463c.1284.137.2447.2854.3473.4434l.3289.4558.333.4549c.1153.1487.2181.307.3074.4731l.5668.9773c.138.0702.177-.078.2415-.13.1398.3116.2523.6344.3359.9646.0728.329.1901.6495.2872.9739.2211.56.3882 1.1436.589 1.7075.2007.564.2622 1.1855.3928 1.7761.1305.2651.2133.5439.3609.8102-.096.1955-.1576.4082-.1819.6287.034.2222.0552.4458.0636.6694-.0011.2245.0001.4398.0019.677.084 1.8894-.0735 3.771-.4686 5.5963.042.1899.0775.3502.0488.4304-.224.6105-.3985 1.2157-.6546 1.7575l-.5303 1.4214c-.224.4389-.4305.8612-.6164 1.262-.1859.4007-.4341.7299-.6115 1.0543-.1509.2872-.318.5646-.5006.8307-.1596.2902-.0612.3724.1888.3375.1628-.0314.3224-.0767.4768-.1356.1821-.0746.3809-.1876.5686-.294.3987-.2218.8345-.4859 1.1789-.6665.3444-.1805.5468-.3162.5891-.2012.0827.5697.0028 1.1446-.2297 1.6538-.116.2972-.248.5868-.3953.8677-.1132.1757-.2416.3587-.3742.5425-.0721-.0447-.1533-.0699-.2358-.0734zm-37.1288-10.2344c-.0453-.3196-.0829-.6422-.1127-.9678l.0327.0333.0447.374c.0118.1868.0195.3745.0353.5605zm44.7319 3.4556c-.0168.0384-.0408.0826-.0568.1252.0831-.4074.1721-.8071.2661-1.2034l.1657-.6828.1243-.6792c.085-.4561.1855-.88.305-1.2944-.061 1.1625-.2131 2.3139-.4548 3.4431-.0196-.0886-.0392-.1772-.0579-.2616-.1231.1678-.2213.354-.2916.5531zm.4808-11.193c.0675.4576.1259.9126.1762 1.3691.0606.4505.0832.9038.0673 1.3548-.0457-.2067-.0933-.4218-.1371-.6201-.0439-.1983-.0934-.4219-.1665-.6189.4722 3.8431.0951 7.7084-1.1026 11.3037l-.0474.1103c-.1.2609-.2228.5112-.3668.7478.0164-.2181.06-.432.1296-.6363.0822-.2173.1763-.4293.282-.6347l-.4139.8404c.0112-.0637.0287-.1375.044-.202.1873-.6051.3413-1.222.4614-1.8479-.0066-.0295.0153-.0645.024-.1013l.1449-.8151.1534-.8344c.0238-.1409.0565-.2791.0722-.4184l.0379-.4207c.0485-.5635.0908-1.117.1324-1.6352.0256-.8564-.0234-1.7169-.1463-2.571-.0359-.2724-.161-.5279-.3544-.7236-.0905-1.8431-.3555-3.6806-.7911-5.4861.0485.105.0859.2166.1304.3224.6805 2.0102 1.1138 4.0906 1.2892 6.1908.0216.4796.0342.9566.0225 1.4382.0145-.3546.024-.7127.0384-1.0673.0672.3037.1101.6122.1773.9159.012-.4421.016-.8827.0118-1.3217-.0178-.4412-.0631-.882-.1357-1.3197-.0609-.4281-.1364-.8841-.2092-1.3275-.0112-.0507-.0233-.1055-.0345-.1561l-.1995-1.2459c-.0697-.6886-.1749-1.3746-.3152-2.0548-.1144-.6509-.1908-1.2827-.2801-1.7625.5403 1.774.8928 3.272 1.2253 4.6989-.1692-1.3545-.4437-2.6975-.8207-4.0159.2839.6535.5404 1.3167.7767 1.9837.0476.1861.0823.375.1039.565zm-45.0353 13.5614c.0066.0296.014.0633.0206.0929-.0196-.0886-.0383-.173-.0579-.2616zm23.4795-33.95822c.3106-.02777.6248-.01732.9362.03113.5557.08998 1.1046.23178 1.6397.42365.1572.05495.312.11765.464.18788-1.1636-.22342-2.3369-.36665-3.5121-.42873-.1873-.02557-.3805-.0588-.5709-.07937.3431-.07046.6917-.11543 1.0431-.13456zm-27.31141 24.08262c-.04271-.3205-.04603-.6435-.00989-.9613.0635-.5712.17669-1.1331.3382-1.6791.14639-.4864.32355-.9612.53038-1.4213.19134-.4525.34305-.9231.4534-1.4066.65823-2.669 1.74176-5.1891 3.20742-7.4598.7814-1.228 1.6767-2.372 2.674-3.4168-.2379.2613-.4577.5278-.6675.8012l-.9423 1.1443c.4646-.573.9276-1.1151 1.3863-1.6386.2278-.2592.4715-.5028.7298-.7297l.7554-.6905c.28-.2639.5753-.5101.8844-.7374-.9298 1.0135-1.7806 2.1018-2.5449 3.2556-1.4879 1.6942-2.7619 3.5784-3.7938 5.6111-1.62704 3.198-2.58976 6.7337-2.82932 10.391-.08079-.3506-.13812-.7055-.17159-1.0621zm8.36991-17.5386c-.295.2898-.5849.583-.8808.8686-.0739.067-.1428.1374-.2108.2121.3642-.3779.7321-.7389 1.1037-1.083zm-4.6028 28.3239c-.1728-.4374-.35371-.8732-.51029-1.3137l-.37621-1.357-.17954-.6779c-.06826-.2225-.11852-.4497-.15025-.6792-.06744-.4576-.12677-.9168-.17614-1.3691-.0618-.4507-.08301-.9045-.06332-1.3556.04572.2067.09332.4218.13624.6159.02333.1055.04759.2151.07092.3206.0488.3161.11474.6333.17663.9512.35958 2.3742 1.04436 4.698 2.03346 6.901l-.1234-.1567-.2952-.5897c-.2186-.4154-.363-.8582-.5429-1.2898zm19.2699 14.8374c-.3019-.0475-.5877-.0981-.8784-.1522-.1689-.0371-.3354-.0875-.498-.1505-.1109-.0622-.2249-.1195-.343-.176l-.8765-.4296c-.2582-.1132-.5065-.2511-.7415-.4116.0946.0105.1888.0276.2817.0514l.3742.126c.2055.0959.4058.2043.5998.3245l-.4808-.2638c1.1188.3491 2.2574.6138 3.4066.792.1377.0307.2733.0706.4101.0971l.4138.0568 1.3578.1612c-.6972.0372-1.399.0534-2.1033.0393l1.0078.0877c-.644.0068-1.2899-.0442-1.9303-.1523zm2.5358.2162c-.1881.0302-.3823.0148-.5675-.0448zm25.8412-22.7664c.0397.3223.042.6467.0068.9663-.063.57-.1765 1.1306-.3392 1.6748-.0536.208-.12.4117-.1987.61 0 0-.0094-.0422-.015-.0675.0016-.2887-.027-.5781-.0853-.8632.2288-1.111.3841-2.2399.4648-3.3791.0791.3496.1347.7033.1666 1.0587z"/><path d="m38.8092 19.4056.2529.1316.5049.2591c.6698.341 1.3191.7258 1.9439 1.1519.313.2124.6001.4606.9075.7049l.4538.3524c.1492.1208.2768.2589.4188.3855l.8346.776.7514.858c-.2819-.4837-.5338-.9846-.7539-1.4994-.2247-.0732-.4418-.1715-.6476-.2932-.2258-.1236-.4416-.2976-.7045-.4361s-.4983-.3438-.7817-.518c-.1346-.0928-.2638-.1999-.4065-.2911l-.4391-.2673c-.2944-.1853-.5865-.3797-.8836-.5776l-.9528-.4895-.476-.2427c-.152-.0763-.3155-.1284-.4647-.192-.3127-.1157-.6124-.2296-.9164-.325l.0056.0253 1.055.4171c.1231.0027.2134.0293.2984.0701z"/><path d="m47.4194 27.2326c-.063.0471-.1179.188-.2342.1199.2701.5594.5032 1.1367.6978 1.7274-.1059-.6262-.261-1.2441-.4636-1.8473z"/><path d="m48.7217 33.0126c.0341.2242.0502.4502.0482.6755.0482-.1526.0875-.2904.1381-.4131-.0053.4086-.0183.8187-.0487 1.2236.0723-.1966.1572-.3872.2542-.5705-.0704-.2546-.1261-.513-.1666-.7735l.0153-.0421s-.0063-.0291-.009-.0416c.0297-.9727.1512-1.8205.1189-2.6856-.1852-.2124-.3274-.4622-.4172-.7327-.1362-.6335-.3023-1.2605-.4979-1.8788.4791 1.6975.7292 3.4483.7427 5.1993-.1039-.2023-.1925-.4124-.2651-.6284z"/><path d="m45.8189 42.6577c.0842-.1348.1864-.2644.2647-.407.0783-.1425.1596-.2901.2401-.4418.1677-.2917.3426-.5891.5256-.8881l.4331-.9626.2146-.4809c.0673-.1537.1067-.3195.1619-.4708.1035-.3145.1999-.6232.2792-.933l-.0243.0046c-.1235.3579-.243.7151-.3584 1.0714-.0309.0895-.0568.1824-.0886.2676l-.1166.2555-.2323.5151c-.3012.6758-.6446 1.3293-1.0283 1.9564-.1924.3139-.4246.6004-.6441.9064l-.322.4532c-.1066.148-.2391.2746-.3556.4157l-.6889.8755-.7995.7384c.4581-.2707.9344-.5092 1.4257-.7137.0612-.2279.1457-.4475.252-.6552.1101-.2278.2693-.4431.3963-.7093.1269-.2662.2921-.531.4654-.7974z"/><path d="m39.7086 47.8284c-.5457.2793-1.1128.5129-1.6963.6985.6215-.0894 1.2326-.2339 1.8268-.4321-.0512-.0584-.1964-.1348-.1305-.2664z"/><path d="m33.4033 49.3267c.2036.0609.4006.147.5866.2564.2392-.1334.49-.2444.7494-.3317l-.6647.0528c-.2217.0296-.4464.0371-.6713.0225z"/><path d="m24.9668 47.7437.7894.4376c.2741.1246.5607.229.846.3469.0671.0536.2098.0261.3879.0051-.3371-.1213-.6782-.2418-1.0215-.353-.3434-.1112-.6732-.296-1.0018-.4366z"/></g></svg>