<svg fill="none" height="40" viewBox="0 0 39 40" width="39" xmlns="http://www.w3.org/2000/svg"><g fill="#cf000c"><path d="m21.9006 22.1648c-1.0301-.4694-.356-1.0656.1773-1.1123.6611.1392 1.1016.2342 1.6918.0594.6775-.0969 1.0086.4044 1.7432.5652.8525.1896 1.7876.356 2.5828.6921 1.0884.6043 2.4064 1.3062 3.4778 1.9364 1.3505.8299 2.6604 1.6008 3.9727 2.5019 2.2436 1.3846 2.7515 2.3883 2.9941 3.7814.1762.6373-.1856 1.1508-.6983 1.4157-.5883.056-.8499.1385-.5166.7883.0574.2781-1.0737.6011-1.409.5131-1.158-.3125-2.265-.7917-3.2865-1.4227-.8339-.4931-1.6082-1.0815-2.3075-1.7532-.6272-.6157-1.472-1.0151-2.223-1.5012-.7839-.5181-1.7608-.9759-2.073-1.7505-.3679-.561-1.3207-.8728-1.4847-1.5003-.3466-.4184-1.1589-.6898-1.3186-1.3754-.5676-.5831-1.0373-.721-1.1437-1.3849.0185-.1569.0268-.3729-.175-.464z"/><path d="m7.80308 16.7969c-.02262.4721-.09642.8834-.08971 1.3004.09057.0984.15903.2152.20073.3424.06299.3054.14232.6014.22898.8836-.29018-1.0314-.3846-2.1081-.27834-3.1739-.03813.0931-.08268.1835-.13334.2704.03054.1243.05447.2502.07168.3771z"/><path d="m10.5223 10.9351c-.2224.1307-.4533.2465-.691.3466-.03014.1074-.07298.2108-.12762.308-.05514.1073-.13375.2092-.19736.3346s-.15224.2478-.23032.3721c-.04176.0637-.09253.1232-.13153.1904l-.11969.2084c-.08305.1396-.17.28-.2593.4189l-.21766.4531-.1098.2268c-.03154.0738-.05447.15-.0825.2211-.0524.1469-.0996.2927-.1416.4374l.0117-.0024.18255-.5051c.01378-.0416.02757-.0832.04525-.1256l.05857-.1203.12292-.2519c.15205-.3183.32416-.6265.51528-.9228.09314-.1498.20746-.2857.31781-.4309l.15911-.2145c.05501-.0685.11748-.1304.17525-.1953l.35204-.3931z"/><path d="m12.0958 9.73075c.0233.03398.0899.06108.0594.12043.2601-.13047.5295-.24129.806-.33154-.2939.04591-.5833.11653-.8654.21111z"/><path d="m14.5003 9.17353.3154-.0283c.105-.01618.2113-.02238.3175-.01852-.0949-.02694-.1869-.06336-.2746-.10872-.1151.06128-.235.11329-.3583.15554z"/><path d="m19.1204 9.87619-.3634-.1945c-.1297-.05695-.2648-.10054-.3999-.15433-.029-.02258-.0997-.01006-.1828.00096.1578.05523.3187.10575.4815.15586.1629.05011.3099.13206.4646.19201z"/><path d="m15.842 8.82754c-.4704-.02342-.8784-.09852-1.2959-.09202-.0972.09061-.2128.15902-.3389.20052-.3062.06315-.599.14191-.8801.22844 1.0275-.28846 2.1-.38155 3.1622-.27447-.0937-.0377-.1845-.08244-.2716-.13383-.1236.03141-.2491.05524-.3757.07136z"/><path d="m27.8463 12.4349c-.0537-.142-.1058-.2864-.1595-.4284l-.0769-.2148c-.0286-.0696-.063-.1381-.0955-.2069-.13-.2753-.2611-.5463-.3906-.8196-.0639-.1348-.1351-.2659-.2132-.3929l-.23-.3853-.2338-.38453c-.0751-.1274-.17-.24255-.2543-.3558-.1774-.23898-.3529-.47837-.5282-.70757l-.5896-.66021c-.1011-.10571-.1941-.22126-.3022-.32145l-.3368-.31224c-.2193-.19565-.427-.4039-.6602-.57831-.2332-.1744-.4785-.34835-.7054-.522l-.1766-.12688-.1883-.11427-.3773-.22226c-.5013-.29775-1.0238-.55774-1.5634-.77782-.2718-.10521-.5513-.18843-.8304-.27988l-.4157-.12249-.4256-.09186-.8176-.1294-.8266-.06428-.4127-.02921-.4067.00017-.812.0062c-.4627.03417-.9225.08205-1.3783.14951-.0032-.0119-.0087-.02302-.0163-.03269s-.0171-.01768-.0279-.02353c-.1504-.118-.7682-.15593-1.248-.05699-.5993.14064-1.1896.31691-1.7679.52788l-.4271.15748-.2135.07873c-.0713.02899-.1371.06501-.206.09555l-.81614.3908c-.13521.06418-.26624.13688-.39229.21766l-.38361.23016-.38516.23252c-.12683.07514-.24103.17218-.35414.2547l-.70426.52898-.67062.59349c-.10713.1017-.22018.19442-.31985.30275l-.29703.32457c-.19267.21936-.39946.42939-.57484.66355-.17538.23417-.34686.46753-.51753.70481l-.12771.17943-.11162.18836-.2213.37627c-.29361.5057-.54925 1.0326-.76481 1.5764-.10441.2726-.1865.5549-.2776.8329l-.13353.4175-.09088.4269-.12225.8173-.06279.8294-.02847.4141.00079.4081.00742.815c.05938 1.0835.24782 2.1562.5613 3.1951.06355.322.14935.6392.25676.9493.1135.3236.21732.6594.35375.9661.13644.3066.28444.5904.41306.8395.05734.1159.12379.2271.19872.3325.06471.0969.12424.1785.17866.2551 1.10387 1.3691 2.4704 2.5019 4.01837 3.3311 1.548.8292 3.2458 1.3378 4.9925 1.4957 1.3341.3074 2.6996.4547 4.0678.439-.3706-.0428-.7431-.0654-1.1161-.0679-.4106-.0194-.85-.0696-1.2819-.103-.4056-.0736-.8052-.1381-1.1703-.2322.1641.0069.3271.0182.4919.0189.7637.0302 1.5284-.0187 2.2818-.146-.1091.031-.2149.0726-.3159.1244-.1842.0931-.2047.1708-.1196.2288.166.1148.7674.152 1.2558.0554.599-.139 1.1889-.3145 1.7664-.5256l.4291-.1578.2111-.0803c.0713-.029.1375-.0631.206-.0956l.8162-.3908c.1348-.0643.2659-.1364.3926-.2157l.3856-.2305.3813-.2318c.1283-.0775.241-.1721.3537-.2566l.7043-.529.6569-.5907c.1076-.0997.2202-.1944.3199-.3027l.297-.3246c.1927-.2194.3999-.4274.5753-.6616.1753-.2342.3444-.4793.5171-.7068l.1281-.1774.1116-.1884.2209-.3783c.2937-.5043.5496-1.0299.7656-1.5724.1044-.2726.1889-.5534.2776-.8329l.1175-.4162.0909-.427.1289-.8145.0628-.8294.0304-.4146-.0007-.408-.0075-.815c-.0123-.1485-.0262-.2947-.0381-.4412.0547.0581.1043.052.1429-.007.1142-.1665.1503-.77.0537-1.2583-.1309-.6032-.2984-1.1978-.5014-1.7807zm-.3667 6.4749c-.0667.1618-.1221.3281-.1658.4976-.342 1.2512-.8876 2.4369-1.6147 3.5092-.3871.5795-.8275 1.1213-1.3153 1.6184.1148-.1237.2249-.2505.3283-.38l.4616-.5422c-.2286.2717-.4562.5288-.6815.7774-.1119.123-.2313.239-.3574.3472l-.3693.3293c-.2472.2213-.5096.4248-.7854.609l-.4238.2915c-.1486.0878-.3063.1713-.4654.2572.2589-.2432.8091-.622 1.058-.8938.249-.2718.538-.507.7897-.7752 1.0135-.9714 1.8683-2.0969 2.5331-3.3352.4919-.9169.8701-1.8908 1.1262-2.9002-.0248.195-.0731.3948-.1183.5898zm-3.6733 6.1872.4328-.4158.1106-.1045c-.1824.1737-.3635.3472-.5434.5203zm-19.3441-9.5484c.01759-.2302.04729-.4608.0809-.6923-.02204.2087-.04213.4169-.05878.6122-.00686.026-.01331.0538-.02212.0801zm16.7888-8.81833c.1921.10327.3799.21558.5643.33065l.0169.01285c.1504.118.2953.23916.4329.36388.2532.24173.1507.22815-.0127.14551l.2149.1843c.2354.15558.4709.31115.6916.49425.2208.18309.4233.38628.6236.59809.204.24983.389.51583.5821.77198.0947.12994.1817.26536.2605.40552l.2442.4151c.0706.1022.1341.2091.1901.32-.0286-.0559-.0608-.11-.0964-.1617.7546 1.4302 1.1699 3.0156 1.2135 4.6324.0133.0646.0095.1348.015.201l-.0117.0024-.0033-.2034c-.0887-1.1373-.358-2.2532-.7976-3.3057-.4376-1.0442-1.0223-2.02006-1.7363-2.89771.1801.128.3465.27426.4967.43646l-.3785-.46491c-.1361-.14747-.2789-.28746-.4185-.43217l-.2069-.21453c-.0675-.07389-.1401-.14282-.2174-.20624l-.4507-.39084c-.1047-.06414-.1994-.13852-.3103-.19321l-.3312-.16645c.0854.02935.277.12047.4208.17657-.8383-.6589-1.7631-1.19839-2.7483-1.6031.6053.19643 1.1919.44711 1.7527.749zm1.5434 15.43193c-.8292.9523-1.8488 1.7189-2.9927 2.2501l-.509.2234c-.0449.0093-.0833.0396-.1266.0567l-.1317.0415-.2592.0841c-.145.0564-.2883.1206-.4407.1704s-.3135.0769-.4731.1119c-.1595.0349-.2736.2013-.3565.2429-.2208-.0055-.4396-.0114-.663-.0102l-.1707.0005-.1735-.0132c-.118-.0104-.2376-.0184-.3627-.0232-.0752.0298-.2379.0491-.3848.1059-.0938-.055-.1914-.103-.292-.1439l-.463-.027-.4618-.0599c-.1502-.0283-.3041-.0353-.4513-.0784l-.4304-.1154.0024.0118-.2277-.049c-.0771-.0188-.1531-.0521-.2201-.0812l-.4777-.177c-.1625-.0584-.3124-.154-.4699-.2277-.1564-.0717-.3088-.152-.4563-.2407-.2471-.1531-.5015-.2823-.7208-.4188l-.3189-.2547c-.0991-.0786-.1922-.1645-.2787-.2569-.0051.0579-.0252.1134-.0583.161.0886.0359.1722.0832.2486.1406-.1512-.0729-.295-.129-.4164-.1754-.0558-.1199-.1186-.2364-.1879-.349-.0363-.0579-.07415-.1133-.1164-.1802-.04224-.0668-.07386-.1215-.11254-.1809l-.34427-.3678c-.05978-.063-.11395-.131-.16191-.2034l-.15337-.2113-.15297-.2093c-.05509-.0675-.10347-.1403-.14442-.2173l-.26162-.4502c-.06504-.0294-.08568.0381-.11675.0649-.06398-.1438-.11391-.2935-.1491-.4469l-.12999-.4529c-.09977-.257-.17385-.5275-.26468-.7905-.09083-.2629-.11306-.5482-.16999-.8243-.0598-.1224-.09621-.2496-.16462-.3743.0485-.0919.08024-.1917.09372-.2949-.01376-.1033-.02163-.2073-.02357-.3115.00281-.1047.00643-.2055.00648-.3137-.02371-.8799.06851-1.7589.27425-2.6142-.01858-.09-.03392-.1645-.01893-.2002.1137-.2868.204-.5687.33196-.8258.09615-.2239.19035-.4475.28065-.6702.09031-.2228.21289-.4073.30811-.5963.09521-.1891.2137-.3441.30408-.4975.07478-.1357.1586-.2662.25089-.3906.07955-.1368.03085-.1758-.08933-.1571l-.12369.0214.0357-.0931c.11995-.0547.23606-.1176.34757-.188.05757-.0364.11473-.0747.17929-.1166.06457-.0419.12139-.072.18011-.1127l.37474-.3324c.0619-.0597.129-.1139.2005-.1618l.2102-.1536.2084-.1531c.0672-.05523.1396-.10367.2162-.14465l.4478-.26382c.0312-.06563-.038-.08604-.0648-.11727.1438-.06412.2936-.11414.447-.14934l.4406-.13167c.2579-.10013.5254-.17366.7872-.26441.2619-.09075.5481-.11302.8212-.16933.1218-.05983.2505-.09657.3727-.16464.0918.04835.1913.08033.294.09451.1029-.01378.2065-.02152.3104-.02318l.3149.00854c.8767-.02315 1.7529.07074 2.6054.27922.0877-.0181.1618-.03338.1994-.01868.286.11454.5694.20715.8234.3344l.6683.28268c.2038.11105.4042.21467.5927.31052.1885.09582.3432.21502.4962.30592.1356.0758.2663.1599.3915.252.1345.0804.1733.0316.1545-.089-.0163-.0787-.039-.156-.068-.231-.0361-.0864-.0911-.18531-.1424-.27677-.1072-.19427-.2344-.40686-.3219-.57458l-.0245-.03986c.0688.05581.1331.11695.1923.18285.004-.05823.0233-.11434.0559-.16259-.0892-.03446-.173-.08183-.2486-.14061.1369.06483.2771.12245.4199.17265.0543.12139.1172.23871.1883.35105.035.05815.073.11435.114.16836.0383.05743.072.12193.1106.1813l.3483.3875c.0602.0626.1144.1307.162.2034l.1529.2093.1549.2089c.0538.0682.1015.141.1425.2176l.2616.4503c.0655.0314.0857-.0381.1172-.063.0638.1439.1144.2934.151.4465.0315.1527.0845.301.1277.4513.1001.259.1742.5295.2647.7905.0904.261.1134.5502.1699.8243.0598.1224.0966.2516.1647.3743-.0481.0921-.0798.1919-.0938.2949.0141.1033.0219.2074.0236.3116-.0028.1047-.0045.205-.0061.3156.0208.8801-.0742 1.759-.2824 2.6139.0182.0881.0335.1625.0189.2002-.1137.2867-.2036.5706-.332.8257l-.2689.6679c-.1119.2068-.2152.4057-.3085.5943-.0933.1887-.2157.3445-.3041.4975-.0753.1354-.1583.2663-.2485.3921-.0796.1369-.0332.1743.087.1556.0784-.0162.1553-.0389.23-.0678.088-.0366.1845-.0912.2756-.1426.1934-.1072.405-.2346.572-.3221s.2654-.1527.2845-.0995c.0338.2648-.0105.5337-.1272.7733-.0587.1397-.1249.276-.1984.4084-.0561.083-.1196.1696-.185.2566-.0342-.0202-.0728-.0312-.1124-.032zm-17.69361-4.4142c-.01844-.1486-.03312-.2986-.04404-.4502l.01534.0153.01757.1739c.00371.087.00547.1744.01113.261zm21.40861 1.1802c-.0084.0181-.0204.039-.0285.059.044-.1908.0908-.378.14-.5637l.0865-.3199.0666-.3179c.0455-.2135.098-.4121.1596-.6065-.0412.5426-.1261 1.081-.2536 1.6098-.0085-.0411-.017-.0823-.0251-.1214-.0607.0794-.1097.1672-.1455.2606zm.3462-5.2234c.0276.2127.0509.4242.0703.6366.0244.2095.0305.4206.0183.6311-.0198-.096-.0404-.1958-.0594-.2879-.0189-.092-.0403-.1957-.0734-.2869.1867 1.7873-.034 3.5932-.6454 5.2811l-.0238.0519c-.0507.1226-.1121.2405-.1836.3522.0101-.1019.0332-.202.0687-.2979.0416-.1022.089-.2019.1417-.2987l-.2071.3958c.0061-.0298.0152-.0643.0232-.0946.0961-.2839.1763-.5731.2403-.866-.0028-.0137.008-.0302.0126-.0475l.0779-.3815.0821-.3904c.0129-.066.03-.1307.0389-.1959l.0225-.1965c.0291-.2632.0551-.5217.0805-.7637.0211-.3995.0065-.8003-.0436-1.1973-.0144-.1267-.0718-.2446-.1624-.334-.0244-.8585-.1324-1.7127-.3226-2.5503.0222.0485.0389.1001.0592.149.3055.9308.4916 1.8966.5541 2.8741.0054.2235.0065.4457-.0041.6704.0106-.1655.0188-.3325.0294-.498.0291.141.0465.2844.0755.4253.0104-.2062.0168-.4117.0193-.6163-.0039-.2056-.0211-.4107-.0513-.614-.0248-.1991-.0563-.411-.0866-.617-.0049-.0235-.0101-.049-.015-.0725l-.0827-.5789c-.0263-.3205-.0697-.6393-.1299-.9551-.0481-.3024-.0782-.5962-.116-.8191.2406.822.3941 1.517.5388 2.1792-.0671-.63-.1848-1.2535-.352-1.8646.1294.302.2455.6087.3519.9174.0209.0864.0356.1741.0439.2625zm-21.72995 6.7571c.00283.0137.00606.0293.00889.043-.00848-.0411-.01656-.0802-.02504-.1214zm11.60695-16.05973c.1492-.01594.2997-.0141.4485.0055.2655.03659.5271.09742.7817.18173.0748.0241.1484.05185.2205.08313-.5555-.09296-1.1165-.14844-1.6793-.16607-.0895-.01011-.1818-.02374-.2728-.0315.1652-.03616.3327-.06048.5014-.07279zm-13.34191 11.49193c-.01716-.149-.01541-.2996.0052-.4481.03635-.2669.09641-.53.17948-.7861.07521-.2283.16505-.4513.26896-.6679.0964-.2128.174-.4337.23189-.6602.34314-1.2508.88863-2.4362 1.61472-3.50912.3873-.58008.82834-1.1221 1.31725-1.61886-.11675.12409-.22488.2505-.32831.38001l-.46354.54262c.22864-.27168.45621-.52886.68149-.7774.11191-.12302.23128-.23899.35744-.34724l.36927-.32926c.13694-.12574.28106-.24338.43162-.35233-.45625.48152-.87536.99716-1.25371 1.54248-.73078.80428-1.361 1.6951-1.87671 2.6528-.81305 1.5068-1.31112 3.1646-1.46376 4.8722-.03511-.1627-.05892-.3276-.07129-.4936zm4.19376-8.25819c-.14439.13796-.28642.27748-.43121.41348-.03611.03194-.06987.06544-.10323.1009.17848-.1797.35858-.35156.54029-.51559zm-2.4993 13.25069c-.07831-.2022-.16053-.4037-.23103-.6076l-.16634-.6291-.07906-.3144c-.03042-.103-.05217-.2085-.06501-.3152-.0276-.2127-.0513-.4262-.07029-.6367-.02497-.2095-.03044-.4209-.01635-.6314.01979.0959.04038.1958.05895.2859.0101.0489.02059.0998.03069.1488.02013.1469.04846.2941.07484.4418.14784 1.1035.45209 2.1804.9035 3.198l-.05751-.0718-.13542-.2721c-.10051-.1916-.16516-.3967-.24697-.5962zm9.08465 6.7325c-.1443-.0193-.2808-.0401-.4196-.0625-.0806-.0157-.1599-.0376-.2371-.0654-.0526-.028-.1067-.0536-.1627-.0787l-.4157-.1919c-.1226-.0503-.2402-.1122-.3513-.1848.0453.004.0903.0111.1346.0213l.1781.0551c.0975.0427.1924.0913.2841.1455l-.2277-.1184c.5327.152 1.0758.2645 1.6249.3365.0657.013.1303.0303.1956.0413l.1978.0225.6492.0621c-.3346.0241-.6712.0384-1.0087.0386l.4823.0312c-.3089.0093-.6179-.0082-.9238-.0524zm1.2134.0764c-.0905.0158-.1834.0105-.2716-.0155zm12.6235-10.8641c.0157.1499.0134.3011-.0068.4504-.036.2664-.0962.5289-.1799.7842-.0278.0975-.0618.1931-.1016.2863 0 0-.004-.0196-.0064-.0313.0037-.1346-.007-.2693-.032-.4017.1212-.5202.2073-1.048.2577-1.58.0343.1623.0574.3267.069.4921z"/><path d="m18.82 9.48328.1199.05896.2395.11596c.3176.15257.6251.32578.9203.5185.1479.0961.283.2091.4279.32l.214.16c.0702.0549.13.1181.1968.1758l.3923.3539.3514.3929c-.1302-.2229-.2458-.4541-.346-.692-.107-.032-.2101-.0758-.3075-.1305-.1071-.0555-.2088-.1346-.3334-.1967-.1246-.062-.2354-.1555-.3695-.234-.0636-.042-.1245-.0907-.1919-.1319l-.2079-.1204c-.1392-.0836-.2773-.17148-.4177-.26091l-.4519-.21912-.2257-.10859c-.0721-.03412-.15-.05684-.2209-.08509-.1488-.05097-.2913-.10118-.4361-.14277l.0024.01175.5016.18437c.059.00009.1021.01162.1424.02984z"/><path d="m22.8902 13.1466c-.0319.0229-.0607.0901-.118.059.1288.2619.2389.5325.3297.8098-.0462-.295-.117-.5856-.2117-.8688z"/><path d="m23.4791 15.8771c.0146.1056.0203.2124.017.319.0257-.0727.0467-.1383.0733-.1968-.0069.1933-.0178.3874-.0372.5792.0382-.0937.0826-.1847.133-.2724-.0325-.1197-.0576-.2413-.0751-.3642l.008-.02s-.0028-.0137-.004-.0196c.025-.4603.0946-.8625.0875-1.2714-.0902-.0986-.1586-.2153-.2007-.3423-.0613-.2982-.1378-.5931-.229-.8836.2215.798.3281 1.6236.3165 2.4516-.0498-.0946-.0918-.1931-.1258-.2945z"/><path d="m22.1196 20.4258c.0417-.0638.0921-.1252.1311-.1924s.0796-.1368.1197-.2084c.0835-.1376.1704-.278.2613-.4193l.2176-.4531.1079-.2264c.0339-.0723.0544-.15.0825-.2211.0529-.1477.1023-.2926.1435-.4378l-.0117.0024c-.0629.1681-.1239.3358-.1829.5031-.0158.042-.0292.0856-.0453.1257l-.0586.1202-.1167.2425c-.1514.3181-.3228.6262-.5133.9224-.0955.1483-.2098.2841-.3182.4289l-.1591.2145c-.0527.0701-.1175.1304-.1749.1973l-.3394.415-.391.3521c.2225-.1307.4533-.2465.691-.3466.0318-.1069.0745-.2101.1277-.308.0551-.1073.1337-.2093.1973-.3347.0636-.1253.1456-.2504.2315-.3763z"/><path d="m19.2435 22.876c-.2606.1307-.5308.241-.8084.3299.2946-.046.5847-.1168.8674-.2115-.0237-.0257-.0914-.0587-.059-.1184z"/><path d="m16.2615 23.5908c.0957.0257.188.0629.2749.1107.1146-.0628.2343-.1155.358-.1575l-.3151.0303c-.1052.0155-.2116.021-.3178.0165z"/><path d="m12.2756 22.8491.3717.1949c.1292.055.2647.1005.3994.1523.0314.0242.0997.0101.1848-.0013-.1594-.0529-.3207-.1054-.4831-.1535-.1624-.0482-.3177-.1305-.4728-.1924z"/></g></svg>