<svg width="14" height="17" viewBox="0 0 14 17" fill="none" xmlns="http://www.w3.org/2000/svg">
<path d="M12 11.2112C12 10.6799 12.4375 10.2112 13 10.2112C13.5312 10.2112 14 10.6799 14 11.2112V13.2112C14 14.8987 12.6562 16.2112 11 16.2112H3C1.3125 16.2112 0 14.8987 0 13.2112V11.2112C0 10.6799 0.4375 10.2112 1 10.2112C1.53125 10.2112 2 10.6799 2 11.2112V13.2112C2 13.7737 2.4375 14.2112 3 14.2112H11C11.5312 14.2112 12 13.7737 12 13.2112V11.2112ZM6.28125 0.523682C6.65625 0.117432 7.3125 0.117432 7.6875 0.523682L11.6875 4.52368C12.0938 4.89868 12.0938 5.55493 11.6875 5.92993C11.3125 6.33618 10.6562 6.33618 10.2812 5.92993L8 3.64868V10.2112C8 10.7737 7.53125 11.2112 7 11.2112C6.4375 11.2112 6 10.7737 6 10.2112V3.64868L3.6875 5.92993C3.3125 6.33618 2.65625 6.33618 2.28125 5.92993C1.875 5.55493 1.875 4.89868 2.28125 4.52368L6.28125 0.523682Z" fill="#F7A600"/>
</svg>
