<svg fill="none" height="82" viewBox="0 0 77 82" width="77" xmlns="http://www.w3.org/2000/svg"><path d="m9.96494 11.596-4.60744 4.5956 11.2507 13.6266-8.30408 6.6262-.83041 9.9394-4.98247.8283-2.49124 3.3132 2.49124 3.3131v9.1111h5.81288l4.98248-3.3131 5.8129 8.2828h9.1345l4.1521-4.1414 14.9474 9.9394 4.152.8283 4.9825 1.6565 6.6433 5.798 4.1521-2.4848c.2768-6.6263 1.993-21.3697 6.6433-27.3334 4.6503-5.9636 3.0448-14.633 1.6608-18.2222h-18.2691l-9.1345-17.3939c-2.768.8282-8.138 1.4909-7.4737-2.4849.6643-3.9757-3.0449-11.04376-4.9825-14.0808h-9.9649-15.77786z" fill="#f08d52"/></svg>