<svg fill="none" height="1708" viewBox="0 0 1084 1708" width="1084" xmlns="http://www.w3.org/2000/svg"><path d="m1082.11 1707.81c-68.08-3.7-156.913-12.08-206.762-14.79-49.848-2.7-300.848 17.11-360.57 14.79-59.722-2.33-108.423-22.18-163.896-22.18-113.466-7.39-224.41-11.09-337.8766 3.7-5.04295-103.51-15.12884-203.31-12.607365-306.82 0-103.5 0-203.31 5.042945-306.81 5.04292-77.629 5.04292-155.257 10.08592-232.885 7.5644-107.2-5.043-210.704 0-314.207 5.0429-99.807 10.0858-203.311 7.5644-303.118-2.5215-73.931-7.5644-147.8623-12.6074-221.79344 78.1656 3.69656 158.8531 11.08964 237.0181 7.39314 52.951-3.69658 103.38-11.0897 156.331-7.39314 55.473 3.69656 110.945 14.78624 166.417 11.08964 57.994 0 118.51-11.08964 176.503-11.08964 73.123-3.69656 143.724 7.39314 216.847 0 37.82 0 78.17 3.69656 115.99-3.69656 5.04 299.421 7.56 595.146-2.52 894.567-2.53 88.717-10.09 173.743-12.61 262.453-5.04 118.29-5.04 236.58 2.52 358.57 5.04 66.54 7.56 129.38 15.13 192.22z" fill="#fff"/></svg>