<svg fill="none" height="34" viewBox="0 0 34 34" width="34" xmlns="http://www.w3.org/2000/svg"><path clip-rule="evenodd" d="m9.99136.102c1.81284-.0834546 2.39084-.102 7.00864-.102s5.1958.0200909 7.0071.102c1.8113.081909 3.0476.370909 4.1294.789727 1.1329.428093 2.1606 1.097273 3.0106 1.962723.8654.84846 1.5331 1.87464 1.9596 3.009.4204 1.08182.7078 2.31819.7913 4.12637.0835 1.81588.102 2.39388.102 7.01018 0 4.6178-.0201 5.1958-.102 7.0086-.0819 1.8082-.3709 3.0446-.7913 4.1264-.4265 1.1345-1.0953 2.1624-1.9596 3.0121-.85.8654-1.8777 1.5331-3.0106 1.9596-1.0818.4204-2.3181.7078-4.1263.7913-1.8144.0835-2.3924.102-7.0102.102s-5.1958-.0201-7.00864-.102c-1.80818-.0819-3.04454-.3709-4.12636-.7913-1.13449-.4266-2.16237-1.0953-3.01209-1.9596-.86487-.849-1.53415-1.8764-1.961183-3.0106-.418818-1.0818-.706272-2.3181-.789727-4.1263-.0834546-1.8159-.102-2.3939-.102-7.0102 0-4.6178.0200909-5.1958.102-7.00709.081909-1.81127.370909-3.04764.789727-4.12946.427663-1.13423 1.097453-2.1616 1.962723-3.01054.84852-.86468 1.87537-1.53395 3.009-1.961183 1.08182-.418818 2.31819-.706272 4.12637-.789727zm13.87814 3.06c-1.7927-.08191-2.3305-.09891-6.8695-.09891s-5.0768.017-6.8695.09891c-1.65832.07573-2.55777.35236-3.15741.58573-.79282.30909-1.36.67536-1.955 1.27036-.56402.54872-.99808 1.21671-1.27036 1.955-.23337.59964-.51 1.49909-.58573 3.15741-.08191 1.7927-.09891 2.3305-.09891 6.8695s.017 5.0768.09891 6.8695c.07573 1.6583.35236 2.5578.58573 3.1574.272.7372.70627 1.4064 1.27036 1.955.54864.5641 1.21782.9984 1.955 1.2704.59964.2333 1.49909.51 3.15741.5857 1.7927.0819 2.329.0989 6.8695.0989s5.0768-.017 6.8695-.0989c1.6583-.0757 2.5578-.3524 3.1574-.5857.7928-.3091 1.36-.6754 1.955-1.2704.5641-.5486.9984-1.2178 1.2704-1.955.2333-.5996.51-1.4991.5857-3.1574.0819-1.7927.0989-2.3305.0989-6.8695s-.017-5.0768-.0989-6.8695c-.0757-1.65832-.3524-2.55777-.5857-3.15741-.3091-.79282-.6754-1.36-1.2704-1.955-.5487-.56398-1.2167-.99804-1.955-1.27036-.5996-.23337-1.4991-.51-3.1574-.58573zm-9.0409 19.0786c1.2127.5048 2.563.573 3.8203.1928s2.3436-1.1851 3.0734-2.2772 1.0578-2.4038.928-3.7109c-.1299-1.307-.7095-2.5285-1.6398-3.4558-.5931-.5927-1.3103-1.0465-2.0998-1.3288s-1.6319-.3861-2.4663-.3037c-.8344.0823-1.6403.3485-2.3594.7797-.7192.4311-1.3339 1.0163-1.7997 1.7134-.4659.6972-.7714 1.489-.8945 2.3184s-.0608 1.6758.1824 2.4782.6614 1.541 1.2243 2.1624c.5629.6215 1.2566 1.1104 2.0311 1.4315zm-4.0073-11.4193c.8114-.8114 1.7746-1.45507 2.8348-1.8942 1.0601-.43912 2.1964-.66514 3.3439-.66514s2.2838.22602 3.3439.66514c1.0602.43913 2.0234 1.0828 2.8348 1.8942s1.4551 1.7746 1.8942 2.8348c.4391 1.0601.6651 2.1964.6651 3.3439s-.226 2.2838-.6651 3.3439c-.4391 1.0602-1.0828 2.0234-1.8942 2.8348-1.6387 1.6387-3.8612 2.5593-6.1787 2.5593s-4.54-.9206-6.1787-2.5593c-1.63873-1.6387-2.55934-3.8612-2.55934-6.1787s.92061-4.54 2.55934-6.1787zm16.8547-1.25803c.2011-.18967.362-.41776.4734-.67077.1113-.253.1708-.52577.1748-.80215.004-.27639-.0474-.55078-.1514-.80692-.1039-.25614-.2581-.48882-.4536-.68428-.1954-.19545-.4281-.34971-.6843-.45362-.2561-.10392-.5305-.15539-.8069-.15136s-.5491.06348-.8021.17481c-.253.11134-.4811.27231-.6708.47338-.3689.39105-.5709.91046-.563 1.44799.0078.53752.2248 1.05083.605 1.43095.3801.38013.8934.5971 1.4309.605.5375.0078 1.057-.19414 1.448-.56303z" fill="#fff" fill-rule="evenodd"/></svg>