<svg fill="none" height="35" viewBox="0 0 43 35" width="43" xmlns="http://www.w3.org/2000/svg"><path d="m42.125.643854s-3.7837 2.234996-5.8875 2.868746c-1.1292-1.29841-2.63-2.2187-4.2993-2.636384-1.6693-.417686-3.4266-.31262-5.0343.300984-1.6077.61361-2.9881 1.70616-3.9546 3.12987-.9664 1.42372-1.4724 3.10991-1.4493 4.83053v1.875c-3.2951.0854-6.5601-.6453-9.5044-2.12728-2.94421-1.48194-5.47626-3.66902-7.3706-6.36647 0 0-7.5 16.87505 9.375 24.37505-3.8615 2.6211-8.46158 3.9354-13.125 3.75 16.875 9.375 37.5 0 37.5-21.56255 0-.52125-.0525-1.0425-.15-1.55625 1.9125-1.88625 3.9-6.881246 3.9-6.881246z" fill="#fff"/></svg>