<svg fill="none" height="33" viewBox="0 0 38 33" width="38" xmlns="http://www.w3.org/2000/svg"><path d="m6.21106 23.7962c.19125-.0088.45162-.1557.22461-.2816-.11569-.1134.23002-.3844-.0535-.6784-.18421-.2216-.41477-.3805-.63372-.5591-.3388-.1887-.7124-.3468-1.09758-.4748-.30918-.0426-.56433-.1561-.85802-.2209-.32206-.0877-.65379-.0837-.98928-.0985-.60061-.0265-1.4416.6051-1.52114.5929-.21805-.0076-.627873.1162-.404985.3873.070657.1088-.129122.2184-.103869.3227.007394.1324-.057978.1753-.09062.2884.038986.4361.626824.8265 1.119764.9539.18853-.0215.52286-.0462.78853-.0046.11805.0125.29305.0574.43242-.0032.15508.0655.3056.033.49481.0027.21694.0079.34914-.0289.50273-.059.10894-.0214.11976.1423.22644.1073.12998-.0738.25114-.0984.27922-.0784.19478.1292.43225.0146.71313-.0465.25266-.0655.62379.109.83168-.0895.035-.0349.08561-.0646.13938-.0607z" fill="#cf0014"/><path d="m6.17375 17.889c.19052-.0188.44287-.1791.2096-.293-.12145-.1072.20964-.3958-.08884-.6746-.19552-.2118-.43407-.3584-.66203-.5253-.3482-.1707-.72954-.3091-1.12088-.4169-.31098-.0264-.57171-.1264-.86838-.1758-.3262-.0707-.65726-.0494-.99307-.0467-.60117.0048-1.40805.6795-1.48812.6715-.218142.0038-.620952.1488-.384215.4079.07624.105-.117545.2248-.086884.3277.014296.1318-.048746.1781-.075438.2928.061693.4334.669107.7926 1.168027.894.18715-.0313.51973-.0734.78722-.0457.11853.0063.29564.0421.43166-.0258.15828.0573.3069.017.49428-.0231.21705-.0035.34715-.0471.49896-.0851.10767-.0271.12703.1358.23173.0953.12595-.0805.24566-.1114.27474-.0929.20127.1189.43243-.008.70974-.0837.24889-.0786.62863.0764.82587-.1328.03313-.0366.08212-.0689.13603-.0678z" fill="#cf0014"/><rect height="26" rx="6.5" stroke="#f4ad17" stroke-width="3" width="25" x="11.5" y="5.5"/><g fill="#cf0014"><path d="m31.0439 1.53512c-.006-.32849-.2455-.78217-.4725-.3988-.2.19303-.6483-.412989-1.1662.05928-.389.30537-.6726.69328-.9895 1.0603-.3399.57215-.629 1.20546-.8671 1.86007-.0879.52833-.2948.96058-.42 1.46128-.1659.54826-.1748 1.11751-.2164 1.69231-.0743 1.02902.969 2.50194.9442 2.6378-.0234.37364.1692 1.08264.645.71324.19-.116.3685.232.5486.1937.2275-.0064.298.1078.4905.1692.7498-.0459 1.4477-1.03562 1.6898-1.87513-.0279-.32444-.0542-.89913.0299-1.35288.0272-.20189.1126-.49994.0152-.74193.1198-.26289.0713-.52264.0285-.84868.0238-.37177-.0329-.6003-.0772-.86521-.0314-.1879.2498-.19863.195-.3833-.1204-.2265-.1569-.43552-.1212-.48273.231-.32795.0457-.7408-.0457-1.22556-.1002-.43655.217-1.06482-.1136-1.43095-.0581-.06172-.1067-.14996-.0973-.24201z"/><path d="m20.9108 1.3177c-.0231-.327731-.286-.768293-.4926-.3736-.1896.2032-.669-.378585-1.1615.12007-.3726.32527-.6356.72745-.9328 1.11051-.3096.58911-.5652 1.23665-.7689 1.90279-.0602.5322-.2442.97466-.3431 1.48121-.137.55618-.1163 1.12512-.1277 1.7013-.0205 1.03149 1.0982 2.44795 1.0805 2.58492-.0039.3744.2255 1.0723.6813.6786.1838-.1257.3801.2124.558.1648.2268-.0182.3032.0921.4987.1434.7464-.0851 1.3917-1.10981 1.5896-1.96081-.0447-.32254-.101-.89507-.0407-1.3526.0166-.20303.0863-.50514-.0236-.74171.1059-.26878.0439-.52565-.0159-.84901.0044-.3725-.0641-.59776-.1222-.86-.0412-.186.2391-.2114.1747-.39295-.132-.21992-.1794-.42674-.1462-.47575.2135-.33956.007-.74218-.1096-1.2215-.1229-.43073.1612-1.0747-.1882-1.42308-.0612-.05859-.1143-.14417-.1098-.23659z"/></g></svg>