<svg fill="none" height="182" viewBox="0 0 1440 182" width="1440" xmlns="http://www.w3.org/2000/svg"><path d="m114.616 3.01726h-140.616v168.69574c0 2.153 216.398 8.614 258.499 5.743 33.68-2.298 196.47-3.35 273.654-3.59 65.397.479 217.409 2.441 302.284 6.461 106.094 5.025 349.433-2.871 418.483-2.871h218.08v-168.69591c-62.59-2.63213-212.52-7.03497-311.55-3.58927-99.02 3.44569-222.568 2.63213-271.966 1.79463-18.244.23929-74.434-.21535-153.247-3.94819-78.813-3.732835-252.324-3.230338-329.228-2.512484-80.833.837494-246.879 2.512484-264.393 2.512484z" fill="#f08d52"/></svg>