<svg fill="none" height="40" viewBox="0 0 41 40" width="41" xmlns="http://www.w3.org/2000/svg"><g fill="#fff"><g clip-rule="evenodd" fill-rule="evenodd"><path d="m8.0043 35.2c-.98778-.2384-1.35218-.9677-.98568-2.4864.13986-.5796.40369-1.06.64064-1.3091.19901-.2092.15699-.7139.37908-.9588 2.17116-2.6261 5.90716-6.2711 7.88926-5.7928 2.5006 1.159 1.9548 1.9867 1.9783 2.9273-.0888 1.3615-.6315 2.6818-1.7392 3.4951-.4045.7987-.9345 1.3072-1.5237 1.6696-.2381.2481-.3331.5925-.571.8486-.7032.7393-1.7881 1.9753-2.8614 1.7163-.5508-.1329-.6778.3772-.9912.3016-.3688-.089-.52342-.3909-.87437-.4756-.37453-.0904-.3688.2987-1.34073.0642z"/><path d="m2.06536 19.0278c.00727.2909-.01913.9188.63762 1.5298-.13032.8825.50759 1.9683 1.20437 2.1365 2.25248.5435 4.82088.7141 6.28295.2829.2825-.0071.1951-.4189.4371-.4902 1.7912.4322 4.7555-.7232 5.0272-1.8492.2644-1.0955-1.8054-2.4913-2.3537-2.6236l-7.21775-1.8676c-1.42618-.3442-2.88738.2484-3.10232 1.139-.19006-.0198-.39309.1384-.56725.2994-.17417.161-.3555 1.152-.34822 1.443z"/><path d="m16.5583 16.8085c.0932-.2784.1772-.5929.1716-1.0242.3673.0031.8433-.1171.8631-.4125.1372-.2713.0384-.4015.0275-.6872.0186-.3082.1854-.7526-.1554-1.1276.1066-.4481-.0021-.9268-.2854-1.5205.1694-.4043-.0713-.75-.3276-.8684-.1968-.2022-.2854-.5225-.3838-.7662.0409-.3208.3171-.71399-.2483-.84853-.9975-2.56352-1.909-5.27091-3.9234-6.13184-1.3462-.03917-2.59182.61652-3.57078 3.11515-.43871 2.63849.61025 4.49862 2.20978 6.07072l-.0584.5899.7562.0651c-.1807.4544.1314.3955.3477.4363l-.0896.5279c.3745.0168.5693.3138.789.5721.0885-.0732.1406-.2201.2974-.1547.6644.2871 1.1718.7604 1.6836 1.2285 1.0971.2624 1.4121.576 1.8968.936z"/></g><path d="m24.23 15.1312c-.0415.7698-.9184.3668-1.1885-.0017-.135-.476-.2227-.7932-.6358-1.1862-.3774-.4612-.0041-.7494-.1614-1.2828-.1638-.6156-.3845-1.2847-.3756-1.8696.1551-.82637.3108-1.82202.5037-2.63862.2694-1.0337.4996-2.03071.8656-3.03853.4563-1.71735 1.252-2.18198 2.5461-2.50623.5666-.193 1.231.00193 1.7099.32834.3005.40465.4898.5769 1.004.27272.2526-.07449 1.0484.68014 1.0986.92374.1662.80549.1495 1.65959-.0622 2.44791-.1856.63298-.3947 1.27103-.8005 1.80161-.3572.5052-.406 1.13785-.5827 1.71476-.1948.6038-.2477 1.3341-.8956 1.6379-.4086.3182-.3255 1.0173-.8878 1.201-.2741.2882-.2077.8873-.8305 1.071-.3497.4613-.2924.803-.9131.9514-.1666.0041-.386.022-.3942.1733z"/><path d="m25.9018 19.0711c-.3685.2111-.6677.8008-.0256.8557.4009.138.1175 1.091 1.1245 1.4657.7002.312 1.3988.437 2.1037.6178.9593.0834 1.9421.0635 2.9031-.0353.681-.2141 1.3605-.2154 2.0439-.3643.7743-.126 1.4303-.4671 2.1222-.7698 1.2385-.5418 1.9694-2.7984 2.1465-2.8506.4465-.2013 1.0788-.8888.2271-1.2729-.3042-.173-.07-.6184-.2768-.8267-.2134-.2892-.1474-.4507-.252-.7368-.732-.9376-2.491-1.2235-3.666-1.0152-.3439.2369-.9742.6269-1.5669.7996-.2544.0901-.6711.1647-.8582.4401-.4078.0086-.6594.2321-.9917.4892-.4448.1996-.6535.4143-.9148.6355-.1854.1569-.4525-.1988-.613-.0137-.1487.2954-.3535.4719-.4396.4552-.5826-.0944-.8846.4001-1.3535.8181-.406.3996-1.4086.3802-1.5256 1.0331-.0176.113-.074.2303-.1873.2753z"/></g></svg>