<svg preserveAspectRatio="none" width="540" height="357" viewBox="0 0 540 357" fill="none" xmlns="http://www.w3.org/2000/svg">
<path fill-rule="evenodd" clip-rule="evenodd" d="M3.75372 17.26C4.86365 17.26 5.80573 16.449 5.89606 15.3779C6.20581 11.79 8.8515 8.24092 12.6329 6.3158C15.1883 5.02522 17.6146 5.06397 20.699 5.1156C21.9509 5.14141 23.2415 5.1672 24.6095 5.10267C61.234 3.30661 366.177 4.36489 446.88 4.88112C466.187 5.01233 479.942 5.08763 484.81 5.08763C485.997 5.08763 486.965 4.17134 486.965 3.05069C486.965 1.91497 485.997 0.99864 484.81 0.99864C479.942 0.99864 466.2 0.908306 446.918 0.777097C366.167 0.275921 61.1459 -0.795269 24.3901 0.99864C23.1254 1.06317 21.938 1.03949 20.7765 1.02444C17.5371 0.959908 14.1558 0.895377 10.6174 2.70219C5.4809 5.29626 2.03723 10.0198 1.59845 15.0401C1.50812 16.1737 2.38574 17.1546 3.57306 17.2449L3.75372 17.26Z" fill="#E3000B"/>
<path fill-rule="evenodd" clip-rule="evenodd" d="M536.871 103.434H536.884C538.071 103.421 539.026 102.492 539.026 101.369C538.975 95.2261 538.895 43.861 539.026 31.8327C539.052 28.3482 538.665 24.797 537.837 20.9919C536.342 14.1518 534.367 7.18267 528.185 3.50451C524.004 1.0266 518.917 0.871736 514.841 0.742678L500.993 0.510369H500.93C499.769 0.510369 498.814 1.38577 498.788 2.49782C498.747 3.61848 499.679 4.57565 500.866 4.60146L507.719 4.73052L514.701 4.84887C518.457 4.96502 522.718 5.09193 525.916 6.99124C530.652 9.80471 532.33 15.8553 533.621 21.82C534.395 25.3433 534.757 28.6084 534.72 31.7962C534.602 43.8395 534.679 95.2412 534.72 101.397C534.729 102.518 535.684 103.434 536.871 103.434Z" fill="#E3000B"/>
<path fill-rule="evenodd" clip-rule="evenodd" d="M213.459 356.186L521.294 355.724C525.488 355.724 538.162 355.724 538.523 343.951L538.536 243.751C538.536 242.617 537.57 241.699 536.381 241.699C535.193 241.699 534.225 242.617 534.225 243.751L534.212 344.083C534.045 348.081 532.07 351.62 521.294 351.62L213.446 352.082C212.257 352.082 211.304 352.998 211.304 354.136C211.304 355.27 212.27 356.186 213.459 356.186Z" fill="#E3000B"/>
<path fill-rule="evenodd" clip-rule="evenodd" d="M184.279 356.186C185.454 356.186 186.409 355.283 186.435 354.162C186.447 353.041 185.505 352.095 184.32 352.082C183.326 352.056 83.8979 350.419 17.6653 351.944C14.142 351.983 10.9155 350.768 8.38806 348.419C5.79401 345.991 4.297 342.609 4.297 339.14L4.4519 25.24C4.4519 24.1022 3.49683 23.1859 2.29657 23.1859C1.12213 23.1859 0.154297 24.1022 0.154297 25.24L-0.000610352 339.14C-0.000610352 343.71 1.96106 348.159 5.39398 351.349C8.75165 354.487 13.202 356.1 17.7707 356.046C83.9001 354.526 183.251 356.165 184.245 356.188H184.279V356.186Z" fill="#E3000B"/>
</svg>
