<svg width="137" height="125" viewBox="0 0 137 125" fill="none" xmlns="http://www.w3.org/2000/svg">
<path d="M2.36883 69.851C2.77394 69.8132 3.10171 69.6015 3.35214 69.235C3.58416 68.8897 3.77752 68.4459 3.91194 67.9598C4.02703 67.4948 4.1053 66.9986 4.14305 66.4959L4.16238 65.2207C5.06928 64.9886 5.99645 64.7382 6.92269 64.4473L7.11512 65.7989C7.19154 66.3771 7.32688 66.9166 7.49997 67.4571C7.65558 67.9976 7.88576 68.4432 8.17486 68.8078C8.46489 69.1779 8.84974 69.3483 9.33312 69.2912C9.69864 69.2534 9.98775 69.0785 10.1811 68.8078C10.3745 68.5196 10.5089 68.1927 10.6065 67.8088C10.6829 67.4193 10.7409 67.0197 10.7409 66.6091L10.6829 65.5485C10.5862 64.5624 10.4131 63.6011 10.1802 62.6344C9.96841 61.6732 9.69865 60.7248 9.42888 59.8013L9.06335 58.4718L8.56065 56.9462C8.38755 56.4251 8.17486 55.903 7.92535 55.4197C7.69333 54.9179 7.40422 54.4796 7.07553 54.1067C6.76617 53.7237 6.40064 53.4355 6.01394 53.2219C5.60883 53.0083 5.16504 52.9328 4.66325 52.989C4.14213 53.046 3.69926 53.2597 3.31348 53.5902C2.92678 53.9355 2.59901 54.3387 2.3099 54.8608C2.04013 55.3635 1.80719 55.9196 1.61476 56.542C1.42325 57.157 1.26766 57.7914 1.15349 58.4129C1.01814 59.0473 0.921465 59.6448 0.86346 60.2221L0.709693 61.7487L0.555941 64.2171C0.535685 65.0457 0.575276 65.8772 0.671031 66.704L0.787033 67.6348C0.864373 67.9994 0.940803 68.3493 1.07615 68.6945C1.21149 69.0407 1.3855 69.3289 1.59727 69.5609C1.7897 69.7966 2.06039 69.8887 2.36883 69.851ZM4.06662 61.2671L4.08504 60.363L4.16238 59.2821C4.18263 58.9119 4.24064 58.5666 4.2968 58.2591C4.3548 57.9516 4.43124 57.7021 4.52883 57.4867C4.62459 57.2731 4.74059 57.1607 4.8566 57.1405C5.10795 57.122 5.29946 57.2537 5.47347 57.5438C5.64749 57.8531 5.80126 58.2048 5.89701 58.5878C6.01302 58.9939 6.11062 59.3769 6.16678 59.7875L6.2828 60.6539L6.35921 61.2874C5.62632 61.5194 4.85476 61.7146 4.06387 61.8647V61.2699L4.06662 61.2671ZM5.41732 51.6005C5.51492 51.6005 5.61067 51.5425 5.68709 51.467C5.76351 51.3851 5.8031 51.3096 5.78469 51.1788C5.76443 50.9662 5.64934 50.712 5.45691 50.4257C5.24515 50.1375 5.0122 49.8668 4.74243 49.6154C4.47266 49.3641 4.18356 49.1505 3.89354 48.993C3.62377 48.8218 3.37425 48.7426 3.1809 48.7675C2.98847 48.7868 2.81353 48.9001 2.69936 49.075C2.56493 49.2638 2.52535 49.458 2.54376 49.6909C2.56402 49.8475 2.62018 49.9985 2.71778 50.1348C2.81353 50.2848 2.94796 50.4064 3.0833 50.5178C3.21773 50.6559 3.37332 50.7507 3.52708 50.8437L3.9322 51.0766L4.64668 51.4219C4.91645 51.5812 5.16597 51.6189 5.41732 51.6005Z" fill="#E3000B"/>
<path d="M19.7938 68.3705C20.1796 68.3327 20.5847 68.1955 21.0091 67.9626C21.4143 67.7306 21.7798 67.4415 22.1085 67.0769C22.4178 66.7316 22.6692 66.3237 22.8616 65.8588C23.0531 65.4187 23.1111 64.9353 23.0531 64.4326C23.0338 64.1066 22.8994 63.8175 22.6692 63.5662C22.4574 63.3342 22.1858 63.2145 21.859 63.2587C21.5892 63.2964 21.3756 63.4097 21.1822 63.6233L20.6814 64.2392L20.1805 64.8349C20.0065 65.009 19.8131 65.1056 19.582 65.1286C19.3684 65.1664 19.1769 65.0679 19.0029 64.8791C18.8491 64.6848 18.7147 64.4335 18.5978 64.1637C18.4818 63.8755 18.4054 63.5855 18.3464 63.2596L18.212 62.4705C18.1927 62.2007 18.1927 61.8306 18.2313 61.3721C18.27 60.9071 18.3473 60.4422 18.4449 59.9966C18.56 59.5565 18.6945 59.1486 18.8501 58.8245C19.0231 58.4783 19.2156 58.3034 19.4485 58.284C19.6023 58.2647 19.7183 58.3034 19.7956 58.4194C19.872 58.5326 19.9494 58.6901 19.9881 58.8779L20.0645 59.5187L20.1225 59.8069L20.1805 60.0582C20.43 60.6162 20.8158 60.8492 21.3176 60.7865C21.6656 60.7488 21.9547 60.6162 22.1665 60.3658C22.3985 60.1144 22.5523 59.8069 22.6296 59.4552L22.6692 59.2057L22.6489 58.9792V58.7665L22.6296 58.5547C22.5716 58.0713 22.4565 57.5861 22.2834 57.1101C22.0901 56.6286 21.859 56.1811 21.5689 55.8174C21.2807 55.4271 20.9521 55.1573 20.5469 54.9529C20.1418 54.7393 19.6787 54.6573 19.1778 54.7199C18.3473 54.8148 17.6531 55.1407 17.1127 55.6987C16.5731 56.2566 16.1468 56.937 15.8586 57.727C15.5493 58.5179 15.3578 59.3474 15.2795 60.2516C15.1838 61.1438 15.1838 61.954 15.2602 62.6823C15.3366 63.3443 15.472 64.0137 15.6837 64.7116C15.8973 65.4085 16.1864 66.0429 16.5519 66.6202C16.9193 67.1984 17.3824 67.644 17.9229 67.9893C18.4624 68.307 19.0784 68.446 19.7938 68.3705Z" fill="#E3000B"/>
<path d="M27.432 64.0219C27.258 63.8147 27.0849 63.545 26.9505 63.2117C26.8152 62.8858 26.6807 62.5211 26.5831 62.1151C26.4671 61.7118 26.41 61.3242 26.3714 60.978C26.3318 60.7082 26.3134 60.3832 26.3318 59.9929L26.4478 58.9119C26.5058 58.5667 26.6015 58.2785 26.7176 58.0262C26.852 57.7767 27.0057 57.6432 27.1991 57.599C27.3924 57.5797 27.5849 57.6809 27.7598 57.8697C27.9329 58.0824 28.0876 58.3531 28.2229 58.6606L28.57 59.7194L28.7818 60.781L28.8398 61.9236C28.8398 62.3259 28.8205 62.6905 28.7634 63.0423C28.7054 63.3875 28.628 63.6757 28.4936 63.9077C28.3776 64.1572 28.2036 64.2724 27.9909 64.3147C27.7985 64.3386 27.6051 64.2383 27.432 64.0219ZM28.1078 67.5409C28.8407 67.459 29.4392 67.1892 29.9216 66.7307C30.4032 66.285 30.7705 65.7252 31.0412 65.0476C31.311 64.3939 31.5044 63.6591 31.5808 62.8489C31.6765 62.0387 31.6959 61.2478 31.6581 60.4541C31.6185 59.7627 31.4841 59.0114 31.2714 58.2389C31.0412 57.4646 30.7503 56.7667 30.3452 56.1351C29.9603 55.5191 29.4769 54.998 28.9181 54.6085C28.3389 54.2255 27.7027 54.069 26.9689 54.15C26.1964 54.2457 25.5611 54.5339 25.0584 55.0164C24.5576 55.5191 24.1718 56.1139 23.8827 56.832C23.6129 57.5419 23.4196 58.3337 23.3422 59.1817C23.2658 60.0361 23.2658 60.827 23.3615 61.6142C23.4389 62.349 23.6129 63.0634 23.8643 63.8C24.1138 64.5283 24.4415 65.1885 24.8678 65.7657C25.273 66.344 25.7545 66.8089 26.2949 67.1339C26.8336 67.4764 27.432 67.598 28.1078 67.5409Z" fill="#E3000B"/>
<path d="M34.3221 66.4176C34.5716 66.3983 34.765 66.3043 34.9206 66.1662C35.0743 66.0346 35.2087 65.878 35.3054 65.6893C35.4214 65.4757 35.4979 65.2612 35.5559 65.0107L35.6332 64.2383L35.6719 63.4096L35.6332 62.5994L35.4979 61.3242L35.3818 60.3252L35.2465 59.3576L35.3248 58.7425L35.5365 57.8945L35.8643 57.122C35.9794 56.8873 36.1138 56.7676 36.2298 56.7676C36.4038 56.7482 36.5392 56.7869 36.6534 56.8873C36.7694 57.0005 36.867 57.1377 36.9434 57.308L37.0971 57.8945L37.1735 58.4506L37.25 59.782L37.2306 61.1133V62.4429C37.2306 62.8839 37.25 63.3286 37.3071 63.7494L37.4047 64.4482L37.6348 65.3127C37.7324 65.6018 37.8669 65.8532 38.0206 66.0668C38.1744 66.2776 38.3677 66.3743 38.5795 66.3366C38.9266 66.2988 39.2166 66.1046 39.4477 65.7584C39.6797 65.4131 39.8731 64.9675 40.0084 64.427C40.1429 63.9077 40.2579 63.3092 40.3344 62.6684C40.4126 62.035 40.4504 61.4209 40.4697 60.8224L40.49 59.1771L40.4136 58.0584L40.1815 56.4002C40.0655 55.8045 39.8933 55.2447 39.6604 54.7236C39.4293 54.2043 39.1015 53.7937 38.6771 53.4861C38.272 53.1602 37.7324 53.0405 37.0566 53.1215C36.7077 53.1593 36.3799 53.2339 36.1304 53.3536C35.8606 53.4668 35.6286 53.6252 35.4159 53.7946C35.2041 53.952 35.0301 54.1463 34.8764 54.3525C34.7024 54.5643 34.5873 54.7807 34.4712 54.9915L34.2383 54.452L33.8921 53.8737C33.7568 53.6786 33.6223 53.5414 33.4493 53.4281C33.2937 53.3149 33.1215 53.2707 32.9466 53.2707C32.5414 53.3333 32.2523 53.5221 32.0599 53.8572C31.8859 54.1831 31.7708 54.5671 31.7321 55.0127C31.6935 55.4335 31.6935 55.8984 31.7321 56.3422L31.8481 57.4627L32.0599 59.0832L32.2717 60.722L32.3877 61.744L32.4641 62.4594L32.5801 63.4381L32.8112 64.5366C32.8876 64.9067 33.0036 65.2142 33.139 65.5042C33.2734 65.7924 33.4483 66.0254 33.6408 66.2012C33.8387 66.3798 34.0707 66.4618 34.3221 66.4176Z" fill="#E3000B"/>
<path d="M42.8685 65.4371C43.408 65.3551 43.9301 65.1673 44.4512 64.8358C44.9723 64.4905 45.4345 64.0698 45.8203 63.5652C46.2061 63.0469 46.5154 62.4852 46.7281 61.8628C46.9583 61.2294 47.0163 60.6153 46.9583 59.9919C46.9003 59.5712 46.8239 59.2259 46.6701 58.9552C46.5163 58.6624 46.3607 58.4359 46.1674 58.2582C45.9759 58.063 45.7825 57.8936 45.5708 57.7555L44.9723 57.3532C44.7983 57.2151 44.6445 57.0585 44.5092 56.8863C44.3738 56.7123 44.2974 56.4803 44.2578 56.2106C44.1998 55.7309 44.2965 55.3442 44.5276 55.0541C44.7578 54.7844 45.0091 54.5339 45.2982 54.3176C45.6076 54.1058 45.859 53.8775 46.1103 53.6464C46.3414 53.4134 46.4178 53.0875 46.3801 52.6603C46.3414 52.3721 46.2825 52.1576 46.1481 51.9891C46.032 51.8141 45.8967 51.6733 45.7245 51.5996C45.5505 51.5039 45.3572 51.4495 45.1638 51.4247H44.5285C43.9696 51.4873 43.4669 51.6567 42.9845 51.9274C42.5029 52.2156 42.0978 52.5866 41.7507 53.0074C41.4229 53.453 41.1522 53.9557 40.9782 54.5146C40.8245 55.0735 40.7665 55.6729 40.8429 56.2944C40.9009 56.8136 41.0547 57.2556 41.3244 57.6635C41.5758 58.0658 41.8649 58.4359 42.1742 58.7821L43.0029 59.7424C43.2542 60.0573 43.408 60.3648 43.4283 60.6512C43.466 60.9771 43.4283 61.2312 43.2929 61.4255C43.1769 61.6133 43.0029 61.7901 42.7911 61.9282C42.5794 62.0608 42.3676 62.1777 42.1162 62.2735C41.8649 62.3683 41.6338 62.5064 41.422 62.6574C41.2084 62.8139 41.0547 63.0257 40.9386 63.2577C40.8236 63.5091 40.7655 63.8359 40.8236 64.2374C40.8613 64.5255 40.9386 64.7585 41.0731 64.9343C41.2075 65.0853 41.3824 65.2225 41.5749 65.299C41.7489 65.3975 41.9606 65.4352 42.1917 65.4564L42.8685 65.4371Z" fill="#E3000B"/>
<path d="M50.1219 55.8837C50.1605 55.5762 50.2379 55.2889 50.3355 55.0357C50.4506 54.7659 50.585 54.5164 50.759 54.3387C50.9524 54.15 51.1825 54.0312 51.4735 53.9935C51.6668 53.9741 51.8206 54.0689 51.9366 54.2632C52.0517 54.4584 52.1097 54.6463 52.1484 54.8414C52.1677 55.0919 52.1097 55.3248 51.9743 55.5384C51.8206 55.752 51.6466 55.9214 51.4348 56.0789C51.223 56.2299 50.9901 56.3486 50.7406 56.4619L50.0841 56.7123L50.1219 55.8837ZM52.1677 64.276C52.5728 64.2383 53.0166 64.0679 53.4806 63.7972C53.9438 63.5091 54.3673 63.1573 54.754 62.7366C55.1388 62.3287 55.4289 61.8637 55.66 61.3408C55.892 60.8463 55.9878 60.3418 55.9298 59.8603C55.892 59.5527 55.7567 59.3014 55.5246 59.1449C55.2945 58.9745 55.0615 58.9119 54.7917 58.9331C54.5616 58.9561 54.3286 59.0528 54.1169 59.2268L53.4816 59.8041L52.8067 60.3823C52.5553 60.5572 52.3233 60.6539 52.0526 60.6908C51.7055 60.7276 51.3777 60.6714 51.108 60.4956C50.8189 60.3455 50.6448 60.0555 50.5297 59.631C51.1264 59.5353 51.6871 59.3226 52.2276 58.9966C52.7487 58.6661 53.2118 58.2453 53.5967 57.7592C53.9824 57.2758 54.2715 56.716 54.4851 56.0826C54.6767 55.4602 54.7347 54.8074 54.6582 54.1095C54.6002 53.5929 54.4465 53.1308 54.2154 52.722C53.9834 52.3187 53.7127 51.9928 53.3656 51.6981C53.0378 51.4284 52.6511 51.2396 52.2276 51.1208C51.804 50.9882 51.3593 50.9505 50.9146 51.0076C50.1237 51.1033 49.4682 51.4109 48.947 51.9311C48.4259 52.4706 48.0208 53.1114 47.7317 53.8397C47.4223 54.591 47.2299 55.3847 47.1526 56.2336C47.0568 57.0898 47.0568 57.8724 47.1332 58.6072C47.2096 59.3042 47.3846 59.9956 47.6543 60.6944C47.9241 61.4089 48.2712 62.0239 48.7141 62.5856C49.1395 63.1417 49.6606 63.5901 50.2388 63.9169C50.8363 64.2383 51.4735 64.3561 52.1677 64.276Z" fill="#E3000B"/>
<path d="M58.4011 63.9685C58.6902 63.9308 58.9038 63.8175 59.076 63.6039C59.2298 63.3931 59.3651 63.1389 59.4434 62.8526C59.5198 62.5644 59.5787 62.256 59.5971 61.9485V61.1216L59.5391 60.2111L59.4231 58.9994L59.3274 57.8375V57.0475L59.5004 56.1986C59.5971 55.9279 59.714 55.6581 59.8485 55.4252C59.9838 55.1932 60.156 54.986 60.3493 54.8304C60.5234 54.6545 60.7545 54.5422 61.0058 54.5045C61.1596 54.4667 61.294 54.4851 61.41 54.5238L61.7967 54.637L62.2018 54.7567C62.3362 54.7945 62.4909 54.7945 62.6834 54.7567C63.0691 54.6987 63.3978 54.5441 63.6474 54.254C63.8978 53.9843 63.9751 53.6013 63.8978 53.1354C63.8398 52.745 63.7054 52.42 63.512 52.1502C63.3205 51.862 63.0885 51.6475 62.7994 51.4974C62.5296 51.34 62.2387 51.246 61.9109 51.2083C61.6034 51.1475 61.2747 51.1475 60.9653 51.2083C60.33 51.304 59.8476 51.5536 59.4986 51.9569C59.1331 52.3629 58.844 52.8656 58.5926 53.4641L58.3993 52.7487C58.3229 52.4991 58.2253 52.2708 58.0899 52.0388C57.9748 51.8068 57.8201 51.6309 57.647 51.4808C57.473 51.3446 57.2613 51.2856 57.0495 51.3068C56.6444 51.3639 56.335 51.502 56.1233 51.7718C55.9299 52.0213 55.7761 52.3288 55.6997 52.6952C55.6233 53.0405 55.5837 53.43 55.6021 53.813L55.6786 54.8939L55.9106 56.4398L56.1417 57.9857L56.2199 58.6191L56.3157 59.468L56.451 60.4744L56.6628 61.5166L56.9326 62.4843C57.0486 62.7918 57.1646 63.0625 57.3184 63.2945C57.4528 63.5275 57.6075 63.6978 57.7815 63.835C57.9767 63.9307 58.17 63.9842 58.4011 63.9685Z" fill="#E3000B"/>
<path d="M68.7799 62.7909C69.2246 62.7338 69.6297 62.5027 69.9373 62.0773C70.2466 61.6566 70.5164 61.1354 70.7291 60.5139C71.0964 59.515 71.4224 58.434 71.7133 57.2914L72.484 54.0109C72.6193 53.4705 72.716 52.93 72.774 52.4273C72.8311 51.9255 72.8513 51.467 72.7933 51.0775C72.7547 50.6743 72.6396 50.3612 72.4655 50.1356C72.2731 49.9027 72.0024 49.8051 71.6166 49.8475C71.2318 49.9045 70.8644 50.2121 70.5366 50.8087C70.1895 51.4035 69.8802 52.1216 69.6104 52.9503C69.476 53.3563 69.3406 53.7605 69.2449 54.1877L68.9171 55.4003L68.6657 56.518L68.4347 57.4646C68.2229 57.1386 68.0295 56.7878 67.8739 56.4425L67.4311 55.381L66.9873 54.2255L66.5242 53.0893L66.0233 52.0461L65.5215 51.2193C65.3484 50.9864 65.156 50.8114 64.981 50.6991C64.7886 50.5794 64.5953 50.5233 64.3835 50.5417C63.843 50.5988 63.4959 50.8299 63.3615 51.2193C63.2077 51.6023 63.1682 52.0839 63.2455 52.6455C63.2851 53.0479 63.3615 53.4935 63.4775 53.9373C63.5935 54.4041 63.7289 54.8414 63.901 55.3064C64.0548 55.7714 64.2104 56.2105 64.4038 56.6377L64.9046 57.8687L65.5418 59.2434C65.8115 59.8004 66.1402 60.362 66.5058 60.9025C66.8529 61.442 67.2386 61.907 67.6253 62.29C68.0277 62.6555 68.4144 62.8286 68.7799 62.7909Z" fill="#E3000B"/>
<path d="M76.3044 52.9696C76.343 52.6621 76.4204 52.3924 76.5161 52.1217C76.6128 51.8519 76.7666 51.619 76.9415 51.4247C77.1146 51.2359 77.3466 51.1172 77.6357 51.0978C77.8475 51.061 78.0031 51.1558 78.1173 51.3492C78.2139 51.5435 78.2913 51.7386 78.3106 51.9274C78.3493 52.1778 78.2913 52.4292 78.1375 52.6428C78.0031 52.838 77.8282 53.0258 77.598 53.1621C77.3844 53.3186 77.1542 53.4503 76.9028 53.5451L76.2666 53.7955C76.2464 53.546 76.2666 53.2762 76.3044 52.9696ZM78.3502 61.3675C78.7553 61.3233 79.1788 61.1723 79.642 60.886C80.1051 60.6134 80.5295 60.2451 80.9153 59.841C81.3011 59.4137 81.6095 58.9552 81.8416 58.4525C82.0727 57.9342 82.1693 57.4314 82.1113 56.9453C82.0727 56.6378 81.9373 56.3864 81.7062 56.2299C81.4742 56.0596 81.2247 56.0034 80.9733 56.0218C80.722 56.0402 80.5102 56.1544 80.2791 56.3293L79.642 56.8864L78.9671 57.4646C78.736 57.6395 78.4846 57.7343 78.2333 57.7721C77.8677 57.8098 77.5584 57.7528 77.2693 57.5769C76.9995 57.4268 76.8062 57.1368 76.7086 56.7123C77.2877 56.6166 77.8677 56.4048 78.387 56.0789C78.9266 55.753 79.3897 55.3442 79.7764 54.8415C80.1622 54.3581 80.4513 53.7983 80.6446 53.1832C80.8564 52.5489 80.9144 51.8897 80.8186 51.1982C80.7606 50.6789 80.6253 50.213 80.3933 49.8042C80.1631 49.401 79.874 49.075 79.5453 48.8053C79.1973 48.5171 78.8308 48.3219 78.4073 48.2022C77.9635 48.0899 77.539 48.0521 77.0943 48.0899C76.3034 48.1838 75.6488 48.4977 75.1268 49.0124C74.6057 49.5529 74.2005 50.1937 73.9114 50.9284C73.6021 51.677 73.4087 52.4669 73.313 53.3214C73.2365 54.1878 73.2154 54.9823 73.2927 55.6894C73.3903 56.3864 73.5625 57.0862 73.8138 57.7767C74.1029 58.4903 74.451 59.1062 74.8754 59.6669C75.3201 60.224 75.8394 60.6723 76.4185 60.9983C76.9995 61.3233 77.6551 61.4421 78.3502 61.3675Z" fill="#E3000B"/>
<path d="M84.5644 61.0535C84.8536 61.0158 85.0837 60.9034 85.2393 60.6889C85.4124 60.4781 85.5284 60.224 85.6049 59.9376C85.7025 59.6495 85.7393 59.341 85.7586 59.0335L85.7789 58.2067L85.7025 57.2961L85.5864 56.0844L85.4889 54.9225V54.1362C85.5285 53.8664 85.5864 53.5718 85.6822 53.2799C85.7798 53.0102 85.893 52.7404 86.0293 52.5074C86.1637 52.2819 86.3193 52.0674 86.5127 51.9127C86.7051 51.7405 86.9362 51.6236 87.1876 51.5858C87.322 51.5481 87.4573 51.5674 87.5927 51.6051L87.9582 51.7248L88.3836 51.8381C88.518 51.8758 88.6727 51.8758 88.8449 51.8381C89.2509 51.7801 89.5593 51.6245 89.8107 51.3354C90.0621 51.0656 90.1578 50.6817 90.0805 50.2158C90.0225 49.8254 89.888 49.5013 89.6947 49.2315C89.5023 48.9433 89.2518 48.7288 88.982 48.5778C88.7104 48.4213 88.4029 48.3274 88.0936 48.2897C87.7658 48.2289 87.4573 48.2289 87.148 48.2897C86.5127 48.3854 86.0284 48.6349 85.6629 49.0428C85.3158 49.4451 85.0064 49.9451 84.755 50.5445L84.582 49.8282C84.5055 49.5833 84.3895 49.3512 84.2726 49.1183C84.1382 48.8863 84.0028 48.7104 83.8095 48.5603C83.6364 48.4241 83.4439 48.3651 83.211 48.3863C82.8059 48.4434 82.4984 48.5806 82.305 48.8513C82.0933 49.1008 81.9579 49.4074 81.8815 49.7747C81.8032 50.1265 81.7655 50.5095 81.7839 50.8925L81.8603 51.9725L82.0923 53.5193L82.3234 55.0652L82.3814 55.6987L82.4772 56.5715L82.6328 57.5502L82.8446 58.5934C82.9219 58.9193 82.9983 59.2526 83.1143 59.561C83.2303 59.8686 83.3445 60.1383 83.4799 60.3713C83.6143 60.6033 83.7892 60.7746 83.9632 60.9117C84.1391 61.0158 84.3508 61.0701 84.5644 61.0535Z" fill="#E3000B"/>
<path d="M97.4126 50.6154C97.4513 50.3263 97.5286 50.0372 97.6262 49.7674C97.7413 49.4967 97.8757 49.2647 98.0497 49.0759C98.2228 48.8817 98.4548 48.7878 98.7642 48.7436C98.9557 48.7242 99.1113 48.8062 99.2255 48.994C99.3415 49.1892 99.3995 49.3844 99.4179 49.5787C99.4575 49.8484 99.3995 50.0749 99.2448 50.2885C99.1104 50.4837 98.9355 50.6798 98.7053 50.829C98.4917 50.9671 98.2606 51.1006 98.0092 51.1991L97.3739 51.4505C97.3564 51.1982 97.3748 50.9284 97.4126 50.6154ZM99.4593 59.0307C99.8645 58.9736 100.308 58.8199 100.77 58.528C101.215 58.2583 101.639 57.913 102.025 57.4858C102.411 57.0585 102.721 56.6 102.952 56.0973C103.183 55.5946 103.279 55.0919 103.221 54.5874C103.183 54.2798 103.047 54.0478 102.816 53.8775C102.586 53.7026 102.335 53.6455 102.083 53.6648C101.832 53.7025 101.62 53.7983 101.408 53.9723L100.752 54.5312L100.077 55.1085C99.847 55.2843 99.5956 55.3976 99.3443 55.416C98.9787 55.4537 98.6694 55.3976 98.3803 55.2466C98.1105 55.0707 97.9171 54.7816 97.8195 54.3535C98.418 54.278 98.9778 54.0653 99.5183 53.72C100.039 53.3941 100.501 52.9853 100.887 52.4826C101.273 52.0029 101.562 51.4468 101.756 50.8235C101.967 50.19 102.025 49.5308 101.949 48.8568C101.891 48.3164 101.737 47.8514 101.504 47.4518C101.274 47.0605 100.985 46.7152 100.656 46.4446C100.309 46.1748 99.9418 45.9639 99.5183 45.8497C99.0929 45.73 98.65 45.6923 98.2053 45.7494C97.4144 45.8313 96.7589 46.1388 96.2378 46.6793C95.7166 47.2004 95.3115 47.8367 95.0022 48.5714C94.7131 49.3236 94.5206 50.1173 94.4249 50.9837C94.3485 51.8317 94.3273 52.6207 94.4249 53.3554C94.5013 54.0276 94.6762 54.7245 94.946 55.4363C95.2158 56.1342 95.5629 56.7658 96.0057 57.3062C96.4311 57.8651 96.9504 58.3135 97.5304 58.6376C98.1087 58.9746 98.7651 59.1062 99.4593 59.0307Z" fill="#E3000B"/>
<path d="M105.44 58.5096C105.672 58.4902 105.866 58.4138 106.02 58.2775C106.193 58.1201 106.309 57.9691 106.425 57.7748L106.656 57.1027L106.752 56.3302L106.772 55.5016L106.752 54.6913L106.618 53.4162L106.483 52.4107L106.367 51.4504C106.347 51.3123 106.367 51.0959 106.425 50.8262L106.656 49.9782C106.752 49.69 106.848 49.4378 106.984 49.2057C107.1 48.994 107.216 48.8605 107.33 48.8605C107.504 48.8411 107.658 48.8798 107.774 48.9737C107.89 49.0925 107.986 49.2241 108.044 49.4C108.121 49.5759 108.16 49.7646 108.198 49.9782L108.276 50.5371C108.332 50.9818 108.353 51.4228 108.353 51.8684V53.198L108.332 54.5293L108.411 55.8422L108.526 56.5392C108.564 56.8274 108.642 57.1175 108.738 57.4056C108.854 57.6938 108.97 57.9461 109.124 58.1588C109.279 58.3669 109.47 58.4663 109.703 58.4285C110.031 58.3834 110.32 58.1965 110.572 57.843C110.802 57.4977 110.977 57.0539 111.13 56.5134C111.266 55.996 111.362 55.3957 111.44 54.7613C111.517 54.127 111.575 53.5055 111.594 52.9079V51.2691L111.536 50.1513L111.284 48.4931C111.188 47.89 111.014 47.3284 110.765 46.8091C110.533 46.3073 110.204 45.8865 109.799 45.5781C109.376 45.2457 108.835 45.1334 108.16 45.208C107.813 45.2457 107.504 45.3277 107.234 45.4409C106.964 45.5597 106.733 45.7107 106.52 45.8865C106.327 46.0366 106.136 46.2318 105.98 46.4427C105.826 46.6563 105.691 46.8634 105.593 47.0964L105.344 46.5393C105.267 46.3267 105.151 46.1361 105.016 45.962C104.882 45.7862 104.728 45.6352 104.572 45.5164C104.418 45.4032 104.244 45.3654 104.051 45.3829C103.646 45.4197 103.358 45.6158 103.183 45.9409C103.01 46.2668 102.894 46.6563 102.856 47.0964C102.798 47.542 102.798 47.9885 102.856 48.4277L102.971 49.5455L103.183 51.1724L103.396 52.8112L103.492 53.8286L103.569 54.5422L103.703 55.5283L103.915 56.6276C104.011 56.9922 104.128 57.3182 104.263 57.6109C104.398 57.9001 104.57 58.1072 104.744 58.2831C104.94 58.4718 105.171 58.5473 105.44 58.5096Z" fill="#E3000B"/>
<path d="M117.733 57.7178C118.022 57.6985 118.292 57.623 118.599 57.506C118.907 57.4103 119.158 57.2722 119.409 57.1028C119.641 56.9462 119.817 56.7326 119.968 56.4813C120.106 56.2308 120.163 55.9601 120.126 55.6526C120.088 55.2503 119.968 54.9179 119.777 54.6739C119.604 54.4419 119.334 54.3222 119.008 54.3599L118.409 54.4796C118.217 54.5542 118.041 54.5736 117.846 54.6113C117.539 54.6306 117.306 54.5735 117.115 54.4419C116.923 54.2844 116.766 54.0902 116.672 53.883C116.575 53.651 116.498 53.4015 116.46 53.1483L116.364 52.4881L116.306 51.6972L116.286 50.9496L116.228 49.4019L116.209 47.7437L117.115 47.4739C117.445 47.3542 117.734 47.2041 118.003 47.0283C118.273 46.834 118.505 46.6453 118.656 46.4132C118.832 46.2015 118.908 45.9483 118.87 45.6776C118.851 45.4456 118.757 45.2504 118.6 45.1003C118.468 44.9429 118.273 44.8296 118.06 44.7541C117.846 44.6722 117.617 44.6354 117.366 44.6188H116.654L116.44 44.6565L115.997 44.7753L116.093 43.5949L116.055 42.6908L115.881 41.9395C115.804 41.6891 115.688 41.4561 115.572 41.2683C115.437 41.0565 115.284 40.8981 115.109 40.7867C114.917 40.6486 114.724 40.6109 114.512 40.6284C114.145 40.6652 113.856 40.8402 113.662 41.1698C113.451 41.4957 113.315 41.8668 113.219 42.3041C113.123 42.7691 113.084 43.234 113.084 43.7386C113.084 44.2413 113.123 44.6998 113.16 45.1058C112.871 45.1638 112.582 45.2559 112.273 45.3756C111.945 45.51 111.656 45.6638 111.405 45.8406C111.153 46.0127 110.942 46.2052 110.788 46.4363C110.634 46.6692 110.576 46.9012 110.595 47.1719C110.634 47.5927 110.827 47.8818 111.154 48.0576C111.502 48.2289 111.869 48.2897 112.292 48.2519L112.544 48.1911L112.987 48.1543L113.045 50.3963L113.219 52.4559C113.315 53.3287 113.43 54.0957 113.566 54.7927C113.682 55.4897 113.914 56.0844 114.222 56.5513C114.531 57.0088 114.955 57.3615 115.516 57.5677C116.054 57.7749 116.807 57.8126 117.733 57.7178Z" fill="#E3000B"/>
<path d="M121.857 56.9084C122.167 56.8707 122.378 56.751 122.554 56.5438C122.707 56.3321 122.823 56.0789 122.918 55.7925C122.997 55.5034 123.038 55.1895 123.056 54.8819L123.076 54.0542L122.998 53.151L122.901 51.9329L122.806 50.7765C122.768 50.4312 122.768 50.1614 122.806 49.9856C122.825 49.7158 122.901 49.4295 122.979 49.1588C123.077 48.8706 123.19 48.5999 123.328 48.3679C123.46 48.1349 123.636 47.9241 123.808 47.7731C123.999 47.5982 124.231 47.4849 124.483 47.4472C124.639 47.403 124.772 47.4232 124.888 47.4665L125.255 47.5797L125.679 47.6911C125.813 47.7363 125.971 47.7363 126.162 47.6911C126.549 47.6341 126.875 47.4831 127.126 47.1967C127.358 46.926 127.452 46.5347 127.377 46.0698C127.32 45.6868 127.183 45.3599 126.991 45.0911C126.799 44.802 126.549 44.5883 126.278 44.4309C126.008 44.2808 125.701 44.1805 125.39 44.1427C125.078 44.0856 124.752 44.0856 124.444 44.1427C123.807 44.2431 123.326 44.4944 122.959 44.8959C122.611 45.3019 122.302 45.7982 122.052 46.4031L121.879 45.6877C121.801 45.4382 121.687 45.2061 121.569 44.9741C121.455 44.7412 121.299 44.5709 121.126 44.4153C120.953 44.2836 120.74 44.2274 120.526 44.2458C120.124 44.302 119.816 44.4337 119.603 44.7044C119.389 44.9539 119.255 45.2605 119.176 45.6334C119.1 45.9795 119.062 46.369 119.081 46.752L119.156 47.832L119.388 49.3788L119.62 50.9247L119.677 51.5582L119.774 52.4246L119.928 53.4106L120.141 54.4538L120.411 55.415C120.524 55.7226 120.643 55.9923 120.776 56.2253C120.933 56.4573 121.087 56.6331 121.259 56.7648C121.454 56.8707 121.647 56.925 121.857 56.9084Z" fill="#E3000B"/>
<path d="M130.369 46.9509C130.407 46.6627 130.466 46.3737 130.583 46.103C130.677 45.8332 130.834 45.6002 131.006 45.406C131.179 45.2108 131.412 45.1178 131.701 45.08C131.895 45.0607 132.046 45.1371 132.165 45.3295C132.278 45.5183 132.356 45.7126 132.375 45.9078C132.398 46.1775 132.338 46.4105 132.202 46.6231C132.068 46.811 131.876 47.0062 131.663 47.1636C131.449 47.2953 131.217 47.4334 130.966 47.5282L130.332 47.7786C130.313 47.5291 130.331 47.2584 130.369 46.9509ZM132.417 55.3635C132.819 55.3055 133.246 55.1499 133.708 54.8608C134.169 54.5901 134.596 54.2448 134.979 53.8158C135.369 53.395 135.676 52.9301 135.909 52.4273C136.138 51.9256 136.217 51.4228 136.161 50.9266C136.138 50.6126 136.003 50.3861 135.771 50.2112C135.539 50.0372 135.291 49.9782 135.021 49.9994C134.789 50.0372 134.559 50.1357 134.346 50.3069L133.709 50.864L133.034 51.4505C132.802 51.6199 132.55 51.7387 132.281 51.758C131.935 51.7957 131.609 51.7387 131.339 51.5821C131.069 51.409 130.874 51.1181 130.777 50.6973C131.358 50.6154 131.917 50.4091 132.457 50.0565C132.998 49.7306 133.459 49.3282 133.846 48.8255C134.232 48.344 134.521 47.7823 134.712 47.1673C134.907 46.5265 134.964 45.8737 134.888 45.1942C134.831 44.6547 134.694 44.1879 134.461 43.7883C134.232 43.3979 133.943 43.0526 133.613 42.7828C133.268 42.5131 132.881 42.3179 132.457 42.1862C132.03 42.0739 131.609 42.0297 131.144 42.0923C130.372 42.1669 129.716 42.4753 129.197 43.0149C128.676 43.5342 128.268 44.1713 127.96 44.906C127.671 45.6592 127.476 46.451 127.382 47.3174C127.285 48.1654 127.285 48.9562 127.363 49.6919C127.439 50.3631 127.614 51.0592 127.884 51.7773C128.154 52.4679 128.519 53.1087 128.946 53.6685C129.389 54.2098 129.888 54.6472 130.488 54.9833C131.066 55.3064 131.702 55.4381 132.417 55.3635Z" fill="#E3000B"/>
<path d="M17.0316 99.6592C18.5544 99.4888 19.849 98.9686 20.929 98.0829C22.009 97.2101 22.8772 96.1098 23.5134 94.7996C24.1505 93.506 24.5934 92.0807 24.8264 90.533C25.0768 88.9945 25.1145 87.4698 24.9424 85.9819C24.7868 84.5373 24.4792 83.112 24.0345 81.6987C23.5908 80.3103 22.9729 79.0609 22.2207 77.9809C21.4501 76.8935 20.5027 76.0649 19.3647 75.4499C18.2469 74.8551 16.9146 74.6396 15.4093 74.7962C14.5226 74.8919 13.6931 75.1994 12.9206 75.6819C12.1297 76.1652 11.4354 76.7812 10.8176 77.5159C10.1805 78.2691 9.64005 79.1171 9.17693 80.0599C8.71381 81.0082 8.32895 81.9897 8.03801 83.0117C7.74982 84.0189 7.53714 85.0235 7.44046 86.0261C7.32537 87.0426 7.32538 87.9919 7.42113 88.896C7.55555 90.1712 7.90266 91.4648 8.44313 92.7943C8.98266 94.1256 9.6594 95.3189 10.5074 96.3814C11.3572 97.4614 12.3414 98.3094 13.4408 98.9318C14.5622 99.5671 15.7582 99.8166 17.0316 99.6592ZM14.9471 93.9876C14.4462 93.6055 14.0015 93.0853 13.636 92.4868C13.2686 91.8644 12.9611 91.2116 12.7493 90.4971C12.5357 89.7872 12.4013 89.1455 12.3239 88.5885C12.2475 87.8537 12.2659 87.0251 12.4013 86.1182C12.5357 85.1883 12.7493 84.3025 13.078 83.4739C13.4049 82.6471 13.8302 81.9114 14.3891 81.313C14.9296 80.7182 15.586 80.3646 16.3567 80.2891C16.9754 80.2136 17.5527 80.3895 18.0554 80.7928C18.5563 81.1997 18.9816 81.7172 19.3472 82.3396C19.6943 82.973 20.0036 83.6525 20.2154 84.3808C20.4272 85.1155 20.5828 85.7564 20.6389 86.2959C20.7172 86.9873 20.6969 87.7976 20.5819 88.7082C20.4658 89.6316 20.2329 90.4962 19.9254 91.3073C19.5976 92.1351 19.1731 92.8532 18.6318 93.4471C18.0913 94.0437 17.4367 94.3954 16.6642 94.4921C16.028 94.5483 15.4673 94.3973 14.9471 93.9876Z" fill="#E3000B"/>
<path d="M26.3141 79.2101C25.967 78.9394 25.7929 78.5766 25.7349 78.1503C25.6972 77.7093 25.7929 77.3217 26.0627 76.9764C26.3141 76.6247 26.6419 76.436 27.047 76.3982C27.4327 76.354 27.7992 76.4737 28.1454 76.7444C28.4731 77.0142 28.6665 77.3594 28.7245 77.805C28.7825 78.2488 28.6665 78.6319 28.3967 78.9771C28.127 79.3298 27.7799 79.4982 27.3941 79.5553C26.989 79.5986 26.6428 79.4789 26.3141 79.2101ZM27.4714 80.8674C27.8572 80.8305 28.2043 80.7182 28.5137 80.5414C28.8414 80.3656 29.1112 80.1206 29.3423 79.8251C29.5743 79.5369 29.7281 79.2101 29.845 78.8271C29.9408 78.4588 29.9795 78.0546 29.9408 77.6264C29.8828 77.2241 29.7677 76.8355 29.5753 76.4903C29.4012 76.145 29.1499 75.8752 28.8608 75.6257C28.591 75.3937 28.2623 75.2178 27.9152 75.123C27.5681 75.0272 27.2007 74.9858 26.8352 75.0272C26.4494 75.0641 26.1023 75.1773 25.793 75.3532C25.4652 75.5226 25.1945 75.7739 24.9827 76.0631C24.771 76.3522 24.5969 76.6855 24.5012 77.0685C24.3852 77.4386 24.3658 77.8428 24.4054 78.2489C24.4432 78.6696 24.5592 79.0591 24.7516 79.4043C24.945 79.7505 25.1752 80.0203 25.4458 80.2707C25.7349 80.5037 26.0443 80.6786 26.3914 80.7734C26.7385 80.8885 27.1059 80.9051 27.4714 80.8674Z" fill="#E3000B"/>
<path d="M39.78 97.5001C40.3388 97.443 40.9373 97.2496 41.5938 96.9035C42.2502 96.5582 42.8294 96.131 43.3698 95.6126C43.89 95.0915 44.3338 94.4939 44.6625 93.8605C44.9903 93.2003 45.1063 92.5291 45.0281 91.8312C44.971 91.3294 44.7785 90.8912 44.4314 90.5183C44.0834 90.1537 43.6985 89.9787 43.2354 90.0414C42.8496 90.0782 42.4629 90.173 42.0974 90.3295L40.9962 90.8258L39.9162 91.3285C39.5507 91.485 39.164 91.5789 38.7773 91.6167C38.1798 91.6986 37.7157 91.5412 37.3502 91.1757C36.9828 90.8055 36.6946 90.347 36.482 89.7688C36.2499 89.2054 36.0962 88.6069 36.0004 87.9744C35.8844 87.3593 35.8071 86.794 35.7684 86.3355L35.6726 84.9848V83.1682C35.692 82.5523 35.7306 81.893 35.8071 81.2393C35.8835 80.5994 36.0004 80.0019 36.1726 79.4807C36.3282 78.9403 36.54 78.5195 36.8097 78.1494C37.0611 77.8041 37.387 77.6098 37.7737 77.5721C38.1411 77.5343 38.3906 77.6301 38.525 77.898C38.6604 78.1475 38.758 78.4928 38.8344 78.9219L39.0268 80.2348C39.0848 80.7154 39.2008 81.1362 39.3923 81.5468C39.5664 81.9501 39.8555 82.2631 40.2228 82.4887C40.5883 82.7382 41.1095 82.8193 41.8037 82.7382C42.2475 82.6811 42.6139 82.5053 42.904 82.2189C43.1931 81.9105 43.4048 81.5652 43.5788 81.1362C43.7133 80.7338 43.809 80.2882 43.8486 79.8067C43.8864 79.3482 43.8864 78.9025 43.8486 78.4762C43.751 77.6098 43.5595 76.7048 43.2897 75.7371C43.0384 74.774 42.6526 73.903 42.1701 73.1306C41.6886 72.3645 41.0901 71.7403 40.3757 71.2818C39.6612 70.8012 38.8325 70.6225 37.8676 70.7422C36.8641 70.838 35.9958 71.1833 35.2233 71.7587C34.472 72.3369 33.7962 73.0523 33.2355 73.9003C32.6766 74.7713 32.2135 75.7344 31.8471 76.8144C31.4797 77.9118 31.1906 79.013 30.9982 80.1566C30.8048 81.3121 30.6888 82.4298 30.6511 83.5485C30.6317 84.6469 30.6511 85.6735 30.7671 86.5997C30.9208 87.967 31.1906 89.3388 31.6151 90.708C32.0404 92.0771 32.6186 93.2768 33.3515 94.3356C34.0844 95.3972 34.9922 96.2286 36.0538 96.8233C37.1375 97.4439 38.3713 97.6575 39.78 97.5001Z" fill="#E3000B"/>
<path d="M58.9035 93.8393C59.5203 93.7767 60.1768 93.5309 60.871 93.123C61.5459 92.6958 62.1821 92.1562 62.7612 91.5403C63.3404 90.9068 63.8035 90.2089 64.1506 89.453C64.4977 88.7054 64.6331 87.9357 64.5557 87.2C64.4977 86.7332 64.286 86.3879 63.9582 86.1393C63.6111 85.888 63.2253 85.7748 62.8386 85.8309C62.4731 85.8687 62.1453 86.0261 61.8166 86.271L60.8526 87.1273L59.849 87.9919C59.501 88.2432 59.1161 88.3951 58.7294 88.4568C58.1899 88.5148 57.7258 88.4126 57.3023 88.1686C56.8972 87.9366 56.6072 87.491 56.4534 86.875C57.3401 86.7176 58.1899 86.4101 58.9817 85.9073C59.7919 85.4046 60.4862 84.7896 61.0469 84.0539C61.6242 83.3441 62.0689 82.4906 62.358 81.5459C62.6673 80.6169 62.7438 79.6179 62.6278 78.5941C62.5513 77.805 62.3184 77.1081 61.9713 76.5087C61.6242 75.8936 61.2006 75.3909 60.6979 74.983C60.1971 74.5807 59.6179 74.2732 58.9817 74.0973C58.3446 73.9021 57.6881 73.846 57.0123 73.9215C55.8366 74.0596 54.8514 74.5245 54.0807 75.3182C53.3083 76.1284 52.6914 77.0694 52.2467 78.1881C51.8038 79.3067 51.5138 80.5064 51.3591 81.7788C51.2247 83.0476 51.2247 84.2491 51.3407 85.3466C51.4558 86.3695 51.7246 87.4127 52.1307 88.455C52.5349 89.5165 53.0569 90.4612 53.7134 91.288C54.3698 92.136 55.1405 92.7952 56.0087 93.2786C56.8963 93.7767 57.8612 93.9516 58.9035 93.8393ZM55.854 81.2393C55.912 80.7955 56.0078 80.3665 56.1634 79.9641C56.3172 79.5562 56.5289 79.211 56.7996 78.9219C57.0694 78.6512 57.4165 78.4762 57.8612 78.4192C58.1494 78.3998 58.3823 78.5167 58.5545 78.8086C58.7285 79.0968 58.8243 79.3859 58.8639 79.6732C58.9025 80.0765 58.8243 80.4263 58.5941 80.7338C58.3823 81.0413 58.1116 81.312 57.8023 81.5441C57.4745 81.7577 57.1274 81.9473 56.7407 82.1029L55.796 82.486C55.7583 82.1066 55.7767 81.6978 55.854 81.2393Z" fill="#E3000B"/>
<path d="M72.7914 93.3936C73.2149 93.3559 73.6412 93.2601 74.0841 93.0852C74.5472 92.9287 74.9523 92.7206 75.2994 92.4702C75.6484 92.2188 75.9366 91.9113 76.1299 91.5402C76.3417 91.195 76.4181 90.7678 76.3795 90.3093C76.303 89.7062 76.1299 89.2035 75.8602 88.837C75.5904 88.4724 75.2037 88.3187 74.6826 88.3721C74.3935 88.3914 74.1034 88.454 73.8143 88.5479L72.9664 88.722C72.5032 88.78 72.1359 88.6777 71.8661 88.4724C71.577 88.2404 71.345 87.9697 71.1912 87.6244C71.0375 87.2921 70.9214 86.9256 70.8634 86.5361L70.729 85.5372L70.6333 84.3752L70.613 83.2188L70.5172 80.9272L70.4979 78.4145C70.9214 78.3188 71.3846 78.1816 71.867 78.0112C72.3486 77.8372 72.7933 77.6209 73.1984 77.3511C73.6026 77.0813 73.9313 76.7738 74.1826 76.447C74.4321 76.1017 74.5481 75.7334 74.5104 75.3504C74.4717 74.9803 74.3364 74.7096 74.1044 74.4775C73.8733 74.2511 73.6035 74.0568 73.2757 73.9371C72.9682 73.8238 72.6192 73.7658 72.2344 73.7281C71.867 73.7088 71.5199 73.7087 71.1728 73.7474L70.8625 73.81L70.1876 73.9666C70.2641 73.2677 70.3221 72.6895 70.3221 72.208L70.2641 70.8573C70.2263 70.4927 70.1296 70.1041 70.0127 69.7211C69.8976 69.3316 69.7245 68.9864 69.5312 68.6973C69.3378 68.3898 69.1076 68.1577 68.8369 67.9837C68.5865 67.7959 68.2781 67.714 67.9687 67.7517C67.4098 67.8116 66.9845 68.0822 66.676 68.5619C66.3667 69.0435 66.1549 69.6208 66.0196 70.2809C65.8851 70.9521 65.8087 71.6712 65.8271 72.4225C65.8271 73.1757 65.8658 73.8662 65.9229 74.4646C65.4994 74.5641 65.0546 74.6976 64.5915 74.8928C64.11 75.0659 63.6855 75.2988 63.2998 75.5686C62.9131 75.8163 62.6055 76.1275 62.3735 76.4543C62.1433 76.7996 62.0457 77.1642 62.0844 77.5537C62.1618 78.1871 62.4315 78.6337 62.9342 78.9034C63.4351 79.1548 63.9958 79.2496 64.632 79.1741L65.0178 79.117L65.6531 79.0167L65.7691 82.3957C65.8271 83.4389 65.9035 84.4839 66.0196 85.505C66.1549 86.7921 66.3271 87.9753 66.5204 89.0157C66.7322 90.0579 67.06 90.9243 67.5231 91.6157C67.9862 92.3293 68.6427 92.832 69.4529 93.1607C70.2825 93.4691 71.4021 93.5686 72.7914 93.3936Z" fill="#E3000B"/>
<path d="M89.1751 88.3187C89.3887 88.2809 89.5231 88.1235 89.6189 87.873C89.7349 87.6024 89.8122 87.2948 89.8702 86.9496C89.9282 86.585 89.966 86.1771 89.966 85.7563L89.9466 84.4995L89.8702 83.403L89.8509 82.6876L90.988 82.5532L92.1462 82.3791L92.8211 82.2668C93.1286 82.2042 93.438 82.1287 93.7474 82.0154C94.0549 81.8967 94.3247 81.7659 94.5373 81.5882C94.7694 81.4152 94.8651 81.2052 94.8274 80.9548C94.808 80.7034 94.6533 80.5276 94.402 80.4143C94.1322 80.2937 93.8247 80.2191 93.496 80.1823C93.1682 80.1446 92.8395 80.1243 92.532 80.1446L91.836 80.1823L90.7164 80.256L89.5784 80.3306L89.4246 79.1373C89.3482 78.5214 89.2515 77.921 89.0968 77.2839C88.9615 76.6505 88.7893 76.11 88.5757 75.6073C88.3639 75.1257 88.1144 74.8937 87.8447 74.9315C87.5169 74.9692 87.2655 75.2012 87.1302 75.6662C86.9958 76.11 86.8982 76.6274 86.8604 77.2112C86.8024 77.7894 86.8024 78.3483 86.8411 78.9071L86.9175 80.0645L86.9939 80.6869L85.7786 80.8001C85.1994 80.8572 84.601 80.9576 84.0025 81.1076C83.405 81.2439 82.8848 81.4336 82.4216 81.6858C81.9779 81.9353 81.7652 82.2705 81.8241 82.6535C81.8425 82.9417 82.0939 83.136 82.5763 83.2308C83.0394 83.3063 83.5606 83.3505 84.159 83.3505L85.8946 83.2511L87.0528 83.1397L87.3024 84.3117C87.4184 84.8899 87.574 85.4921 87.7655 86.108C87.9579 86.7231 88.1706 87.2442 88.4026 87.7092C88.6558 88.1677 88.9053 88.3739 89.1751 88.3187Z" fill="#E3000B"/>
<path d="M102.16 84.2105C101.717 83.96 101.35 83.5872 101.042 83.1498C100.733 82.6848 100.482 82.1821 100.289 81.6417C100.116 81.1012 99.9816 80.581 99.9236 80.0571L99.8849 79.4789C99.8849 79.2294 99.9429 79.0581 100.04 78.9596C100.329 78.7092 100.695 78.4946 101.12 78.3446C101.526 78.1871 101.912 78.0941 102.259 78.0564C103.262 77.9367 104.11 78.1522 104.825 78.7092C105.54 79.2681 105.945 80.1225 106.079 81.278C106.195 82.2199 106.003 82.9739 105.519 83.5328C105.056 84.0908 104.401 84.425 103.591 84.518C103.068 84.5742 102.585 84.4811 102.16 84.2105ZM103.357 89.3398C104.437 89.2201 105.421 88.9337 106.328 88.513C107.235 88.0673 107.987 87.5076 108.605 86.7922C109.224 86.0823 109.687 85.2159 109.976 84.2105C110.283 83.2041 110.362 82.0689 110.227 80.7937C110.111 79.7496 109.86 78.7653 109.473 77.8207C109.089 76.8723 108.587 76.0621 107.969 75.3716C107.352 74.6571 106.637 74.1342 105.809 73.7511C104.959 73.3801 104.051 73.2484 103.048 73.3617C102.722 73.3985 102.412 73.4593 102.103 73.5559L101.216 73.9012C101.409 73.1729 101.679 72.4575 101.989 71.7596C102.296 71.0884 102.643 70.4283 103.03 69.8132C103.204 69.525 103.455 69.1973 103.763 68.8456L104.65 67.749C104.94 67.3844 105.171 67.0004 105.382 66.6119C105.576 66.2473 105.652 65.8965 105.615 65.589C105.557 65.0485 105.345 64.6655 104.94 64.4326C104.554 64.2005 104.129 64.1066 103.666 64.1444C102.874 64.2392 102.102 64.5882 101.331 65.1664C100.579 65.7621 99.8646 66.518 99.2082 67.4415C98.5517 68.3502 97.9532 69.3869 97.434 70.513C96.8944 71.6473 96.4497 72.8037 96.0823 73.985C95.7168 75.1782 95.447 76.3347 95.2924 77.4579C95.1368 78.5757 95.1193 79.5747 95.2159 80.4668C95.3504 81.6785 95.6211 82.8598 96.0262 83.9775C96.4313 85.0953 96.9717 86.0795 97.6466 86.9293C98.3031 87.7773 99.1317 88.4089 100.077 88.8573C101.041 89.3232 102.122 89.4742 103.357 89.3398Z" fill="#E3000B"/>
<path d="M111.248 69.7589C110.92 69.4891 110.727 69.1429 110.689 68.6973C110.631 68.2544 110.746 67.8705 110.997 67.5169C111.266 67.191 111.595 67.0013 111.981 66.9599C112.386 66.9019 112.752 67.0207 113.08 67.2932C113.426 67.5814 113.62 67.9267 113.678 68.3732C113.717 68.794 113.601 69.2 113.331 69.5296C113.061 69.8749 112.733 70.0692 112.346 70.1069C111.941 70.1419 111.576 70.0287 111.248 69.7589ZM112.424 71.4355C112.81 71.3775 113.138 71.2845 113.466 71.0902C113.794 70.9144 114.064 70.6824 114.295 70.3914C114.508 70.1032 114.681 69.758 114.797 69.386C114.892 69.003 114.932 68.6199 114.874 68.1927C114.834 67.7655 114.72 67.4019 114.527 67.0566C114.333 66.704 114.103 66.4176 113.812 66.1911C113.543 65.9591 113.214 65.7832 112.867 65.67C112.52 65.5724 112.152 65.5346 111.767 65.5724C111.4 65.6295 111.053 65.7289 110.725 65.9241C110.416 66.0935 110.146 66.3265 109.934 66.6146C109.722 66.9028 109.549 67.2306 109.453 67.6201C109.337 68.0031 109.299 68.3925 109.357 68.8133C109.395 69.2405 109.511 69.6042 109.704 69.9559C109.897 70.3021 110.128 70.5894 110.398 70.8223C110.668 71.0553 110.997 71.2256 111.344 71.3416C111.692 71.4355 112.058 71.4732 112.424 71.4355Z" fill="#E3000B"/>
<path d="M124.732 88.048C125.291 87.99 125.888 87.7975 126.548 87.4523C127.201 87.1263 127.782 86.6789 128.322 86.1587C128.843 85.6394 129.268 85.0612 129.594 84.4019C129.923 83.7676 130.059 83.0936 129.983 82.3791C129.923 81.8773 129.732 81.4501 129.383 81.0671C129.035 80.7025 128.652 80.546 128.187 80.5837C127.801 80.6417 127.414 80.7403 127.05 80.8913C126.66 81.0294 126.297 81.2052 125.948 81.394L124.868 81.8967C124.5 82.0532 124.117 82.1471 123.728 82.1849C123.131 82.2419 122.648 82.1094 122.302 81.7199C121.934 81.3553 121.646 80.8912 121.417 80.3296C121.203 79.7726 121.046 79.1741 120.933 78.5416L120.72 76.8962L120.625 75.5271V73.7401C120.644 73.0992 120.682 72.463 120.758 71.8029C120.836 71.1501 120.952 70.5719 121.125 70.0314C121.279 69.5103 121.492 69.0637 121.744 68.7185C122.013 68.3732 122.34 68.1605 122.726 68.1228C123.093 68.085 123.326 68.1983 123.476 68.4487C123.614 68.7185 123.708 69.0637 123.768 69.4707L123.96 70.802C124.038 71.2596 124.154 71.7053 124.346 72.0947C124.519 72.498 124.788 72.8239 125.159 73.056C125.523 73.2889 126.063 73.3644 126.738 73.2889C127.2 73.2511 127.571 73.0753 127.86 72.7678C128.148 72.4796 128.359 72.1141 128.513 71.708C128.67 71.2873 128.764 70.8416 128.802 70.3767C128.842 69.9126 128.842 69.4734 128.782 69.0462C128.689 68.1817 128.513 67.2499 128.243 66.3071C127.973 65.3394 127.609 64.473 127.125 63.7005C126.622 62.9097 126.045 62.2937 125.329 61.8297C124.616 61.3711 123.768 61.1962 122.804 61.2892C121.818 61.4089 120.952 61.7542 120.178 62.3121C119.406 62.8903 118.753 63.6039 118.194 64.473C117.632 65.321 117.17 66.3071 116.803 67.388C116.417 68.468 116.147 69.5858 115.954 70.7229C115.761 71.8655 115.647 73.0025 115.607 74.1019C115.567 75.2196 115.607 76.2251 115.703 77.1485C115.858 78.5443 116.147 79.9116 116.571 81.2641C116.995 82.6314 117.573 83.8458 118.307 84.9074C119.042 85.9662 119.946 86.7976 121.009 87.4007C122.07 87.9909 123.325 88.2238 124.732 88.048Z" fill="#E3000B"/>
<path d="M133.592 85.7121C133.824 85.6744 134.056 85.6164 134.289 85.5022C134.5 85.3825 134.691 85.2527 134.867 85.075C135.021 84.9019 135.155 84.692 135.25 84.4415C135.35 84.2086 135.388 83.9388 135.35 83.6506C135.31 83.2796 135.174 82.9527 134.961 82.683C134.75 82.3939 134.5 82.1803 134.188 81.9851C133.881 81.8138 133.554 81.6969 133.227 81.6205C132.879 81.545 132.568 81.5256 132.26 81.5634C131.799 81.6205 131.356 81.8129 130.929 82.1581C130.505 82.5034 130.332 82.9684 130.389 83.565C130.446 83.9351 130.584 84.262 130.797 84.5318C131.027 84.8024 131.296 85.0345 131.608 85.2297C131.934 85.4175 132.26 85.5556 132.609 85.6329C132.977 85.7121 133.303 85.7305 133.592 85.7121Z" fill="#E3000B"/>
<path d="M58.2476 44.058C58.8829 44.058 59.4233 43.593 59.5007 42.9596L60.0034 38.7528L62.7812 41.0519C63.0132 41.2388 63.3023 41.3401 63.5932 41.3401C63.9403 41.3401 64.3059 41.1835 64.5379 40.8944C64.9808 40.3761 64.9227 39.5824 64.3832 39.1441L60.3698 35.8029L60.8725 31.6771L65.4264 35.9603C65.6777 36.1923 65.9853 36.3056 66.2946 36.3056C66.4484 36.3056 66.6224 36.2678 66.7771 36.2098C67.2402 36.0155 67.5284 35.5718 67.5284 35.069L67.626 28.7612L71.0207 31.3052L70.6735 36.4639C70.6358 37.1545 71.1551 37.7493 71.8511 37.7953H71.9276C72.584 37.7953 73.1236 37.2926 73.1613 36.6306L73.3933 33.0822L76.788 35.6261C77.02 35.801 77.2714 35.8765 77.5421 35.8765C77.9076 35.8765 78.2943 35.7052 78.5245 35.3802C78.9499 34.8407 78.8339 34.0489 78.2943 33.6382L74.8794 31.0695L78.2759 29.8219C78.9305 29.5899 79.2583 28.8745 79.0088 28.2207C78.7768 27.5615 78.0632 27.2347 77.4067 27.486L72.5067 29.3008L69.1682 26.7946L75.1096 24.9992C75.5929 24.862 75.94 24.4421 75.998 23.956C76.0561 23.4726 75.824 22.9883 75.4005 22.7186L69.9968 19.5154L74.0876 17.7642L78.3901 20.6607C78.6037 20.7924 78.8339 20.8679 79.0852 20.8679C79.4903 20.8679 79.8761 20.6801 80.1265 20.3118C80.5123 19.7336 80.3586 18.9611 79.7794 18.5781L76.8276 16.6032L80.5519 15.0269C81.1881 14.7562 81.4763 14.0215 81.2065 13.3816C80.9368 12.7481 80.2048 12.4793 79.5677 12.7279L75.8434 14.3106L76.4621 10.7622C76.5772 10.0642 76.1131 9.43078 75.4383 9.31108C74.745 9.17942 74.1069 9.63794 73.9927 10.3349L73.1052 15.4661L69.0338 17.2062L70.4609 11.1452C70.5769 10.6424 70.4029 10.1397 69.9977 9.85155C69.612 9.56337 69.0715 9.52562 68.6286 9.75672L63.1485 12.8218L63.6881 8.36828L68.3957 6.08675C69.0126 5.79857 69.2823 5.04358 68.9748 4.42855C68.6857 3.81259 67.9326 3.5428 67.3148 3.85032L64.0536 5.43302L64.537 1.40121C64.6327 0.722641 64.1319 0.0882719 63.457 0.0127732C62.7609 -0.0875848 62.144 0.415135 62.0667 1.10935L61.5852 5.10619L58.8644 2.82373C58.3433 2.37994 57.5515 2.45912 57.1086 2.98116C56.6639 3.50229 56.7229 4.29412 57.2624 4.7333L61.2178 8.05524L60.6782 12.4876L56.1244 8.22282C55.7773 7.87663 55.2368 7.80203 54.793 7.98986C54.3299 8.18505 54.0408 8.63069 54.0224 9.11499L53.946 15.3639L50.415 12.7196L50.7805 7.49359C50.8386 6.81594 50.3174 6.21842 49.6232 6.16318C48.9087 6.11898 48.3499 6.62167 48.2919 7.31865L48.0405 10.9233L44.7996 8.49259C44.2407 8.08932 43.4489 8.2044 43.0438 8.7421C42.6387 9.30005 42.7538 10.0725 43.2951 10.4997L46.5176 12.912L43.1985 14.1237C42.542 14.3557 42.2142 15.0711 42.4462 15.7239C42.6387 16.2275 43.1027 16.535 43.622 16.535L44.0474 16.477L48.9087 14.7L52.459 17.3627L46.4403 19.1802C45.9772 19.3377 45.6282 19.7373 45.5721 20.2234C45.5141 20.7252 45.7452 21.2068 46.1687 21.4609L51.5337 24.6447L47.6741 26.2836L43.3513 23.3483C42.7924 22.9589 42.0218 23.0988 41.6167 23.6752C41.23 24.2313 41.3846 25.0047 41.9629 25.4089L44.9524 27.4372L41.0366 29.0954C40.3995 29.3652 40.1104 30.1009 40.3801 30.7343C40.5735 31.2158 41.0366 31.4856 41.5181 31.4856C41.6922 31.4856 41.8459 31.4663 42.0209 31.3917L45.9173 29.7326L45.2802 33.2249C45.1642 33.8961 45.608 34.5553 46.3022 34.6676L46.5158 34.6869C47.1143 34.6869 47.6335 34.2597 47.7496 33.6631L48.6574 28.5697L52.5336 26.9115L51.1065 33.0481C50.9905 33.5314 51.1645 34.0332 51.5696 34.3233C51.9554 34.6308 52.4958 34.6685 52.9203 34.419L58.3811 31.3715L57.8793 35.4963L53.249 37.7769C52.6321 38.0853 52.3614 38.8375 52.6699 39.4535C52.9792 40.0685 53.7314 40.3199 54.3502 40.0114L57.5331 38.4481L57.012 42.6557C56.9355 43.3269 57.4171 43.9687 58.092 44.0442H58.2476V44.058Z" fill="#E3000B"/>
<path d="M21.1038 124.821C55.313 109.604 93.0927 103.619 130.35 107.556C131.373 107.652 132.297 106.923 132.416 105.879C132.529 104.858 131.775 103.928 130.735 103.814C92.8405 99.8184 54.3867 105.901 19.58 121.395C18.6335 121.815 18.1906 122.913 18.6142 123.881C18.9419 124.573 19.6177 125 20.3506 125C20.6029 124.998 20.8543 124.939 21.1038 124.821Z" fill="#E3000B"/>
<path d="M21.1038 124.821C55.313 109.604 93.0927 103.619 130.35 107.556C131.373 107.652 132.297 106.923 132.416 105.879C132.529 104.858 131.775 103.928 130.735 103.814C92.8405 99.8184 54.3867 105.901 19.58 121.395C18.6335 121.815 18.1906 122.913 18.6142 123.881C18.9419 124.573 19.6177 125 20.3506 125C20.6029 124.998 20.8543 124.939 21.1038 124.821Z" fill="#F7A600"/>
</svg>
