<svg width="132" height="126" viewBox="0 0 132 126" fill="none" xmlns="http://www.w3.org/2000/svg">
<path d="M127.59 26.3887C122.052 26.7439 117.11 30.4864 114.255 35.4543H113.803C113.846 34.8105 113.929 34.1709 114.194 33.5554C116.223 28.8521 119.204 25.8128 120.77 23.5475C121.68 22.2274 118.341 23.5235 116.98 24.3059C114.485 25.7336 109.639 30.3803 106.887 35.4543H106.433C107.061 33.5597 107.859 31.7004 108.832 29.7987C111.014 25.5426 116.196 19.9281 119.822 16.7261C120.472 16.1516 116.033 16.9171 110.979 21.2341C106.785 24.4885 103.606 28.6498 101.118 33.2045L100.439 32.715C101.321 30.1949 102.368 27.6042 103.307 26.0109C103.659 25.4138 99.6226 28.1588 96.8409 31.5943C96.739 31.4684 96.6612 31.3298 96.5452 31.2123C96.0669 30.7369 95.2561 30.2628 94.2515 29.8101C91.1669 28.4178 86.2458 27.2179 83.4682 26.751C84.9822 25.7732 86.4891 24.6724 87.9564 23.4754C91.3778 20.6893 99.1217 13.6981 97.145 8.94955C96.6073 7.66336 95.2957 6.12812 92.1036 6.12812C91.7187 6.12812 91.3084 6.15218 90.8881 6.19604C84.2421 6.9021 79.679 11.7809 76.9383 14.714C76.3907 15.2984 75.7695 15.962 75.4865 16.1827C75.3436 16.2931 75.1893 16.4119 75.021 16.5393C75.1568 15.7498 75.2997 14.9404 75.4653 14.1084C76.2831 10.0433 75.5643 5.98099 73.5424 3.24024C72.1812 1.39515 70.3036 0.264607 68.2533 0.0566099C68.0383 0.0339708 67.6972 0 67.2798 0C65.6936 0 64.3565 0.479683 63.3024 1.42345C60.9918 3.49635 60.5475 7.25584 60.5051 13.9117C60.4994 14.6433 60.5178 15.3663 60.5588 16.0724C56.8955 12.8039 52.2008 9.50701 50.5113 8.6538C49.3497 8.06518 48.321 7.77797 47.3687 7.77797C46.2113 7.77797 45.276 8.21236 44.4496 8.63826C44.0577 8.83918 43.687 9.02734 43.1508 9.19572C41.5561 9.6952 40.4043 10.8541 39.9898 12.3765C38.9484 16.2323 43.1762 20.8648 44.5742 22.3958C45.5915 23.5093 48.0054 25.8638 50.9471 28.0513C49.9949 28.1744 48.9662 28.3258 47.8271 28.5111C45.8292 28.8352 44.2587 29.3432 42.9994 29.9558C41.7033 30.5855 40.7468 31.3297 40.0223 32.1051L40.0095 32.0995C39.4676 30.7241 38.6809 29.2639 37.5943 27.5278C36.1652 25.2384 34.8309 24.2196 34.5352 24.7729C34.3979 25.029 36.458 30.369 35.0233 32.7673C34.4998 28.6994 32.134 24.4545 28.4 21.4237C27.9528 21.0601 27.3755 21.5241 27.7391 21.9246C27.8622 22.0604 30.1361 28.5409 29.8672 35.3086C28.2599 30.9788 25.8021 25.7535 23.3854 22.9787C22.6241 22.1043 17.2261 16.7742 17.8912 17.8651C20.5442 22.2217 24.6461 28.2678 24.9008 34.7256C23.2863 31.7485 17.3223 24.4956 10.5391 22.8443C9.81322 22.6675 10.5066 23.9126 11.023 24.4842C13.9689 27.757 16.1819 31.0425 17.6832 35.4557H17.2021C14.0807 32.7687 8.94586 29.3474 5.28822 28.7758C4.43643 28.6427 4.88496 29.0432 6.61685 30.4623C7.9752 31.5731 9.76227 33.3389 10.4273 37.131V125.779H119.156V47.7431C119.29 46.9521 119.309 45.9914 119.186 44.7957C119.163 44.5821 119.172 44.3826 119.156 44.1718V41.4282C119.879 31.4896 128.263 26.3449 127.59 26.3887ZM105.032 89.1175C105.335 89.3637 105.667 89.617 106.03 89.8774C106.393 90.1405 106.726 90.456 107.027 90.8296C107.331 91.2017 107.48 91.721 107.48 92.3875C107.48 93.0369 107.303 93.675 106.948 94.3019C106.593 94.9287 106.129 95.4819 105.557 95.9658C104.985 96.4497 104.344 96.8417 103.631 97.1431C102.921 97.443 102.208 97.5944 101.492 97.5944C101.213 97.5944 100.926 97.5732 100.63 97.535C100.334 97.4954 100.068 97.419 99.8321 97.3086C99.5972 97.1983 99.4062 97.0426 99.2576 96.8459C99.1104 96.6464 99.0369 96.3988 99.0369 96.0975C99.0369 95.6687 99.1317 95.332 99.3241 95.0858C99.5151 94.841 99.7556 94.65 100.043 94.517C100.33 94.3811 100.64 94.275 100.971 94.1944C101.302 94.1151 101.612 94.0203 101.899 93.9099C102.187 93.7996 102.427 93.651 102.618 93.4685C102.811 93.2874 102.905 93.0213 102.905 92.6718C102.905 92.3393 102.767 91.9983 102.488 91.6488C102.209 91.3008 101.899 90.9315 101.56 90.5438C101.22 90.1561 100.905 89.7358 100.617 89.2831C100.33 88.8303 100.186 88.3365 100.186 87.7974C100.186 87.1309 100.334 86.514 100.63 85.9424C100.926 85.3708 101.326 84.8769 101.833 84.4553C102.338 84.0365 102.919 83.7067 103.572 83.469C104.224 83.2313 104.9 83.1125 105.599 83.1125C105.878 83.1125 106.15 83.138 106.409 83.1846C106.672 83.2313 106.907 83.3162 107.116 83.4351C107.324 83.554 107.491 83.711 107.614 83.9105C107.736 84.1086 107.797 84.3506 107.797 84.6364C107.797 85.0793 107.631 85.4132 107.299 85.6339C106.968 85.856 106.597 86.0626 106.188 86.2523C105.778 86.4433 105.407 86.6697 105.077 86.93C104.746 87.1918 104.579 87.5837 104.579 88.1073C104.579 88.5346 104.732 88.8713 105.032 89.1175ZM95.0863 85.375C95.3821 85.0892 95.7485 84.9463 96.1829 84.9463C96.6357 84.9463 96.9837 85.1557 97.2299 85.5759C97.4733 85.9961 97.653 86.4843 97.7662 87.0375C97.8794 87.5936 97.9445 88.1426 97.9629 88.6902C97.9798 89.2378 97.9883 89.6453 97.9883 89.9141C97.9883 90.1363 97.9883 90.3655 97.9883 90.6032C97.9883 90.8409 97.9798 91.0702 97.9629 91.2923C97.9629 91.547 97.9573 91.895 97.9488 92.3379C97.9403 92.7808 97.9218 93.2605 97.8964 93.7769C97.8709 94.292 97.8129 94.8099 97.7266 95.3348C97.6389 95.8569 97.5129 96.3337 97.346 96.7611C97.1804 97.1898 96.9597 97.5421 96.6795 97.8194C96.3994 98.0967 96.0442 98.2439 95.607 98.2595C95.2759 98.275 95.0015 98.1576 94.7836 97.9029C94.5657 97.6497 94.3873 97.3285 94.2473 96.9393C94.1072 96.5502 94.0025 96.1158 93.9332 95.6319C93.8624 95.148 93.81 94.6726 93.7775 94.2057C93.7421 93.7373 93.7251 93.3128 93.7251 92.9336C93.7251 92.5544 93.7251 92.2672 93.7251 92.079C93.7251 91.8243 93.7251 91.472 93.7251 91.0206C93.7251 90.5692 93.7421 90.0783 93.7775 89.5462C93.81 89.0156 93.8709 88.4808 93.96 87.9417C94.0477 87.4026 94.1808 86.9102 94.3647 86.4673C94.5487 86.0245 94.7892 85.6594 95.0863 85.375ZM94.5104 82.521C94.5104 82.2833 94.5713 82.0739 94.6916 81.8914C94.8133 81.7089 94.9731 81.5589 95.1726 81.44C95.3721 81.3212 95.5872 81.2334 95.8221 81.1783C96.0541 81.1231 96.2834 81.0934 96.5084 81.0934C96.8197 81.0934 97.1096 81.1655 97.3771 81.3084C97.6445 81.4514 97.7789 81.6891 97.7789 82.0201C97.7789 82.2267 97.7138 82.4206 97.5837 82.6031C97.4535 82.7856 97.2908 82.9398 97.0913 83.0672C96.8918 83.1945 96.6753 83.2922 96.4419 83.3643C96.2084 83.4351 95.9891 83.4705 95.7796 83.4705C95.4528 83.4705 95.157 83.3912 94.8967 83.2327C94.6406 83.0757 94.5104 82.8394 94.5104 82.521ZM96.5182 74.8563C96.1758 74.303 95.9678 73.6323 95.8956 72.8442C95.8235 72.0561 95.7853 71.1774 95.7853 70.2054C95.7853 69.4512 95.8136 68.6843 95.8688 67.9046C95.924 67.125 95.9975 66.2916 96.0895 65.4016C95.8306 65.4016 95.6339 65.4073 95.4953 65.4157C95.3552 65.4242 95.2406 65.4271 95.1486 65.4271C94.56 65.4271 94.0577 65.3153 93.6431 65.0889C93.2285 64.8639 93.0219 64.5074 93.0219 64.0206C93.0219 63.7192 93.1408 63.4546 93.3813 63.2268C93.6204 63.0019 93.9303 62.8038 94.3067 62.6368C94.6859 62.4698 95.0948 62.3397 95.5377 62.2477C95.9805 62.1557 96.4036 62.0935 96.8097 62.0581C96.7899 61.6067 96.8182 61.0988 96.8932 60.5384C96.9654 59.9781 97.0998 59.4574 97.2937 58.9792C97.4875 58.5009 97.7493 58.0991 98.0818 57.7708C98.4129 57.4454 98.8275 57.2812 99.3269 57.2812C99.6213 57.2812 99.8802 57.3605 100.101 57.5189C100.323 57.6788 100.503 57.8755 100.641 58.1104C100.78 58.3453 100.885 58.6099 100.96 58.9028C101.033 59.1971 101.07 59.4843 101.07 59.7701C101.07 60.0715 101.042 60.3984 100.987 60.7493C100.931 61.1016 100.83 61.5289 100.682 62.0312C100.995 61.9987 101.207 61.9775 101.318 61.969C101.428 61.9605 101.529 61.9562 101.622 61.9562C101.935 61.9562 102.257 61.9817 102.59 62.0312C102.921 62.0821 103.226 62.1614 103.504 62.2703C103.781 62.3793 104.005 62.5265 104.182 62.7118C104.356 62.8972 104.445 63.1222 104.445 63.3896C104.445 63.6924 104.315 63.9541 104.059 64.1819C103.798 64.4083 103.473 64.605 103.076 64.7734C102.68 64.9404 102.252 65.0705 101.79 65.1625C101.329 65.2531 100.906 65.3167 100.52 65.3507C100.426 66.0228 100.357 66.6411 100.313 67.2099C100.266 67.7801 100.206 68.3433 100.132 68.8951C100.095 69.1795 100.067 69.4696 100.048 69.7625C100.03 70.0554 100.02 70.344 100.02 70.6284C100.02 70.8294 100.03 71.077 100.048 71.3699C100.067 71.6627 100.132 71.9387 100.244 72.199C100.354 72.4594 100.523 72.6815 100.755 72.8655C100.984 73.0508 101.302 73.1414 101.708 73.1414C101.966 73.1414 102.233 73.1216 102.509 73.0791C102.785 73.0381 103.054 73.0168 103.311 73.0168C103.791 73.0168 104.131 73.1668 104.336 73.4682C104.538 73.771 104.64 74.146 104.64 74.6002C104.64 74.9511 104.53 75.2496 104.309 75.493C104.088 75.7364 103.801 75.9401 103.451 76.1099C103.102 76.2755 102.717 76.3986 102.303 76.475C101.888 76.55 101.488 76.5882 101.1 76.5882C99.8278 76.5882 98.8303 76.4368 98.1129 76.1354C97.3955 75.834 96.8578 75.4095 96.5182 74.8563ZM32.4113 89.6764C32.3688 89.1373 32.3462 88.5911 32.3462 88.0365C32.3462 87.704 32.3646 87.3319 32.3986 86.9187C32.4325 86.507 32.5302 86.115 32.6858 85.7429C32.8429 85.3693 33.0693 85.0623 33.3664 84.8161C33.6622 84.5699 34.0711 84.4468 34.5946 84.4468C34.8903 84.4468 35.1393 84.5303 35.3388 84.6972C35.5398 84.8628 35.7053 85.0736 35.8369 85.3255C35.9671 85.5802 36.0675 85.849 36.1383 86.1334C36.2076 86.4192 36.2515 86.6739 36.2684 86.8947C36.6689 86.2919 37.1231 85.8023 37.6282 85.4202C38.1333 85.0396 38.7969 84.8345 39.6148 84.8019C40.0166 84.7864 40.4214 84.8217 40.8317 84.908C41.2406 84.9972 41.6127 85.1344 41.9424 85.324C42.2721 85.5151 42.5494 85.7655 42.7673 86.0725C42.9838 86.3824 43.1013 86.7503 43.1197 87.179C43.1381 87.67 42.9668 88.0464 42.6102 88.3082C42.2522 88.5699 41.8193 88.7086 41.3156 88.7242C41.0892 88.7397 40.8826 88.7199 40.7001 88.6647C40.5175 88.6095 40.3464 88.5501 40.1907 88.4865C40.0351 88.4228 39.8808 88.3676 39.7337 88.3195C39.5851 88.2728 39.4238 88.2488 39.2497 88.2488C38.9186 88.2643 38.613 88.3478 38.3357 88.4978C38.0569 88.6492 37.8121 88.843 37.6027 89.0807C37.3933 89.3184 37.2137 89.583 37.0665 89.8774C36.9179 90.1717 36.8005 90.4518 36.7128 90.7221C36.6604 90.8975 36.6222 91.1734 36.5939 91.5541C36.5685 91.9361 36.5472 92.3478 36.5302 92.7907C36.5302 93.2194 36.5302 93.6397 36.5302 94.0514C36.5302 94.4632 36.5104 94.7886 36.4779 95.0249C36.4595 95.2796 36.4156 95.5682 36.3463 95.8923C36.2755 96.2177 36.168 96.5262 36.0195 96.819C35.8723 97.1133 35.6756 97.3638 35.4308 97.5676C35.1874 97.7742 34.8818 97.8774 34.5168 97.8774C34.221 97.8774 33.9663 97.7982 33.7583 97.6397C33.5503 97.4813 33.3706 97.2704 33.222 97.0101C33.0735 96.7497 32.9561 96.4512 32.8698 96.1187C32.7806 95.7861 32.7127 95.4381 32.6603 95.073C32.608 94.708 32.5698 94.3387 32.5429 93.9679C32.516 93.5944 32.5033 93.2378 32.5033 92.8982C32.5033 92.5572 32.5033 92.2474 32.5033 91.97C32.5033 91.6941 32.5033 91.4748 32.5033 91.3164C32.4863 90.7617 32.4551 90.2141 32.4113 89.6764ZM27.4562 86.5381C28.1354 86.3159 28.7806 86.2056 29.3904 86.2056C29.8956 86.2056 30.303 86.3004 30.6058 86.4914C30.9114 86.681 31.0643 87.005 31.0643 87.4649C31.0643 87.9714 30.8676 88.4284 30.4757 88.8317C30.0837 89.2364 29.6041 89.5929 29.0367 89.9028C28.4693 90.2113 27.8821 90.473 27.2723 90.6867C26.661 90.9004 26.1375 91.0715 25.7031 91.1975C25.7031 91.7054 25.6946 92.2092 25.6762 92.7072C25.6578 93.2053 25.6323 93.709 25.5969 94.2156C25.58 94.4533 25.5502 94.7631 25.5063 95.1423C25.4639 95.5244 25.3805 95.888 25.2602 96.2361C25.1385 96.5842 24.9602 96.8856 24.7268 97.1403C24.4919 97.3935 24.1849 97.5209 23.8042 97.5209C23.459 97.5209 23.1547 97.3638 22.8944 97.0454C22.634 96.7285 22.4133 96.3196 22.2308 95.8215C22.0483 95.3206 21.9067 94.7674 21.802 94.1561C21.6987 93.5463 21.6153 92.9478 21.5559 92.3605C21.495 91.7748 21.4596 91.2357 21.4512 90.7433C21.4427 90.2523 21.4384 89.8731 21.4384 89.6029C21.4384 89.3015 21.4427 88.7977 21.4512 88.0931C21.4596 87.3884 21.4809 86.6499 21.5176 85.8815C21.5502 85.1132 21.6068 84.3916 21.686 83.7181C21.7638 83.0445 21.8629 82.5805 21.9846 82.3286C22.1756 81.9961 22.6199 81.6622 23.3217 81.3297C24.0235 80.9971 24.806 80.7 25.6649 80.4368C26.5252 80.1765 27.3698 79.9671 28.199 79.8072C29.0253 79.6501 29.6578 79.5695 30.0951 79.5695C30.2861 79.5695 30.487 79.5836 30.695 79.6048C30.9044 79.6303 31.0925 79.6813 31.2581 79.7591C31.4236 79.8397 31.5595 79.9501 31.6628 80.0916C31.7661 80.2331 31.8185 80.4156 31.8185 80.6391C31.8185 81.2263 31.5978 81.7612 31.152 82.2437C30.7078 82.7276 30.163 83.1564 29.5177 83.5271C28.8725 83.9006 28.2005 84.2246 27.5043 84.502C26.8067 84.7793 26.2054 85.0127 25.7002 85.2024C25.7002 85.5349 25.6918 85.873 25.6734 86.214C25.655 86.5536 25.6295 86.8918 25.5941 87.2243C26.1572 86.9895 26.777 86.7602 27.4562 86.5381ZM52.4002 53.1326C51.9149 53.9122 50.9018 53.5911 50.7221 52.8935C50.6754 52.711 50.6712 52.51 50.7632 52.2865C52.3465 48.8368 54.425 45.6674 56.7073 42.6549C58.3274 40.5424 60.0367 38.5035 61.8011 36.5141C62.1166 36.1589 62.4322 35.8038 62.7548 35.4529C63.1764 34.993 63.5726 34.5091 64.007 34.0592C64.4711 33.5894 65.2112 34.2176 64.8051 34.7539C64.624 34.9817 64.4584 35.2236 64.2787 35.4529C63.9759 35.8391 63.6887 36.241 63.3915 36.6315C61.3356 39.3256 59.3547 42.0847 57.5238 44.9316C55.8443 47.5181 54.0586 50.3296 52.4908 52.9798C52.4611 53.0321 52.4314 53.0831 52.4002 53.1326ZM72.2293 37.2824C73.6146 38.8445 75.0875 40.9287 76.0015 43.3228C77.3839 46.9352 79.0437 50.1301 78.1268 52.4379C77.9683 52.8355 77.7872 53.2232 77.5608 53.543C76.9566 54.3976 76.0086 54.774 74.206 53.618C73.8055 53.359 73.3669 53.035 72.8773 52.6134C69.3428 49.584 65.8663 43.3299 65.8054 38.7978C65.7941 38.0055 65.8182 37.3574 65.8663 36.8141C65.9158 36.2495 65.9936 35.8038 66.0927 35.4543C66.4436 34.219 67.052 34.161 67.5996 34.1002C68.4528 34.0068 68.999 34.3323 69.906 35.0468C70.0531 35.1642 70.2229 35.3114 70.3885 35.4543C70.9389 35.9325 71.5686 36.5424 72.2293 37.2824ZM94.3421 35.4217C94.335 35.4331 94.3265 35.4444 94.3195 35.4543C94.0634 35.8307 93.7039 36.2141 93.2483 36.5891C92.3314 37.3404 91.041 38.0493 89.4704 38.5545C87.2094 39.2803 83.645 38.7936 80.3312 37.8795C77.8664 37.2003 75.5488 36.2849 74.0022 35.4543C73.9442 35.4232 73.8748 35.3892 73.8168 35.3581C70.5497 33.5455 70.2002 32.9399 70.2243 32.3018C70.2257 32.2495 70.2257 32.1971 70.2314 32.1433C70.3021 31.4401 70.6474 30.4694 71.6675 29.9785C72.8844 29.3898 78.5852 29.3502 81.7929 29.5879C83.9875 29.7507 89.36 31.0977 92.3908 32.3032C93.3558 32.6867 94.0873 33.0545 94.4 33.3658C94.7099 33.6757 94.8118 34.0606 94.7425 34.4851C94.6958 34.7808 94.5572 35.0963 94.3421 35.4217ZM73.1207 28.255C71.3831 28.6993 69.8479 28.0598 69.9767 26.7779C70.3106 23.5192 75.2771 20.1998 77.3557 18.5754C79.4342 16.9511 84.0625 9.97254 91.2079 9.21554C98.352 8.45996 92.3484 15.979 86.0391 21.1195C79.7313 26.26 74.854 27.8107 73.1207 28.255ZM72.4882 13.5085C71.4016 18.9136 71.4284 23.0098 67.2826 26.1468C67.2826 26.1468 63.4807 23.1796 63.5415 13.9301C63.5996 4.68064 64.5985 2.73653 67.9449 3.07753C71.2954 3.41995 73.5749 8.10056 72.4882 13.5085ZM64.2065 28.7616C63.5769 29.6261 63.2996 29.7308 61.6441 29.7393C57.4601 29.7648 50.2637 24.1149 46.8169 20.3455C43.3715 16.5733 41.4826 12.8972 44.0592 12.0935C46.6358 11.2898 46.6754 10.1126 49.1416 11.3606C51.6065 12.61 60.706 19.4003 62.4223 22.5896C64.14 25.7775 64.8348 27.8928 64.2065 28.7616ZM60.3876 31.2279C61.5309 31.4627 62.1591 31.8278 62.3685 32.3018C62.5284 32.6626 62.4548 33.0843 62.1421 33.5696C61.7983 34.1087 61.1983 34.6577 60.0395 35.4543C59.6773 35.7033 59.2386 35.9863 58.7576 36.292C57.7261 36.9428 56.4286 37.7281 54.7123 38.7398C49.5888 41.7678 42.7829 44.7349 40.8388 43.736C38.8946 42.737 38.6696 40.5778 39.9516 38.4851C40.4652 37.6432 40.7269 36.5438 41.3283 35.4529C41.7145 34.7511 42.2522 34.0549 43.0899 33.4295C44.0025 32.7489 45.2717 32.1546 47.121 31.7386C47.4974 31.6537 47.8908 31.5759 48.3167 31.5066C55.7353 30.3095 57.5648 30.6491 60.3876 31.2279ZM30.6271 76.2868C29.9068 76.5556 29.1612 76.6915 28.3872 76.6915C27.8707 76.6915 27.377 76.5783 26.9072 76.3519C26.436 76.1269 26.0214 75.8326 25.662 75.4732C25.3027 75.1124 25.0168 74.7063 24.8059 74.2549C24.5937 73.8021 24.4876 73.3479 24.4876 72.8952C24.4876 72.107 24.7536 71.4222 25.2884 70.8336C25.8233 70.2478 26.477 69.7441 27.2524 69.3267C28.0278 68.9093 28.8471 68.5768 29.713 68.3334C30.5804 68.09 31.3543 67.9273 32.0378 67.8438C32.0378 67.7589 32.0406 67.6896 32.0519 67.6301C32.0604 67.5707 32.0661 67.5 32.0661 67.4165C32.0661 66.9142 31.9147 66.5024 31.6104 66.1841C31.3048 65.8657 30.8761 65.7073 30.3229 65.7073C29.88 65.7073 29.4937 65.778 29.1626 65.9209C28.8315 66.0638 28.5174 66.218 28.2231 66.385C27.9274 66.5534 27.6415 66.709 27.3656 66.8505C27.0897 66.992 26.7671 67.0642 26.3964 67.0642C26.0101 67.0642 25.6733 66.951 25.3875 66.7246C25.1017 66.4982 24.9588 66.201 24.9588 65.8317C24.9588 65.2955 25.1385 64.8087 25.4979 64.3729C25.8573 63.9385 26.2987 63.5664 26.8251 63.2552C27.35 62.9439 27.926 62.7061 28.5542 62.5378C29.1796 62.3708 29.7527 62.2859 30.2677 62.2859C31.2638 62.2859 32.2132 62.4995 33.1174 62.9269C34.0215 63.3542 34.6936 63.9951 35.1365 64.8484C35.4506 65.4525 35.7039 66.0921 35.8978 66.7699C36.0916 67.4476 36.243 68.1438 36.3533 68.8541C36.4637 69.5672 36.5373 70.2775 36.5741 70.9906C36.6094 71.7024 36.6293 72.3928 36.6293 73.0635C36.6293 73.3649 36.6151 73.7498 36.5882 74.2181C36.5599 74.6879 36.4821 75.1477 36.3533 75.6005C36.2232 76.0533 36.0251 76.4439 35.7591 76.7693C35.4917 77.0947 35.1181 77.2603 34.6385 77.2603C33.9734 77.2603 33.4626 77.0622 33.1032 76.6702C32.7438 76.2755 32.5727 75.7859 32.5925 75.1987C31.9996 75.6529 31.3458 76.0165 30.6271 76.2868ZM41.6481 76.2642C40.8826 75.8453 40.2742 75.2921 39.8242 74.6044C39.3714 73.9168 39.0488 73.1371 38.855 72.2669C38.6611 71.3967 38.5649 70.5152 38.5649 69.6281C38.5649 69.1413 38.5932 68.6517 38.6484 68.1565C38.7036 67.6627 38.7956 67.1717 38.9243 66.685C38.9795 66.4175 39.0856 66.0539 39.2426 65.5926C39.3983 65.1328 39.5978 64.6758 39.8384 64.223C40.0761 63.7702 40.3534 63.3797 40.6675 63.0542C40.9802 62.7274 41.3311 62.5618 41.7174 62.5618C42.0867 62.5618 42.3782 62.6552 42.5891 62.8377C42.7999 63.0231 42.9668 63.2495 43.0871 63.5169C43.2074 63.7843 43.2852 64.0702 43.3234 64.3716C43.3588 64.6743 43.3786 64.9502 43.3786 65.2021C43.3786 65.587 43.346 65.9563 43.2824 66.3086C43.2159 66.6595 43.1564 67.0217 43.1013 67.3896C43.0093 67.8764 42.9357 68.3659 42.8805 68.8598C42.8253 69.355 42.797 69.8445 42.797 70.3313C42.797 70.5661 42.8112 70.8379 42.838 71.1477C42.8663 71.459 42.9342 71.7519 43.0446 72.0278C43.155 72.3037 43.3106 72.5344 43.5158 72.7197C43.7181 72.9037 43.9941 72.9956 44.345 72.9956C44.8232 72.9956 45.1982 72.8782 45.4642 72.6433C45.7316 72.4084 45.934 72.1198 46.0726 71.776C46.2127 71.4321 46.299 71.0671 46.3372 70.6836C46.374 70.2973 46.3924 69.9464 46.3924 69.6281C46.3924 68.9064 46.3372 68.1933 46.2269 67.4901C46.1151 66.7868 46.016 66.0822 45.9212 65.3776C45.9028 65.2941 45.8929 65.1766 45.8929 65.0266C45.8929 64.7918 45.9396 64.5527 46.0316 64.3093C46.125 64.0673 46.2537 63.8438 46.4193 63.6428C46.5848 63.4419 46.7829 63.2778 47.0135 63.1519C47.2442 63.0259 47.5074 62.9636 47.8031 62.9636C48.4116 62.9636 48.8997 63.2354 49.2676 63.7801C49.6369 64.3263 49.9227 64.9587 50.125 65.6775C50.3288 66.3991 50.466 67.1236 50.5396 67.8523C50.6132 68.5824 50.6499 69.1399 50.6499 69.5248C50.6499 70.4318 50.5495 71.3231 50.3458 72.2032C50.142 73.0833 49.8052 73.8729 49.3354 74.5662C48.8657 75.2624 48.2389 75.8241 47.4564 76.2514C46.6711 76.6787 45.699 76.8924 44.5374 76.8924C43.3757 76.8924 42.4135 76.683 41.6481 76.2642ZM50.118 87.6078C49.8307 87.3064 49.4246 87.1564 48.9025 87.1564C48.4837 87.1564 48.1172 87.2243 47.8031 87.3601C47.4904 87.4946 47.1932 87.6403 46.9145 87.8002C46.6357 87.9601 46.3655 88.1058 46.1037 88.2402C45.8419 88.3761 45.5377 88.4426 45.1897 88.4426C44.8232 88.4426 44.5048 88.3364 44.2346 88.1214C43.9643 87.9063 43.8299 87.6262 43.8299 87.2767C43.8299 86.7701 43.9998 86.3103 44.3393 85.8971C44.6789 85.4853 45.0978 85.133 45.5958 84.8402C46.0925 84.5473 46.6358 84.3209 47.2287 84.1624C47.8215 84.0053 48.362 83.9247 48.8502 83.9247C49.7911 83.9247 50.6895 84.1284 51.5428 84.5317C52.396 84.9349 53.0342 85.5419 53.453 86.3485C53.7487 86.9187 53.9892 87.5243 54.1731 88.1652C54.3557 88.8062 54.4986 89.4642 54.6047 90.1377C54.7108 90.8112 54.7788 91.4833 54.8127 92.1568C54.8467 92.8303 54.8651 93.4841 54.8651 94.1165C54.8651 94.4024 54.8523 94.7674 54.8254 95.2103C54.8 95.6531 54.7264 96.089 54.6047 96.5163C54.4816 96.945 54.2949 97.3129 54.0416 97.6213C53.7898 97.9312 53.436 98.0854 52.9832 98.0854C52.3563 98.0854 51.8725 97.8987 51.5329 97.5251C51.1933 97.153 51.032 96.6889 51.0489 96.1356C50.49 96.5672 49.8717 96.9096 49.1911 97.1657C48.5105 97.4218 47.8045 97.5492 47.0729 97.5492C46.5848 97.5492 46.1179 97.443 45.6736 97.228C45.2293 97.0129 44.8359 96.737 44.4963 96.396C44.1568 96.055 43.8852 95.6701 43.6871 95.2428C43.4847 94.8155 43.3857 94.3882 43.3857 93.9594C43.3857 93.2152 43.6389 92.5657 44.1441 92.0097C44.6492 91.455 45.2689 90.9796 46.0019 90.5834C46.7334 90.1872 47.5087 89.8745 48.3294 89.6439C49.1487 89.4147 49.8817 89.2604 50.5269 89.1812C50.5269 89.102 50.5311 89.034 50.5396 88.9789C50.5481 88.9237 50.5537 88.8557 50.5537 88.7751C50.5495 88.2968 50.4052 87.9092 50.118 87.6078ZM80.3653 66.1813C80.0611 65.8629 79.6323 65.7044 79.0805 65.7044C78.6376 65.7044 78.2499 65.7752 77.9188 65.9181C77.5877 66.061 77.2736 66.2152 76.9778 66.3822C76.6835 66.5506 76.3977 66.7062 76.1218 66.8477C75.8459 66.9892 75.5218 67.0614 75.154 67.0614C74.7677 67.0614 74.4295 66.9481 74.1437 66.7217C73.8579 66.4954 73.715 66.1982 73.715 65.8289C73.715 65.2927 73.8947 64.8059 74.2541 64.3701C74.6149 63.9357 75.0563 63.5636 75.5813 63.2523C76.1062 62.941 76.6821 62.7033 77.3089 62.5349C77.9358 62.368 78.5088 62.2831 79.0253 62.2831C80.02 62.2831 80.9694 62.4967 81.8736 62.924C82.7763 63.3514 83.4498 63.9923 83.8927 64.8455C84.2068 65.4497 84.4587 66.0893 84.6525 66.767C84.8464 67.4448 84.9977 68.1409 85.1095 68.8512C85.2199 69.5644 85.2935 70.2747 85.3303 70.9878C85.3671 71.6995 85.3855 72.39 85.3855 73.0607C85.3855 73.3621 85.3713 73.747 85.3444 74.2153C85.3161 74.6851 85.2383 75.1449 85.1095 75.5977C84.9808 76.0505 84.7826 76.441 84.5138 76.7664C84.2478 77.0919 83.8729 77.2575 83.3947 77.2575C82.731 77.2575 82.2202 77.0594 81.8594 76.6674C81.5 76.2727 81.3302 75.7831 81.3486 75.1959C80.7585 75.6515 80.1034 76.0151 79.3846 76.2854C78.6658 76.5556 77.9188 76.6901 77.1434 76.6901C76.6283 76.6901 76.1346 76.5769 75.6648 76.3505C75.195 76.1255 74.7804 75.8312 74.4196 75.4718C74.0602 75.111 73.7744 74.7049 73.5621 74.2535C73.3513 73.8007 73.2438 73.3465 73.2438 72.8937C73.2438 72.1056 73.5113 71.4208 74.0461 70.8322C74.581 70.2464 75.2361 69.7427 76.0101 69.3252C76.784 68.9078 77.6047 68.5753 78.4721 68.332C79.3366 68.0886 80.1105 67.9259 80.794 67.8424C80.794 67.7575 80.7996 67.6882 80.8081 67.6288C80.818 67.5693 80.8223 67.4986 80.8223 67.4151C80.8209 66.9114 80.6695 66.501 80.3653 66.1813ZM86.7027 87.6078C86.4155 87.3064 86.0109 87.1564 85.4874 87.1564C85.0685 87.1564 84.7035 87.2243 84.3894 87.3601C84.0752 87.4946 83.7781 87.6403 83.4993 87.8002C83.2206 87.9601 82.9503 88.1058 82.6899 88.2402C82.4268 88.3761 82.124 88.4426 81.7759 88.4426C81.408 88.4426 81.0911 88.3364 80.8194 88.1214C80.5506 87.9077 80.4161 87.6262 80.4161 87.2767C80.4161 86.7701 80.5845 86.3103 80.9241 85.8971C81.2637 85.4853 81.6839 85.133 82.1806 84.8402C82.6772 84.5473 83.2206 84.3209 83.8149 84.1624C84.4063 84.0053 84.9482 83.9247 85.4364 83.9247C86.3773 83.9247 87.2759 84.1284 88.1291 84.5317C88.9823 84.9349 89.6218 85.5419 90.0392 86.3485C90.3349 86.9187 90.5754 87.5243 90.7594 88.1652C90.9433 88.8062 91.0863 89.4642 91.191 90.1377C91.2957 90.8112 91.365 91.4833 91.399 92.1568C91.4343 92.8303 91.4513 93.4841 91.4513 94.1165C91.4513 94.4024 91.4386 94.7674 91.4131 95.2103C91.3877 95.6531 91.3127 96.089 91.191 96.5163C91.0679 96.945 90.8811 97.3129 90.6292 97.6213C90.376 97.9312 90.0237 98.0854 89.5709 98.0854C88.9441 98.0854 88.4587 97.8987 88.1191 97.5251C87.7795 97.153 87.6183 96.6889 87.6353 96.1356C87.0764 96.5672 86.4594 96.9096 85.7788 97.1657C85.0982 97.4218 84.3922 97.5492 83.6593 97.5492C83.1711 97.5492 82.7055 97.443 82.2612 97.228C81.817 97.0129 81.4236 96.737 81.0841 96.396C80.7445 96.055 80.4728 95.6701 80.2747 95.2428C80.0723 94.8155 79.9733 94.3882 79.9733 93.9594C79.9733 93.2152 80.2252 92.5657 80.7303 92.0097C81.2355 91.455 81.8552 90.9796 82.5881 90.5834C83.3211 90.1872 84.0965 89.8745 84.9157 89.6439C85.7364 89.4147 86.4693 89.2604 87.1131 89.1812C87.1131 89.102 87.1188 89.034 87.1273 88.9789C87.1358 88.9237 87.1414 88.8557 87.1414 88.7751C87.1358 88.2968 86.9914 87.9092 86.7027 87.6078ZM90.8613 76.1C90.5656 76.3943 90.1864 76.5485 89.7265 76.5655C89.377 76.5825 89.087 76.4566 88.8549 76.1877C88.6257 75.9203 88.4361 75.5793 88.2889 75.1704C88.1418 74.7587 88.0314 74.2988 87.9578 73.7852C87.8828 73.2758 87.8276 72.7721 87.7923 72.2782C87.7555 71.7844 87.7371 71.3345 87.7371 70.9341C87.7371 70.5308 87.7371 70.2294 87.7371 70.0271C87.7371 69.7596 87.7371 69.3861 87.7371 68.9093C87.7371 68.431 87.7555 67.9131 87.7923 67.3486C87.8276 66.7882 87.8928 66.2223 87.9861 65.6521C88.0767 65.0833 88.221 64.5625 88.4148 64.0928C88.6087 63.6244 88.862 63.2382 89.1761 62.9382C89.4902 62.6354 89.8765 62.4854 90.3378 62.4854C90.816 62.4854 91.1853 62.7076 91.4428 63.1519C91.7004 63.5962 91.8899 64.1112 92.0088 64.6984C92.129 65.2856 92.1985 65.8671 92.2154 66.4459C92.2352 67.0232 92.2437 67.4547 92.2437 67.7391C92.2437 67.974 92.2437 68.2174 92.2437 68.4692C92.2437 68.7211 92.2352 68.9644 92.2154 69.1993C92.2154 69.4668 92.2112 69.8361 92.2013 70.3044C92.1928 70.7742 92.173 71.2821 92.1461 71.8269C92.1192 72.3716 92.0583 72.9192 91.9664 73.4724C91.8758 74.0271 91.7399 74.5294 91.5659 74.9808C91.3905 75.4336 91.1556 75.8071 90.8613 76.1ZM88.5648 59.9215C88.5648 59.6697 88.6285 59.449 88.7586 59.2551C88.886 59.0613 89.0545 58.9028 89.2639 58.7768C89.4733 58.6509 89.7039 58.5589 89.9501 58.5009C90.1963 58.4429 90.4397 58.4118 90.6788 58.4118C91.0071 58.4118 91.314 58.4882 91.5956 58.6382C91.88 58.7896 92.0216 59.04 92.0216 59.3923C92.0216 59.6102 91.9522 59.8154 91.8164 60.0093C91.6777 60.2031 91.5037 60.3658 91.2943 60.4988C91.0849 60.6347 90.8542 60.7394 90.6095 60.8144C90.3618 60.8894 90.1283 60.9275 89.9104 60.9275C89.5624 60.9275 89.2497 60.8441 88.9766 60.6757C88.7021 60.5088 88.5648 60.2583 88.5648 59.9215ZM54.2821 110.124C54.1053 110.736 53.7374 111.325 53.2011 111.861C53.0611 112.011 52.8997 112.156 52.7214 112.289C52.2587 112.665 51.7112 113.007 51.0843 113.3C48.1356 114.68 44.5686 114.4 41.1557 114.226C37.675 114.046 34.2309 114.135 30.76 114.342C29.5885 114.412 28.3617 114.397 27.2085 114.243C25.379 114.295 23.2807 114.452 21.686 113.781C20.0617 113.097 19.4037 111.983 19.2552 110.787C19.1561 109.977 19.3344 109.097 19.582 108.274C19.5509 108.065 19.5395 107.853 19.5707 107.645C19.6584 107.039 19.9952 106.497 20.5045 106.04C20.5144 106.02 20.5229 106.003 20.5328 105.981C20.7889 105.421 21.2064 104.931 21.5983 104.403C22.1728 103.632 24.2414 103.799 24.5244 104.62C25.9294 104.472 27.4038 104.434 28.799 104.366C30.6313 104.277 32.4665 104.218 34.3045 104.191C37.8702 104.139 41.4373 104.205 44.9916 104.386C46.824 104.481 48.6492 104.617 50.4759 104.757C51.5711 104.842 52.7682 104.847 53.7473 105.214C54.9981 105.682 55.6263 106.595 55.4338 107.5C55.2527 108.375 54.7519 109.264 54.2821 110.124ZM67.6774 90.7702C67.625 91.2923 67.5416 91.8668 67.4284 92.4936C67.3124 93.119 67.1623 93.7614 66.9812 94.4193C66.7959 95.0773 66.5723 95.6758 66.3092 96.2149C66.046 96.754 65.7389 97.1926 65.3894 97.535C65.0385 97.8746 64.6438 98.0458 64.2038 98.0458C63.9236 98.0458 63.6957 97.927 63.5217 97.6878C63.3476 97.4501 63.2104 97.1784 63.1156 96.8686C63.0194 96.5587 62.9586 96.2432 62.9331 95.9177C62.9048 95.5937 62.8935 95.3518 62.8935 95.1919C62.8935 94.7164 62.9232 94.2495 62.9855 93.7897C63.0463 93.3298 63.1156 92.8714 63.192 92.4101C63.2727 91.9502 63.3406 91.4918 63.4015 91.0305C63.4623 90.5693 63.492 90.1037 63.492 89.6283C63.492 89.4373 63.4835 89.2364 63.4665 89.0213C63.4467 88.8076 63.4085 88.6053 63.3477 88.4143C63.2868 88.2247 63.1906 88.0662 63.0604 87.9388C62.9303 87.8115 62.7506 87.7479 62.5242 87.7479C62.3671 87.7479 62.1987 87.8596 62.0148 88.0803C61.8308 88.3025 61.6625 88.56 61.5054 88.8543C61.3483 89.1472 61.2125 89.4359 61.0993 89.7217C60.9861 90.0061 60.9309 90.2127 60.9309 90.34C60.9309 90.6881 60.9338 91.0333 60.9437 91.3729C60.9536 91.7139 60.9564 92.0663 60.9564 92.4313C60.9564 92.6054 60.9564 92.8091 60.9564 93.0383C60.9564 93.2675 60.9479 93.518 60.9309 93.7868C60.9125 94.0557 60.8913 94.3372 60.8644 94.6316C60.839 94.9244 60.7895 95.2131 60.7201 95.4989C60.5984 96.038 60.389 96.5247 60.0933 96.9605C59.7976 97.3963 59.3448 97.6143 58.7335 97.6143C58.2114 97.6143 57.8209 97.4006 57.5704 96.9719C57.3157 96.5445 57.1417 96.0451 57.0469 95.4734C56.9521 94.9018 56.9026 94.3358 56.9026 93.7741C56.9026 93.2124 56.9026 92.7964 56.9026 92.5261V91.4324C56.9026 90.831 56.8898 90.2438 56.863 89.6736C56.8375 89.1034 56.8248 88.5317 56.8248 87.9615C56.8248 87.6615 56.829 87.2696 56.839 86.7857C56.8474 86.3018 56.9125 85.8334 57.0356 85.3821C57.1573 84.9321 57.3582 84.543 57.6369 84.2176C57.9143 83.8936 58.3161 83.7308 58.8411 83.7308C59.0844 83.7308 59.2967 83.7987 59.4807 83.9331C59.6646 84.069 59.8244 84.2388 59.9659 84.4439C60.1046 84.6505 60.2235 84.8684 60.3183 85.0976C60.4131 85.3269 60.488 85.5306 60.5404 85.7047C60.8899 85.2618 61.3441 84.8727 61.9059 84.5402C62.4648 84.2077 63.209 84.0393 64.1358 84.0393C65.0102 84.0393 65.6937 84.2303 66.1833 84.6095C66.6728 84.9915 67.0364 85.4627 67.2727 86.0244C67.509 86.5862 67.6491 87.1932 67.6929 87.8426C67.7368 88.4935 67.7595 89.0793 67.7595 89.6029C67.7581 89.8575 67.7297 90.2466 67.6774 90.7702ZM66.636 76.6165C65.9342 76.7665 65.2763 76.8839 64.6579 76.9674C64.041 77.0523 63.5471 77.0947 63.1793 77.0947C62.8482 77.0947 62.4888 77.0678 62.0997 77.0169C61.7135 76.9674 61.3908 76.8429 61.1304 76.6405C60.9281 76.4891 60.7484 76.0816 60.5914 75.4223C60.4357 74.7587 60.3013 74.0271 60.1909 73.222C60.0805 72.4169 59.9971 71.6245 59.9419 70.8449C59.8867 70.0653 59.8584 69.4908 59.8584 69.1229C59.8584 68.5032 59.8867 67.7023 59.9419 66.7217C59.9971 65.7412 60.0933 64.7479 60.232 63.7433C60.3707 62.7387 60.5461 61.7949 60.7569 60.9148C60.9692 60.0347 61.2323 59.3938 61.5464 58.9919C61.712 58.7754 61.896 58.607 62.0997 58.4896C62.3035 58.3722 62.551 58.3142 62.8468 58.3142C63.4 58.3142 63.8189 58.5518 64.1047 59.0301C64.3905 59.5084 64.5985 60.0616 64.7258 60.6898C64.856 61.3181 64.9253 61.952 64.9324 62.5873C64.9423 63.2254 64.9466 63.7037 64.9466 64.022C64.9466 65.2955 64.9154 66.5619 64.8504 67.8197C64.7867 69.0762 64.7541 70.3412 64.7541 71.6161V72.5711C65.5847 72.3363 66.4705 72.1183 67.41 71.9174C68.3495 71.7165 69.2536 71.6161 70.121 71.6161C70.4337 71.6161 70.7422 71.633 71.0464 71.6656C71.3507 71.6996 71.6266 71.7703 71.8756 71.8792C72.1246 71.9882 72.327 72.1439 72.484 72.3434C72.6411 72.5457 72.7188 72.8131 72.7188 73.147C72.7188 73.5673 72.5349 73.9521 72.1656 74.3045C71.7977 74.6554 71.3223 74.9794 70.7422 75.2723C70.1621 75.5652 69.507 75.8255 68.7769 76.0519C68.051 76.2769 67.335 76.4651 66.636 76.6165ZM75.7723 98.65C76.0963 98.817 76.3921 99.0108 76.6623 99.233C76.9312 99.4537 77.1604 99.6999 77.3415 99.9702C77.5226 100.24 77.6146 100.526 77.6146 100.826C77.6146 101.269 77.4985 101.685 77.2622 102.074C77.0259 102.463 76.7161 102.803 76.3341 103.097C75.9506 103.39 75.5289 103.619 75.0662 103.786C74.6035 103.952 74.1395 104.035 73.6669 104.035C72.9707 104.035 72.2987 103.912 71.6549 103.667C71.0082 103.421 70.5639 102.974 70.3206 102.325C70.2682 102.23 70.2413 102.125 70.2413 102.015C70.2413 101.777 70.346 101.572 70.5554 101.396C70.7648 101.221 70.9927 101.133 71.2346 101.133C71.444 101.133 71.6223 101.193 71.7708 101.312C71.9194 101.43 72.0807 101.558 72.2547 101.694C72.4288 101.828 72.6354 101.955 72.8717 102.074C73.1066 102.193 73.4249 102.252 73.8254 102.252C74.1735 102.252 74.5017 102.153 74.8059 101.955C75.1101 101.756 75.2629 101.483 75.2629 101.135C75.2629 100.897 75.1752 100.699 75.0012 100.54C74.8271 100.382 74.622 100.243 74.3857 100.124C74.1494 100.006 73.9102 99.8909 73.6654 99.7805C73.4221 99.6688 73.2395 99.5343 73.1164 99.3759C72.9764 99.2018 72.9085 98.9556 72.9085 98.6387C72.9085 98.3203 72.9085 98.0515 72.9085 97.8308V97.5209C72.2293 97.378 71.6478 97.0921 71.1695 96.6662C70.6898 96.2375 70.3035 95.7394 70.0064 95.1678C69.7093 94.5962 69.497 93.9863 69.3654 93.3369C69.2338 92.6874 69.1702 92.0691 69.1702 91.4819C69.1702 90.7206 69.2834 89.8971 69.5112 89.0086C69.739 88.1214 70.0956 87.305 70.5795 86.5607C71.062 85.8164 71.6746 85.1939 72.4203 84.6958C73.1631 84.1949 74.0418 83.9473 75.0535 83.9473C75.6634 83.9473 76.1997 84.069 76.6623 84.3124C77.1236 84.5571 77.5085 84.8755 77.8127 85.2689C78.1183 85.6622 78.3447 86.1079 78.4918 86.6031C78.6404 87.0998 78.7154 87.5922 78.7154 88.0832C78.7154 88.2105 78.7097 88.3563 78.7013 88.5246C78.6928 88.6902 78.663 88.8373 78.6107 88.9647C78.4692 89.2831 78.2527 89.5505 77.9556 89.7726C77.6599 89.9948 77.3118 90.1051 76.9113 90.1051C76.3001 90.1051 75.8996 89.8434 75.7072 89.3199C75.6548 89.1769 75.6323 88.9958 75.6422 88.7723C75.6507 88.5515 75.6421 88.3322 75.6138 88.1186C75.5884 87.9049 75.5276 87.7238 75.4314 87.571C75.3351 87.4224 75.1582 87.346 74.8951 87.346C74.5809 87.346 74.2894 87.513 74.0192 87.8469C73.7489 88.1808 73.5098 88.5784 73.3004 89.0397C73.091 89.4995 72.9297 89.9679 72.8165 90.4447C72.7033 90.9216 72.6452 91.3022 72.6452 91.5894C72.6452 91.796 72.6637 92.0663 72.6977 92.3988C72.7302 92.7327 72.8052 93.0581 72.9169 93.3751C73.0287 93.692 73.1816 93.9708 73.3684 94.2099C73.5594 94.4476 73.8084 94.5665 74.1182 94.5665C74.4281 94.5665 74.7097 94.4788 74.9615 94.3047C75.2134 94.1307 75.4568 93.9425 75.6931 93.7444C75.928 93.5463 76.1671 93.3609 76.4119 93.1841C76.6553 93.01 76.917 92.9223 77.1972 92.9223C77.5622 92.9223 77.8594 93.0454 78.0858 93.2916C78.3121 93.5378 78.4253 93.8194 78.4253 94.1377C78.4253 94.5353 78.3249 94.9159 78.1254 95.2824C77.9231 95.6475 77.6627 95.9814 77.3401 96.2828C77.0161 96.5856 76.6467 96.8431 76.2293 97.0582C75.8091 97.2718 75.3818 97.4275 74.9474 97.5223V97.6652C74.9474 97.76 74.9417 97.8647 74.9332 97.9751C74.9247 98.0854 74.9036 98.1816 74.8682 98.2595C75.1483 98.3529 75.4483 98.4844 75.7723 98.65ZM107.594 113.531C106.75 114.067 105.67 114.294 104.579 114.354C103.432 114.421 102.28 114.47 101.131 114.495C100.402 114.509 99.6736 114.524 98.9407 114.534C97.247 114.775 95.5334 114.885 93.8029 114.92C89.8849 115.001 85.8637 114.688 82.0108 114.166C79.5262 113.83 78.2994 112.306 78.3263 110.543C78.3503 108.986 79.1908 107.5 80.2082 106.165C80.5803 105.678 81.4901 105.481 82.2202 105.585C82.4013 105.382 82.697 105.235 83.1201 105.203C88.3512 104.794 93.5879 104.714 98.8444 104.641C100.842 104.614 102.979 104.47 104.835 105.128C106.996 105.892 107.979 107.366 108.547 109.005C109.079 110.536 109.421 112.371 107.594 113.531Z" fill="white"/>
<path d="M79.9065 70.7459C79.5683 70.8548 79.2387 71.002 78.9204 71.1873C78.5992 71.3713 78.326 71.5764 78.0968 71.8028C77.8704 72.0292 77.7559 72.2684 77.7559 72.5202C77.7559 72.7381 77.8464 72.8881 78.0289 72.973C78.2129 73.0565 78.4124 73.0975 78.6331 73.0975C79.035 73.0975 79.4594 73.007 79.9065 72.8216C80.3536 72.6377 80.7442 72.4537 81.0725 72.2684L80.989 70.6086C80.9536 70.6086 80.9154 70.6044 80.8786 70.5959C80.8432 70.5874 80.805 70.5832 80.7682 70.5832C80.5305 70.5817 80.2433 70.6369 79.9065 70.7459Z" fill="white"/>
<path d="M86.2671 91.9219C85.9473 92.0252 85.636 92.1639 85.3347 92.3379C85.0319 92.5134 84.7729 92.7072 84.5564 92.9209C84.34 93.1345 84.2324 93.3609 84.2324 93.5986C84.2324 93.8052 84.3202 93.9481 84.4928 94.0273C84.6654 94.1066 84.8564 94.1462 85.063 94.1462C85.4436 94.1462 85.8469 94.0585 86.2699 93.8845C86.693 93.709 87.0609 93.5349 87.3722 93.3609L87.293 91.7918C87.259 91.7918 87.2222 91.7889 87.1897 91.7804C87.1543 91.7719 87.1175 91.7677 87.0849 91.7677C86.8585 91.7677 86.5855 91.82 86.2671 91.9219Z" fill="white"/>
<path d="M49.6792 91.9219C49.358 92.0252 49.0482 92.1639 48.7454 92.3379C48.444 92.5134 48.185 92.7072 47.9686 92.9209C47.7521 93.1345 47.6445 93.3609 47.6445 93.5986C47.6445 93.8052 47.7322 93.9481 47.9034 94.0273C48.0775 94.1066 48.2685 94.1462 48.4751 94.1462C48.8557 94.1462 49.2576 94.0585 49.6807 93.8845C50.1037 93.709 50.4716 93.5349 50.7829 93.3609L50.7051 91.7918C50.6697 91.7918 50.6343 91.7889 50.6003 91.7804C50.565 91.7719 50.5296 91.7677 50.4957 91.7677C50.2707 91.7677 49.9976 91.82 49.6792 91.9219Z" fill="white"/>
<path d="M32.1184 70.5945C32.0801 70.586 32.0434 70.5817 32.008 70.5817C31.7703 70.5817 31.4816 70.6355 31.1434 70.7445C30.8067 70.8534 30.4769 71.0006 30.1572 71.1859C29.8388 71.3699 29.563 71.575 29.3366 71.8014C29.1073 72.0278 28.9941 72.267 28.9941 72.5188C28.9941 72.7367 29.0847 72.8867 29.2672 72.9716C29.4497 73.0551 29.6507 73.0961 29.8714 73.0961C30.2732 73.0961 30.6991 73.0055 31.1463 72.8202C31.5934 72.6362 31.9825 72.4523 32.3121 72.2669L32.2287 70.6072C32.1905 70.6072 32.1551 70.603 32.1184 70.5945Z" fill="white"/>
<path d="M53.7491 105.211C52.7714 104.845 51.5743 104.838 50.4778 104.754C48.6511 104.614 46.8258 104.48 44.9935 104.383C41.4391 104.202 37.8721 104.136 34.3064 104.188C32.4684 104.215 30.6331 104.276 28.8008 104.364C27.4057 104.431 25.9313 104.468 24.5262 104.617C24.2433 103.796 22.1747 103.629 21.6002 104.4C21.2082 104.928 20.7908 105.418 20.5347 105.978C20.5248 106.001 20.5163 106.018 20.5064 106.037C19.997 106.494 19.6589 107.036 19.5726 107.642C19.5414 107.85 19.5513 108.062 19.5839 108.272C19.3348 109.094 19.1566 109.974 19.257 110.785C19.4042 111.982 20.0621 113.094 21.6879 113.779C23.2825 114.451 25.3809 114.292 27.2104 114.24C28.3622 114.394 29.5904 114.41 30.762 114.339C34.2328 114.132 37.6768 114.043 41.1576 114.223C44.569 114.397 48.1374 114.676 51.0862 113.298C51.713 113.005 52.2606 112.662 52.7233 112.286C52.9016 112.153 53.0629 112.01 53.203 111.859C53.7392 111.322 54.1071 110.734 54.284 110.121C54.7537 109.262 55.2546 108.374 55.4372 107.496C55.6282 106.592 54.9999 105.679 53.7491 105.211Z" fill="#0081C9"/>
<path d="M10.5424 22.8429C17.3256 24.4941 23.291 31.7471 24.9041 34.7242C24.6494 28.2664 20.5474 22.2203 17.8944 17.8637C17.2294 16.7728 22.6274 22.1029 23.3887 22.9773C25.8054 25.752 28.2631 30.9774 29.8705 35.3071C30.1393 28.5394 27.8655 22.059 27.7424 21.9232C27.3788 21.5228 27.9547 21.0586 28.4032 21.4223C32.1372 24.4531 34.5031 28.6979 35.0266 32.7659C36.4628 30.3676 34.4026 25.0262 34.5384 24.7715C34.8341 24.2182 36.1684 25.237 37.5975 27.5264C38.6842 29.2639 39.4709 30.7241 40.0128 32.098L40.0255 32.1037C40.7514 31.3283 41.7065 30.5855 43.0026 29.9544L42.4112 29.6969C41.8707 28.5451 41.1745 27.2957 40.2732 25.8525C37.5325 21.4661 35.4709 21.4662 34.7917 21.4662C34.2653 21.4662 33.7588 21.5864 33.3018 21.8029C32.4288 20.7827 31.4538 19.8375 30.3898 18.9744C29.7247 18.4311 27.8302 17.0402 26.9897 17.0402C25.6766 17.0402 25.545 18.8386 24.9196 19.9522C22.5241 17.3048 20.2941 15.9181 18.1463 15.2871C18.1463 15.2871 15.731 14.4013 14.2269 14.9121C13.6128 15.1201 13.3906 15.8545 13.7543 16.3893C15.2895 18.6532 16.5516 21.6982 16.8106 22.1241C15.4748 21.3176 9.34106 19.3168 6.9682 19.4088C6.27488 19.4385 5.358 20.071 5.73155 20.7063C7.28374 23.3551 8.29118 24.7134 9.02412 26.5316C9.16703 26.8854 8.85573 27.2533 8.48643 27.1528C7.46626 26.8755 6.65976 26.5783 6.31168 26.5288C4.65053 26.2967 2.87052 26.417 1.21787 26.6533C-0.515441 26.9024 0.493392 27.706 1.29991 28.4899C2.1135 29.2823 2.95116 30.052 3.74636 30.8628C5.15564 32.2961 6.70928 33.9134 7.27526 35.8971V123.376C7.27526 124.703 8.35061 125.777 9.67783 125.777H10.4278V37.1296C9.76131 33.3375 7.97562 31.5717 6.61727 30.461C4.88396 29.0418 4.43685 28.6413 5.28864 28.7743C8.94628 29.3445 14.0811 32.7659 17.2025 35.4543H17.6836C16.1823 31.0411 13.9693 27.7556 11.0234 24.4828C10.5098 23.9112 9.81649 22.666 10.5424 22.8429Z" fill="#E3000B"/>
<path d="M129.77 23.9395C127.92 23.7626 124.73 23.6466 123.047 24.6852C123.235 23.6791 123.898 22.0123 123.702 21.6373C123.18 20.6412 122.216 19.9988 121.069 19.8574C121.357 19.5899 126.646 13.3175 122.667 13.125C120.548 13.0274 113.104 15.2913 108.991 18.7848C107.452 19.9847 106.014 21.3105 104.658 22.7721H103.301C100.956 22.7721 96.5489 27.0028 94.2539 29.8101C95.2585 30.2629 96.0693 30.7369 96.5476 31.2123C96.6636 31.3298 96.7414 31.4684 96.8433 31.5943C99.6265 28.1574 103.662 25.4138 103.31 26.0109C102.37 27.6042 101.323 30.195 100.441 32.715L101.121 33.2045C103.608 28.6498 106.788 24.4885 110.981 21.2341C116.036 16.9171 120.474 16.1516 119.825 16.7261C116.198 19.9295 111.017 25.5426 108.835 29.7988C107.861 31.7004 107.063 33.5597 106.435 35.4543H106.889C109.641 30.3803 114.488 25.7336 116.982 24.306C118.343 23.5235 121.681 22.2274 120.773 23.5475C119.206 25.8143 116.224 28.8522 114.196 33.5554C113.93 34.1709 113.848 34.8105 113.806 35.4543H114.257C117.112 30.485 122.055 26.7439 127.593 26.3887C128.266 26.3449 119.881 31.4896 119.161 41.4268V44.1704C119.177 44.3812 119.168 44.5807 119.191 44.7944C119.315 45.99 119.296 46.9507 119.161 47.7417V125.777H119.911C121.238 125.777 122.315 124.702 122.315 123.376V47.9865C122.459 46.9606 122.464 45.8216 122.332 44.4265C122.326 44.3274 122.321 44.1605 122.315 44.0642V41.5499C122.843 34.9011 127.591 30.7029 129.161 29.3163C129.636 28.8974 130.885 27.4712 131.256 25.9275C131.491 24.9667 130.755 24.0329 129.77 23.9395Z" fill="#E3000B"/>
<path d="M52.4006 53.1325C52.4303 53.083 52.4614 53.0321 52.4911 52.9826C54.0575 50.3324 55.8446 47.5209 57.5241 44.9344C59.3565 42.0861 61.3359 39.3284 63.3919 36.6343C63.689 36.2438 63.9762 35.8419 64.279 35.4557C64.4587 35.2264 64.6243 34.9845 64.8054 34.7566C65.2101 34.2204 64.4715 33.5922 64.0074 34.0619C63.573 34.5119 63.1768 34.9958 62.7551 35.4557C62.4325 35.8066 62.117 36.1617 61.8014 36.5169C60.037 38.5063 58.3278 40.5452 56.7077 42.6577C54.4253 45.6701 52.3468 48.8396 50.7635 52.2893C50.6715 52.5114 50.6744 52.7137 50.7225 52.8963C50.9036 53.5924 51.9152 53.9122 52.4006 53.1325Z" fill="#E3000B"/>
<path d="M69.9765 26.7779C69.8463 28.0598 71.3829 28.6993 73.1205 28.255C74.8552 27.8107 79.7311 26.26 86.0389 21.1195C92.3482 15.979 98.3518 8.45995 91.2077 9.21553C84.0623 9.97252 79.434 16.9525 77.3554 18.5754C75.2769 20.1984 70.3104 23.5206 69.9765 26.7779Z" fill="#E3000B"/>
<path d="M92.3962 32.3018C89.3639 31.0963 83.9927 29.7492 81.7981 29.5865C78.5891 29.3488 72.8896 29.3884 71.6728 29.977C70.6526 30.4694 70.3074 31.4387 70.2367 32.1419C70.231 32.1957 70.231 32.248 70.2296 32.3004C70.2055 32.9385 70.555 33.5441 73.8222 35.3567C73.8802 35.3878 73.9495 35.4217 74.0075 35.4529C75.554 36.2834 77.8703 37.1975 80.3366 37.8781C83.6504 38.7922 87.2146 39.2775 89.4757 38.553C91.0463 38.0493 92.3353 37.3404 93.2536 36.5876C93.7092 36.2127 94.0686 35.8292 94.3247 35.4529C94.3318 35.4415 94.3402 35.4302 94.3473 35.4203C94.5624 35.0963 94.7011 34.7793 94.7492 34.4822C94.8185 34.0577 94.7166 33.6729 94.4067 33.363C94.0926 33.0531 93.3597 32.6838 92.3962 32.3018Z" fill="#E3000B"/>
<path d="M77.5604 53.5429C77.7867 53.2217 77.9679 52.8354 78.1264 52.4378C79.0433 50.1286 77.3835 46.9337 76.0011 43.3228C75.087 40.9301 73.6141 38.8444 72.2288 37.2823C71.5681 36.5423 70.9384 35.9325 70.3866 35.4542C70.221 35.3099 70.0526 35.1642 69.9041 35.0467C68.9971 34.3322 68.4509 34.0067 67.5977 34.1001C67.0487 34.161 66.4417 34.219 66.0908 35.4542C65.9917 35.8037 65.914 36.2494 65.8644 36.814C65.8163 37.3587 65.7922 38.0068 65.8035 38.7978C65.8644 43.3298 69.341 49.5839 72.8755 52.6133C73.3665 53.035 73.8037 53.359 74.2041 53.6179C76.0096 54.7753 76.9576 54.3989 77.5604 53.5429Z" fill="#E3000B"/>
<path d="M58.7581 36.2919C59.2392 35.9863 59.6779 35.7033 60.0401 35.4543C61.1989 34.6577 61.7989 34.1087 62.1427 33.5696C62.4554 33.0828 62.529 32.6612 62.3691 32.3018C62.1597 31.8278 61.53 31.4627 60.3881 31.2278C57.5653 30.6491 55.7358 30.3095 48.3158 31.508C47.8899 31.5773 47.4966 31.6552 47.1203 31.7401C45.2709 32.156 44.0017 32.7503 43.0891 33.4309C42.2514 34.0549 41.7138 34.7525 41.3275 35.4543C40.7261 36.5452 40.4657 37.6446 39.9507 38.4865C38.6688 40.5792 38.8938 42.7384 40.8379 43.7374C42.782 44.7363 49.5879 41.7678 54.7114 38.7412C56.4292 37.7281 57.7281 36.9428 58.7581 36.2919Z" fill="#E3000B"/>
<path d="M61.645 29.7393C63.3005 29.7294 63.5764 29.6261 64.2074 28.7616C64.8357 27.8942 64.141 25.7789 62.4232 22.591C60.7069 19.4017 51.6074 12.6114 49.1426 11.362C46.6763 10.1126 46.6367 11.2898 44.0601 12.0949C41.4835 12.9 43.3738 16.5746 46.8178 20.3469C50.2646 24.1163 57.461 29.7648 61.645 29.7393Z" fill="#E3000B"/>
<path d="M67.2853 26.1467C71.4311 23.0098 71.4042 18.915 72.4909 13.5084C73.5776 8.10053 71.2967 3.4185 67.949 3.0775C64.6026 2.7365 63.6037 4.68061 63.5457 13.9301C63.4834 23.1796 67.2853 26.1467 67.2853 26.1467Z" fill="#E3000B"/>
<path d="M104.839 105.128C102.982 104.47 100.847 104.615 98.8486 104.641C93.5921 104.716 88.3554 104.794 83.1243 105.203C82.7013 105.234 82.4055 105.382 82.2244 105.585C81.4943 105.481 80.5845 105.678 80.2123 106.165C79.195 107.499 78.3546 108.986 78.3305 110.543C78.3036 112.304 79.5318 113.828 82.015 114.166C85.8679 114.688 89.8892 115.001 93.8072 114.92C95.5376 114.885 97.2511 114.773 98.9448 114.534C99.6777 114.523 100.406 114.507 101.135 114.495C102.284 114.47 103.436 114.421 104.583 114.354C105.674 114.294 106.754 114.067 107.599 113.531C109.425 112.371 109.083 110.536 108.552 109.006C107.982 107.366 107 105.892 104.839 105.128Z" fill="#E3000B"/>
<path d="M32.0404 67.8424C31.3584 67.9259 30.5845 68.0886 29.7157 68.332C28.8498 68.5753 28.0305 68.9064 27.2551 69.3252C26.4797 69.7441 25.826 70.2464 25.2912 70.8322C24.7563 71.4208 24.4902 72.1056 24.4902 72.8937C24.4902 73.3465 24.595 73.8007 24.8086 74.2535C25.0195 74.7049 25.3067 75.111 25.6647 75.4718C26.0241 75.8312 26.4386 76.1255 26.9098 76.3505C27.3796 76.5769 27.8734 76.6901 28.3899 76.6901C29.1639 76.6901 29.9095 76.5542 30.6298 76.2854C31.3485 76.0165 32.0023 75.6529 32.5937 75.1959C32.5739 75.7831 32.745 76.2727 33.1044 76.6674C33.4638 77.0594 33.9747 77.2575 34.6397 77.2575C35.1194 77.2575 35.4929 77.0933 35.7603 76.7665C36.0263 76.441 36.2244 76.0505 36.3546 75.5977C36.4833 75.1464 36.5612 74.6851 36.5895 74.2153C36.6178 73.747 36.6305 73.3607 36.6305 73.0607C36.6305 72.39 36.6107 71.6996 36.5753 70.9878C36.5385 70.2747 36.4649 69.5644 36.3546 68.8513C36.2442 68.141 36.0914 67.4448 35.899 66.7671C35.7052 66.0893 35.4519 65.4483 35.1377 64.8456C34.6949 63.9909 34.0228 63.35 33.1186 62.9241C32.2145 62.4982 31.2651 62.2831 30.2689 62.2831C29.7539 62.2831 29.1808 62.368 28.5554 62.535C27.9286 62.7033 27.3513 62.941 26.8263 63.2523C26.3 63.5636 25.8571 63.9357 25.4991 64.3701C25.1397 64.8074 24.96 65.2927 24.96 65.829C24.96 66.1983 25.1029 66.4954 25.3887 66.7218C25.6746 66.9481 26.0099 67.0614 26.3976 67.0614C26.7683 67.0614 27.0895 66.9892 27.3668 66.8477C27.6442 66.7062 27.9286 66.5506 28.2243 66.3822C28.5186 66.2152 28.8328 66.0596 29.1639 65.9181C29.495 65.7738 29.8827 65.7044 30.3241 65.7044C30.8788 65.7044 31.3061 65.8629 31.6117 66.1813C31.9159 66.501 32.0673 66.9114 32.0673 67.4137C32.0673 67.4986 32.0617 67.5679 32.0532 67.6273C32.0433 67.6882 32.0404 67.7575 32.0404 67.8424ZM32.1225 70.5945C32.1579 70.603 32.1947 70.6072 32.2329 70.6072L32.3163 72.2669C31.9866 72.4523 31.5975 72.6362 31.1504 72.8202C30.7033 73.0055 30.2774 73.0961 29.8756 73.0961C29.6562 73.0961 29.4539 73.0551 29.2714 72.9716C29.0888 72.8853 28.9983 72.7367 28.9983 72.5188C28.9983 72.2669 29.1115 72.0278 29.3407 71.8014C29.5671 71.5764 29.843 71.3698 30.1613 71.1859C30.4825 71.0005 30.8108 70.8548 31.1476 70.7445C31.4857 70.6355 31.7744 70.5817 32.0121 70.5817C32.0475 70.5817 32.0843 70.586 32.1225 70.5945Z" fill="#E3000B"/>
<path d="M43.0988 67.3896C43.154 67.0217 43.2134 66.6595 43.2799 66.3086C43.3436 65.9562 43.3761 65.5869 43.3761 65.2021C43.3761 64.9502 43.3563 64.6743 43.3209 64.3715C43.2827 64.0701 43.2049 63.7857 43.0846 63.5169C42.9644 63.248 42.7988 63.0216 42.5866 62.8377C42.3758 62.6552 42.0843 62.5618 41.715 62.5618C41.3288 62.5618 40.9778 62.7259 40.6651 63.0542C40.351 63.3796 40.0737 63.7701 39.836 64.2229C39.5954 64.6743 39.3959 65.1327 39.2403 65.5926C39.0846 66.0539 38.9771 66.4175 38.9219 66.6849C38.7932 67.1717 38.7012 67.6627 38.646 68.1565C38.5908 68.6517 38.5625 69.1413 38.5625 69.628C38.5625 70.5152 38.6587 71.3967 38.8526 72.2669C39.0464 73.1371 39.3676 73.9167 39.8218 74.6044C40.2718 75.2921 40.8802 75.8453 41.6457 76.2641C42.4112 76.683 43.3761 76.8924 44.5364 76.8924C45.6966 76.8924 46.6701 76.6787 47.4554 76.2514C48.2379 75.8227 48.8647 75.2623 49.3344 74.5662C49.8042 73.8729 50.141 73.0833 50.3448 72.2032C50.5485 71.3245 50.649 70.4317 50.649 69.5247C50.649 69.1413 50.6122 68.5824 50.5386 67.8523C50.465 67.1236 50.3278 66.3991 50.124 65.6775C49.9203 64.9587 49.6345 64.3262 49.2666 63.7801C48.8987 63.2353 48.4106 62.9636 47.8021 62.9636C47.5064 62.9636 47.2432 63.0259 47.0125 63.1518C46.7819 63.2778 46.5838 63.4419 46.4183 63.6428C46.2527 63.8437 46.124 64.0673 46.0306 64.3092C45.94 64.5526 45.8919 64.7917 45.8919 65.0266C45.8919 65.1766 45.9018 65.2941 45.9202 65.3775C46.0136 66.0822 46.1141 66.7868 46.2259 67.49C46.3362 68.1933 46.3914 68.9064 46.3914 69.628C46.3914 69.9464 46.373 70.2973 46.3362 70.6836C46.2994 71.067 46.2117 71.4321 46.0716 71.7759C45.933 72.1198 45.732 72.4084 45.4632 72.6433C45.1972 72.8781 44.8222 72.9956 44.344 72.9956C43.9931 72.9956 43.7171 72.9036 43.5148 72.7197C43.3096 72.5343 43.154 72.3037 43.0436 72.0278C42.9333 71.7518 42.8639 71.459 42.837 71.1477C42.8087 70.8378 42.796 70.5661 42.796 70.3312C42.796 69.8445 42.8244 69.3549 42.8795 68.8597C42.9333 68.3659 43.0068 67.8749 43.0988 67.3896Z" fill="#E3000B"/>
<path d="M72.1666 74.303C72.5359 73.9507 72.7198 73.5659 72.7198 73.1456C72.7198 72.8117 72.642 72.5429 72.485 72.3419C72.3293 72.141 72.1256 71.9868 71.8766 71.8778C71.6275 71.7689 71.3516 71.6981 71.0474 71.6642C70.7432 71.6316 70.4332 71.6146 70.122 71.6146C69.2546 71.6146 68.3505 71.7151 67.411 71.916C66.4715 72.117 65.5857 72.3348 64.7551 72.5697V71.6146C64.7551 70.3412 64.7877 69.0748 64.8513 67.8183C64.9164 66.5604 64.9475 65.2955 64.9475 64.0206C64.9475 63.7023 64.9433 63.224 64.9334 62.5859C64.9249 61.9506 64.8556 61.3181 64.7268 60.6885C64.598 60.0602 64.3915 59.507 64.1057 59.0287C63.8199 58.5505 63.401 58.3127 62.8477 58.3127C62.552 58.3127 62.303 58.3707 62.1007 58.4882C61.8984 58.6056 61.7144 58.774 61.5474 58.9905C61.2333 59.3924 60.9715 60.0333 60.7579 60.9134C60.5471 61.7935 60.3716 62.7359 60.233 63.7419C60.0943 64.7479 59.9981 65.7398 59.9429 66.7203C59.8877 67.7009 59.8594 68.5018 59.8594 69.1215C59.8594 69.4894 59.8877 70.0638 59.9429 70.8435C59.9981 71.6231 60.0815 72.4141 60.1919 73.2206C60.3022 74.0243 60.4367 74.7572 60.5923 75.4209C60.7494 76.0816 60.9291 76.4877 61.1314 76.6391C61.3917 76.8414 61.713 76.9645 62.1007 77.0155C62.4884 77.0664 62.8477 77.0933 63.1802 77.0933C63.5481 77.0933 64.042 77.0509 64.6589 76.966C65.2787 76.8825 65.9352 76.765 66.637 76.6151C67.336 76.4637 68.0519 76.2755 68.7792 76.0491C69.5093 75.8227 70.1644 75.5624 70.7445 75.2695C71.3247 74.9766 71.7987 74.6539 72.1666 74.303Z" fill="#E3000B"/>
<path d="M80.7962 67.8424C80.1142 67.9259 79.3403 68.0886 78.4743 68.332C77.607 68.5753 76.7863 68.9064 76.0123 69.3252C75.2384 69.7441 74.5832 70.2464 74.0484 70.8322C73.5135 71.4208 73.2461 72.1056 73.2461 72.8937C73.2461 73.3465 73.3522 73.8007 73.5644 74.2535C73.7767 74.7049 74.0639 75.111 74.4219 75.4718C74.7827 75.8312 75.1973 76.1255 75.6671 76.3505C76.1368 76.5769 76.6306 76.6901 77.1457 76.6901C77.921 76.6901 78.6681 76.5542 79.3869 76.2854C80.1057 76.0165 80.7608 75.6529 81.3509 75.1959C81.3325 75.7831 81.5023 76.2727 81.8617 76.6674C82.2225 77.0594 82.7333 77.2575 83.3969 77.2575C83.8752 77.2575 84.2501 77.0933 84.5161 76.7665C84.7835 76.441 84.983 76.0505 85.1118 75.5977C85.2406 75.1464 85.3184 74.6851 85.3467 74.2153C85.375 73.747 85.3877 73.3607 85.3877 73.0607C85.3877 72.39 85.3693 71.6996 85.3325 70.9878C85.2958 70.2747 85.2222 69.5644 85.1118 68.8513C85 68.141 84.8472 67.4448 84.6548 66.7671C84.4609 66.0893 84.2091 65.4483 83.895 64.8456C83.4521 63.9909 82.7786 63.35 81.8758 62.9241C80.9717 62.4967 80.0223 62.2831 79.0276 62.2831C78.5111 62.2831 77.938 62.368 77.3112 62.535C76.6858 62.7033 76.1085 62.941 75.5836 63.2523C75.0586 63.5636 74.6157 63.9357 74.2563 64.3701C73.897 64.8074 73.7173 65.2927 73.7173 65.829C73.7173 66.1983 73.8602 66.4954 74.146 66.7218C74.4318 66.9481 74.7685 67.0614 75.1562 67.0614C75.5241 67.0614 75.8468 66.9892 76.1241 66.8477C76.4014 66.7062 76.6858 66.5506 76.9801 66.3822C77.2758 66.2152 77.59 66.0596 77.9211 65.9181C78.2522 65.7738 78.6413 65.7044 79.0827 65.7044C79.636 65.7044 80.0633 65.8629 80.3675 66.1813C80.6718 66.501 80.8231 66.9114 80.8231 67.4137C80.8231 67.4986 80.8188 67.5679 80.8089 67.6273C80.8004 67.6882 80.7962 67.7575 80.7962 67.8424ZM80.8783 70.5945C80.9151 70.603 80.9533 70.6072 80.9887 70.6072L81.0722 72.2669C80.7439 72.4523 80.3533 72.6362 79.9062 72.8202C79.4591 73.0055 79.0346 73.0961 78.6328 73.0961C78.4135 73.0961 78.2126 73.0551 78.0286 72.9716C77.8461 72.8853 77.7555 72.7367 77.7555 72.5188C77.7555 72.2669 77.8701 72.0278 78.0965 71.8014C78.3257 71.5764 78.5988 71.3698 78.92 71.1859C79.2398 71.0005 79.568 70.8548 79.9062 70.7445C80.243 70.6355 80.5302 70.5817 80.7679 70.5817C80.8047 70.5817 80.8429 70.586 80.8783 70.5945Z" fill="#E3000B"/>
<path d="M91.9676 73.4724C92.0595 72.9192 92.119 72.3716 92.1473 71.8269C92.1756 71.2821 92.194 70.7742 92.2025 70.3044C92.2124 69.8361 92.2166 69.4667 92.2166 69.1993C92.2364 68.9644 92.2449 68.7211 92.2449 68.4692C92.2449 68.2174 92.2449 67.974 92.2449 67.7391C92.2449 67.4547 92.2364 67.0232 92.2166 66.4459C92.1982 65.8671 92.1288 65.2856 92.01 64.6984C91.8911 64.1112 91.7002 63.5976 91.444 63.1519C91.1851 62.709 90.8172 62.4854 90.339 62.4854C89.8777 62.4854 89.49 62.6354 89.1773 62.9382C88.8632 63.2396 88.6099 63.6244 88.416 64.0928C88.2222 64.5625 88.0793 65.0818 87.9873 65.6521C87.8954 66.2223 87.8303 66.7882 87.7935 67.3486C87.7567 67.9117 87.7383 68.431 87.7383 68.9093C87.7383 69.3861 87.7383 69.7596 87.7383 70.0271C87.7383 70.2294 87.7383 70.5294 87.7383 70.9341C87.7383 71.3345 87.7567 71.7858 87.7935 72.2782C87.8288 72.7735 87.884 73.2758 87.959 73.7852C88.034 74.2974 88.1444 74.7586 88.2901 75.1704C88.4373 75.5793 88.6269 75.9189 88.8561 76.1877C89.0882 76.4552 89.3782 76.5811 89.7277 76.5655C90.1876 76.5485 90.5668 76.3943 90.8625 76.1C91.1568 75.8071 91.3917 75.4336 91.5671 74.9822C91.7412 74.5294 91.877 74.0271 91.9676 73.4724Z" fill="#E3000B"/>
<path d="M90.611 60.8143C90.8572 60.7393 91.0864 60.6346 91.2959 60.4988C91.5053 60.3658 91.6792 60.2031 91.8179 60.0092C91.9537 59.8154 92.0231 59.6116 92.0231 59.3923C92.0231 59.04 91.8816 58.7895 91.5972 58.6381C91.3156 58.4882 91.0086 58.4117 90.6804 58.4117C90.4412 58.4117 90.1993 58.4414 89.9516 58.5009C89.704 58.5603 89.4748 58.6509 89.2654 58.7768C89.056 58.9027 88.8861 59.0612 88.7602 59.2551C88.63 59.4489 88.5664 59.6696 88.5664 59.9215C88.5664 60.2568 88.7051 60.5087 88.9782 60.6757C89.2513 60.844 89.5639 60.9275 89.912 60.9275C90.1299 60.9275 90.3634 60.8893 90.611 60.8143Z" fill="#E3000B"/>
<path d="M101.07 59.7715C101.07 59.4857 101.033 59.1985 100.959 58.9042C100.884 58.6113 100.78 58.3467 100.641 58.1118C100.502 57.8769 100.323 57.6803 100.1 57.5204C99.8797 57.3619 99.6208 57.2827 99.3265 57.2827C98.827 57.2827 98.4124 57.4454 98.0813 57.7722C97.7502 58.0991 97.487 58.5024 97.2932 58.9806C97.0993 59.4589 96.9649 59.9781 96.8927 60.5399C96.8177 61.1002 96.7909 61.6082 96.8093 62.0595C96.4032 62.0935 95.9787 62.1557 95.5372 62.2491C95.0943 62.3411 94.684 62.4713 94.3062 62.6382C93.9284 62.8052 93.62 63.0033 93.3808 63.2282C93.1403 63.4546 93.0215 63.7207 93.0215 64.022C93.0215 64.5088 93.228 64.8654 93.6426 65.0903C94.0572 65.3167 94.5595 65.4285 95.1481 65.4285C95.2401 65.4285 95.3547 65.4257 95.4948 65.4172C95.6335 65.4087 95.8301 65.403 96.089 65.403C95.9971 66.293 95.9235 67.1264 95.8683 67.9061C95.8131 68.6857 95.7849 69.4526 95.7849 70.2068C95.7849 71.1803 95.8217 72.0589 95.8952 72.8456C95.9688 73.6323 96.1754 74.3044 96.5178 74.8577C96.8574 75.4109 97.388 75.8382 98.1068 76.1396C98.8256 76.441 99.8216 76.5924 101.094 76.5924C101.48 76.5924 101.882 76.5542 102.296 76.4792C102.711 76.4028 103.094 76.2797 103.445 76.1141C103.795 75.9458 104.082 75.7406 104.303 75.4972C104.524 75.2539 104.634 74.9553 104.634 74.6044C104.634 74.1516 104.532 73.7752 104.33 73.4724C104.125 73.1711 103.785 73.0211 103.305 73.0211C103.046 73.0211 102.779 73.0423 102.503 73.0833C102.227 73.1258 101.958 73.1456 101.702 73.1456C101.296 73.1456 100.978 73.055 100.748 72.8697C100.516 72.6857 100.348 72.4636 100.238 72.2032C100.126 71.9429 100.061 71.667 100.042 71.3741C100.024 71.0812 100.014 70.8322 100.014 70.6327C100.014 70.3483 100.024 70.0596 100.042 69.7667C100.061 69.4738 100.088 69.1837 100.126 68.8993C100.199 68.3461 100.26 67.7844 100.307 67.2142C100.351 66.6454 100.42 66.0256 100.514 65.3549C100.9 65.3224 101.323 65.2587 101.784 65.1667C102.246 65.0747 102.674 64.9446 103.07 64.7776C103.467 64.6092 103.793 64.4126 104.052 64.1862C104.31 63.9598 104.439 63.6966 104.439 63.3938C104.439 63.1264 104.35 62.9 104.175 62.716C103.999 62.5307 103.774 62.3849 103.498 62.2746C103.222 62.1642 102.916 62.0864 102.584 62.0355C102.253 61.9859 101.929 61.9605 101.616 61.9605C101.524 61.9605 101.422 61.9647 101.312 61.9732C101.201 61.9817 100.988 62.0029 100.676 62.0355C100.823 61.5332 100.925 61.1058 100.981 60.7535C101.041 60.3998 101.07 60.0729 101.07 59.7715Z" fill="#E3000B"/>
<path d="M31.2651 79.7619C31.0995 79.6826 30.9113 79.6317 30.7019 79.6076C30.4953 79.585 30.293 79.5723 30.102 79.5723C29.6647 79.5723 29.0322 79.6529 28.2059 79.81C27.3767 79.9699 26.5321 80.1807 25.6718 80.4396C24.8129 80.7028 24.0305 81 23.3286 81.3325C22.6268 81.665 22.1811 81.9989 21.9915 82.3314C21.8698 82.5847 21.7708 83.0488 21.693 83.7209C21.6137 84.3958 21.5571 85.116 21.5245 85.8843C21.4892 86.6527 21.4665 87.3899 21.4581 88.0959C21.4496 88.802 21.4453 89.3043 21.4453 89.6056C21.4453 89.8745 21.4496 90.2551 21.4581 90.7461C21.4665 91.2385 21.5019 91.7776 21.5628 92.3634C21.6222 92.9506 21.7057 93.5491 21.809 94.159C21.9123 94.7702 22.0552 95.3234 22.2377 95.8243C22.4202 96.3238 22.641 96.7327 22.9013 97.0483C23.1617 97.3666 23.4645 97.5237 23.8111 97.5237C24.1932 97.5237 24.4988 97.3963 24.7337 97.1431C24.9671 96.8884 25.1454 96.587 25.2671 96.2389C25.3874 95.8909 25.4709 95.5258 25.5133 95.1452C25.5572 94.7646 25.5883 94.4561 25.6038 94.2184C25.6378 93.7118 25.6647 93.2081 25.6831 92.71C25.7015 92.212 25.71 91.7083 25.71 91.2003C26.1458 91.0744 26.6693 90.9031 27.2792 90.6895C27.889 90.4772 28.4762 90.2141 29.0436 89.9056C29.6096 89.5958 30.0892 89.2392 30.4826 88.8345C30.8745 88.4313 31.0712 87.9757 31.0712 87.4677C31.0712 87.0078 30.9184 86.6824 30.6128 86.4942C30.3086 86.3032 29.9025 86.2084 29.3973 86.2084C28.7861 86.2084 28.1423 86.3188 27.4631 86.5409C26.7839 86.763 26.1642 86.9923 25.6053 87.23C25.6393 86.8975 25.6661 86.5593 25.6845 86.2197C25.7029 85.8787 25.7114 85.5419 25.7114 85.208C26.2165 85.0184 26.8179 84.7849 27.5154 84.5076C28.2116 84.2303 28.8837 83.9048 29.5289 83.5327C30.1741 83.1606 30.7189 82.7333 31.1632 82.2493C31.6075 81.7668 31.8296 81.232 31.8296 80.6448C31.8296 80.4226 31.7773 80.2401 31.674 80.0972C31.5707 79.9543 31.4306 79.8411 31.2651 79.7619Z" fill="#E3000B"/>
<path d="M41.9477 85.324C41.618 85.1344 41.2458 84.9972 40.8369 84.908C40.4266 84.8203 40.0219 84.7864 39.6201 84.8019C38.8022 84.8331 38.1386 85.0396 37.6335 85.4202C37.1284 85.8023 36.6742 86.2919 36.2738 86.8946C36.2568 86.6739 36.2129 86.4192 36.1436 86.1334C36.0729 85.849 35.9724 85.5787 35.8422 85.3255C35.7106 85.0722 35.5451 84.8628 35.3442 84.6972C35.1432 84.5303 34.8956 84.4468 34.5999 84.4468C34.0764 84.4468 33.6674 84.5699 33.3717 84.8161C33.0731 85.0623 32.8482 85.3707 32.6911 85.7428C32.5355 86.115 32.4379 86.507 32.4039 86.9187C32.3699 87.3319 32.3516 87.704 32.3516 88.0365C32.3516 88.5925 32.3741 89.1373 32.4166 89.6764C32.4605 90.2155 32.4916 90.7631 32.5072 91.3164C32.5072 91.4748 32.5072 91.6941 32.5072 91.97C32.5072 92.2474 32.5072 92.5572 32.5072 92.8982C32.5072 93.2378 32.5214 93.5944 32.5468 93.9679C32.5737 94.3401 32.6118 94.708 32.6642 95.073C32.7165 95.4381 32.7859 95.7861 32.8736 96.1187C32.9599 96.4512 33.0788 96.7483 33.226 97.0101C33.3731 97.2718 33.5528 97.4813 33.7622 97.6397C33.9716 97.7982 34.2249 97.8774 34.5206 97.8774C34.8871 97.8774 35.1927 97.7742 35.4347 97.5676C35.6795 97.3624 35.8761 97.1134 36.0233 96.819C36.1719 96.5261 36.2808 96.2177 36.3502 95.8923C36.4195 95.5682 36.4633 95.2782 36.4817 95.0249C36.5143 94.7872 36.5341 94.4632 36.5341 94.0514C36.5341 93.6397 36.5341 93.2194 36.5341 92.7907C36.5511 92.3478 36.5723 91.9361 36.5978 91.5541C36.6261 91.1734 36.6643 90.8975 36.7166 90.7221C36.8043 90.4532 36.9218 90.1717 37.0704 89.8774C37.2175 89.5845 37.3958 89.3184 37.6067 89.0807C37.8147 88.843 38.0594 88.6492 38.3396 88.4978C38.6169 88.3492 38.9226 88.2643 39.2537 88.2488C39.4277 88.2488 39.5876 88.2728 39.7375 88.3195C39.8847 88.3676 40.0389 88.4228 40.1946 88.4865C40.3502 88.5501 40.5214 88.6095 40.7039 88.6647C40.8864 88.7199 41.0916 88.7397 41.3194 88.7242C41.8231 88.7086 42.2562 88.5699 42.6141 88.3082C42.9707 88.0464 43.1419 87.67 43.1235 87.179C43.1051 86.7503 42.9876 86.3824 42.7712 86.0725C42.5533 85.7655 42.2774 85.5151 41.9477 85.324Z" fill="#E3000B"/>
<path d="M54.6062 90.1348C54.5015 89.4613 54.3571 88.8048 54.1746 88.1624C53.9907 87.5214 53.7501 86.9159 53.4544 86.3456C53.0355 85.5391 52.3989 84.9321 51.5442 84.5288C50.6896 84.1256 49.7925 83.9218 48.8516 83.9218C48.362 83.9218 47.8215 84.0025 47.23 84.1595C46.6372 84.318 46.0924 84.5444 45.5972 84.8373C45.0991 85.1302 44.6817 85.4825 44.3407 85.8943C44.0011 86.3074 43.8314 86.7658 43.8314 87.2738C43.8314 87.6233 43.9672 87.9035 44.2361 88.1185C44.5049 88.3336 44.8247 88.4397 45.1911 88.4397C45.5392 88.4397 45.8448 88.3732 46.1052 88.2374C46.3684 88.103 46.6372 87.9573 46.9159 87.7974C47.1947 87.6375 47.4918 87.4917 47.8045 87.3573C48.12 87.2215 48.4852 87.1535 48.904 87.1535C49.4261 87.1535 49.8321 87.3035 50.1193 87.6049C50.4066 87.9063 50.551 88.294 50.551 88.7694C50.551 88.8501 50.5453 88.9166 50.5368 88.9732C50.5283 89.0298 50.524 89.0963 50.524 89.1755C49.8788 89.2548 49.1459 89.409 48.3267 89.6382C47.5074 89.8688 46.7306 90.1815 45.999 90.5777C45.2661 90.9739 44.6478 91.4493 44.1412 92.004C43.6361 92.5601 43.3828 93.2095 43.3828 93.9538C43.3828 94.3825 43.4819 94.8098 43.6842 95.2371C43.8837 95.6659 44.154 96.0493 44.4936 96.3903C44.8332 96.7313 45.2265 97.0086 45.6708 97.2223C46.1151 97.4359 46.5834 97.5435 47.0702 97.5435C47.8017 97.5435 48.5092 97.4161 49.1884 97.16C49.8675 96.9039 50.4873 96.5615 51.0462 96.13C51.0278 96.6846 51.1905 97.1487 51.5301 97.5195C51.8696 97.893 52.3536 98.0798 52.9804 98.0798C53.4332 98.0798 53.7869 97.9255 54.0388 97.6157C54.2935 97.3072 54.4803 96.9379 54.6019 96.5106C54.7236 96.0833 54.7986 95.6489 54.8227 95.2046C54.851 94.7617 54.8623 94.3966 54.8623 94.1108C54.8623 93.4783 54.8439 92.8247 54.8099 92.1512C54.7759 91.4776 54.7109 90.8069 54.6062 90.1348ZM49.6836 93.8845C49.2605 94.0585 48.8587 94.1462 48.478 94.1462C48.2715 94.1462 48.0805 94.1066 47.9064 94.0274C47.7352 93.9481 47.6475 93.8052 47.6475 93.5986C47.6475 93.3609 47.755 93.136 47.9715 92.9209C48.1865 92.7072 48.4469 92.5134 48.7483 92.3379C49.0511 92.1639 49.3624 92.0252 49.6822 91.9219C50.0005 91.82 50.2736 91.7677 50.4972 91.7677C50.5311 91.7677 50.5665 91.772 50.6018 91.7804C50.6358 91.7889 50.6712 91.7918 50.7066 91.7918L50.7844 93.3609C50.4745 93.5349 50.1066 93.709 49.6836 93.8845Z" fill="#E3000B"/>
<path d="M67.2721 86.0258C67.0358 85.4641 66.6722 84.9929 66.1826 84.6109C65.6916 84.2302 65.0097 84.0407 64.1352 84.0407C63.2084 84.0407 62.4628 84.2076 61.9053 84.5415C61.345 84.874 60.8893 85.2632 60.5398 85.7061C60.4875 85.532 60.4125 85.3282 60.3177 85.099C60.2229 84.8698 60.104 84.6519 59.9654 84.4453C59.8239 84.2387 59.6639 84.0689 59.48 83.9345C59.2961 83.8001 59.0839 83.7322 58.8405 83.7322C58.317 83.7322 57.9151 83.8935 57.6364 84.2189C57.3576 84.5443 57.1567 84.9335 57.035 85.3834C56.9119 85.8348 56.8468 86.3031 56.8383 86.787C56.8284 87.271 56.8242 87.6629 56.8242 87.9629C56.8242 88.5331 56.8383 89.1047 56.8624 89.675C56.8907 90.2452 56.902 90.8324 56.902 91.4337V92.5275C56.902 92.7963 56.902 93.2123 56.902 93.7754C56.902 94.3386 56.9501 94.9046 57.0463 95.4748C57.1426 96.045 57.3152 96.5459 57.5699 96.9732C57.8217 97.402 58.2109 97.6156 58.733 97.6156C59.3442 97.6156 59.797 97.3977 60.0927 96.9619C60.3885 96.5247 60.5979 96.0394 60.7196 95.5003C60.7889 95.2145 60.8384 94.9258 60.8639 94.6329C60.8907 94.3386 60.912 94.0584 60.9304 93.7882C60.9473 93.5193 60.9558 93.2689 60.9558 93.0397C60.9558 92.8105 60.9558 92.6067 60.9558 92.4327C60.9558 92.0676 60.953 91.7153 60.9431 91.3743C60.9331 91.0347 60.9304 90.6895 60.9304 90.3414C60.9304 90.214 60.9856 90.0089 61.0988 89.7231C61.212 89.4373 61.3478 89.1486 61.5048 88.8557C61.6619 88.5614 61.8303 88.3039 62.0142 88.0817C62.1981 87.861 62.3665 87.7492 62.5236 87.7492C62.7499 87.7492 62.9297 87.8129 63.0599 87.9402C63.19 88.0676 63.2863 88.226 63.3471 88.4156C63.4079 88.6067 63.4461 88.8076 63.4659 89.0227C63.4829 89.2363 63.4914 89.4387 63.4914 89.6297C63.4914 90.1051 63.4617 90.572 63.4008 91.0319C63.34 91.4917 63.2707 91.9502 63.1915 92.4115C63.1137 92.8713 63.0443 93.3298 62.9849 93.791C62.9226 94.2509 62.8929 94.7178 62.8929 95.1932C62.8929 95.3517 62.9056 95.5937 62.9325 95.9191C62.9579 96.2431 63.0188 96.5601 63.115 96.87C63.2098 97.1798 63.3471 97.4515 63.5211 97.6892C63.6952 97.9283 63.923 98.0472 64.2031 98.0472C64.6432 98.0472 65.0379 97.876 65.3889 97.5364C65.7383 97.1954 66.0468 96.7553 66.3086 96.2162C66.5704 95.6771 66.7953 95.0786 66.9807 94.4207C67.1632 93.7627 67.3117 93.1203 67.4278 92.4949C67.541 91.8695 67.6245 91.2937 67.6768 90.7715C67.7292 90.248 67.7575 89.8589 67.7575 89.607C67.7575 89.0835 67.7349 88.4977 67.691 87.8469C67.6485 87.196 67.5084 86.589 67.2721 86.0258Z" fill="#E3000B"/>
<path d="M74.9491 97.6638V97.5208C75.3849 97.426 75.8108 97.2704 76.2311 97.0567C76.6485 96.8431 77.0191 96.5842 77.3418 96.2814C77.6644 95.98 77.9247 95.6461 78.127 95.281C78.3265 94.9145 78.427 94.5353 78.427 94.1363C78.427 93.8179 78.3138 93.5364 78.0874 93.2902C77.861 93.044 77.5639 92.9209 77.1988 92.9209C76.9201 92.9209 76.6569 93.0086 76.4135 93.1826C76.1688 93.3581 75.9296 93.5449 75.6948 93.743C75.4585 93.9425 75.215 94.1292 74.9632 94.3033C74.7113 94.4773 74.4312 94.565 74.12 94.565C73.8087 94.565 73.5596 94.4462 73.37 94.2084C73.1818 93.9693 73.0304 93.692 72.9187 93.3736C72.8069 93.0553 72.7319 92.7312 72.6993 92.3973C72.6653 92.0648 72.647 91.7931 72.647 91.588C72.647 91.3022 72.7049 90.9201 72.8181 90.4433C72.9313 89.9665 73.0913 89.4981 73.3021 89.0382C73.5101 88.577 73.7492 88.1808 74.0209 87.8455C74.2912 87.513 74.5826 87.3446 74.8967 87.3446C75.1599 87.3446 75.3368 87.421 75.433 87.5695C75.5292 87.7209 75.59 87.902 75.6155 88.1171C75.6438 88.3308 75.6509 88.5501 75.6438 88.7708C75.6339 88.993 75.6566 89.1755 75.7089 89.3184C75.9013 89.8419 76.3018 90.1037 76.9131 90.1037C77.3135 90.1037 77.6615 89.9933 77.9572 89.7712C78.2544 89.5491 78.4709 89.2802 78.6124 88.9632C78.6647 88.8359 78.6958 88.6902 78.7029 88.5232C78.7114 88.3563 78.7171 88.2091 78.7171 88.0818C78.7171 87.5908 78.6421 87.0984 78.4936 86.6017C78.3464 86.1051 78.1185 85.6608 77.8143 85.2674C77.5101 84.8755 77.1267 84.5557 76.664 84.3109C76.2013 84.0675 75.665 83.9459 75.0552 83.9459C74.0435 83.9459 73.1648 84.1949 72.422 84.6944C71.6777 85.1938 71.0636 85.815 70.5811 86.5593C70.0972 87.3035 69.7406 88.1214 69.5128 89.0071C69.285 89.8957 69.1719 90.7192 69.1719 91.4805C69.1719 92.0663 69.2355 92.686 69.3671 93.3355C69.4987 93.9849 69.711 94.5961 70.0081 95.1664C70.3053 95.7366 70.6915 96.2361 71.1711 96.6648C71.6508 97.0921 72.2309 97.378 72.9101 97.5195V97.8293C72.9101 98.0501 72.9101 98.3203 72.9101 98.6372C72.9101 98.9542 72.9795 99.199 73.1182 99.3744C73.2413 99.5329 73.4238 99.6673 73.6672 99.7791C73.9119 99.8895 74.151 100.004 74.3873 100.123C74.6236 100.242 74.8288 100.38 75.0028 100.539C75.1769 100.697 75.2646 100.895 75.2646 101.133C75.2646 101.481 75.1118 101.754 74.8076 101.954C74.5019 102.152 74.1751 102.251 73.827 102.251C73.4266 102.251 73.1082 102.192 72.8733 102.073C72.637 101.954 72.4305 101.827 72.2564 101.692C72.0824 101.556 71.9225 101.429 71.7726 101.31C71.6254 101.191 71.4471 101.132 71.2363 101.132C70.9929 101.132 70.7665 101.22 70.5571 101.395C70.3491 101.569 70.2429 101.776 70.2429 102.013C70.2429 102.124 70.2699 102.227 70.3222 102.323C70.5656 102.973 71.0099 103.42 71.6565 103.666C72.3003 103.911 72.9724 104.034 73.6685 104.034C74.1411 104.034 74.6053 103.95 75.0679 103.785C75.5306 103.618 75.9537 103.389 76.3357 103.096C76.7192 102.801 77.0276 102.462 77.2639 102.073C77.5002 101.684 77.6162 101.269 77.6162 100.825C77.6162 100.523 77.5257 100.238 77.3431 99.9687C77.1606 99.6999 76.9328 99.4537 76.664 99.2315C76.3937 99.0094 76.098 98.8155 75.7739 98.6485C75.4499 98.483 75.1514 98.3514 74.8712 98.2566C74.9052 98.1774 74.9278 98.0826 74.9363 97.9722C74.9448 97.8618 74.9491 97.7586 74.9491 97.6638Z" fill="#E3000B"/>
<path d="M87.1066 89.1769C86.4628 89.2562 85.7298 89.4104 84.9092 89.6397C84.0913 89.8703 83.3145 90.183 82.5816 90.5792C81.8486 90.9754 81.2303 91.4508 80.7238 92.0054C80.2186 92.5615 79.9668 93.211 79.9668 93.9552C79.9668 94.3839 80.0658 94.8113 80.2681 95.2386C80.4676 95.6673 80.7379 96.0507 81.0775 96.3917C81.4171 96.7327 81.8105 97.0101 82.2548 97.2237C82.6991 97.4374 83.166 97.5449 83.6527 97.5449C84.3856 97.5449 85.0917 97.4176 85.7723 97.1615C86.4514 96.9054 87.0698 96.563 87.6287 96.1314C87.6103 96.6861 87.773 97.1501 88.1126 97.5209C88.4522 97.8944 88.9375 98.0812 89.5643 98.0812C90.0171 98.0812 90.3695 97.927 90.6228 97.6171C90.876 97.3087 91.0628 96.9393 91.1845 96.512C91.3061 96.0847 91.3811 95.6503 91.4066 95.206C91.432 94.7617 91.4448 94.3981 91.4448 94.1123C91.4448 93.4798 91.4278 92.8261 91.3924 92.1526C91.3585 91.4791 91.2892 90.807 91.1845 90.1335C91.0812 89.46 90.9368 88.8034 90.7529 88.161C90.569 87.5186 90.3284 86.9145 90.0327 86.3442C89.6152 85.5377 88.9771 84.9307 88.1225 84.5274C87.2679 84.1242 86.3708 83.9204 85.4298 83.9204C84.9417 83.9204 84.3998 84.0011 83.8083 84.1581C83.214 84.3166 82.6693 84.543 82.1741 84.8359C81.6789 85.1288 81.2586 85.4811 80.9176 85.8929C80.578 86.306 80.4097 86.7645 80.4097 87.2724C80.4097 87.6219 80.544 87.9021 80.8129 88.1171C81.0831 88.3308 81.4015 88.4384 81.7694 88.4384C82.1175 88.4384 82.4217 88.3719 82.6835 88.236C82.9452 88.1016 83.2141 87.9559 83.4928 87.796C83.7716 87.6361 84.0687 87.4903 84.3828 87.3559C84.6983 87.2201 85.062 87.1521 85.4808 87.1521C86.0043 87.1521 86.409 87.3021 86.6963 87.6035C86.9849 87.9049 87.1292 88.2926 87.1292 88.768C87.1292 88.8487 87.1236 88.9152 87.1151 88.9718C87.1066 89.0284 87.1066 89.0977 87.1066 89.1769ZM87.1872 91.7805C87.2198 91.789 87.2565 91.7918 87.2905 91.7918L87.3698 93.3609C87.0571 93.535 86.6906 93.709 86.2676 93.8845C85.8445 94.0585 85.4412 94.1462 85.0606 94.1462C84.854 94.1462 84.6629 94.1066 84.4903 94.0274C84.3177 93.9481 84.23 93.8052 84.23 93.5986C84.23 93.3609 84.3376 93.136 84.5541 92.9209C84.7691 92.7073 85.0295 92.5134 85.3323 92.3379C85.6336 92.1639 85.9463 92.0252 86.2647 91.9219C86.5845 91.82 86.8561 91.7677 87.0811 91.7677C87.115 91.7677 87.1518 91.772 87.1872 91.7805Z" fill="#E3000B"/>
<path d="M93.9633 87.9417C93.8742 88.4808 93.8148 89.0156 93.7809 89.5462C93.7455 90.0782 93.7285 90.5692 93.7285 91.0206C93.7285 91.472 93.7285 91.8243 93.7285 92.079C93.7285 92.2686 93.7285 92.5544 93.7285 92.9336C93.7285 93.3128 93.7455 93.7373 93.7809 94.2056C93.8134 94.6726 93.8671 95.148 93.9365 95.6319C94.0058 96.1158 94.1105 96.5502 94.2506 96.9393C94.3906 97.3284 94.569 97.6496 94.7869 97.9029C95.0048 98.1576 95.2792 98.275 95.6103 98.2594C96.0475 98.2439 96.4041 98.0981 96.6829 97.8194C96.9616 97.5406 97.1838 97.1898 97.3493 96.761C97.5149 96.3337 97.6423 95.8569 97.73 95.3348C97.8177 94.8112 97.8757 94.2934 97.8998 93.7769C97.9267 93.2619 97.9436 92.7822 97.9521 92.3379C97.9606 91.8936 97.9663 91.5456 97.9663 91.2923C97.9832 91.0701 97.9917 90.8409 97.9917 90.6032C97.9917 90.3655 97.9917 90.1363 97.9917 89.9141C97.9917 89.6453 97.9832 89.2363 97.9663 88.6902C97.9479 88.1426 97.8827 87.5936 97.7695 87.0375C97.6563 86.4829 97.4767 85.9961 97.2333 85.5759C96.9871 85.1557 96.6391 84.9462 96.1863 84.9462C95.7505 84.9462 95.3854 85.0892 95.0897 85.375C94.7925 85.6594 94.5534 86.0244 94.3695 86.4673C94.1855 86.9102 94.0511 87.4026 93.9633 87.9417Z" fill="#E3000B"/>
<path d="M96.4451 83.3657C96.6785 83.2936 96.895 83.196 97.0945 83.0686C97.294 82.9413 97.4568 82.787 97.5869 82.6045C97.7171 82.422 97.7822 82.2282 97.7822 82.0216C97.7822 81.6905 97.6478 81.4527 97.3804 81.3098C97.1129 81.1655 96.8214 81.0948 96.5116 81.0948C96.2866 81.0948 96.0574 81.1245 95.8253 81.1797C95.5904 81.2349 95.3754 81.3226 95.1759 81.4414C94.9764 81.5603 94.8165 81.7103 94.6948 81.8928C94.5745 82.0753 94.5137 82.2848 94.5137 82.5225C94.5137 82.8408 94.6438 83.0785 94.9013 83.2356C95.1617 83.3941 95.4575 83.4733 95.7843 83.4733C95.9923 83.4719 96.2116 83.4351 96.4451 83.3657Z" fill="#E3000B"/>
<path d="M106.192 86.2522C106.601 86.0626 106.972 85.8575 107.303 85.6339C107.634 85.4132 107.801 85.0793 107.801 84.6364C107.801 84.3506 107.74 84.1086 107.618 83.9105C107.495 83.711 107.33 83.5539 107.12 83.4351C106.911 83.3162 106.676 83.2313 106.413 83.1846C106.152 83.1379 105.882 83.1125 105.604 83.1125C104.906 83.1125 104.23 83.2313 103.576 83.469C102.922 83.7067 102.342 84.0365 101.837 84.4553C101.332 84.8769 100.93 85.3707 100.634 85.9424C100.338 86.514 100.19 87.1309 100.19 87.7974C100.19 88.3365 100.334 88.8303 100.622 89.2831C100.909 89.7358 101.224 90.1546 101.564 90.5438C101.903 90.9329 102.213 91.3008 102.492 91.6488C102.771 91.9983 102.909 92.3379 102.909 92.6718C102.909 93.0199 102.815 93.2874 102.622 93.4685C102.431 93.651 102.191 93.7981 101.903 93.9099C101.616 94.0217 101.306 94.1165 100.975 94.1943C100.644 94.275 100.334 94.3811 100.047 94.5169C99.7598 94.6514 99.5193 94.841 99.3283 95.0858C99.1358 95.332 99.041 95.6687 99.041 96.0974C99.041 96.3988 99.116 96.6478 99.2618 96.8459C99.4103 97.044 99.6014 97.1983 99.8362 97.3086C100.073 97.419 100.338 97.4954 100.634 97.535C100.93 97.5732 101.217 97.5944 101.496 97.5944C102.212 97.5944 102.925 97.443 103.635 97.1431C104.348 96.8417 104.989 96.4497 105.561 95.9658C106.133 95.4819 106.597 94.9287 106.952 94.3019C107.307 93.675 107.484 93.0369 107.484 92.3874C107.484 91.721 107.335 91.2017 107.031 90.8296C106.73 90.456 106.397 90.1405 106.034 89.8773C105.671 89.6156 105.339 89.3637 105.036 89.1175C104.735 88.8713 104.583 88.5346 104.583 88.1072C104.583 87.5837 104.749 87.1918 105.081 86.93C105.411 86.6697 105.782 86.4418 106.192 86.2522Z" fill="#E3000B"/>
</svg>
