<svg width="547" height="13" viewBox="0 0 547 13" fill="none" xmlns="http://www.w3.org/2000/svg" preserveAspectRatio="none">
<path d="M13.4557 12.506C21.5637 12.361 29.6862 12.332 37.7979 12.178C46.2568 12.019 54.6911 11.821 63.137 11.639C79.7133 11.282 96.3048 10.946 112.909 10.634C146.123 10.01 179.358 9.62896 212.681 9.27196C279.03 8.56296 345.376 8.26 411.831 8.346C430.493 8.369 449.154 8.43 467.813 8.476C486.69 8.524 505.941 8.832 524.777 8.622C536.074 8.496 547 6.87301 546.453 4.62401C545.885 2.28501 536.903 0.842964 524.777 0.625964C508.274 0.329964 491.262 0.522975 474.689 0.549975C457.984 0.575975 441.293 0.648978 424.598 0.752978C391.189 0.961978 357.822 1.31598 324.454 1.67998C257.285 2.41098 190.538 3.69002 123.655 5.00402C105.09 5.36802 86.5414 5.76201 68.0122 6.18401C58.2863 6.40601 48.5402 6.61502 38.8468 6.87902C29.1469 7.14502 19.6932 7.55796 10.054 7.87096C-3.99992 8.32796 -0.929539 12.762 13.4557 12.506Z" fill="#2D6630"/>
</svg>
