<svg width="468" height="105" viewBox="0 0 468 105" fill="none" xmlns="http://www.w3.org/2000/svg">
<path fill-rule="evenodd" clip-rule="evenodd" d="M434.709 19.5551H0.920639V71.8944C0.920639 89.6935 15.6223 104.188 33.6866 104.188H467.474V51.8214C467.474 34.0223 452.776 19.5551 434.709 19.5551Z" fill="#F7A600"/>
<path fill-rule="evenodd" clip-rule="evenodd" d="M33.6864 101.397H464.704V51.821L464.621 49.616L464.373 47.4799L463.96 45.3747L463.422 43.3109L462.72 41.3228L461.913 39.4004L460.942 37.564L459.867 35.7655L458.647 34.0909L457.324 32.475L455.897 30.9866L454.368 29.5809L452.755 28.2751L451.019 27.0967L449.22 26.0286L447.339 25.0743L445.379 24.2439L443.37 23.5859L441.282 23.0484L439.132 22.6384L436.941 22.4075L434.708 22.3282H3.69061V71.8941L3.77326 74.1095L4.0214 76.2354L4.43484 78.368L4.97234 80.4146L5.67514 82.3991L6.48139 84.3458L7.45294 86.1823L8.52795 87.9601L9.74764 89.6552L11.0706 91.2504L12.497 92.7561L14.0269 94.1618L15.6392 95.44L17.3758 96.646L19.1742 97.7175L21.0554 98.6512L23.0194 99.4712L25.0247 100.16L27.1125 100.677L29.2625 101.087L31.4537 101.315L33.6864 101.397Z" fill="white"/>
<path fill-rule="evenodd" clip-rule="evenodd" d="M368.844 104.188L391.253 58.3954L368.352 19.5552H434.71C452.778 19.5552 467.476 34.0225 467.476 51.8215V104.188H368.844Z" fill="#F7A600"/>
<path fill-rule="evenodd" clip-rule="evenodd" d="M434.711 22.7969H374.057L394.954 58.2536L374.057 100.918H464.231V51.821C464.231 35.8274 450.98 22.7969 434.711 22.7969Z" fill="#F7A600"/>
<path fill-rule="evenodd" clip-rule="evenodd" d="M443.248 80.9938H441.178L440.682 81.0558C441.653 70.2682 443.142 53.6269 443.865 46.1021C443.948 45.3338 443.39 44.6481 442.625 44.5688C441.839 44.4896 441.178 45.0684 441.099 45.8333C439.982 57.4065 437.047 90.4412 437.006 90.7719C436.964 91.3508 436.427 91.7883 435.786 91.7883H413.232C412.588 91.7883 412.05 91.3508 411.992 90.7719C411.971 90.4412 409.015 57.4065 407.899 45.8333C407.837 45.065 407.154 44.4862 406.389 44.5688C405.624 44.6515 405.046 45.3372 405.128 46.1021C405.852 53.6269 407.344 70.2682 408.312 81.0558L407.816 80.9938H405.749C404.422 80.9938 403.33 82.0895 403.33 83.4091V92.1569C403.33 93.5041 404.422 94.5928 405.749 94.5928H407.816C408.829 94.5928 409.697 93.9727 410.069 93.1045C410.793 94.0141 411.95 94.5928 413.232 94.5928H435.786C437.068 94.5928 438.204 94.0141 438.949 93.1045C439.3 93.9727 440.168 94.5928 441.178 94.5928H443.248C444.592 94.5928 445.667 93.5041 445.667 92.1776V83.4366C445.667 82.0895 444.592 80.9938 443.248 80.9938Z" fill="#1D1D1B"/>
<path fill-rule="evenodd" clip-rule="evenodd" d="M416.954 49.3064C416.954 50.216 416.599 50.3779 416.041 50.3779H415.528V47.5734H416.227C416.599 47.5734 416.954 47.6353 416.954 48.6035V49.3064ZM417.158 55.1945C417.158 56.1041 416.803 56.1697 416.393 56.1697H415.524V52.7966H416.145C416.847 52.7966 417.158 52.9792 417.158 54.0748V55.1945ZM419.762 55.2325V54.2023C419.762 52.8551 419.349 51.9283 418.522 51.4287C419.225 50.9119 419.559 50.0644 419.559 48.8447V48.3933C419.559 46.1986 418.481 45.1443 416.272 45.1443H412.944V58.5814H416.396C418.563 58.5848 419.762 57.3859 419.762 55.2325Z" fill="#1D1D1B"/>
<path fill-rule="evenodd" clip-rule="evenodd" d="M425.14 53.937H423.858L424.499 49.5751L425.14 53.937ZM423.527 56.2489H425.512L425.867 58.5849H428.492L426.342 45.1478H422.89L420.74 58.5849H423.179L423.527 56.2489Z" fill="#1D1D1B"/>
<path fill-rule="evenodd" clip-rule="evenodd" d="M436.135 50.0646V48.5176C436.135 46.285 434.915 45.0033 432.828 45.0033C430.743 45.0033 429.52 46.2815 429.52 48.5176V55.212C429.52 57.4446 430.74 58.7298 432.828 58.7298C434.915 58.7298 436.135 57.4446 436.135 55.212V53.2068H433.634V55.3396C433.634 56.1871 433.279 56.287 432.89 56.287C432.497 56.287 432.121 56.1871 432.121 55.3396V48.3935C432.121 47.5184 432.493 47.4185 432.89 47.4185C433.279 47.4185 433.634 47.5184 433.634 48.3935V50.0611H436.135V50.0646Z" fill="#1D1D1B"/>
<path fill-rule="evenodd" clip-rule="evenodd" d="M419.866 63.2738H420.714C421.083 63.2738 421.458 63.36 421.458 64.2489V70.9261C421.458 71.815 421.086 71.8942 420.714 71.8942H419.866V63.2738ZM420.755 60.8793H417.282V74.2991H420.755C422.905 74.2991 424.063 73.1001 424.063 70.8468V64.3315C424.063 62.0575 422.905 60.8793 420.755 60.8793Z" fill="#1D1D1B"/>
<path fill-rule="evenodd" clip-rule="evenodd" d="M431.773 63.2738V60.8793H425.695V74.2991H431.773V71.8942H428.279V68.6934H431.049V66.2954H428.279V63.2738H431.773Z" fill="#1D1D1B"/>
<path fill-rule="evenodd" clip-rule="evenodd" d="M414.659 78.9885H416.767V90.0035H419.351V78.9885H421.46V76.5939H414.659V78.9885Z" fill="#1D1D1B"/>
<path fill-rule="evenodd" clip-rule="evenodd" d="M425.28 90.0035V84.7734H425.69C426.372 84.7734 426.727 85.0008 426.727 86.1206V88.1465C426.727 89.1836 426.806 89.4247 426.934 89.821L426.999 90.0035H429.704L429.518 89.6142C429.332 89.1836 429.332 88.746 429.332 88.1671V86.1826C429.332 85.2937 429.208 84.0981 428.254 83.4366C428.956 82.9198 429.311 82.0722 429.311 80.8525V79.8361C429.311 77.6414 428.233 76.5939 426.024 76.5939H422.696V90.007H425.28V90.0035ZM425.28 78.9885H425.979C426.352 78.9885 426.727 79.0678 426.727 80.0463V81.3038C426.727 82.1928 426.355 82.3823 425.793 82.3823H425.28V78.9885Z" fill="#1D1D1B"/>
<path d="M433.594 76.5939H431.01V90.007H433.594V76.5939Z" fill="#1D1D1B"/>
<path fill-rule="evenodd" clip-rule="evenodd" d="M444.695 39.5869H404.297V36.2138L404.342 36.0519H407.277C407.608 36.0519 407.922 35.9244 408.166 35.7142L411.846 32.51C411.991 32.3688 412.404 32.1999 412.9 32.1999H436.095C436.608 32.1999 437.005 32.3688 437.17 32.51L440.832 35.7142C441.08 35.9244 441.411 36.0519 441.742 36.0519H444.657L444.702 36.2138V39.5869H444.695ZM444.653 33.3231H442.259L438.972 30.4497C438.269 29.8295 437.215 29.4815 436.099 29.4815H412.904C411.791 29.4815 410.754 29.833 410.051 30.4497L406.764 33.3231H404.349C402.819 33.3231 401.575 34.6289 401.575 36.2173V39.9177C401.575 40.4345 401.699 40.934 401.947 41.3854C402.051 41.5749 402.216 41.7368 402.402 41.8643C402.836 42.1537 403.353 42.3157 403.891 42.3157H445.136C445.649 42.3157 446.169 42.1537 446.624 41.8643C446.81 41.7368 446.955 41.5749 447.058 41.3854C447.306 40.934 447.431 40.4379 447.431 39.9177V36.2173C447.424 34.6289 446.183 33.3231 444.653 33.3231Z" fill="#1D1D1B"/>
<path fill-rule="evenodd" clip-rule="evenodd" d="M436.095 33.4915H412.9C412.28 33.4915 411.742 34.0014 411.742 34.6491C411.742 35.29 412.28 35.8068 412.9 35.8068H436.095C436.736 35.8068 437.252 35.29 437.252 34.6491C437.252 34.0014 436.736 33.4915 436.095 33.4915Z" fill="#1D1D1B"/>
<path fill-rule="evenodd" clip-rule="evenodd" d="M221.025 60.7725H213.687V68.1043H208.808V60.7725H201.49V55.8904H208.808V48.5688H213.687V55.8904H221.025V60.7725Z" fill="#1D1D1B"/>
<path fill-rule="evenodd" clip-rule="evenodd" d="M307.025 60.7725H299.687V68.1043H294.808V60.7725H287.49V55.8904H294.808V48.5688H299.687V55.8904H307.025V60.7725Z" fill="#1D1D1B"/>
<path fill-rule="evenodd" clip-rule="evenodd" d="M33.7138 103.713H124.156V51.8213L124.073 49.5749L123.825 47.3216L123.453 45.1476L122.895 43.0217L122.213 40.9752L121.407 38.9492L120.456 37.044L119.36 35.1592L118.161 33.3849L116.859 31.707L115.432 30.1186L113.902 28.613L112.311 27.2073L110.574 25.9221L108.776 24.7438L106.874 23.6653L104.931 22.7386L102.884 21.9288L100.796 21.2501L98.6256 20.7333L96.4343 20.344L94.1602 20.0925L91.8655 20.0132H1.40267V71.8943L1.48532 74.1511L1.73346 76.4044L2.10547 78.5785L2.66379 80.7043L3.34598 82.7509L4.15203 84.7767L5.10296 86.6786L6.19879 88.5564L7.39767 90.3411L8.7 92.0086L10.1264 93.6039L11.6563 95.113L13.248 96.5188L14.9846 97.8039L16.783 98.9822L18.6849 100.05L20.6282 100.987L22.6747 101.787L24.7627 102.472L26.9331 102.993L29.1246 103.382L31.3985 103.63L33.7138 103.713Z" fill="#FCC32E"/>
<path fill-rule="evenodd" clip-rule="evenodd" d="M91.8583 19.5341H0.916641V71.8941C0.916641 89.6931 15.6183 104.188 33.6826 104.188H124.624V51.821C124.624 34.0219 109.926 19.5341 91.8583 19.5341Z" fill="#F7A600"/>
<path fill-rule="evenodd" clip-rule="evenodd" d="M10.7044 55.6112V39.4005H14.9836V52.0108H21.1027V55.6112H10.7044Z" fill="#1D1D1B"/>
<path fill-rule="evenodd" clip-rule="evenodd" d="M23.0211 55.6112V39.4005H33.4814V43.0009H27.3003V45.5437H32.5925V49.1166H27.3003V52.0108H33.7294V55.6112H23.0211Z" fill="#1D1D1B"/>
<path fill-rule="evenodd" clip-rule="evenodd" d="M43.9438 55.6112V43.0009H39.6646V39.4005H52.5229V43.0009H48.2437V55.6112H43.9438Z" fill="#1D1D1B"/>
<path fill-rule="evenodd" clip-rule="evenodd" d="M58.5168 46.7806H60.0673C61.8038 46.7806 62.6513 46.0743 62.6513 44.6272C62.6513 43.9485 62.4445 43.4489 62.0104 43.2008C61.5556 42.9321 60.9149 42.7908 60.0673 42.7908H58.5168V46.7806ZM54.2376 55.6112V39.4005H60.3739C61.2215 39.4005 62.0483 39.4797 62.8339 39.6486C63.6401 39.8174 64.3258 40.1068 64.9219 40.4961C65.5007 40.9061 65.9762 41.4436 66.3277 42.112C66.6791 42.7908 66.841 43.6211 66.841 44.6272C66.841 45.8124 66.5964 46.7599 66.1416 47.5213C65.6626 48.2897 65.0252 48.8858 64.2155 49.3233L67.7333 55.6078H62.9546L60.1638 50.1709H58.5099V55.6078L54.2376 55.6112Z" fill="#1D1D1B"/>
<path d="M73.711 39.4005H69.4112V55.5906H73.711V39.4005Z" fill="#1D1D1B"/>
<path fill-rule="evenodd" clip-rule="evenodd" d="M44.4656 84.3255V68.1355H55.0294V71.7153H48.7448V74.8161H54.1197V78.3891H48.7448V84.3255H44.4656Z" fill="#1D1D1B"/>
<path fill-rule="evenodd" clip-rule="evenodd" d="M60.875 76.4458L60.6062 77.5829H63.6037L63.335 76.4458C63.1248 75.6844 62.9215 74.8369 62.7354 73.9032L62.1359 71.3191H62.0327L61.4743 73.9238C61.2883 74.8368 61.0817 75.6844 60.875 76.4458ZM54.6525 84.3255L59.5966 68.1355H64.7648L69.7056 84.3255H65.1818L64.3755 80.8939H59.8517L59.0455 84.3255H54.6525Z" fill="#1D1D1B"/>
<path fill-rule="evenodd" clip-rule="evenodd" d="M77.4934 84.6357C76.4563 84.6357 75.4882 84.4462 74.5373 84.1189C73.607 83.7881 72.78 83.2713 72.0771 82.5719C71.3742 81.8863 70.8162 81.018 70.4027 79.9878C69.9893 78.9508 69.7826 77.7345 69.7826 76.3667C69.7826 74.9989 69.9892 73.7826 70.4234 72.7249C70.8575 71.674 71.4364 70.7816 72.1599 70.0615C72.8835 69.3346 73.7102 68.804 74.6439 68.4078C75.5914 68.0391 76.5666 67.829 77.5968 67.829C78.6752 67.829 79.6467 68.0563 80.4909 68.4697C81.3384 68.9073 82.0414 69.4035 82.6409 69.9824L80.391 72.7284C79.9982 72.3769 79.5848 72.0875 79.1507 71.8601C78.7372 71.6327 78.2409 71.5293 77.7034 71.5293C77.228 71.5293 76.7732 71.6293 76.3391 71.8395C75.9291 72.0668 75.5535 72.3769 75.2262 72.7697C74.892 73.1659 74.6475 73.6586 74.458 74.2443C74.2513 74.8232 74.1686 75.4812 74.1686 76.2013C74.1686 77.7345 74.482 78.9129 75.1194 79.7191C75.7602 80.5391 76.6079 80.9388 77.6622 80.9388C78.2824 80.9388 78.8405 80.8113 79.3332 80.5219C79.8328 80.2531 80.2463 79.9223 80.5943 79.5537L82.8268 82.2376C82.1239 83.0439 81.335 83.6434 80.4288 84.0396C79.5192 84.4255 78.5477 84.6357 77.4934 84.6357Z" fill="#1D1D1B"/>
<path d="M88.7612 68.1355H84.482V84.3255H88.7612V68.1355Z" fill="#1D1D1B"/>
<path fill-rule="evenodd" clip-rule="evenodd" d="M91.8238 84.3255V68.1355H96.103V80.7457H102.243V84.3255H91.8238Z" fill="#1D1D1B"/>
<path fill-rule="evenodd" clip-rule="evenodd" d="M104.141 84.3255V68.1355H114.601V71.7153H108.44V74.258H113.712V77.8516H108.44V80.7457H114.849V84.3255H104.141Z" fill="#1D1D1B"/>
<path fill-rule="evenodd" clip-rule="evenodd" d="M24.2382 90.7922L25.8093 90.7096L27.3598 90.4821L28.8274 90.0928L30.2574 89.5725L31.5976 88.9145L32.8793 88.1462L34.0784 87.2572L35.174 86.2615L36.1661 85.1728L37.055 83.9669L37.8201 82.6886L38.4815 81.3448L38.9984 79.9185L39.3912 78.4507L39.6185 76.9038L39.7011 75.3292L39.6185 73.758L39.3912 72.2042L38.9984 70.7365L38.4815 69.3101L37.8201 67.9732L37.055 66.688L36.1661 65.4891L35.174 64.4142L34.0784 63.4047L32.8793 62.5364L31.5976 61.7473L30.2574 61.11L28.8274 60.5897L27.3598 60.2003L25.8093 59.9695L24.2382 59.8903L22.6671 59.9695L21.1166 60.2003L19.6488 60.5897L18.2224 61.11L16.8788 61.7473L15.5971 62.5364L14.398 63.4047L13.323 64.4142L12.3102 65.4891L11.4419 66.688L10.6563 67.9732L10.0155 69.3101L9.49864 70.7365L9.10581 72.2042L8.87849 73.758L8.79585 75.3292L8.87849 76.9038L9.10581 78.4507L9.49864 79.9185L10.0155 81.3448L10.6563 82.6886L11.4419 83.9669L12.3102 85.1728L13.323 86.2615L14.398 87.2572L15.5971 88.1462L16.8788 88.9145L18.2224 89.5725L19.6488 90.0928L21.1166 90.4821L22.6671 90.7096L24.2382 90.7922Z" fill="white"/>
<path fill-rule="evenodd" clip-rule="evenodd" d="M24.2484 60.3627C15.9794 60.3627 9.27792 67.0642 9.27792 75.3297C9.27792 83.5987 15.9759 90.3241 24.2484 90.3241C32.5139 90.3241 39.2359 83.6022 39.2359 75.3297C39.2359 67.0642 32.5174 60.3627 24.2484 60.3627Z" fill="white"/>
<path fill-rule="evenodd" clip-rule="evenodd" d="M34.0216 77.7724H26.6828V85.1042H21.8041V77.7724H14.4859V72.8902H21.8041V65.5687H26.6828V72.8902H34.0216V77.7724Z" fill="#1D1D1B"/>
<path fill-rule="evenodd" clip-rule="evenodd" d="M1.39877 22.3281H33.0071V7.25442L32.9244 6.26563L32.6969 5.3354L32.3455 4.48782L31.8288 3.68156L31.2293 2.9753L30.5263 2.37576L29.7202 1.8555L28.8725 1.50746L27.9422 1.27667L26.95 1.19739H7.4558L6.46364 1.27667L5.53331 1.50746L4.68562 1.8555L3.87958 2.37576L3.17657 2.9753L2.57703 3.68156L2.06034 4.48782L1.70895 5.3354L1.48141 6.26563L1.39877 7.25442V22.3281Z" fill="#FCC32E"/>
<path fill-rule="evenodd" clip-rule="evenodd" d="M0.920639 22.7973V7.23083C0.920639 3.65793 3.85963 0.715576 7.43253 0.715576H26.9714C30.5477 0.715576 33.4833 3.65793 33.4833 7.23083V22.7973H0.920639Z" fill="#F7A600"/>
<path fill-rule="evenodd" clip-rule="evenodd" d="M8.46792 3.98859H15.9307V6.57265H11.5275V10.3351H15.0452V12.9812H11.5275V19.5344H8.46792V3.98859Z" fill="#1D1D1B"/>
<path fill-rule="evenodd" clip-rule="evenodd" d="M21.6352 11.0828C22.5068 11.0828 23.0201 10.4557 23.0201 8.78807C23.0201 7.31343 22.5653 6.5348 21.6143 6.5348H20.5015V11.0828H21.6352ZM17.418 3.98859H21.8831C24.5119 3.98859 26.1039 5.41499 26.1039 8.57789C26.1039 10.8312 25.3803 12.0923 24.2846 12.6884L26.2898 19.5309H23.1064L21.5145 13.3739H20.5015V19.5309H17.418V3.98859Z" fill="#1D1D1B"/>
</svg>
