<svg fill="none" height="477" viewBox="0 0 308 477" width="308" xmlns="http://www.w3.org/2000/svg"><path clip-rule="evenodd" d="m230.423 121.102c-39.626-60.7493-139.8166-29.5018-221.70696-4.873-77.98034 23.454-169.20604 54.063-184.34104 126.995-16.283 78.463 47.837 137.314 125.0593 158.669 68.7177 19.003 145.6653-13.309 200.9187-68.524 63.007-62.962 121.263-149.115 80.07-212.267z" fill="#dbf0e5" fill-rule="evenodd"/><path clip-rule="evenodd" d="m185.903 278.405c-20.347-18.013-53.44 3.223-80.58 20.25-25.8436 16.215-55.762 36.33-53.9894 64.18 1.907 29.963 30.914 44.859 60.9324 44.907 26.712.044 51.303-19.269 65.783-44.702 16.512-29.001 29.006-65.909 7.854-84.635z" fill="#fdecb2" fill-rule="evenodd"/><path d="m277.744 120.411c-6.08-33.901-33.653-37.9353-46.679-35.7149 44.976 22.8379 37.229 97.4889 27.734 131.9599l4.922 17.306c7.552-17.291 21.622-71.175 14.023-113.551z" fill="#dbf0e5"/></svg>