<svg fill="none" height="260" viewBox="0 0 203 260" width="203" xmlns="http://www.w3.org/2000/svg"><path d="m92.6446 55.085h-31.5092c.0005-8.0431-.3696-24.5007-1.8534-25.9856-1.8548-1.8561-5.5592-1.8561-7.4126-3.7122-1.8535-1.8561-3.707-3.7122-5.5605-3.7122s-3.7069-3.7123-5.5604-3.7123-3.7083-1.8561-5.5618-5.5683c-1.8535-3.71225-3.7056-1.8561-5.5591-3.71225-1.4828-1.48489-3.09-2.6295-3.7083-3.01619v-2.55215l-7.4139-1.85612c-.6179 0-2.9659.74245-7.4142 3.71223-3.70727 3.71223-3.70671 1.85612-5.56047 5.56838l-.00168.0033c-1.85208 3.7089-1.85236 3.7095-3.70528 5.565-1.8534817 1.8561 0 1.8561 0 7.4245v3.7122 7.4245c0 3.7122 0 1.8561 1.85348 3.7122s1.85348 0 5.56072 3.7122c.69534 1.8561 1.85323 1.8561 1.85323 3.7123v7.4244c0 5.5684 1.8537 1.8561 1.8537 3.7122 0 1.8562 0 1.8562 1.8535 12.9929 0 7.4244 0 3.7122-1.8535 9.2805-1.8534 3.7123 0 2.7842 0 11.1367 0 3.7122 1.8535 1.8561 1.8535 3.7122 0 1.8562 1.8532 1.8562 1.8532 3.7123s1.8538 1.8561 1.8538 5.5683c0 3.712 0 1.856-1.8538 3.712-1.8537 1.856-1.8532 1.856-5.5604 5.569-3.70727 3.712-1.85323 1.856-3.70671 1.856s-1.85376 3.712-1.85376 5.568 1.85376 1.856 1.85376 3.712 3.70671 1.856 5.56041 1.856c1.8535 0 1.8535 1.856 1.8535 2.784v.001c0 .928 1.8532 4.64 1.8532 6.496s-1.8532 1.856-5.5604 7.424c-3.70727 5.569-1.85323 3.713-3.70671 5.569s0 1.856 1.85348 9.28c1.85353 7.425 3.70693 5.569 3.70693 7.425v12.993c0 2.969 1.2357 4.176 1.8535 4.408v6.728l3.707 11.137 5.5604-3.712 1.8535-5.569h11.1209l1.8535 18.562-3.707 1.856s2.0079 23.51 8.5724 25.985v7.425l-6.7189 3.712v7.424l22.2418 1.857 1.8534-1.857h7.414v3.713h14.8278l3.707-14.849 5.5604-1.856c1.8535 4.331 5.9312 12.992 7.4144 12.992h5.56l14.828-12.992 22.242 3.712-1.854-18.561 11.121-16.705 18.535-1.856 18.535-22.274h12.974v-9.28l-12.974-20.418-33.363-24.129v-7.425l1.853-14.849c-9.267-15.4671-28.914-48.6297-33.362-57.5391-4.449-8.9093-11.739-12.3741-14.828-12.9928l-1.854 12.9928h-11.1204z" fill="#dd513e" stroke="#dd513e"/></svg>