<svg fill="none" height="258" viewBox="0 0 241 258" width="241" xmlns="http://www.w3.org/2000/svg"><path d="m31.189 36.6011-14.4207 14.4034 35.2133 42.7077-25.9908 20.7678-2.5991 31.151-15.59445 2.596-7.79725 10.384 7.79725 10.384v28.556h18.19355l15.5945-10.384 18.1936 25.959h28.5899l12.9952-12.979 46.784 31.151 12.995 2.596 15.595 5.192 20.792 18.172 12.996-7.788c.866-20.768 6.237-66.976 20.792-85.667s9.53-45.862 5.198-57.111h-57.179l-28.59-54.5151c-8.664 2.5959-25.471 4.6727-23.392-7.7879s-9.53-34.61279-15.594-44.13131h-31.1895-49.3825z" fill="#f08d52"/></svg>