<svg fill="none" height="92" viewBox="0 0 86 92" width="86" xmlns="http://www.w3.org/2000/svg"><g clip-rule="evenodd" fill-rule="evenodd"><path d="m2.57967 37.5976c-.2891-2.1037.95698-3.4665 4.44938-4.161 1.09735-.2425 2.21846-.2356 3.26715.0203.5987.1885 1.6277-.3567 2.3228-.1571 7.2712 1.7312 17.9456 5.5099 18.5257 9.7307-.439 5.8323-2.6201 5.552-4.5847 6.459-2.9381 1.0786-6.1542 1.2569-8.7576-.1093-1.7257-.0106-3.3698-.4869-4.738-1.3727-.714-.2288-1.5145-.0942-2.2448-.3115-2.12274-.6763-5.5939-1.598-5.90762-3.8808-.16126-1.1735-1.33805-.9477-1.42989-1.616-.10763-.7832.40692-1.3579.30443-2.1037-.1102-.8019-.92541-.4283-1.21084-2.5053z" fill="#cf000c"/><path d="m30.878 11.1c-.636.2397-1.218.6069-1.7024 1.0741-.4845.4673-.8587 1.0224-1.0948 1.624-2.027.5776-3.8595 2.8551-3.649 4.3822.6803 4.9363 2.432 10.1376 4.5779 12.6006.2473.5502 1.07-.0117 1.4262.3953.5411 3.9265 5.5034 8.6516 8.1619 8.1238 2.6018-.5165 3.9238-5.8983 3.7585-7.0979l-1.9053-15.9354c-.4303-3.123-2.9255-5.4319-5.0416-5.0118-.1123-.3932-.6243-.6421-1.1189-.8323-.4947-.1901-2.7859.3806-3.4125.6774z" fill="#f4ad17"/><path d="m46.7049 38.3824c.7871-.0766 1.5653-.284 2.2979-.6126.2901.7043.9273 1.5077 1.565 1.273.6836.0128.8822-.2973 1.4789-.5708.6656-.2486 1.7389-.3465 2.2579-1.339 1.0317-.2056 1.966-.8611 2.9838-1.9502.3901-.0123.7727-.1673 1.0666-.4321.2939-.2647.4759-.6184.5075-.9859.2709-.5647.8773-1.0279 1.3117-1.443.7116-.2164 1.779-.0536 1.5929-1.2589 4.6179-4.2775 9.6095-8.5217 9.8045-13.1796-.9911-2.6462-3.3756-4.424-9.4418-3.9993-5.9327 1.5936-9.0213 5.3206-11.0577 9.8374l-1.2951.4348.4717 1.5073c-1.1064.0741-.7311.6178-.6453 1.0701l-1.1862.3164c.2644.7342-.2068 1.3802-.5739 2.047.2257.1041.5779.067.5664.4393-.0719 1.5383-.6645 2.9485-1.2448 4.3618.3224 2.3295-.0881 3.223-.46 4.4843z" fill="#cf000c"/></g><path d="m53.7363 51.1143c-1.7158.379-1.2258-1.6128-.5417-2.3749.9814-.5531 1.6406-.921 2.3072-1.9798.8389-1.0278 1.6403-.4559 2.7384-1.0807 1.2741-.6947 2.6368-1.5366 3.9229-1.8686 1.8813-.1845 4.1343-.4721 6.0118-.5774 2.3906-.0822 4.6849-.2211 7.0606-.0922 3.9708-.1208 5.3552 1.1904 6.6588 3.5773.683 1.0142.5619 2.4574.0645 3.6098-.7467.8421-1.0398 1.3216-.1358 2.1652.2791.4614-1.0091 2.4997-1.5219 2.7333-1.6987.8181-3.5447 1.2747-5.394 1.3341-1.4709.0198-2.9656-.026-4.3132-.5199-1.271-.409-2.6706-.1303-4.0238-.1337-1.4125-.0269-3.0377.3044-4.0021-.8057-.8869-.6362-2.378-.0393-3.0373-1.0528-.7589-.3721-2.0446.1329-2.7282-1.0137-1.1727-.423-1.8945-.1022-2.505-1.2524-.084-.3295-.2271-.7662-.5602-.6816z" fill="#cf000c"/><path d="m46.9644 55.2242c-.6507-.6322-2.12-.8876-1.9415.4797-.1226.9184-2.4052.9235-2.7749 3.2463-.3801 1.6501-.3223 3.1764-.3973 4.7517.2775 2.0556.7634 4.0653 1.4511 6.0026.8031 1.2794 1.1267 2.688 1.7846 4.0132.6494 1.5293 1.7288 2.6777 2.7367 3.9247 1.8075 2.2347 7.241 2.3439 7.4415 2.6779.6647.8009 2.5116 1.6867 2.989-.3146.2471-.7408 1.3615-.53 1.7334-1.0904.5515-.6216.9447-.5847 1.5421-.9821 1.7673-2.1036 1.581-5.9378.5558-8.2384-.9966-.785-1.8533-1.7129-2.5428-2.7544-.3226-.4727-.6866-1.2914-1.3954-1.5072-.2123-.8404-.8351-1.2252-1.5716-1.7531-.5199-.6022-1.1501-1.1103-1.8649-1.5036-.4395-.2863.2335-1.0614-.2572-1.2785-.7371-.1342-1.2309-.4407-1.2354-.6281-.062-1.2697-1.3184-1.5872-2.4835-2.2996-1.0913-.595-1.5209-2.6882-3.0479-2.5245-.1333.0277-.269.0224-.3935-.0155-.1244-.0379-.2332-.107-.3154-.2002z" fill="#f4ad17"/><path clip-rule="evenodd" d="m36.7679 55.2515c-.7872.0763-1.5654.2847-2.2974.6151-.2876-.7074-.9247-1.5108-1.5653-1.2755-.6836-.0129-.8793.2967-1.476.5702-.6685.2491-1.7388.3465-2.2607 1.3394-1.0317.2056-1.966.8611-2.9837 1.9501-.3899.0131-.7721.1683-1.0658.4329s-.476.6178-.5083.9851c-.268.5642-.874 1.03-1.3116 1.443-.7117.2163-1.7645.0507-1.5929 1.2588-4.6178 4.2773-9.6092 8.5214-9.8042 13.179.999 2.617 3.3871 4.3994 9.4556 3.9715 5.9297-1.593 9.0181-5.3198 11.0574-9.837l1.2925-.4315-.4691-1.5105c1.1063-.0741.7282-.6172.6423-1.0694l1.1863-.3164c-.2641-.7315.2067-1.3802.5766-2.0475-.2256-.1041-.5807-.0665-.5692-.4387.0864-1.5412.6674-2.949 1.2448-4.3616-.3336-2.3023.0855-3.1975.4487-4.457z" fill="#cf000c" fill-rule="evenodd"/></svg>