<svg fill="none" height="161" viewBox="0 0 1440 161" width="1440" xmlns="http://www.w3.org/2000/svg"><path d="m.00001122 32 47.99998878 16c48 16.0001 144 48.0001 240 74.7 96 26.3 192 48.3 288 32 96-15.7 192-69.6999 288-85.3999 96-16.3 192 5.7 288 0 96-5.2999 192-37.2999 240-53.2999l48-16.00002833-48-.0000042c-48-.0000042-144-.00001259-240-.00002098s-192-.00001679-288-.00002518-192-.00001679-288-.00002518-192-.00001678-288-.00002518c-96-.00000839-192-.00001678-240-.00002098l-47.99998599-.00000419z" fill="#61a1ca"/></svg>