<svg fill="none" height="108" viewBox="0 0 62 108" width="62" xmlns="http://www.w3.org/2000/svg"><path d="m5.98745 98.0302-.00154-.0005c-.79306-.2743-1.22158-.8432-1.41955-1.2083-.19077-.3519-.26037-.6732-.28997-.8451-.06018-.3495-.04828-.6662-.03773-.841.02351-.3896.09568-.8283.17203-1.2251.15877-.8251.41558-1.8687.68157-2.8771.53252-2.0188 1.16451-4.1307 1.30652-4.5608l.00054-.0017c.62956-1.9023.93055-3.6421 1.2906-5.7233.05769-.3335.1169-.6757.17921-1.0288-1.66305-1.5149-2.66753-3.5126-3.312-5.2336-2.23082-5.9124-2.02793-12.3869-.51966-18.2198l.00125-.0048c.27992-1.0738.6262-2.2235 1.10332-3.3643l-.32404-.0691 1.41587-2.0848c.14909-.2433.30669-.4835.47349-.7196-.00724-.1024-.01453-.2054-.02185-.3089-.07322-1.0345-.1503-2.1235-.22534-3.2452l-.12074-1.8048.00386-.0016c-.57492-8.7029-1.20316-19.2653-1.35343-26.8505l-.00003-.0011c-.04087-2.1101-.0739-4.6081.56671-7.0559l.00275-.0105h.00003c.65826-2.47126 2.14121-5.13308 4.76128-6.63265l.0081-.00467v.00002c2.5883-1.46852 6.4433-1.5549 8.9332.93246zm0 0c9.81805 3.3898 19.97255 5.7978 30.26995 7.1758l.0051.001m-30.27505-7.1768 30.27505 7.1768m20.2511-43.0192c.1826-.5406.3543-1.0727.5195-1.5849.1616-.5005.3169-.982.4702-1.4336l.0006-.0016c.0745-.22.1548-.4508.2386-.6913.614-1.7633 1.4093-4.0472 1.3944-6.3855 0-.0004 0-.0008 0-.0012l-2.5.0162c-.0176-2.9319-1.8464-5.4635-4.1825-5.7928-.4366-.0615-.8511-.0738-1.2448-.0414.1703-.8153.2845-1.6602.2996-2.5166zm0 0c-.6972 5.632-1.7701 11.226-3.2497 16.717zm-12.8315-27.9045c.1817.0172.3653.0395.5508.067 4.2487.6296 7.1652 4.7226 7.2744 8.9354zm0 0c.4715-1.1128.9365-2.2289 1.3932-3.3487zm-23.4799-3.8718c.0639 1.2425.1406 2.5212.624 3.6748.4717 1.1609 1.4474 2.1887 2.682 2.3864m-3.306-6.0612 19.4262-20.74394c-3.8466 4.66034-6.1134 10.30994-8.38 15.95904-.9052 2.256-1.8104 4.5119-2.8161 6.7047-.4799 1.0523-1.0037 2.1159-1.8067 2.9449m-6.4234-4.8647c-.3269-5.9992-.6552-11.9985-.985-17.9877m.985 17.9877-.985-17.9877m4.291 24.0489c1.1418.1854 2.3047-.3806 3.1174-1.1965m-3.1174 1.1965v-.0001zm3.1174-1.1965-1.7712-1.7644c-.0039.004-.0079.0079-.0118.0118m1.783 1.7526-1.7957-1.7394c.0042-.0044.0085-.0088.0127-.0132m0 0c-.1959.1937-.4128.3358-.6042.4146-.1911.0787-.297.0721-.3294.0668l-.0056-.0009c-.0394-.0063-.1524-.0379-.3164-.191-.1682-.1569-.3327-.3922-.4446-.6678l-.0052-.0126-.0052-.0125c-.2889-.6895-.366-1.5331-.4331-2.8371l-.0004-.0076c-.3269-5.9989-.6551-11.9979-.985-17.9869m3.1291 21.235c.4645-.4851.8358-1.1787 1.3151-2.2298l.0022-.0047c.854-1.862 1.6386-3.7829 2.4321-5.7561.1111-.2764.2225-.554.3343-.8327.68-1.6948 1.3749-3.4268 2.1131-5.1306 1.7208-3.9714 3.7491-7.9656 6.6605-11.49304l1.9282 1.59067-1.9278-1.59118c1.0841-1.31406 3.0422-3.41753 5.8819-3.59804l.0007-.00005c1.9357-.12247 3.5908.71863 4.7584 1.83219 1.1587 1.10502 1.9773 2.59588 2.2996 4.15745.5912 2.8473-.238 5.6335-.8838 7.6729l-.0003.0008c-1.3787 4.3481-2.9702 8.6011-4.6812 12.7924l-23.3621-18.6452m0 0 .0001.0024-2.4964.1328m2.4963-.1352-.0001-.0022m0 0-.0024-.0456c-.0978-1.8404-.2668-5.02369-2.4486-7.20109.0004.00039.0008.00078.0012.00117zm0 0-2.4962.1374m17.0453 92.7832c.4491.059 1.1296.143 1.8429.097.7337-.048 1.6707-.24 2.5397-.869l.0038-.003m-4.3864.775 4.3864-.775m0 0c1.5279-1.11 1.9062-2.926 2.0626-3.677m-2.0626 3.677 2.0626-3.677m1.2244-9.6765-.0001.0008c-.141 3.2348-.5481 6.4552-1.2133 9.6237m1.2134-9.6245-1.2134 9.6245m1.2134-9.6245c.0622-1.4395.1451-1.9244.348-2.2101l.0007-.001m-.3487 2.2111.3487-2.2111m-1.5621 11.8356c-.0036.016-.0072.034-.011.052m.011-.052-.011.052m1.5731-11.8876c.1146-.1616.3641-.3736 1.1691-.7062.1267-.0523.2876-.1141.4724-.185.6904-.2648 1.7141-.6576 2.5315-1.166l.0008-.0006m-4.1738 2.0578 4.1738-2.0578m0 0c3.0923-1.9252 4.17-5.5464 4.8054-7.9047z" fill="#fff" stroke="#fff" stroke-width="5"/><path d="m6.80263 95.6669c9.66107 3.3351 19.65337 5.7051 29.78587 7.0611.8836.117 1.8679.205 2.5899-.318.6841-.497.9236-1.395 1.0968-2.221.6374-3.0359 1.0274-6.1209 1.1624-9.2187.0531-1.2294.0939-2.5449.8073-3.5494 1.0935-1.5418 3.2856-1.7348 4.8916-2.7337 2.1543-1.3413 3.0525-3.982 3.7128-6.433 1.648-6.1155 2.7821-12.369 3.4453-18.667-10.5727-11.9017-12.1715-6.6466-18.7649-8.1401-3.3189-.7533-7.8142 2.0058-11.0459 3.0731-4.0355 1.3343-6.6841 5.1605-8.6134 8.9479-2.6001 5.1064-4.4421 10.5995-5.4603 16.2376-.47703 2.6515-.79264 4.9958-1.63798 7.5502-.24139.7311-2.47052 8.2377-1.96949 8.411z" fill="#e3000b"/><path d="m43.8658 36.8233c2.8083.4161 5.0575 3.2701 5.1417 6.5275.0618 2.3651-.8782 4.6672-1.662 6.9223-.8192 2.3535-1.4966 4.7809-2.6133 6.9861-1.1155 2.2064-2.7608 4.2233-4.8499 5.0495-2.0865.8263-4.6291.1551-5.6358-1.9594-.5926-1.2456-.5968-2.7721-.5356-4.2312.2716-6.4982 1.377-20.5964 10.1549-19.2948z" fill="#f7a600"/><path d="m52.4537 46.3131c2.3362.3293 4.1649 2.8609 4.1826 5.7928.0138 2.1284-.8088 4.2161-1.501 6.2599-.7232 2.1307-1.3275 4.3295-2.2967 6.3329-.9679 2.006-2.3721 3.8486-4.1275 4.6265-1.7565.7778-3.8661.2162-4.67-1.6715-.4734-1.1112-.4522-2.4873-.3769-3.8016.3347-5.8535 1.4875-18.5668 8.7895-17.539z" fill="#f7a600"/><path d="m47.3726 17.3857c-1.3535 4.2686-2.9201 8.457-4.613 12.604-1.5198 3.7263-3.1354 7.4187-4.7815 11.1036-.2469.561-.2732 2.6663-.3267 4.8575-.0457 2.5517-.1215 5.2326-.6153 5.7671-.6623.7152-7.6321.7081-11.9772.7019-1.7084-.0149-3.02-.0198-3.3737.0125-3.872.3463 2.374-5.6559-1.5037-5.73-.9174-.0282-9.4934 3.7864-10.76805 3.8952-.09899.0183-.15854.0047-.15962-.0375-.09391-1.3342-.19719-2.7658-.29701-4.2599-.60485-9.0143-1.30905-20.4871-1.46856-28.5382-.04147-2.1408-.05521-4.3076.48573-6.3744.54977-2.06408 1.73012-4.0435 3.58731-5.10647 1.8556-1.05281 4.4218-.98363 5.9337.5278 1.4194 1.41625 1.6147 3.61487 1.7211 5.61497.3298 5.9891.6581 11.9884.985 17.9877.0639 1.2424.1406 2.5211.624 3.6747.4717 1.1609 1.4474 2.1887 2.682 2.3864 1.1418.1855 2.3047-.3806 3.1174-1.1965.803-.829 1.3268-1.8926 1.8067-2.9449 3.5241-7.6836 5.8133-16.1422 11.1961-22.66371 1.0723-1.29986 2.4265-2.58731 4.1124-2.69448 2.1723-.13745 4.0108 1.86054 4.452 4.00129.4429 2.1307-.1601 4.3308-.8191 6.4114z" fill="#e3000b"/><path d="m40.0431 52.509c-1.2971 1.5922-3.3946 2.9507-5.0105 3.2839-1.235.2544-2.5055.2062-3.7556.1217l-7.7883-1.6591-14.51525-3.0984c.0983-.1448.20548-.2879.31987-.418.04111-.0433.07496-.0983.11729-.1403-.09898.0183-.15854.0047-.15962-.0375-.09386-1.3354-.19714-2.767-.29701-4.2598 3.39062-1.3735 6.99462-2.0561 10.65422-1.9909 4.426.0677 10.3568.165 13.2445.2058 1.8524.0276 3.4795.6528 4.7958 1.4358 2.6716 1.5877 4.8219 3.5787 2.3946 6.5568z" fill="#e3000b"/><path d="m38.071 52.3531c-.8441.7267-2.0858 1.1342-3.2832 1.4807-1.9621.5548-4.7791 1.3058-7.6268 1.7275.5932 1.7386-.1851 4.4218-.4989 6.056-.5156 2.7319-.9899 5.487-1.8689 8.1258-1.5176 4.5069-4.6987 8.9148-9.3447 9.9187-1.5457.3343-3.2998.2015-4.4916-.821-.1607-.0797-.3113-.1552-.4611-.2537-1.77143-1.1029-2.87014-3.0341-3.59914-4.9819-2.00269-5.3054-1.85703-11.232-.43941-16.7143.53094-2.0366 1.24721-4.077 2.52253-5.7401.09684-.1397.20424-.2892.31093-.4183.04225-.0394.08521-.0992.11725-.139 1.73584-1.9753 4.24194-3.1855 6.82754-3.7096.6177-.1317 1.2442-.2222 1.881-.2817.0102.0003.0208-.0095.031-.0092 1.9143-.6484 6.0452-.3611 8.0922-.4224 2.1393-.0684 4.294-.2499 6.4055-.0727 2.0988.1755 4.1965.7494 5.4526 1.939 1.2485 1.1906 1.416 3.0881-.0268 4.3162z" fill="#f7a600"/></svg>