<svg fill="none" height="98" viewBox="0 0 135 98" width="135" xmlns="http://www.w3.org/2000/svg"><path d="m119.348 73.1432v.0001c5.085 1.9009 8.557 4.3263 10.572 7.0674 2.062 2.806 2.53 5.8791 1.629 8.6099-1.738 5.2717-8.152 8.2378-14.023 5.8364v-.0001l.947-2.3139c-9.272-3.792-32.4493-15.17-48.2133-24.022-10.5182-5.904-11.4275-5.6173-14.9-4.5224-1.7316.546-4.1005 1.2929-8.6161 1.5734-13.572.843-28.1509-3.793-38.26394-21.915zm0 0c-9.24-3.4533-45.9246-17.2727-56.8706-21.4824-.3948-.1519-.7698-.3271-1.1282-.5247 1.7732-3.4402 2.4615-7.6795 1.9867-12.5706v-.0005m56.0121 34.5782-56.0121-34.5782m0 0c-.6047-6.2174-2.4776-12.8287-6.8746-17.8736l-.0002-.0002m6.8748 17.8738-6.8748-17.8738m0 0c-1.6307-1.8707-3.648-3.5448-5.4609-5.0494-.6092-.5055-1.1952-.9919-1.7358-1.4602-2.2902-1.9838-4.0311-3.8295-4.9423-6.10938l-1.2762-3.19332m13.4152 15.8123-13.4152-15.8123m0 0-2.6439 2.19904m2.6439-2.19904-2.6439 2.19904m0 0c-2.0265 1.68552-3.7973 3.13346-5.794 4.05856zm-34.10525 37.59766c5.27165 9.4463 11.79285 15.516 18.89535 19.0847 7.0852 3.5599 14.5844 4.5493 21.7065 4.1069 3.5769-.2222 5.9334-.7276 7.7072-1.2283.5658-.1598 1.1133-.3322 1.5634-.474.206-.0648.3916-.1233.5492-.1711.5604-.1703.9273-.2597 1.2568-.2989.5426-.0646 1.2765-.0335 2.936.6336 1.7158.6898 4.1798 1.9582 8.1244 4.1724zm-2.7552-12.1913c-.64308 3.6333.26942 7.7382 2.75504 12.191l28.31111-33.5387c-1.5566.7209-3.2819 1.1347-5.2017 1.4338-.959.1494-1.9387.2664-2.962.3843-.117.0135-.2347.027-.3529.0406-.9021.1036-1.8401.2113-2.7704.342l-.0013.0002c-4.1552.5863-9.3215 1.9295-12.4821 5.9768-1.27924 1.6382-2.03841 3.4866-2.43142 5.371-2.47498 1.9047-4.28161 4.5067-4.86433 7.799z" fill="#fff" stroke="#fff" stroke-width="5"/><path d="m118.473 75.485c-9.242-3.454-45.9361-17.277-56.8931-21.491-10.957-4.216-9.479-22.337-25.812-28.658-16.332-6.322-37.402 0-27.288 18.121 10.113 18.122 24.692 22.758 38.264 21.915 13.571-.843 7.753-5.899 23.516 2.949 15.764 8.852 38.9411 20.23 48.2131 24.022 9.272 3.793 19.268-9.655 0-16.858z" fill="#e3000b"/><path d="m11.5627 34.413c-1.386-4.514-1.65999-9.838 1.246-13.56 2.52-3.227 6.807-4.468 10.861-5.04 4.055-.57 8.273-.687 11.99-2.408 2.341-1.085 4.356-2.754 6.342-4.405 2.288 5.725 8.524 8.687 12.576 13.334 3.923 4.501 5.693 10.529 6.271 16.473 1.421 14.636-8.555 20.989-22.205 18.725-12.267-2.035-23.4-11.133-27.081-23.119z" fill="#f7a600"/></svg>