<svg fill="none" height="131" viewBox="0 0 323 131" width="323" xmlns="http://www.w3.org/2000/svg"><path d="m319.348 4.13133c.695.87265.848 2.05874.398 3.07935-7.655 17.35582-17.571 33.68402-27.376 49.83052-4.646 7.6507-9.268 15.2606-13.612 22.9196l-.001.0008c-10.124 17.8367-24.977 40.5074-30.725 47.0114-.951 1.076-2.531 1.327-3.769.599-2.646-1.557-4.56-3.15-8.348-6.566-.977-.88-2.084-1.888-3.37-3.058-3.583-3.261-8.55-7.781-15.92-14.312-.711.186-1.713.52-2.966.991-2.646.994-6.073 2.47-9.504 4.017-3.418 1.541-6.792 3.13-9.314 4.336-1.26.602-2.306 1.108-3.036 1.462-.365.177-.65.317-.845.412l-.221.108-.055.027-.014.007-.004.002s0 0-1.325-2.692l1.325 2.692c-.817.402-1.772.411-2.597.025-.824-.386-1.429-1.125-1.643-2.01-.054-.225-.244-.98-.534-2.137-1.747-6.971-7.144-28.5108-8.658-36.1714-.051-.2535-.099-.5767-.136-.8229l-.005-.0345-.005-.0292c-.034-.2307-.068-.4588-.105-.6824-.271-.0925-.583-.1974-.936-.3148-.979-.325-2.215-.7273-3.664-1.1987-.778-.2532-1.617-.5263-2.51-.8182-5.091-1.6624-11.845-3.8997-18.537-6.3434-6.667-2.4343-13.38-5.1123-18.346-7.6655-2.46-1.2646-4.658-2.5819-6.219-3.9152-.777-.663-1.54-1.4495-2.07-2.3651-.546-.9404-.964-2.2406-.584-3.6895v-.0023c.399-1.5159 1.575-2.4092 2.276-2.8584.814-.5217 1.787-.9407 2.749-1.2863 1.943-.698 4.387-1.2846 6.774-1.7726 2.413-.4932 4.89-.9095 6.936-1.2454.288-.0473.565-.0925.83-.1358 1.692-.2767 2.899-.4742 3.495-.612zm0 0c-.695-.87264-1.816-1.28773-2.912-1.07764m2.912 1.07764-2.912-1.07764m0 0c-17.657 3.3862-35.295 6.88257-52.9 10.47611v.0002c-31.195 6.3764-62.319 13.0773-93.365 20.1091m146.265-30.58541-146.265 30.58541m0 0c-7.673 1.7383-15.333 3.496-22.993 5.2731zm45.559 69.2039.01.009c-.003-.003-.006-.006-.01-.009z" fill="#e3000b" stroke="#fff" stroke-linejoin="round" stroke-width="6"/><g fill="#f7a600"><path d="m317.225 6.27222c-30.539 23.30458-115.421 68.55878-119.071 70.49708-1.627 5.5231-7.831 31.4597-8.803 35.5437-1.66-6.787-9.879-41.4428-9.879-41.4428 4.531-2.7421 12.602-6.1519 17.438-8.343 9.736-4.4145 68.332-31.4659 87.818-40.7165 10.106-4.784 23.635-8.7708 32.497-15.53848z"/><path d="m123.388 89.6714c-6.102-2.152-12.215-5.0153-18.272-7.8648l-.002-.0012-.092-.0433c-7.018-3.2933-14.4645-6.788-22.3437-9.3215l-.0023-.0008c-15.8442-5.0808-47.0599-10.0348-76.28941 14.4557l-.00183.0015c-3.28364 2.7557-3.71549 7.6451-.9644 10.9364 2.75871 3.3086 7.65354 3.7126 10.94014.9715l.0053-.0044c23.4828-19.6721 48.5453-15.7368 61.5604-11.5654zm0 0c4.265 1.4997 10.367 3.2 16.899 3.6 6.539.4004 13.292-.5134 19.081-4.0065l.002-.0014c3.672-2.2116 8.437-1.0216 10.658 2.6319l.009.0141c2.202 3.6672 1.037 8.4405-2.643 10.6605l-.002.001c-7.038 4.239-15.37 6.316-24.424 6.316-7.801 0-16.151-1.541-24.736-4.565-6.872-2.417-13.45-5.5045-19.6652-8.4222l-.0604-.0283-.0021-.001c-7.1395-3.3582-13.6814-6.4224-20.5772-8.6351z" stroke="#fff" stroke-linejoin="round" stroke-width="6"/></g></svg>