<svg fill="none" height="113" viewBox="0 0 89 113" width="89" xmlns="http://www.w3.org/2000/svg"><path d="m59.0467 15.7358c-3.529-3.4638-8.4194-5.4016-14.2609-5.6958-3.7247-4.79164-10.9153-2.33042-13.7723-1.36153-.2841.10674-.5716.20432-.8557.31106-7.0106 2.63407-12.6837 7.63117-18.1678 12.46307l-.8818.7706c-.6207.5469-1.77844 1.5571-2.34565 3.2762-.36709 1.1105-.40189 2.2426-.12737 3.2793-.73228 1.6138-1.20213 3.2858-1.41417 4.976-1.02145 8.0809 3.99289 13.9671 4.57769 14.6049l1.1157 1.2436c1.0445 1.1658 2.6455 1.6414 4.1394 1.2474.0413.11.0826.22.124.3299 0 0 15.9266 48.1776 15.9438 48.2235 2.5825 6.873 10.2696 10.354 17.1336 7.775l20.7386-7.7925c6.8731-2.5824 10.3537-10.2696 7.7747-17.1336l-18.9346-50.3939c-.3031-.8064-.7389-1.5211-1.2733-2.1361 1.7568-1.4758 2.9058-3.539 3.2389-5.8812.4266-2.9839-.6077-6.0151-2.7597-8.1242z" fill="#fff"/><path d="m16.7897 29.8562c5.8594 1.4273 12.1527.5582 17.6969-1.7759 1.3265-.5612 2.6552-1.2277 3.7762-2.3078 2.0177-1.9503 2.3893-4.9136 3.1403-7.7579.4743-1.7993 1.3741-2.9949.5745-4.6501-1.5443-3.1637-5.7934-2.0587-9.623-.7558-6.9764 2.3912-12.828 7.7482-18.508 12.7269-.4557.4013-.9321.8313-1.1379 1.4524-.7399 2.2337 2.9579 2.779 4.0741 3.0498z" fill="#f7a600"/><path d="m28.5692 39.4963-11.8493 4.4522s-9.37475-10.4495 4.8649-19.9516c12.5079-8.3494 26.4021-9.8364 32.8353-3.5421 1.3861 1.3512 1.0736 3.6647-.633 4.5779l-10.0487 5.3757" stroke="#f7a600" stroke-linecap="round" stroke-miterlimit="10" stroke-width="5"/><path d="m48.4697 29.9482-1.2465-3.3174c-.5647-1.5029-2.2381-2.2547-3.7318-1.6934l-18.9524 9.4009c-1.5533.7091-2.2774 2.5394-1.6462 4.0801l1.4103 3.3918c.6369 1.5281-.0952 3.3091-1.6244 3.9987-1.5201.6862-2.2373 2.4512-1.6016 3.9483l15.9243 48.1994c1.7768 4.7284 7.0467 7.1204 11.7754 5.3434l20.7386-7.7922c4.7288-1.7767 7.1201-7.0467 5.3434-11.7754l-18.9347-50.3939c-.5647-1.503-2.238-2.2547-3.7318-1.6934-1.5029.5647-3.1706-.1997-3.7318-1.6934z" fill="#e3000b"/><path d="m62.7996 86.9873c.2675.7675.5705 1.5739 1.209 2.0765.6386.5026 1.7122.5489 2.1575-.1308.3457-.5273.1803-1.2181.0057-1.8219-4.0065-13.7527-8.0131-27.5055-12.0196-41.2583-.5948-2.0563-1.6414-4.5076-3.7738-4.6999-4.4552-.4177-2.135 4.8389-1.4417 6.7119 1.5805 4.29 3.0602 8.6179 4.5858 12.9285 3.0923 8.7313 6.1939 17.4592 9.2897 26.1997z" fill="#fff"/></svg>