<svg fill="none" height="100" viewBox="0 0 115 100" width="115" xmlns="http://www.w3.org/2000/svg"><path d="m46.1532 53.1805c2.705-2.7196-.2617-7.5147-5.2587-9.7967-4.4592-2.038-15.0867-6.1553-27.7369-4.8854-8.85723.8882-16.29769 4.5549-11.81168 10.7492 5.69854 7.8704 15.65048 4.7507 19.83738 5.5164 4.7882.8744 18.6846 4.737 24.9699-1.5835z" fill="#f7a600"/><path d="m49.2585 43.5468c-2.6836-.8018-11.101-8.5911-15.4371-13.3663-3.9099-4.3031-12.7672-19.2904-12.6861-22.99074.0811-3.69804 7.3349-4.54108 15.1762-.93636 7.8429 3.60548 15.8671 18.5231 18.042 26.3163 2.1764 7.7946 1.5178 8.7792.332 9.7286-1.185.9509-3.1748 1.9186-5.427 1.2485z" fill="#e30613"/><path d="m68.4011 47.8628c2.5169-1.5048 7.0717-2.0074 19.5138-2.7387 11.0353-.6449 23.2861.3251 25.6581 3.607 2.337 3.2375 1.698 7.0664-1.147 9.7179-2.985 2.7808-4.37 9.9566-17.7285 6.5676-15.3484-3.8939-18.9248-6.3266-24.5874-10.3322-4.1731-2.9506-4.4561-5.1814-1.709-6.8216z" fill="#e30613"/><path d="m67.2989 58.1744c9.4715 3.4617 17.078 20.1113 18.8329 28.3826 1.53 7.1895.583 12.7312-4.2328 12.605-4.8295-.1285-5.9586 1.261-8.7953-1.3028-2.9934-2.7104-13.8435-17.7818-14.6476-24.7358-.905-7.8336-.5225-13.2239 1.8077-14.7746 2.3823-1.5843 3.1534-1.5919 7.0351-.1744z" fill="#f7a600"/><path d="m51.8107 57.7491s3.0049 9.5603-7.5973 23.5775c-10.6023 14.0173-14.4854 15.6544-19.7089 10.6956-5.2235-4.9557-3.7317-15.1135 4.2267-21.9129 7.9606-6.7994 12.566-13.0778 23.0795-12.3602z" fill="#e30613"/><path d="m60.0167 39.4631c-.4124-4.2298.0925-12.8093 4.3085-20.5328 4.1922-7.6784 7.377-15.65515 13.5123-17.932577 4.6834-1.737333 9.8074-2.516873 9.6506 9.145677-.1484 11.0758-6.7053 25.78-14.9008 31.4808-7.579 5.2755-9.2046 3.7753-10.629 2.5421-1.423-1.2309-1.7228-2.4556-1.9416-4.7032z" fill="#f7a600"/></svg>