<svg fill="none" height="88" viewBox="0 0 58 88" width="58" xmlns="http://www.w3.org/2000/svg"><path d="m47.3481.617693c1.0113.715167.158.924717 1.2684 2.411417 4.7181 6.31428-3.7869 17.71649-8.3518 23.39739-1.2263 1.5264-2.7075 2.8408-4.1275 4.1704-4.2569 3.9886-2.4868-8.8369-2.1336-10.2529 1.1089-4.4291 3.0242-8.848 5.5809-12.89291.8517-1.34699 5.1458-8.68204 7.7636-6.833397z" fill="#e3000b"/><path d="m11.4218 78.768c.6382 2.4988 1.3931 5.1538 3.3528 6.8295 1.8645 1.5938 4.4601 1.9812 6.9104 2.074 6.0778.2318 12.1166-.9437 18.0396-2.3233 3.575-.8318 7.1826-1.7573 10.3711-3.5727 3.1901-1.8161 5.9587-4.6474 6.939-8.1843 1.0874-3.9259-.131-8.0804-1.3391-11.9706-2.8162-9.0519-4.3386-19.1444-7.154-28.1964-.154-.4953-15.2805 3.5322-16.5942 3.8092-5.1935 1.101-10.3553 2.3591-15.4734 3.7719-2.5296.6985-5.0482 1.4351-7.55487 2.2083-1.7026.5262-5.33162-1.9947-5.63801.0619-.31274 2.1002 1.90182 7.8057 2.31616 9.8798.52149 2.6146 1.06521 5.2229 1.62957 7.8279 1.28905 5.9532 2.68764 11.8833 4.19495 17.7848z" fill="#e3000b"/><path d="m8.75168 41.3561c-2.39078-1.2002 1.97642-6.3611 2.98692-7.3239 1.389-1.324 3.0083-2.3107 4.7807-3.0314 1.2057-.4897 2.4987-.631 3.7799-.7763 1.1628-.1309 2.4344-.1397 3.4179-.8683.7675-.5684 1.2041-1.4653 1.7152-2.2717.4064-.639.8756-1.2375 1.3978-1.7852.1151-.1206.239-.2429.3961-.2976.5493-.1921.862.4064 1.2137.6873.8286.6604 1.8645.8263 2.8551 1.0851 1.0723.2818 2.1534.7104 3.2829.5564.9375-.1262 1.7955-.6477 2.7409-.7128 1.8811-.1278 5.7689 2.1709 6.7865 3.5664.3739.5135.5715 3.6996-.4572 4.0005l-31.0713 9.0908s-3.81004-1.913-3.82512-1.9193z" fill="#f7a600"/><path d="m2.66149 39.6956c-1.47161.2913-2.5796909 1.5367-2.6503347 3.0345-.0762001 1.5946.2071697 3.3147 1.8153047 3.1869 2.95593-.2326 48.67994-12.1111 48.67994-12.1111s1.8232-4.6307-.9287-3.7401c-2.386.7707-37.5611 7.7732-46.91621 9.6298z" fill="#e3000b"/><path d="m19.7988 77.036c2.0916-4.0473 5.742-9.0686 8.8075-12.5698z" fill="#fff"/><path d="m19.2376 76.7455c2.2225-4.7165 5.5936-8.7217 9.0948-12.519.1381-.1469.3683-.1532.5144-.0167.1389.131.1508.3492.0325.4961-3.171 3.9632-5.9198 8.2852-8.5177 12.6206-.3945.6842-1.4542.1373-1.124-.581z" fill="#fff"/><path d="m32.433 59.2243c-.0889.8802.966 1.3216 2.1574 1.0152 1.1938-.3072 4.5418-1.3708 8.8749-4.9014 4.3347-3.5306 8.4574-8.6956 3.5513-8.1757-4.9086.5191-8.0876 5.3118-9.5155 6.4286-1.4288 1.1144-4.8395 3.3949-5.0681 5.6333z" fill="#f7a600"/><path d="m33.5937 61.4205c.8358-.4033 4.7498-.4318 6.9548-.2683 1.9868.1484 7.7708 1.7105 8.659 2.5963.8875.8851-.635 2.6813-3.3869 3.5632-2.7527.8826-8.3201-.8462-10.7513-2.1947-2.4297-1.3478-2.5123-1.7233-2.463-2.2083.0492-.4826.2857-1.1485.9874-1.4882z" fill="#fff"/><path d="m32.3855 64.9035c1.1541.912 3.1703 3.025 4.1878 5.6832.9494 2.4813 2.0908 4.676 1.4597 6.2611-.4619 1.1645-1.1811 2.2019-3.6083.1215-2.4265-2.082-4.8133-6.377-4.8554-9.4901-.0429-3.1115.6469-3.1615 1.2343-3.2258.5842-.0643.9604.1595 1.5819.6501z" fill="#f7a600"/><path d="m27.0485 63.8899c-.4699.7318-1.6113 1.4867-5.1038 3.5504-3.5203 2.0789-8.1939 4.1196-9.5298 3.4322-1.3351-.685-1.4891-2.1677-.6096-3.6068.8803-1.4391.6501-3.9671 5.746-4.7918 5.0959-.824 6.3532-.5906 8.2923-.1929 1.3795.2833 1.7002.8334 1.2049 1.6089z" fill="#fff"/><path d="m26.7107 61.2579c-2.8741.0167-7.8168-3.8616-10.183-6.4524-2.3669-2.59-3.6639-5.1149-1.8947-5.6674 1.7693-.5524 1.7963-1.3604 3.4902-.5016 1.6946.8564 7.943 5.5205 9.1225 7.7097 1.1795 2.1899 1.6566 3.6425 1.224 4.2394-.431.5961-.6231.6652-1.759.6723z" fill="#f7a600"/><path d="m30.5853 58.7916s-2.6107-2.0376-2.5702-8.3908c.0413-6.3539.7271-7.689 3.0258-7.4549 2.2987.235 3.8656 3.4513 3.1194 7.1636-.7453 3.714-.727 6.5271-3.575 8.6821z" fill="#fff"/></svg>