<svg fill="none" height="91" viewBox="0 0 116 91" width="116" xmlns="http://www.w3.org/2000/svg" xmlns:xlink="http://www.w3.org/1999/xlink"><clipPath id="a"><path d="m0 .320801h116v90h-116z"/></clipPath><g clip-path="url(#a)"><path d="m115.944 45.8993c-.278-3.3811-1.964-6.5175-4.393-8.1858-.963-.6673-2.057-1.001-3.132-1.001-.315 0-.63.0222-.946.089.575-3.6926.112-7.3184-1.408-10.3436-1.113-2.2244-2.781-4.0929-4.82-5.3831-1.9461-1.2457-4.1519-1.8907-6.3762-1.8907-.0371 0-.0742 0-.1113 0-2.3541-3.092-5.6535-5.3609-9.4905-6.4064-1.9093-.5338-4.0039-.7785-6.3765-.7785-1.1122 0-2.2244.0445-3.3366.1335-1.9833-.1335-3.8555-.2002-5.5608-.2002-3.3551 0-6.117.2446-8.434.7563-1.8537 0-6.5804.0444-6.5804.0444-1.8907 0-3.7443-.0222-5.4867-.2669-.2596-1.2679-.7971-2.4468-1.5386-3.44783-1.5385-2.06871-3.596-2.84726-5.6721-3.13643-.0556-.17796-.1297-.37815-.2039-.55611-1.0936-2.89174-3.3921-4.693521-5.9872-4.693521-.2966 0-.6117.022244-.9083.066732-1.0009.177954-2.8545.800789-4.2818 3.025209h-.0927c-.3893.11122-.9824.24469-1.6683.51162-.797-.17796-1.5385-.31142-2.2799-.42264-.3522-.04449-.7229-.06673-1.0751-.06673-.3152 0-.6488 0-.9639.06673-1.3161-2.29115-3.0956-3.047456-4.0965-3.292142-.4264-.111221-.8712-.155709-1.2976-.155709-2.4097 0-4.634 1.623821-5.7648 4.159661-1.1121 2.40238-1.557 5.02719-1.279 7.62976.0556.5561.1483 1.1122.2781 1.6683l-3.20679 3.7815c-1.6868 1.9798-5.59796 6.6288-4.81943 13.3021.63023 5.2273 4.20773 9.5872 8.93452 10.8329h.1112s0 0-.0186.0222c-1.7053 2.3357-2.9658 4.5601-3.89258 6.651-.48194 0-.96388.1113-1.44583.267l-.18536.0667c-1.59412.5339-3.07702 2.091-3.91115 3.8038-.70438 1.4681-.98242 3.1809-.77853 4.8492l.18537 1.4903c-.24097.1558-.46341.3337-.68584.5339-1.05657.8453-1.90924 2.091-2.40972 3.4923-.222436.5784-.389262 1.2012-.4819434 1.8241-.8155956 5.2718 3.6516434 16.127 5.0418634 19.3302.98243 2.2466 2.83605 3.7592 4.93062 4.0262l.1854.1112c.8341.5116 1.7239.7785 2.6136.823 1.1122.5339 2.1317.6229 2.6692.6229 1.0751 0 2.0019-.2892 2.5766-.5116.2966-.1113.5746-.2892.8526-.4672.2225.0223.4449.0668.6673.0668.1854 0 .3708 0 .5561-.0223h1.5756c.6488 0 1.3717-.0222 2.1873-.2892.7044-.2224 1.3531-.6228 1.9463-1.1122.7415.4004 1.5571.6674 2.4097.6896l6.0058.2002c1.2604 0 2.3912-.2892 3.4292-.8675.5561-.3114 1.0936-.7118 1.557-1.179 1.1678 1.6239 2.8917 2.6471 4.7824 2.6471h.3336c.482-.0223.9639-.0445 1.4459-.0445 1.1307 0 2.2614.089 3.3736.2447.2595.0445.519.0445.76.0445 1.5199 0 3.0028-.6674 4.1521-1.8685 1.3531-1.4237 2.1317-3.4479 2.1502-5.6056 0-.2002.0741-.4226.241-.6895.4263-.6896 1.3346-2.1132 1.7053-4.2487.3893-2.2466-.0371-4.0707-.241-5.0049-.1668-.7118-.3151-1.4459-.4263-2.18 2.0019-.2669 4.0038-.6673 5.9687-1.2011-1.8351 4.0929-2.8917 8.6752-3.077 13.302-.1669 4.1596 2.5209 7.6965 5.9872 7.8967h.3151c.2224 0 .4263 0 .6488-.0445.8341.0445 2.6692.2224 3.5589.3336.4078.0445.7785.0668 1.1122.0668.9453 0 2.5765-.2002 4.115-1.3347 1.1122 1.1567 2.5766 1.8463 4.1336 1.8463h.3152l4.7082-.2892c.7785-.0445 2.8175-.1779 4.7082-2.002 1.7609-1.7128 2.3541-3.9594 2.5395-4.6935.8341-3.2254 1.316-6.562 1.4272-9.9654.0557-1.824 0-3.5368-.0185-5.2051-.0371-1.2679-.0741-2.5136-.0371-3.7815.0371-1.268.1298-2.5359.2781-3.826 1.0195.5338 2.1131.8897 3.2438 1.0677.482.0667.9825.1112 1.4829.1112.5561 0 1.0933-.0445 1.6493-.1335.983.4672 2.021.7341 3.077.8008h.519c3.541 0 6.711-2.1354 8.268-5.5388.482-1.0454.741-2.0464.889-2.8472.167-.178.334-.3559.501-.5784 1.575-2.002 2.298-4.6935 2.057-7.563z" fill="#fff"/><g fill="#f7a600"><path d="m36.1829 14.6461c3.0214 1.5126 5.9316 3.4701 9.0828 4.5155 3.4848 1.1567 7.155 1.1345 10.7696 1.1345 5.8574 0 11.7149-.0445 17.5538-.4449 3.4478-.2447 6.9326-.6006 10.2877.3114 3.355.912 6.636 3.3811 7.8779 7.2516.6117 1.913.7044 4.004.6302 6.0505-.3707 10.4325-4.4301 20.2867-4.6897 30.7192-.0741 2.9585.1669 5.9169.0742 8.8754-.0927 2.7138-.482 5.4276-1.1493 8.0302-.0926.4004-.2224.8008-.4819 1.0454-.2966.2892-.6859.3115-1.0751.3337-1.5756.089-3.1512.2002-4.7082.2892-.6303-4.0262-.0556-8.3193 1.6126-11.8784-4.078-3.6258-7.0438-9.0312-8.2301-14.9704-7.4145 4.4934-15.7929 6.7178-24.0971 6.3396-2.1873-.0889-4.4302-.3781-6.395-1.5571-2.2429-1.3569-3.9297-3.7592-5.3756-6.2283-1.7424-2.9585-3.2438-6.1394-4.5043-9.4538-1.5941-4.2042-3.1511-9.1424-6.7472-10.744-1.8351-.823-3.8741-.5783-5.8018-.2446-1.9278.3336-3.9297.7563-5.839.2446-1.9092-.5116-3.7628-2.1799-4.0409-4.5155-.3151-2.6471 1.4088-4.9605 2.9844-6.829 1.7424-2.0465 3.4663-4.0929 5.2087-6.1616 1.798-2.1355 4.2448-5.8725 7.0437-5.4721 3.4107.4671 6.8399 1.7573 9.9911 3.3366z"/><path d="m68.1578 61.0474c.1483.6006.3522 1.179.5746 1.7351.5747 1.3791 2.0576 2.914 2.3541 4.3599.2781 1.3791-1.1121 2.8695-1.6497 3.9817-1.5756 3.2699-2.5024 6.9846-2.6507 10.7439 0-.2002 4.4302.2892 4.8195.3337 1.8536.2224 1.6497-.7118 2.1131-2.6916 1.6127-6.6288 4.7453-11.7672 9.4906-15.6599-2.8917-3.6258-5.8575-7.4518-7.0994-12.2343-1.8907.4894-3.7814 1.09-5.6165 1.8018-.5746.2224-1.1493.4671-1.6127.9342-.5561.5784-.8526 1.4237-1.0195 2.2689-.2595 1.4682-.1297 2.9808.241 4.4266z"/><path d="m99.0211 54.174c-.241 0-.482 0-.7044-.0444-1.5941-.2225-2.9658-1.2902-3.7072-2.8251-.9269-1.9352-.7786-4.56.4263-7.2071.5561-1.2234 1.2234-2.3356 1.8722-3.4033.6116-1.0233 1.2048-1.9798 1.6868-3.003.3892-.8675 1.6122-3.8705.4634-6.1839-.3522-.6896-.9083-1.2901-1.6127-1.735-1.4458-.912-3.2624-.9788-4.7453-.2002-1.4829.8008-2.6692 2.4691-3.0585 4.3598l-1.8351-.5561c.5561-2.6025 2.0946-4.7825 4.1336-5.8724 2.039-1.09 4.4302-.9788 6.4136.2669 1.0195.6451 1.8352 1.5348 2.3542 2.5803 1.131 2.2689.982 5.4276-.426 8.4751-.538 1.1567-1.1868 2.2244-1.817 3.2476-.6488 1.0455-1.2605 2.0465-1.7424 3.1364-.4078.9121-1.279 3.2254-.4449 4.9827.4264.8898 1.2976 1.5349 2.28 1.6906 1.1678.178 2.2613-.3337 2.9473-.7786l.908 2.002c-1.112.7341-2.261 1.09-3.3919 1.09z"/><path d="m109.309 48.2793c-.334.4226-.816.6896-1.242 1.2234-.797 1.0233-.538 2.5581-1.094 3.737-.556 1.2012-1.817 1.6906-2.947 1.6239-2.391-.1335-5.0607-3.7815-2.429-5.8725.575-.4671 1.224-.823 1.891-1.0232 1.057-.3559 2.169-.3782 3.17-.8898s1.668-1.4904 1.761-2.7583c.686.4672 1.168 1.4459 1.242 2.3802.074.8007-.111 1.2679-.39 1.6238z"/><path d="m35.256 13.8675c.7786-.4672 1.2976-1.4014 1.4644-2.4247.1668-1.0232 0-2.09092-.3522-3.02517-.0556-.13347-.1483-.28918-.2595-.26693-.0741 0-.1483.11122-.1854.17795-.8526 1.3569-2.1316 2.35785-3.5218 2.71375-.482.1335-1.001.178-1.4644.4227s-.8712.734-.9083 1.3346c-.0371.6229.3522 1.179.7971 1.4904 1.2048.8675 3.2253.2669 4.4116-.4449z"/><path d="m20.0007 13.6673c-.7414-.5338-1.2234-1.5126-1.3346-2.5358-.1112-1.0233.1112-2.06873.5376-2.98075.0556-.13346.1668-.28917.278-.24468.0742 0 .1298.11122.1854.2002.7785 1.44587 1.9834 2.53583 3.3551 3.00293.4819.178.9824.267 1.4272.5561.4449.2892.8342.8008.8156 1.4014 0 .6229-.4263 1.1345-.8897 1.4236-1.2605.7786-3.2253 0-4.3746-.823z"/><path d="m31.7529 14.8907c.5561.2002 2.5024-.9565 3.1512-1.1122 1.1863-.2892 2.3912-.4671 3.6146-.4894.9268-.0222 5.0418-.2669 4.8935 1.2235-.3336 3.7147-10.1764.912-11.6778.3781z"/><path d="m51.9759 73.6154c.1112.4671.2225.9788.1483 1.4681-.0927.5339-.4078.9565-.6673 1.3792-.8897 1.4458-1.3902 3.2031-1.4087 5.0049-1.9649-.2892-3.9483-.3781-5.9131-.2447-.241-1.7128.0556-3.559.8341-5.0272.1854-.3336.3893-.6673.4449-1.0454.0556-.3782-.0185-.7563-.1112-1.1345-1.242-5.65-2.4839-11.656-1.001-17.217.0927-.3114.1854-.6451.3893-.8675.2595-.267.6117-.3337.9453-.3782 1.1863-.1334 3.6887-.5338 4.7453.3114 1.1307.8898.3893 3.3589.3337 4.8048-.1483 4.3599.278 8.7642 1.2419 12.9684z"/><path d="m38.9634 67.8097c-.7415 1.4014-1.4829 2.825-1.8722 4.4043-.5746 2.3579-.3337 4.9827-1.2234 7.1849-.1854.4449-.4078.8675-.7785 1.09-.2966.1779-.6488.1557-1.001.1557-1.8536-.0667-3.7258-.1335-5.5794-.2002-.2966-1.6238-.0556-3.3144.3337-4.8937 1.8351-7.4518 6.5062-13.48 8.6749-20.7984.241-.8007.482-1.6683 1.0566-2.1576.3893-.3337.8897-.4449 1.3532-.5117 1.279-.2224 2.5765-.3114 3.874-.2669.8527.0223 3.04.2892 3.2253 1.6683.1483 1.1345-2.0575 3.5591-2.6321 4.4934-1.9463 3.1809-3.7073 6.4953-5.4682 9.8319z"/></g><path d="m85.4338 20.8521c-3.6145 5.4721 2.6136 14.5255-.797 20.1978-2.2058 3.6925-7.3033 3.0029-9.9911-.2002-2.6877-3.2032-3.6331-7.8967-4.4487-12.3233-2.9843 1.09-5.8945 2.4913-8.675 4.1819-2.7433-2.7805-5.5794-7.8967-2.8916-10.7662.6302-.6673 1.4458-1.001 2.2429-1.3124 7.3589-2.736 24.542.2002 24.542.2002z" fill="#e3000b"/><path d="m37.6655 50.4147c5.3014-3.3144 8.5452-10.8329 7.7482-17.9511-3.1697 2.18-6.3209 4.3376-9.4906 6.5176-.7044.4893-1.4458 1.0232-1.7424 1.913-.241.7118-.1483 1.4903-.0371 2.2466.5932 4.2042 1.7054 8.3194 3.2624 12.1676" fill="#e3000b"/><path clip-rule="evenodd" d="m19.1296 60.4691c.3893-1.6683 2.5766-8.2081 2.002-9.0757-2.5766 1.09-5.0048 8.92-5.3756 12.8127-.0556 0-.1297.0445-.1853.0667-.0556-.2224-.0927-.4448-.1483-.6673.7414-6.0949 2.317-11.3 3.0585-16.8833-5.5609 7.6075-4.9121 12.8349-5.2087 18.0622-.7044-3.4478-1.8166-6.6955-3.1883-8.8531-.0556 0-.12972.0445-.18532.0667l-.12976.2892c.85268 7.1181 1.70538 14.2362 2.55798 21.3544-.1483-.0445-.278-.0667-.4263-.1112-.4078-4.3154-2.61362-10.8107-5.11602-12.1009-.50048.4672-.22243.0668-.46341.6229-.33365 2.1354 3.26239 11.7894 4.44873 14.4809 1.3161.1557 1.2604.2002 2.4097.9121.4449-.3782.9083-.7786 1.3531-1.1567.3708 1.8685.7415 1.9797 1.761 1.6015.6302-2.3579.1854-5.0716.4449-7.8522.4263-4.6268 1.4087-9.298 2.3911-13.5467zm4.2634 7.8522c-2.28 1.7128-5.2087 8.7419-4.6155 12.39.2965.1335.5931.2892.9082.4226.241-.0889 2.4468.0445 2.6878-.0445-.9639-3.3143.0371-7.5407 1.038-12.7904z" fill="#e3000b" fill-rule="evenodd"/></g></svg>