<svg enable-background="new 0 0 673 629" viewBox="0 0 673 629" xmlns="http://www.w3.org/2000/svg"><path clip-rule="evenodd" d="m634 54.4c-73.9-93.8-228.5-31.4-355 18.1-120.5 47.2-260.9 107.5-272.4 227.4-12.4 129.1 100.3 216.9 227.4 242.4 113.1 22.7 230.4-38.7 309-134.6 89.7-109.4 167.8-255.8 91-353.3z" fill="#dbf0e5" fill-rule="evenodd"/><path d="m329.2 616.4c-51.1 10.9-72.7-25.5-77-45.1 58 50.1 158.4-3.7 201.4-36.9l27.2-3c-20 20.6-87.6 71.3-151.6 85z" fill="#dbf0e5"/><g fill="#fff"><path d="m222.6 227.8-34.8 83.7c-3 5.6-9.8 9.1-17.2 9.1l11.6-27.4-22.6-63.2h13.7l16.1 45 16.8-39c.8-2 4.8-8.2 16.4-8.2zm0-21.7c-15 0-25.3 6.6-31.1 14.4-1.7-3.7-4.3-6.8-7.5-8.9-3.2-2.2-7-3.3-10.8-3.3h-13.7c-3.3 0-6.5.9-9.4 2.5s-5.4 4-7.3 6.9-3 6.2-3.4 9.7 0 7 1.2 10.3l19.5 54.9-8.1 19.1c-1.4 3.3-2 7-1.8 10.6s1.3 7.1 3.2 10.2c1.8 3.1 4.4 5.6 7.3 7.3 3 1.7 6.3 2.7 9.7 2.7 14.8 0 28.2-7.7 34.8-20 .4-.7.7-1.3 1-2l34.6-83.3c1.5-3.3 2.1-7 1.9-10.6s-1.3-7.2-3.1-10.3-4.4-5.7-7.3-7.4c-2.9-1.9-6.3-2.8-9.7-2.8z"/><path d="m241.4 240.4c15.3 0 27.6 13.6 27.6 30.5 0 16.8-12.4 30.5-27.6 30.5s-27.6-13.7-27.6-30.5 12.3-30.5 27.6-30.5zm-.1 48.4c8.5 0 15.5-7.9 15.5-17.7s-6.9-17.7-15.5-17.7-15.5 7.9-15.5 17.7c0 9.7 6.9 17.7 15.5 17.7zm.1-70.1c-26.4 0-47.9 23.4-47.9 52.2s21.5 52.2 47.9 52.2 47.9-23.4 47.9-52.2-21.5-52.2-47.9-52.2z"/><path d="m305 240.3c20 0 25 19.1 25 30.9 0 16.2-9.6 29.9-24.2 29.9-9.7 0-14.2-3.5-18.4-8v18.7c0 5.4-7.8 10-12.2 10v-79.5h11.6v6.8c5.6-6.1 9.2-8.8 18.2-8.8zm-1.4 48.8c8.7 0 15.7-8.3 15.7-18.4 0-10.2-7-18.4-15.7-18.4-8.6 0-15.7 8.3-15.7 18.4.1 10.2 7.1 18.4 15.7 18.4zm1.4-70.6c-5-.1-10 .7-14.8 2.3-1.1-.2-2.2-.3-3.4-.3h-11.6c-5.4 0-10.5 2.3-14.3 6.4s-5.9 9.6-5.9 15.4v79.5c0 5.8 2.1 11.3 5.9 15.4s9 6.4 14.3 6.4c10.8 0 24.9-7.7 30.3-20.7h.3c6.3.1 12.6-1.4 18.3-4.3s10.8-7.1 14.8-12.4c7.3-9.4 11.3-21.8 11.3-34.9 0-6.7-1.1-19.8-8.2-31.7-8.1-13.6-21.3-21-37-21.1z"/><path d="m348.8 223.5v76.1h-12.7v-65.4c0-5.8 6.6-10.7 12.7-10.7zm0-21.8c-7.5 0-14.9 2.7-20.9 7.6-7.7 6.2-12.1 15.3-12.1 24.9v65.4c0 5.8 2.1 11.3 5.9 15.4s9 6.4 14.3 6.4h12.7c5.4 0 10.5-2.3 14.3-6.4s5.9-9.6 5.9-15.4v-76.1c0-5.8-2.1-11.3-5.9-15.4-3.7-4.1-8.8-6.4-14.2-6.4z"/><path d="m380.8 240.2c7.1 0 13.4 3.8 18.1 9.3v-7.9h12.1v58h-12.2v-6.6c-2.3 2.7-5.1 4.9-8.2 6.5-3.1 1.5-6.5 2.3-9.9 2.4-13.8 0-25.8-12.6-25.8-30.8.1-19.4 10.5-30.9 25.9-30.9zm1.5 48.7c8.9 0 16.1-8.2 16.1-18.3s-7.2-18.3-16.1-18.3-16.1 8.2-16.1 18.3 7.2 18.3 16.1 18.3zm-1.5-70.4c-13.3 0-25.2 5.4-33.6 15.2-8.2 9.5-12.5 22.4-12.5 37.3 0 14.1 4.7 27.3 13.2 37.1 4.2 4.8 9.3 8.7 15 11.4s11.8 4 17.9 4.1c4.8 0 9.5-.9 14-2.5 1.3.3 2.7.4 4.1.4h12.1c5.4 0 10.5-2.3 14.3-6.4s5.9-9.6 5.9-15.4v-58c0-5.8-2.1-11.3-5.9-15.4s-9-6.4-14.3-6.4h-12.1c-1.8 0-3.5.2-5.2.7-4.2-1.4-8.5-2.1-12.9-2.1z"/><path d="m434 241.8v57.9h-12.2v-47.1c.1-5.9 6.1-10.8 12.2-10.8zm0-21.8c-7.7 0-15.1 2.8-21 8-7.2 6.2-11.4 15.2-11.4 24.5v47.1c0 5.8 2.1 11.3 5.9 15.4s9 6.4 14.3 6.4h12.2c5.4 0 10.5-2.3 14.3-6.4s5.9-9.6 5.9-15.4v-57.9c0-5.8-2.1-11.3-5.9-15.4-3.7-4-8.9-6.3-14.3-6.3z"/><path d="m457.6 223.5v18.1h14.9c0 5.1-4.1 11.6-9.8 11.6h-5.1v46.5h-12.8v-65.4c0-5.8 6.7-10.8 12.8-10.8zm0-21.7c-7.5 0-14.8 2.7-20.8 7.5-7.8 6.2-12.3 15.4-12.3 25v65.4c0 5.8 2.1 11.3 5.9 15.4s9 6.4 14.3 6.4h12.8c5.4 0 10.5-2.3 14.3-6.4s5.9-9.6 5.9-15.4v-29.4c2.9-1.9 5.4-4.3 7.5-7.1 4.6-5.9 7.2-13.3 7.4-21 0-.2 0-.4 0-.6 0-4.8-1.5-9.5-4.2-13.3s-6.6-6.5-10.9-7.8c-.7-5.2-3.1-10-6.7-13.5-3.5-3.3-8.3-5.3-13.2-5.2z"/><path d="m404.3 309.1c-12.6 13.5-76.7 58.7-133.4 58.7-30.2 0-53.8-16.8-53.8-46.5 5.4 10.2 22.7 24 52.8 24 38.4 0 82-17.8 111.9-36.3h22.5zm0-21.7h-22.5c-3.6 0-7.1 1-10.1 2.9-26 16.1-66.4 33.4-101.7 33.4-23.4 0-33.8-10.4-35.3-13.1-1.8-3.3-4.3-6.1-7.4-8s-6.6-2.9-10.1-2.9c-1.8 0-3.5.2-5.2.7-4.3 1.2-8.1 4-10.8 7.8s-4.2 8.5-4.2 13.3c0 40.2 30.4 68.2 74 68.2 34.5 0 69.2-14.4 92.2-26.5 26.3-13.8 47.1-29.6 55.4-38.4 2.9-3 4.8-6.9 5.7-11.1.8-4.2.4-8.6-1.1-12.6s-4.1-7.4-7.5-9.8c-3.5-2.7-7.4-4-11.4-3.9z"/><path d="m477.1 217.1c.9 0 1.8.9 1.1 1.8l-12.5 17.6h-5.3l15.8-19c.1-.1.3-.2.4-.3.2-.1.3-.1.5-.1zm0-21.8c-3 0-6 .7-8.8 2s-5.2 3.3-7.3 5.7l-15.8 19c-2.6 3.1-4.3 7-4.9 11.2s-.1 8.4 1.5 12.2 4.2 7.1 7.5 9.4 7.1 3.5 11 3.5h5.3c3.1 0 6.2-.8 9-2.3s5.2-3.6 7.1-6.3l12.6-17.6c2.4-3.4 3.9-7.4 4.3-11.6s-.3-8.5-2.1-12.3c-1.8-3.9-4.6-7.1-8-9.4s-7.3-3.5-11.4-3.5z"/><path d="m387.3 179.2c2.6-.1 5.1.5 7.4 1.8.6.3 1.3.4 2 .4h.9c.8-.1 1.6.1 2.3.4 16 8.4 39.1 24 39.1 35.4-.9 5-2.1 8.1-3.4 10.2.1.3.2.6.2.9 0 3.5-7.4 10.4-12.1 10.4-2.4 0-4.1-.7-4.1-2.9.1-1.3.6-2.5 1.4-3.5-5.2-.1-10.2-1.7-14.3-5.4-3.9-.9-7.5-3.1-10.4-6.1-1.6-1-3.4-1-5-2-4.6-2.9-12.2-7.2-12.2-13.4 0-3.2-2.8-3.2-2.8-5 0-2.1 1.4-3.4 1.4-5.4 0-2.2-2-1.6-2-7.3.1-5.5 3.4-8.5 11.6-8.5zm0-21.7c-8.5 0-15.3 2.1-20.8 6.4-7 5.6-10.9 14.1-10.9 24 0 2.9.3 5.7.9 8.5-.2 1.4-.3 2.7-.3 4.1 0 4.7 1.3 9.4 3.9 13.2 1.4 4.9 4.2 10.5 9.8 15.7 3.3 3 6.9 5.6 10.7 7.8l.8.5.2.1c1.5.9 3 1.6 4.6 2.2 3.5 2.9 7.4 5.1 11.5 6.7 1.9 1.4 4 2.5 6.1 3.5 1.9 2.7 4.3 5 7 6.7 4 2.4 8.5 3.6 13.1 3.5 9.3 0 17-5.6 20.7-8.9 4.5-3.9 9.6-10.1 11.2-18.3 1.5-3.8 2.7-7.8 3.4-11.8.3-1.4.4-2.8.4-4.3 0-7.8-2.8-15.5-8.4-22.9-3.9-5-8.3-9.4-13.1-13.3-7.8-6.4-18.2-13.2-28.8-18.7-2.9-1.6-6.1-2.5-9.4-2.7-4.1-1.3-8.3-2-12.6-2z"/><path d="m455.6 133.7c1.4 0 2.6.1 3.1.4 1 .7 2.1 1.6 2.2 2.7 4.8 0 9.6 7.2 9.6 15.4l-.6 41.8c0 3.2-4.6 16.3-10.4 16.3-6.1 0-15.6-14.6-15.6-25-.7-1.2-2.6-.2-3-1.7-4-7.4-6.3-21.6-6.3-34.7 0-4 4.7-8.9 9.4-9.4.7-1.4 1.7-2.6 2.9-3.6s2.6-1.6 4.1-1.9c1.4-.1 3-.3 4.6-.3zm0-21.7c-3.3 0-6.7.4-9.9 1.2h-.1c-5 1.3-9.7 4-13.5 7.7-10.3 5.2-17.8 16.3-17.8 28.1 0 6.6.6 29.1 8.5 44.6.7 1.6 1.6 3 2.6 4.4 1.6 5.7 4 11.1 7.2 16 7.4 11.7 16.9 18.1 26.8 18.1 5.9 0 17.1-2.4 25.2-18.3 1.3-2.5 5.4-11.2 5.5-19.5l.6-41.8v-.4c0-8.2-2.3-16.3-6.5-23.1-3-4.8-7.1-8.7-11.9-11.3-.7-.6-1.5-1.3-2.4-1.9-5.2-3.4-10.7-3.8-14.3-3.8z"/><path d="m522.5 154c13.9 2.1 18.8 8 20.2 15.4-1.9 12.1-14.5 20.7-26.4 29.5 0 2.2-1.1 2.5-2.3 2.5-.4 0-.8 0-1.1 0-.2 0-.4 0-.6 0-1.1.9-2.6 1.8-3.4 3.1-.2.8-.6 1.6-1.2 2.1s-1.4.8-2.2.9c-.2 0-.4 0-.6-.1-2.7 2.3-5 3.6-7.4 3.6-1.5 2.4-4 2-5.5 2.3-1.1.3-1.7.9-2.7.9-.3 0-.6 0-.8-.1-.1 0-.2 0-.2 0-1.4 0-2.5-2.3-2.9-4.2-1.2.3-2.4.5-3.7.5-.6 0-1.2 0-1.7-.1 1.2-3.1 2.4-5.2 2.4-11.6 1.8-3.4 3.5-6.8 4.2-10.8.1-.9-.7-1-1.1-1.5 1-1.5 2.3-3 1.9-5.1l2.8-.2c-.1-1.1-.6-2.5 1.1-2.5.2 0 .5 0 .7.1l-.6-4.2 3.1-.5c5.9-10.8 14.1-19 28-20zm0-21.8c-.5 0-1 0-1.5.1-9.9.6-19.4 4.3-27.5 10.5-4.5 3.5-8.5 7.8-11.9 12.6-4.3 2.5-7.6 6.5-9.3 11.3-.4.5-.8 1-1.2 1.4-1.6 2.3-2.8 4.9-3.5 7.7-1.9 3.5-2.8 7.5-2.6 11.5l-.4.7-.1.3c-1.7 3.2-2.5 6.9-2.5 10.6v1.1c0 .2-.2.5-.3.7l-.5 1.3c-1.2 3-1.7 6.2-1.6 9.4s.9 6.4 2.3 9.2c1.4 2.9 3.3 5.3 5.7 7.3 2.4 1.9 5.1 3.3 8.1 4 3.3 2.5 7.2 3.9 11.2 4.2.8.1 1.6.1 2.4.1 2.5 0 5.1-.5 7.5-1.4 3.3-.5 6.5-1.6 9.5-3.4 2.3-.8 4.6-1.9 6.7-3.3 3.6-1.3 6.9-3.5 9.6-6.4 2.9-1.2 5.5-3 7.7-5.3.8-.8 1.5-1.7 2.1-2.7 12.6-9.4 27.4-21.1 30.4-40.5.4-2.7.4-5.5-.1-8.1-1.6-8.8-6.1-16.7-12.7-22.3-6.3-5.3-14.3-8.7-24.6-10.2-.9-.1-1.8-.2-2.8-.2v-.2z"/><path d="m521.9 231c5.6.1 10.9.1 16.5.7 9.3.2 12.6 4 15.9 10.6 1.7 2.8 1.5 6.7.4 9.8-1.7 2.2-2.3 3.4-.2 5.8.7 1.3-2.2 6.6-3.4 7.2-3.7 1.9-7.8 2.9-11.9 2.9h-.7c-3.4-.2-6.9-.5-10.1-2-1.8-.7-3.8-1-5.8-.9h-1.8c-.7 0-1.3 0-1.9-.1-3.3-.3-7.1.4-9.5-2.7-2.1-1.8-5.6-.4-7.2-3.3-1.8-1.1-4.7 0-6.5-3.1-2.8-1.3-4.4-.5-6-3.7-.2-.8-.5-1.9-1.2-1.9h-.1c-.2.1-.5.1-.7.1-3.1 0-2.1-4.7-.7-6.6 2.3-1.4 3.8-2.3 5.2-5 1.9-2.7 3.8-1 6.3-2.6 2.9-1.7 6.1-3.8 9-4.5 4.7-.3 9.9-.7 14.4-.7zm-.1-21.8c-3.7 0-7.6.3-11.1.5l-3.9.2c-1.1.1-2.3.2-3.4.5-4.2 1.1-8.3 2.9-12 5.3-5.9 1-11.2 4.5-14.9 9.6-1.8 1.2-3.4 2.7-4.8 4.5-5.3 6.7-8.5 18.1-4 28.7 1.8 4.3 4.8 7.8 8.5 10.3 2.5 2.9 5.7 5.1 9.2 6.5 2.4 1.8 5.1 3.2 8 4 1 .6 2.1 1.2 3.2 1.7s2.2.9 3.4 1.2c6.5 4.5 13.4 4.6 16.5 4.7h1 .3c1.3.1 2.4.1 3.1.1h1.6c5.3 2.1 10.4 2.6 15.1 2.9h.5 1.2c7.1 0 14.1-1.7 20.5-5 9.5-4.8 13.3-16.4 14-18.7 1-3.3 1.3-6.7 1-10.2 2-8.2 1-16.9-2.8-24.3-4.5-9.1-12.8-20.8-32.1-21.6-5.2-.6-10-.6-14.6-.7l-3-.1z"/><path d="m476.9 262.8c1.1.1 2.2.6 2.9 1.5.2.2.4.4.6.5s.5.2.8.1h.4c3.3 0 4.4 5.3 6.9 7 2.7 2 5.6 3 5.8 6.3 0 .5 1.2 1.4 2.9 1.8 1.1.6-.3 2.6.7 3.4 1.7 1.1 3.1 2.5 4.4 4.2 1.7 1.5 3.2 2.6 3.7 4.8 1.6.7 2.5 2.8 3.3 4.1 1.6 2.8 3.7 5.3 6 7.5 2.5 6.1 3.2 16.1-.7 21.3-1.4 1-2.2.8-3.4 2.4-.8 1.4-3.4.7-3.9 2.6-.4 2.2-1.4 3-2.6 3-1.5 0-3.3-1.4-4.2-2.6-.5-.9-12.8-1.9-17.1-8-2.4-3.4-4.9-6.5-6.5-10.6-1.6-3.5-2.4-7.3-4.4-10.7-1.7-5.1-3-10.4-3.7-15.8.1-4.1-.2-8.1.6-12.3.7-6 5.9-5.7 6.1-8.1-.3-1.8.5-2.5 1.4-2.4zm.1-21.8c-3.1 0-6.2.7-9.1 2.1s-5.4 3.4-7.4 6c-.8 1-1.6 2.1-2.2 3.3-.7.7-1.5 1.4-2.1 2.2-3.6 4.3-6 9.6-6.7 15.3-.6 4.3-.9 8.6-.8 13v2.4c0 1.2 0 2.4.2 3.7 1 6.7 2.5 13.4 4.7 19.8.5 1.4 1 2.7 1.7 4 .2.4.7 1.8 1.1 2.9.6 1.6 1.2 3.5 2.2 5.6 2.3 5.7 5.5 10.1 7.8 13.2l1.1 1.5c6.7 9.4 17.2 12.9 23.7 14.6 4.1 3 8.9 4.6 13.8 4.6 3.4 0 6.7-.8 9.7-2.3 3-1.6 5.7-3.8 7.8-6.6.6-.4 1.2-.9 1.8-1.5.6-.3 1.2-.7 1.9-1.2 1.8-1.3 3.3-2.8 4.6-4.6 4.7-6.3 7.1-14.6 7.1-23.9 0-6.8-1.3-13.5-3.8-19.7-1.2-2.9-2.9-5.4-5-7.5-.7-.7-1.4-1.4-2-2.3-.1-.2-.3-.5-.4-.7l-.1-.2c-1.2-2.3-2.6-4.4-4.3-6.3-1.5-2.4-3.4-4.5-5.5-6.4-.1-.2-.3-.3-.4-.5-1.4-3.2-3.4-6-6-8.2-2.2-3.1-4.9-5.8-8-7.9-1.1-1.7-2.4-3.4-3.8-4.8-2.8-2.9-6.1-5-9.8-6.2-4-2.2-7.9-3.3-11.8-3.4z"/></g><path clip-rule="evenodd" d="m159.6 230h13.7l16.1 45 16.8-39c.8-2 4.9-8.1 16.5-8.1l-34.8 83.7c-3 5.6-9.8 9.1-17.2 9.1l11.6-27.4z" fill-rule="evenodd"/><path d="m241.4 240.4c-15.2 0-27.6 13.6-27.6 30.5 0 16.8 12.4 30.5 27.6 30.5s27.6-13.7 27.6-30.5-12.4-30.5-27.6-30.5zm-.1 13c8.5 0 15.5 7.9 15.5 17.7s-6.9 17.7-15.5 17.7-15.5-8-15.5-17.7c0-9.8 7-17.7 15.5-17.7z"/><path clip-rule="evenodd" d="m305 240.3c-8.9 0-12.5 2.7-18.2 8.8v-6.8h-11.6v79.5c4.3 0 12.2-4.6 12.2-10v-18.7c4.2 4.5 8.7 8 18.4 8 14.6 0 24.2-13.7 24.2-29.9 0-11.8-5-30.9-25-30.9zm-1.3 12c8.7 0 15.7 8.3 15.7 18.4s-7 18.4-15.7 18.4c-8.6 0-15.7-8.3-15.7-18.4s7-18.4 15.7-18.4z" fill-rule="evenodd"/><path clip-rule="evenodd" d="m336.1 234.2v65.4h12.7v-76.1c-6.1-0-12.7 4.9-12.7 10.7z" fill-rule="evenodd"/><path d="m380.8 240.2c-15.4 0-25.8 11.5-25.8 30.8 0 18.2 12 30.8 25.8 30.8 3.4 0 6.8-.8 9.9-2.4 3.1-1.5 5.9-3.7 8.2-6.5v6.7h12.2v-58h-12.1v7.9c-4.8-5.5-11.1-9.3-18.2-9.3zm1.5 12.1c8.9 0 16.1 8.2 16.1 18.3s-7.2 18.3-16.1 18.3-16.1-8.2-16.1-18.3 7.3-18.3 16.1-18.3z"/><path clip-rule="evenodd" d="m421.8 252.5v47.1h12.2v-57.9c-6.1.1-12.2 5-12.2 10.8z" fill-rule="evenodd"/><path clip-rule="evenodd" d="m444.8 234.3v65.4h12.8v-46.5h5.1c5.8 0 9.8-6.5 9.8-11.6h-14.9v-18.1c-6.1-0-12.8 5-12.8 10.8z" fill-rule="evenodd"/><path clip-rule="evenodd" d="m217.1 321.4c5.4 10.2 22.7 24 52.8 24 38.4 0 82-17.8 111.9-36.3h22.5c-12.6 13.5-76.7 58.7-133.4 58.7-30.2.1-53.8-16.7-53.8-46.4z" fill="#cf000c" fill-rule="evenodd"/><path clip-rule="evenodd" d="m460.4 236.5h5.3l12.5-17.6c.9-1.3-1.1-2.5-2-1.4z" fill="#cf000c" fill-rule="evenodd"/><path clip-rule="evenodd" d="m375.9 187.9c0-5.7 3.3-8.7 11.4-8.7 2.6-.1 5.1.5 7.4 1.8 1.3.8 3.8-.1 5.3.8 16 8.4 39.1 24 39.1 35.4-2.8 15.2-7.7 13.3-12.5 14.6-7 1.3-14.4.1-19.9-4.9-3.9-.9-7.5-3.1-10.4-6.1-1.6-1-3.4-1-5-2-4.6-2.9-12.2-7.2-12.2-13.4 0-3.2-2.8-3.2-2.8-5 0-2.1 1.4-3.4 1.4-5.4.2-2.1-1.8-1.5-1.8-7.1z" fill="#cf000c" fill-rule="evenodd"/><path clip-rule="evenodd" d="m423.9 238.8c-2.4 0-4.1-.7-4.1-2.9 0-3.8 6.9-10.2 12.6-10.2 1.9 0 3.7.8 3.7 2.7-.1 3.4-7.5 10.4-12.2 10.4z" fill-rule="evenodd"/><path clip-rule="evenodd" d="m450.8 134.2c-1.5.3-2.9.9-4.1 1.9s-2.2 2.2-2.9 3.6c-4.6.4-9.4 5.4-9.4 9.4 0 13 2.3 27.2 6.3 34.7.4 1.5 2.4.5 3 1.7 0 10.3 9.5 25 15.6 25 5.9 0 10.4-13.1 10.4-16.3l.7-41.8c0-8.2-4.8-15.4-9.6-15.4-.1-1.1-1.2-2-2.2-2.7-1-.9-6.3-.5-7.8-.1z" fill="#f4ad17" fill-rule="evenodd"/><path clip-rule="evenodd" d="m479.9 210.3c1.8.2 3.6.1 5.4-.4.4 2 1.6 4.4 3.2 4.2 1.5.4 2.1-.3 3.5-.7 1.6-.3 4.1 0 5.5-2.3 2.4 0 4.7-1.2 7.4-3.6.9.2 1.8 0 2.6-.6.7-.5 1.3-1.4 1.5-2.3.8-1.3 2.3-2.2 3.4-3.1 1.7-.2 4 .8 4-2.5 11.8-8.9 24.5-17.4 26.4-29.5-1.4-7.4-6.3-13.3-20.2-15.4-14 1.1-22.1 9.3-28.2 20l-3.1.5.6 4.2c-2.5-.4-1.9 1.2-1.8 2.5l-2.8.2c.4 2.1-.9 3.5-1.9 5.1.5.4 1.3.5 1.1 1.4-.7 4-2.4 7.4-4.2 10.8 0 6.3-1.2 8.4-2.4 11.5z" fill="#cf000c" fill-rule="evenodd"/><path d="m488.7 250.3c-4 .8-3-4.5-1.5-6.5 2.3-1.4 3.8-2.3 5.2-5 1.9-2.7 3.8-1 6.3-2.6 2.9-1.7 6.1-3.8 9-4.5 4.4-.2 9.6-.7 14-.7 5.6.1 10.9.1 16.5.7 9.3.2 12.6 4 15.9 10.6 1.7 2.8 1.5 6.7.4 9.8-1.7 2.2-2.3 3.4-.2 5.8.7 1.3-2.2 6.6-3.4 7.2-3.9 2-8.2 3-12.5 2.9-3.4-.2-6.9-.5-10.1-2-3-1.3-6.3-.7-9.5-.9-3.3-.3-7.1.4-9.5-2.7-2.1-1.8-5.6-.4-7.2-3.3-1.8-1.1-4.7 0-6.5-3.1-2.8-1.3-4.4-.5-6-3.7.1-1-.2-2.1-.9-2z" fill="#cf000c"/><path d="m479.9 264.3c-1.5-1.7-4.9-2.6-4.4 1-.2 2.4-5.4 2.1-6.1 8.1-.7 4.2-.5 8.2-.6 12.3.8 5.4 2 10.7 3.7 15.8 1.9 3.4 2.8 7.1 4.4 10.7 1.6 4.1 4.1 7.2 6.5 10.6 4.3 6 16.6 7.1 17.1 8 1.6 2.2 5.8 4.7 6.8-.4.5-1.9 3.1-1.2 3.9-2.6 1.2-1.5 2.1-1.4 3.4-2.4 3.9-5.2 3.2-15.2.7-21.3-2.3-2.2-4.3-4.7-6-7.5-.8-1.3-1.7-3.4-3.3-4.1-.5-2.2-2-3.3-3.7-4.8-1.2-1.6-2.7-3-4.4-4.2-1-.8.5-2.7-.7-3.4-1.7-.4-2.8-1.3-2.9-1.8-.2-3.3-3.1-4.3-5.8-6.3-2.5-1.7-3.7-7.2-7.1-7-.3 0-.6 0-.9-.1-.2-.2-.4-.4-.6-.6z" fill="#f4ad17"/></svg>