<svg fill="none" height="577" viewBox="0 0 327 577" width="327" xmlns="http://www.w3.org/2000/svg"><g fill="#dbf0e5"><g clip-rule="evenodd" fill-rule="evenodd"><path d="m-113.626 99.1519c5.438-11.3871 15.2365-13.9374 32.7441-5.5764 6.6812 3.1907 11.8389 7.6325 14.2552 11.1515 2.0297 2.957 8.27 3.745 10.6728 7.073 26.3168 33.136 60.98594 87.905 50.07411 110.754-20.51631 27.397-29.16661 18.636-40.65501 16.501-16.3115-4.582-30.9552-14.574-37.9856-30.124-8.6626-6.97-13.4768-14.717-16.3626-22.807-2.402-3.532-6.342-5.573-8.841-9.122-7.172-10.446-19.396-26.807-13.487-39.179 3.032-6.35-2.838-9.206-1.113-12.819 2.031-4.251 6.096-5.353 8.028-9.398 2.062-4.318-2.68-5.25 2.67-16.4541z"/><path d="m98.1562 68.6318c-3.5533-.6604-11.1138-2.5971-20.2268 3.8094-10.386-3.8543-25.219 1.1014-29.055 9.1338-12.4006 25.966-21.0821 56.731-19.6059 75.603-.6411 3.45 4.5862 3.449 4.8305 6.572-9.861 20.649-3.4528 59.635 9.5282 65.834 12.6287 6.031 34.9123-15.523 37.9307-21.843l41.2651-82.882c7.851-16.441 4.412-35.7179-5.855-40.6213.73-2.2581-.67-5.1319-2.178-7.6621-1.507-2.5302-13.08-7.2835-16.6338-7.9438z"/><path d="m87.8132 250.347c3.1421 1.848 6.7463 3.679 12.0002 4.721-.9818 4.453-.7467 10.546 2.7916 11.547 2.942 2.364 4.778 1.499 8.277 2.102 3.697 1.019 8.666 4.19 14.099 1.014 5.17 2.448 11.266 2.359 19.208.446 4.475 3.098 9.295 1.064 11.392-1.745 2.964-1.871 7.083-2.124 10.296-2.691 3.793 1.323 7.859 5.689 10.949-.833 33.711-5.521 68.948-9.628 84.592-31.885 3.94-16.254-.82-33.075-28.657-51.398-30.926-12.12-56.224-4.164-79.439 11.224l-7.017-2.229-2.736 9.02c-5.056-3.364-5.143.579-6.196 3.102l-6.183-2.448c-1.168 4.507-5.277 6.11-8.981 8.114.662 1.263 2.313 2.275 1.114 4.012-5.198 7.332-12.254 12.278-19.257 17.292-6.0113 12.653-10.6318 15.673-16.2528 20.635z"/></g><path d="m88.4395 347.844c-9.2454-2.485-2.092-12.102 3.0802-14.434 6.1297-.415 10.2093-.665 16.0463-4.672 6.575-3.399 9.115 1.878 16 1.339 7.901-.405 16.598-1.364 23.681.249 9.64 4.011 21.336 8.465 30.76 12.91 11.865 5.933 23.385 11.295 34.687 18.336 19.69 9.963 23.287 20.825 23.896 37.382.887 7.38-3.191 14.95-8.389 19.929-5.69 2.609-8.269 4.465-5.897 11.496.255 3.26-10.961 10.985-14.05 10.969-10.214-.054-20.547-2.455-29.579-7.056-7.213-3.883-14.426-8.066-19.828-14.361-5.218-5.639-12.779-7.861-19.332-11.492-6.835-3.92-15.572-6.442-17.595-15.096-2.815-5.783-11.522-6.572-12.307-13.876-2.796-4.073-10.245-4.807-10.8738-12.846-4.7038-5.436-9.0024-5.619-9.2082-13.541.3781-2.035.7254-4.747-1.0915-5.236z"/><path d="m36.2621 358.059c-1.6173-5.02-8.0114-10.173-10.3304-2.514-2.7086 4.516-13.5576-1.38-20.70011 9.89-5.592735 7.704-8.90935 15.869-12.92054 23.968-3.48165 11.44-5.76845 23.432-7.04155 35.36.8486 8.824-.8843 17.083-.8343 25.769-.4616 9.731 1.9944 18.579 3.8909 27.763 3.39514 16.442 28.9293 31.128 29.1081 33.414 1.297 5.943 8.0217 15.394 14.8796 6.036 2.8844-3.252 7.6935.741 10.7562-1.236 4.0622-1.849 5.8552-.631 9.5996-1.165 13.2745-6.481 21.2749-27.115 21.7686-41.925-1.9933-4.789-5.1094-13.45-5.683-21.095-.4399-3.322-.2736-8.577-3.1378-11.559.945-4.976-1.122-8.608-3.3908-13.307-1.2808-5.917-3.3519-9.005-5.3664-12.749-1.4288-2.656 3.5793-4.986 1.7441-7.412-3.2065-2.567-4.8243-5.509-4.3989-6.512 2.6454-6.836-2.5841-11.777-6.4566-18.549-3.81-5.961-.9936-18.092-8.6242-21.194-1.3284-.504-2.6079-1.491-2.8625-2.983z"/></g></svg>