<svg fill="none" height="480" viewBox="0 0 255 480" width="255" xmlns="http://www.w3.org/2000/svg"><g fill="#ffdaad"><g clip-rule="evenodd" fill-rule="evenodd"><path d="m233.792 434.969c-8.586 3.313-15.057-.242-20.152-13.442-1.944-5.037-2.454-9.975-1.973-13.051.405-2.584-2.509-6.127-2.116-9.095 2.642-30.746 11.69-77.144 28.917-83.793 24.598-4.251 24.796 4.726 29.818 11.611 6.352 10.598 9.112 23.229 5.052 34.994 1.102 8.033-.225 14.551-2.747 20.285-.495 3.075.571 6.131.119 9.264-1.429 9.129-3.142 23.925-12.47 27.525-4.788 1.848-3.106 6.302-5.83 7.353-3.205 1.238-5.912-.215-8.963.963-3.255 1.256-1.207 4.125-9.655 7.386z"/><path d="m106.229 345.09c1.553 2.13 4.591 6.943 12.631 8.11 3.576 7.244 13.921 12.045 19.978 9.708 19.578-7.556 39.587-19.519 48.256-30.263 2.067-1.508-.705-4.125.73-5.904 15.568-6.008 31.695-29.886 27.918-39.674-3.675-9.521-26.283-9.254-31.049-7.414l-63.383 23.275c-12.396 4.784-20.227 16.726-17.239 24.468-1.518.831-2.215 3.056-2.683 5.152-.468 2.097 3.288 10.412 4.841 12.542z"/><path d="m202.715 253.933c-.74-2.554-1.734-5.329-3.998-8.513 2.751-1.869 5.677-5.217 4.303-7.519-.376-2.727-1.783-3.188-3.336-5.26-1.449-2.391-2.496-6.561-6.967-7.598-1.515-3.887-4.791-6.893-9.959-9.856-.822-3.883-4.395-5.219-6.914-4.78-2.509-.492-4.819-2.421-6.807-3.729-1.348-2.601-1.317-6.952-6.221-5.042-20.637-13.955-41.375-29.424-60.815-25.459-10.2289 6.644-16.1288 17.946-10.5474 41.6 10.3264 21.913 27.7224 30.364 47.7364 33.832l2.604 4.696 5.968-3.412c.995 4.316 3.016 2.269 4.838 1.459l2.052 4.393c2.876-1.804 5.858-.595 8.825.197.281-1.001-.087-2.364 1.418-2.685 6.428-1.284 12.646-.373 18.869.477 9.524-3.698 13.486-2.986 18.951-2.801z"/><path d="m237.439 172.23c-.741-2.553-1.735-5.328-3.998-8.512 2.751-1.869 5.677-5.217 4.302-7.52-.375-2.726-1.782-3.187-3.335-5.259-1.449-2.392-2.496-6.561-6.967-7.599-1.515-3.887-4.791-6.892-9.96-9.855-.821-3.883-4.395-5.219-6.913-4.78-2.509-.492-4.819-2.421-6.807-3.73-1.348-2.6-1.317-6.952-6.221-5.041-20.637-13.955-41.375-29.4246-60.815-25.4589-10.229 6.6439-16.129 17.9459-10.548 41.5999 10.326 21.913 27.723 30.364 47.737 33.832l2.604 4.696 5.967-3.412c.996 4.316 3.017 2.269 4.839 1.458l2.052 4.394c2.876-1.804 5.857-.596 8.825.197.281-1.001-.087-2.365 1.418-2.685 6.428-1.284 12.645-.373 18.869.476 9.524-3.698 13.486-2.985 18.951-2.801z"/></g><path d="m286.869 148.327c3.657 5.948-4.952 7.464-8.862 6.111-3.457-2.85-5.745-4.761-10.846-5.559-5.188-1.492-3.892-5.561-7.812-8.724-4.392-3.741-9.483-7.588-12.43-11.991-3.102-6.954-7.073-15.172-9.843-22.248-3.319-9.0878-6.741-17.6998-9.207-27.0923-5.449-15.1427-1.917-22.7028 6.052-31.7851 3.226-4.357 9.179-6.328 14.428-6.3642 4.323 1.4656 6.62 1.7737 8.883-3.1416 1.498-1.856 11.313-.335 12.942 1.2206 5.388 5.1435 9.664 11.5914 12.148 18.5538 1.88 5.6707 3.609 11.5007 3.32 17.5433-.057 5.6031 2.838 10.5672 4.494 15.7742 1.661 5.501 5.029 11.2133 1.768 16.8143-1.404 4.476 2.818 9.254-.424 13.52-.557 3.559 3.024 7.679-.668 12.256-.229 5.237 1.958 7.487-1.9 11.79-1.219.89-2.762 2.154-2.043 3.322z"/></g></svg>