<svg fill="none" height="190" viewBox="0 0 1440 190" width="1440" xmlns="http://www.w3.org/2000/svg"><path d="m-.00000821 96.1352 48.00000821 15.9998c48 16 144 48 240 64s192 16 288 10.7c96-5.7 192-15.7 288-37.4 96-21.3 192-53.2999 288-58.5999 96-5.7 192 16.2999 240 26.5999l48 10.7v-127.999918l-48 .000004c-48 .000005-144 .000013-240 .000021-96 .000009-192 .000017-288 .000026-96 .000008-192 .000016-288 .000025-96 .000008-192 .000017-288 .000025s-192 .000017-240 .000021l-48.0000166.000004z" fill="#e3000b"/></svg>