<svg fill="none" height="161" viewBox="0 0 1440 161" width="1440" xmlns="http://www.w3.org/2000/svg"><path d="m-.00001122 31.9999 48.00001122 16c48 16 144 48 240 74.7001 96 26.3 192 48.3 288 32 96-15.7 192-69.7001 288-85.4001 96-16.3001 192 5.6999 288-.0001 96-5.3 192-37.3 240-53.3l48-16.00000218-48 .00000419c-48 .0000042-144 .00001259-240 .00002098-96 .0000084-192 .00001679-288 .00002518s-192 .00001679-288 .00002518-192 .00001679-288 .00002518-192 .00001678-240 .00002098l-48.00001401.0000042z" fill="#f7a600"/></svg>