<svg enable-background="new 0 0 70.667 68.001" height="68.001" viewBox="0 0 70.667 68.001" width="70.667" xmlns="http://www.w3.org/2000/svg"><path d="m65.462 35.586c2.652-1.327 4.388-3.306 5.162-5.879.35-1.162.373-2.218.07-3.227-.462-1.538-1.719-2.532-3.2-2.532-.831 0-1.635.312-2.325.9-.792.675-1.343 1.584-1.638 2.705-.063.243-.123.487-.182.731-.057.233-.113.467-.174.699-.132.503-.285.632-.817.691-.125.014-.251.024-.377.032-1.479-2.76-3.972-4.48-7.424-5.119-2.187-.407-4.466-.201-6.992.635-.483.16-.946.334-1.391.525-.106-1.322-.283-2.637-.528-3.932-.315-1.671-.879-3.186-1.531-4.853-1.43-3.654-3.42-7.093-6.084-10.514-1.24-1.59-2.593-3.258-4.298-4.626-.73-.586-1.74-1.304-3.068-1.654-1.794-.472-3.492.049-4.725 1.439-.478.538-.763 1.134-.845 1.772-.042.324-.21.683-.563 1.202-1.141 1.678-1.799 3.516-1.957 5.464-.142 1.751.066 3.552.616 5.354.288.939.656 1.886 1.113 2.857-6.138.149-11.542 2.297-16.073 6.391-.705.636-1.381 1.305-2.056 1.975l-.82.808c-1.099 1.07-2.392 2.287-3.828 3.2-.996.633-1.566 1.676-1.525 2.791.041 1.118.688 2.12 1.733 2.681 1.039.557 1.948 1.358 2.86 2.52.536.684 1.032 1.402 1.558 2.163.231.334.462.669.697 1.001 2.698 3.812 6.256 6.579 10.597 8.247-1.203 1.171-2.482 2.542-3.634 4.093-.714.962-1.707 2.462-2.077 4.366-.271 1.385-.108 2.705.482 3.92.562 1.157 1.496 1.967 2.757 2.362.263.083.59.187.975.241.971.138 1.95.453 2.986.787l.476.152c1.31.417 2.719.827 4.278.864l.221.002c1.351 0 2.657-.298 3.883-.885 1.176-.563 2.321-1.329 3.501-2.338 5.57-4.764 9.688-10.349 12.237-16.601.066-.162.129-.323.191-.485 1.293 1.051 2.857 1.761 4.643 2.097 4.188.785 7.883-.429 10.81-3.546.531-.566.99-1.137 1.387-1.728.003.001.006.001.009.002.279.045.558.09.833.155.628.148.725.216.813.931.021.165.036.33.052.496.042.437.09.932.209 1.452.216.945.647 1.752 1.284 2.399.688.699 1.571 1.084 2.484 1.084 1.278 0 2.442-.765 3.036-1.997.482-.999.604-2.125.375-3.442-.377-2.173-1.485-4.054-3.292-5.589-.928-.788-2.004-1.425-3.271-1.931.023-.157.044-.315.062-.473.756-.195 1.533-.449 2.305-.835z" fill="#fff"/><path d="m36.283 30.364c-1.146-1.028-2.184-2.164-3.233-3.286-1.375-1.47-2.677-3.003-3.863-4.63-.48-.659-.949-1.325-1.424-1.987-.925-.082-1.846-.211-2.778-.211-5.886.002-11.039 1.932-15.413 5.883-.971.877-1.885 1.818-2.822 2.732-1.294 1.259-2.616 2.479-4.149 3.453-.833.529-.791 1.553.081 2.021 1.4.751 2.518 1.812 3.488 3.048.82 1.046 1.547 2.159 2.313 3.243 2.87 4.055 6.716 6.737 11.468 8.139.453.134.92.226 1.38.336.199-.03.331-.171.479-.289.815-.649 1.65-1.271 2.509-1.863 2.486-1.712 5.122-3.167 7.816-4.519.027-.013.055-.026.083-.039.195-.086.405-.156.522-.362-.127-.321-.19-.652-.215-.996-.229-3.137-.04-6.251.478-9.35.065-.393.161-.78.351-1.135.37-.693.974-.939 1.724-.699.31.099.589.261.853.447.198.139.396.279.592.419h.008c0-.002-.001-.003-.001-.005-.008-.166-.139-.254-.247-.35zm-18.112 8.066c-.082.734-.223 1.467-.562 2.134-.558 1.098-1.115 1.167-1.998.641-.017-.01-.034-.017-.05-.027-.789-.524-1.602-1.016-2.342-1.609-1.021-.818-1.855-1.787-2.389-2.993-.748-1.696-.665-3.35.264-4.958.296-.512.651-.978 1.061-1.402 1.138-1.177 2.508-2.02 3.987-2.679 1.146-.511 1.782-.142 2.061 1.099.299 1.34.369 2.701.355 3.793-.014 2.191-.176 4.098-.387 6.001zm10.324-2.519c-.361 2.333-1.241 4.484-2.262 6.587-.191.393-.429.758-.709 1.096-.404.486-.89.666-1.517.5-1.068-.284-2.162-.391-3.267-.385-.088 0-.188.033-.255-.047-.012-.026-.029-.049-.024-.059.034-.067.067-.135.111-.195 1.943-2.65 2.743-5.669 2.845-8.905.091-2.871-.438-5.66-1.187-8.415-.052-.192-.093-.388-.139-.58.38-.161.744-.184 1.098-.228.469-.059.941-.118 1.418-.085 1.829.123 2.785.863 3.376 2.614.036.108.074.215.104.325.707 2.562.813 5.154.408 7.777z" fill="#e4000a"/><path d="m61.235 35.286c.015-.487.012-.487.522-.595.966-.205 1.92-.449 2.81-.894 2.004-1.003 3.482-2.474 4.142-4.668.206-.684.278-1.379.069-2.074-.343-1.14-1.41-1.455-2.313-.685-.523.446-.827 1.03-1 1.687-.124.477-.231.958-.356 1.435-.343 1.306-1.184 2.022-2.531 2.171-.512.057-1.021.064-1.533.083-.211.008-.343-.04-.433-.258-1.188-2.879-3.454-4.384-6.42-4.934-2.042-.378-4.044-.08-5.999.567-1.376.456-2.668 1.085-3.833 1.959-.06.122-.076.25-.073.385.011.664-.035 1.325-.123 1.983-.097.717-.244 1.419-.591 2.063-.438.812-1.108 1.052-1.96.703-.174-.071-.34-.168-.498-.271-1.049-.682-2.078-1.392-3.092-2.125-.141-.101-.259-.282-.476-.186-.001.004 0 .006-.001.01-.005 0-.007 0-.011 0 .033.2.203.306.317.448.513.64.942 1.325 1.237 2.094.547 1.427.471 2.813-.242 4.167-.24.455-.554.857-.844 1.276.712-.208 1.36-.566 2.034-.862.537-.236 1.063-.503 1.658-.569.954-.105 1.538.364 1.697 1.118.138.656.019 1.279-.09 1.912-.077.448-.263.87-.3 1.327 1.253 2.283 3.216 3.615 5.73 4.087 3.512.66 6.525-.333 8.982-2.95.626-.667 1.18-1.391 1.624-2.19.168-.302.351-.375.679-.301.609.136 1.236.199 1.844.342 1.478.348 2.152 1.125 2.34 2.631.072.583.095 1.173.227 1.748.125.547.363 1.039.759 1.441.767.778 1.819.606 2.294-.378.345-.715.338-1.475.206-2.231-.312-1.797-1.24-3.238-2.617-4.407-1.058-.899-2.279-1.488-3.592-1.913-.702-.227-.697-.238-.531-.952.17-.72.267-1.452.288-2.194z" fill="#e4000a"/><path d="m41.697 38.198c-.596.066-1.121.333-1.658.569-.674.296-1.322.654-2.034.862-.146.085-.286.181-.438.252-1.467.686-2.935 1.368-4.402 2.051-.135.063-.263.155-.426.103-.117.206-.327.275-.522.362-.028.013-.056.025-.083.039-2.694 1.352-5.33 2.806-7.816 4.519-.858.591-1.693 1.214-2.509 1.863-.147.118-.279.259-.479.289-.119.276-.38.416-.59.602-1.934 1.719-3.773 3.526-5.321 5.609-.797 1.074-1.46 2.222-1.72 3.557-.18.92-.095 1.813.318 2.664.314.648.809 1.093 1.499 1.309.234.074.472.153.715.187 1.304.186 2.539.617 3.786 1.013 1.212.386 2.429.74 3.719.771 1.124.026 2.181-.202 3.193-.687 1.123-.538 2.126-1.25 3.065-2.055 5.117-4.376 9.129-9.569 11.685-15.835.423-1.038.757-2.105 1.112-3.166.06-.178.082-.372.213-.52.037-.457.223-.879.3-1.327.108-.633.228-1.256.09-1.912-.159-.755-.743-1.224-1.697-1.119z" fill="#f7a600"/><path d="m44.294 28.523c-.014-2.131-.218-4.246-.613-6.336-.292-1.55-.854-3.027-1.428-4.494-1.422-3.634-3.406-6.94-5.8-10.013-1.204-1.545-2.435-3.062-3.972-4.295-.699-.561-1.444-1.048-2.326-1.28-1.079-.284-1.983.002-2.721.834-.181.203-.321.428-.356.7-.101.776-.461 1.435-.893 2.069-.925 1.36-1.484 2.858-1.617 4.501-.127 1.569.075 3.103.535 4.607.554 1.809 1.388 3.485 2.364 5.098.107.177.25.336.295.547.475.663.943 1.329 1.424 1.987 1.187 1.627 2.488 3.16 3.863 4.63 1.05 1.122 2.087 2.258 3.233 3.286.107.096.239.184.244.354 0 .002.001.003.001.005.097 0 .178.03.226.122.018.01.035.021.053.031.031.018.062.035.092.053.022.013.046.026.067.04.011.006.021.014.031.02.025.016.05.031.074.047.006.004.011.008.016.012.159.112.291.252.342.472.001.002.002.004.003.006.091-.016.139.012.116.107v.002c.217-.096.335.085.476.186 1.014.733 2.043 1.443 3.092 2.125.158.103.324.2.498.271.852.349 1.522.108 1.96-.703.347-.644.494-1.346.591-2.063.088-.659.134-1.319.123-1.983-.003-.135.014-.264.073-.385-.096-.179-.065-.373-.066-.56z" fill="#f7a600"/><path d="m36.966 30.967c.011.006.021.014.031.02-.01-.006-.02-.013-.031-.02z" fill="#fff"/><path d="m36.527 30.717.001.005z" fill="#fff"/><path d="m36.807 30.875c.031.017.062.035.092.053-.031-.018-.061-.035-.092-.053z" fill="#fff"/><path d="m37.071 31.035c.006.004.011.008.016.012-.005-.004-.01-.008-.016-.012z" fill="#fff"/><path d="m37.548 31.634v-.002z" fill="#fff"/><path d="m37.432 31.525-.003-.006z" fill="#fff"/><path d="m36.283 30.364c.107.096.239.185.244.354-.005-.17-.136-.258-.244-.354z" fill="#e8b215"/><path d="m37.548 31.634c.217-.096.335.085.476.186-.141-.101-.259-.282-.476-.186z" fill="#e8b215"/><path d="m37.547 31.644.001-.01z" fill="#e8b215"/><g fill="#c20218"><path d="m36.756 30.848c-.002.001-.003 0-.006.001.146.305.401.503.679.678 0 0 0-.001 0-.002h.003c-.001-.002-.002-.004-.003-.006-.051-.219-.183-.359-.342-.472-.005-.004-.01-.008-.016-.012-.024-.017-.049-.032-.074-.047-.01-.006-.021-.014-.031-.02-.021-.013-.045-.026-.067-.04-.03-.018-.061-.036-.092-.053-.018-.01-.035-.021-.053-.031-0 .002.002.003.002.004z"/><path d="m36.898 30.928c.022.013.046.026.067.04-.021-.014-.044-.027-.067-.04z"/><path d="m36.997 30.987c.025.016.05.031.074.047-.024-.016-.049-.031-.074-.047z"/><path d="m36.807 30.875c-.018-.01-.035-.021-.053-.031.017.01.035.021.053.031z"/><path d="m37.429 31.519c-.051-.22-.183-.359-.342-.472.159.112.291.252.342.472z"/><path d="m36.754 30.844c-.048-.092-.129-.122-.226-.122 0 .002.001.003.001.005l-.009-.006c.056.082.106.172.229.127-.001-.004-.004-.006-.006-.01.004.003.008.005.011.006z"/><path d="m36.754 30.844c-.048-.092-.129-.122-.226-.122.097.001.178.03.226.122z"/><path d="m36.528 30.722.001.006z"/><path d="m36.521 30.722.008.006z"/><path d="m36.528 30.722h-.007l.008.006z"/><path d="m36.754 30.844-.01-.005z"/><path d="m36.744 30.839.006.01.006-.001z"/><path d="m36.754 30.844.002.004z"/><path d="m36.756 30.848-.002-.004-.01-.005z"/><path d="m37.548 31.634s0-.001 0-.002c.022-.095-.025-.123-.116-.107 0 .002.001.003.001.005-.001-.001-.002-.002-.004-.003-.004.079.027.122.107.117-.001-.002-.002-.003-.002-.005.005-.003.009-.003.014-.005z"/><path d="m37.536 31.644h.011l-.013-.005z"/><path d="m37.548 31.634-.014.005z"/><path d="m37.548 31.632c.022-.095-.025-.123-.116-.107.09-.016.138.012.116.107z"/><path d="m37.433 31.53-.001-.005z"/><path d="m37.534 31.639.013.005.001-.01z"/><path d="m37.432 31.525h-.003z"/><path d="m37.429 31.527.004.003-.004-.005z"/><path d="m37.429 31.525.004.005-.001-.005z"/></g></svg>