<svg fill="none" height="27" viewBox="0 0 28 27" width="28" xmlns="http://www.w3.org/2000/svg"><path d="m6.48641 22.9056c.32934-1.6695 4.33509-7.8794 6.82859-11.2197 2.2468-3.0103 10.2903-10.799126 12.3773-11.435602 2.0889-.635859 2.8938 3.322392 1.2199 8.433932-1.6744 5.11217-9.7161 12.41437-14.0092 15.08607-4.29374 2.6723-4.87719 2.4799-5.46679 1.9834-.58899-.4977-1.2261-1.4481-.9498-2.8481z" fill="#e30613"/><path d="m3.17863 12.4866c1.2156.8924 3.3674 2.9967 4.5392 5.7234 1.09225 2.544 2.36397 4.7784 1.81198 6.4696-.4052 1.2402-1.07558 2.3614-3.63999.3133-2.56502-2.0489-5.210235-6.4148-5.419927-9.6662-.209691-3.2521.484164-3.3397 1.071917-3.4377.58899-.0981.98123.1165 1.63682.5976z" fill="#f7a600"/></svg>