<svg fill="none" height="321" viewBox="0 0 444 321" width="444" xmlns="http://www.w3.org/2000/svg"><path clip-rule="evenodd" d="m62.8182 127.332c-2.6062-9.874 1.075-15.899 13.6548-18.23 3.9351-.846 8.1399-.523 12.2536.94 2.3791 1.033 5.8392-1.24 8.5877-.131 28.4917 9.946 71.2147 30.309 76.4437 50.119 2.578 27.052-5.795 25.183-12.498 28.899-10.225 4.264-22.144 4.261-32.885-2.776-6.472-.496-12.976-3.14-18.743-7.62-2.84-1.25-5.742-.831-8.635-2.032-8.4413-3.699-22.1118-8.891-24.9399-19.605-1.4538-5.508-5.6986-4.761-6.5265-7.897-.9703-3.676.5411-6.22-.3828-9.72-.9935-3.764-3.7768-2.235-6.3499-11.983z" fill="#f4ad17" fill-rule="evenodd"/><path clip-rule="evenodd" d="m161.598 18.4554c-2.099.8828-3.925 2.3189-5.342 4.2008-1.418 1.8818-2.389 4.1607-2.843 6.666-6.805 2.0227-11.843 11.3085-10.129 17.8409 5.543 21.1157 15.045 43.5853 24.203 54.5059 1.225 2.39 3.779.178 5.298 1.983 4.409 16.796 24.969 37.925 34.041 36.249 8.879-1.641 10.139-24.223 8.792-29.355l-16.864-68.1038c-3.506-13.3591-13.802-23.699-21.023-22.3647-.648-1.6945-2.617-2.8608-4.488-3.7738-1.872-.9131-9.617 1.0241-11.645 2.1517z" fill="#cf000c" fill-rule="evenodd"/><g fill="#f4ad17"><path clip-rule="evenodd" d="m244.572 127.436c2.872-.151 5.617-.905 8.106-2.225 1.581 3.301 4.523 7.144 6.726 6.23 2.55.232 3.068-1.139 5.091-2.242 2.297-.97 6.217-1.147 7.438-5.564 3.689-.681 6.695-3.449 9.701-8.182 1.442.042 2.753-.571 3.657-1.71s1.328-2.714 1.183-4.39c.605-2.52 2.528-4.489 3.847-6.281 2.491-.812 6.576.205 5.024-5.3662 14.115-18.4339 29.644-36.621 27.046-57.9182-5.573-12.3785-15.705-21.1296-37.954-20.7195-20.918 5.8009-29.741 22.0993-34.089 42.2837l-4.504 1.6645 2.829 7.0275c-4.06.0595-2.277 2.6462-1.636 4.7405l-4.184 1.1499c1.507 3.4316.216 6.2731-.673 9.2358.913.5343 2.196.4537 2.419 2.1568.83 7.032-.367 13.3452-1.516 19.6742 2.861 10.758 1.972 14.749 1.489 20.435z" fill-rule="evenodd"/><path d="m271.426 167.514c-6.259 1.383-5.878-8.195-3.839-11.726 3.328-2.431 5.567-4.046 7.318-9.028 2.43-4.784 5.913-1.779 9.633-4.528 4.339-3.041 8.906-6.777 13.562-8.048 7.035-.39 15.411-1.182 22.491-1.187 9.053.247 17.697.191 26.851 1.463 15.05.487 21.308 7.255 28.061 19.246 3.362 5.13 3.978 12.134 2.943 17.618-2.218 3.903-2.977 6.162 1.099 10.52 1.409 2.325-1.98 11.914-3.761 12.914-5.865 3.529-12.563 5.255-19.569 5.044-5.594-.302-11.327-.93-16.834-3.703-5.152-2.339-10.28-1.359-15.442-1.742-5.406-.514-11.355.662-15.861-5.012-3.857-3.342-9.096-.836-12.367-5.956-3.172-2.02-7.697.094-11.16-5.682-4.787-2.379-7.299-1.011-10.486-6.784-.567-1.629-1.439-3.798-2.645-3.475z"/><path d="m241.266 186.491c-2.753-2.882-8.196-4.319-6.653 1.638.165 3.946-8.025 3.454-7.82 13.421-.276 7.054.939 13.671 1.709 20.47 2.352 8.957 5.422 17.763 9.168 26.301 3.727 5.716 5.818 11.884 9.054 17.767 3.34 6.763 7.972 11.976 12.413 17.599 7.962 10.076 27.539 11.774 28.479 13.264 2.914 3.615 10.128 7.865 10.522-.687.398-3.15 4.538-1.986 5.503-4.327 1.57-2.566 3.005-2.317 4.888-3.902 4.956-8.704 1.758-25.336-3.44-35.522-4.095-3.621-7.783-7.829-10.945-12.491-1.47-2.118-3.316-5.743-6.003-6.836-1.317-3.685-3.806-5.49-6.798-7.94-2.264-2.723-4.861-5.063-7.686-6.926-1.767-1.338.138-4.54-1.767-5.59-2.734-.748-4.709-2.185-4.849-2.997-1.06-5.507-5.78-7.165-10.432-10.51-4.31-2.82-7.233-11.974-12.606-11.61-.46.09-.951.036-1.423-.156s-.908-.516-1.264-.938z"/><path clip-rule="evenodd" d="m194.957 196.941c-2.872.15-5.617.908-8.103 2.237-1.573-3.315-4.515-7.159-6.729-6.243-2.551-.232-3.057 1.138-5.081 2.24-2.307.973-6.217 1.148-7.448 5.567-3.689.681-6.695 3.449-9.702 8.182-1.44-.039-2.75.576-3.653 1.714-.904 1.139-1.329 2.712-1.187 4.387-.594 2.518-2.515 4.5-3.847 6.282-2.491.811-6.524-.215-5.024 5.366-14.116 18.436-29.645 36.624-27.046 57.923 5.581 12.248 15.731 21.023 37.987 20.598 20.909-5.799 29.732-22.099 34.09-42.287l4.498-1.65-2.822-7.042c4.06-.06 2.266-2.645 1.625-4.739l4.184-1.15c-1.504-3.42-.216-6.274.683-9.239-.913-.534-2.206-.452-2.429-2.155-.779-7.042.377-13.348 1.516-19.676-2.883-10.637-1.964-14.634-1.512-20.315z" fill-rule="evenodd"/></g></svg>