<svg fill="none" height="524" viewBox="0 0 469 524" width="469" xmlns="http://www.w3.org/2000/svg"><path d="m82.5698 75.4112c13.8492 2.7249 52.3432 7.2239 84.6922 4.303 21.966-2.3426 47.593-1.6663 73.601-1.3624 21.74 1.3526 31.868 1.1076 45.55.5391l1.022-1.088c15.92.5587 63.661 2.225 60.962-1.8428 4.529.4215 9.266.7352 14.15.9802l7.442.3137c1.256.0588 2.539 0 3.775.2156.621.0882 1.256.0686 1.87.245l1.871.4607c.312.0685.62.1701.922.3039l.915.3724.915.3627c.314.1176.602.3235.902.4803.595.3333 1.196.6469 1.784.9802l1.724 1.2546c2.282 1.7804 4.381 4.0279 6.233 6.675 1.86 2.7022 3.452 5.774 4.73 9.1254 1.235 3.4192 2.145 7.0692 2.705 10.8502.445 3.865.619 7.787.522 11.704v11.968c0 7.978-.081 15.927-.161 23.788-.167 15.683-.467 31.082-1.049 45.569 1.356 26.876 1.423-35.63 2.359-24.103-.278-10.662.022-21.341.895-31.934.32-4.175.668-8.292.935-13.154.14-2.431.261-5.048.348-7.949.046-1.451.08-2.941.113-4.577.033-1.637.047-3.206 0-5.274.252 1.941.409 3.907.468 5.881.1 2.235.16 4.734.2 7.45.047 5.43.047 11.703 0 18.231-.107 13.056-.307 27.121 0 37.403-.668 32.415-3.594 16.82-2.545 52.694-1.183 36.149-3.421 79.806-2.866 114.749.935 11.557 1.055 35.934.481 49.205l-1.036 2.774c.194 10.037.668 19.408.902 28.974.122 4.613-.413 9.213-1.57 13.507-1.234 4.576-3.181 8.665-5.685 11.938-2.042 2.526-4.342 4.566-6.814 6.048-2.833 3.316-6.302 5.249-9.921 5.528-.515.049-1.009.118-1.55.137h-1.684l-3.474-.058c-2.358-.069-4.81-.187-7.349-.334-10.134-.578-21.552-1.538-33.437-1.137 5.799.804-11.143 1.343-15.412 2.392 2.037-2.176-24.639-1.755-6.34-3.744-28.06 1.872-42.757-3.441-68.625-.441l-10.602-2.696c-9.4-.48-17.317.892-24.479 1.549l7.349 2.656c-21.746-1.362-15.058 2.019-41.08 1.715 14.364-1.303 4.149-4.361-14.697-5.312-14.03-2.549-36.37-1.529-56.74-.853l-7.5225.226-3.6544.088h-1.7971c-.3274 0-.5145 0-.755 0h-.7014c-.9101-.04-1.8168-.181-2.7124-.422-.4385-.098-.8716-.242-1.2961-.431-.4209-.167-.8484-.304-1.256-.49-1.5596-.759-3.0477-1.803-4.4293-3.107-2.2922-2.129-4.1883-5.059-5.5183-8.528-.481-1.283-.8449-2.654-1.0823-4.077-.1509-1.077-.1959-2.179-.1336-3.274-.1537-.569-.314-1.127-.4677-1.686l-.2472-.843-.1737-.872c-.1202-.579-.2405-1.157-.354-1.725-.1136-.569-.1537-1.186-.2272-1.774-.1524-1.175-.2484-2.364-.2872-3.558v-.451-.618-1.235c0-.823 0-1.637 0-2.46-.0802-6.538-.127-12.919-.1537-19.192-.0535-12.546 0-24.671.0735-36.864.1603-24.397.4877-49.078.5211-77.973-1.1424-65.005 4.5362-96.861 2.1245-159.671.2004-2.901.3852-5.917.5545-9.047.0801-1.568.1603-3.156.2471-4.763.0401-.814.0735-1.627.1136-2.441l.0601-1.235.0869-.735c.0601-.49.1136-.98.1537-1.47.04-.49.1737-.98.2471-1.441.4941-2.932 1.3847-5.689 2.6189-8.106.8588-5.8067 2.8915-11.0981 5.8323-15.1831.334-.4606.6681-.9801.9954-1.4212.3274-.4411.6681-.8234 1.0088-1.2448.6681-.892 1.3362-1.5193 1.9241-2.2446.5879-.7254 1.1758-1.3331 1.6835-1.9604.4661-.5462.8997-1.1496 1.2961-1.8035-.6681.1764-.9286.3137-1.6502.4901-.2004-.6567-1.777-.9018-4.122-.2941-2.9655.8144-5.773 2.5745-8.224 5.1558-.8662.8928-1.6879 1.8755-2.4585 2.9405 2.5267-5.0077 5.8188-9.0761 9.6117-11.8781 3.793-2.802 7.981-4.2596 12.2277-4.2556h89.7962c-27.405 3.4698-60.347-.7547-95.1742 2.4112z" fill="#dbf0e5"/><circle cx="232.142" cy="105.125" fill="#dbf0e5" r="78.5" transform="matrix(-.15895593 .98728568 -.98728568 -.15895593 372.830755 -107.35523)"/><g clip-rule="evenodd" fill-rule="evenodd"><path d="m227.708 183.288c1.237.267 2.488.502 3.752.705 39.087 6.294 75.875-20.291 82.168-59.378 2.485-15.435-.157-30.5117-6.671-43.4935 5.087 12.2391 6.945 25.9145 4.7 39.8525-6.373 39.584-43.489 66.772-83.949 62.314z" fill="#43856a"/><path d="m237.297 27.0572c-1.238-.2663-2.489-.5017-3.753-.7053-39.087-6.2931-75.875 20.2917-82.168 59.3788-2.485 15.4353.157 30.5113 6.671 43.4933-5.087-12.239-6.944-25.914-4.7-39.8524 6.373-39.5838 43.489-66.772 83.95-62.3144z" fill="#cf000c"/></g></svg>