<svg fill="none" height="118" viewBox="0 0 125 118" width="125" xmlns="http://www.w3.org/2000/svg"><path clip-rule="evenodd" d="m10.7926 46.3525c5.8061-23.5676 31.5012-26.5866 52.4486-29.3328 19.9473-2.6151 43.4718-4.7036 51.4178 15.7158 8.549 21.9678-3.197 48.0303-20.2937 64.2633-15.214 14.4452-35.4435 14.2192-51.8772 4.2602-18.7398-11.3564-37.73126-30.4065-31.6955-54.9065z" fill="#ffdaad" fill-rule="evenodd" opacity=".75"/><path d="m74.4258 36.9265c.3161.3189.4931.7469.4931 1.1927 0 .4457-.177.8738-.4931 1.1927l-17.6647 17.8513 17.6647 17.8477c.3161.3189.4931.747.4931 1.1927 0 .4458-.177.8739-.4931 1.1928-.1537.1554-.3375.279-.5405.3634-.2029.0844-.421.1279-.6413.1279s-.4384-.0435-.6413-.1279c-.203-.0844-.3868-.208-.5404-.3634l-18.7848-18.9869c-.3299-.3335-.5146-.7807-.5146-1.2463s.1847-.9128.5146-1.2463l18.7848-18.9868c.1536-.1555.3374-.2791.5404-.3635.2029-.0844.421-.1279.6413-.1279s.4384.0435.6413.1279c.203.0844.3868.208.5405.3635z" fill="#43856a"/></svg>