<svg fill="none" height="46" viewBox="0 0 51 46" width="51" xmlns="http://www.w3.org/2000/svg"><g clip-rule="evenodd" fill="#dd513e" fill-rule="evenodd"><path d="m6.41971 10.7438c.81047-1.1373 1.94143-1.21622 3.72579.0548.5714.3878 1.0423.9057 1.3722 1.5091.1695.3648.8463.5767 1.0517.991 2.3064 4.1636 5.1438 10.8668 3.5177 13.1487-2.7713 2.5837-3.5691 1.4489-4.8018.9804-1.72027-.8333-3.15894-2.2241-3.65387-4.0712-.72485-.797-1.20872-1.7791-1.39442-2.8299-.20043-.4369-.59851-.7401-.81089-1.179-.59759-1.2971-1.65643-3.3303-.77696-4.5644.45209-.6344-.14551-1.0666.11194-1.4279.30174-.4234.77405-.4617 1.06137-.8649.30894-.4335-.20132-.6292.59885-1.7521z"/><path d="m30.3837 11.6475c-.3648-.1724-.7625-.2614-1.1633-.2603-.4007.0011-.7942.0922-1.1509.2665-1.0823-.6358-2.8185-.3946-3.3912.4093-1.8513 2.5984-3.3767 5.7981-3.5581 7.9007-.1358.3661.4448.4719.4155.8201-1.4726 2.0669-1.473 6.4776-.1528 7.4184 1.2922.9208 4.1587-.9914 4.6086-1.6229l6.0959-8.2585c1.1712-1.644 1.1425-3.8307.0916-4.5795.1236-.233.0207-.5771-.1006-.8862-.1212-.3091-1.3091-1.0661-1.6947-1.2076z"/><path d="m25.8406 31.3776c.3655.3238.785.5812 1.2388.7604-.1884.4673-.2742 1.1406.0981 1.3209.2825.3189.503.2624.8752.4054.3902.1864.8858.631 1.5424.3969.5255.3744 1.2086.4904 2.118.4386.1699.1726.3995.274.6402.2826.2407.0087.4734-.076.6489-.2362.3633-.1444.8232-.0871 1.1894-.0856.3954.2229.7735.7886 1.2268.1307 3.8335.0804 7.8098.3475 9.9467-1.7765.7497-1.711.5288-3.6467-2.2155-6.2205-3.2037-1.9573-6.1497-1.5995-9.0007-.3851l-.7376-.3859-.4662.932c-.499-.4709-.5807-.0409-.744.2133l-.6396-.3924c-.2124.4698-.696.5612-1.1449.7101.0492.1527.214.2963.0449.4679-.7089.6981-1.5808 1.097-2.4489 1.503-.8917 1.2544-1.4588 1.4912-2.172 1.9204z"/></g></svg>