<svg fill="none" height="1030" viewBox="0 0 1339 1030" width="1339" xmlns="http://www.w3.org/2000/svg"><path clip-rule="evenodd" d="m1134.11 338.632c-57.17-101.181-213.261-65.027-340.783-36.915-121.434 26.769-263.691 63.097-291.53 176.306-29.95 121.794 65.018 223.205 182.488 267.115 104.531 39.073 224.929-1.825 313.381-81.76 100.864-91.153 195.874-219.561 136.444-324.746z" fill="#ffdaad" fill-rule="evenodd"/><path clip-rule="evenodd" d="m1100.78 647.163c-.44-29.31-41.42-40.252-74.71-49.507-31.714-8.813-69.493-18.039-90.404 3.618-22.496 23.299-13.284 57.247 8.497 81.208 19.382 21.323 52.65 26.886 83.447 19.941 35.12-7.92 73.62-24.789 73.17-55.26z" fill="#43856a" fill-rule="evenodd"/><path clip-rule="evenodd" d="m124.365 731.997c19.79 85.782 140.944 93.053 239.618 100.029 93.963 6.643 205.106 10.816 249.65-65.44 47.923-82.04.723-176.11-75.175-233.244-67.54-50.841-163.785-46.998-245.213-7.934-92.853 44.545-189.453 117.413-168.88 206.589z" fill="#fdecb2" fill-rule="evenodd"/><path clip-rule="evenodd" d="m328.363 554.915c-.351-23.783-33.603-32.661-60.622-40.171-25.73-7.151-56.384-14.637-73.351 2.936-18.254 18.905-10.779 46.451 6.894 65.894 15.727 17.301 42.721 21.815 67.71 16.179 28.495-6.426 59.733-20.114 59.369-44.838z" fill="#dbf0e5" fill-rule="evenodd"/><path d="m133.417 808.036c-34.6965-22.433-26.386-54.814-17.894-68.2 4.434 60.35 90.629 86.363 133.172 91.826l16.87 13.465c-22.633.346-88.776-9.05-132.148-37.091z" fill="#fdecb2"/><g fill="#cf000c"><path clip-rule="evenodd" d="m209.607 407.378c2.153 1.135 2.552 3.07.771 6.447-.537 1.077-1.322 2.01-2.287 2.72-.591.378-.799 1.596-1.467 2.047-6.655 4.95-17.572 11.407-21.89 9.129-5.106-4.186-3.332-5.827-2.809-8.065 1.039-3.164 3.107-5.972 6.182-7.255 1.208-1.437 2.792-2.501 4.563-3.066.708-.448 1.139-1.206 1.848-1.674 2.101-1.334 5.366-3.634 7.702-2.402 1.201.633 1.808-.499 2.492-.139.801.423.977 1.23 1.74 1.632.821.433 1.04-.494 3.165.627z" fill-rule="evenodd"/><path clip-rule="evenodd" d="m213.614 448.973c.213-.67.274-1.378.179-2.069-.095-.692-.344-1.351-.728-1.926.847-2.017.027-4.959-1.494-5.762-4.918-2.593-10.798-4.484-14.471-4.309-.664-.149-.712.878-1.32.908-3.911-2.063-11.529-1.039-12.847 1.46-1.29 2.445 2.679 6.951 3.874 7.581l15.678 8.609c3.111 1.641 6.881 1.084 7.93-.905.431.159 1.001-.099 1.507-.38s1.537-2.508 1.692-3.207z" fill-rule="evenodd"/><path clip-rule="evenodd" d="m178.485 445.71c-.474.707-.821 1.491-1.025 2.316-.851-.217-2.034-.208-2.259.477-.485.561-.336.929-.496 1.605-.232.717-.884 1.676-.328 2.756-.524.995-.566 2.201-.265 3.76-.259.333-.38.753-.339 1.171.041.417.241.8.558 1.065.334.594.342 1.402.424 2.035-.293.734-1.182 1.519.06 2.149.751 6.639 1.214 13.568 5.378 16.765 3.129.897 6.421.066 10.228-5.272 2.636-5.987 1.334-10.991-1.426-15.633l.496-1.363-1.718-.589c.697-.971-.065-1.012-.541-1.235l.529-1.196c-.861-.258-1.131-1.072-1.493-1.812-.252.12-.462.438-.797.186-1.371-1.062-2.262-2.475-3.165-3.88-2.373-1.248-2.914-2.173-3.821-3.305z" fill-rule="evenodd"/><path d="m163.54 443.448c.842-1.697 2.374.039 2.614 1.121-.166 1.194-.28 1.993.251 3.258.381 1.389-.717 1.684-.896 3.023-.237 1.534-.397 3.241-.983 4.544-1.141 1.707-2.445 3.794-3.657 5.445-1.593 2.067-3.066 4.091-4.847 6.005-2.661 3.424-4.863 3.718-8.02 3.23-1.432-.099-2.706-1.159-3.443-2.344-.27-1.188-.517-1.753-1.943-1.553-.629-.071-1.647-2.51-1.509-3.097.417-1.973 1.277-3.831 2.514-5.427 1.009-1.251 2.097-2.479 3.503-3.286 1.273-.798 1.989-2.162 2.938-3.299 1.012-1.171 1.836-2.759 3.554-2.834 1.219-.324 1.699-1.976 3.114-1.857.88-.392 1.303-1.81 2.86-1.624 1.218-.706 1.42-1.527 2.929-1.277.369.148.88.318 1.033-.018z"/><path d="m164.685 434.375c1.017-.129 2.249-1.17.886-1.9-.75-.689.8-2.565-1.057-4.357-1.239-1.369-2.664-2.299-4.043-3.37-2.055-1.089-4.21-1.978-6.437-2.655-1.708-.161-3.207-.798-4.858-1.107-1.831-.447-3.608-.297-5.426-.269-3.26.052-7.059 4.44-7.499 4.391-1.179.032-3.241.98-1.749 2.654.504.677-.447 1.457-.191 2.121.189.851-.113 1.15-.159 1.894.707 2.798 4.314 5.102 7.1 5.735 1.392-.315 2.817-.424 4.232-.322.649.038 1.64.264 2.319-.18.907.365 1.681.1 2.661-.166.901-.041 1.791-.232 2.635-.567.559-.177.805.872 1.336.608.624-.519 1.238-.728 1.411-.611 1.195.762 2.339-.065 3.779-.565 1.283-.514 3.476.474 4.367-.883.066-.127.163-.235.282-.313s.256-.123.397-.131z"/><path clip-rule="evenodd" d="m171.256 424.639c.475-.706.821-1.491 1.023-2.317.852.221 2.035.213 2.261-.475.485-.562.335-.927.496-1.603.232-.72.884-1.676.328-2.758.525-.995.566-2.201.266-3.76.257-.334.379-.754.338-1.171-.041-.418-.241-.8-.558-1.066-.335-.591-.345-1.4-.424-2.034.293-.735 1.175-1.505-.059-2.149-.752-6.639-1.214-13.568-5.379-16.765-3.107-.872-6.406-.041-10.212 5.301-2.634 5.984-1.332 10.989 1.426 15.633l-.496 1.359 1.719.593c-.698.971.066 1.01.542 1.233l-.529 1.195c.858.257 1.131 1.072 1.491 1.815.252-.12.464-.441.799-.189 1.363 1.076 2.26 2.478 3.165 3.88 2.356 1.222 2.892 2.155 3.803 3.278z" fill-rule="evenodd"/></g><path clip-rule="evenodd" d="m1124.04 542.86c1.64.865 1.94 2.339.58 4.912-.41.821-1 1.532-1.74 2.073-.45.288-.61 1.216-1.12 1.559-5.07 3.772-13.39 8.692-16.68 6.956-3.89-3.189-2.53-4.44-2.14-6.145.8-2.411 2.37-4.55 4.71-5.528.92-1.095 2.13-1.905 3.48-2.336.54-.341.87-.918 1.41-1.275 1.6-1.016 4.09-2.769 5.87-1.831.91.483 1.38-.38 1.9-.105.61.322.74.937 1.32 1.243.63.33.79-.376 2.41.478z" fill="#f08d52" fill-rule="evenodd"/><path clip-rule="evenodd" d="m1127.09 574.553c.16-.511.21-1.05.14-1.577-.08-.527-.27-1.029-.56-1.467.65-1.537.02-3.779-1.14-4.39-3.74-1.976-8.22-3.417-11.02-3.284-.51-.114-.55.669-1.01.692-2.98-1.572-8.78-.792-9.79 1.112-.98 1.864 2.04 5.297 2.95 5.777l11.95 6.559c2.37 1.251 5.24.826 6.04-.69.33.122.76-.075 1.15-.289s1.17-1.911 1.29-2.443z" fill="#f08d52" fill-rule="evenodd"/><path clip-rule="evenodd" d="m1100.32 572.067c-.36.538-.62 1.136-.78 1.764-.65-.165-1.55-.159-1.72.363-.37.428-.25.709-.38 1.224-.17.546-.67 1.277-.25 2.099-.4.758-.43 1.677-.2 2.865-.2.254-.29.574-.26.892.03.319.19.61.43.812.25.453.26 1.068.32 1.55-.22.56-.9 1.158.05 1.638.57 5.058.92 10.337 4.1 12.773 2.38.684 4.89.051 7.79-4.016 2.01-4.562 1.01-8.375-1.09-11.911l.38-1.039-1.31-.449c.53-.74-.05-.771-.41-.941l.4-.911c-.66-.196-.86-.817-1.14-1.381-.19.092-.35.334-.6.142-1.05-.809-1.73-1.886-2.42-2.956-1.8-.951-2.22-1.656-2.91-2.518z" fill="#f08d52" fill-rule="evenodd"/><path d="m1088.94 570.343c.64-1.293 1.81.03 1.99.854-.13.91-.22 1.519.19 2.482.29 1.059-.55 1.283-.68 2.304-.18 1.169-.31 2.469-.75 3.462-.87 1.3-1.87 2.891-2.79 4.149-1.21 1.575-2.33 3.117-3.69 4.576-2.03 2.608-3.71 2.832-6.11 2.46-1.09-.075-2.06-.883-2.63-1.786-.2-.905-.39-1.336-1.48-1.183-.48-.054-1.25-1.912-1.15-2.359.32-1.504.98-2.919 1.92-4.136.77-.953 1.6-1.889 2.67-2.503.97-.609 1.51-1.647 2.24-2.514.77-.892 1.4-2.102 2.71-2.159.92-.247 1.29-1.506 2.37-1.416.67-.298.99-1.378 2.18-1.236.92-.539 1.08-1.164 2.23-.973.28.112.67.242.79-.015z" fill="#f08d52"/><path d="m1089.81 563.43c.77-.098 1.71-.892.67-1.448-.57-.525.61-1.954-.8-3.319-.95-1.043-2.03-1.752-3.08-2.568-1.57-.83-3.21-1.507-4.91-2.023-1.3-.123-2.44-.608-3.7-.843-1.39-.341-2.75-.227-4.13-.205-2.49.039-5.38 3.383-5.72 3.345-.89.025-2.47.747-1.33 2.022.39.516-.34 1.11-.14 1.616.14.649-.09.876-.13 1.444.54 2.132 3.29 3.887 5.41 4.369 1.06-.24 2.15-.323 3.23-.245.49.029 1.25.201 1.77-.137.69.277 1.28.076 2.02-.127.69-.031 1.37-.177 2.01-.432.43-.135.61.664 1.02.463.47-.395.94-.554 1.07-.465.91.581 1.79-.05 2.88-.43.98-.392 2.65.361 3.33-.674.05-.097.12-.179.22-.238.09-.059.19-.094.3-.1z" fill="#f08d52"/><path clip-rule="evenodd" d="m1094.82 556.012c.36-.538.62-1.136.78-1.766.64.169 1.55.162 1.72-.362.37-.428.25-.706.38-1.221.17-.548.67-1.277.25-2.102.4-.757.43-1.677.2-2.864.19-.254.29-.574.26-.892-.04-.318-.19-.61-.43-.813-.25-.45-.26-1.066-.32-1.55.22-.559.89-1.146-.05-1.637-.57-5.058-.92-10.338-4.1-12.774-2.36-.664-4.88-.03-7.78 4.039-2 4.56-1.01 8.373 1.09 11.912l-.38 1.036 1.31.451c-.53.74.05.769.41.939l-.4.911c.66.196.86.817 1.14 1.383.19-.092.35-.336.61-.144 1.04.82 1.72 1.888 2.41 2.956 1.79.931 2.2 1.642 2.9 2.498z" fill="#f08d52" fill-rule="evenodd"/></svg>