<svg preserveAspectRatio="none" width="1005" height="323" viewBox="0 0 1005 323" fill="none" xmlns="http://www.w3.org/2000/svg">
<path d="M1003.25 322.964C940.129 322.265 857.77 320.68 811.555 320.168C765.339 319.656 532.631 323.404 477.262 322.964C421.892 322.524 376.74 318.77 325.311 318.77C220.114 317.372 117.255 316.673 12.0576 319.469C7.38216 299.895 -1.96868 281.021 0.369027 261.447C0.369027 241.874 0.369027 222.999 5.04445 203.425C9.71987 188.745 9.71987 174.065 14.3953 159.385C21.4084 139.112 9.71987 119.539 14.3953 99.9651C19.0707 81.0905 23.7461 61.517 21.4084 42.6424C19.0707 28.6613 14.3953 14.6802 9.71987 0.699056C82.1889 1.39811 156.996 2.79623 229.465 2.09717C278.557 1.39811 325.311 0 374.403 0.699056C425.832 1.39811 477.262 3.49528 528.692 2.79623C582.459 2.79623 638.564 0.699056 692.331 0.699056C760.125 0 825.581 2.09717 893.374 0.699056C928.44 0.699056 965.843 1.39811 1000.91 0C1005.58 56.6236 1007.92 112.548 998.571 169.172C996.234 185.949 989.22 202.027 986.883 218.805C982.207 241.174 982.207 263.544 989.22 286.613C993.896 299.196 996.234 311.08 1003.25 322.964Z" fill="white"/>
</svg>
