<svg preserveAspectRatio="none" width="1005" height="2323" viewBox="0 0 1005 2323" fill="none" xmlns="http://www.w3.org/2000/svg">
<path d="M1003.25 2322.74C940.129 2317.71 857.77 2306.31 811.555 2302.63C765.339 2298.95 532.631 2325.9 477.262 2322.74C421.892 2319.58 376.74 2292.58 325.311 2292.58C220.114 2282.52 117.255 2277.49 12.0576 2297.6C7.38216 2156.83 -1.96868 2021.09 0.369027 1880.31C0.369027 1739.54 0.369027 1603.8 5.04445 1463.03C9.71987 1357.45 9.71987 1251.87 14.3953 1146.29C21.4084 1000.49 9.71987 859.716 14.3953 718.944C19.0707 583.199 23.7461 442.427 21.4084 306.682C19.0707 206.131 14.3953 105.579 9.71987 5.02758C82.1889 10.0552 156.996 20.1103 229.465 15.0827C278.557 10.0552 325.311 0 374.403 5.02758C425.832 10.0552 477.262 25.1379 528.692 20.1103C582.459 20.1103 638.564 5.02758 692.331 5.02758C760.125 0 825.581 15.0827 893.374 5.02758C928.44 5.02758 965.843 10.0552 1000.91 0C1005.58 407.234 1007.92 809.44 998.571 1216.67C996.234 1337.34 989.22 1452.97 986.883 1573.63C982.207 1734.52 982.207 1895.4 989.22 2061.31C993.896 2151.8 996.234 2237.27 1003.25 2322.74Z" fill="white"/>
</svg>
