<svg width="31" height="25" viewBox="0 0 31 25" fill="none" xmlns="http://www.w3.org/2000/svg">
<path d="M15.7625 22.0182C15.8077 22.6709 16.4242 23.4818 16.9315 22.6286C17.3922 22.1654 18.523 23.1984 19.7186 22.054C20.6215 21.2929 21.2639 20.4084 21.9881 19.5526C22.748 18.2788 23.3804 16.9028 23.8889 15.5044C24.0494 14.4165 24.504 13.4737 24.7566 12.4263C25.1019 11.2682 25.0697 10.1296 25.1147 8.96725C25.1955 6.88636 22.558 4.35765 22.6046 4.07706C22.6254 3.32281 22.097 1.98457 20.9926 2.90723C20.5484 3.21288 20.0882 2.5889 19.6606 2.73579C19.1164 2.83745 18.9367 2.63734 18.4699 2.59021C16.6785 2.97534 15.1008 5.22182 14.6003 6.99049C14.6978 7.6265 14.8151 8.7621 14.6566 9.69978C14.6106 10.113 14.4341 10.7407 14.6902 11.1851C14.4283 11.7562 14.569 12.2551 14.7023 12.8885C14.6804 13.6391 14.8378 14.0726 14.9689 14.5835C15.0619 14.9458 14.3894 15.0773 14.5382 15.424C14.8479 15.8286 14.9551 16.2311 14.874 16.3392C14.3519 17.0835 14.8345 17.8342 15.0991 18.765C15.3804 19.5962 14.6801 20.9731 15.5066 21.5738C15.6515 21.6741 15.7762 21.831 15.7625 22.0182Z" fill="white"/>
<path d="M19.0679 20.8174C19.3995 21.3813 19.3493 22.3987 18.4485 21.9817C17.8067 21.86 17.4578 23.3514 15.8247 23.0833C14.6497 22.9658 13.6197 22.5994 12.5386 22.3028C11.1917 21.6816 9.89221 20.9041 8.68224 20.038C7.93483 19.2314 7.02688 18.7106 6.22643 17.9894C5.28688 17.2294 4.66989 16.2719 3.97561 15.3386C2.7327 13.6677 3.47881 10.0909 3.2818 9.88572C2.83829 9.2753 2.51762 7.87273 3.95022 8.00949C4.48937 8.01054 4.51625 7.23568 4.95207 7.11509C5.45844 6.89132 5.49349 6.6247 5.85189 6.32195C7.54733 5.62696 10.1187 6.58815 11.5314 7.76421C11.8105 8.34393 12.3556 9.34701 13.0165 10.0309C13.288 10.3457 13.7884 10.7638 13.8284 11.2751C14.3673 11.5981 14.5333 12.0892 14.7813 12.687C15.2238 13.2938 15.3389 13.7404 15.5196 14.2359C15.6478 14.5874 16.2767 14.3157 16.3501 14.6858C16.3233 15.1946 16.4624 15.5872 16.5904 15.6305C17.4418 15.9493 17.4681 16.8414 17.776 17.7588C18.0138 18.6035 19.3699 19.3434 19.0277 20.3061C18.9648 20.4708 18.9507 20.6707 19.0679 20.8174Z" fill="white"/>
<path d="M15.7626 22.0181C15.8078 22.6708 16.4243 23.4817 16.9316 22.6284C17.3922 22.1653 18.5231 23.1982 19.7187 22.0539C20.6215 21.2927 21.264 20.4083 21.9882 19.5525C22.748 18.2786 23.3805 16.9027 23.8889 15.5042C24.0495 14.4164 24.5041 13.4735 24.7567 12.4262C25.102 11.268 25.0697 10.1295 25.1148 8.96711C25.1955 6.88622 22.5581 4.35751 22.6047 4.07691C22.6254 3.32267 22.0971 1.98443 20.9927 2.90709C20.5485 3.21274 20.0883 2.58876 19.6606 2.73565C19.1164 2.83731 18.9368 2.6372 18.47 2.59007C16.6786 2.9752 15.1008 5.22168 14.6004 6.99035C14.6979 7.62636 14.8152 8.76196 14.6567 9.69964C14.6107 10.1128 14.4342 10.7406 14.6903 11.185C14.4284 11.756 14.5691 12.255 14.7024 12.8883C14.6805 13.6389 14.8379 14.0724 14.969 14.5833C15.0619 14.9457 14.3895 15.0771 14.5383 15.4239C14.848 15.8284 14.9552 16.2309 14.8741 16.339C14.352 17.0833 14.8346 17.834 15.0992 18.7648C15.3805 19.5961 14.6802 20.973 15.5067 21.5736C15.6516 21.674 15.7763 21.8309 15.7626 22.0181Z" fill="#E3000B"/>
<path d="M19.0707 20.8172C19.4023 21.3812 19.3522 22.3986 18.4514 21.9815C17.8096 21.8599 17.4607 23.3512 15.8275 23.0831C14.6525 22.9656 13.6226 22.5993 12.5414 22.3027C11.1945 21.6814 9.89505 20.904 8.68508 20.0378C7.93767 19.2313 7.02972 18.7105 6.22927 17.9893C5.28972 17.2292 4.67272 16.2718 3.97844 15.3384C2.73554 13.6676 3.48164 10.0907 3.28463 9.88559C2.84112 9.27516 2.52045 7.87259 3.95306 8.00935C4.49221 8.0104 4.51909 7.23554 4.9549 7.11495C5.46128 6.89118 5.49632 6.62457 5.85473 6.32181C7.55017 5.62682 10.1216 6.58801 11.5342 7.76408C11.8133 8.34379 12.3585 9.34688 13.0193 10.0307C13.2908 10.3456 13.7913 10.7636 13.8312 11.275C14.3701 11.5979 14.5361 12.0891 14.7842 12.6869C15.2266 13.2937 15.3418 13.7402 15.5224 14.2358C15.6506 14.5872 16.2796 14.3155 16.3529 14.6857C16.3261 15.1944 16.4652 15.587 16.5932 15.6304C17.4446 15.9492 17.4709 16.8413 17.7788 17.7587C18.0167 18.6034 19.3727 19.3433 19.0305 20.306C18.9677 20.4706 18.9535 20.6706 19.0707 20.8172Z" fill="#F7A600"/>
</svg>
