<svg width="32" height="25" viewBox="0 0 32 25" fill="none" xmlns="http://www.w3.org/2000/svg">
<path d="M16.7156 22.0182C16.7609 22.6709 17.3774 23.4818 17.8847 22.6286C18.3453 22.1654 19.4761 23.1984 20.6717 22.054C21.5746 21.2929 22.2171 20.4084 22.9412 19.5526C23.7011 18.2788 24.3335 16.9028 24.842 15.5044C25.0025 14.4165 25.4571 13.4737 25.7097 12.4263C26.0551 11.2682 26.0228 10.1296 26.0679 8.96725C26.1486 6.88636 23.5112 4.35765 23.5577 4.07706C23.5785 3.32281 23.0501 1.98457 21.9457 2.90723C21.5016 3.21288 21.0414 2.5889 20.6137 2.73579C20.0695 2.83745 19.8899 2.63734 19.4231 2.59021C17.6317 2.97534 16.0539 5.22182 15.5535 6.99049C15.6509 7.6265 15.7683 8.7621 15.6097 9.69978C15.5637 10.113 15.3873 10.7407 15.6434 11.1851C15.3814 11.7562 15.5221 12.2551 15.6554 12.8885C15.6335 13.6391 15.7909 14.0726 15.922 14.5835C16.015 14.9458 15.3426 15.0773 15.4913 15.424C15.801 15.8286 15.9082 16.2311 15.8271 16.3392C15.305 17.0835 15.7876 17.8342 16.0523 18.765C16.3336 19.5962 15.6332 20.9731 16.4597 21.5738C16.6047 21.6741 16.7293 21.831 16.7156 22.0182Z" fill="white"/>
<path d="M20.021 20.8174C20.3526 21.3813 20.3024 22.3987 19.4016 21.9817C18.7599 21.86 18.411 23.3514 16.7778 23.0833C15.6028 22.9658 14.5729 22.5994 13.4917 22.3028C12.1448 21.6816 10.8453 20.9041 9.63537 20.038C8.88796 19.2314 7.98001 18.7106 7.17956 17.9894C6.24001 17.2294 5.62301 16.2719 4.92873 15.3386C3.68583 13.6677 4.43193 10.0909 4.23492 9.88572C3.79141 9.2753 3.47074 7.87273 4.90335 8.00949C5.4425 8.01054 5.46938 7.23568 5.90519 7.11509C6.41157 6.89132 6.44661 6.6247 6.80502 6.32195C8.50045 5.62696 11.0719 6.58815 12.4845 7.76421C12.7636 8.34393 13.3088 9.34701 13.9696 10.0309C14.2411 10.3457 14.7415 10.7638 14.7815 11.2751C15.3204 11.5981 15.4864 12.0892 15.7345 12.687C16.1769 13.2938 16.2921 13.7404 16.4727 14.2359C16.6009 14.5874 17.2299 14.3157 17.3032 14.6858C17.2764 15.1946 17.4155 15.5872 17.5435 15.6305C18.3949 15.9493 18.4212 16.8414 18.7291 17.7588C18.967 18.6035 20.323 19.3434 19.9808 20.3061C19.9179 20.4708 19.9038 20.6707 20.021 20.8174Z" fill="white"/>
<path d="M16.7157 22.0181C16.7609 22.6708 17.3774 23.4817 17.8848 22.6284C18.3454 22.1653 19.4762 23.1982 20.6718 22.0539C21.5747 21.2927 22.2171 20.4083 22.9413 19.5525C23.7012 18.2786 24.3336 16.9027 24.8421 15.5042C25.0026 14.4164 25.4572 13.4735 25.7098 12.4262C26.0551 11.268 26.0229 10.1295 26.0679 8.96711C26.1487 6.88622 23.5113 4.35751 23.5578 4.07691C23.5786 3.32267 23.0502 1.98443 21.9458 2.90709C21.5016 3.21274 21.0414 2.58876 20.6138 2.73565C20.0696 2.83731 19.8899 2.6372 19.4232 2.59007C17.6317 2.9752 16.054 5.22168 15.5535 6.99035C15.651 7.62636 15.7684 8.76196 15.6098 9.69964C15.5638 10.1128 15.3874 10.7406 15.6434 11.185C15.3815 11.756 15.5222 12.255 15.6555 12.8883C15.6336 13.6389 15.791 14.0724 15.9221 14.5833C16.0151 14.9457 15.3426 15.0771 15.4914 15.4239C15.8011 15.8284 15.9083 16.2309 15.8272 16.339C15.3051 17.0833 15.7877 17.834 16.0524 18.7648C16.3337 19.5961 15.6333 20.973 16.4598 21.5736C16.6048 21.674 16.7294 21.8309 16.7157 22.0181Z" fill="#E2E2E2"/>
<path d="M20.0238 20.8172C20.3554 21.3812 20.3053 22.3986 19.4045 21.9815C18.7627 21.8599 18.4138 23.3512 16.7807 23.0831C15.6057 22.9656 14.5757 22.5993 13.4946 22.3027C12.1477 21.6814 10.8482 20.904 9.63821 20.0378C8.89079 19.2313 7.98284 18.7105 7.18239 17.9893C6.24285 17.2292 5.62585 16.2718 4.93157 15.3384C3.68867 13.6676 4.43477 10.0907 4.23776 9.88559C3.79425 9.27516 3.47358 7.87259 4.90618 8.00935C5.44533 8.0104 5.47221 7.23554 5.90803 7.11495C6.4144 6.89118 6.44945 6.62457 6.80785 6.32181C8.50329 5.62682 11.0747 6.58801 12.4873 7.76408C12.7665 8.34379 13.3116 9.34688 13.9725 10.0307C14.244 10.3456 14.7444 10.7636 14.7844 11.275C15.3232 11.5979 15.4892 12.0891 15.7373 12.6869C16.1797 13.2937 16.2949 13.7402 16.4756 14.2358C16.6037 14.5872 17.2327 14.3155 17.306 14.6857C17.2793 15.1944 17.4184 15.587 17.5464 15.6304C18.3978 15.9492 18.4241 16.8413 18.7319 17.7587C18.9698 18.6034 20.3258 19.3433 19.9836 20.306C19.9208 20.4706 19.9066 20.6706 20.0238 20.8172Z" fill="#E2E2E2"/>
</svg>
