<svg fill="none" height="54" viewBox="0 0 34 54" width="34" xmlns="http://www.w3.org/2000/svg"><path clip-rule="evenodd" d="m22.1767 10.7734c-.0671-.2272-.1755-.7249-.8721-1.0871-.0716-.71625-.8512-1.45464-1.4899-1.46195-2.0649-.02364-4.3254.30218-5.5018.90247-.2432.0561-.0815.36379-.2762.46314-1.642-.0188-3.9682 1.41894-3.9682 2.35174 0 .9075 2.0847 1.633 2.5873 1.6387l6.6428.1746c1.3074.015 2.4493-.7119 2.4493-1.4497.1688-.0184.3116-.179.4288-.3366s.0671-.9682 0-1.1953z" fill="#cf0014" fill-rule="evenodd"/><path d="m15.9325 1.60528.2737.0053.1547-.2269c.17-.24929.3364-.36298.4641-.422304.1218-.056609.2236-.073417.3395-.09254.0148-.002435.0298-.004908.045-.007506 0 .00001 0 .000009.0001-.000002.0005-.000083.0049-.000744.0139-.001612.0099-.000945.0229-.001915.0392-.002741.033-.001663.0743-.002491.1224-.002106.0964.000771.2097.006326.3206.016779.1127.010626.2114.02526.2824.041458.0113.002569.0209.004959.0289.0071.0379.038421.0641.069159.0809.093934.0007.00102.0013.002.002.00293l-.0041.40286.4401.05261c.1097.01312.3318.14531.5213.56295.1768.38978.269.92382.1964 1.48245l-.9613 6.57136-.0001-.0001-.0009.0074c-.0064.0482-.0529.2097-.1634.4563-.1039.2317-.246.4981-.4101.7446-.1667.2503-.3418.4585-.5061.5928-.1715.1403-.2648.1478-.2932.1444-.0422-.005-.1838-.0621-.3952-.3084-.1961-.2284-.397-.5561-.5721-.9451-.355-.78871-.556-1.72003-.4654-2.41074l.016-.12154-.0422-.11449c-.0713-.19371-.2088-.30825-.3337-.37173-.0471-.02394-.0915-.04037-.1264-.05173-.1825-.54604-.2958-1.32819-.3302-2.23543-.0361-.95207.0156-2.00668.1465-3.00428.0188-.14361.144-.36742.3926-.56918.2436-.1978.5169-.30081.7241-.2968zm2.1162-.675372c.0046.00179.0037.001814-.0012-.000451zm.0605.103212c0-.00001-.0003-.0006-.0008-.00176.0006.00119.0009.00177.0008.00176zm-3.2383 6.64064c0-.00001.0008.00026.0022.00081z" stroke="#cf0014"/><g stroke="#f4ad17" stroke-linecap="round" stroke-width="2"><path d="m9.07719 36.7212c0 .7599-.37647 5.3241.46434 5.3706.53997.0299 1.09497.1852 1.66647.1852h1.4446c.6209 0 1.2915-.0224 1.8987-.1389.3828-.0734.6552-.1213.6552-.6019 0-1.542.2414-3.2459-.098-4.7687-.1173-.5264-.6815-.6223-1.1299-.6739-.7171-.0825-1.4158-.1131-2.136-.1131-.8456 0-1.6473.0926-2.48681.0926"/><path d="m10.9335 35.9802c-.2405 1.2182-.6489 2.5009-.6489 3.7424 0 .7523 0-1.5046 0-2.2569 0-.5087.0616-1.2626-.0206-.2204-.0544.6887-.1648 1.4057-.1648 2.094 0 .2671-.0745.6465.0051.9056.0957.3117.5805.2204.8344.2204.6065 0 1.1871-.1725 1.8026-.1725 1.2665 0 1.5297-1.625 1.5297-2.5684 0-.3403.0166-1.0104-.3245-1.2219-.7305-.4531-1.8603-.3498-2.6885-.3498-.261 0-.5389-.0593-.7365.1246-.6288.585-.69393.9519-.58716 1.8017.08746.6958.43896 1.4306.71586 2.0749.0253.0587.1005-.0855.1494-.1294.2534-.2278.539-.4172.8035-.6325.293-.2386.5883-.5735.7519-.9057.1246-.2529.066-1.105.1031-.829.0863.6424.4488 1.2662.5511 1.9215.0132.0851-.0255.844.1699.5894.2303-.2999.2692-.6746.3914-1.0158.0938-.2617.2338.3665.2576.4312.0821.2233.1572.6332.3038.8242.1873.244.1259-.588.1906-.8817.1383-.6269.067-1.5908-.2369-2.1563-.481-.895-1.6034.38-2.0705.7571-.1906.1539-.6991.4382-.7107.7188-.011.2645 0 .3086 0-.0527 0-.0282-.0551-1.8051.1545-1.7873.274.0231.7134.9238.8601 1.1164.1928.2533.395.4376.6335.6373.4681.392.29-.8275.2781-.9775-.0145-.1836-.0618-.3812-.0618-.5654 0-.2632.0879.52.1236.7811.0075.0545.1442.9757.1442.5606 0-.3043-.0558-.9117 0-.2108.047.59.0927 1.1811.0927 1.7729"/><path d="m19.8591 36.7212c0 .7599-.3227 5.3241.398 5.3706.4629.0299.9386.1852 1.4284.1852h1.2383c.5322 0 1.1069-.0224 1.6274-.1389.3282-.0734.5616-.1213.5616-.6019 0-1.542.2069-3.2459-.084-4.7687-.1006-.5264-.5841-.6223-.9685-.6739-.6146-.0825-1.2135-.1131-1.8308-.1131-.7248 0-1.412.0926-2.1316.0926"/><path d="m21.5193 35.9802c-.1924 1.2182-.5192 2.5009-.5192 3.7424 0 .7523 0-1.5046 0-2.2569 0-.5087.0493-1.2626-.0165-.2204-.0434.6887-.1318 1.4057-.1318 2.094 0 .2671-.0596.6465.0041.9056.0766.3117.4644.2204.6675.2204.4852 0 .9497-.1725 1.4421-.1725 1.0132 0 1.2238-1.625 1.2238-2.5684 0-.3403.0132-1.0104-.2596-1.2219-.5845-.4531-1.4883-.3498-2.1508-.3498-.2088 0-.4311-.0593-.5892.1246-.5031.585-.5552.9519-.4698 1.8017.07.6958.3512 1.4306.5728 2.0749.0202.0587.0803-.0855.1194-.1294.2028-.2278.4312-.4172.6428-.6325.2344-.2386.4707-.5735.6016-.9057.0997-.2529.0527-1.105.0824-.829.0691.6424.3591 1.2662.4409 1.9215.0106.0851-.0204.844.136.5894.1842-.2999.2153-.6746.3131-1.0158.075-.2617.187.3665.206.4312.0657.2233.1258.6332.2431.8242.1498.244.1007-.588.1525-.8817.1106-.6269.0535-1.5908-.1896-2.1563-.3848-.895-1.2827.38-1.6563.7571-.1525.1539-.5594.4382-.5687.7188-.0087.2645 0 .3086 0-.0527 0-.0282-.044-1.8051.1237-1.7873.2192.0231.5707.9238.6881 1.1164.1542.2533.316.4376.5068.6373.3744.392.2319-.8275.2225-.9775-.0116-.1836-.0495-.3812-.0495-.5654 0-.2632.0703.52.0989.7811.006.0545.1154.9757.1154.5606 0-.3043-.0447-.9117 0-.2108.0376.59.0741 1.1811.0741 1.7729"/></g><rect height="39.4778" rx="1.5" stroke="#cf0014" width="31.3823" x="1.39746" y="13.0928"/><path d="m31.8975 13 .474 36.9744c.0143 1.1145-.8852 2.0256-1.9998 2.0256h-28.47424" stroke="#cf0014"/><rect height="31.3823" rx="1.5" stroke="#f4ad17" width="24.1862" x="4.99512" y="17.4902"/><path d="m28.6813 18v28.5c0 1.1046-.8954 2-2 2h-21.28384" stroke="#f4ad17"/><path clip-rule="evenodd" d="m13.9206 21.4367c-.1859.1053-.601.3021-.7771.9879-.6146.209-1.1043 1.0444-.9804 1.6071.4004 1.8187 1.1478 3.7381 1.9151 4.649.0989.2023.3362-.0026.4632.1482.3184 1.4463 2.0559 3.1966 2.8754 3.0063.7972-.1851 1.0092-2.1645.9118-2.6072l-1.2017-5.8711c-.2535-1.1516-1.1249-2.0065-1.7731-1.856-.0506-.1445-.2208-.2372-.3832-.308-.1623-.0708-.8642.1385-1.05.2438z" fill="#cf0014" fill-rule="evenodd"/><path clip-rule="evenodd" d="m21.1127 21.7554c-.2105-.0368-.6561-.1485-1.2277.2694-.6075-.2289-1.5163.1053-1.778.6186-.846 1.659-1.4879 3.6161-1.4739 4.8071-.0521.219.2613.2115.2636.4086-.6727 1.3193-.4424 3.7748.3114 4.1483.7333.3634 2.1544-1.0307 2.3603-1.4346l2.8011-5.2979c.5357-1.0504.4056-2.2642-.1906-2.5596.0526-.1438-.0199-.3235-.1003-.4813s-.7555-.4419-.9659-.4786z" fill="#cf0014" fill-rule="evenodd"/></svg>