<svg fill="none" height="55" viewBox="0 0 40 55" width="40" xmlns="http://www.w3.org/2000/svg"><g stroke="#f4ad17" stroke-linecap="round" stroke-linejoin="round"><path d="m33.5015 10.1045c0 4.0339.8555 7.9686 2.4468 11.2558l.0843.1737c1.6466 3.4006 2.5313 7.4711 2.5312 11.6454v15.3791c0 1.3159-.3556 2.578-.9885 3.5085s-1.4913 1.4533-2.3864 1.4533h-10.1246c-.8951 0-1.7535-.5228-2.3864-1.4533s-.9884-2.1926-.9884-3.5085v-15.3816c0-4.1729.8842-8.2416 2.5311-11.6429l.0844-.1737c1.5915-3.2868 2.4468-7.2212 2.4467-11.2558"/><path d="m34.4059 10.1045c0 4.0339.8555 7.9686 2.4468 11.2558l.0844.1737c1.6465 3.4006 2.5313 7.4711 2.5311 11.6454v15.3791c0 1.3159-.3556 2.578-.9885 3.5085s-1.4913 1.4533-2.3864 1.4533h-10.1245"/><path d="m15.4515 3.36694c0 4.69474 1.0542 9.27396 3.0148 13.09966l.104.2021c2.0288 3.9576 3.1189 8.6949 3.1187 13.5529v17.8983c0 1.5315-.4381 3.0003-1.2179 4.0833-.7799 1.0829-1.8375 1.6913-2.9404 1.6913h-12.47493c-1.10285 0-2.16053-.6084-2.94037-1.6913-.77983-1.083-1.217938-2.5518-1.217938-4.0833l-.000001-17.9012c0-4.8564 1.089479-9.5915 3.118729-13.55l.10396-.2021c1.961-3.8253 3.01479-8.4041 3.01478-13.09966"/><path d="m16.3558 3.36694c0 4.69474 1.0541 9.27396 3.0147 13.09966l.104.2021c2.0288 3.9576 3.1189 8.6949 3.1187 13.5529v17.8983c0 1.5315-.4381 3.0003-1.2179 4.0833-.7799 1.0829-1.8375 1.6913-2.9404 1.6913h-12.47494"/></g><path d="m31.5654 20.4848c2.7828 1.1802 3.3243 10.7937 3.4117 14.624l.8732-.0663c.2087-.7363.4925-3.2833-.0417-7.5817-.6679-5.3729-2.4541-7.025-3.3882-7.427-.7473-.3215-1.4515.1095-.855.451z" fill="#f4ad17"/><path d="m14.1415 17.8571c2.7829 1.1801 3.3243 10.7926 3.4118 14.6225l.8732-.0663c.2087-.7362.4925-3.283-.0418-7.5809-.6678-5.3723-2.4541-7.0243-3.3881-7.4262-.7473-.3215-1.4516.1094-.8551.4509z" fill="#f4ad17"/><path d="m5.99882 3.48374c-.6835.14863-.54154-.71548-.28399-1.04031.384-.23244.64047-.38539.88502-.84124.3129-.44107.6547-.18368 1.08359-.44947.49926-.291217 1.03171-.645042 1.54559-.777762.76028-.062829 1.66877-.165848 2.42967-.193248.9691-.012614 1.8967-.050775 2.8665.027343 1.6122-.013334 2.2098.57119 2.8044 1.625517.305.44941.2941 1.07753.1236 1.57499-.2819.36016-.3871.56711.0026.94398.1258.20308-.3432 1.08061-.5443 1.18311-.6648.33892-1.4161.52948-2.1567.53365-.5984-.01026-1.2069-.03995-1.7686-.26751-.5278-.19113-1.0931-.08189-1.6403-.09788-.5751-.02533-1.2268.10386-1.64824-.39007-.37662-.28107-.9683-.04033-1.26414-.4882-.31803-.17062-.82624.03145-1.13657-.46931-.4876-.19518-.77279-.06295-1.05175-.57033-.04367-.14477-.11206-.33247-.24638-.30326z" fill="#cf0014"/><path d="m25.0296 8.52674c-.6878.12724-.519-.73202-.2514-1.04866.391-.22035.6521-.36523.9108-.81323.3265-.43109.6601-.16317 1.0971-.41546.5081-.2755 1.0513-.61255 1.5691-.72918.7618-.03909 1.6731-.11372 2.4344-.11738.9691.01762 1.8975.00841 2.8643.11673 1.6118.03695 2.191.63983 2.7524 1.71219.2908.4587.2603 1.08618.0744 1.57807-.293.3512-.4046.55477-.0269.94361.1195.2069-.3767 1.06937-.5809 1.16557-.6751.318-1.4319.485-2.1723.4661-.5978-.0289-1.2051-.0776-1.7594-.3225-.5216-.2075-1.09-.116-1.6364-.149-.5741-.0433-1.2295.0655-1.6353-.4413-.3677-.2927-.9666-.0705-1.2483-.52738-.3126-.18045-.8268.00566-1.1214-.50452-.4813-.2103-.7704-.08703-1.0334-.60286-.0392-.14607-.1017-.33581-.2368-.3108z" fill="#cf0014"/></svg>