<svg fill="none" height="57" viewBox="0 0 44 57" width="44" xmlns="http://www.w3.org/2000/svg"><path d="m7.56934 11.6843c1.79228.4466 6.45226 1.0719 10.75366 0-.1194 1.0124-.1075 3.4301.8962 5.0021 1.0037 1.5721 2.226 5.181 2.7039 6.4911" stroke="#f4ad17" stroke-width="2"/><path d="m21.9238 24.2032 1.0257-3.5899 1.0257 3.5899z" stroke="#fdecb2"/><g stroke="#f4ad17"><path d="m9.55291 33.6283c-2.21249-.6192-4.61892-.0549-6.87881-.7108 0 3.0747-.17892 6.5947-.17892 9.6397 0 .6713-.24879 1.9544.03976 2.5511.2912.6022 1.28757.6037 1.83899.6037h3.84696c1.25927 0 2.10681-2.2651 2.14711-3.2911.0573-1.4585.179-2.9312.179-4.4207 0-.9308.2181-4.0327-.99409-4.3719z" fill="#f4ad17" stroke-linecap="round" stroke-width="3"/><path d="m19.1407 16.5781c-.5968-1.1937-1.3429-6.71482-1.3429-6.71482h-10.7439c-.14922 1.19372-.80579 4.20802-2.23829 6.71482-1.79063 3.1337-3.58126 7.1626-3.58126 11.1915v23.7259c-.14922 1.3429 1.79063 4.1184 10.74375 4.4765 2.2357 0 7.796-.7459 9.9447-2.5366"/><path d="m24.5158 16.5781c1.4325-2.5068 2.0891-5.5211 2.2383-6.71482h10.7439s.7461 5.52112 1.3429 6.71482c2.865 4.6557 3.5813 10.5946 3.5813 12.9821v21.9353c.1492 1.6414-1.7907 4.8347-10.7439 4.4765-8.9531-.3581-10.893-3.1336-10.7438-4.4765v-23.7259c0-4.0289 1.7907-8.0578 3.5813-11.1915z"/><path d="m20.8969 51.4955c-.1493 1.3429 2.8523 4.1184 11.8054 4.4765 8.9532.3582 10.8931-2.8351 10.7439-4.4765v-21.9353c0-2.3875-.7163-8.3264-3.5813-12.9821-.5969-1.1937-1.3429-6.71482-1.3429-6.71482"/></g><path d="m33.2793 24.0647c3.7563 2.2094 3.2808 15.8166 2.9112 21.2126l1.2348.0801c.3877-.9925 1.1137-4.5129.916-10.6548-.2471-7.6775-2.5432-10.3518-3.8033-11.1015-1.008-.5998-2.0525-.1343-1.2587.4636z" fill="#f4ad17"/><path d="m24.1944 10.213c-.5913.1576-1.3045.7934-.5099 1.0325.4384.2752-.457 1.3566.6284 2.0819.726.567 1.5541.9064 2.3593 1.3153 1.1863.3588 2.4606.5984 3.7506.7364.9945-.0772 1.8685.1037 2.8297.1063 1.0654.0548 2.0987-.1834 3.1565-.3652 1.8937-.3256 4.0905-2.87 4.3472-2.8859.6861-.1247 1.8818-.7899 1.0014-1.485-.2947-.2918.2547-.7699.1049-1.07839-.1131-.40849.0618-.587.0868-.9625-.4182-1.33525-2.5195-2.15475-4.1456-2.21726-.5741.19542-1.6014.49988-2.4594.55059-.3772.04113-.9542.01984-1.3482.30408-.5289-.09904-.9768.10478-1.5472.32788-.6828.12306-1.0706.32777-1.5298.52623-.3257.14077-.4708-.36289-.7802-.18122-.3557.31889-.7173.47833-.8186.43484-.6962-.27099-1.3598.24843-2.1954.63031-.7445.37634-2.0223.08356-2.5365.84509-.0856.13265-.2234.25985-.394.28405z" fill="#cf0014"/><path d="m40.4625 9.32413c.5852-.08961 1.2286-.60325.3788-.89285-.489-.29022.2789-1.1926-.9378-1.95096-.8254-.58167-1.7237-.9656-2.6083-1.41069-1.269-.43414-2.6116-.76785-3.9561-1.01057-1.0108-.0201-1.934-.26398-2.9218-.35371-1.1021-.14663-2.1301-.02382-3.1911.04552-1.8996.12414-3.799 2.2392-4.0605 2.23034-.6873.05109-1.8221.54757-.8201 1.25986.3436.29217-.1535.67721.0436.97144.1736.38186.0189.52835.046.86765.6172 1.25264 2.8907 2.18894 4.5699 2.39344.5623-.1256 1.5748-.3092 2.4491-.2774.3816-.0032.9774.0686 1.3422-.1542.5572.1382.9887-.0066 1.5433-.1577.6841-.0499 1.0538-.2009 1.4976-.3397.3148-.0985.5345.3728.8268.2357.3207-.2578.6697-.37.7799-.3212.7532.3097 1.362-.1025 2.1667-.374.712-.27471 2.0656.1077 2.4869-.53835.0693-.11285.193-.21611.3649-.22262z" fill="#cf0014"/><path d="m20.6651 12.6669c.6074-.0741 1.4019-.605.6481-.9518-.396-.3334.6406-1.2803-.3338-2.14899-.6404-.66209-1.4135-1.11298-2.1542-1.62952-1.1252-.51977-2.354-.93368-3.6124-1.24916-.9956-.06137-1.8361-.3616-2.7877-.49746-1.0475-.20195-2.1038-.10927-3.17658-.07578-1.92055.05994-4.44884 2.27539-4.70529 2.25555-.69673.02837-1.97309.52141-1.19749 1.33185.25137.32981-.35896.72721-.25338 1.05341.05543.4203-.14258.5728-.21939.9412.22919 1.3804 2.19661 2.4832 3.79831 2.7705.59568-.114 1.65525-.2732 2.51199-.2045.37922.0116.94773.1126 1.37733-.1142.51.1713.9819.0316 1.5777-.1103.6933-.0273 1.1058-.1762 1.588-.3092.3421-.0942.4159.4247.7475.2876.3965-.2665.7767-.3742.871-.3171.6519.3648 1.3812-.0576 2.2616-.32.7895-.2695 2.0143.1975 2.6291-.4854.1031-.1194.2573-.2264.4296-.2267z" fill="#cf0014"/><path d="m3.7216 11.6454c-.60739.074-1.40185.6049-.64806.9518.39599.3333-.64059 1.2802.33376 2.1489.64042.6621 1.41349 1.113 2.15425 1.6296 1.12519.5197 2.35393.9336 3.61234 1.2491.99561.0614 1.83611.3616 2.78771.4975 1.0475.2019 2.1038.1093 3.1766.0758 1.9205-.06 4.4488-2.2754 4.7053-2.2556.6967-.0284 1.9731-.5214 1.1975-1.3318-.2514-.3298.3589-.7272.2534-1.0535-.0555-.4202.1425-.5728.2193-.9412-.2291-1.3803-2.1966-2.4831-3.7983-2.7704-.5956.11397-1.6552.2731-2.5119.2044-.3793-.0115-.9478-.11259-1.3774.1143-.51-.17138-.9819-.0316-1.5777.1103-.6933.0272-1.1057.1762-1.588.3091-.342.0943-.4159-.4246-.7475-.2876-.39648.2665-.77669.3743-.871.3172-.65189-.3649-1.38114.0576-2.2616.3199-.78948.2696-2.01429-.1975-2.62906.4854-.10317.1195-.25731.2264-.42964.2268z" fill="#cf0014"/></svg>