<svg fill="none" height="66" viewBox="0 0 62 66" width="62" xmlns="http://www.w3.org/2000/svg"><path d="m33.7365 33.2505c-.6615.4014-.824-.5536-.6714-.986.318-.3814.5313-.6336.6231-1.1985.1686-.5739.6187-.4277.9717-.8601.4175-.4842.8471-1.0459 1.3369-1.3697.7727-.3393 1.686-.774 2.4721-1.0764 1.0092-.3619 1.9658-.7356 3.0083-1.0028 1.6817-.5941 2.5172-.1977 3.5186.6912.4807.3604.6953 1.0214.6959 1.6031-.1652.4782-.2008.7325.3424.9865.2048.1672.0299 1.2539-.1436 1.4335-.5735.5937-1.2908 1.0634-2.064 1.3343-.6297.2045-1.2769.3924-1.9464.3565-.6209-.01-1.1729.3077-1.751.4879-.6107.1804-1.2459.55-1.8645.185-.4951-.1585-1.0274.3062-1.4981-.0558-.394-.064-.8529.3302-1.3578-.082-.5802-.0287-.831.2123-1.3054-.2181-.0977-.1357-.2368-.3075-.3668-.2286z" fill="#cf0014"/><path d="m30.5417 35.5235c-.5675-.526.3062-.9442.7639-.9162.454.2012.7551.337 1.3235.2703.5982.0046.581.4776 1.0937.6984.5802.2686 1.2383.5276 1.684.9098.5383.6499 1.2069 1.4089 1.7134 2.0818.6249.8711 1.2468 1.6885 1.7898 2.6177 1.0327 1.4541.8808 2.3663.3008 3.5732-.2146.5611-.7914.9489-1.3506 1.1091-.5051-.0277-.7595.0078-.8547.5999-.1046.2428-1.1976.3728-1.4178.2553-.7284-.3886-1.3769-.9495-1.8495-1.6187-.3695-.5494-.7278-1.1202-.8769-1.7738-.1608-.5998-.6177-1.0435-.9496-1.55-.3411-.5377-.8709-1.0472-.6896-1.7422.0166-.5196-.5764-.9039-.3574-1.4558-.0465-.3965-.5516-.7297-.2937-1.3282-.1316-.5659-.4321-.7409-.1485-1.3152.1037-.1312.2307-.3121.1192-.4154z" fill="#cf0014"/><path d="m31.4385 35.3051c9.1121-1.6706 16.0234 14.1934 18.3401 22.3343l2.5096 2.6131c.2419-1.9068-.2565-7.8389-4.1852-16.3134-4.911-10.593-11.2386-11.4529-14.3002-10.9046-2.4493.4386-2.5967 1.6965-2.3643 2.2706z" fill="#f4ad17" stroke="#f4ad17"/><g fill="#cf0014"><path d="m24.1367 11.3333c6.208 1.5891 9.1643 6.6773 9.8665 9.0227l.523-.2909c-1.0341-5.0923-5.5582-8.227-7.691-9.1579-7.5941-3.00689-11.521-.4807-15.643 1.9586-4.1221 2.4393-5.66094 8.816-5.7144 11.0932-.05345 2.2772.91076 6.822 3.40258 10.4194s6.13722 4.6967 9.69122 5.4559c2.8432.6073 6.2717-.3941 7.6306-.9708l-.4984-.8954c-3.7277 2.2688-13.8291.5588-17.33911-7.5046-3.50999-8.0633.32104-12.3439 1.91481-14.403 1.5938-2.059 6.0973-6.7136 13.8572-4.7272z"/><path d="m25.9983 37.5921c-5.8924 2.5262-11.344.3001-13.3332-1.1288l-.237.5492c3.9301 3.4011 9.4315 3.1251 11.691 2.5619 7.8573-2.2487 9.4277-6.6424 11.206-11.0864 1.7782-4.4439-.8966-10.4304-2.2451-12.2658-1.3484-1.8354-4.8887-4.8458-9.0616-6.1749-4.1728-1.32906-7.7343.0229-11.0158 1.5883-2.6251 1.2523-4.73161 4.1352-5.45673 5.42l.94201.4051c1.56972-4.0686 10.62282-8.87245 18.33052-4.6283 7.7078 4.2441 7.2849 9.9683 7.2789 12.57-.0059 2.6017-.7335 9.032-8.099 12.1897z"/><path d="m26.667 37.2283c-5.891 2.5297-11.3768 1.2176-13.3833-.2547l-.2334.5581c3.9687 3.4983 9.4851 2.2596 11.7471 1.703 7.8642-2.2315 9.4053-6.699 11.1544-11.2161 1.7491-4.517-.9805-10.6415-2.3474-12.5233-1.367-1.8818-4.9417-4.9786-9.1378-6.36617-4.196-1.38758-7.7581-.03691-11.0375 1.53357-2.6235 1.2564-5.43149 5.4836-5.43149 5.4836l.94807.4203c1.54282-4.1359 10.58662-8.9633 18.35132-4.5762 7.7646 4.3872 7.385 10.2202 7.3993 12.8727.0142 2.6525-.6655 9.203-8.0293 12.3652z"/></g><path d="m12.8294 20.0799c1.2863-4.407 9.8482-3.9392 13.9683-3.1544l1.7152-.5302c-.7906-.5313-3.5283-1.63-8.1546-1.775-5.7829-.1813-7.5707 2.4297-8.0087 3.9075-.3504 1.1823.1739 1.5274.4798 1.5521z" fill="#f4ad17"/></svg>