<svg fill="none" height="330" viewBox="0 0 311 330" width="311" xmlns="http://www.w3.org/2000/svg"><circle cx="155.5" cy="165.5" fill="#fdecb2" r="155.5"/><g clip-rule="evenodd" fill-rule="evenodd"><path d="m309.762 149.56c.131-2.504.197-5.024.197-7.56 0-78.4247-63.575-142.00024414-142-142.00024414-30.968 0-59.622 9.91369414-82.959 26.74064414 22.334-13.8022 48.494-21.74064 76.459-21.74064 79.421 0 144.28 64.02704 148.303 144.56024z" fill="#43856a"/><path d="m1.19731 180c-.13131 2.503-.197811 5.024-.197811 7.56.000007 78.424 63.575601 142 142.000501 142 30.968 0 59.622-9.914 82.959-26.741-22.334 13.802-48.494 21.741-76.459 21.741-79.4215 0-144.28043-64.027-148.30269-144.56z" fill="#cf000c"/></g></svg>