<svg fill="none" height="244" viewBox="0 0 247 244" width="247" xmlns="http://www.w3.org/2000/svg"><path d="m125.653.753238c-39.8038.000001-78.8612 16.499862-103.0468 49.050462-1.8963 2.546-3.6798 5.1724-5.3504 7.8755-21.59781 34.9504-23.10827 81.5898-3.4759 117.6908 16.8554 30.995 47.7235 53.072 81.5106 62.935 23.4795 6.849 49.0155 8.12 72.2545.49 21.46-7.043 40.193-21.475 53.817-39.542 23.177-30.735 31.366-72.334 21.579-109.6004-4.921-18.7355-14.34-36.1961-26.955-50.8367-12.106-14.0598-28.51-27.9078-46.293-33.75596-.87-.28857-1.733-.59541-2.599-.8986-15.607-5.43908-30.42-4.303049-46.548-3.408102" fill="#fff"/><g fill="#e3000b"><path d="m29.6907 130.379c.5996-.056 1.0847-.369 1.4553-.911.3434-.511.6296-1.168.8285-1.888.1704-.688.2862-1.422.3421-2.166l.0286-1.888c1.3422-.343 2.7144-.714 4.0852-1.144l.2848 2c.1131.856.3135 1.654.5696 2.454.2303.8.571 1.46.9989 1.999.4292.548.9988.8 1.7142.716.541-.056.9688-.315 1.255-.716.2862-.426.4851-.91.6296-1.478.1131-.577.1989-1.168.1989-1.776l-.0858-1.569c-.1431-1.46-.3993-2.882-.7441-4.313-.3134-1.423-.7126-2.826-1.1119-4.193l-.541-1.968-.744-2.258c-.2561-.771-.5709-1.544-.9402-2.259-.3434-.743-.7713-1.391-1.2577-1.943-.4579-.567-.9989-.994-1.5712-1.31-.5996-.316-1.2564-.428-1.999-.345-.7713.085-1.4267.401-1.9977.89-.5723.511-1.0574 1.108-1.4853 1.881-.3992.744-.744 1.567-1.0288 2.488-.2834.91-.5137 1.849-.6827 2.769-.2003.939-.3434 1.823-.4292 2.678l-.2276 2.259-.2275 3.653c-.03 1.227.0286 2.457.1703 3.681l.1717 1.377c.1144.54.2276 1.058.4279 1.569.2003.512.4578.939.7712 1.282.2848.349.6854.485 1.1419.429zm2.5128-12.704.0272-1.338.1145-1.6c.03-.548.1158-1.059.1989-1.514.0859-.455.199-.824.3434-1.143.1418-.316.3134-.482.4851-.512.372-.028.6555.167.913.597.2576.457.4851.978.6268 1.545.1717.601.3162 1.168.3993 1.775l.1717 1.283.1131.937c-1.0847.344-2.2266.632-3.3971.855v-.881zm1.999-14.306c.1445 0 .2862-.086.3993-.198.1131-.121.1717-.233.1444-.426-.03-.315-.2003-.691-.4851-1.115-.3134-.427-.6582-.827-1.0574-1.199-.3993-.372-.8272-.6884-1.2564-.9215-.3993-.2534-.7685-.3706-1.0547-.3338-.2848.0286-.5437.1962-.7127.4551-.1989.2794-.2575.5672-.2303.9112.03.232.1131.456.2576.657.1417.222.3407.402.541.567.1989.205.4292.345.6568.482l.5995.345 1.0575.511c.3992.236.7685.292 1.1405.265z"/><path d="m55.4781 128.188c.571-.056 1.1705-.259 1.7987-.604.5996-.343 1.1406-.771 1.627-1.31.4579-.511.8299-1.115 1.1147-1.803.2834-.652.3693-1.367.2834-2.111-.0286-.482-.2275-.91-.5682-1.282-.3134-.344-.7154-.521-1.1991-.455-.3993.056-.7154.223-1.0016.539l-.7413.912-.7413.882c-.2575.257-.5437.4-.8857.434-.3161.056-.5996-.09-.8571-.369-.2276-.288-.4265-.66-.5996-1.059-.1717-.426-.2848-.856-.372-1.338l-.1989-1.168c-.0287-.399-.0286-.947.0286-1.625.0572-.689.1717-1.377.3161-2.036.1704-.652.3693-1.255.5996-1.735.2562-.512.541-.771.8857-.8.2276-.028.3993.029.5137.2.1131.168.2276.401.2848.679l.1131.948.0859.427.0858.372c.3693.826.9403 1.171 1.6829 1.078.5151-.056.943-.252 1.2564-.623.3434-.372.5709-.827.6854-1.348l.0586-.369-.03-.335v-.315l-.0286-.313c-.0858-.716-.2562-1.434-.5123-2.138-.2862-.713-.6282-1.375-1.0575-1.913-.4265-.578-.913-.977-1.5125-1.28-.5996-.316-1.285-.437-2.0263-.345-1.2291.141-2.2566.623-3.0565 1.449-.7985.826-1.4294 1.833-1.8559 3.002-.4579 1.17-.7413 2.398-.8571 3.736-.1417 1.321-.1417 2.52-.0286 3.598.1131.979.3134 1.97.6268 3.003.3162 1.031.744 1.97 1.285 2.825.5437.855 1.2291 1.515 2.029 2.026.7985.47 1.7101.676 2.7689.564z"/><path d="m66.7845 121.752c-.2575-.306-.5137-.706-.7127-1.199-.2003-.482-.3992-1.022-.5437-1.623-.1716-.597-.2561-1.17-.3134-1.683-.0586-.399-.0858-.88-.0586-1.458l.1717-1.6c.0859-.511.2276-.937.3993-1.31.1989-.37.4265-.567.7127-.633.2861-.028.5709.122.8298.401.2562.315.4851.715.6854 1.17l.5138 1.568.3134 1.571.0858 1.691c0 .595-.0286 1.135-.1131 1.655-.0858.511-.2003.938-.3992 1.281-.1717.37-.4293.54-.7441.603-.2848.035-.5709-.114-.8271-.434zm1.0002 5.208c1.0847-.121 1.9704-.52 2.6844-1.199.7127-.659 1.2564-1.488 1.657-2.491.3993-.967.6855-2.055.7986-3.254.1417-1.199.1703-2.369.1144-3.544-.0586-1.023-.2575-2.135-.5723-3.279-.3407-1.146-.7713-2.179-1.3708-3.113-.5696-.912-1.285-1.683-2.1122-2.26-.8571-.566-1.7987-.798-2.8847-.678-1.1433.141-2.0835.568-2.8275 1.282-.7413.744-1.3123 1.624-1.7401 2.687-.3993 1.051-.6855 2.223-.7999 3.478-.1131 1.264-.1131 2.435.0286 3.6.1145 1.087.372 2.145.744 3.235.3693 1.078.8544 2.055 1.4853 2.909.5996.856 1.3122 1.544 2.1121 2.025.7972.507 1.6829.687 2.6831.602z"/><path d="m76.9803 125.298c.3693-.029.6555-.168.8858-.372.2275-.195.4265-.427.5695-.706.1717-.316.2848-.634.3707-1.004l.1145-1.144.0572-1.226-.0572-1.199-.2004-1.887-.1717-1.479-.2003-1.432.1159-.91.3134-1.255.4851-1.144c.1703-.347.3693-.524.541-.524.2575-.029.4578.028.6268.177.1717.168.3161.371.4292.623l.2276.868.1131.823.1131 1.97-.0286 1.971v1.967c0 .653.0286 1.311.1131 1.934l.1444 1.034.3407 1.28c.1444.428.3434.8.5709 1.116.2276.312.5138.455.8272.399.5137-.056.9429-.343 1.2849-.856.3434-.511.6296-1.17.8299-1.97.199-.769.3693-1.654.4824-2.603.1158-.937.1717-1.846.2003-2.732l.03-2.435-.1131-1.656-.3434-2.454c-.1717-.881-.4265-1.71-.7713-2.481-.342-.769-.8271-1.377-1.4553-1.832-.5996-.482-1.3981-.659-2.3983-.539-.5164.056-1.0015.166-1.3708.343-.3993.168-.7427.402-1.0574.653-.3134.233-.571.52-.7986.826-.2575.313-.4278.633-.5995.945l-.3448-.798-.5123-.856c-.2003-.289-.3993-.492-.6555-.659-.2303-.168-.4851-.234-.744-.234-.5996.093-1.0274.373-1.3122.869-.2576.482-.4279 1.05-.4851 1.71-.0573.622-.0573 1.311 0 1.967l.1717 1.659.3134 2.398.3134 2.425.1717 1.513.1131 1.059.1717 1.448.342 1.626c.1131.548.2848 1.003.4851 1.432.199.427.4579.771.7427 1.032.2929.264.6363.385 1.0083.32z"/><path d="m89.6287 123.847c.7985-.122 1.5711-.4 2.3424-.89.7712-.511 1.4553-1.134 2.0262-1.881.571-.767 1.0288-1.598 1.3436-2.519.3407-.938.4265-1.847.3407-2.769-.0859-.623-.199-1.134-.4265-1.534-.2276-.434-.4579-.769-.744-1.032-.2835-.289-.5696-.54-.883-.744l-.8858-.596c-.2575-.204-.4851-.436-.6854-.69-.2003-.258-.3134-.601-.372-1.001-.0858-.71.0572-1.282.3993-1.711.3406-.399.7126-.77 1.1405-1.09.4579-.314.8299-.652 1.2019-.994.342-.344.4551-.827.3992-1.459-.0572-.427-.1444-.744-.3433-.993-.1717-.259-.3721-.468-.6269-.577-.2575-.141-.5437-.222-.8298-.259h-.9403c-.8271.093-1.5711.344-2.2852.744-.7126.427-1.3122.976-1.8259 1.599-.4851.659-.8857 1.403-1.1433 2.23-.2276.828-.3134 1.715-.2003 2.634.0858.769.3134 1.423.7127 2.027.372.595.7998 1.143 1.2577 1.655l1.2264 1.422c.372.466.5996.921.6295 1.345.0559.482.0001.858-.2003 1.146-.1716.278-.4292.539-.7426.744-.3134.196-.6268.369-.9988.511-.372.14-.7141.344-1.0275.568-.3161.231-.5437.545-.7154.888-.1703.372-.2562.856-.1703 1.45.0559.427.1703.771.3693 1.032.1989.223.4578.426.7426.539.2576.146.571.202.913.233z"/><path d="m100.366 109.708c.057-.455.171-.881.316-1.255.17-.4.369-.769.627-1.032.286-.279.626-.455 1.057-.511.286-.029.514.112.685.399.171.289.257.567.314.856.028.371-.057.716-.258 1.032-.227.316-.485.567-.798.8-.314.223-.658.399-1.028.566l-.971.371zm3.027 12.42c.6-.056 1.257-.308 1.944-.708.685-.427 1.312-.947 1.884-1.57.57-.604.999-1.292 1.341-2.066.343-.732.485-1.478.399-2.191-.056-.455-.256-.827-.599-1.059-.341-.252-.686-.345-1.085-.313-.341.034-.685.177-.999.434l-.94.855-.999.856c-.372.259-.715.402-1.116.456-.514.055-.999-.029-1.398-.289-.428-.222-.685-.651-.856-1.279.883-.142 1.713-.457 2.513-.939.771-.489 1.457-1.112 2.026-1.832.571-.715.999-1.543 1.315-2.481.284-.921.37-1.887.256-2.92-.085-.765-.313-1.449-.655-2.054-.343-.597-.744-1.079-1.258-1.515-.485-.399-1.057-.679-1.684-.854-.627-.197-1.285-.252-1.943-.168-1.171.142-2.1408.597-2.9121 1.367-.7713.798-1.3709 1.747-1.7987 2.825-.4579 1.111-.7427 2.286-.8571 3.542-.1418 1.268-.1417 2.426-.0286 3.513.1131 1.032.372 2.055.7712 3.09.3993 1.057.913 1.967 1.5684 2.798.6296.823 1.4009 1.487 2.2569 1.971.884.475 1.827.65 2.854.531z"/><path d="m112.617 121.673c.428-.056.744-.223.999-.539.228-.312.428-.689.544-1.112.113-.427.2-.883.227-1.338v-1.224l-.085-1.348-.172-1.793-.142-1.72v-1.169l.256-1.256c.143-.401.316-.8.515-1.145.201-.343.456-.65.742-.88.257-.26.599-.427.971-.483.228-.055.427-.028.598.029l.573.168.599.177c.199.056.428.056.713 0 .571-.086 1.057-.315 1.427-.744.37-.399.485-.966.37-1.656-.085-.578-.284-1.059-.571-1.458-.283-.426-.626-.744-1.054-.966-.4-.233-.83-.372-1.315-.428-.455-.09-.942-.09-1.4 0-.94.142-1.654.511-2.17 1.108-.541.601-.969 1.345-1.341 2.231l-.286-1.059c-.114-.369-.258-.707-.458-1.051-.171-.343-.4-.603-.656-.826-.257-.201-.571-.288-.884-.257-.6.084-1.057.289-1.371.688-.286.369-.514.824-.627 1.367-.113.511-.171 1.087-.144 1.654l.113 1.6.343 2.288.342 2.288.116.937.142 1.257.2 1.489.314 1.542.399 1.433c.172.455.343.855.571 1.199.199.345.428.597.685.8.289.141.575.22.917.197z"/><path d="m127.979 119.93c.658-.084 1.258-.426 1.713-1.056.458-.622.857-1.394 1.172-2.314.544-1.478 1.026-3.078 1.457-4.769l1.14-4.855c.201-.8.344-1.6.43-2.344.084-.742.114-1.421.028-1.997-.057-.597-.227-1.061-.485-1.394-.285-.345-.685-.49-1.256-.427-.57.085-1.114.54-1.599 1.423-.513.88-.971 1.943-1.371 3.169-.199.601-.399 1.199-.541 1.832l-.485 1.794-.372 1.655-.342 1.4c-.313-.482-.599-1.001-.83-1.512l-.655-1.571-.657-1.71-.685-1.682-.742-1.544-.742-1.224c-.256-.344-.541-.603-.8-.769-.285-.178-.571-.261-.884-.233-.8.084-1.314.426-1.513 1.002-.228.567-.286 1.28-.172 2.111.059.596.172 1.255.344 1.912.171.691.372 1.338.627 2.026.227.688.457 1.338.744 1.971l.741 1.822.943 2.034c.399.824.886 1.656 1.427 2.456.513.798 1.084 1.486 1.657 2.053.595.541 1.167.797 1.708.741z"/><path d="m139.117 105.395c.057-.455.171-.855.313-1.255.143-.399.371-.744.63-1.032.256-.279.599-.455 1.027-.483.314-.055.544.085.713.372.143.287.257.576.286.855.057.371-.029.743-.256 1.059-.199.289-.458.567-.799.769-.316.231-.657.426-1.029.567l-.941.37c-.03-.369 0-.768.056-1.222zm3.028 12.429c.599-.066 1.226-.289 1.911-.713.686-.403 1.314-.948 1.885-1.547.571-.632 1.027-1.31 1.371-2.054.342-.768.485-1.512.399-2.231-.057-.455-.258-.827-.6-1.059-.343-.252-.712-.335-1.084-.308s-.686.196-1.028.455l-.943.825-.998.855c-.342.259-.715.4-1.087.455-.54.056-.998-.028-1.426-.288-.399-.223-.686-.652-.83-1.28.857-.142 1.716-.455 2.484-.937.799-.483 1.484-1.088 2.056-1.832.571-.715.999-1.544 1.285-2.454.314-.939.4-1.915.258-2.938-.086-.768-.286-1.458-.63-2.063-.34-.597-.768-1.0792-1.255-1.4784-.515-.4266-1.057-.7154-1.684-.8926-.657-.1662-1.285-.2221-1.943-.1662-1.171.139-2.139.6036-2.912 1.3653-.771.7999-1.371 1.7479-1.799 2.8359-.458 1.108-.744 2.277-.886 3.541-.113 1.283-.144 2.459-.03 3.505.145 1.032.4 2.067.772 3.089.428 1.056.943 1.968 1.571 2.798.658.824 1.427 1.488 2.284 1.97.86.481 1.83.657 2.859.547z"/><path d="m151.34 117.359c.427-.056.768-.222.998-.54.257-.312.428-.688.541-1.112.145-.426.199-.883.228-1.338l.03-1.223-.113-1.348-.172-1.793-.144-1.72v-1.164c.058-.399.144-.835.286-1.267.144-.399.312-.798.514-1.143.198-.334.429-.652.715-.88.285-.255.627-.428.999-.484.199-.056.399-.028.599.028l.541.178.63.167c.199.056.428.056.683 0 .6-.086 1.057-.316 1.429-.744.372-.399.514-.967.399-1.657-.086-.578-.285-1.057-.571-1.4566-.285-.4265-.655-.744-1.054-.9675-.402-.2316-.858-.3706-1.315-.4264-.485-.09-.942-.09-1.4 0-.94.1417-1.657.5109-2.198 1.1146-.514.5959-.971 1.3349-1.343 2.2229l-.257-1.061c-.113-.362-.284-.705-.457-1.0502-.199-.3434-.4-.6036-.686-.8258-.256-.2016-.541-.2888-.886-.2575-.599.0845-1.054.2875-1.34.6882-.314.3692-.514.8233-.627 1.3663-.116.521-.172 1.088-.145 1.655l.113 1.598.344 2.289.342 2.288.086.938.141 1.292.231 1.448.313 1.544c.115.482.228.976.399 1.432.172.455.341.854.541 1.199.199.344.458.597.716.8.26.154.573.235.89.21z"/><path d="m170.356 101.911c.057-.428.171-.856.316-1.255.17-.401.369-.7445.627-1.0238.256-.2876.599-.4265 1.057-.4919.284-.0287.514.0926.683.3706.172.2889.257.5781.285.8651.058.399-.028.735-.257 1.051-.199.289-.457.579-.798.8-.316.204-.658.402-1.03.547l-.94.372c-.026-.373.001-.772.057-1.235zm3.029 12.454c.6-.084 1.256-.312 1.94-.744.659-.399 1.285-.91 1.858-1.542.571-.633 1.028-1.311 1.371-2.055.342-.744.485-1.488.399-2.235-.057-.455-.258-.798-.6-1.051-.34-.258-.712-.343-1.084-.314-.373.056-.686.197-.999.455l-.972.827-.999.854c-.34.261-.712.428-1.084.455-.541.056-.999-.027-1.427-.25-.399-.261-.686-.688-.83-1.322.886-.112 1.714-.427 2.514-.938.771-.482 1.454-1.087 2.026-1.831.571-.71.999-1.533 1.285-2.455.314-.938.4-1.914.287-2.9111-.086-.7999-.314-1.488-.659-2.0794-.34-.5792-.768-1.0902-1.255-1.4908-.513-.3992-1.057-.7113-1.684-.8803-.629-.1771-1.285-.233-1.943-.1485-1.171.1213-2.141.5764-2.912 1.3763-.771.7712-1.371 1.7129-1.829 2.8003-.428 1.1133-.712 2.2875-.854 3.5705-.113 1.255-.145 2.422 0 3.51.113.995.372 2.026.771 3.079.399 1.033.913 1.968 1.569 2.768.629.827 1.398 1.491 2.256 1.97.856.499 1.827.694 2.855.582z"/><path d="m182.235 113.594c.344-.029.63-.142.857-.343.256-.233.428-.457.6-.744l.342-.995.143-1.143.029-1.227-.029-1.199-.199-1.887-.2-1.488-.172-1.422c-.029-.204 0-.524.086-.923l.342-1.255c.143-.427.285-.8.485-1.1437.172-.3134.343-.511.512-.511.258-.0286.485.0286.658.1676.172.1758.314.3707.4.6311.113.26.171.539.227.856l.116.827c.083.658.113 1.311.113 1.97v1.968l-.03 1.97.116 1.943.17 1.032c.058.426.172.856.314 1.282.172.427.343.8.572 1.115.229.308.512.455.857.399.485-.067.913-.343 1.285-.867.341-.511.6-1.167.827-1.967.201-.766.344-1.655.458-2.593.115-.939.201-1.859.228-2.743v-2.426l-.086-1.654-.372-2.4544c-.142-.8925-.399-1.7237-.769-2.4923-.343-.7426-.829-1.3654-1.429-1.8218-.627-.492-1.427-.6582-2.426-.5478-.513.0558-.971.1771-1.37.3447-.4.1758-.742.3993-1.058.6595-.285.2221-.568.511-.798.8231-.228.3161-.428.6227-.573.9675l-.369-.8244c-.113-.3148-.285-.5969-.485-.8544-.199-.2603-.427-.4838-.657-.6596-.227-.1676-.485-.2234-.771-.1975-.6.0545-1.026.3447-1.285.8257-.256.4824-.428 1.0588-.484 1.7102-.086.6595-.086 1.3204 0 1.9704l.17 1.6541.314 2.408.316 2.425.142 1.506.113 1.056.199 1.46.313 1.627c.143.539.316 1.022.515 1.455.201.428.455.734.713.995.289.279.631.391 1.03.335z"/><path d="m200.426 112.422c.428-.028.828-.14 1.283-.313.455-.142.827-.346 1.199-.597.343-.232.604-.548.827-.92.204-.371.288-.771.233-1.226-.056-.596-.233-1.088-.516-1.449-.257-.343-.656-.52-1.138-.464l-.887.177c-.284.11-.544.139-.833.195-.455.028-.798-.056-1.082-.251-.283-.233-.516-.521-.655-.827-.145-.344-.258-.713-.314-1.088l-.143-.977-.086-1.17-.028-1.107-.086-2.29-.029-2.4546 1.341-.3992c.488-.1772.916-.3993 1.315-.6596.399-.2875.743-.5668.966-.9102.261-.3134.372-.6881.316-1.0888-.028-.3433-.167-.6322-.399-.8544-.196-.233-.484-.4006-.8-.5123-.316-.1213-.655-.1758-1.026-.2003h-1.055l-.316.0558-.655.1758.142-1.7469-.056-1.3381-.258-1.1119c-.114-.3707-.286-.7155-.458-.9934-.199-.3134-.426-.5478-.685-.7127-.284-.2044-.57-.2603-.883-.2344-.544.0545-.972.3134-1.258.8013-.313.4824-.514 1.0315-.657 1.6788-.141.6881-.199 1.3762-.199 2.123 0 .744.058 1.4226.114 2.0235-.428.0859-.856.2221-1.314.3993-.485.1989-.913.4265-1.285.6881-.372.2549-.685.5397-.913.8817-.228.3447-.313.6881-.285 1.0887.057.6228.344 1.0506.827 1.3109.515.2535 1.058.3434 1.685.2875l.372-.0899.656-.0545.086 3.3178.256 3.049c.143 1.291.314 2.426.514 3.458.172 1.032.515 1.912.972 2.603.458.677 1.084 1.199 1.914 1.504.797.307 1.911.362 3.281.222z"/><path d="m206.534 111.224c.459-.056.771-.233 1.031-.539.228-.314.4-.688.54-1.112.116-.428.177-.893.204-1.348l.029-1.225-.116-1.337-.143-1.802-.14-1.712c-.056-.511-.056-.91 0-1.171.028-.399.14-.823.256-1.2232.144-.4265.312-.8271.516-1.1705.195-.3448.455-.6568.71-.8803.284-.2589.627-.4265.999-.4824.232-.0654.428-.0354.6.0286l.543.1676.627.1649c.199.0668.432.0668.716 0 .572-.0845 1.054-.3079 1.426-.7317.344-.4006.483-.9798.372-1.6679-.084-.5669-.287-1.0506-.572-1.4485-.283-.4279-.654-.744-1.055-.977-.399-.2222-.854-.3707-1.315-.4265-.46-.0845-.943-.0845-1.399 0-.943.1485-1.654.5205-2.198 1.1146-.515.6009-.972 1.3354-1.342 2.2307l-.257-1.0588c-.115-.3693-.283-.7127-.459-1.0561-.167-.3447-.399-.5968-.655-.8271-.256-.1949-.571-.278-.887-.2507-.596.0831-1.051.2779-1.367.6786-.316.3692-.515.823-.632 1.3749-.112.5124-.168 1.0888-.141 1.6556l.112 1.5984.343 2.2888.344 2.288.084.938.143 1.282.228 1.46.316 1.543.399 1.423c.168.455.344.854.54 1.199.233.344.461.604.715.799.289.156.574.237.885.212z"/><path d="m219.129 96.4872c.055-.4266.143-.8544.316-1.255.139-.3993.372-.7441.627-1.0316.256-.2889.599-.4265 1.027-.4824.288-.0286.511.0845.687.3693.167.2793.283.5669.312.8558.033.3992-.056.744-.256 1.0587-.199.278-.483.5669-.799.7999-.316.1949-.659.3993-1.031.5396l-.939.3707c-.028-.3693 0-.7699.056-1.225zm3.03 12.4508c.596-.086 1.227-.316 1.911-.744.682-.401 1.315-.912 1.881-1.547.577-.623 1.032-1.311 1.377-2.055.339-.742.455-1.486.372-2.221-.033-.465-.233-.8-.577-1.059-.343-.257-.71-.344-1.11-.313-.344.056-.683.202-.999.455l-.943.824-.999.868c-.343.251-.715.427-1.114.456-.511.055-.995-.029-1.395-.261-.399-.256-.688-.686-.831-1.309.86-.121 1.687-.427 2.487-.949.8-.482 1.483-1.077 2.055-1.8215.571-.7126.999-1.5439 1.282-2.4541.288-.9484.372-1.9145.261-2.9202-.085-.7985-.288-1.4894-.633-2.0808-.339-.5777-.767-1.0888-1.255-1.488-.511-.3993-1.083-.6881-1.71-.883-.632-.1662-1.255-.2317-1.943-.139-1.143.1104-2.115.5669-2.882 1.3654-.771.7685-1.375 1.7115-1.831 2.7989-.428 1.1146-.716 2.2865-.855 3.5688-.144 1.255-.144 2.4255-.028 3.5145.111.993.372 2.023.771 3.086.399 1.022.939 1.971 1.571 2.799.655.801 1.394 1.449 2.282 1.946.856.478 1.796.673 2.855.563z"/><path d="m51.3934 174.495c2.2538-.252 4.1697-1.022 5.7681-2.333 1.5984-1.291 2.8834-2.92 3.825-4.859.9429-1.914 1.5984-4.024 1.9431-6.314.3707-2.277.4265-4.534.1717-6.736-.2303-2.138-.6854-4.247-1.3435-6.339-.6568-2.055-1.5712-3.904-2.6845-5.503-1.1405-1.609-2.5427-2.835-4.227-3.745-1.6542-.881-3.626-1.2-5.854-.968-1.3122.142-2.5399.597-3.6832 1.311-1.1705.715-2.198 1.627-3.1123 2.714-.943 1.115-1.7429 2.37-2.4283 3.765-.6854 1.404-1.255 2.856-1.6856 4.369-.4265 1.491-.7413 2.977-.8844 4.461-.1703 1.505-.1703 2.91-.0286 4.248.199 1.887.7127 3.802 1.5126 5.769.7985 1.971 1.8 3.737 3.0551 5.309 1.2577 1.599 2.7144 2.854 4.3414 3.775 1.6597.94 3.4298 1.309 5.3144 1.076zm-3.0851-8.394c-.7413-.565-1.3995-1.335-1.9404-2.221-.5437-.921-.9989-1.887-1.3123-2.945-.3161-1.05-.5151-2-.6295-2.824-.1131-1.088-.0859-2.314.1144-3.656.199-1.377.5151-2.687 1.0016-3.914.4837-1.224 1.1133-2.312 1.9404-3.198.7999-.88 1.7715-1.404 2.912-1.515.9157-.112 1.7701.148 2.5141.745.7413.602 1.3709 1.368 1.9118 2.289.5138.938.9716 1.943 1.285 3.021.3134 1.088.5437 2.036.6269 2.835.1158 1.023.0858 2.222-.0845 3.57-.1717 1.367-.5165 2.646-.9716 3.847-.4851 1.225-1.1133 2.288-1.9145 3.166-.7999.883-1.7688 1.404-2.912 1.547-.9416.083-1.7715-.14-2.5414-.747z"/><path d="m65.1286 144.231c-.5137-.401-.7712-.938-.8571-1.569-.0558-.653.0859-1.226.4851-1.737.372-.521.8571-.8 1.4567-.856.571-.065 1.1133.112 1.6257.512.4851.4.7712.911.8571 1.57.0858.657-.0859 1.224-.4851 1.735-.3993.522-.913.771-1.484.856-.5995.064-1.1119-.113-1.5984-.511zm1.7129 2.452c.571-.054 1.0847-.22 1.5425-.482.4851-.26.8844-.623 1.2264-1.06.3434-.427.571-.91.744-1.477.1418-.545.199-1.144.1418-1.777-.0859-.596-.2562-1.171-.541-1.682-.2576-.511-.6296-.91-1.0574-1.279-.3993-.344-.8858-.604-1.3995-.744-.5137-.142-1.0574-.203-1.5984-.142-.5709.055-1.0847.222-1.5425.482-.4851.251-.8858.623-1.1992 1.051s-.5709.921-.7126 1.488c-.1717.548-.2004 1.146-.1418 1.747.0559.623.2276 1.199.5124 1.71.2862.512.6268.912 1.0275 1.282.4278.345.8857.604 1.3994.744.5137.171 1.0574.195 1.5984.139z"/><path d="m85.0597 171.3c.8272-.085 1.7129-.371 2.6845-.883.9716-.511 1.8287-1.143 2.6285-1.911.77-.771 1.4268-1.655 1.9132-2.593.4851-.977.6568-1.97.541-3.003-.0845-.743-.3693-1.391-.883-1.943-.5151-.54-1.0847-.799-1.7701-.706-.5709.054-1.1433.195-1.6843.426l-1.6297.735-1.5984.744c-.541.232-1.1133.371-1.6856.427-.8844.121-1.5711-.112-2.1121-.653-.5437-.548-.9702-1.227-1.285-2.082-.3434-.834-.571-1.72-.7127-2.656-.1717-.91-.2861-1.747-.3434-2.426l-.1417-1.999v-2.688c.0286-.912.0859-1.888.199-2.855.1131-.947.2861-1.831.5409-2.603.2303-.8.5437-1.422.943-1.97.372-.511.8544-.799 1.4267-.855.5437-.055.913.086 1.1119.483.2004.369.3448.88.4579 1.515l.2848 1.943c.0858.712.2575 1.334.541 1.942.2575.597.6854 1.06 1.2291 1.394.541.369 1.3122.489 2.3397.369.6568-.084 1.1991-.344 1.6283-.768.4279-.457.7413-.968.9989-1.603.1989-.595.3406-1.255.3992-1.967.0559-.679.0559-1.338 0-1.969-.1444-1.283-.4278-2.622-.8271-4.054-.372-1.426-.943-2.715-1.657-3.858-.7127-1.134-1.5984-2.058-2.6558-2.736-1.0574-.712-2.2838-.976-3.7119-.799-1.4853.142-2.7703.653-3.9136 1.505-1.1119.855-2.1121 1.914-2.942 3.169-.8271 1.289-1.5125 2.715-2.0548 4.313-.5437 1.624-.9716 3.254-1.2564 4.946-.2862 1.711-.4579 3.365-.5137 5.021-.0286 1.625 0 3.145.1717 4.515.2275 2.024.6268 4.054 1.255 6.081.6295 2.026 1.4853 3.801 2.57 5.368 1.0846 1.572 2.4282 2.802 3.9994 3.682 1.6038.919 3.4298 1.235 5.5146 1.002z"/><path d="m113.361 165.882c.913-.093 1.884-.456 2.912-1.06.998-.632 1.94-1.431 2.797-2.343.857-.937 1.543-1.97 2.056-3.089.514-1.106.714-2.245.6-3.334-.086-.691-.399-1.202-.884-1.57-.514-.372-1.085-.54-1.657-.456-.541.055-1.027.288-1.513.651l-1.427 1.267-1.485 1.28c-.515.372-1.085.597-1.657.688-.799.086-1.485-.066-2.112-.427-.6-.343-1.029-1.003-1.256-1.914 1.312-.233 2.569-.688 3.741-1.432 1.2-.744 2.227-1.655 3.057-2.743.854-1.051 1.512-2.314 1.94-3.712.458-1.375.571-2.854.4-4.369-.114-1.168-.458-2.199-.972-3.086-.514-.911-1.141-1.655-1.885-2.258-.741-.596-1.598-1.051-2.54-1.311-.943-.289-1.914-.372-2.914-.26-1.74.204-3.199.892-4.339 2.067-1.143 1.199-2.056 2.592-2.714 4.247-.656 1.656-1.085 3.431-1.314 5.315-.199 1.877-.199 3.656-.027 5.28.17 1.514.568 3.058 1.169 4.6.598 1.571 1.371 2.969 2.342 4.193.972 1.255 2.112 2.231 3.397 2.946 1.314.737 2.742.996 4.285.83zm-4.514-18.648c.086-.657.228-1.292.458-1.887.228-.604.541-1.115.942-1.543.399-.4.913-.659 1.571-.744.427-.028.771.145 1.026.577.258.426.399.854.458 1.279.057.597-.059 1.115-.399 1.57-.314.455-.714.856-1.172 1.199-.485.316-.999.597-1.571.827l-1.398.567c-.056-.561-.029-1.166.085-1.845z"/><path d="m133.919 165.222c.626-.055 1.257-.197 1.913-.456.685-.232 1.285-.54 1.798-.91.517-.372.943-.827 1.23-1.377.313-.511.426-1.143.369-1.821-.113-.893-.369-1.637-.769-2.179-.399-.54-.971-.768-1.743-.688-.427.028-.857.121-1.284.26l-1.255.257c-.686.086-1.23-.065-1.629-.369-.428-.343-.771-.744-.999-1.255-.227-.492-.399-1.034-.485-1.611l-.199-1.478-.141-1.72-.03-1.711-.142-3.392-.029-3.719c.627-.141 1.312-.344 2.026-.597.713-.257 1.371-.577 1.971-.977.598-.399 1.085-.854 1.457-1.338.369-.511.541-1.056.485-1.623-.058-.547-.258-.948-.601-1.291-.342-.336-.742-.623-1.227-.8-.455-.168-.971-.254-1.541-.31-.544-.028-1.057-.028-1.571.029l-.459.093-.999.231c.113-1.034.199-1.89.199-2.602l-.086-1.999c-.056-.54-.199-1.115-.372-1.682-.17-.576-.426-1.087-.713-1.515-.286-.455-.626-.799-1.027-1.056-.371-.278-.827-.399-1.285-.344-.827.089-1.457.49-1.913 1.199-.458.713-.771 1.568-.972 2.545-.199.993-.312 2.057-.285 3.169 0 1.115.058 2.137.142 3.023-.627.147-1.285.344-1.97.633-.713.256-1.341.601-1.912 1-.572.367-1.028.828-1.371 1.311-.341.511-.485 1.051-.428 1.627.115.938.514 1.599 1.258 1.998.741.372 1.571.512 2.513.401l.571-.085.94-.148.172 5c.085 1.544.199 3.091.37 4.602.201 1.905.455 3.656.742 5.196.313 1.543.798 2.825 1.483 3.848.686 1.056 1.657 1.8 2.857 2.287 1.227.456 2.884.603 4.941.344z"/><path d="m158.162 157.711c.316-.055.515-.288.657-.659.171-.401.286-.856.372-1.367.085-.539.141-1.143.141-1.766l-.028-1.86-.113-1.623-.029-1.059 1.683-.198 1.714-.258.999-.166c.455-.093.913-.205 1.371-.372.455-.176.854-.37 1.169-.633.343-.256.485-.566.429-.937-.028-.372-.257-.632-.629-.8-.4-.178-.855-.289-1.341-.343-.485-.056-.972-.086-1.427-.056l-1.03.056-1.657.109-1.684.11-.228-1.766c-.113-.912-.256-1.8-.485-2.743-.2-.937-.455-1.737-.771-2.481-.314-.713-.683-1.056-1.082-1.001-.485.056-.857.4-1.058 1.088-.199.657-.343 1.422-.399 2.286-.086.856-.086 1.683-.029 2.51l.114 1.713.113.921-1.799.168c-.857.084-1.743.233-2.629.455-.884.202-1.654.482-2.339.856-.657.369-.972.865-.885 1.432.028.427.4.714 1.114.854.685.112 1.456.178 2.342.178l2.569-.148 1.714-.164.369 1.734c.172.856.402 1.747.686 2.659.284.91.599 1.681.943 2.369.374.679.744.984 1.143.902z"/><path d="m177.382 151.631c-.656-.37-1.2-.922-1.655-1.569-.458-.689-.83-1.433-1.114-2.233-.257-.799-.456-1.569-.541-2.345l-.058-.855c0-.37.086-.623.231-.769.426-.371.969-.688 1.598-.91.6-.233 1.172-.371 1.686-.427 1.484-.177 2.739.142 3.797.966 1.058.828 1.657 2.092 1.856 3.802.171 1.394-.113 2.51-.83 3.337-.685.826-1.654 1.321-2.853 1.458-.774.084-1.488-.054-2.117-.455zm1.771 7.592c1.598-.177 3.055-.601 4.397-1.224 1.342-.66 2.456-1.488 3.37-2.547.916-1.05 1.601-2.333 2.029-3.821.455-1.489.571-3.169.372-5.057-.172-1.545-.544-3.002-1.116-4.4-.568-1.403-1.312-2.602-2.226-3.624-.913-1.058-1.971-1.832-3.197-2.399-1.258-.549-2.602-.744-4.087-.576-.482.055-.94.145-1.398.288l-1.312.511c.285-1.078.685-2.137 1.143-3.17.455-.993.969-1.97 1.541-2.881.258-.426.63-.911 1.085-1.432l1.312-1.623c.429-.539.771-1.108 1.085-1.683.286-.539.399-1.058.343-1.513-.086-.8-.399-1.367-.999-1.712-.571-.343-1.199-.482-1.884-.427-1.172.141-2.315.657-3.456 1.513-1.113.882-2.171 2-3.142 3.367-.972 1.345-1.857 2.879-2.626 4.546-.799 1.679-1.457 3.39-2 5.139-.541 1.766-.941 3.477-1.17 5.14-.23 1.654-.256 3.132-.113 4.453.199 1.793.6 3.541 1.199 5.196.6 1.654 1.4 3.11 2.399 4.368.971 1.255 2.198 2.19 3.597 2.854 1.427.689 3.027.913 4.854.714z"/><path d="m190.832 130.243c-.485-.399-.771-.912-.827-1.571-.086-.656.084-1.224.455-1.747.399-.482.886-.763 1.457-.825.599-.085 1.14.09 1.627.494.512.426.798.937.884 1.598.059.623-.113 1.224-.514 1.712-.399.511-.884.798-1.456.854-.6.052-1.141-.116-1.626-.515zm1.74 2.481c.571-.085 1.058-.223 1.543-.511.485-.26.884-.603 1.226-1.034.316-.426.571-.937.743-1.488.142-.567.2-1.134.114-1.766-.058-.632-.227-1.17-.513-1.681-.287-.522-.627-.946-1.058-1.281-.399-.344-.886-.604-1.399-.772-.514-.144-1.058-.2-1.627-.144-.544.084-1.058.232-1.543.52-.458.251-.857.596-1.17 1.022-.314.427-.57.912-.713 1.489-.172.566-.228 1.143-.142 1.766.056.632.228 1.17.514 1.691.286.512.627.937 1.027 1.282s.886.597 1.4.768c.515.139 1.057.195 1.598.139z"/><path d="m210.791 157.311c.827-.086 1.71-.371 2.687-.882.966-.482 1.826-1.144 2.626-1.914.771-.769 1.4-1.625 1.882-2.6.488-.939.688-1.937.576-2.994-.088-.743-.372-1.375-.888-1.942-.515-.54-1.082-.771-1.77-.715-.571.086-1.143.231-1.683.455-.576.204-1.115.465-1.631.744l-1.599.744c-.543.232-1.11.371-1.686.426-.883.085-1.599-.111-2.111-.688-.544-.539-.97-1.226-1.31-2.057-.316-.825-.549-1.711-.715-2.647l-.316-2.435-.141-2.026v-2.645c.029-.948.085-1.89.197-2.867.115-.966.287-1.822.543-2.622.228-.771.544-1.432.916-1.943.399-.511.883-.826 1.454-.882.544-.055.888.112 1.11.483.205.399.344.91.432 1.512l.284 1.971c.116.677.287 1.337.571 1.913.256.597.655 1.079 1.203 1.423.54.344 1.338.456 2.338.344.683-.056 1.232-.316 1.66-.771.427-.426.739-.967.966-1.568.233-.623.372-1.283.428-1.971.06-.687.06-1.337-.029-1.969-.138-1.279-.399-2.658-.798-4.054-.399-1.432-.939-2.714-1.654-3.857-.744-1.171-1.599-2.083-2.659-2.769-1.055-.679-2.31-.938-3.736-.8-1.46.177-2.742.688-3.887 1.514-1.143.855-2.109 1.912-2.936 3.198-.833 1.255-1.515 2.714-2.059 4.314-.571 1.598-.972 3.253-1.256 4.936-.287 1.691-.456 3.374-.514 5.001-.059 1.654 0 3.142.142 4.509.23 2.065.656 4.089 1.285 6.091.626 2.023 1.482 3.821 2.57 5.392 1.087 1.567 2.425 2.797 3.998 3.69 1.569.873 3.428 1.218 5.51.958z"/><path d="m223.898 153.854c.343-.056.687-.142 1.032-.311.312-.177.595-.369.855-.632.228-.256.427-.567.567-.938.149-.344.205-.744.149-1.17-.06-.549-.261-1.033-.577-1.432-.312-.428-.682-.744-1.143-1.033-.455-.254-.939-.427-1.423-.54-.515-.112-.975-.14-1.43-.084-.683.084-1.339.369-1.971.88-.627.511-.883 1.199-.798 2.082.083.548.287 1.032.603 1.431.34.401.739.744 1.199 1.033.483.278.967.482 1.483.597.544.117 1.026.144 1.454.117z"/><path d="m112.39 92.2057c.94 0 1.74-.6882 1.854-1.6257l.744-6.226 4.111 3.4026c.344.2766.772.4265 1.202.4265.514 0 1.055-.2317 1.398-.6595.656-.7672.57-1.9418-.229-2.5905l-5.939-4.9451.744-6.106 6.739 6.3391c.372.3433.827.5109 1.285.5109.228 0 .485-.0558.714-.1417.686-.2875 1.112-.9443 1.112-1.6883l.145-9.3356 5.024 3.765-.514 7.635c-.056 1.022.713 1.9023 1.743 1.9704h.113c.972 0 1.77-.744 1.826-1.7237l.343-5.2517 5.025 3.765c.343.2589.715.3706 1.116.3706.541 0 1.113-.2534 1.454-.7344.629-.7986.457-1.9704-.341-2.5782l-5.054-3.8018 5.027-1.8464c.968-.3434 1.454-1.4022 1.084-2.3697-.343-.9756-1.399-1.4594-2.371-1.0873l-7.252 2.6857-4.941-3.7091 8.793-2.6572c.716-.2031 1.23-.8244 1.315-1.5439.086-.7154-.257-1.4322-.884-1.8314l-7.997-4.7407 6.054-2.5918 6.368 4.2869c.316.1949.656.3066 1.028.3066.6 0 1.171-.278 1.542-.823.571-.8558.343-1.999-.514-2.5659l-4.369-2.9229 5.512-2.3329c.942-.4006 1.368-1.488.969-2.435-.399-.9375-1.483-1.3355-2.426-.9676l-5.512 2.3425.916-5.2517c.171-1.0329-.516-1.9704-1.515-2.1476-1.026-.1948-1.971.4838-2.139 1.5153l-1.314 7.5941-6.026 2.5754 2.112-8.9704c.172-.744-.085-1.488-.685-1.9145-.571-.4265-1.371-.4824-2.026-.1403l-8.111 4.5363.799-6.5912 6.967-3.3767c.913-.4265 1.312-1.5439.857-2.4541-.428-.9117-1.542-1.3109-2.457-.8558l-4.826 2.3424.715-5.9671c.142-1.0043-.6-1.9431-1.598-2.0549-1.031-.1485-1.944.5955-2.058 1.623l-.713 5.9153-4.026-3.3781c-.772-.6568-1.943-.5396-2.599.233-.658.7713-.571 1.9432.228 2.5932l5.854 4.9165-.799 6.5598-6.74-6.3118c-.513-.5124-1.313-.6228-1.97-.3448-.685.2889-1.113.9484-1.141 1.6652l-.113 9.2484-5.225-3.9136.541-7.7345c.085-1.0029-.686-1.8872-1.7133-1.969-1.0575-.0654-1.8846.6786-1.9704 1.7101l-.3721 5.3348-4.7965-3.5974c-.8271-.5968-1.999-.4265-2.5986.3693-.5996.8258-.4292 1.9691.372 2.6013l4.7693 3.5702-4.9124 1.7933c-.9716.3434-1.4567 1.4021-1.1133 2.3682.2848.7454.9716 1.2006 1.7401 1.2006l.6296-.0859 7.1948-2.6299 5.2548 3.9408-8.9081 2.6899c-.6854.233-1.2018.8244-1.285 1.5439-.0858.7426.2562 1.4553.8831 1.8314l7.94 4.7121-5.7121 2.4255-6.3977-4.3442c-.8271-.5764-1.9677-.3692-2.5672.4838-.5723.823-.3434 1.9677.5123 2.5659l4.4246 3.0019-5.7954 2.4542c-.943.3992-1.3708 1.488-.9716 2.4255.2862.7127.9716 1.1119 1.6843 1.1119.2575 0 .4851-.0286.744-.139l5.7667-2.4555-.9429 5.1686c-.1717.9934.4851 1.969 1.5125 2.1353l.3162.0286c.8857 0 1.6543-.6323 1.8259-1.5153l1.3436-7.5382 5.7368-2.4542-2.112 9.0822c-.172.7154.086 1.458.685 1.8873.571.4551 1.371.511 1.999.1417l8.082-4.5104-.742 6.1047-6.853 3.3753c-.913.4565-1.314 1.5698-.857 2.4814.458.9102 1.571 1.2822 2.487.8257l4.71-2.3137-.771 6.2273c-.113.9934.6 1.9432 1.598 2.0549h.231z"/></g></svg>