<svg fill="none" height="249" viewBox="0 0 250 249" width="250" xmlns="http://www.w3.org/2000/svg"><path d="m154.169 239.479c38.448-10.301 71.904-36.348 86.841-74.049 1.172-2.95 2.215-5.949 3.129-8.992 11.816-39.349 1.204-84.7907-27.103-114.5804-24.303-25.5758-59.833-38.91211-95.022-39.69398-24.4521-.53876-49.447 4.84256-69.9195 18.22808-18.9055 12.3569-33.2652 31.1461-41.7482 52.1234-14.43292 35.6869-11.57662 77.9869 7.5222 111.4509 9.6023 16.823 23.2199 31.251 39.1945 42.128 15.332 10.447 34.7612 19.578 53.452 20.624.915.054 1.828.127 2.743.195 16.483 1.215 30.498-3.717 45.844-8.755" fill="#fff"/><path d="m76.386 54.3647c-.053.3608-.1526.7883-.2988 1.2827-.1282.4971-.3169.9669-.5661 1.4093-.2466.4245-.5469.7765-.9012 1.0562-.3516.2616-.7799.3553-1.2849.2812-.6674-.0979-1.1366-.4155-1.4079-.9528-.2531-.5346-.4029-1.1462-.4493-1.8347-.0437-.7065-.0319-1.4141.0352-2.1228.0852-.7061.1492-1.2678.1921-1.6853-1.3304.0259-2.6387.0273-3.9251.0043-.0969.4096-.2535.9117-.4698 1.5064-.1982.5973-.4659 1.1661-.8031 1.7061-.3165.5248-.7036.9654-1.1613 1.322-.4396.3592-.939.4978-1.4981.4158-.4329-.0635-.753-.2671-.9605-.6108-.1869-.3591-.3116-.7643-.3744-1.2157-.0627-.4514-.079-.9052-.0489-1.3614.0508-.4715.0987-.8606.1437-1.1672.1508-1.0281.3802-2.0262.6881-2.9944.3106-.9862.6468-1.9594 1.0089-2.9196.1849-.5071.4192-1.0992.7028-1.7761.2836-.677.6059-1.3666.9669-2.069.3817-.7179.7969-1.4123 1.2454-2.0835.4693-.6865.9717-1.2853 1.5073-1.7963.5356-.5109 1.1184-.9044 1.7485-1.1805.6301-.276 1.2968-.3624 2.0003-.2591.6853.1005 1.258.3412 1.718.7219s.8424.8514 1.147 1.412.5356 1.1841.6928 1.8704c.1599.6683.272 1.3481.3364 2.0392.085.6758.1354 1.3372.1509 1.9844.0336.6498.0598 1.2247.0785 1.725.0624 1.2067.0861 2.4262.0711 3.6584-.0123 1.2142-.1072 2.4255-.2845 3.6339zm-4.2567-7.3404c.0318-.2164.0654-.5707.1008-1.063.056-.5076.0747-1.0116.056-1.5118-.0161-.5182-.0955-.9813-.2383-1.3892-.1221-.4232-.3455-.6587-.6702-.7063-.1803-.0265-.3702.0746-.5696.3033-.1967.2107-.386.4961-.5678.8563-.1792.3422-.356.7308-.5304 1.1658-.1563.4377-.301.8587-.4341 1.2629-.133.4042-.2427.775-.329 1.1124-.0838.3194-.1452.5499-.1844.6915 1.0954.0687 2.1793.0896 3.2519.0627zm2.4338-11.4989c-.0212.1443-.1015.2523-.241.3239-.1188.0563-.2504.0738-.3947.0526-.3246-.0476-.6527-.1971-.9843-.4484-.311-.2668-.5821-.4908-.8134-.6721-.1465-.1321-.3096-.2758-.4895-.4311-.1618-.1528-.321-.3235-.4775-.5123-.1385-.1862-.2577-.3787-.3575-.5776-.0791-.2142-.1041-.4206-.0749-.619.0397-.2705.1733-.4904.4008-.6597.2301-.1873.4805-.2611.751-.2214.2706.0397.5677.2123.8913.5177.3263.2874.6267.6263.901 1.0166.2924.393.519.7947.6799 1.2052.1789.4132.2485.7551.2088 1.0256zm21.0754 15.1425c-.0132.0902-.0368.1881-.0707.2936-.0313.0876-.0716.1738-.1209.2587-.2232.391-.5273.7056-.9123.9439-.3824.2202-.8081.296-1.277.2271-.7034-.1032-1.1298-.525-1.279-1.2655-.0229-.0955-.0264-.1973-.0105-.3055.0185-.1263.0281-.2539.0285-.3828l.1152-.7845c.001-.2578-.033-.4655-.102-.623-.0691-.1575-.2118-.2522-.4282-.2839-.3066-.045-.6333.1097-.9801.4641-.3262.3391-.6371.7633-.933 1.2726-.2751.4939-.5169 1.0112-.7252 1.5518s-.3376.9822-.3879 1.3249c-.0397.2705-.0706.6068-.0927 1.0089-.0196.3841-.0017.7644.0536 1.141s.1532.7134.2939 1.0104c.1613.2816.3953.4449.7019.4899s.5994-.0041.8784-.1474c.2997-.1587.5943-.3458.8838-.5612.2663-.1821.5518-.3705.8568-.5652.323-.1921.6648-.2617 1.0256-.2088.4509.0662.7787.2801.9836.6418.2229.3644.3039.754.243 1.1688-.09.6132-.337 1.1665-.7411 1.66-.4014.4754-.8747.8757-1.4199 1.2011-.5425.3072-1.1273.5254-1.7542.6545-.6296.1471-1.215.181-1.756.1016-.974-.1429-1.7679-.5082-2.3818-1.0957-.5959-.5849-1.047-1.2776-1.3533-2.0779-.3036-.8184-.4808-1.6827-.5314-2.593-.0507-.9102-.0178-1.7621.0987-2.5557.1349-.9198.4068-1.8933.8154-2.9203.4114-1.0451.946-1.9892 1.6041-2.8323.658-.8431 1.4378-1.5117 2.3394-2.0058.9197-.4914 1.9476-.6538 3.0839-.4871.7034.1033 1.2851.3453 1.7451.726.4781.3833.8424.8514 1.0929 1.404.2712.5373.443 1.1244.5153 1.7615.0904.6397.0919 1.2571.0046 1.8523-.0133.0902-.0265.1803-.0397.2705-.0133.0902-.0355.1791-.0668.2666zm5.0155 12.15c-.9198-.135-1.6867-.4963-2.3006-1.0838-.6139-.5876-1.0997-1.2945-1.4575-2.1209-.3577-.8263-.5864-1.7166-.6858-2.6708-.0969-.9723-.0791-1.9093.0532-2.8111.1403-.9559.4018-1.9217.7845-2.8973.3853-.9936.8824-1.8696 1.4911-2.6277.6114-.7763 1.3342-1.3703 2.1681-1.7822.837-.4299 1.779-.5681 2.825-.4146 1.01.1482 1.826.5535 2.447 1.2159.642.6469 1.119 1.417 1.43 2.3102.313.8751.489 1.8129.526 2.8133.038 1.0004-.034 1.9295-.215 2.7873-.195.948-.489 1.8904-.885 2.8273-.377.9395-.857 1.7626-1.44 2.4694-.583.7067-1.271 1.2506-2.064 1.6317s-1.685.4989-2.677.3533zm2.065-12.1887c-.27-.0397-.535.0688-.794.3257-.241.2594-.464.586-.669.9796-.187.3963-.351.8237-.492 1.282-.138.4403-.232.8318-.283 1.1745-.063.4329-.096.9071-.098 1.4227.016.5182.064 1.0044.145 1.4584.084.436.203.8129.359 1.1305.177.3023.401.4733.671.513.289.0424.552-.0571.79-.2986.256-.2387.478-.5563.665-.9526s.344-.8339.469-1.313c.129-.497.224-.962.288-1.3949.058-.3968.086-.8349.082-1.3144 0-.4976-.042-.9644-.126-1.4004-.065-.4333-.186-.8012-.363-1.1035-.159-.2996-.373-.4693-.644-.509zm12.873 14.3532c-.307-.045-.529-.225-.667-.54-.141-.297-.23-.6325-.267-1.0065-.037-.3739-.047-.7439-.031-1.1099.038-.3814.071-.6713.1-.8697.08-.5411.186-1.0782.32-1.6113.151-.5305.303-1.061.454-1.5915.17-.5279.322-1.0584.455-1.5915.152-.5305.267-1.0663.347-1.6073.031-.2165.057-.4523.076-.7074.019-.2552.008-.4963-.032-.7233-.02-.2424-.091-.4463-.215-.6118-.123-.1654-.301-.2654-.536-.2998-.162-.0238-.362.085-.601.3264-.235.2234-.468.4932-.699.8094-.21.3008-.403.6133-.579.9375-.156.3088-.246.5443-.27.7066-.058.3968-.118.8026-.179 1.2175-.04.3994-.09.8065-.151 1.2214l-.231 1.5691c-.065.322-.141.6517-.228.9891-.086.3374-.189.6631-.309.9771-.102.3168-.229.6205-.382.9112-.151.2727-.333.513-.548.721-.194.1927-.419.3439-.675.4538-.255.1099-.546.141-.87.0933-.361-.0529-.641-.2138-.841-.4827-.201-.2689-.346-.5943-.438-.9762-.088-.3999-.136-.8306-.142-1.2921.015-.4769.036-.9344.064-1.3725.048-.4536.098-.8607.151-1.2214.074-.3761.127-.6724.158-.8888l.187-1.2716c.101-.6853.182-1.3643.244-2.037.08-.6699.168-1.3386.266-2.0059.053-.3607.121-.8207.203-1.3798.1-.5564.251-1.0869.455-1.5915.205-.5225.48-.952.824-1.2884s.796-.4636 1.355-.3815c.253.037.466.1513.641.3427.174.1915.317.415.426.6706.128.2583.218.5294.268.8131.069.2865.115.5328.14.7392.218-.2261.461-.4391.73-.6392.287-.1974.597-.3638.93-.4991.333-.1354.697-.2294 1.091-.282.395-.0526.836-.0432 1.323.0282.92.135 1.599.465 2.038.99.459.5097.757 1.1153.894 1.8171.157.6863.207 1.4122.15 2.1777-.057.7654-.131 1.4548-.221 2.068-.045.3066-.139.7626-.283 1.3678-.142.5873-.33 1.2414-.565 1.9623-.214.7056-.477 1.4316-.789 2.178-.31.7284-.646 1.3884-1.009 1.9799-.363.5916-.763 1.058-1.2 1.3992-.419.3438-.863.4814-1.332.4125zm15.47-13.7036c-.077.523-.314.8843-.712 1.0839-.38.2022-.803.3888-1.27.5597-.465.1529-.9.3562-1.306.6099-.388.2563-.626.6911-.716 1.3043-.048.3247-.017.6148.093.8705.128.2583.285.5025.473.7326.208.2148.432.4412.674.6793.241.2381.452.4993.631.7836.198.2869.342.6213.433 1.0032.11.3845.126.8383.049 1.3614-.111.7575-.419 1.4769-.925 2.1581-.484.6659-1.075 1.2424-1.773 1.7295-.678.4718-1.42.8234-2.228 1.0549-.808.2316-1.581.2931-2.321.1845-.306-.045-.609-.117-.908-.2161-.301-.0811-.569-.2033-.803-.3666-.216-.1606-.389-.3611-.519-.6014-.128-.2582-.166-.5677-.113-.9285.074-.505.23-.8782.468-1.1196.241-.2595.527-.4479.857-.5652.331-.1173.674-.1959 1.03-.2358.374-.0373.723-.0965 1.048-.1778.328-.0993.607-.2426.837-.4299s.375-.4793.433-.8761c.055-.3788-.041-.7891-.289-1.2309-.228-.4571-.489-.9376-.784-1.4415-.292-.5218-.553-1.0668-.782-1.6348-.212-.5654-.272-1.1638-.179-1.795.114-.7756.372-1.4655.773-2.0698.423-.6197.932-1.1346 1.526-1.5448.613-.4076 1.281-.6964 2.007-.8663.727-.188 1.47-.2264 2.227-.1153.289.0424.565.1105.827.2043.281.0964.519.2327.714.4087.198.1581.343.3636.435.6166.112.2376.143.5277.093.8704zm3.924 16.5774c-.92-.135-1.687-.4963-2.301-1.0838-.614-.5876-1.1-1.2945-1.458-2.1208-.357-.8264-.586-1.7166-.685-2.6709-.097-.9723-.08-1.9093.053-2.8111.14-.9559.402-1.9217.784-2.8973.386-.9936.883-1.8695 1.491-2.6277.612-.7762 1.335-1.3703 2.169-1.7822.837-.4299 1.778-.5681 2.824-.4146 1.01.1483 1.826.5535 2.447 1.2159.642.6469 1.119 1.417 1.43 2.3102.314.8751.489 1.8129.527 2.8133.037 1.0004-.035 1.9295-.216 2.7873-.194.948-.489 1.8904-.884 2.8273-.378.9395-.858 1.7627-1.441 2.4694-.582.7067-1.27 1.2506-2.063 1.6317s-1.685.4989-2.677.3533zm2.065-12.1887c-.271-.0397-.536.0689-.794.3257-.241.2594-.464.586-.669.9797-.187.3963-.351.8236-.492 1.2819-.139.4403-.233.8318-.283 1.1745-.064.4329-.097.9071-.098 1.4227.016.5182.064 1.0044.145 1.4584.083.436.203.8129.359 1.1306.177.3023.4.4733.671.513.288.0423.552-.0572.79-.2986.256-.2388.478-.5564.665-.9527s.343-.8339.469-1.3129c.128-.4971.224-.9621.287-1.3949.059-.3968.086-.835.083-1.3145-.001-.4976-.043-.9644-.126-1.4004-.066-.4333-.187-.8011-.364-1.1034-.158-.2997-.373-.4694-.643-.5091zm23.032 5.9504c-.05.3426-.119.8116-.206 1.4068-.085.5771-.196 1.2057-.332 1.8858-.119.6827-.275 1.3692-.468 2.0593-.191.6722-.427 1.2732-.707 1.8032-.263.5327-.565.9582-.906 1.2766-.342.3183-.738.4444-1.189.3783-.397-.0583-.679-.2656-.848-.622-.148-.3718-.234-.7898-.258-1.2539s-.011-.932.04-1.4036c.069-.4689.123-.8387.163-1.1092.119-.8116.262-1.6012.43-2.3688s.312-1.5572.431-2.3689c.013-.0901.037-.2525.071-.4869.035-.2345.051-.4716.049-.7114-.001-.2397-.034-.4564-.098-.65-.045-.191-.149-.2983-.312-.3222-.324-.0476-.611.0853-.86.3989-.246.2955-.465.6595-.657 1.0919-.193.4323-.349.87-.469 1.313-.118.4249-.202.7442-.252.958-.07.2292-.158.5756-.263 1.0393-.087.4662-.198.975-.334 1.5261-.118.5539-.275 1.1204-.471 1.6997-.175.564-.379 1.0775-.613 1.5406-.213.4478-.459.8078-.739 1.08-.279.2722-.59.3831-.933.3328-.433-.0635-.739-.3018-.917-.715-.179-.4132-.286-.8802-.32-1.4011s-.031-1.0455.01-1.5738c.059-.5257.109-.9328.152-1.2214.045-.3066.088-.6042.131-.8928.06-.2859.113-.5822.158-.8888.018-.1262.049-.3337.091-.6222.042-.2886.08-.6056.112-.9509.053-.3607.089-.7331.109-1.1172.037-.3814.051-.7293.042-1.0439-.006-.3326-.049-.606-.128-.8203s-.191-.332-.335-.3532c-.235-.0344-.474.0872-.717.3647-.241.2594-.464.586-.669.9796-.202.3757-.378.7552-.526 1.1388-.131.3862-.209.6695-.236.8498l-.023.1624c-.127.8657-.198 1.7213-.211 2.5669-.014.8455-.084 1.7011-.211 2.5669-.074.505-.305.9501-.694 1.3353-.385.3672-.866.5084-1.444.4237-.414-.0609-.735-.2644-.96-.6108-.223-.3643-.388-.8122-.494-1.3437s-.17-1.1028-.191-1.7138c0-.6265.025-1.2309.073-1.8134.051-.6005.102-1.1365.153-1.6081.072-.4869.125-.8477.159-1.0821.04-.2706.089-.6687.148-1.1944.076-.523.169-1.0898.277-1.7004.126-.6079.271-1.2222.436-1.8429.168-.6387.371-1.2077.61-1.7069s.509-.8926.809-1.1802c.321-.303.688-.424 1.103-.3632.469.0688.829.2507 1.081.5455.269.2975.367.6988.293 1.2038-.016.1082-.041.2151-.075.3207-.015.1082-.039.2061-.07.2936.24-.2595.526-.5123.857-.7585.334-.2643.68-.4898 1.039-.6767.38-.2022.77-.3476 1.17-.4363.402-.1068.793-.1323 1.172-.0768.36.053.67.1998.93.4406.259.2407.475.5303.646.8686.174.3204.308.6625.402 1.0263.094.3639.146.7031.155 1.0177.228-.2982.492-.5911.792-.8787.321-.303.653-.5582.997-.7657s.708-.366 1.092-.4754c.403-.1067.803-.131 1.199-.0727.379.0555.684.2385.915.5487s.413.6964.548 1.1583c.138.444.221.9444.25 1.5014.031.5389.045 1.0752.04 1.6088-.002.5156-.027 1.0002-.075 1.4537-.046.4355-.087.7796-.124 1.0321zm18.207 2.672c-.05.3427-.119.8116-.206 1.4068-.085.5771-.195 1.2057-.332 1.8858-.119.6827-.275 1.3692-.468 2.0594-.191.6721-.426 1.2732-.707 1.8032-.262.5326-.564.9581-.906 1.2765-.341.3183-.738.4444-1.188.3783-.397-.0583-.68-.2656-.849-.622-.148-.3718-.234-.7898-.258-1.2539s-.011-.932.04-1.4036c.069-.4689.123-.8386.163-1.1092.119-.8116.263-1.6012.431-2.3688.167-.7676.311-1.5572.43-2.3688.013-.0902.037-.2526.072-.487.034-.2345.05-.4716.049-.7114-.002-.2397-.035-.4564-.098-.65-.046-.1909-.15-.2983-.312-.3222-.325-.0476-.612.0854-.86.3989-.246.2956-.466.6595-.658 1.0919-.193.4324-.349.87-.469 1.313-.118.4249-.202.7443-.251.958-.071.2292-.158.5756-.263 1.0393-.087.4663-.199.975-.335 1.5262-.118.5538-.275 1.1204-.47 1.6997-.175.5639-.38 1.0774-.613 1.5406-.214.4477-.46.8077-.739 1.0799-.28.2722-.591.3832-.934.3329-.432-.0636-.738-.3019-.917-.7151-.179-.4131-.285-.8802-.32-1.401-.034-.5209-.03-1.0455.01-1.5739.059-.5257.11-.9328.152-1.2214.045-.3066.089-.6042.131-.8928.06-.2859.113-.5822.158-.8888.019-.1262.049-.3336.091-.6222.043-.2886.08-.6055.112-.9509.053-.3607.089-.7331.109-1.1171.037-.3814.052-.7294.043-1.044-.007-.3326-.05-.606-.129-.8203-.079-.2142-.191-.332-.335-.3531-.234-.0344-.473.0871-.717.3646-.24.2595-.463.586-.669.9797-.202.3756-.378.7552-.526 1.1387-.13.3862-.209.6695-.235.8499l-.024.1623c-.127.8657-.197 1.7213-.211 2.5669-.013.8455-.084 1.7012-.211 2.5669-.074.505-.305.9501-.693 1.3353-.386.3672-.867.5084-1.444.4237-.415-.0608-.735-.2644-.961-.6107-.223-.3644-.387-.8123-.494-1.3438-.106-.5315-.169-1.1027-.19-1.7138 0-.6265.024-1.2309.072-1.8134.052-.6004.103-1.1365.154-1.608.071-.487.124-.8477.158-1.0822.04-.2705.089-.6687.148-1.1944.077-.523.169-1.0898.277-1.7004.126-.6079.272-1.2222.436-1.8429.168-.6387.371-1.2077.61-1.7069s.509-.8926.809-1.1802c.321-.303.689-.424 1.104-.3632.469.0689.829.2507 1.08.5456.27.2975.368.6987.293 1.2037-.015.1082-.04.2151-.074.3207-.016.1082-.04.2061-.071.2936.241-.2594.527-.5123.857-.7585.334-.2643.68-.4898 1.039-.6766.38-.2022.77-.3477 1.17-.4364.403-.1068.793-.1323 1.172-.0767.361.0529.671.1997.93.4405.26.2407.475.5303.647.8687.174.3203.308.6624.402 1.0263.094.3638.145.703.154 1.0176.228-.2982.492-.5911.793-.8787.32-.303.653-.5582.996-.7657.344-.2075.708-.366 1.093-.4754.402-.1067.802-.1309 1.199-.0727.378.0556.683.2385.914.5487.231.3103.414.6964.549 1.1584.137.4439.22.9444.249 1.5013.032.5389.045 1.0752.04 1.6088-.002.5156-.027 1.0002-.075 1.4538-.045.4355-.087.7795-.124 1.032zm12.518 6.0378c-.09.6132-.377 1.1883-.861 1.7253-.464.5215-1.027.9731-1.691 1.3547-.644.3662-1.32.6446-2.03.8352-.707.1727-1.34.2179-1.899.1359-.956-.1403-1.778-.5005-2.467-1.0806-.668-.5955-1.2-1.3-1.597-2.1136-.396-.8136-.665-1.6821-.806-2.6056-.12-.9389-.118-1.8321.007-2.6798.132-.9018.4-1.8482.803-2.8392.404-.991.921-1.8823 1.553-2.6739.651-.789 1.406-1.4152 2.266-1.8785.878-.4607 1.858-.6116 2.941-.4528.613.09 1.183.2842 1.71.5827.53.2805.975.6405 1.334 1.0801.36.4397.627.9395.803 1.4996s.216 1.1648.121 1.8141c-.125.8477-.422 1.6148-.891 2.3014-.469.6865-1.041 1.2566-1.716 1.7104-.674.4537-1.425.795-2.25 1.0239-.824.2108-1.644.2747-2.461.1917-.004.5336.148.9428.456 1.2276.326.2874.733.4668 1.22.5383.361.0529.726.0143 1.095-.1157.369-.1301.732-.2795 1.088-.4483.359-.1868.705-.3479 1.038-.4833.351-.1327.689-.1753 1.014-.1276.361.0529.668.2178.922.4946s.354.6046.298.9834zm-3.41-7.2714c.034-.2345.007-.4872-.082-.7583-.089-.271-.269-.4264-.54-.4661-.396-.0582-.746.001-1.048.1778-.3.1587-.564.3871-.792.6853-.225.2801-.418.5926-.58.9374-.143.3475-.246.6733-.309.9772.261-.017.569-.0455.925-.0854.374-.0372.725-.1055 1.052-.2048.349-.1147.648-.2734.899-.4761.269-.2.427-.4624.475-.787zm14.658 3.5053c-.255-.019-.469-.0688-.641-.1494-.17-.0986-.34-.1972-.51-.2958-.151-.096-.304-.1829-.459-.2609-.151-.0959-.328-.1494-.529-.1605-.363-.0349-.702.0166-1.017.1546-.297.1407-.583.3291-.857.5652-.256.2388-.491.5176-.703.8365-.21.3008-.384.6069-.522.9183-.086.2085-.18.5356-.282.9812-.082.4302-.16.8978-.234 1.4028-.095.5204-.176 1.0151-.245 1.484s-.141.836-.217 1.1013c-.06.2859-.156.622-.286 1.0082-.128.3682-.298.7117-.511 1.0305-.194.3215-.435.581-.722.7784s-.629.267-1.025.2088c-.307-.045-.564-.1749-.772-.3897-.19-.2121-.345-.4744-.465-.7868-.1-.3277-.174-.698-.224-1.1106-.032-.4101-.045-.8265-.038-1.2492.009-.4408.028-.8803.055-1.3185.046-.4355.087-.8439.125-1.2253.058-.3968.111-.7576.159-1.0822.065-.322.113-.5822.142-.7806.074-.6339.131-1.2705.17-1.9097.059-.6545.135-1.2975.227-1.9287.059-.3968.141-.8361.249-1.3177.108-.4817.273-.9181.496-1.3091.226-.409.513-.7353.862-.9789.367-.2409.83-.3204 1.39-.2383.306.045.553.1826.74.4127.188.2302.323.4988.407.8059.102.3098.165.6323.19.9675.024.3352.026.6394.004.9126.536-.6398 1.107-1.1365 1.711-1.49.607-.3715 1.347-.5117 2.218-.4207.435.0454.852.1527 1.251.3218.42.1537.784.373 1.092.6577.329.2694.575.6003.739.9928.181.3951.245.8375.192 1.3271-.049.5825-.285.9992-.709 1.2502-.423.2511-.907.3459-1.451.2845zm-101.13 5.6097c-.193 1.3166-.439 2.6163-.738 3.899-.281 1.2854-.518 2.5864-.7112 3.903-.1562 1.0641-.284 2.1232-.3834 3.1772-.0814 1.0567-.2001 2.1171-.3563 3.1812-.0424.2886-.103.639-.1819 1.0511-.0763.3942-.1963.7727-.3601 1.1356-.1458.3655-.3557.6663-.6299.9024-.2561.2388-.5916.3278-1.0065.2669-.541-.0794-.9628-.344-1.2653-.7937-.2818-.4651-.4307-.9568-.4468-1.475-.438.599-1.0147 1.0763-1.7302 1.4319-.7154.3556-1.4519.4778-2.2094.3666-.8117-.1191-1.474-.5019-1.9872-1.1483-.4951-.6438-.8828-1.3916-1.1631-2.2435-.2623-.8491-.4291-1.7211-.5005-2.616-.0533-.8922-.0336-1.6539.059-2.2852.0662-.4509.1687-.9609.3075-1.5301s.315-1.1422.5286-1.7188c.2316-.574.4967-1.1247.7952-1.6521.3011-.5454.6471-1.0197 1.0379-1.4229.4089-.4007.8586-.7031 1.3492-.9075.5086-.2017 1.0606-.2589 1.6557-.1716.6493.0953 1.2438.376 1.7834.8421s.9217 1.0012 1.1462 1.6053l.8748-4.2658c.0683-.34.1536-.7329.2559-1.1785.1048-.4636.2418-.8949.4109-1.2939.1872-.3963.4282-.7202.723-.9717.2949-.2515.6858-.3415 1.1727-.2701.5231.0768.9108.2626 1.1618.5575.252.2948.411.6499.479 1.0652.089.3999.109.8267.061 1.2802-.03.4562-.074.8827-.132 1.2795zm-6.1729 11.3648c.0609-.4148.1115-.822.1516-1.2214.0402-.3994.0998-.8052.1787-1.2174-.0738-.2504-.163-.5214-.2676-.8131-.1019-.3098-.2439-.5978-.4259-.864-.1614-.2816-.3564-.5221-.585-.7215-.2287-.1994-.4874-.3202-.7759-.3626-.3247-.0476-.6008.0132-.8283.1825s-.4075.3916-.54.6669c-.1299.2573-.2367.5456-.3204.865-.0657.322-.1158.6002-.1502.8347-.0317.2164-.0613.5437-.0888.9819-.0248.4201-.0239.8532.0028 1.2993.0447.4488.1334.8487.2661 1.1998s.3524.5492.659.5942c.2345.0344.4755.0237.7232-.0321.2504-.0738.4853-.1683.7049-.2834.2403-.1306.4638-.2728.6706-.4267.2276-.1693.4254-.3245.5935-.4657zm17.4039 4.5715c-.048.3247-.128.7459-.241 1.2636-.095.5204-.242 1.0239-.443 1.5103-.198.4685-.458.8632-.782 1.1842-.323.321-.728.4458-1.215.3744-.668-.098-1.15-.3898-1.447-.8756s-.389-1.0521-.276-1.6987c-.651.4203-1.368.7205-2.15.9005-.763.1827-1.524.2185-2.281.1073-.524-.0767-1.001-.2758-1.433-.5971s-.799-.7069-1.101-1.1566c-.303-.4497-.527-.9339-.672-1.4527-.1419-.5367-.1774-1.0486-.106-1.5356.127-.8657.5-1.5848 1.118-2.1574.637-.5699 1.376-1.0234 2.217-1.3604.845-.3552 1.72-.6045 2.625-.748.923-.1408 1.734-.206 2.433-.1956.013-.0902.025-.1714.036-.2435.028-.0695.049-.1493.063-.2395.082-.5591-.005-1.0325-.262-1.4202-.256-.3877-.664-.6226-1.223-.7046-.451-.0662-.851-.0419-1.199.0727-.346.0967-.678.223-.995.3791-.315.138-.629.267-.941.387-.31.1019-.645.1264-1.006.0735-.397-.0583-.721-.2348-.973-.5297-.233-.2922-.321-.6367-.262-1.0335.087-.5952.338-1.1111.752-1.5478.432-.434.933-.775 1.504-1.0228.591-.2633 1.207-.4401 1.847-.5305.66-.1058 1.252-.1203 1.775-.0435.487.0715.964.206 1.433.4038.471.1796.904.4275 1.3.7435.399.298.743.6525 1.033 1.0635.31.3957.539.8438.687 1.3445.226.715.383 1.4658.471 2.2524.089.7686.13 1.5576.122 2.3671-.006.7914-.049 1.5866-.129 2.3855-.078.7808-.171 1.541-.279 2.2804zm-4.202-1.5009.189-1.8516c-.036-.0053-.072-.0106-.108-.0159-.034-.0233-.069-.0376-.105-.0429-.234-.0345-.541-.015-.92.0583-.359.0579-.716.1713-1.073.3401-.353.1507-.666.3352-.938.5533-.253.2207-.4.4663-.439.7369-.037.2525.028.4371.195.5537.167.1167.368.1922.602.2266.397.0582.835.0212 1.315-.111.483-.1503.91-.2994 1.282-.4475zm12.837 7.4388c-.306-.045-.529-.225-.667-.54-.14-.297-.229-.6325-.267-1.0065-.037-.3739-.047-.7439-.03-1.1099.037-.3814.071-.6713.1-.8697.079-.5411.186-1.0782.319-1.6113.152-.5305.303-1.061.455-1.5915.169-.5279.321-1.0584.455-1.5915.151-.5305.267-1.0663.346-1.6073.032-.2165.057-.4523.076-.7074.019-.2552.008-.4963-.032-.7233-.02-.2424-.091-.4463-.214-.6118-.123-.1654-.302-.2654-.537-.2998-.162-.0238-.362.085-.6.3264-.236.2234-.469.4932-.699.8094-.21.3008-.404.6133-.58.9375-.156.3088-.246.5443-.27.7066-.058.3968-.117.8026-.178 1.2175-.04.3994-.091.8065-.152 1.2213l-.23 1.5692c-.066.322-.142.6517-.228.9891-.087.3374-.19.6631-.309.9771-.102.3167-.23.6205-.383.9112-.15.2727-.333.513-.548.721-.194.1926-.419.3439-.674.4538-.256.1098-.546.141-.871.0933-.361-.0529-.641-.2138-.841-.4827s-.346-.5943-.437-.9762c-.089-.3999-.136-.8306-.142-1.2921.015-.4769.036-.9344.063-1.3725.048-.4536.099-.8607.152-1.2214.073-.3761.126-.6724.158-.8888l.186-1.2716c.101-.6853.182-1.3643.244-2.037.08-.6699.169-1.3386.267-2.0059.053-.3608.12-.8207.202-1.3798.1-.5565.252-1.0869.455-1.5915.206-.5225.48-.952.825-1.2884.344-.3364.795-.4636 1.355-.3815.252.037.466.1513.64.3427.175.1915.317.415.427.6706.128.2583.217.5294.267.8131.069.2865.116.5328.141.7392.217-.2261.46-.4391.729-.6392.287-.1974.597-.3638.93-.4991.333-.1354.697-.2294 1.092-.282.394-.0527.835-.0432 1.322.0282.92.135 1.599.465 2.038.99.46.5097.758 1.1153.894 1.8171.157.6863.207 1.4122.15 2.1777-.057.7654-.13 1.4548-.22 2.068-.045.3066-.14.7626-.284 1.3678-.141.5873-.329 1.2414-.564 1.9623-.214.7056-.477 1.4316-.79 2.178-.309.7284-.646 1.3884-1.009 1.9799-.363.5916-.763 1.058-1.2 1.3992-.419.3438-.863.4814-1.332.4125zm15.47-13.7036c-.076.523-.314.8843-.711 1.0839-.38.2022-.804.3888-1.271.5597-.465.1529-.9.3562-1.306.6099-.387.2563-.626.6911-.716 1.3043-.048.3247-.017.6148.093.8705.128.2582.286.5025.473.7326.208.2148.433.4412.674.6793.242.2381.452.4993.631.7836.198.2869.342.6213.434 1.0032.109.3845.125.8383.049 1.3614-.112.7575-.42 1.4769-.925 2.1581-.485.6659-1.076 1.2424-1.774 1.7295-.677.4718-1.42.8234-2.228 1.0549-.807.2316-1.581.2931-2.32.1845-.307-.045-.61-.117-.908-.2161-.302-.0811-.569-.2033-.803-.3666-.216-.1606-.39-.3611-.52-.6014-.128-.2582-.165-.5677-.113-.9285.075-.505.231-.8782.469-1.1196.241-.2595.526-.4479.857-.5652.33-.1173.673-.1959 1.029-.2358.374-.0373.724-.0965 1.049-.1778.327-.0993.606-.2426.837-.4299.23-.1873.374-.4793.432-.8761.056-.3788-.041-.7891-.289-1.2309-.228-.4571-.489-.9376-.783-1.4415-.292-.5218-.553-1.0668-.783-1.6348-.212-.5654-.271-1.1638-.179-1.795.114-.7756.372-1.4655.774-2.0698.422-.6197.931-1.1346 1.525-1.5448.613-.4076 1.282-.6964 2.007-.8663.728-.188 1.47-.2264 2.228-.1153.288.0424.564.1105.826.2043.281.0964.519.2327.714.4087.198.1581.343.3636.435.6166.112.2376.144.5277.093.8704zm12.884.3431c-.143.9739-.332 1.9503-.568 2.929-.215.9634-.396 1.941-.541 2.933-.188 1.2806-.34 2.5664-.456 3.8575-.097 1.2938-.242 2.59-.432 3.8886-.048.3247-.12.6918-.217 1.1013-.094.3915-.239.748-.433 1.0695-.177.3242-.418.5836-.723.7784-.305.1947-.682.259-1.133.1929-.433-.0636-.78-.3356-1.041-.8161-.246-.4598-.43-1.0302-.551-1.7113-.1-.6964-.163-1.4611-.188-2.2939-.007-.8301.009-1.6292.048-2.3973.059-.7835.118-1.4935.174-2.1301.077-.6519.138-1.1312.183-1.4378.051-.3427.133-.8374.246-1.484.131-.644.298-1.3382.499-2.0824.201-.7443.431-1.4936.689-2.248.279-.7698.591-1.4518.936-2.046.348-.6122.722-1.0916 1.123-1.4381.422-.3619.876-.5071 1.363-.4356.397.0582.674.2372.833.5368.18.2843.287.6224.321 1.0144.037.374.035.7697-.008 1.1871-.04.3995-.082.7435-.124 1.0321zm11.692 13.5444c-.09.6132-.377 1.1883-.861 1.7252-.463.5216-1.027.9732-1.691 1.3548-.643.3662-1.32.6446-2.03.8352-.707.1726-1.34.2179-1.899.1359-.956-.1403-1.778-.5005-2.467-1.0806-.668-.5955-1.2-1.3001-1.596-2.1136-.397-.8136-.666-1.6822-.806-2.6056-.121-.9389-.118-1.8321.006-2.6798.132-.9018.4-1.8482.804-2.8392.403-.991.921-1.8823 1.553-2.6739.65-.789 1.405-1.4152 2.265-1.8785.878-.4607 1.859-.6116 2.941-.4528.613.09 1.183.2842 1.711.5827.53.2805.974.6405 1.334 1.0801.359.4397.626.9395.802 1.4996s.216 1.1648.121 1.8141c-.125.8477-.421 1.6148-.891 2.3014-.469.6865-1.041 1.2566-1.715 1.7104-.675.4537-1.425.795-2.251 1.0239-.823.2108-1.643.2747-2.46.1917-.005.5336.147.9428.455 1.2275.327.2875.733.4669 1.22.5384.361.0529.726.0143 1.095-.1157.369-.1301.732-.2795 1.088-.4483.359-.1869.705-.3479 1.038-.4833.352-.1327.689-.1753 1.014-.1276.361.0529.668.2178.922.4946.255.2768.354.6046.298.9834zm-3.41-7.2714c.035-.2345.007-.4873-.082-.7583s-.269-.4264-.539-.4661c-.397-.0582-.747.001-1.049.1778-.3.1586-.564.3871-.792.6853-.225.2801-.418.5926-.579.9374-.143.3475-.247.6732-.31.9772.261-.017.569-.0455.925-.0854.374-.0372.725-.1055 1.053-.2048.348-.1147.648-.2734.899-.4761.268-.2.427-.4624.474-.787zm13.896-1.4706c-.077.5231-.314.8844-.712 1.0839-.379.2022-.803.3888-1.27.5598-.465.1529-.9.3562-1.306.6098-.387.2564-.626.6911-.716 1.3043-.048.3247-.017.6148.093.8705.128.2583.286.5025.473.7327.208.2147.433.4412.674.6793.242.2381.452.4992.631.7835.198.2869.342.6213.434 1.0032.109.3846.125.8384.049 1.3614-.112.7575-.42 1.4769-.925 2.1581-.485.6659-1.076 1.2424-1.774 1.7295-.677.4718-1.42.8235-2.228 1.055-.807.2315-1.581.293-2.321.1845-.306-.045-.609-.1171-.907-.2162-.302-.0811-.569-.2033-.803-.3666-.216-.1606-.39-.3611-.52-.6013-.128-.2583-.166-.5678-.113-.9285.075-.5051.231-.8783.469-1.1197.24-.2595.526-.4478.856-.5652.331-.1173.674-.1959 1.03-.2358.374-.0372.724-.0965 1.049-.1777.327-.0993.606-.2426.837-.43.23-.1873.374-.4793.432-.8761.056-.3788-.041-.789-.289-1.2308-.228-.4572-.489-.9377-.783-1.4416-.292-.5218-.553-1.0668-.783-1.6348-.212-.5654-.271-1.1637-.179-1.795.114-.7755.372-1.4655.774-2.0698.422-.6197.931-1.1346 1.525-1.5448.613-.4076 1.282-.6963 2.007-.8663.728-.188 1.47-.2264 2.228-.1152.288.0423.564.1104.826.2042.281.0965.519.2327.714.4088.198.158.343.3635.435.6165.112.2376.144.5277.093.8704zm-85.9267 13.1195c-.0648.4419-.2814 1.0388-.6497 1.7911-.3367.756-.7686 1.612-1.2956 2.566-.4907.928-1.0539 1.909-1.6895 2.944-.5994 1.009-1.1941 1.985-1.7842 2.931-.5855.913-1.1301 1.768-1.6339 2.565-.5039.797-.901 1.415-1.1914 1.856-.5493.887-1.2461 2.01-2.0904 3.369-.8397 1.328-1.7337 2.696-2.682 4.105-.9437 1.377-1.9073 2.67-2.8909 3.88-.9474 1.183-1.8058 2.088-2.5752 2.717s-1.6117.876-2.527.742c-.6944-.102-1.2459-.409-1.6545-.92-.4086-.512-.5596-1.13-.4531-1.856.1436-.979.5202-2.116 1.1297-3.413.641-1.293 1.3475-2.592 2.1195-3.897.8081-1.332 1.6251-2.615 2.4509-3.848s1.5291-2.291 2.1099-3.173c1.094-1.741 2.1833-3.452 3.2679-5.13 1.0893-1.71 2.1809-3.436 3.2749-5.178-.4327-.128-.8992-.245-1.3995-.351-.4688-.101-.9242-.184-1.3661-.249-1.6097-.2358-3.2853-.3527-5.0267-.3503-1.7053-.0246-3.3702.0051-4.9946.0892-.1625.0084-.4015-.0106-.7171-.0569-.726-.1066-1.2933-.4155-1.7019-.9269-.377-.5067-.5122-1.123-.4057-1.849.1112-.7575.4609-1.3833 1.0493-1.8773.62-.4894 1.3681-.8632 2.2443-1.1215.9124-.2853 1.8921-.4801 2.9392-.5843 1.0787-.0997 2.1188-.1566 3.1204-.1709 1.0332-.0095 1.9782.0324 2.835.1259.8615.062 1.5447.13 2.0497.2041.5366.0787 1.3029.2396 2.299.4825 1.0324.216 2.0712.4974 3.1165.8443 1.0816.3199 2.0568.7048 2.9259 1.1548.8736.4184 1.4335.8875 1.6796 1.4072.1301.2126.1812.4135.1534.6029.0084.1625-.0036.3542-.0361.5751zm21.5947 1.8151c-.065.442-.252.833-.56 1.175-.303.31-.663.564-1.079.761s-.856.342-1.321.435c-.46.061-.88.064-1.259.008-.631-.092-1.16-.331-1.587-.716s-.592-.909-.495-1.572c.069-.474.24-.8678.512-1.1826.308-.3417.652-.5975 1.032-.7675.415-.1969.838-.3284 1.267-.3944.46-.0614.895-.062 1.306-.0018.599.088 1.128.3269 1.587.7166.495.3628.694.8756.597 1.5387zm-2.116 20.679c-.218 1.484-.509 3.134-.872 4.951-.327 1.789-.783 3.576-1.367 5.361-.553 1.789-1.265 3.458-2.137 5.006-.8725 1.549-1.9577 2.792-3.2561 3.73-.7193.507-1.5536 1.03-2.5031 1.567-.9495.538-1.9551 1.019-3.017 1.444-1.0302.429-2.0601.745-3.0895.949-1.034.235-1.9929.288-2.8767.158-1.01-.148-1.71-.541-2.1001-1.179-.4263-.61-.5676-1.405-.424-2.383.1482-1.01.5277-1.728 1.1384-2.155.6106-.426 1.3383-.771 2.183-1.034.8446-.263 1.7751-.561 2.7915-.896.9802-.307 1.932-.861 2.8554-1.66.9234-.8 1.7669-1.934 2.5304-3.401.7682-1.5 1.3399-3.528 1.715-6.084.2363-1.61.4363-3.193.6002-4.749.1638-1.556.3007-3.148.4107-4.776.0712-.924.1424-1.849.2136-2.774.0758-.956.1809-1.892.3153-2.807.0833-.568.2502-1.156.5007-1.764s.5706-1.142.9603-1.6c.3944-.491.851-.859 1.371-1.105.556-.273 1.181-.359 1.876-.257.789.116 1.392.511 1.809 1.185.448.678.761 1.514.938 2.507.213.966.296 2.043.251 3.229-.009 1.16-.063 2.296-.162 3.41-.094 1.083-.208 2.081-.343 2.997-.134.915-.238 1.625-.312 2.13zm10.864 15.282c-1.61-.237-2.952-.869-4.026-1.897-1.075-1.028-1.925-2.265-2.551-3.711-.626-1.447-1.026-3.005-1.2-4.674-.17-1.702-.139-3.342.093-4.92.245-1.673.703-3.363 1.373-5.07.674-1.739 1.544-3.272 2.609-4.599 1.07-1.358 2.335-2.398 3.795-3.118 1.465-.753 3.112-.995 4.943-.726 1.767.259 3.195.969 4.282 2.128 1.124 1.132 1.958 2.48 2.502 4.043.549 1.531.857 3.172.922 4.923.066 1.751-.06 3.377-.377 4.878-.34 1.659-.856 3.308-1.548 4.947-.661 1.645-1.501 3.085-2.521 4.322s-2.223 2.189-3.611 2.855c-1.388.667-2.949.873-4.685.619zm3.614-21.331c-.474-.069-.937.121-1.39.57-.421.454-.811 1.026-1.17 1.715-.328.693-.615 1.441-.862 2.243-.242.771-.407 1.456-.495 2.056-.111.757-.168 1.587-.172 2.489.029.907.113 1.758.255 2.553.146.763.355 1.422.628 1.978.309.529.701.828 1.174.898.505.074.966-.1 1.383-.523.448-.418.836-.973 1.163-1.667.328-.693.601-1.459.821-2.298.225-.87.392-1.683.504-2.441.101-.694.149-1.461.144-2.3-.002-.871-.075-1.688-.221-2.451-.114-.758-.326-1.402-.636-1.931-.277-.524-.653-.821-1.126-.891zm32 11.322c-.255 1.736-.681 3.431-1.279 5.085-.597 1.653-1.405 3.098-2.425 4.335-1.015 1.205-2.278 2.116-3.787 2.733-1.478.621-3.242.782-5.294.481-2.02-.297-3.65-.939-4.892-1.927-1.237-1.02-2.168-2.253-2.794-3.699-.595-1.442-.943-3.024-1.045-4.748-.07-1.719.023-3.447.277-5.183.278-1.894.775-3.739 1.49-5.537.169-.491.444-1.16.827-2.006.418-.874.895-1.707 1.43-2.499.572-.819 1.172-1.504 1.801-2.057.661-.548 1.323-.773 1.986-.676.631.093 1.111.341 1.438.743.328.403.563.889.705 1.458.147.537.208 1.111.183 1.72-.02.577-.065 1.102-.134 1.576-.107.726-.274 1.427-.502 2.103-.197.68-.409 1.358-.637 2.034-.266.928-.531 1.857-.796 2.785-.234.933-.42 1.873-.559 2.82-.069.473-.132 1.012-.189 1.617-.02.577.025 1.148.136 1.712.11.565.311 1.062.603 1.491.296.399.76.644 1.391.737.821.12 1.5-.006 2.039-.378.57-.368 1.014-.867 1.332-1.498.35-.625.612-1.312.786-2.061.174-.748.308-1.438.4-2.069.204-1.389.309-2.76.314-4.113.01-1.385.037-2.784.083-4.196-.008-.162.009-.385.05-.669.07-.474.218-.936.446-1.386.227-.45.51-.844.85-1.181s.731-.586 1.174-.747c.447-.192.923-.251 1.428-.177.695.102 1.273.445 1.735 1.029.468.552.817 1.248 1.048 2.088.268.813.44 1.725.518 2.736.113.984.164 1.958.151 2.924.023.938-.009 1.82-.098 2.645-.058.83-.121 1.482-.19 1.955zm19.927-1.331c-.446-.033-.82-.12-1.122-.261-.297-.173-.594-.346-.891-.518-.266-.168-.534-.32-.804-.457-.265-.168-.574-.261-.926-.281-.636-.061-1.229.029-1.781.271-.519.246-1.019.576-1.499.989-.448.418-.858.906-1.23 1.464-.368.526-.672 1.062-.913 1.607-.151.365-.315.937-.494 1.717-.143.753-.279 1.571-.409 2.455-.166.911-.309 1.776-.429 2.597-.121.821-.247 1.463-.38 1.927-.106.501-.272 1.089-.501 1.765-.223.644-.521 1.245-.893 1.803-.341.563-.762 1.017-1.264 1.362-.502.346-1.1.467-1.795.366-.536-.079-.987-.307-1.351-.682-.332-.372-.603-.831-.813-1.377-.174-.574-.304-1.222-.392-1.944-.056-.717-.078-1.446-.066-2.186.016-.771.049-1.541.097-2.307.079-.762.152-1.477.218-2.145.102-.694.194-1.325.278-1.893.115-.564.198-1.019.248-1.367.131-1.109.23-2.223.297-3.341.104-1.146.237-2.271.399-3.376.102-.694.247-1.463.435-2.306s.478-1.606.868-2.291c.396-.715.899-1.286 1.509-1.713.643-.421 1.453-.56 2.431-.417.537.079.969.32 1.297.723.328.402.565.872.712 1.41.178.542.289 1.106.332 1.693s.045 1.119.007 1.597c.938-1.12 1.936-1.989 2.995-2.607 1.062-.651 2.356-.896 3.88-.737.762.08 1.492.268 2.19.563.735.269 1.372.653 1.911 1.151.576.472 1.007 1.051 1.293 1.738.318.691.43 1.465.336 2.322-.085 1.02-.498 1.749-1.24 2.188-.741.439-1.588.605-2.54.498zm19.12-5.706c-.135.915-.55 1.547-1.246 1.897-.665.353-1.406.68-2.224.979-.813.268-1.574.623-2.284 1.067-.679.449-1.097 1.21-1.254 2.283-.083.568-.029 1.076.163 1.523.224.452.5.88.828 1.282.364.376.757.772 1.18 1.189.422.417.79.874 1.104 1.371.346.502.598 1.088.758 1.756.192.673.22 1.467.086 2.382-.195 1.326-.734 2.585-1.618 3.777-.849 1.165-1.883 2.174-3.105 3.027-1.185.825-2.484 1.441-3.898 1.846s-2.767.513-4.062.323c-.536-.079-1.066-.205-1.588-.379-.528-.141-.996-.355-1.406-.641-.377-.281-.681-.632-.909-1.052-.224-.452-.29-.994-.197-1.625.13-.884.403-1.537.82-1.96.421-.454.921-.783 1.499-.989.578-.205 1.179-.343 1.802-.412.654-.066 1.266-.169 1.835-.312.573-.173 1.062-.424 1.464-.752.403-.328.655-.839.757-1.533.098-.663-.071-1.381-.506-2.154-.398-.8-.855-1.641-1.371-2.523-.51-.913-.967-1.867-1.369-2.861-.371-.989-.475-2.036-.313-3.141.199-1.357.65-2.565 1.354-3.622.739-1.085 1.629-1.986 2.67-2.704 1.072-.713 2.242-1.218 3.511-1.516 1.273-.329 2.573-.396 3.899-.201.505.074.987.193 1.446.357.492.169.908.407 1.25.716.346.276.599.636.76 1.078.197.416.252.924.164 1.524zm-150.2151 36.033c-.0476.325-.1278.746-.2407 1.264-.0948.52-.2424 1.024-.4427 1.51-.1977.469-.4583.863-.7818 1.184s-.7287.446-1.2157.375c-.6673-.098-1.1496-.39-1.4468-.876s-.3891-1.052-.2758-1.699c-.6512.421-1.3678.721-2.1496.901-.7638.183-1.5245.218-2.282.107-.523-.076-1.0005-.275-1.4323-.597-.4319-.321-.7991-.707-1.1016-1.156-.3025-.45-.5262-.934-.6712-1.453-.1423-.537-.1777-1.049-.1063-1.536.1271-.865.4998-1.585 1.1181-2.157.6364-.57 1.3754-1.023 2.2171-1.361.8444-.355 1.7193-.604 2.6247-.747.9235-.141 1.7345-.207 2.4331-.196.0133-.09.0252-.171.0358-.244.0286-.069.0495-.149.0628-.239.082-.559-.0051-1.033-.2614-1.42-.2564-.388-.6641-.623-1.2232-.705-.4509-.066-.8506-.042-1.1991.073-.3458.096-.6775.223-.9952.379-.3151.138-.6288.267-.9412.387-.3097.102-.645.126-1.0057.073-.3968-.058-.7209-.234-.9725-.529-.2334-.292-.3211-.637-.2628-1.034.0873-.595.3381-1.111.7522-1.548.4322-.434.9336-.775 1.5043-1.022.5914-.264 1.2069-.441 1.8466-.531.6604-.106 1.2521-.12 1.7751-.043.487.071.9647.206 1.4332.403.471.18.9045.428 1.3003.744.3985.298.7426.652 1.0323 1.063.3104.396.5395.844.6871 1.345.2267.715.3836 1.466.4709 2.252.0898.769.1307 1.558.1224 2.367-.0056.792-.0486 1.587-.129 2.386-.0777.781-.1708 1.541-.2794 2.28zm-4.2016-1.501.1889-1.851c-.0361-.006-.0722-.011-.1083-.016-.0334-.023-.0681-.038-.1042-.043-.2345-.034-.5413-.015-.9206.058-.3585.058-.716.172-1.0724.34-.3538.151-.6664.336-.938.554-.2535.22-.4.466-.4397.737-.0371.252.0279.437.1951.553.1671.117.3679.192.6023.227.3968.058.8352.021 1.3153-.111.4826-.15.9098-.3 1.2816-.448zm18.8389-.69c-.1164.794-.335 1.656-.6556 2.585-.3.914-.7169 1.746-1.2509 2.497-.5159.754-1.1472 1.352-1.8939 1.795-.7287.446-1.5891.596-2.5811.45-.2525-.037-.5113-.093-.7766-.169-.2652-.076-.5175-.177-.7568-.304-.2212-.125-.4204-.274-.5976-.447-.1746-.192-.2975-.422-.3686-.69l-.8152 3.86c-.079.412-.1698.905-.2725 1.48-.0847.577-.2376 1.117-.4586 1.618-.2031.505-.4934.914-.8709 1.227-.3622.334-.8409.457-1.4361.369-.3427-.05-.6048-.273-.7863-.668-.1842-.377-.3087-.846-.3736-1.409-.0469-.559-.0574-1.178-.0316-1.856s.0747-1.325.1466-1.941c.072-.616.145-1.176.2191-1.681s.1284-.875.1628-1.109c.1773-1.209.3443-2.409.501-3.602.1593-1.211.3276-2.421.505-3.63.0317-.216.0807-.55.1469-1.001.0688-.469.1609-.971.2764-1.507.1155-.535.2517-1.087.4085-1.653.1749-.564.3779-1.069.609-1.514.2338-.463.4981-.82.793-1.072.2975-.269.6266-.378.9873-.325.2345.035.4313.137.5905.308.1799.155.3171.351.4115.586.1152.219.2007.453.2565.7.0557.248.0961.475.1211.682.6518-.55 1.3622-.934 2.1313-1.152.7871-.217 1.5955-.264 2.4251-.142.8657.127 1.5334.474 2.003 1.04.4877.569.8319 1.237 1.0326 2.003.2188.769.3304 1.578.3349 2.426.0072.83-.0382 1.579-.1362 2.246zm-3.8369-.784c.0397-.27.0523-.545.0379-.823.0063-.294-.0365-.568-.1283-.821-.0712-.268-.2044-.49-.3997-.666-.1926-.194-.4512-.315-.7758-.363-.4329-.063-.914.013-1.4433.231-.5087.201-.9067.465-1.1941.792-.1113.131-.1999.357-.2655.679-.0657.322-.1105.564-.1343.727-.0185.126-.0437.297-.0754.514-.0111.201-.0235.411-.0372.63-.0138.219-.0262.429-.0372.63.0069.204.0295.364.0677.48.0303.17.1251.341.2842.511.1619.153.3431.299.5436.439.2006.14.4051.253.6136.339.2265.089.4209.145.5833.169.3787.055.7065-.044.9833-.298s.5075-.571.692-.949c.2025-.375.3522-.768.4492-1.178.1176-.424.1963-.772.236-1.043zm15.1767.348c-.2552-.019-.4689-.069-.6414-.149-.1697-.099-.3395-.197-.5093-.296-.1517-.096-.3048-.183-.4592-.261-.1517-.096-.3281-.149-.5291-.16-.3634-.035-.7026.016-1.0176.154-.2971.141-.5826.329-.8568.565-.2561.239-.4905.518-.7031.837-.21.301-.3839.607-.5217.918-.0859.209-.18.536-.2822.981-.0816.431-.1594.898-.2335 1.403-.0948.521-.1766 1.015-.2454 1.484s-.1411.836-.2169 1.102c-.0604.285-.1558.622-.2862 1.008-.1277.368-.2979.711-.5105 1.03-.1946.322-.4353.581-.7222.779-.2869.197-.6288.267-1.0256.208-.3066-.045-.5639-.174-.7719-.389-.1899-.212-.3449-.475-.4649-.787-.0993-.328-.1739-.698-.2239-1.111-.032-.41-.0445-.826-.0378-1.249.0094-.441.0279-.88.0553-1.318.0455-.436.087-.844.1246-1.226.0582-.397.1112-.757.1588-1.082.0657-.322.1131-.582.1422-.78.0746-.634.1312-1.271.1697-1.91.0592-.655.1351-1.298.2278-1.929.0582-.397.1411-.836.2486-1.318.1076-.481.2729-.918.4961-1.309.2259-.409.5133-.735.8623-.979.367-.24.83-.32 1.3891-.238.3066.045.5536.183.7409.413s.3229.499.4069.806c.1019.31.1651.632.1896.967s.0259.64.0043.913c.536-.64 1.1064-1.137 1.711-1.49.6073-.372 1.3464-.512 2.2174-.421.4355.046.8527.153 1.2517.322.4196.154.7836.373 1.0919.658.3289.269.5751.6.7386.992.1816.396.2456.838.1922 1.328-.0486.582-.2848.999-.7086 1.25-.4237.251-.9075.346-1.4512.284zm12.857 7.304c-.09.613-.3771 1.188-.8612 1.725-.4634.522-1.0272.973-1.6912 1.355-.6433.366-1.3198.644-2.0295.835-.707.173-1.3401.218-1.8992.136-.9559-.14-1.7782-.501-2.4669-1.081-.668-.595-1.2003-1.3-1.5968-2.113-.3964-.814-.6651-1.682-.8059-2.606-.1202-.939-.1181-1.832.0063-2.68.1324-.901.4002-1.848.8036-2.839s.9211-1.882 1.5531-2.674c.6501-.789 1.4053-1.415 2.2656-1.878.8782-.461 1.8585-.612 2.9406-.453.6132.09 1.1835.284 1.7109.583.53.28.9746.64 1.3338 1.08.3593.439.6268.939.8025 1.499.1758.561.216 1.165.1207 1.815-.1244.847-.4212 1.614-.8905 2.301-.4692.686-1.0411 1.257-1.7157 1.71-.6746.454-1.4248.795-2.2507 1.024-.8231.211-1.6432.275-2.4601.192-.0046.533.1472.943.4555 1.227.3263.288.7329.467 1.2199.539.3607.053.7257.014 1.0948-.116.3692-.13.7319-.279 1.0884-.448.359-.187.7051-.348 1.0382-.484.3511-.132.689-.175 1.0136-.127.3607.053.6682.218.9223.495.2542.276.3535.604.2979.983zm-3.41-7.272c.0344-.234.007-.487-.0822-.758s-.2691-.426-.5396-.466c-.3968-.058-.7463.001-1.0486.178-.2997.159-.5635.387-.7915.685-.2254.28-.4186.593-.5798.938-.1431.347-.2462.673-.3092.977.2604-.017.5686-.046.9245-.086.374-.037.7249-.105 1.0526-.204.3485-.115.6482-.274.899-.476.2689-.201.4271-.463.4748-.788zm1.5766-6.788c-.0212.144-.1015.252-.241.324-.1188.056-.2504.074-.3946.053-.3247-.048-.6528-.197-.9844-.449-.3109-.267-.5821-.491-.8134-.672-.1464-.132-.3096-.276-.4895-.431-.1618-.153-.321-.323-.4775-.512-.1385-.186-.2577-.379-.3574-.578-.0791-.214-.1041-.42-.075-.619.0397-.27.1733-.49.4008-.66.2302-.187.4805-.261.751-.221.2706.04.5677.212.8914.518.3263.287.6266.626.901 1.016.2923.393.519.795.6798 1.206.1789.413.2485.755.2088 1.025zm12.3193 5.318c-.0767.523-.314.884-.7118 1.084-.3797.202-.8032.389-1.2705.56-.4646.152-.8998.356-1.3055.609-.3877.257-.6265.692-.7165 1.305-.0477.324-.0165.615.0933.87.128.258.2856.503.4729.733.208.215.4327.441.6741.679s.4518.499.6312.784c.1974.287.3418.621.4332 1.003.1094.384.1257.838.0489 1.361-.1112.758-.4194 1.477-.9247 2.158-.4846.666-1.0759 1.243-1.7738 1.73-.6773.472-1.4198.823-2.2276 1.055-.8078.231-1.5815.293-2.3209.184-.3066-.045-.6093-.117-.908-.216-.3013-.081-.5689-.203-.8029-.366-.2159-.161-.3892-.361-.5197-.602-.128-.258-.1654-.568-.1125-.928.0741-.505.2302-.878.4683-1.12.2408-.259.5263-.448.8568-.565.3304-.117.6736-.196 1.0295-.236.374-.037.7235-.096 1.0486-.178.3278-.099.6068-.242.837-.43.2301-.187.3743-.479.4325-.876.0556-.378-.0408-.789-.2891-1.231-.2277-.457-.4889-.937-.7834-1.441-.2919-.522-.5528-1.067-.7826-1.635-.2119-.565-.2714-1.164-.1788-1.795.1138-.775.3717-1.465.7736-2.07.4225-.619.9311-1.134 1.5256-1.545.6125-.407 1.2814-.696 2.0064-.866.7277-.188 1.4704-.226 2.2279-.115.2885.042.5641.11.8267.204.2807.097.5186.233.7139.409.1979.158.3427.363.4346.616.1125.238.1436.528.0933.871zm10.4436 17.534c-.9198-.135-1.6867-.496-2.3006-1.084-.6139-.587-1.0997-1.294-1.4575-2.12-.3577-.827-.5864-1.717-.6858-2.671-.0969-.973-.0791-1.91.0532-2.811.1403-.956.4018-1.922.7845-2.898.3853-.993.8824-1.869 1.4911-2.627.6114-.777 1.3342-1.371 2.1686-1.783.837-.43 1.778-.568 2.824-.414 1.01.148 1.826.553 2.447 1.216.642.647 1.119 1.417 1.43 2.31.314.875.489 1.813.527 2.813.037 1.001-.035 1.93-.216 2.787-.194.948-.489 1.891-.884 2.828-.378.939-.858 1.762-1.441 2.469-.582.707-1.27 1.251-2.063 1.632s-1.685.499-2.6775.353zm2.0655-12.189c-.271-.039-.536.069-.794.326-.241.26-.464.586-.669.98-.187.396-.351.823-.492 1.282-.1386.44-.2329.832-.2832 1.174-.0636.433-.0963.907-.0983 1.423.0161.518.0645 1.004.1453 1.458.0834.436.2032.813.3592 1.131.177.302.4.473.671.513.288.042.552-.057.79-.299.256-.238.478-.556.665-.952.187-.397.343-.834.469-1.313.128-.497.224-.962.287-1.395.059-.397.086-.835.083-1.315-.001-.497-.043-.964-.126-1.4-.066-.433-.187-.801-.363-1.103-.159-.3-.374-.47-.644-.51zm18.285 6.47c-.145.992-.389 1.961-.73 2.905-.341.945-.803 1.771-1.386 2.478-.58.688-1.302 1.209-2.164 1.561-.844.356-1.853.447-3.025.275-1.154-.169-2.086-.536-2.796-1.101-.706-.583-1.238-1.287-1.596-2.114-.34-.823-.539-1.728-.597-2.713-.04-.982.013-1.969.158-2.961.159-1.082.443-2.137.851-3.164.097-.281.254-.663.473-1.147.239-.499.511-.975.817-1.427.327-.468.67-.86 1.03-1.176.377-.313.755-.442 1.134-.386.361.053.635.194.822.424.187.231.322.508.403.833.084.307.119.635.104.983-.011.33-.037.63-.076.901-.061.415-.157.815-.287 1.201-.113.389-.234.777-.364 1.163-.152.53-.303 1.061-.455 1.591-.134.533-.24 1.071-.319 1.612-.04.27-.076.578-.108.923-.012.33.014.657.077.979.063.323.178.607.345.852.169.228.434.368.795.421.469.069.857-.003 1.165-.216.325-.21.579-.495.761-.856.2-.357.349-.75.449-1.177.1-.428.176-.822.229-1.183.116-.793.176-1.577.179-2.35.006-.792.022-1.591.048-2.398-.005-.093.005-.22.028-.382.04-.271.125-.535.255-.792.13-.258.292-.482.486-.675s.417-.335.67-.427c.256-.11.528-.143.817-.101.396.058.727.254.991.588.267.315.467.713.599 1.193.153.465.251.986.296 1.563.064.563.093 1.12.086 1.671.013.537-.005 1.04-.056 1.512-.033.474-.069.847-.109 1.117zm13.597.006c-.652 1.175-1.356 2.399-2.114 3.669-.758 1.271-1.547 2.445-2.369 3.522-.502.663-1.033 1.202-1.591 1.618-.556.397-1.15.55-1.781.457-.505-.074-.964-.399-1.377-.976-.392-.592-.744-1.27-1.055-2.034-.291-.78-.537-1.553-.738-2.319-.18-.782-.31-1.4-.391-1.854-.073-.508-.158-1.055-.257-1.641-.098-.585-.177-1.177-.236-1.775-.06-.599-.094-1.184-.102-1.756-.006-.591.029-1.139.103-1.644.103-.703.314-1.262.633-1.675.318-.414.848-.567 1.587-.458.289.042.537.17.745.385.21.197.393.463.546.799s.29.724.409 1.165c.122.424.229.891.32 1.402.093.492.175 1.002.245 1.528s.143 1.034.219 1.524c.075.491.152.972.23 1.444.099.456.243.92.432 1.39.174-.307.372-.655.595-1.046.224-.391.46-.808.709-1.25.267-.44.545-.888.833-1.343.29-.473.596-.926.917-1.358.63-.902 1.266-1.656 1.908-2.262.659-.604 1.26-.865 1.801-.786.505.074.843.28 1.015.619.171.338.221.751.15 1.238-.072.487-.234 1.025-.486 1.614-.252.59-.552 1.19-.9 1.803zm12.433 6.799c-.09.613-.377 1.188-.861 1.725-.463.522-1.027.973-1.691 1.355-.643.366-1.32.645-2.03.835-.707.173-1.34.218-1.899.136-.956-.14-1.778-.5-2.467-1.08-.668-.596-1.2-1.301-1.596-2.114-.397-.814-.666-1.682-.806-2.606-.121-.939-.119-1.832.006-2.68.132-.901.4-1.848.803-2.839.404-.991.922-1.882 1.554-2.674.65-.789 1.405-1.415 2.265-1.878.878-.461 1.859-.612 2.941-.453.613.09 1.183.284 1.711.583.53.28.974.64 1.334 1.08.359.44.626.939.802 1.5.176.56.216 1.164.121 1.814-.125.847-.422 1.614-.891 2.301s-1.041 1.257-1.716 1.71c-.674.454-1.424.795-2.25 1.024-.823.211-1.643.275-2.46.192-.005.534.147.943.455 1.228.326.287.733.466 1.22.538.361.053.726.014 1.095-.116s.732-.279 1.088-.448c.359-.187.705-.348 1.038-.483.352-.133.689-.176 1.014-.128.361.053.668.218.922.495.255.276.354.604.298.983zm-3.41-7.271c.035-.235.007-.488-.082-.759s-.269-.426-.54-.466c-.396-.058-.746.001-1.048.178-.3.159-.564.387-.792.685-.225.28-.418.593-.579.938-.144.347-.247.673-.31.977.261-.017.569-.046.925-.085.374-.038.725-.106 1.053-.205.348-.115.648-.274.898-.476.269-.2.428-.463.475-.787zm14.658 3.505c-.255-.019-.469-.069-.641-.149-.17-.099-.34-.198-.509-.296-.152-.096-.305-.183-.46-.261-.151-.096-.328-.15-.529-.161-.363-.035-.702.017-1.017.155-.297.141-.583.329-.857.565-.256.239-.491.518-.703.837-.21.3-.384.607-.522.918-.086.208-.18.535-.282.981-.082.43-.159.898-.234 1.403-.094.52-.176 1.015-.245 1.484s-.141.836-.217 1.101c-.06.286-.156.622-.286 1.008-.128.369-.298.712-.511 1.031-.194.321-.435.581-.722.778-.287.198-.629.267-1.025.209-.307-.045-.564-.175-.772-.39-.19-.212-.345-.474-.465-.786-.099-.328-.174-.698-.224-1.111-.032-.41-.045-.826-.038-1.249.01-.441.028-.88.055-1.319.046-.435.088-.844.125-1.225.058-.397.111-.758.159-1.082.066-.322.113-.582.142-.781.075-.634.131-1.27.17-1.909.059-.655.135-1.298.228-1.929.058-.397.141-.836.248-1.318.108-.482.273-.918.496-1.309.226-.409.514-.735.863-.979.367-.241.83-.32 1.389-.238.306.045.553.182.741.413.187.23.323.498.406.805.102.31.166.633.19.968.025.335.026.639.004.913.536-.64 1.107-1.137 1.711-1.49.608-.372 1.347-.512 2.218-.421.435.045.853.153 1.251.322.42.153.784.373 1.092.657.329.27.575.601.739.993.182.395.246.838.192 1.327-.048.583-.285.999-.708 1.25-.424.251-.908.346-1.452.285zm6.976 12.355c-1.281-.188-2.257-.507-2.928-.955-.656-.428-1.119-.975-1.39-1.641-.252-.664-.351-1.434-.296-2.31s.16-1.846.316-2.911c.125-.847.276-1.691.455-2.531.181-.858.397-1.765.648-2.723-.252-.038-.452-.058-.599-.061-.144-.021-.262-.038-.352-.051-.577-.085-1.054-.284-1.432-.598-.396-.316-.555-.735-.479-1.258.048-.325.217-.595.506-.81.272-.218.61-.39 1.015-.515.406-.124.832-.209 1.281-.254.467-.042.901-.052 1.304-.03.074-.505.192-1.058.354-1.661s.372-1.152.629-1.649c.278-.512.605-.924.983-1.237.377-.314.819-.433 1.324-.359.288.042.528.17.718.382.21.197.368.441.472.732.108.274.174.579.198.914.025.335.014.656-.031.963-.053.36-.134.726-.244 1.097-.109.371-.277.825-.504 1.363.312.009.522.021.63.037.111-.002.212.004.302.017.307.045.618.118.935.22.335.104.628.24.88.406.27.168.479.374.628.617.151.225.206.481.163.77-.047.325-.225.593-.532.806-.29.216-.646.384-1.07.506-.423.123-.868.205-1.335.247-.464.024-.897.025-1.299.003-.217.723-.399 1.397-.545 2.02-.126.608-.263 1.223-.409 1.847-.082.301-.164.611-.248.931-.063.304-.118.618-.166.943-.034.234-.066.515-.096.842-.027.31-.007.616.059.921.066.304.2.582.403.833.205.233.515.38.93.44.252.037.516.058.792.061.279-.014.553-.001.824.038.469.069.779.28.929.634.169.357.216.787.142 1.292-.055.379-.221.696-.498.95-.256.239-.568.414-.934.526-.369.13-.777.208-1.223.235-.428.029-.832.016-1.21-.039zm17.213-6.373c-.146.992-.389 1.96-.73 2.905-.342.945-.804 1.771-1.387 2.477-.58.689-1.301 1.21-2.163 1.562-.845.355-1.853.447-3.025.275-1.155-.17-2.087-.537-2.796-1.102-.707-.582-1.239-1.287-1.597-2.113-.339-.824-.538-1.728-.596-2.713-.04-.983.012-1.97.158-2.962.159-1.082.442-2.136.851-3.164.097-.28.254-.662.472-1.146.239-.499.512-.975.818-1.428.327-.468.67-.86 1.029-1.175.378-.314.756-.442 1.135-.387.36.053.634.195.822.425.187.23.321.508.403.833.083.307.118.635.104.983-.011.329-.037.63-.077.9-.061.415-.156.816-.287 1.202-.112.389-.233.776-.364 1.162-.151.531-.303 1.061-.454 1.592-.134.533-.24 1.07-.32 1.611-.04.271-.075.579-.108.924-.011.33.015.656.078.979.063.322.178.606.345.852.169.227.434.367.795.42.468.069.857-.003 1.164-.216.326-.21.58-.495.761-.855.2-.358.35-.75.45-1.178.099-.427.176-.822.229-1.182.116-.794.176-1.577.179-2.351.005-.791.021-1.59.047-2.397-.004-.093.005-.221.029-.383.04-.27.124-.534.254-.792.13-.257.292-.482.486-.675.194-.192.418-.334.671-.426.256-.11.528-.144.816-.102.397.059.728.255.992.588.267.316.466.714.599 1.194.152.464.251.985.295 1.563.065.562.094 1.119.087 1.671.013.536-.006 1.04-.056 1.512-.033.474-.069.846-.109 1.117zm11.387-.761c-.255-.019-.469-.069-.641-.149-.17-.099-.34-.198-.509-.296-.152-.096-.305-.183-.46-.261-.151-.096-.328-.15-.529-.161-.363-.035-.702.017-1.017.155-.297.141-.583.329-.857.565-.256.239-.491.518-.703.837-.21.3-.384.606-.522.918-.086.208-.18.535-.282.981-.082.43-.159.898-.234 1.403-.094.52-.176 1.015-.245 1.484s-.141.836-.217 1.101c-.06.286-.156.622-.286 1.008-.128.369-.298.712-.511 1.031-.194.321-.435.581-.722.778-.287.198-.629.267-1.025.209-.307-.045-.564-.175-.772-.39-.19-.212-.345-.474-.465-.786-.099-.328-.174-.698-.224-1.111-.032-.41-.045-.826-.038-1.249.01-.441.028-.881.055-1.319.046-.435.087-.844.125-1.225.058-.397.111-.758.159-1.082.066-.322.113-.582.142-.781.075-.634.131-1.27.17-1.909.059-.655.135-1.298.228-1.929.058-.397.141-.836.248-1.318.108-.482.273-.918.496-1.309.226-.409.514-.735.862-.979.367-.241.831-.32 1.39-.238.306.045.553.182.741.413.187.23.322.498.406.805.102.31.166.633.19.968.025.335.026.639.004.913.536-.64 1.107-1.137 1.711-1.49.608-.372 1.347-.512 2.218-.421.435.045.852.153 1.251.322.42.153.784.373 1.092.657.329.27.575.601.739.993.181.395.246.838.192 1.327-.049.583-.285.999-.708 1.25-.424.251-.908.346-1.452.285zm12.857 7.304c-.09.613-.377 1.188-.861 1.725-.463.521-1.027.973-1.691 1.355-.643.366-1.32.644-2.03.835-.707.172-1.34.218-1.899.136-.956-.141-1.778-.501-2.467-1.081-.668-.595-1.2-1.3-1.596-2.114-.397-.813-.666-1.682-.806-2.605-.121-.939-.118-1.832.006-2.68.132-.902.4-1.848.804-2.839.403-.991.921-1.882 1.553-2.674.65-.789 1.405-1.415 2.265-1.879.878-.46 1.859-.611 2.941-.452.613.09 1.183.284 1.711.582.53.281.974.641 1.334 1.08.359.44.626.94.802 1.5s.216 1.165.121 1.814c-.125.848-.421 1.615-.891 2.302-.469.686-1.041 1.256-1.715 1.71-.675.454-1.425.795-2.251 1.024-.823.211-1.643.275-2.46.192-.005.533.147.942.455 1.227.327.287.733.467 1.22.538.361.053.726.015 1.095-.115s.732-.28 1.088-.449c.359-.186.705-.348 1.038-.483.352-.133.689-.175 1.014-.127.361.052.668.217.922.494.255.277.354.605.298.984zm-3.41-7.272c.035-.234.007-.487-.082-.758s-.269-.427-.539-.466c-.397-.058-.747.001-1.049.177-.3.159-.564.388-.792.686-.225.28-.418.592-.579.937-.143.348-.247.673-.31.977.261-.017.569-.045.925-.085.374-.037.725-.105 1.053-.205.348-.114.648-.273.899-.476.268-.2.427-.462.474-.787z" fill="#e3000b"/></svg>