<svg enable-background="new 0 0 280 25" height="25" viewBox="0 0 280 25" width="280" xmlns="http://www.w3.org/2000/svg"><path d="m271.584 10.521c-6.574-.96-13.387-1.407-19.975-1.838-1.893-.124-3.783-.248-5.67-.383-8.332-.599-17.019-1.111-25.818-1.524-15.022-.708-31.476-1.171-51.781-1.46-5.556-.079-11.277-.119-17.006-.119-26.069 0-54.599.825-87.22 2.523-21.083 1.097-40.145 2.633-58.277 4.698-.082.055-.375.505-.424 1.326-.051.841.188 1.459.339 1.668 32.767-2.165 68.009-4.202 103.793-4.458 3.234-.023 6.473-.035 9.706-.035 31.097 0 62.588 1.097 93.599 3.261 10.116.708 20.296 1.544 28.919 2.269 3.677.31 7.403.695 11.007 1.068 5.995.62 12.195 1.262 18.271 1.561l.164.004c2.197 0 2.963-2.471 3.069-3.931.114-1.557-.327-4.284-2.696-4.63z" fill="#e3000b"/></svg>