<svg fill="none" height="95" viewBox="0 0 56 95" width="56" xmlns="http://www.w3.org/2000/svg"><g clip-rule="evenodd" fill="#f7a600" fill-rule="evenodd"><path d="m7.203 53.9142c-1.544-.5427-4.374-1.5357-7.203-2.5288 1.129-2.4468 1.739-5.3145 3.479-7.2701 7.247-8.1499 16.388-13.1693 27.837-13.7311 4.063-.1989 7.285 1.173 8.392 5.1927 1.06 3.8531-.454 6.6885-4.19 8.6555-8.422 4.4348-16.801 8.9068-28.315 9.6818z"/><path d="m23.561 94.2276c-3.48-4.0121-3.578-7.0503.561-11.3661 5.444-5.6763 11.214-11.0918 17.139-16.3169 4.001-3.5284 8.309-3.3161 11.567-.1181 3.075 3.0182 3.314 8.3584-.82 11.4861-6.803 5.1431-14.297 9.4761-21.64 13.9414-1.901 1.1577-4.322 1.5367-6.807 2.3736z"/><path d="m37.468 11.8185c-.277 4.6881-3.851 7.5158-9.113 7.2102-6.965-.4046-12.917-6.0086-12.443-11.71356.304-3.65317 4.831-7.013089 9.175-6.811246 6.552.305621 12.7 5.922946 12.381 11.314606z"/></g></svg>