<svg fill="none" height="150" viewBox="0 0 144 150" width="144" xmlns="http://www.w3.org/2000/svg"><path d="m119.005 43.9369v-.0001c4.413-3.1818 8.359-4.7321 11.754-4.8937 3.478-.1656 6.292 1.1472 8.054 3.4178 3.397 4.3778 2.249 11.3483-3 14.8963-8.432 5.7006-30.897 18.7629-47.0909 27.0261-4.037 2.0608-6.465 3.412-7.996 4.4604-1.4812 1.0143-1.9215 1.6116-2.1745 2.1053-.153.2984-.2847.6553-.4574 1.2167-.0486.1581-.1041.3453-.1657.5529-.1344.4532-.2977 1.0039-.4818 1.5633-.5772 1.7531-1.4761 3.994-3.2913 7.0941-3.6144 6.174-8.6227 11.87-15.5251 15.8-6.92 3.94-15.5863 6.015-26.3504 5.18-5.0751-.394-8.9883-1.906-11.6409-4.459-2.4027-2.313-3.5443-5.261-3.7362-8.373-1.3392-1.372-2.4432-3.029-3.0826-5-1.58-4.8719.1972-9.9141 2.0338-13.6958l.0006-.0012c.4119-.847.8471-1.6876 1.2659-2.4964.0549-.106.1095-.2115.1638-.3164.4746-.9177.9259-1.799 1.3389-2.6811.8267-1.766 1.4501-3.4344 1.7248-5.1328zm0 0c-8.023 5.7865-39.9651 28.6985-49.5676 35.4874zm-50.6232 36.1323c-1.8575-3.3758-4.9792-6.2918-9.2862-8.6007l-.0004-.0002c-5.4847-2.9388-12.005-5.0381-18.6395-4.1663l-.0002.0001c-2.4593.3233-4.9719 1.0774-7.2301 1.7551-.7587.2277-1.4887.4468-2.1783.638-2.9228.8105-5.4208 1.2384-7.8111.7369l-3.3426-.7013.3379 3.3941c.2608 2.6201.4685 4.8977.1167 7.0751zm0 0c.3603-.188.7117-.4019 1.0553-.6447z" fill="#fff" stroke="#fff" stroke-width="5"/><path d="m120.478 45.9838c-8.022 5.7878-39.9617 28.7073-49.5705 35.5034-9.6105 6.7949-23.7603-4.4547-38.1162 5.654-14.3562 10.1074-20.9118 31.1518-.2808 32.7468 20.6313 1.596 32.6139-7.984 39.5054-19.754 6.891-11.7687-.5404-9.7184 15.5852-17.9553 16.1299-8.2355 38.4919-21.2486 46.8089-26.8746 8.319-5.6254 2.794-21.386-13.932-9.3203z" fill="#e3000b"/><path d="m26.7164 112.181c-4.5113-1.343-9.0703-4.062-10.5234-8.545-1.2596-3.8872.1134-8.1487 1.9096-11.8456 1.7983-3.6967 4.0628-7.2785 4.7195-11.3304.4127-2.5525.1596-5.1564-.0948-7.7262 6.0183 1.261 11.9604-2.2993 18.0742-3.1058 5.9207-.7798 11.8998 1.0808 17.142 3.8889 12.9069 6.9161 12.5793 18.7507 3.0643 28.8791-8.5512 9.102-22.3123 13.349-34.2914 9.785z" fill="#f7a600"/></svg>