<svg fill="none" height="25" viewBox="0 0 280 25" width="280" xmlns="http://www.w3.org/2000/svg"><path d="m5.83483 17.911c34.58597-2.2868 69.13547-4.211 103.72917-4.4587 34.432-.2481 68.803.8264 103.113 3.2213 9.632.6731 19.259 1.4563 28.883 2.266 9.782.8226 19.559 2.1512 29.364 2.6337 7.185.3522 8.072-12.49626 1.02-13.52642-8.54-1.24747-17.224-1.62364-25.826-2.24165-8.62-.61893-17.247-1.12214-25.88-1.52699-17.273-.8135-34.566-1.21707-51.863-1.463-34.795-.49423-69.5717.59494-104.3906 2.40748-19.51 1.01503-38.9622 2.49399-58.42974 4.71053-3.68788.41855-3.46089 8.22635.28017 7.97775z" fill="#e3000b" stroke="#fcd845" stroke-width="5"/></svg>