<svg fill="none" height="161" preserveAspectRatio="none" viewBox="0 0 1440 161" width="1440" xmlns="http://www.w3.org/2000/svg"><path d="m1440 31.9999-48 16c-48 16-144 48-240 74.7001-96 26.3-192 48.3-288 32-96-15.7-192-69.7-288-85.4-96-16.3-192 5.7-288 0-96-5.3-192.0003-37.3-240.0003-53.3l-47.99995815-15.99995041 47.99995815-.00000419c48-.0000042 144.0003-.00001259 240.0003-.00002098 96-.0000084 192-.00001679 288-.00002518s192-.00001679 288-.00002518 192-.00001678 288-.00002518c96-.00000839 192-.00001678 240-.00002098l48-.00000419z" fill="#fcd845"/></svg>