<svg fill="none" height="8" viewBox="0 0 77 8" width="77" xmlns="http://www.w3.org/2000/svg"><path d="m4.68211 5.28986c1.59937-.45756 3.60463-.16084 5.41339-.00501 17.0256 1.45816 33.7231 1.79644 50.3407 1.82664 3.4473.00566 6.7376-.18478 9.9042-.57309.8253-.10192 1.6419-.22759 2.3836-.39933 2.1259-.49484 3.9963-1.16654 3.2599-2.58067-.6998-1.34234-3.1293-1.96817-5.6021-2.37608-2.8944-.47664-5.8357-.749561-8.705-.791249-13.9741-.207369-28.0516-.632739-41.6347.052749-5.3019.265206-10.46815.71669-15.94377.73717-4.701953.01876-5.19708 1.69639-1.39867 3.77516z" fill="#fff"/></svg>