<svg fill="none" height="85" viewBox="0 0 92 85" width="92" xmlns="http://www.w3.org/2000/svg"><g fill="#e3000b"><path d="m54.0257 72.1167c4.0597.7447 7.9606 2.2896 12.0633 2.6701 11.3818 1.1108 22.6737-8.0269 24.3153-19.4688 1.6166-11.4402-6.4718-23.4433-17.5841-26.2636-15.0325-3.8317-29.3295 7.4919-40.4367 18.3884-5.0482 4.9512-27.36046 28.8449-14.2908 36.5018 3.8145 2.2387 26.2618-13.6018 35.933-11.8279z"/><path d="m8.39059 28.1292c-4.22011-9.8826-2.16047-21.85515 10.59241-18.92595 5.3415 1.52885 8.6006 8.24395 7.3727 13.51935-1.6227 5.9995-6.94 13.4202-10.4469 19.0956-1.1704 1.6196-2.7866 4.0112-4.4334 5.5881 1.9515-6.3427-.5993-13.5234-3.08481-19.2771zm7.29821 21.9848c14.0151-10.0487 30.0494-31.465 12.2516-45.95319-8.2236-6.27261-22.01257-3.948146-26.04235 6.08539-2.66449 6.5115-.39805 13.9546 2.3976 19.6636 3.11208 6.4002 6.58005 12.6576 3.20674 19.5826-.35014.6765-.05522 1.5446.63813 1.8718 2.75018 1.476 5.35058.0445 7.54828-1.2502z"/></g></svg>