<svg fill="none" height="8" viewBox="0 0 77 8" width="77" xmlns="http://www.w3.org/2000/svg"><path d="m71.6464 5.50837c-1.5994-.45756-3.6047-.16085-5.4134-.00501-17.0256 1.45816-33.7231 1.79643-50.3408 1.82664-3.4472.00565-6.73748-.18478-9.90417-.57309-.82524-.10193-1.64184-.2276-2.38355-.39933-2.12596-.49484-3.996264-1.16654-3.259868-2.58067.699788-1.34235 3.129218-1.96818 5.602098-2.37609 2.89432-.476634 5.83559-.749555 8.70499-.791243 13.974-.207369 28.0516-.6327391 41.6347.052749 5.3018.265206 10.4681.716684 15.9437.737164 4.702.01876 5.1971 1.6964 1.3987 3.77516z" fill="#fff"/></svg>