<svg fill="none" height="142" viewBox="0 0 141 142" width="141" xmlns="http://www.w3.org/2000/svg"><g clip-rule="evenodd" fill-rule="evenodd"><path d="m91.0968 101.891 1.885-3.8104-1.5935-1.0222-1.96-1.2166-1.9373-1.2166-1.902-1.2197-1.693-1.1632-1.6337-1.2144-1.5941-1.2489-1.5636-1.3107-1.5217-1.3497-1.4871-1.374-1.4671-1.4145-1.434-1.4356-1.4274-1.4491-1.3966-1.4657-1.4012-1.4793-1.3876-1.4838-1.3749-1.4868-1.3869-1.4853-1.3831-1.4703-1.3965-1.4657-1.4108-1.4372-1.4407-1.422-1.4505-1.4026-1.4727-1.3574-1.5132-1.3213-1.5266-1.2942-1.5759-1.24-1.6118-1.1904-1.6747-1.1316-1.0527-.6779-1.0753-.678-1.0798-.6689-1.0663-.6735-1.0754-.7004-1.053-.723-1.0217-.7637-1.0037-.7997-.9499-.863-1.037-1.052-.9919-1.0746-.9649-1.0838-.9829-1.0702-1.0097-1.0385-.4866-.4765-.4822-.5081-.4779-.5396-.478-.5621-.4556-.5848-.4331-.6073-.4107-.6299-.3791-.648-.3477-.6661-.3025-.6887-.235-.7114-.2032-.707-.1221-.7342-.068-.7524.0271-.739.0595-.5995.0963-.5139.1281-.4644.1738-.3969.1921-.3655.2511-.3025.2652-.2394.2835-.1854.3065-.1404.3339-.0819.3298-.0278.3163-.0007.3256.0262.3167.0669.3168.0668.3125.0985.6023.1968.2944.112.2628.1075.2582.0941.2491.0895.2129.0716.2082.0581.1539.0312.1176.0132.0723-.0092.031-.0856.0169-.1938.1794-4.5831.0075-.2434-.006-.2388-.0331-.2297-.0418-.1892-.0688-.1576-.0821-.1079-.1044-.0854-.1133-.0447-.1538-.0313-.1945-.0175-.2259.0005-.705.0107-.6957.0376-.6775.0692-.6774.0917-.659.1232-.6364.1456-.618.1772-.6044.1952-.5589.2401-.5406.2716-.5179.2941-.486.3436-.4315.3705-.4178.411-.3813.4515-.3314.4875-.2994.5369-.254.5818-.2221.6314-.1674.6808-.1145.7295-.0658.7985-.0215.9103.0553.892.1231.892.1817.8872.2496.8872.3127.8734.3671.8778.4211.8597.4708.8506.516.8504.5475.8324.5837.8278.6333.8186.6512.805.6964.7825.6978.7832.7173.7591.7413.7373.7412.7373.7547.7102.759.7012.7455.6832.7498.6516.7451.6381.7224.6156.708.5992.6831.5812.6625.5542 42.6555 35.8009 3.0215 2.584 2.9818 2.6186z" fill="#a35100"/><path d="m37.5101 66.749.7097.3511.6866.3284.6596.3132.6213.2981.5804.2647.5298.2509.4562.2144.4236.1872.3633.1703.2809.1278 1.2129.5403 1.1678.4919 1.1285.4555 1.1042.4119 1.0486.3619 1.0346.3439.979.2939.951.2577.9001.2214.8625.2046.8084.1518.7805.1154.7184.1017.6654.0697.6318.0215.5677.0121.5116-.0138.4622-.0531.4018-.0699.3468-.0748.2549-.0978.2044-.1116.1349-.1106.0855-.1032.0364-.0734.0123-.0947-.0163-.1294-.0657-.1687-.1265-.2081-.191-.24-.26-.263-.3511-.2875-.4087-.3104-.498-.3154-.5584-.3322-.6556-.3448-.7097-.3511-.8053-.3666-.8648-.3625-.9578-.3599-1.0397-.38-1.1312-.3804-.9612-.3299-.9117-.3372-.8415-.3398-.8065-.3411-.7832-.365-.7558-.3739-.7698-.392-.7647-.4026-.8063-.4342-.8402-.4586-.8955-.4858-.4052-.2247-.484-.2507-.5442-.2915-.5718-.3053-.6179-.3281-.6592-.3372-.664-.3509-.6832-.3585-.6909-.366-.6824-.36-.6725-.3569-.6463-.3402-.6271-.3326-.5902-.3144-.5357-.2855-.4881-.2657-.4336-.2369-.2403-.1636-.2859-.2067-.3018-.2519-.3113-.2791-.3374-.2882-.3253-.2934-.3282-.2874-.3058-.2632-.287-.2316-.2543-.1817-.1847-.1137-.2622-.0962-.2855-.0722-.32-.0258-.3393.0132-.36.0552-.3833.0791-.3782.1151-.3779.1378-.3592.1694-.3544.183-.3138.1937-.2754.2089-.2534.2106-.1805.1794-.1392.1886-.0811.1408-.0165.0797.0054.0586.1189.3163.2022.3799.2608.3772.3453.4153.404.4125.4686.4445.5235.4493.5785.4541.5977.4617.6615.4523.687.463.7198.4699.7394.4535.7664.4686.7752.4507.7797.4416.7934.4373.7886.4236 1.5676.8203.7558.3739z" fill="#a35100"/><path d="m110.32 110.079.006-.181-.038-.227-.101-.262-.165-.293-.234-.326-.299-.353-.37-.38-.433-.395-.511-.431-.587-.446-.656-.471-.735-.49-.801-.499-.89-.518-.961-.541-1.049-.555-.894-.479-.834-.475-.767-.46-.7343-.467-.7098-.486-.6732-.483-.6864-.503-.6949-.5247-.7127-.5498-.7496-.5907-.801-.6217-.3714-.2927-.4333-.3215-.4795-.3705-.5208-.3987-.5439-.4175-.5929-.4379-.6052-.4591-.6106-.4637-.6198-.4682-.6136-.4651-.6037-.4584-.5783-.4402-.5608-.4296-.5193-.3978-.4803-.3691-.438-.3389-.3791-.2965-.2073-.1852-.2248-.2502-.2456-.2888-.2643-.313-.2759-.3356-.2682-.3432-.285-.3402-.2598-.322-.25-.2684-.2308-.2382-.1865-.1618-.2688-.1536-.3066-.1348-.3443-.0857-.3652-.051-.3959.0033-.4057.0192-.4152.0502-.408.0932-.4071.1068-.3878.1333-.088.0354-.8908-.7789-1.5074-1.3884-1.481-1.4185-1.4553-1.4434-1.4495-1.463-1.4168-1.4789-1.4125-1.4879-1.4041-1.5045-1.3943-1.5015-1.4124-1.4879-1.4124-1.4879-1.4168-1.4788-1.4304-1.4517-1.4576-1.4427-1.4802-1.42-1.492-1.3694-1.5405-1.3483-1.5569-1.3114-1.6019-1.2434-1.6518-1.2117-1.6924-1.1529-1.0665-.6854-1.0894-.6855-1.0939-.6764-1.0894-.6854-1.0804-.7036-1.0623-.7172-1.0354-.7715-.9946-.8077-.9586-.8575-1.0472-1.048-.9928-1.0887-.9792-1.0932-1.0109-1.0751-1.0244-1.0479-.4935-.4809-.4755-.5171-.4895-.5353-.476-.5624-.4578-.576-.4308-.6077-.4082-.6304-.3808-.6393-.349-.6575-.3035-.6801-.2397-.6936-.1895-.7026-.1303-.707-.0618-.7297.0158-.7251.0583-.5799.1002-.5029.1146-.4395.1653-.3805.175-.3306.2258-.2716.2309-.2128.2634-.1628.2684-.1266.3008-.0767.3058-.0178.297.0003.3064.0275.3021.0593.3113.0638.307.0955.5867.2.2981.1136.266.109.2705.1.2522.0909.229.0683.2199.0637.1832.0455.1555.0092.1142.0001.082-.0271.0544-.0407.0421-.0581.0471-.1684.0161-.2175.1701-4.6175.002-.2583-.0116-.2538-.0252-.2493-.0571-.2311-.0933-.2041-.1111-.1451-.152-.1316-.1789-.0772-.1969-.041-.2103-.0138-.2468-.0094-.7171.0174-.7169.0399-.6938.0627-.698.0945-.6751.117-.6519.1398-.6423.1896-.6149.2033-.5825.2305-.5637.2848-.5315.3122-.5038.3483-.4623.3802-.4299.43-.3929.4709-.3559.5117-.3099.557-.2637.6025-.2221.6568-.1759.7022-.1114.7567-.0699.8111-.0275.9334.0683.9246.1322.911.1915.9065.2601.9066.3194.9022.3832.8885.4334.8797.4835.8706.5246.857.5611.8526.6067.8526.6475.8164.6567.8209.7113.8029.7067.7893.7429.7621.7474.7531.761.7485.7745.7214.7607.7032.7643.6957.7594.6557.7526.6541.7416.6261.7185.6035.691.5899.6632.5536 9.4981 7.9399-.5328-.2128-.8028-.3408-.7802-.3633-.7436-.3679-.7576-.386-.7714-.4042-.7945-.4268-.8352-.4601-.8918-.4844-.4133-.227-.4821-.2498-.5335-.2845-.5779-.3103-.6055-.3239-.6565-.3361-.6712-.3527-.6796-.3587-.6888-.3633-.6804-.3572-.6697-.3557-.6429-.3406-.6238-.333-.5793-.3073-.5328-.2861-.4868-.2633-.4233-.23-.2337-.1514-.2624-.2087-.2895-.2466-.3147-.2646-.3249-.2867-.3241-.2956-.3364-.2904-.3088-.2768-.2899-.2223-.2669-.1997-.2107-.1286-.2896-.1076-.3252-.0819-.352-.0276-.37.0087-.3876.0675-.3974.0872-.4009.1174-.3861.1567-.3821.1717-.3591.1945-.3269.1991-.2948.2262-.2582.2218-.2174.2082-.1479.2068-.1041.1872-.0305.154.0051.1284.1413.3612.2095.4081.2734.3945.356.4355.4062.4264.4742.4506.526.4613.5891.4493.603.4674.6532.4584.6936.469.7165.4653.7461.4593.7628.4675.7719.4495.7863.4435.7885.4389.7953.4253 1.5521.8129.762.3769.7392.377.7161.3542.6931.3316.6563.3134.6104.2906.5782.2635.5363.2559.4544.2134.4228.1848.3533.1635.2892.1317 1.2067.5406 1.1651.4862 1.1329.4589 1.1004.4091 1.0635.3682 1.0266.3274.9942.3001.9482.2548.9023.2321.866.1898.8132.158.7878.1172.7249.0861.6693.0755.6398.0234.5537.0127 20.9628 17.5217.2054.3008.3934.5215.4423.5421.5077.5368.5194.5594.5689.5595.6094.5739.6269.577.6611.5732.6765.5846.6885.5679.7014.565.709.5612.715.5491 1.3967 1.0535.6917.496.6672.492.6494.466.6286.439.5957.416.4691.326.3042.271.0239-.048.2866.191.4891.339.4116.285.387.253.3212.217.2652.18 1.1019.726 1.0695.672 1.044.634 1.0198.584.9898.536.9595.49.9323.46.894.402.854.377.824.329.777.289.759.244.701.204.651.182.628.127.566.107.529.055.482.036.422-.006.375-.031.307-.054.253-.089.195-.113.139-.123.094-.129z" fill="#ac6019"/><path d="m81.2543 115.156.5083.192.473.146.4518.053.2142-.018.2185-.073.205-.138.1994-.196.1981-.263.191-.313.1936-.368.1653-.407.1665-.448.1473-.482.1455-.505.1388-.511.2345-1.073.1005-.548.0974-.543.0878-.523.0725-.519.0742-.495.0706-.465.0656-.432.0604-.398.0501-.351.0481-.305.0484-.259.2685-1.463.2409-1.478.2045-1.472.1634-1.482.095-1.4815.0266-1.4813-.0624-1.8311 1.5126.5765 1.1981.3681 1.1968.2976 1.2237.2204 1.2225.1537s.804.0977 1.0723.0889c3.7053-.1296 14.6478-2.6425 16.1038-6.032 1.314-3.0545-4.953-9.2832-7.401-11.5604-.201-.186-.944-.5572-.944-.5572l-1.167-.6112-1.2072-.5522-1.2285-.4831-1.257-.4293-1.2794-.3611-1.3016-.293-1.3211-.2346-1.3267-.1693-1.8404-.1519 1.2592-1.2792.8464-.9513.7702-1.0003.7045-1.0328.6497-1.06.5808-1.1053.5352-1.1279.4696-1.1603.4162-1.1868.3659-1.2003.3385-1.2139.27-1.2364.2333-1.2546.1831-1.2682.1511-1.2725.1238-1.2635.078-1.2861.0448-1.2686.0203-1.2807-.0084-1.2496-.0373-1.2639-.0284-.3763-.0299-.3771-.0664-.3952-.0817-.3914-.1075-.3815-.1255-.3678-.1376-.3398-.1724-.3231-.1842-.2723-.2161-.254-.2294-.2041-.2382-.1631-.2561-.1041-.2922-.0539-.3193.0005-.3021.0544-.2957.1141-.2847.1649-.2722.205-.2677.2186-.2672.2641-.2628.2549-.2567.2694-.7117.6329-.7577.5876-.7809.5195-.8269.4741-.856.4371-.8637.4106-.8777.3697-.8869.3651-1.783.7032-.867.375-.8686.3742-1.2818.634-1.2541.693-1.2125.7703-1.1802.8201-1.1206.8836-1.0927.9427-1.0271.9978-1.3224 1.3839-.2612-1.5445-.2624-1.0583-.326-1.0218-.3852-.9944-.4336-.9618-.505-.9404-.5517-.907-.5943-.894-.6411-.8493-.6897-.8394-.7213-.7983-.7532-.7802-.7849-.7619-.8121-.7301-.8392-.6982-.8528-.6709-.8845-.6527-.8844-.6299-.8978-.6027-.8978-.5799-.4503-.2681-.4668-.2535-.5033-.249-.508-.2626-.5035-.2717-.4898-.2762-.4673-.3218-.431-.3491-.3811-.381-.1425-.1724-.1515-.1542-.1453-.1171-.1436-.105-.1264-.0399-.1065-.0188-.1047.0275-.1589.1139-.1629.1911-.1581.2276-.144.291-.1437.3366-.1299.3547-.116.3728-.1115.3864-.1024.3683-.0934.35-.089.341-.0847.2864-.0819.2539-.4784 1.4277-.419 1.4458-.3369 1.4638-.2683 1.4863-.1815 1.4954-.1283 1.499-.0264 1.5041.0283 1.5085.124 1.4993.1833 1.4946.2698 1.4809.4348 1.8114-1.3682-.2238-1.0223-.1208-1.0219-.0526-1.0261.0019-1.018.0739-1.0107.1586-.9167.2145-.8836.2895-.8588.3545-.8372.4029-.8125.4454-.7955.5028-.7625.5513-.7577.5876-.7362.6095-.7072.6466-.7099.6791-.6902.6776-1.3367 1.4126-.6496.7185-.6435.7252-.0875.1039-.0253.0781-.0042.0545.0178.0522.0926.0892.7717.8347.7628.8528.7264.8801.7113.8841 2.0719 2.7232.6999.8878.7076.8953.7171.853.7338.8385.7714.7892.8077.7619.8394.7209.896.6564.9375.611.9666.5328 1.0109.4662 1.0197.4025 1.0558.3524 1.0737.2934 1.1005.216 1.0911.1661 1.1181.1115 1.1259.0456 1.132.0183 1.1215-.0566 1.1394-.093 1.1262-.1581 1.0955-.1922 1.1043-.2482 1.4659-.3844-.4084 1.6775-.2279 1.2667-.152 1.2514-.0907 1.2232-.005 1.1845.0672 1.1768.1171 1.1448.1945 1.1266.2536 1.0991.3264 1.0673.3901 1.0534.4401 1.0215.5068.998.5485.987.6129.948.6713.923.7136.906.7713.881.8228.847.8575.822.9183.815.9537.766.9855.748 1.0295.725 1.0764.702.4033.29.431.349.4357.363.4638.374.9856.771.4952.381.5017.363.5047.339.5128.298z" fill="#ffcc1b"/><g fill="#ffefae"><path d="m74.7211 73.0766c.2294.1358.2233.8667.2784 1.2165.1605 1.401 2.0338 1.7642 2.1636 3.1388.0489.7582-.7889 1.0222-1.427 1.0865-.7453.054-1.6061.2954-2.1381.8867-.9629 1.0473-1.198 2.1451-2.6888 2.2306-1.7678.1153-4.4525-.8902-4.4243-2.98.0921-2.1231 3.4104-1.2917 3.1194-4.1158-.4799-2.8305 3.4974-2.4089 5.1168-1.4633z"/><path d="m68.1337 74.7459c-.589-2.4347 1.7512-4.1182 3.9495-3.7767 1.2308.2423 2.4626.3742 3.2964 1.4862.5039.7046-.0322 1.5833.072 2.2678.2405.9723 1.3991 1.6028 1.4247 2.7149-.0167 1.6002-2.4784 1.2727-2.926 2.5617-.2959.5088-.4766 1.2283-1.0385 1.8943-2.637 3.1599-9.7348-2.1595-6.0931-5.1797.914-.7102 1.5098-.93 1.315-1.9685zm-.9596-2.8716c-.2049 1.2868-.918 1.878-1.8606 2.687-1.4436 1.0869-2.3987 2.6559-2.7442 4.4285-.9207 4.8863 6.8361 9.545 10.774 6.3512 2.8296-2.8518 2.4786-4.6487 7.2219-3.857 2.8914.2198 4.7001-2.7391 3.4074-5.3664-.8623-1.7481-3.2844-2.4021-3.8088-4.0275-.5065-1.5721 1.075-2.7998-.3914-4.6246-2.9453-3.356-11.5493-4.2916-12.6427 1.231-.1345 1.0552.2196 2.1298.0444 3.1778z"/></g></g></svg>