<svg fill="none" height="150" viewBox="0 0 305 150" width="305" xmlns="http://www.w3.org/2000/svg"><path clip-rule="evenodd" d="m272.918 0h-269.17386v12.7656 36.3581 29.5137c0 15.4867 13.53676 28.0976 30.16766 28.0976h269.1742v-24.3657-41.5104-7.6087c0-18.3299-13.523-33.2502-30.168-33.2502z" fill="#fff" fill-rule="evenodd"/><path clip-rule="evenodd" d="m92.2596 75.5319h203.9904v-34.673l-.055-1.501-.166-1.5056-.249-1.4389-.372-1.4342-.456-1.3675-.539-1.3398-.635-1.2869-.719-1.2455-.815-1.1856-.87-1.1212-.953-1.0751-1.022-1.0061-1.064-.9254-1.16-.8726-1.202-.7873-1.27-.7206-1.299-.6192-1.367-.5273-1.396-.4535-1.45-.3453-1.464-.2625-1.519-.1657-1.534-.053h-204.0041v34.6523l.0552 1.5079.1658 1.5056.2486 1.4527.3731 1.4204.4558 1.3675.5386 1.3537.6354 1.2708.7322 1.2547.8011 1.1925.8702 1.1142.9531 1.0659 1.0222 1.0084 1.0635.9393 1.1604.8587 1.2017.7873 1.2708.7137 1.2985.6262 1.3674.5341 1.3952.4581 1.4502.3477 1.4643.2601 1.5194.1658z" fill="#f09391" fill-rule="evenodd"/><path clip-rule="evenodd" d="m274.672 19.2993h-204.3224v34.9723c0 11.893 9.8234 21.5782 21.8937 21.5782h204.3217v-34.9907c0-11.893-9.821-21.5598-21.893-21.5598z" fill="#f09391" fill-rule="evenodd"/><path clip-rule="evenodd" d="m92.2442 73.6646c-10.8708 0-19.7227-8.686-19.7227-19.3934v-32.8059h202.1535c10.873 0 19.725 8.7045 19.725 19.3935v32.8058z" fill="#fff" fill-rule="evenodd"/><path clip-rule="evenodd" d="m92.2458 73.9848h202.4712v-33.1259l-.055-1.4734-.166-1.4273-.276-1.4066-.36-1.379-.469-1.3284-.539-1.2846-.649-1.227-.718-1.2017-.815-1.119-.884-1.0797-.954-.9945-1.022-.9393-1.077-.8725-1.16-.7873-1.202-.7137-1.257-.6377-1.31-.5549-1.342-.4396-1.395-.3592-1.437-.2739-1.464-.1543-1.492-.053h-202.4709v33.1191l.0552 1.4803.1659 1.4204.2762 1.425.3592 1.3675.4695 1.326.5388 1.3008.6491 1.2271.7183 1.1879.815 1.1326.884 1.0659.9531 1.0061 1.0222.9392 1.0773.8542 1.1604.8057 1.2017.716 1.257.6239 1.3123.5479 1.3399.4605 1.395.3453 1.4366.2739 1.4642.152z" fill="#fff" fill-rule="evenodd"/><path clip-rule="evenodd" d="m231.175 75.5319h65.073v-34.673l-.055-1.501-.166-1.5056-.249-1.4389-.373-1.4342-.455-1.3675-.539-1.3398-.636-1.2869-.718-1.2455-.815-1.1856-.87-1.1212-.953-1.0751-1.022-1.0061-1.064-.9254-1.16-.8726-1.202-.7873-1.271-.7206-1.298-.6192-1.368-.5273-1.395-.4535-1.45-.3453-1.464-.2625-1.52-.1657-1.533-.053h-43.787l15.111 25.6209z" fill="#f09391" fill-rule="evenodd"/><path clip-rule="evenodd" d="m230.663 75.8498 14.974-30.5981-15.303-25.9524h44.34c12.072 0 21.893 9.6668 21.893 21.5598v34.9907z" fill="#f09391" fill-rule="evenodd"/><path clip-rule="evenodd" d="m234.656 73.3519h59.424v-32.4929l-.055-1.4203-.166-1.3929-.249-1.3537-.359-1.326-.442-1.3007-.539-1.2271-.621-1.2063-.691-1.1465-.787-1.0866-.857-1.0521-.925-.9669-.995-.914-1.049-.8402-1.106-.7598-1.174-.6929-1.229-.6055-1.257-.5226-1.312-.4443-1.34-.3614-1.381-.2464-1.437-.1519-1.436-.0553h-39.975l13.771 23.3602z" fill="#f09391" fill-rule="evenodd"/><path clip-rule="evenodd" d="m274.672 21.4653h-40.527l13.962 23.6916-13.962 28.5077h60.252v-32.8058c0-10.6867-8.854-19.3935-19.725-19.3935z" fill="#f09391" fill-rule="evenodd"/><path clip-rule="evenodd" d="m280.378 60.3516h-1.383l-.332.0414c.649-7.2081 1.644-18.3275 2.127-23.3554.055-.5134-.318-.9716-.829-1.0245-.525-.053-.967.3338-1.019.8449-.746 7.733-2.708 29.8062-2.735 30.0272-.028.3867-.387.6791-.815.6791h-15.07c-.431 0-.79-.2924-.829-.6791-.014-.221-1.989-22.2942-2.735-30.0272-.042-.5134-.498-.9002-1.009-.8449-.511.0552-.897.5134-.842 1.0245.483 5.0279 1.48 16.1473 2.127 23.3554l-.331-.0414h-1.382c-.886 0-1.616.7321-1.616 1.6138v5.8452c0 .9001.73 1.6276 1.616 1.6276h1.382c.676 0 1.256-.4143 1.505-.9945.484.6078 1.257.9945 2.114.9945h15.07c.856 0 1.616-.3867 2.113-.9945.235.5802.815.9945 1.49.9945h1.383c.898 0 1.616-.7274 1.616-1.6138v-5.8406c0-.9001-.718-1.6322-1.616-1.6322z" fill="#221f20" fill-rule="evenodd"/><path clip-rule="evenodd" d="m262.811 39.1785c0 .6078-.238.716-.611.716h-.343v-1.874h.468c.248 0 .486.0414.486.6883zm.135 3.9344c0 .6077-.237.6515-.511.6515h-.58v-2.2538h.415c.469 0 .676.122.676.8541zm1.741.0253v-.6883c0-.9002-.276-1.5195-.829-1.8533.47-.3453.693-.9116.693-1.7266v-.3016c0-1.4665-.721-2.1709-2.196-2.1709h-2.224v8.9784h2.307c1.448.0023 2.249-.7988 2.249-2.2377z" fill="#221f20" fill-rule="evenodd"/><path clip-rule="evenodd" d="m268.278 42.2727h-.857l.429-2.9145zm-1.078 1.5448h1.326l.237 1.5608h1.755l-1.437-8.9784h-2.307l-1.436 8.9784h1.63z" fill="#221f20" fill-rule="evenodd"/><path clip-rule="evenodd" d="m275.625 39.6851v-1.0337c0-1.4918-.815-2.3482-2.21-2.3482-1.393 0-2.21.8541-2.21 2.3482v4.4731c0 1.4918.815 2.3505 2.21 2.3505s2.21-.8587 2.21-2.3505v-1.3399h-1.671v1.4251c0 .5664-.237.6331-.497.6331-.263 0-.514-.0667-.514-.6331v-4.6412c0-.5847.249-.6515.514-.6515.26 0 .497.0668.497.6515v1.1143h1.671z" fill="#221f20" fill-rule="evenodd"/><path clip-rule="evenodd" d="m264.754 48.5111h.566c.247 0 .498.0576.498.6515v4.4616c0 .594-.249.6469-.498.6469h-.566zm.594-1.6h-2.321v8.967h2.321c1.436 0 2.21-.8012 2.21-2.3069v-4.3533c0-1.5195-.774-2.3068-2.21-2.3068z" fill="#221f20" fill-rule="evenodd"/><path clip-rule="evenodd" d="m272.712 48.5111v-1.6h-4.062v8.967h4.062v-1.607h-2.335v-2.1387h1.851v-1.6023h-1.851v-2.019z" fill="#221f20" fill-rule="evenodd"/><path clip-rule="evenodd" d="m261.275 59.0116h1.409v7.3601h1.727v-7.3601h1.409v-1.6h-4.545z" fill="#221f20" fill-rule="evenodd"/><path clip-rule="evenodd" d="m268.375 66.3717v-3.4947h.274c.456 0 .693.1519.693.9001v1.3538c0 .6929.053.854.138 1.1188l.044.122h1.807l-.124-.2601c-.124-.2878-.125-.5802-.125-.967v-1.326c0-.594-.082-1.3928-.72-1.8348.47-.3453.707-.9117.707-1.7266v-.6792c0-1.4665-.721-2.1664-2.197-2.1664h-2.224v8.9624h1.727zm0-7.3601h.467c.249 0 .5.053.5.7068v.8403c0 .594-.249.7206-.624.7206h-.343z" fill="#221f20" fill-rule="evenodd"/><path d="m273.928 57.4116h-1.727v8.9624h1.727z" fill="#221f20"/><path clip-rule="evenodd" d="m281.345 32.6839h-26.993v-2.2539l.03-.1082h1.961c.221 0 .431-.0851.594-.2256l2.459-2.141c.097-.0943.373-.2071.704-.2071h15.499c.343 0 .607.1128.718.2071l2.447 2.141c.166.1405.387.2256.608.2256h1.947l.03.1082v2.2539zm-.028-4.1854h-1.6l-2.196-1.9199c-.47-.4144-1.174-.647-1.92-.647h-15.498c-.744 0-1.437.2349-1.906.647l-2.197 1.9199h-1.614c-1.022 0-1.853.8725-1.853 1.9338v2.4726c0 .3453.083.6791.249.9807.069.1266.179.2348.304.32.29.1934.635.3016.994.3016h27.56c.343 0 .69-.1082.994-.3016.124-.0852.221-.1934.29-.32.166-.3016.249-.6331.249-.9807v-2.4726c-.005-1.0613-.834-1.9338-1.856-1.9338z" fill="#221f20" fill-rule="evenodd"/><path clip-rule="evenodd" d="m275.598 28.6113h-15.498c-.415 0-.774.3407-.774.7736 0 .4282.359.7735.774.7735h15.498c.428 0 .773-.3453.773-.7735 0-.4329-.345-.7736-.773-.7736z" fill="#221f20" fill-rule="evenodd"/><path clip-rule="evenodd" d="m162.387 42.4242c.525 0 .953-.1128 1.285-.3453.333-.2348.483-.6792.483-1.3122 0-.32-.041-.5802-.124-.7874s-.208-.3729-.359-.5134c-.139-.122-.318-.2072-.525-.2601-.21-.053-.431-.0852-.677-.0852h-.953v3.3059zm-.235-4.8392c.608 0 1.064-.1081 1.34-.3291.29-.2072.43-.5802.43-1.1051s-.14-.9002-.386-1.1051c-.249-.221-.663-.3199-1.216-.3199h-.801v2.8592zm.856-4.4869c.456 0 .871.0414 1.257.1404.373.0806.707.2464.981.4536.277.221.5.4995.649.8587.152.3545.237.8011.237 1.3214 0 .5986-.14 1.1051-.416 1.5195-.276.4328-.691.7205-1.243.8725v.0276c.61.0806 1.093.3453 1.452.7874.357.4397.537 1.0382.537 1.768 0 .4328-.053.8449-.166 1.2317-.11.3868-.304.7321-.58 1.0198-.26.2924-.622.5272-1.064.693-.428.1796-.967.2602-1.616.2602h-3.729v-10.9538z" fill="#221f20" fill-rule="evenodd"/><path clip-rule="evenodd" d="m170.979 37.8774c.527 0 .939-.1266 1.229-.3729.277-.2463.431-.6792.431-1.2731 0-1.0084-.514-1.5056-1.533-1.5056h-1.05v3.1516zm.953-4.7793c.912 0 1.63.2349 2.141.693.513.4673.774 1.174.774 2.1271 0 .7459-.15 1.3399-.454 1.8073-.29.4535-.746.7597-1.367.9002v.0276c.55.0805.95.2601 1.199.5386.262.274.414.716.484 1.3261l.043.6745.028.8012.097 1.3398c.053.3062.193.5134.4.6239v.0945h-2.403c-.111-.152-.18-.3339-.208-.5273l-.069-.6216-.055-2.0995c-.014-.4397-.124-.7735-.318-1.0199-.193-.2463-.524-.373-.98-.373h-1.188v4.6413h-2.21v-10.9538z" fill="#221f20" fill-rule="evenodd"/><path d="m178.686 33.0981h-2.196v10.9538h2.196z" fill="#221f20"/><path clip-rule="evenodd" d="m182.375 40.447c.027.5272.096.9393.207 1.2731.11.32.262.5524.456.7067.207.1358.469.221.801.221.32 0 .594-.0852.787-.221.194-.152.345-.3867.456-.7067.111-.3338.18-.7459.223-1.2731.028-.5088.053-1.1327.053-1.8625 0-.7459-.027-1.3721-.053-1.8786-.043-.5133-.112-.9254-.223-1.2592-.111-.3293-.262-.5664-.456-.7206-.193-.1473-.467-.221-.787-.221-.332 0-.594.0714-.801.221-.194.1519-.346.3913-.456.7206-.111.3338-.18.7459-.207 1.2592-.042.5088-.056 1.1327-.056 1.8786 0 .7275.014 1.3537.056 1.8625zm2.914 3.6052c-.4.1128-.898.1657-1.45.1657-.827 0-1.49-.1266-1.987-.3868-.486-.2785-.872-.6469-1.119-1.1602-.262-.4996-.43-1.1051-.511-1.7934-.083-.693-.113-1.4665-.113-2.293 0-.8449.03-1.6046.113-2.3068.081-.6929.247-1.2984.511-1.798.247-.495.633-.8955 1.119-1.174.497-.2878 1.16-.4283 1.987-.4283.829 0 1.48.1405 1.975.4283.497.2785.87.679 1.133 1.174.26.4996.428 1.1051.497 1.798.083.7022.124 1.4619.124 2.3068 0 .9209-.053 1.7681-.165 2.5278-.097.7459-.332 1.3928-.677 1.92l1.176 1.1465-1.298 1.1741z" fill="#221f20" fill-rule="evenodd"/><path clip-rule="evenodd" d="m190.937 40.7392c0 .274.013.5272.055.7597.041.2348.097.4282.193.6078.097.1658.235.2878.401.3868.166.0944.387.1519.635.1519.277 0 .484-.0575.647-.1519.166-.099.293-.221.387-.3868.099-.1796.166-.373.21-.6078.027-.2348.052-.4857.052-.7597v-7.6386h2.21v7.6386c0 .7022-.096 1.2685-.29 1.7267-.193.4535-.455.8149-.787 1.0889-.331.2647-.704.4443-1.119.5272-.428.099-.856.1404-1.31.1404-.442 0-.886-.0415-1.298-.1267-.414-.0667-.801-.2348-1.119-.4949-.331-.251-.594-.6077-.787-1.0659-.194-.4535-.29-1.0613-.29-1.7934v-7.6386h2.21z" fill="#221f20" fill-rule="evenodd"/><path clip-rule="evenodd" d="m203.246 34.9053h-3.909v2.5738h3.688v1.8211h-3.688v2.9444h4.061v1.8073h-6.271v-10.9538h6.119z" fill="#221f20" fill-rule="evenodd"/><path clip-rule="evenodd" d="m162.181 56.1797.262.3729.401-.3292c.248-.2118.43-.419.527-.6124.11-.2072.165-.4006.165-.5939 0-.3016-.082-.5227-.262-.6884-.18-.152-.414-.2394-.707-.2394-.26 0-.481.0851-.66.2394-.18.1473-.277.3729-.277.6607-.002.3085.191.7091.551 1.1903zm-1.092 3.6466c-.165.2785-.234.5939-.234.9255 0 .1657.027.3453.096.5133.067.1796.164.3338.29.4674.125.1404.29.2509.484.3453.193.0806.414.1266.663.1266.58 0 1.05-.2394 1.422-.693l-1.839-2.6129c-.426.3338-.73.64-.882.9278zm4.269-.5548c.066-.3154.11-.594.11-.8265h1.906c0 .5939-.11 1.1603-.32 1.7128-.207.5387-.483 1.0521-.801 1.5194l1.437 2.0329h-2.351l-.608-.845c-.276.32-.649.5802-1.118.746-.468.1795-.967.2601-1.518.2601-.693 0-1.259-.0944-1.699-.3016-.442-.1934-.773-.4581-1.022-.7735-.246-.32-.414-.6515-.511-1.0245-.083-.3683-.14-.7021-.14-1.0198 0-.6331.193-1.2133.596-1.7405.401-.5134.937-.9807 1.616-1.4066l-.387-.5664-.373-.6077-.223-.4858-.11-.4535-.028-.4443c0-.3545.069-.6745.207-.9531.138-.2878.334-.5226.58-.7275.249-.1934.539-.3454.884-.4582.346-.1082.721-.1519 1.119-.1519.47 0 .884.0576 1.23.1658.331.1266.621.2923.842.4995.235.2072.401.4536.497.7322.111.2739.164.5663.164.8817 0 .5525-.15 1.052-.467 1.4917-.307.4397-.79.8864-1.437 1.3537l1.644 2.2263c.115-.2372.211-.5157.281-.8357z" fill="#221f20" fill-rule="evenodd"/><path clip-rule="evenodd" d="m175.163 62.0777c.525 0 .967-.1266 1.285-.3591.334-.2349.497-.6608.497-1.2985 0-.3154-.041-.5801-.138-.7873-.083-.2071-.193-.3867-.345-.5088-.15-.1266-.332-.2256-.525-.2647-.207-.053-.442-.0806-.677-.0806h-.953v3.3013h.856zm-.234-4.8346c.624 0 1.063-.1127 1.356-.3338.274-.221.414-.5939.414-1.1188 0-.5088-.127-.8818-.387-1.089-.248-.2256-.649-.3338-1.201-.3338h-.802v2.8732zm.856-4.5053c.456 0 .87.0576 1.257.1404.387.099.721.2464.997.472.276.2072.483.495.633.8541.166.3592.237.8012.237 1.3261 0 .5939-.14 1.0935-.414 1.5194-.277.4282-.693.7205-1.243.8679v.0322c.621.0806 1.102.3408 1.464.7874.359.4397.525 1.0198.525 1.7542 0 .4397-.053.8403-.164 1.2271-.113.4005-.306.7321-.566 1.0244-.276.2878-.624.5226-1.064.7022-.43.1657-.983.2648-1.616.2648h-3.729v-10.9722z" fill="#221f20" fill-rule="evenodd"/><path clip-rule="evenodd" d="m182.664 60.1049c.028.5226.111.9393.207 1.2547.111.3338.263.5663.47.7206.193.1404.456.221.787.221.32 0 .597-.0806.79-.221.193-.152.357-.3868.453-.7206.111-.3154.18-.7321.224-1.2547.041-.5134.053-1.1327.053-1.8786 0-.7321-.014-1.3537-.053-1.867-.044-.5088-.113-.9393-.224-1.2685-.096-.32-.26-.5526-.453-.7068-.193-.1543-.47-.221-.79-.221-.331 0-.594.0667-.787.221-.207.1519-.359.3868-.47.7068-.096.3292-.179.7597-.207 1.2685-.041.5133-.055 1.1326-.055 1.867 0 .7436.014 1.3652.055 1.8786zm-2.155-4.1738c.081-.7068.247-1.2984.511-1.8072.263-.4996.636-.8863 1.119-1.1603.497-.2924 1.161-.4328 1.987-.4328.829 0 1.492.1404 1.975.4328.497.274.87.6607 1.133 1.1603.26.5088.428 1.1027.497 1.8072.083.7068.124 1.4665.124 2.293 0 .8403-.041 1.6138-.124 2.3067-.069.693-.237 1.2984-.497 1.7934-.263.4996-.636.8864-1.133 1.1465-.483.2647-1.146.4005-1.975.4005-.826 0-1.49-.1358-1.987-.4005-.483-.2601-.856-.6469-1.119-1.1465-.262-.495-.43-1.1027-.511-1.7934-.069-.6929-.113-1.4664-.113-2.3067.003-.8265.044-1.5862.113-2.293z" fill="#221f20" fill-rule="evenodd"/><path clip-rule="evenodd" d="m191.23 60.393c0 .2785.03.5271.055.7597.041.2348.096.4282.207.594.097.1657.221.3061.387.4005.179.099.387.152.649.152s.47-.053.635-.152c.164-.0944.304-.2348.401-.4005.097-.1658.15-.3592.193-.594.042-.2349.053-.4812.053-.7597v-7.6386h2.21v7.6386c0 .6929-.096 1.2731-.29 1.7266-.193.4581-.453.8173-.787 1.0797-.332.2601-.705.4397-1.119.5387-.414.0944-.856.1358-1.296.1358-.456 0-.884-.0414-1.312-.122-.415-.0852-.788-.2509-1.117-.4995-.334-.2464-.596-.6078-.789-1.0613-.194-.472-.29-1.0659-.29-1.798v-7.6386h2.21z" fill="#221f20" fill-rule="evenodd"/><path clip-rule="evenodd" d="m201.81 54.7041c-.18-.3591-.528-.5386-1.036-.5386-.277 0-.498.0667-.677.2209-.18.1543-.32.3868-.431.7207-.096.3292-.163.7735-.207 1.296-.041.5388-.069 1.2041-.069 1.9776 0 .8265.03 1.5056.083 2.0144.069.5134.152.9002.276 1.1879.111.2786.263.472.442.5664.18.099.387.1519.622.1519.193 0 .373-.0414.539-.1082.165-.0575.317-.1934.442-.4006.124-.1934.221-.4719.287-.8449.069-.3591.113-.8402.113-1.4342h2.21c0 .594-.055 1.1602-.14 1.699-.097.5225-.263.9945-.525 1.3928-.249.4006-.594.7021-1.05.9392-.456.2211-1.05.3293-1.782.3293-.826 0-1.478-.1358-1.973-.4006-.483-.2601-.87-.6469-1.132-1.1465-.263-.4949-.431-1.1027-.498-1.7933-.083-.693-.126-1.4666-.126-2.3069 0-.8264.043-1.5862.126-2.2929.067-.7068.235-1.2984.498-1.8072.262-.4996.649-.8863 1.132-1.1787.498-.274 1.147-.4144 1.973-.4144.788 0 1.423.1266 1.867.3868.454.2509.801.5801 1.02.9669.237.4006.373.831.431 1.2731.053.4535.083.8863.083 1.2869h-2.211c.003-.808-.094-1.3882-.287-1.7428z" fill="#221f20" fill-rule="evenodd"/><path clip-rule="evenodd" d="m207.872 52.752v4.1876h2.569v-4.1876h2.211v10.9583h-2.211v-4.8783h-2.569v4.8783h-2.21v-10.9583z" fill="#221f20" fill-rule="evenodd"/><path clip-rule="evenodd" d="m216.23 60.1049c.028.5226.097.9393.207 1.2547.111.3338.263.5663.456.7206.207.1404.47.221.801.221.318 0 .594-.0806.788-.221.193-.152.345-.3868.455-.7206.111-.3154.18-.7321.221-1.2547.03-.5134.056-1.1327.056-1.8786 0-.7321-.028-1.3537-.056-1.867-.041-.5088-.11-.9393-.221-1.2685-.11-.32-.262-.5526-.455-.7068-.194-.1543-.47-.221-.788-.221-.331 0-.594.0667-.801.221-.193.1519-.345.3868-.456.7068-.11.3292-.179.7597-.207 1.2685-.041.5133-.055 1.1326-.055 1.867 0 .7436.016 1.3652.055 1.8786zm-2.152-4.1738c.08-.7068.246-1.2984.511-1.8072.246-.4996.633-.8863 1.116-1.1603.5-.2924 1.163-.4328 1.989-.4328.829 0 1.481.1404 1.976.4328.497.274.87.6607 1.132 1.1603.26.5088.428 1.1027.497 1.8072.083.7068.125 1.4665.125 2.293 0 .8403-.042 1.6138-.125 2.3067-.069.693-.237 1.2984-.497 1.7934-.262.4996-.635.8864-1.132 1.1465-.498.2647-1.147.4005-1.976.4005-.826 0-1.489-.1358-1.989-.4005-.483-.2601-.87-.6469-1.116-1.1465-.263-.495-.431-1.1027-.511-1.7934-.083-.6929-.113-1.4664-.113-2.3067 0-.8265.027-1.5862.113-2.293z" fill="#221f20" fill-rule="evenodd"/><path clip-rule="evenodd" d="m227.944 60.2567h.028v-7.5189h2.032v10.9722h-2.53l-2.693-7.6801h-.028v7.6801h-2.03v-10.9722h2.541z" fill="#221f20" fill-rule="evenodd"/><path clip-rule="evenodd" d="m41.6616 47.0239c-2.3344 3.4349-.3593 7.9678 2.0603 10.2608 2.194 2.0858 3.9643 2.5853 4.1969 2.6383l1.1189-2.1549 3.2322 8.8542-9.1466 1.8624 1.2156-2.2492-1.2431-.7068c-3.8538-2.5001-4.6689-5.9119-4.9313-6.987-.4674-1.8234-1.1441-7.3048 3.4971-11.5178z" fill="#221f20" fill-rule="evenodd"/><path clip-rule="evenodd" d="m41.6191 47.1712c1.6576 3.8124 6.5473 4.5468 9.7635 3.7318 2.8593-.7321 4.2291-1.9062 4.4502-2.1272v-.0138l-1.2295-2.1272 9.2133 2.0144-3.3427 8.7321-1.2293-2.2124-1.1995.6653c-4.1853 1.92-7.5005.7874-8.5503.4398-1.798-.5894-6.7982-2.9422-7.8757-9.1028z" fill="#221f20" fill-rule="evenodd"/><path clip-rule="evenodd" d="m57.8916 37.9721c-.6331 4.5583-3.3841 6.7453-4.2267 7.4337-1.478 1.1879-6.1469 4.1462-11.9208 1.7129 4.1025.6653 7.3625-3.0528 8.4123-6.1998.937-2.8317.6629-4.6274.6215-4.9059h-.0415l-2.4472-.1082 6.6602-6.6856 5.5506 7.5143-2.5002-.1519z" fill="#221f20" fill-rule="evenodd"/><path clip-rule="evenodd" d="m29.9626 34.1317c-2.0996 0-3.7985-1.6943-3.7985-3.7939s1.6989-3.8124 3.7985-3.8124c2.0995 0 3.8124 1.7128 3.8124 3.8124s-1.7129 3.7939-3.8124 3.7939z" fill="#221f20" fill-rule="evenodd"/><path clip-rule="evenodd" d="m24.0764 52.6182c.3177-.8863.815-.8311.815-.8311s.4303-.0944.6767.8058l3.55 12.4731c-2.9559-.8587-5.6634-2.3206-7.9701-4.2705zm11.0918-33.333c-13.7439 0-24.9026 11.1746-24.9026 24.9186 0 13.7278 11.161 24.9049 24.9026 24.9049.7321 0 1.4526-.0576 2.1686-.1129l.1658 2.5002 4.556-4.4064-5.097-3.8929.1933 2.6268c-.663.0667-1.326.1082-1.9891.1082-1.0636 0-2.0995-.0807-3.1078-.2349l-.1105-.6469-2.362-20.1716c-.3177-3.8078 1.8531-4.4201 3.193-3.8538l7.5534 3.0389c.8703.3729 1.287-.3454 1.287-.3454s.4834-.7597-.3868-1.326c0 0-10.293-6.8075-12.4893-7.2219-2.9974-.5663-5.9534 1.867-6.6165 5.0141l-3.6603 17.9132c-3.1333-3.7687-5.0395-8.6194-5.0395-13.8936 0-11.992 9.7496-21.7394 21.7393-21.7394 6.3955 0 12.1556 2.788 16.136 7.2081l2.2377-2.2653c-4.5583-4.9888-11.1056-8.122-18.3713-8.122z" fill="#221f20" fill-rule="evenodd"/><path clip-rule="evenodd" d="m92.2596 75.532h60.4324v-34.6729l-.056-1.501-.165-1.5057-.249-1.4526-.373-1.4204-.456-1.3675-.539-1.3537-.635-1.2731-.732-1.2593-.801-1.1856-.87-1.1211-.953-1.0613-1.023-1.0061-1.063-.9393-1.161-.8587-1.201-.7873-1.271-.7206-1.299-.6193-1.367-.541-1.395-.4535-1.45-.3453-1.465-.2602-1.519-.1681-1.533-.0529h-60.4461v34.666l.0552 1.508.1658 1.5056.2486 1.4527.3731 1.4204.4558 1.3675.5386 1.3536.6354 1.2708.7322 1.2547.8011 1.1926.8702 1.1142.9531 1.0659 1.0222 1.0083 1.0635.9394 1.1604.8586 1.2017.7874 1.2708.7137 1.2985.6262 1.3674.534 1.3952.4582 1.4502.3476 1.4643.2602 1.5194.1657z" fill="#f09391" fill-rule="evenodd"/><path clip-rule="evenodd" d="m131.113 19.2852h-60.7653v34.986c0 11.893 9.8233 21.5782 21.8936 21.5782h60.7657v-34.9907c0-11.893-9.821-21.5735-21.894-21.5735z" fill="#f09391" fill-rule="evenodd"/><path clip-rule="evenodd" d="m76.8828 43.3912v-10.8316h2.8593v8.4259h4.0887v2.4057z" fill="#221f20" fill-rule="evenodd"/><path clip-rule="evenodd" d="m85.1152 43.3912v-10.8316h6.9894v2.4057h-4.1301v1.699h3.5362v2.3874h-3.5362v1.9338h4.2958v2.4057z" fill="#221f20" fill-rule="evenodd"/><path clip-rule="evenodd" d="m99.0956 43.3912v-8.4259h-2.8593v-2.4057h8.5917v2.4057h-2.859v8.4259z" fill="#221f20" fill-rule="evenodd"/><path clip-rule="evenodd" d="m108.834 37.4908h1.036c1.16 0 1.727-.4719 1.727-1.4388 0-.4536-.139-.7874-.429-.9531-.304-.1796-.732-.274-1.298-.274h-1.036zm-2.859 5.9004v-10.8316h4.1c.566 0 1.119.0529 1.644.1657.538.1128.996.3062 1.395.5663.386.274.704.6331.939 1.0797.235.4536.343 1.0084.343 1.6807 0 .7919-.163 1.425-.467 1.9338-.32.5134-.746.9117-1.287 1.204l2.35 4.1992h-3.193l-1.865-3.6328h-1.105v3.6328z" fill="#221f20" fill-rule="evenodd"/><path d="m118.984 32.5596h-2.873v10.8179h2.873z" fill="#221f20"/><path clip-rule="evenodd" d="m99.4414 62.5777v-10.8179h7.0586v2.3919h-4.199v2.072h3.591v2.3873h-3.591v3.9667z" fill="#221f20" fill-rule="evenodd"/><path clip-rule="evenodd" d="m110.41 57.3126-.18.7597h2.003l-.18-.7597c-.14-.5088-.276-1.0751-.4-1.699l-.401-1.7266h-.069l-.373 1.7404c-.124.6101-.262 1.1764-.4 1.6852zm-4.158 5.2651 3.304-10.8179h3.453l3.301 10.8179h-3.023l-.538-2.293h-3.023l-.539 2.293z" fill="#221f20" fill-rule="evenodd"/><path clip-rule="evenodd" d="m121.514 62.7846c-.693 0-1.34-.1266-1.976-.3453-.621-.221-1.174-.5663-1.644-1.0337-.469-.4581-.842-1.0382-1.118-1.7266-.277-.6929-.415-1.5056-.415-2.4195 0-.914.138-1.7267.428-2.4335.291-.7021.677-1.2984 1.161-1.7796.483-.4857 1.036-.8402 1.66-1.1049.633-.2464 1.284-.3868 1.973-.3868.72 0 1.369.1519 1.933.4281.567.2924 1.036.624 1.437 1.0107l-1.503 1.8349c-.263-.2349-.539-.4283-.829-.5802-.276-.152-.608-.221-.967-.221-.318 0-.622.0668-.912.2072-.274.152-.525.3591-.743.6216-.224.2647-.387.594-.514.9853-.138.3868-.193.8265-.193 1.3076 0 1.0245.209 1.8118.635 2.3505.428.548.995.815 1.699.815.415 0 .788-.0852 1.117-.2785.334-.1796.61-.4006.843-.647l1.491 1.7934c-.469.5387-.997.9393-1.602 1.2041-.608.2578-1.257.3982-1.961.3982z" fill="#221f20" fill-rule="evenodd"/><path d="m129.041 51.7598h-2.859v10.8179h2.859z" fill="#221f20"/><path clip-rule="evenodd" d="m131.088 62.5777v-10.8179h2.859v8.4259h4.103v2.392z" fill="#221f20" fill-rule="evenodd"/><path clip-rule="evenodd" d="m139.318 62.5777v-10.8179h6.99v2.3919h-4.117v1.699h3.523v2.4012h-3.523v1.9338h4.282v2.392z" fill="#221f20" fill-rule="evenodd"/><path clip-rule="evenodd" d="m85.9327 46.5659c-5.5252 0-10.003 4.4778-10.003 10.0007 0 5.5252 4.4755 10.019 10.003 10.019 5.5229 0 10.0144-4.4915 10.0144-10.019 0-5.5229-4.4892-10.0007-10.0144-10.0007z" fill="#fff" fill-rule="evenodd"/><path clip-rule="evenodd" d="m85.9316 66.8986 1.0498-.0552 1.036-.152.9806-.2601.9555-.3477.8955-.4396.8564-.5134.8012-.594.7321-.6653.6629-.7275.594-.8057.5112-.8542.4419-.8978.3454-.9531.2624-.9807.1519-1.0337.0553-1.0521-.0553-1.0498-.1519-1.0383-.2624-.9807-.3454-.9531-.4419-.8932-.5112-.8588-.594-.8011-.6629-.7182-.7321-.6746-.8012-.5801-.8564-.5272-.8955-.4259-.9555-.3477-.9806-.2601-1.036-.1542-1.0498-.053-1.0498.053-1.036.1542-.9808.2601-.9531.3477-.8977.4259-.8564.5272-.8012.5801-.7184.6746-.6767.7182-.5801.8011-.525.8588-.4281.8932-.3454.9531-.2625.9807-.1519 1.0383-.0552 1.0498.0552 1.0521.1519 1.0337.2625.9807.3454.9531.4281.8978.525.8542.5801.8057.6767.7275.7184.6653.8012.594.8564.5134.8977.4396.9531.3477.9808.2601 1.036.152z" fill="#fff" fill-rule="evenodd"/><path clip-rule="evenodd" d="m92.4655 58.1987h-4.9036v4.899h-3.2599v-4.899h-4.8899v-3.2622h4.8899v-4.8921h3.2599v4.8921h4.9036z" fill="#221f20" fill-rule="evenodd"/><path clip-rule="evenodd" d="m70.6699 21.1524h21.1201v-10.072l-.0552-.6607-.152-.62155-.2348-.56634-.3453-.53872-.4006-.47192-.4697-.4006-.5386-.34763-.5664-.23255-.6216-.15421-.663-.05298h-13.0257l-.6629.05298-.6216.15421-.5665.23255-.5385.34763-.4698.4006-.4006.47192-.3452.53872-.2348.56634-.1521.62155-.0552.6607z" fill="#f09391" fill-rule="evenodd"/><path clip-rule="evenodd" d="m70.3496 21.4655v-10.4012c0-2.38733 1.9638-4.35336 4.3511-4.35336h13.0555c2.3897 0 4.3512 1.96603 4.3512 4.35336v10.4012z" fill="#f09391" fill-rule="evenodd"/><g fill="#221f20"><path clip-rule="evenodd" d="m75.3926 8.89795h4.9865v1.72665h-2.9422v2.514h2.3505v1.768h-2.3505v4.3788h-2.0443z" fill-rule="evenodd"/><path clip-rule="evenodd" d="m84.1909 13.6382c.5824 0 .9254-.4191.9254-1.5333 0-.9853-.3039-1.5056-.9393-1.5056h-.7436v3.0389zm-2.8179-4.74025h2.9836c1.7565 0 2.8202.9531 2.8202 3.06645 0 1.5057-.4835 2.3483-1.2156 2.7466l1.3398 4.5721h-2.1271l-1.0637-4.114h-.6768v4.114h-2.0604z" fill-rule="evenodd"/><path clip-rule="evenodd" d="m51.0251 82.397h2.2814l-2.6405 12.3349h5.5113l-.4006 1.9201h-7.7767z" fill-rule="evenodd"/><path clip-rule="evenodd" d="m63.1823 90.9911c-.6331.4282-1.8901.6884-2.5969.9946-.6768.2877-1.0774.9393-1.257 1.7404-.1796.9002.0968 1.6138.9969 1.6138 1.2962 0 2.1411-.9807 2.4703-2.5531zm1.3122 3.4257c-.0829.4005.0829.7597.4006.7597.1405 0 .2763-.0185.3592-.0576l-.304 1.3975c-.2762.1082-.6768.2601-1.0912.2601-.9531 0-1.6736-.3868-1.5194-1.425h-.0438c-.8011 1.0659-1.7542 1.5793-3.0112 1.5793-1.7128 0-2.5969-.9531-2.1572-3.0136.5272-2.3873 1.6599-2.8869 3.2185-3.3727l1.7681-.4535c.8288-.221 1.3698-.4397 1.5632-1.3813.1934-.9807 0-1.6-1.1327-1.6-1.4365 0-1.8671 1.0198-2.0858 2.0558h-2.0305c.4834-2.2653 1.6714-3.52 4.5169-3.52 1.8924 0 3.246.7321 2.8454 2.6268z" fill-rule="evenodd"/><path clip-rule="evenodd" d="m69.3691 82.2451h2.1549l-.4397 2.1549h-2.1572zm-.7873 3.6743h2.1549l-2.2793 10.7327h-2.141z" fill-rule="evenodd"/><path clip-rule="evenodd" d="m76.885 89.0567.0552-.2923c.1795-.8541.0691-1.6553-1.0498-1.6553-.8564 0-1.6437.4006-1.8371 1.4066-.1795.8265.1242 1.1741 1.174 1.5747l1.2847.472c1.4803.5341 2.0328 1.3928 1.6737 3.0941-.4973 2.2929-2.3759 3.2736-4.5469 3.2736-2.7211 0-3.2737-1.2592-2.8178-3.3312l.0829-.4006h1.9062l-.069.3453c-.2625 1.2271.0414 1.9062 1.2708 1.9062 1.1764 0 1.8785-.5939 2.0995-1.5746.152-.8012-.1381-1.3123-.8564-1.5748l-1.6162-.6238c-1.5033-.5526-2.0005-1.3675-1.6437-3.0941.4305-2.0144 2.072-2.9399 4.2959-2.9399 2.735 0 3.0112 1.5862 2.735 2.9261l-.0967.4857z" fill-rule="evenodd"/><path clip-rule="evenodd" d="m85.3791 89.0567.069-.2923c.1773-.8541.053-1.6553-1.0636-1.6553-.8564 0-1.6322.4006-1.8394 1.4066-.1796.8265.1266 1.1741 1.1764 1.5747l1.2847.472c1.478.5341 2.0304 1.3928 1.6712 3.0941-.4972 2.2929-2.3735 3.2736-4.5444 3.2736-2.7212 0-3.2737-1.2592-2.8179-3.3312l.0829-.4006h1.92l-.0828.3453c-.2624 1.2271.0415 1.9062 1.2708 1.9062 1.1879 0 1.8786-.5939 2.0996-1.5746.1496-.8012-.1405-1.3123-.8565-1.5748l-1.6161-.6238c-1.5057-.5526-2.0029-1.3675-1.6438-3.0941.4282-2.0144 2.0859-2.9399 4.2959-2.9399 2.735 0 3.0113 1.5862 2.735 2.9261l-.0967.4857z" fill-rule="evenodd"/><path clip-rule="evenodd" d="m94.3453 90.0908.1266-.5801c.29-1.3675.0668-2.4012-1.1465-2.4012-1.3698 0-2.0996 1.3675-2.3897 2.7603l-.0437.221zm-3.771 1.4803-.1244.6078c-.32 1.4342-.5133 3.2737 1.1028 3.2737 1.5332 0 2.072-1.7543 2.2101-2.3874h2.0306c-.4973 2.3735-2.2516 3.8677-4.5837 3.8677-1.7566 0-3.8124-.5134-2.7764-5.4861.6078-2.8201 1.8372-5.813 5.2076-5.813 2.9974 0 3.4118 1.8072 2.7764 4.7931l-.2372 1.1465h-5.6058z" fill-rule="evenodd"/><path clip-rule="evenodd" d="m96.6912 94.9646 6.2298-7.2334h-4.4065l.3729-1.8118h6.8516l-.387 1.7704-6.0225 7.1413h4.5025l-.372 1.821h-7.128z" fill-rule="evenodd"/><path clip-rule="evenodd" d="m112.922 82.397h2.154l-3.038 14.255h-2.155z" fill-rule="evenodd"/><path clip-rule="evenodd" d="m120.919 90.0908.127-.5801c.29-1.3675.067-2.4012-1.146-2.4012-1.384 0-2.1 1.3675-2.39 2.7603l-.044.221zm-3.77 1.4803-.125.6078c-.32 1.4342-.513 3.2737 1.103 3.2737 1.533 0 2.072-1.7543 2.21-2.3874h2.033c-.5 2.3735-2.254 3.8677-4.586 3.8677-1.757 0-3.812-.5134-2.776-5.4861.607-2.8201 1.837-5.813 5.207-5.813 2.997 0 3.412 1.8072 2.776 4.7931l-.234 1.1465h-5.608z" fill-rule="evenodd"/><path clip-rule="evenodd" d="m132.385 95.2176c1.506 0 2.155-1.5332 2.68-3.9804.594-2.8869.373-3.8815-.856-3.8815-1.658 0-2.28 1.4803-2.818 4.0472-.497 2.293-.484 3.8147.994 3.8147zm-1.105-12.807h2.144l-1.009 4.7655h.044c.594-.9669 1.586-1.5332 2.747-1.5332 1.643 0 3.149.7321 2.157 5.4999-.804 3.688-2.24 5.7876-4.752 5.7876-1.533 0-1.876-.9001-2.017-1.5908h-.041l-.276 1.3123h-2.031z" fill-rule="evenodd"/><path clip-rule="evenodd" d="m141.68 95.3235c1.575 0 2.141-1.3077 2.721-4.0472.497-2.3736.58-4.0472-.994-4.0472-1.564 0-2.197 1.6736-2.708 4.0472-.566 2.7395-.566 4.0472.981 4.0472zm2.058-9.6922c3.136 0 3.536 2.3206 2.82 5.6472-.706 3.3312-2.226 5.6519-5.209 5.6519-2.97 0-3.495-2.3207-2.791-5.6519.719-3.3289 2.072-5.6472 5.18-5.6472z" fill-rule="evenodd"/><path clip-rule="evenodd" d="m152.814 95.3974h-.055c-.746.9531-1.876 1.5333-3.067 1.5333-1.6 0-2.514-.7321-1.947-3.5108l1.602-7.5005h2.155l-1.63 7.6938c-.246 1.2041.193 1.6047 1.105 1.6047.923 0 1.906-.594 2.141-1.798l1.602-7.5005h2.155l-2.279 10.7327h-2.031z" fill-rule="evenodd"/><path clip-rule="evenodd" d="m164.748 92.7431c-.704 2.5669-1.92 4.1853-4.57 4.1853-3.11 0-3.497-2.3205-2.792-5.6518.72-3.3266 2.072-5.6472 5.196-5.6472 3.23-.0414 3.163 2.5139 2.873 3.8538h-2.157c.221-.9945.221-2.2929-1.064-2.2538-1.561 0-2.196 1.6737-2.693 4.0472-.498 2.3782-.581 4.0472.98 4.0472 1.202.0277 1.837-.9669 2.197-2.5807z" fill-rule="evenodd"/><path clip-rule="evenodd" d="m168.436 82.397h2.155l-.995 4.6664.053.0461c.79-.9117 1.84-1.4803 2.942-1.4803 1.63 0 2.514.7459 2.058 2.9145l-1.726 8.1059h-2.155l1.561-7.36c.306-1.3928 0-1.9338-1.078-1.9338-.884 0-1.85.6884-2.154 2.0858l-1.534 7.208h-2.157z" fill-rule="evenodd"/><path clip-rule="evenodd" d="m178.851 95.3235c1.577 0 2.143-1.3077 2.723-4.0472.497-2.3736.58-4.0472-1.008-4.0472-1.547 0-2.196 1.6736-2.694 4.0472-.582 2.7395-.582 4.0472.979 4.0472zm2.058-9.6922c3.133 0 3.536 2.3206 2.818 5.6472-.705 3.3312-2.224 5.6519-5.208 5.6519-2.983 0-3.497-2.3207-2.804-5.6519.719-3.3289 2.086-5.6472 5.194-5.6472z" fill-rule="evenodd"/><path clip-rule="evenodd" d="m186.52 85.9195h2.03l-.26 1.2593h.067c.732-.9669 1.867-1.5333 3.066-1.5333 1.644 0 2.517.7321 2.061 2.9145l-1.713 8.0945h-2.157l1.549-7.3601c.304-1.3928 0-1.9338-1.08-1.9338-.87 0-1.85.6884-2.154 2.0858l-1.534 7.2081h-2.157z" fill-rule="evenodd"/><path clip-rule="evenodd" d="m204.875 89.0567.053-.2923c.18-.8541.055-1.6553-1.063-1.6553-.857 0-1.63.4006-1.824 1.4066-.193.8265.111 1.1741 1.174 1.5747l1.273.472c1.478.5341 2.045 1.3928 1.672 3.0941-.497 2.2929-2.362 3.2736-4.545 3.2736-2.709 0-3.273-1.2592-2.82-3.3312l.083-.4006h1.92l-.083.3453c-.26 1.2271.044 1.9062 1.287 1.9062 1.174 0 1.865-.5939 2.084-1.5746.165-.8012-.139-1.3123-.857-1.5748l-1.614-.6238c-1.491-.5526-1.989-1.3675-1.63-3.0941.415-2.0144 2.07-2.9399 4.28-2.9399 2.735 0 3.014 1.5862 2.735 2.9261l-.097.4857z" fill-rule="evenodd"/><path clip-rule="evenodd" d="m212.872 95.3974h-.069c-.73.9531-1.865 1.5333-3.067 1.5333-1.6 0-2.514-.7321-1.934-3.5108l1.589-7.5005h2.155l-1.63 7.6938c-.235 1.2041.193 1.6047 1.119 1.6047.911 0 1.892-.594 2.127-1.798l1.602-7.5005h2.155l-2.279 10.7327h-2.031z" fill-rule="evenodd"/><path clip-rule="evenodd" d="m218.991 85.9195h2.155l-.357 1.6737h.042c.732-1.1995 1.699-1.9477 2.914-1.9477.238 0 .374.0276.5.0668l-.456 2.1986c-.14-.0461-.527-.1129-.884-.1129-.983 0-2.226.4282-2.666 2.4334l-1.369 6.4208h-2.141z" fill-rule="evenodd"/><path clip-rule="evenodd" d="m230.927 82.397h2.155l-3.039 14.255h-2.152z" fill-rule="evenodd"/><path clip-rule="evenodd" d="m238.428 90.9911c-.633.4282-1.89.6884-2.596.9946-.677.2877-1.078.9393-1.257 1.7404-.18.9002.096 1.6138.996 1.6138 1.297 0 2.141-.9807 2.471-2.5531zm1.313 3.4257c-.083.4005.083.7597.4.7597.141 0 .276-.0185.359-.0576l-.304 1.3975c-.276.1082-.676.2601-1.093.2601-.953 0-1.671-.3868-1.517-1.425h-.044c-.801 1.0659-1.754 1.5793-3.011 1.5793-1.713 0-2.597-.9531-2.157-3.0136.527-2.3873 1.66-2.8869 3.218-3.3727l1.768-.4535c.829-.221 1.368-.4397 1.563-1.3813.194-.9807 0-1.6-1.132-1.6-1.437 0-1.867 1.0198-2.086 2.0558h-2.031c.484-2.2653 1.672-3.52 4.517-3.52 1.893 0 3.246.7321 2.846 2.6268z" fill-rule="evenodd"/><path clip-rule="evenodd" d="m250.403 95.2176c1.492 0 2.157-1.5332 2.666-3.9804.594-2.8869.373-3.8815-.856-3.8815-1.658 0-2.279 1.4803-2.818 4.0472-.497 2.293-.47 3.8147 1.008 3.8147zm-1.118-12.807h2.154l-1.022 4.7655h.044c.594-.9669 1.586-1.5332 2.746-1.5332 1.646 0 3.15.7321 2.158 5.4999-.802 3.688-2.238 5.7876-4.752 5.7876-1.533 0-1.865-.9001-2.001-1.5908h-.043l-.291 1.3123h-2.03z" fill-rule="evenodd"/><path clip-rule="evenodd" d="m258.111 85.9195h2.166l-.373 1.6737h.044c.746-1.1995 1.697-1.9477 2.915-1.9477.248 0 .387.0276.497.0668l-.456 2.1986c-.138-.0461-.525-.1129-.87-.1129-.981 0-2.238.4282-2.677 2.4334l-1.356 6.4208h-2.155z" fill-rule="evenodd"/><path clip-rule="evenodd" d="m265.281 82.2451h2.157l-.442 2.1549h-2.155zm-.774 3.6743h2.158l-2.28 10.7327h-2.155z" fill-rule="evenodd"/><path clip-rule="evenodd" d="m272.199 87.3578c-1.489 0-2.141 1.5331-2.65 3.9619-.624 2.9054-.262 3.8977.843 3.8977 1.658 0 2.263-1.4804 2.804-4.0473.495-2.293.481-3.8123-.997-3.8123zm-.014 8.0391h-.041c-.61.9531-1.602 1.5332-2.776 1.5332-1.674 0-3.053-1.1603-2.114-5.4999.774-3.6995 2.21-5.7876 4.724-5.7876 1.534 0 1.906.9002 2.017 1.5862h.044l.276-1.3122h2.044l-3.025 14.2454h-2.141z" fill-rule="evenodd"/><path clip-rule="evenodd" d="m281.896 95.3974h-.053c-.746.9531-1.879 1.5333-3.081 1.5333-1.588 0-2.514-.7321-1.933-3.5108l1.6-7.5005h2.157l-1.644 7.6938c-.237 1.2041.207 1.6047 1.116 1.6047.926 0 1.893-.594 2.144-1.798l1.586-7.5005h2.157l-2.279 10.7327h-2.031z" fill-rule="evenodd"/><path clip-rule="evenodd" d="m292.449 90.0908.124-.5801c.29-1.3675.069-2.4012-1.146-2.4012-1.368 0-2.086 1.3675-2.39 2.7603l-.041.221zm-3.771 1.4803-.124.6078c-.318 1.4342-.511 3.2737 1.102 3.2737 1.534 0 2.072-1.7543 2.211-2.3874h2.032c-.499 2.3735-2.253 3.8677-4.586 3.8677-1.754 0-3.812-.5134-2.762-5.4861.594-2.8201 1.823-5.813 5.194-5.813 2.997 0 3.425 1.8072 2.776 4.7931l-.235 1.1465h-5.608z" fill-rule="evenodd"/><path clip-rule="evenodd" d="m8.50878 126.03v-2.166h-6.16066v-3.354h5.13856v-2.146h-5.13856v-3.048h6.07775v-2.171h-8.42587v12.885z" fill-rule="evenodd"/><path clip-rule="evenodd" d="m11.4369 126.03h.624 1.1166v-5.854c0-.293.069-.566.1795-.815.1105-.251.2762-.458.4834-.652.1934-.193.4421-.329.7207-.439.274-.113.5801-.152.9116-.152.4006-.014.7459.053 1.0221.207.2901.152.4974.387.6332.721.1266.333.1933.732.1933 1.227v5.76h2.2654v-5.922c0-.886-.1243-1.632-.3729-2.212-.2464-.594-.6217-1.034-1.1189-1.326-.4973-.302-1.1166-.44-1.851-.44-.5249 0-1.0221.108-1.5194.334-.4834.221-.9116.509-1.2708.868-.1105.113-.221.235-.3039.345l-.0276-1.353h-2.2101v9.708h.5248z" fill-rule="evenodd"/><path clip-rule="evenodd" d="m25.1949 126.209c-.8541 0-1.63-.135-2.3206-.428-.6768-.288-1.2293-.706-1.6575-1.241l1.4641-1.273c.373.415.7873.721 1.2432.9.4558.194.9255.274 1.4366.274.2072 0 .3867-.013.5525-.066.1657-.058.3176-.127.4396-.221.1267-.099.2235-.208.2764-.346.0691-.126.1127-.278.1127-.428 0-.292-.1127-.527-.3337-.707-.1243-.085-.3177-.165-.5802-.278-.2624-.095-.6078-.194-1.0222-.288-.6607-.166-1.2132-.373-1.6575-.594-.442-.235-.7874-.486-1.036-.773-.2072-.235-.3568-.5-.4696-.788-.1105-.292-.1497-.608-.1497-.953 0-.428.0967-.831.2763-1.174.1934-.345.4558-.652.7873-.912s.7183-.453 1.1603-.594c.4421-.126.8978-.193 1.3813-.193.4996 0 .9692.053 1.4227.18.4696.122.9002.287 1.2985.522.4005.226.7297.5 1.0198.817l-1.257 1.382c-.2348-.221-.4834-.415-.7596-.58-.274-.18-.5502-.32-.8403-.415-.2763-.113-.5526-.166-.7897-.166-.2348 0-.4398.028-.6331.067-.1796.042-.3338.113-.4559.194-.1243.085-.2209.193-.29.32-.069.14-.0967.274-.0967.453.0139.152.0552.292.1243.415.069.126.152.239.2764.32.1404.099.3452.193.6099.306.274.108.6216.207 1.0475.301.6101.166 1.105.346 1.5194.539.4006.193.7206.428.9531.679.2371.221.4006.481.4973.774.0967.301.152.621.152.98 0 .581-.1657 1.089-.4972 1.547-.3201.454-.7597.815-1.3261 1.062-.5525.267-1.188.386-1.8786.386z" fill-rule="evenodd"/><path clip-rule="evenodd" d="m36.6331 126.03c.4535-.122.9116-.287 1.326-.508.4282-.208.8012-.472 1.1304-.774l-1.1166-1.575c-.442.387-.8564.647-1.2294.802-.3867.135-.8033.22-1.2569.22-.6492 0-1.2156-.14-1.699-.386-.4973-.247-.8703-.608-1.1327-1.08-.1796-.302-.2901-.661-.343-1.047h7.1528l.0139-.788c.0161-.693-.0829-1.326-.3039-1.906-.2072-.58-.5248-1.094-.9254-1.506-.4006-.428-.8842-.759-1.4344-1.008-.5525-.251-1.1464-.373-1.7818-.373-.7321 0-1.3951.122-2.0029.387-.6078.246-1.1326.608-1.5608 1.061-.442.458-.7736 1.009-1.0223 1.632-.2463.622-.3729 1.326-.3729 2.086 0 .953.2233 1.807.6492 2.542.442.746 1.0498 1.34 1.8233 1.768.7873.428 1.6852.633 2.7074.633.4397 0 .9094-.053 1.379-.18zm-4.061-6.559c.2095-.439.5271-.773.9392-1.008.4006-.235.9117-.345 1.5195-.345.3868 0 .7458.085 1.0773.246.32.166.594.387.8035.679.2072.288.3316.622.3569 1.009v.085h-4.9174c.0552-.253.1243-.472.221-.666z" fill-rule="evenodd"/><path clip-rule="evenodd" d="m43.5509 126.03v-5.813c0-.302.053-.566.1658-.815.1105-.246.2602-.458.4536-.652.2072-.175.4304-.315.7066-.428.274-.108.5665-.152.8704-.152.3568 0 .6768.085.9369.251.2486.166.4558.401.5824.716.1382.306.2073.707.2073 1.165v5.728h2.2767v-5.802c0-.287.0553-.566.1658-.815.1105-.234.2624-.453.4696-.646.1934-.194.4306-.334.7046-.445.2762-.108.5662-.152.8724-.152.4006 0 .7298.072.9946.226.2624.147.4558.401.5801.716.1382.32.1934.72.1934 1.218v5.702h2.293v-5.854c0-.887-.1243-1.632-.3729-2.226-.2486-.608-.6217-1.048-1.1051-1.354-.4835-.288-1.1027-.44-1.8371-.44-.3315 0-.663.053-1.0083.152-.3338.095-.6632.247-.967.428-.3039.194-.5802.415-.8288.647-.221.207-.3867.445-.511.693-.1267-.345-.2762-.633-.4696-.886-.2763-.359-.6239-.622-1.036-.787-.4121-.166-.8841-.247-1.409-.247-.3568 0-.7044.053-1.0497.18-.3431.108-.6631.274-.9808.481-.3039.193-.5663.444-.7873.721-.0438.052-.0967.126-.1381.179l-.03-1.393h-2.2239v9.709h2.2814z" fill-rule="evenodd"/><path clip-rule="evenodd" d="m65.9722 125.563c.6769-.44 1.1995-1.034 1.5748-1.794.3867-.759.58-1.632.58-2.612 0-.967-.1933-1.84-.58-2.6-.3868-.773-.9255-1.367-1.5885-1.793-.6631-.426-1.4366-.633-2.3069-.633-.4005 0-.7874.053-1.1603.193-.3868.122-.7298.288-1.0498.509-.3177.226-.5939.458-.801.721l-.014.013v-5.166h-2.2652v13.606h2.1962l.0277-1.174c.2095.246.4558.472.7596.665.3339.221.7069.401 1.119.523.4005.14.8288.193 1.257.193.8265-.004 1.5861-.209 2.2514-.651zm-4.1323-1.727c-.4006-.26-.7183-.633-.9531-1.093-.2348-.454-.3569-.995-.3569-1.586 0-.592.1244-1.119.3569-1.575.2371-.458.5525-.801.9531-1.066.4029-.26.8724-.387 1.395-.387s.9945.127 1.4089.387c.4006.265.7183.608.9393 1.066.2349.453.343.981.343 1.575 0 .593-.1104 1.132-.343 1.586-.2371.458-.5524.831-.9691 1.093-.4006.26-.8565.387-1.3814.387s-.9922-.124-1.3927-.387z" fill-rule="evenodd"/><path d="m72.2675 112.396h-2.2929v13.634h2.2929z"/><path clip-rule="evenodd" d="m80.5018 126.03c.4558-.122.9118-.287 1.3262-.508.4282-.208.8011-.472 1.1326-.774l-1.1189-1.575c-.442.387-.8564.647-1.2293.802-.3868.135-.8012.22-1.257.22-.6493 0-1.2155-.14-1.699-.386-.4973-.247-.8703-.608-1.1304-1.08-.1796-.302-.2923-.661-.3453-1.047h7.1529l.016-.788c.0138-.693-.0828-1.326-.3038-1.906-.2095-.58-.5273-1.094-.9256-1.506-.4005-.428-.8839-.759-1.4364-1.008-.5526-.251-1.1465-.373-1.7819-.373-.7298 0-1.3928.122-2.0029.387-.6077.246-1.1304.608-1.5609 1.061-.4397.458-.7735 1.009-1.0221 1.632-.2463.622-.3707 1.326-.3707 2.086 0 .953.221 1.807.6469 2.542.4421.746 1.0498 1.34 1.8233 1.768.7897.428 1.6852.633 2.7097.633.4374 0 .907-.053 1.3766-.18zm-4.061-6.559c.2072-.439.5249-.773.937-1.008.4028-.235.9117-.345 1.5195-.345.3867 0 .7459.085 1.0797.246.3177.166.594.387.8012.679.2072.288.3314.622.359 1.009v.085h-4.9196c.0575-.253.1265-.472.2232-.666z" fill-rule="evenodd"/><path clip-rule="evenodd" d="m85.447 129.458-.7458-.896c.4397-.25.8149-.538 1.0912-.872.2763-.32.4144-.594.4144-.827 0-.126-.0276-.25-.0805-.359-.0553-.126-.1935-.278-.403-.472-.2464-.234-.4282-.439-.5111-.607-.0829-.18-.1243-.359-.1243-.567 0-.315.1106-.58.3431-.773.2371-.207.5387-.302.9001-.302.3315 0 .6332.095.8979.274.2648.18.4696.44.6239.76.1381.334.2209.72.2209 1.146 0 .373-.0691.746-.1934 1.105-.1404.373-.3176.703-.5662 1.009-.2349.306-.5111.58-.8288.815-.3062.251-.6516.43-1.0384.566z" fill-rule="evenodd"/><path clip-rule="evenodd" d="m98.5862 126.03v-7.606h2.1108v-2.1h-2.1108v-2.461h-2.2676v2.461h-1.9202v2.1h1.9202v7.606z" fill-rule="evenodd"/><path clip-rule="evenodd" d="m104.523 126.03v-5.18c0-.34.069-.647.18-.921.126-.278.276-.513.483-.732.224-.207.456-.359.732-.485.277-.109.567-.18.884-.18.194 0 .387.028.581.085.193.042.359.108.497.18l.61-2.487c-.127-.057-.276-.099-.47-.126-.193-.042-.387-.053-.594-.053-.483 0-.939.108-1.369.334-.44.234-.827.534-1.161.934-.149.18-.29.373-.4.581l-.014-1.656h-2.238v9.708h2.279z" fill-rule="evenodd"/><path clip-rule="evenodd" d="m110.076 116.324h2.265v9.708h-2.265zm1.105-2.06c-.456 0-.804-.113-1.064-.346-.249-.221-.373-.552-.373-.966 0-.387.125-.703.387-.954.262-.246.608-.373 1.05-.373.469 0 .828.127 1.077.346.249.221.373.552.373.981 0 .386-.124.706-.387.939-.248.246-.607.373-1.063.373z" fill-rule="evenodd"/><path clip-rule="evenodd" d="m119.47 124.209c.527 0 .997-.14 1.409-.4.414-.279.732-.634.98-1.094.238-.454.346-.967.334-1.547.014-.594-.096-1.119-.334-1.561-.246-.453-.566-.815-.98-1.08-.415-.26-.884-.4-1.409-.4s-1.009.14-1.423.4c-.428.265-.76.624-.995 1.08-.234.467-.345.981-.345 1.561s.113 1.093.345 1.547c.235.458.567.815.995 1.094.414.262.898.4 1.423.4zm0 2.001c-.967 0-1.837-.221-2.597-.647-.76-.44-1.368-1.034-1.81-1.794-.439-.759-.663-1.632-.663-2.599s.224-1.839.663-2.594c.442-.76 1.05-1.372 1.81-1.798s1.63-.647 2.597-.647c.953 0 1.809.221 2.583.647.759.428 1.353 1.038 1.782 1.798.439.755.663 1.627.663 2.594s-.224 1.84-.663 2.599c-.431.76-1.023 1.354-1.782 1.794-.774.428-1.63.647-2.583.647z" fill-rule="evenodd"/><path clip-rule="evenodd" d="m126.859 126.03h.624 1.116v-5.854c0-.293.056-.566.18-.815.11-.251.276-.458.483-.652.194-.193.442-.329.707-.439.276-.113.594-.152.923-.152.401-.014.746.053 1.022.207.291.152.498.387.622.721.141.333.21.732.21 1.227v5.76h2.263v-5.922c0-.886-.125-1.632-.373-2.212-.247-.594-.622-1.034-1.131-1.326-.499-.302-1.105-.44-1.839-.44-.525 0-1.02.108-1.517.334-.484.221-.912.509-1.273.868-.111.113-.221.235-.304.345l-.028-1.353h-2.21v9.708h.525z" fill-rule="evenodd"/><path clip-rule="evenodd" d="m140.615 126.209c-.87 0-1.63-.135-2.32-.428-.68-.288-1.23-.706-1.66-1.241l1.466-1.273c.371.415.788.721 1.241.9.456.194.926.274 1.437.274.209 0 .386-.013.552-.066.166-.058.318-.127.442-.221.125-.099.207-.208.276-.346.067-.126.111-.278.111-.428 0-.292-.111-.527-.334-.707-.124-.085-.318-.165-.58-.278-.276-.095-.608-.194-1.02-.288-.663-.166-1.215-.373-1.66-.594-.439-.235-.787-.486-1.033-.773-.21-.235-.36-.5-.47-.788-.111-.292-.152-.608-.152-.953 0-.428.097-.831.276-1.174.194-.345.456-.652.788-.912.333-.26.72-.453 1.16-.594.442-.126.9-.193 1.383-.193.498 0 .967.053 1.423.18.468.122.898.287 1.296.522.387.226.732.5 1.022.817l-1.256 1.382c-.238-.221-.484-.415-.76-.58-.276-.18-.567-.32-.843-.415-.276-.113-.552-.166-.787-.166-.237 0-.442.028-.636.067-.179.042-.331.113-.455.194-.125.085-.221.193-.29.32-.067.14-.097.274-.097.453.014.152.055.292.127.415.052.126.149.239.273.32.141.099.346.193.61.306.277.108.622.207 1.05.301.608.166 1.103.346 1.52.539.4.193.718.428.953.679.235.221.4.481.497.774.097.301.15.621.15.98 0 .581-.164 1.089-.497 1.547-.318.454-.76.815-1.327 1.062-.548.267-1.185.386-1.876.386z" fill-rule="evenodd"/><path clip-rule="evenodd" d="m155.506 126.21c-.912 0-1.726-.221-2.447-.661-.73-.44-1.296-1.038-1.711-1.793-.416-.76-.623-1.633-.623-2.586s.207-1.821.623-2.58c.415-.76.981-1.354 1.711-1.798.721-.44 1.533-.661 2.447-.661.87 0 1.671.166 2.376.495.718.334 1.271.787 1.658 1.386l-1.244 1.501c-.193-.26-.428-.481-.704-.702-.29-.208-.58-.373-.9-.5-.332-.122-.647-.18-.967-.18-.536 0-1.02.141-1.437.401-.428.265-.759.624-1.008 1.08-.249.467-.373.98-.373 1.561 0 .58.124 1.093.387 1.547.246.458.58.815 1.008 1.093.442.26.912.401 1.453.401.318 0 .621-.053.923-.152.304-.108.58-.26.856-.454.263-.193.528-.444.76-.732l1.243 1.52c-.414.538-.994.98-1.713 1.326-.727.322-1.503.488-2.318.488z" fill-rule="evenodd"/><path clip-rule="evenodd" d="m167.027 126.03c.456-.122.912-.287 1.326-.508.429-.208.802-.472 1.133-.774l-1.119-1.575c-.442.387-.856.647-1.229.802-.387.135-.801.22-1.257.22-.649 0-1.216-.14-1.699-.386-.497-.247-.87-.608-1.13-1.08-.18-.302-.293-.661-.346-1.047h7.155l.014-.788c.014-.693-.083-1.326-.304-1.906-.209-.58-.527-1.094-.925-1.506-.401-.428-.884-.759-1.437-1.008-.552-.251-1.146-.373-1.782-.373-.729 0-1.392.122-2.003.387-.607.246-1.13.608-1.561 1.061-.439.458-.773 1.009-1.022 1.632-.246.622-.37 1.326-.37 2.086 0 .953.221 1.807.647 2.542.442.746 1.049 1.34 1.823 1.768.79.428 1.685.633 2.71.633.437 0 .907-.053 1.376-.18zm-4.061-6.559c.207-.439.525-.773.937-1.008.403-.235.912-.345 1.52-.345.386 0 .746.085 1.079.246.318.166.594.387.802.679.207.288.331.622.359 1.009v.085h-4.92c.057-.253.127-.472.223-.666z" fill-rule="evenodd"/><path clip-rule="evenodd" d="m175.011 126.03v-7.606h2.127v-2.1h-2.127v-2.461h-2.265v2.461h-1.906v2.1h1.906v7.606z" fill-rule="evenodd"/><path clip-rule="evenodd" d="m182.001 126.03v-7.606h2.114v-2.1h-2.114v-2.461h-2.263v2.461h-1.92v2.1h1.92v7.606z" fill-rule="evenodd"/><path clip-rule="evenodd" d="m191.504 126.03c.456-.122.912-.287 1.326-.508.428-.208.801-.472 1.133-.774l-1.119-1.575c-.44.387-.857.647-1.23.802-.386.135-.801.22-1.257.22-.647 0-1.213-.14-1.699-.386-.497-.247-.87-.608-1.13-1.08-.18-.302-.29-.661-.345-1.047h7.155l.014-.788c.013-.693-.083-1.326-.304-1.906-.21-.58-.528-1.094-.926-1.506-.4-.428-.884-.759-1.436-1.008-.553-.251-1.147-.373-1.78-.373-.732 0-1.395.122-2.003.387-.61.246-1.132.608-1.563 1.061-.44.458-.773 1.009-1.034 1.632-.237.622-.359 1.326-.359 2.086 0 .953.221 1.807.649 2.542.44.746 1.05 1.34 1.824 1.768.787.428 1.683.633 2.707.633.438 0 .907-.053 1.377-.18zm-4.061-6.559c.207-.439.525-.773.939-1.008.401-.235.912-.345 1.519-.345.387 0 .744.085 1.078.246.318.166.594.387.801.679.207.288.332.622.359 1.009v.085h-4.917c.055-.253.124-.472.221-.666z" fill-rule="evenodd"/><path clip-rule="evenodd" d="m209.019 125.563c.677-.44 1.2-1.034 1.575-1.794.387-.759.58-1.632.58-2.612 0-.967-.193-1.84-.58-2.6-.387-.773-.923-1.367-1.586-1.793s-1.437-.633-2.307-.633c-.403 0-.79.053-1.163.193-.386.122-.729.288-1.047.509-.32.226-.596.458-.804.721l-.013.013v-5.166h-2.266v13.606h2.197l.029-1.174c.208.246.454.472.76.665.332.221.705.401 1.117.523.4.14.828.193 1.257.193.828-.004 1.588-.209 2.251-.651zm-4.13-1.727c-.4-.26-.72-.633-.953-1.093-.237-.454-.359-.995-.359-1.586 0-.592.124-1.119.359-1.575.235-.458.553-.801.953-1.066.401-.26.87-.387 1.393-.387.527 0 .997.127 1.409.387.4.265.718.608.939 1.066.235.453.343.981.343 1.575 0 .593-.11 1.132-.343 1.586-.237.458-.552.831-.967 1.093-.403.26-.856.387-1.383.387-.521 0-.99-.124-1.391-.387z" fill-rule="evenodd"/><path clip-rule="evenodd" d="m215.291 126.03v-5.18c0-.34.069-.647.18-.921.11-.278.276-.513.483-.732.208-.207.456-.359.732-.485.277-.109.567-.18.871-.18.207 0 .4.028.594.085.193.042.359.108.497.18l.61-2.487c-.127-.057-.276-.099-.47-.126-.193-.042-.386-.053-.596-.053-.483 0-.937.108-1.381.334-.429.234-.815.534-1.147.934-.152.18-.29.373-.4.581l-.028-1.656h-2.226v9.708h2.281z" fill-rule="evenodd"/><path clip-rule="evenodd" d="m220.843 116.324h2.266v9.708h-2.266zm1.105-2.06c-.456 0-.815-.113-1.066-.346-.246-.221-.37-.552-.37-.966 0-.387.124-.703.386-.954.247-.246.608-.373 1.05-.373.454 0 .815.127 1.078.346.246.221.373.552.373.981 0 .386-.127.706-.387.939-.263.246-.622.373-1.064.373z" fill-rule="evenodd"/><path clip-rule="evenodd" d="m234.916 130.082v-13.772h-2.21l-.014 1.133c-.165-.18-.345-.359-.566-.513-.345-.235-.732-.44-1.16-.581-.431-.151-.886-.221-1.354-.221-.856 0-1.616.221-2.293.647-.663.429-1.19 1.039-1.577 1.78-.386.76-.58 1.632-.58 2.613 0 .967.194 1.839.58 2.599.401.76.939 1.354 1.616 1.793.677.429 1.451.647 2.307.647.428 0 .856-.066 1.243-.207.401-.136.774-.329 1.091-.566.263-.194.47-.401.65-.608v5.251h2.267zm-6.271-6.26c-.414-.26-.73-.621-.951-1.079-.223-.454-.345-.981-.345-1.575s.124-1.119.345-1.575c.221-.458.537-.826.951-1.093.403-.26.871-.387 1.395-.387.525 0 .995.127 1.393.387.417.246.732.607.953 1.079.224.454.346.995.346 1.587 0 .591-.125 1.132-.346 1.586-.221.458-.536.806-.953 1.066-.4.26-.87.386-1.393.386-.524.005-.994-.119-1.395-.382z" fill-rule="evenodd"/><path clip-rule="evenodd" d="m242.294 125.896c.484-.221.898-.499 1.244-.872.138-.14.246-.274.356-.44l.014 1.448h2.213v-9.708h-2.266v5.813c0 .32-.055.594-.165.873-.111.26-.261.481-.454.674-.196.193-.43.345-.693.44-.26.113-.552.152-.87.152-.44 0-.801-.095-1.103-.288-.32-.193-.552-.486-.707-.845-.163-.359-.234-.801-.234-1.308v-5.513h-2.266v5.995c0 .801.127 1.505.401 2.085.262.58.663 1.034 1.176 1.34.525.32 1.117.468 1.824.468.536 0 1.047-.095 1.53-.314z" fill-rule="evenodd"/><path clip-rule="evenodd" d="m254.517 126.03c.47-.122.912-.287 1.34-.508.431-.208.801-.472 1.133-.774l-1.119-1.575c-.44.387-.856.647-1.243.802-.387.135-.801.22-1.243.22-.663 0-1.23-.14-1.713-.386-.484-.247-.857-.608-1.117-1.08-.179-.302-.303-.661-.359-1.047h7.169l.014-.788c.014-.693-.097-1.326-.304-1.906-.223-.58-.527-1.094-.925-1.506-.415-.428-.884-.759-1.437-1.008-.552-.251-1.146-.373-1.796-.373-.718 0-1.381.122-1.986.387-.61.246-1.133.608-1.577 1.061-.429.458-.774 1.009-1.02 1.632-.237.622-.359 1.326-.359 2.086 0 .953.207 1.807.649 2.542.439.746 1.033 1.34 1.823 1.768.774.428 1.683.633 2.694.633.453 0 .907-.053 1.376-.18zm-4.047-6.559c.207-.439.511-.773.926-1.008.414-.235.923-.345 1.517-.345.403 0 .76.085 1.08.246.331.166.593.387.801.679.207.288.331.622.373 1.009v.085h-4.918c.055-.253.124-.472.221-.666z" fill-rule="evenodd"/><path clip-rule="evenodd" d="m266.717 130.082v-5.212c.043.046.082.085.126.126.357.359.801.647 1.324.873.513.221 1.064.329 1.63.329.829 0 1.588-.221 2.254-.647.663-.44 1.199-1.038 1.586-1.793.387-.746.58-1.619.58-2.586 0-.98-.193-1.853-.58-2.594-.387-.746-.923-1.34-1.586-1.773-.663-.428-1.437-.647-2.293-.647-.539 0-1.064.113-1.561.32-.5.207-.912.481-1.257.815-.097.095-.18.194-.249.288l-.027-1.255h-2.226v13.76h2.279zm1.201-6.271c-.4-.265-.72-.622-.939-1.08-.235-.44-.359-.981-.359-1.561 0-.594.126-1.119.359-1.561.221-.453.539-.815.939-1.066.401-.246.871-.373 1.409-.373.525 0 .995.127 1.407.387.4.251.72.612.939 1.052.221.454.332.967.332 1.561 0 .58-.125 1.119-.343 1.561-.237.458-.539.815-.953 1.08-.401.246-.857.386-1.382.386-.538-.002-1.008-.14-1.409-.386z" fill-rule="evenodd"/><path clip-rule="evenodd" d="m280.485 124.209c.525 0 .995-.14 1.407-.4.416-.279.746-.634.983-1.094.235-.454.343-.967.343-1.547 0-.594-.111-1.119-.343-1.561-.237-.453-.567-.815-.983-1.08-.415-.26-.884-.4-1.407-.4-.527 0-.994.14-1.423.4-.428.265-.759.624-.994 1.08-.223.467-.345.981-.345 1.561s.124 1.093.345 1.547c.235.458.566.815.994 1.094.431.262.898.4 1.423.4zm0 2.001c-.967 0-1.837-.221-2.597-.647-.759-.44-1.369-1.034-1.809-1.794-.442-.759-.649-1.632-.649-2.599s.207-1.839.649-2.594c.44-.76 1.05-1.372 1.809-1.798.76-.426 1.63-.647 2.597-.647.953 0 1.824.221 2.583.647.76.426 1.354 1.038 1.796 1.798.428.755.647 1.627.647 2.594s-.221 1.84-.647 2.599c-.442.76-1.036 1.354-1.796 1.794-.759.428-1.63.647-2.583.647z" fill-rule="evenodd"/><path clip-rule="evenodd" d="m292.255 125.896c.486-.221.9-.499 1.246-.872.138-.14.246-.274.356-.44l.014 1.448h2.21v-9.708h-2.263v5.813c0 .32-.055.594-.166.873-.096.26-.262.481-.455.674-.194.193-.429.345-.691.44-.262.113-.552.152-.87.152-.428 0-.801-.095-1.105-.288s-.537-.486-.705-.845c-.149-.359-.234-.801-.234-1.308v-5.513h-2.266v5.995c0 .801.14 1.505.401 2.085.276.58.663 1.034 1.176 1.34.525.32 1.13.468 1.823.468.535 0 1.048-.095 1.529-.314z" fill-rule="evenodd"/><path clip-rule="evenodd" d="m300.832 126.03v-5.18c0-.34.069-.647.18-.921.124-.278.276-.513.483-.732.221-.207.456-.359.73-.485.276-.109.566-.18.873-.18.207 0 .4.028.594.085.193.042.359.108.497.18l.608-2.487c-.125-.057-.277-.099-.47-.126-.193-.042-.387-.053-.594-.053-.484 0-.939.108-1.381.334-.431.234-.815.534-1.147.934-.152.18-.29.373-.4.581l-.03-1.656h-2.224v9.708h2.281z" fill-rule="evenodd"/><path clip-rule="evenodd" d="m56.8818 143.395c-.3868-.26-.7069-.621-.9256-1.079-.221-.468-.3315-.995-.3315-1.6 0-.581.1105-1.105.3315-1.561.221-.458.5388-.815.9256-1.066.4005-.26.8701-.387 1.3927-.387.5272 0 .9969.127 1.3952.387.4144.251.7321.608.9531 1.066.221.453.343.98.343 1.561 0 .607-.1243 1.132-.343 1.6-.221.458-.5387.817-.9531 1.079-.4006.247-.8703.387-1.3952.387-.5226 0-.9922-.138-1.3927-.387zm2.0857 2.169c.4167-.152.7896-.345 1.1188-.58.32-.207.5664-.454.7874-.732v1.353h2.3067v-9.708h-2.2929v1.354c-.1773-.279-.4144-.527-.6746-.746-.3062-.26-.6629-.454-1.0658-.594-.4144-.14-.8564-.221-1.3537-.221-.8403 0-1.6.221-2.2791.647-.6769.428-1.2133 1.02-1.6 1.779-.3868.76-.594 1.633-.594 2.6 0 .98.2072 1.839.594 2.594.3867.76.9116 1.372 1.5608 1.812s1.3813.661 2.1824.661c.4674 0 .8956-.067 1.31-.219z" fill-rule="evenodd"/><path clip-rule="evenodd" d="m68.8711 145.782c-.8702 0-1.6301-.135-2.3207-.428-.6792-.288-1.2293-.707-1.6598-1.241l1.4664-1.273c.3707.415.7874.721 1.2409.9.4558.18.9255.274 1.4388.274.2072 0 .3868-.027.5503-.066.1658-.053.32-.127.4421-.221.1243-.099.2071-.226.2762-.346.0668-.126.1104-.278.1104-.428 0-.306-.1104-.527-.3337-.707-.1243-.08-.3177-.179-.5802-.278-.2739-.095-.6077-.194-1.0198-.288-.663-.18-1.2156-.373-1.6599-.608-.4397-.221-.7874-.486-1.0337-.76-.2072-.234-.3591-.499-.4696-.787-.1105-.306-.1519-.621-.1519-.967 0-.433.0967-.817.2762-1.16.1934-.359.4558-.665.7873-.912.3338-.26.7207-.453 1.1604-.594.442-.14.9-.207 1.3835-.207.4972 0 .967.067 1.4228.193.4673.109.8978.288 1.2961.523.3868.226.732.5 1.0221.817l-1.2569 1.382c-.2371-.221-.4835-.415-.7598-.594-.2762-.166-.5525-.307-.8426-.415-.2763-.099-.5525-.152-.7873-.152-.2371 0-.442.028-.6354.067-.1796.042-.3315.099-.4558.193-.1243.086-.221.194-.2901.32-.0667.127-.0966.274-.0966.454.0138.14.0552.279.1266.414.0529.127.1495.24.2738.32l.6239.293c.2625.108.6078.221 1.036.315.6078.166 1.1028.346 1.5195.539.4006.193.7183.414.9531.679.2349.221.4006.481.4973.774.0967.287.1497.621.1497.98 0 .567-.1635 1.089-.4973 1.547-.3177.44-.7599.801-1.3262 1.062-.5502.267-1.1855.386-1.8761.386z" fill-rule="evenodd"/><path clip-rule="evenodd" d="m77.6152 145.782c-.8564 0-1.6299-.135-2.3068-.428-.6906-.288-1.2431-.707-1.6736-1.241l1.4803-1.273c.3591.415.7735.721 1.2293.9.4535.18.9371.274 1.4366.274.2072 0 .4005-.027.5663-.066.1635-.053.3038-.127.4281-.221.1244-.099.2211-.226.2902-.346.0553-.126.0967-.278.0967-.428 0-.306-.1105-.527-.3315-.707-.1266-.08-.32-.179-.5802-.278-.2624-.095-.6101-.194-1.0222-.288-.663-.18-1.2155-.373-1.6575-.608-.442-.221-.7897-.486-1.036-.76-.2072-.234-.3591-.499-.4696-.787-.0967-.306-.152-.621-.152-.967 0-.433.0967-.817.2901-1.16.1796-.359.442-.665.7735-.912.3339-.26.7206-.453 1.1627-.594.4397-.14.9116-.207 1.3812-.207.4973 0 .967.067 1.4366.193.4558.109.884.288 1.2846.523.4006.226.746.5 1.0222.817l-1.257 1.382c-.2371-.221-.4835-.415-.7598-.594-.2762-.166-.5524-.307-.8425-.415-.2763-.099-.5365-.152-.7874-.152-.2372 0-.442.028-.6239.067-.1934.042-.343.099-.4674.193-.1266.086-.2094.194-.2762.32-.0691.127-.1104.274-.1104.454.0138.14.0529.279.1243.414.0691.127.1634.24.29.32.1243.086.3315.18.6077.293.2625.108.6078.221 1.0498.315.594.166 1.1052.346 1.5058.539.4005.193.7182.414.9531.679.2348.221.4004.481.4971.774.0967.287.152.621.152.98 0 .567-.1657 1.089-.4857 1.547-.3315.44-.7736.801-1.3238 1.062-.5686.267-1.1902.386-1.8947.386z" fill-rule="evenodd"/><path clip-rule="evenodd" d="m88.0168 145.47c.4835-.221.9001-.514 1.2431-.873.1405-.14.2487-.274.3592-.428l.0277 1.434h2.21v-9.708h-2.263v5.813c0 .32-.0553.594-.1658.859-.1105.273-.2624.495-.4696.688-.1934.179-.4144.334-.6906.44-.2625.099-.5525.152-.8702.152-.4305 0-.8036-.095-1.1052-.288-.3039-.207-.5363-.486-.7044-.845-.1519-.355-.2348-.801-.2348-1.308v-5.513h-2.2653v5.981c0 .815.1381 1.519.4006 2.099.2763.58.663 1.02 1.1879 1.34.5134.32 1.1188.467 1.8255.467.5341.003 1.0453-.103 1.5149-.31z" fill-rule="evenodd"/><path clip-rule="evenodd" d="m96.6075 145.603v-5.18c0-.341.0553-.647.1658-.921.1243-.278.2763-.527.4973-.732.2072-.207.4396-.373.7181-.486.2763-.122.5664-.179.8841-.179.1957 0 .3891.028.5825.071.1934.053.3706.108.4972.194l.6075-2.487-.469-.14-.5943-.053c-.4834 0-.9393.108-1.3675.345-.442.221-.8288.534-1.1603.921-.152.193-.2901.387-.4029.594l-.0137-1.655h-2.2378v9.708z" fill-rule="evenodd"/><path clip-rule="evenodd" d="m107.41 145.603c.468-.122.912-.288 1.34-.509s.801-.485 1.131-.787l-1.117-1.561c-.442.387-.856.647-1.243.787-.373.148-.79.221-1.243.221-.663 0-1.23-.126-1.713-.373-.484-.246-.857-.607-1.119-1.079-.18-.316-.29-.661-.359-1.048h7.169l.014-.787c.016-.693-.083-1.326-.304-1.906-.221-.594-.525-1.094-.926-1.52-.414-.414-.884-.746-1.434-.994-.552-.251-1.146-.373-1.796-.373-.72 0-1.383.122-1.989.373-.608.26-1.132.608-1.574 1.075-.431.458-.774.994-1.023 1.632-.234.622-.359 1.312-.359 2.072 0 .967.208 1.807.65 2.553s1.036 1.326 1.823 1.754c.773.429 1.685.647 2.693.647.452.003.907-.05 1.379-.177zm-4.049-6.573c.209-.428.513-.773.925-.994.415-.235.926-.359 1.52-.359.4 0 .759.085 1.077.246.334.166.594.401.801.693.224.292.334.622.373.995v.099h-4.917c.055-.254.124-.472.221-.68z" fill-rule="evenodd"/><path clip-rule="evenodd" d="m114.371 145.603v-5.18c0-.341.069-.647.18-.921.11-.278.276-.527.483-.732s.456-.373.733-.486c.276-.122.566-.179.87-.179.207 0 .4.028.594.071.193.053.359.108.497.194l.608-2.487-.47-.14-.594-.053c-.483 0-.937.108-1.381.345-.428.221-.815.534-1.147.921-.152.193-.29.387-.4.594l-.028-1.655h-2.226v9.708z" fill-rule="evenodd"/><path clip-rule="evenodd" d="m128.131 145.782c-.857 0-1.632-.135-2.307-.428-.679-.288-1.245-.707-1.674-1.241l1.478-1.273c.373.415.776.721 1.23.9.456.18.939.274 1.436.274.207 0 .401-.027.567-.066.165-.053.304-.127.43-.221.125-.099.221-.226.29-.346.067-.126.097-.278.097-.428 0-.306-.113-.527-.334-.707-.124-.08-.318-.179-.58-.278-.262-.095-.594-.194-1.02-.288-.663-.18-1.215-.373-1.66-.608-.439-.221-.787-.486-1.02-.76-.223-.234-.373-.499-.469-.787-.111-.306-.166-.621-.166-.967 0-.433.097-.817.29-1.16.193-.359.456-.665.787-.912.334-.26.721-.453 1.161-.594.442-.14.9-.207 1.383-.207.484 0 .967.067 1.423.193.454.109.884.288 1.285.523.4.226.746.5 1.022.817l-1.243 1.382c-.238-.221-.5-.415-.776-.594-.274-.166-.55-.307-.827-.415-.29-.099-.552-.152-.801-.152-.237 0-.442.028-.624.067s-.331.099-.456.193c-.124.086-.221.194-.29.32-.066.127-.096.274-.096.454 0 .14.043.279.11.414.069.127.166.24.29.32l.61.293c.277.108.622.221 1.05.315.608.166 1.103.346 1.503.539.417.193.733.414.97.679.234.221.4.481.497.774.097.287.138.621.138.98 0 .567-.152 1.089-.483 1.547-.332.44-.774.801-1.326 1.062-.571.267-1.193.386-1.895.386z" fill-rule="evenodd"/><path clip-rule="evenodd" d="m138.075 143.782c.527 0 .997-.14 1.409-.414.415-.265.746-.622.981-1.08.237-.454.345-.967.345-1.547 0-.594-.11-1.119-.345-1.575-.235-.453-.566-.815-.981-1.08-.414-.26-.884-.386-1.409-.386s-1.008.126-1.423.386c-.428.265-.759.638-.98 1.094-.235.454-.359.981-.359 1.561s.126 1.093.359 1.547c.221.458.552.815.98 1.08.415.276.898.414 1.423.414zm0 2.001c-.967 0-1.837-.221-2.597-.647-.759-.44-1.353-1.034-1.795-1.794-.44-.759-.663-1.632-.663-2.599s.223-1.835.663-2.594c.442-.76 1.036-1.372 1.795-1.798.76-.44 1.63-.661 2.597-.661s1.823.221 2.583.661c.76.428 1.354 1.038 1.796 1.798.428.759.649 1.627.649 2.594s-.223 1.84-.649 2.599c-.442.76-1.036 1.354-1.796 1.794-.76.428-1.616.647-2.583.647z" fill-rule="evenodd"/><path clip-rule="evenodd" d="m145.478 145.603h.61 1.116v-5.854c0-.306.069-.567.18-.815.126-.251.276-.472.483-.652.194-.193.442-.345.721-.439.276-.113.58-.166.912-.166.4 0 .745.053 1.036.221.276.152.483.387.623.72.139.32.194.733.194 1.214v5.774h2.277v-5.94c0-.882-.138-1.614-.387-2.208-.246-.58-.622-1.02-1.117-1.326-.499-.288-1.119-.44-1.853-.44-.511 0-1.02.109-1.519.33-.481.225-.912.513-1.257.886-.111.113-.221.235-.318.359l-.014-1.367h-2.21v9.708h.523z" fill-rule="evenodd"/><path clip-rule="evenodd" d="m163.492 145.603v-5.18c0-.341.07-.647.18-.921.111-.278.276-.527.484-.732.207-.205.455-.373.732-.486.276-.122.566-.179.87-.179.207 0 .4.028.594.071.193.053.359.108.497.194l.61-2.487-.47-.14-.596-.053c-.483 0-.937.108-1.381.345-.428.221-.815.534-1.147.921-.152.193-.29.387-.4.594l-.028-1.655h-2.226v9.708z" fill-rule="evenodd"/><path clip-rule="evenodd" d="m174.307 145.603c.47-.122.912-.288 1.34-.509.414-.221.801-.485 1.132-.787l-1.132-1.561c-.442.387-.857.647-1.23.787-.386.148-.801.221-1.257.221-.649 0-1.215-.126-1.699-.373-.483-.246-.856-.607-1.116-1.079-.18-.316-.29-.661-.359-1.048h7.153l.029-.787c.014-.693-.096-1.326-.303-1.906-.224-.594-.528-1.094-.94-1.52-.4-.414-.884-.746-1.436-.994-.553-.251-1.147-.373-1.782-.373-.73 0-1.393.122-2.003.373-.608.26-1.13.608-1.561 1.075-.442.458-.773.994-1.022 1.632-.246.622-.373 1.312-.373 2.072 0 .967.223 1.807.663 2.553.431.746 1.036 1.326 1.823 1.754.774.429 1.674.647 2.694.647.453.003.909-.05 1.379-.177zm-4.047-6.573c.207-.428.511-.773.923-.994.417-.235.911-.359 1.519-.359.387 0 .746.085 1.078.246.334.166.596.401.803.693s.332.622.373.995v.099h-4.933c.057-.254.14-.472.237-.68z" fill-rule="evenodd"/><path clip-rule="evenodd" d="m183.147 145.783c-.912 0-1.727-.221-2.459-.661-.718-.44-1.285-1.052-1.711-1.812-.416-.755-.623-1.614-.623-2.567 0-.967.207-1.821.623-2.581.429-.759.995-1.372 1.711-1.811.732-.44 1.549-.661 2.459-.661.87 0 1.657.166 2.375.495.705.334 1.257.806 1.658 1.386l-1.257 1.515c-.179-.26-.414-.495-.704-.702-.277-.208-.581-.373-.901-.5-.317-.122-.633-.18-.953-.18-.536 0-1.02.127-1.45.387-.428.265-.76.638-1.008 1.094-.237.453-.36.98-.36 1.56 0 .581.125 1.094.373 1.548.247.458.594.815 1.023 1.079.428.274.911.415 1.436.415.318 0 .633-.053.923-.166.304-.094.594-.246.857-.44.276-.207.527-.444.759-.746l1.257 1.534c-.428.538-.994.98-1.726 1.312-.725.34-1.501.502-2.302.502z" fill-rule="evenodd"/><path clip-rule="evenodd" d="m192.277 149.83 1.66-4.227 4.061-9.708h-2.638l-2.277 6.34-.276.801-.044-.165c-.083-.261-.179-.482-.26-.633l-2.666-6.341h-2.61l4.447 9.92-1.754 4.015h2.357z" fill-rule="evenodd"/><path clip-rule="evenodd" d="m203.202 145.783c-.912 0-1.727-.221-2.445-.661-.732-.44-1.299-1.052-1.727-1.812-.417-.755-.624-1.614-.624-2.567 0-.967.207-1.821.624-2.581.428-.759.995-1.372 1.727-1.811.718-.44 1.533-.661 2.445-.661.87 0 1.657.166 2.375.495.705.334 1.258.806 1.658 1.386l-1.257 1.515c-.179-.26-.414-.495-.704-.702-.277-.208-.581-.373-.901-.5-.317-.122-.633-.18-.953-.18-.536 0-1.02.127-1.45.387-.428.265-.76.638-1.008 1.094-.238.453-.36.98-.36 1.56 0 .581.125 1.094.374 1.548.248.458.593.815 1.022 1.079.428.274.911.415 1.436.415.318 0 .633-.053.937-.166.29-.094.58-.246.857-.44.262-.207.513-.444.745-.746l1.257 1.534c-.414.538-.994.98-1.726 1.312-.728.34-1.487.502-2.302.502z" fill-rule="evenodd"/><path d="m211.092 131.97h-2.293v13.633h2.293z"/><path clip-rule="evenodd" d="m216.285 143.395c-.401-.26-.705-.621-.924-1.079-.221-.468-.333-.995-.333-1.6 0-.581.112-1.105.333-1.561.221-.458.525-.815.924-1.066.402-.26.872-.387 1.395-.387.527 0 .994.127 1.395.387.4.251.718.608.953 1.066.221.453.331.98.331 1.561 0 .607-.11 1.132-.331 1.6-.237.458-.553.817-.953 1.079-.403.247-.87.387-1.395.387s-.995-.138-1.395-.387zm2.085 2.169c.417-.152.788-.345 1.119-.58.318-.221.58-.468.788-.746v1.367h2.292v-9.708h-2.279v1.368c-.193-.274-.414-.528-.677-.76-.317-.26-.663-.454-1.077-.594-.401-.14-.843-.221-1.34-.221-.842 0-1.602.221-2.279.647s-1.213 1.02-1.6 1.779c-.403.76-.596 1.633-.596 2.6 0 .98.193 1.839.596 2.594.387.76.912 1.372 1.561 1.812s1.381.661 2.166.661c.47 0 .912-.067 1.326-.219z" fill-rule="evenodd"/><path clip-rule="evenodd" d="m231.519 149.517c.635-.221 1.16-.539 1.602-.953.442-.429.788-.94 1.022-1.547.235-.594.343-1.287.343-2.072v-9.048h-2.224l-.027 1.2c-.111-.127-.237-.247-.387-.373-.237-.194-.497-.373-.773-.539-.29-.147-.61-.274-.954-.359-.345-.081-.704-.136-1.063-.136-.886 0-1.685.221-2.39.661-.704.428-1.257 1.024-1.673 1.779-.401.76-.608 1.619-.608 2.586 0 .98.207 1.839.624 2.567.414.745.967 1.326 1.671 1.772.704.428 1.519.633 2.445.633.527 0 1.05-.113 1.549-.32.498-.221.923-.495 1.257-.84.111-.113.194-.221.277-.334v.912c0 .608-.113 1.119-.334 1.533s-.553.721-.995.926c-.43.193-.967.301-1.63.301-.345 0-.706-.041-1.079-.108-.357-.085-.705-.18-1.02-.32-.316-.141-.608-.292-.857-.486l-.815 1.685c.442.346 1.023.638 1.743.859.718.221 1.437.329 2.166.329.804.005 1.508-.09 2.13-.308zm-3.495-6.147c-.414-.251-.746-.608-.98-1.08-.249-.453-.36-.98-.36-1.547 0-.594.111-1.119.36-1.575.234-.471.566-.826.98-1.093.415-.26.898-.401 1.451-.401.552 0 1.036.141 1.464.387.416.26.746.622.983 1.08.235.467.357.994.357 1.6 0 .58-.111 1.105-.343 1.561-.237.458-.567.815-.997 1.066-.415.26-.912.386-1.464.386-.553 0-1.036-.124-1.451-.384z" fill-rule="evenodd"/><path clip-rule="evenodd" d="m242.845 145.603c.47-.122.912-.288 1.34-.509.431-.221.804-.485 1.133-.787l-1.116-1.561c-.442.387-.857.647-1.244.787-.373.148-.789.221-1.243.221-.663 0-1.229-.126-1.713-.373-.483-.246-.856-.607-1.118-1.079-.18-.316-.291-.661-.36-1.048h7.169l.014-.787c.014-.693-.083-1.326-.304-1.906-.221-.594-.525-1.094-.925-1.52-.415-.414-.884-.746-1.437-.994-.55-.251-1.144-.373-1.793-.373-.721 0-1.384.122-1.989.373-.608.26-1.133.608-1.575 1.075-.431.458-.773.994-1.022 1.632-.237.622-.359 1.312-.359 2.072 0 .967.207 1.807.649 2.553s1.036 1.326 1.823 1.754c.774.429 1.683.647 2.694.647.451.003.907-.05 1.376-.177zm-4.047-6.573c.207-.428.514-.773.926-.994.414-.235.925-.359 1.519-.359.401 0 .76.085 1.078.246.331.166.594.401.801.693.223.292.334.622.373.995v.099h-4.918c.058-.254.125-.472.221-.68z" fill-rule="evenodd"/><path clip-rule="evenodd" d="m248.399 145.797c-.44 0-.788-.122-1.02-.387-.249-.246-.359-.608-.359-1.075 0-.428.124-.788.372-1.066.247-.274.581-.415 1.009-.415.442 0 .773.127 1.022.373.235.247.359.622.359 1.105 0 .429-.127.774-.387 1.048-.251.283-.582.417-.996.417z" fill-rule="evenodd"/></g></svg>