<svg fill="none" height="150" viewBox="0 0 305 150" width="305" xmlns="http://www.w3.org/2000/svg"><path clip-rule="evenodd" d="m272.917 0h-269.17371v12.7656 36.3581 29.5137c0 15.4867 13.53671 28.0976 30.16761 28.0976h269.1741v-24.3657-41.5104-7.6087c0-18.3299-13.523-33.2502-30.168-33.2502z" fill="#fff" fill-rule="evenodd"/><path clip-rule="evenodd" d="m92.2579 75.5318h203.9901v-34.673l-.055-1.501-.166-1.5056-.248-1.4389-.373-1.4342-.456-1.3675-.539-1.3399-.635-1.2868-.718-1.2456-.815-1.1855-.871-1.1212-.953-1.0751-1.022-1.0061-1.064-.9254-1.16-.8726-1.202-.7873-1.27-.7206-1.299-.6193-1.367-.5272-1.395-.4535-1.451-.3454-1.464-.2624-1.519-.1657-1.533-.053h-204.0048v34.6523l.0552 1.5079.1658 1.5056.2485 1.4527.3731 1.4204.4558 1.3675.5386 1.3536.6354 1.2708.7322 1.2547.8011 1.1926.8702 1.1142.9531 1.0659 1.0222 1.0083 1.0636.9394 1.1603.8586 1.2017.7874 1.2708.7137 1.2985.6262 1.3675.5341 1.3951.4581 1.4503.3476 1.4642.2602 1.5194.1657z" fill="#fcd845" fill-rule="evenodd"/><path clip-rule="evenodd" d="m274.671 19.2992h-204.3221v34.9723c0 11.893 9.8234 21.5781 21.8937 21.5781h204.3224v-34.9906c0-11.893-9.821-21.5598-21.894-21.5598z" fill="#f8c52f" fill-rule="evenodd"/><path clip-rule="evenodd" d="m92.2434 73.6646c-10.8709 0-19.7227-8.686-19.7227-19.3934v-32.8059h202.1533c10.873 0 19.725 8.7045 19.725 19.3935v32.8058z" fill="#fff" fill-rule="evenodd"/><path clip-rule="evenodd" d="m92.2441 73.9848h202.4709v-33.126l-.055-1.4733-.166-1.4273-.276-1.4067-.359-1.379-.47-1.3284-.539-1.2845-.649-1.2271-.718-1.2017-.815-1.1189-.884-1.0797-.953-.9946-1.022-.9392-1.078-.8725-1.16-.7874-1.202-.7137-1.257-.6376-1.31-.5549-1.342-.4397-1.395-.3591-1.437-.274-1.464-.1542-1.492-.053h-202.4706v33.119l.0552 1.4803.1658 1.4205.2763 1.425.3591 1.3675.4696 1.326.5388 1.3007.6491 1.2271.7183 1.1879.815 1.1327.884 1.0658.9531 1.0061 1.0222.9393 1.0773.8541 1.1604.8058 1.2017.716 1.257.6238 1.3122.548 1.34.4604 1.395.3453 1.4366.274 1.4641.1519z" fill="#fff" fill-rule="evenodd"/><path clip-rule="evenodd" d="m231.175 75.5318h65.073v-34.673l-.055-1.501-.166-1.5056-.249-1.4389-.373-1.4342-.456-1.3675-.538-1.3399-.636-1.2868-.718-1.2456-.815-1.1855-.87-1.1212-.953-1.0751-1.022-1.0061-1.064-.9254-1.16-.8726-1.202-.7873-1.271-.7206-1.298-.6193-1.368-.5272-1.395-.4535-1.45-.3454-1.464-.2624-1.52-.1657-1.533-.053h-43.787l15.111 25.6208z" fill="#fcd845" fill-rule="evenodd"/><path clip-rule="evenodd" d="m230.663 75.8496 14.973-30.598-15.302-25.9524h44.34c12.072 0 21.893 9.6668 21.893 21.5598v34.9906z" fill="#f8c52f" fill-rule="evenodd"/><path clip-rule="evenodd" d="m234.655 73.3517h59.423v-32.4928l-.055-1.4204-.166-1.3929-.248-1.3537-.359-1.326-.442-1.3007-.539-1.227-.622-1.2064-.69-1.1465-.788-1.0866-.856-1.0521-.925-.9669-.995-.914-1.05-.8402-1.105-.7598-1.174-.6929-1.229-.6055-1.257-.5226-1.313-.4443-1.339-.3614-1.382-.2464-1.436-.1519-1.437-.0552h-39.975l13.772 23.3601z" fill="#fcd845" fill-rule="evenodd"/><path clip-rule="evenodd" d="m274.672 21.4653h-40.527l13.962 23.6916-13.962 28.5077h60.252v-32.8058c0-10.6867-8.854-19.3935-19.725-19.3935z" fill="#f8c52f" fill-rule="evenodd"/><path clip-rule="evenodd" d="m280.377 60.3514h-1.384l-.331.0414c.649-7.208 1.644-18.3275 2.127-23.3554.055-.5134-.318-.9716-.829-1.0245-.525-.053-.967.3338-1.02.8449-.745 7.733-2.707 29.8062-2.734 30.0272-.028.3867-.387.6791-.815.6791h-15.071c-.43 0-.789-.2924-.828-.6791-.014-.221-1.989-22.2942-2.735-30.0272-.042-.5134-.498-.9002-1.009-.8449-.511.0552-.897.5134-.842 1.0245.483 5.0279 1.48 16.1474 2.127 23.3554l-.332-.0414h-1.381c-.886 0-1.616.7321-1.616 1.6139v5.8451c0 .9001.73 1.6276 1.616 1.6276h1.381c.677 0 1.257-.4143 1.506-.9945.483.6078 1.257.9945 2.113.9945h15.071c.856 0 1.616-.3867 2.113-.9945.235.5802.815.9945 1.489.9945h1.384c.898 0 1.616-.7274 1.616-1.6138v-5.8405c0-.9002-.718-1.6323-1.616-1.6323z" fill="#221f20" fill-rule="evenodd"/><path clip-rule="evenodd" d="m262.809 39.1784c0 .6078-.237.716-.61.716h-.343v-1.8739h.467c.249 0 .486.0414.486.6883zm.136 3.9344c0 .6078-.237.6516-.511.6516h-.58v-2.2539h.414c.47 0 .677.1221.677.8541zm1.74.0254v-.6884c0-.9002-.276-1.5194-.828-1.8532.469-.3454.693-.9117.693-1.7267v-.3016c0-1.4665-.721-2.1709-2.197-2.1709h-2.224v8.9784h2.307c1.448.0023 2.249-.7988 2.249-2.2376z" fill="#221f20" fill-rule="evenodd"/><path clip-rule="evenodd" d="m268.276 42.2725h-.856l.428-2.9145zm-1.077 1.5447h1.326l.237 1.5609h1.754l-1.436-8.9784h-2.307l-1.437 8.9784h1.63z" fill="#221f20" fill-rule="evenodd"/><path clip-rule="evenodd" d="m275.624 39.6849v-1.0337c0-1.4918-.815-2.3482-2.21-2.3482-1.393 0-2.21.8541-2.21 2.3482v4.4731c0 1.4918.815 2.3505 2.21 2.3505s2.21-.8587 2.21-2.3505v-1.3399h-1.671v1.4251c0 .5663-.237.6331-.497.6331-.263 0-.514-.0668-.514-.6331v-4.6412c0-.5848.249-.6515.514-.6515.26 0 .497.0667.497.6515v1.1142h1.671z" fill="#221f20" fill-rule="evenodd"/><path clip-rule="evenodd" d="m264.754 48.5111h.566c.247 0 .498.0576.498.6516v4.4616c0 .5939-.249.6469-.498.6469h-.566zm.594-1.5999h-2.321v8.9669h2.321c1.436 0 2.21-.8012 2.21-2.3068v-4.3534c0-1.5194-.774-2.3067-2.21-2.3067z" fill="#221f20" fill-rule="evenodd"/><path clip-rule="evenodd" d="m272.711 48.5111v-1.5999h-4.061v8.9669h4.061v-1.6069h-2.334v-2.1387h1.851v-1.6023h-1.851v-2.0191z" fill="#221f20" fill-rule="evenodd"/><path clip-rule="evenodd" d="m261.274 59.0115h1.409v7.36h1.726v-7.36h1.409v-1.6001h-4.544z" fill="#221f20" fill-rule="evenodd"/><path clip-rule="evenodd" d="m268.374 66.3715v-3.4947h.274c.455 0 .692.152.692.9002v1.3537c0 .6929.054.8541.139 1.1188l.043.122h1.808l-.125-.2601c-.124-.2878-.124-.5802-.124-.967v-1.326c0-.5939-.083-1.3928-.721-1.8348.47-.3453.707-.9117.707-1.7266v-.6792c0-1.4665-.72-2.1664-2.196-2.1664h-2.224v8.9624h1.727zm0-7.36h.467c.249 0 .499.0529.499.7067v.8403c0 .594-.248.7206-.623.7206h-.343z" fill="#221f20" fill-rule="evenodd"/><path d="m273.927 57.4114h-1.727v8.9624h1.727z" fill="#221f20"/><path clip-rule="evenodd" d="m281.344 32.6839h-26.993v-2.2538l.03-.1082h1.962c.221 0 .43-.0852.594-.2256l2.458-2.141c.097-.0944.373-.2072.705-.2072h15.498c.343 0 .608.1128.718.2072l2.448 2.141c.165.1404.386.2256.607.2256h1.948l.03.1082v2.2538zm-.027-4.1853h-1.6l-2.197-1.92c-.469-.4144-1.174-.6469-1.92-.6469h-15.498c-.743 0-1.436.2348-1.906.6469l-2.196 1.92h-1.614c-1.022 0-1.853.8725-1.853 1.9338v2.4726c0 .3453.082.6791.248.9807.069.1266.18.2348.304.32.29.1934.636.3016.995.3016h27.559c.343 0 .691-.1082.995-.3016.124-.0852.221-.1934.29-.32.165-.3016.248-.6331.248-.9807v-2.4726c-.004-1.0613-.833-1.9338-1.855-1.9338z" fill="#221f20" fill-rule="evenodd"/><path clip-rule="evenodd" d="m275.596 28.6113h-15.498c-.414 0-.773.3407-.773.7736 0 .4282.359.7735.773.7735h15.498c.428 0 .774-.3453.774-.7735 0-.4329-.346-.7736-.774-.7736z" fill="#221f20" fill-rule="evenodd"/><path clip-rule="evenodd" d="m162.386 42.4242c.525 0 .954-.1128 1.285-.3453.334-.2348.484-.6792.484-1.3122 0-.32-.042-.5802-.125-.7874s-.207-.3729-.359-.5134c-.138-.122-.318-.2072-.525-.2601-.209-.053-.43-.0852-.677-.0852h-.953v3.3059zm-.234-4.8392c.607 0 1.063-.1081 1.339-.3291.291-.2072.431-.5802.431-1.1051s-.141-.9002-.387-1.1051c-.248-.221-.663-.3199-1.215-.3199h-.801v2.8592zm.856-4.4869c.456 0 .87.0414 1.257.1404.373.0806.707.2464.981.4536.276.221.499.4995.649.8587.152.3545.237.8011.237 1.3214 0 .5986-.14 1.1051-.417 1.5195-.276.4328-.69.7205-1.243.8725v.0276c.61.0806 1.094.3453 1.453.7874.357.4397.536 1.0382.536 1.768 0 .4328-.053.8449-.165 1.2317-.111.3868-.304.7321-.581 1.0198-.26.2924-.621.5272-1.063.693-.429.1796-.967.2602-1.616.2602h-3.73v-10.9538z" fill="#221f20" fill-rule="evenodd"/><path clip-rule="evenodd" d="m170.978 37.8774c.527 0 .939-.1266 1.229-.3729.277-.2463.431-.6792.431-1.2731 0-1.0084-.513-1.5056-1.533-1.5056h-1.05v3.1516zm.953-4.7793c.912 0 1.63.2349 2.141.693.514.4673.774 1.174.774 2.1271 0 .7459-.15 1.3399-.454 1.8073-.29.4535-.746.7597-1.367.9002v.0276c.55.0805.95.2601 1.199.5386.263.274.415.716.484 1.3261l.043.6745.028.8012.097 1.3398c.053.3062.193.5134.4.6239v.0945h-2.403c-.111-.152-.18-.3339-.207-.5273l-.069-.6216-.056-2.0995c-.014-.4397-.124-.7735-.318-1.0199-.193-.2463-.524-.373-.98-.373h-1.188v4.6413h-2.21v-10.9538z" fill="#221f20" fill-rule="evenodd"/><path d="m178.685 33.0981h-2.196v10.9538h2.196z" fill="#221f20"/><path clip-rule="evenodd" d="m182.374 40.4468c.028.5272.097.9393.207 1.2731.111.32.263.5525.456.7067.207.1358.47.221.801.221.32 0 .594-.0852.788-.221.193-.1519.345-.3867.455-.7067.111-.3338.18-.7459.224-1.2731.027-.5088.053-1.1327.053-1.8625 0-.7459-.028-1.3721-.053-1.8785-.044-.5134-.113-.9255-.224-1.2593-.11-.3292-.262-.5663-.455-.7206-.194-.1473-.468-.221-.788-.221-.331 0-.594.0714-.801.221-.193.152-.345.3914-.456.7206-.11.3338-.179.7459-.207 1.2593-.041.5087-.055 1.1326-.055 1.8785 0 .7275.014 1.3537.055 1.8625zm2.915 3.6052c-.401.1128-.898.1657-1.451.1657-.826 0-1.489-.1266-1.987-.3867-.485-.2786-.872-.6469-1.118-1.1603-.263-.4996-.431-1.105-.511-1.7934-.083-.6929-.113-1.4665-.113-2.293 0-.8449.03-1.6046.113-2.3068.08-.6929.246-1.2984.511-1.798.246-.4949.633-.8955 1.118-1.174.498-.2878 1.161-.4282 1.987-.4282.829 0 1.481.1404 1.976.4282.497.2785.87.6791 1.132 1.174.26.4996.428 1.1051.497 1.798.083.7022.125 1.4619.125 2.3068 0 .9209-.053 1.7681-.166 2.5278-.097.7459-.332 1.3928-.677 1.92l1.177 1.1465-1.299 1.1741z" fill="#221f20" fill-rule="evenodd"/><path clip-rule="evenodd" d="m190.936 40.7391c0 .2739.014.5271.056.7596.041.2349.096.4283.193.6078.097.1658.235.2878.4.3868.166.0944.387.1519.636.1519.276 0 .483-.0575.647-.1519.166-.099.292-.221.387-.3868.099-.1795.165-.3729.209-.6078.028-.2348.053-.4857.053-.7596v-7.6387h2.21v7.6387c0 .7021-.097 1.2684-.29 1.7266-.193.4535-.456.8149-.787 1.0889-.332.2647-.705.4443-1.119.5272-.428.099-.857.1404-1.31.1404-.442 0-.886-.0415-1.298-.1266-.415-.0668-.802-.2349-1.119-.495-.332-.2509-.594-.6077-.788-1.0659-.193-.4535-.29-1.0613-.29-1.7934v-7.6386h2.21z" fill="#221f20" fill-rule="evenodd"/><path clip-rule="evenodd" d="m203.245 34.9053h-3.909v2.5738h3.688v1.8211h-3.688v2.9444h4.061v1.8073h-6.271v-10.9538h6.119z" fill="#221f20" fill-rule="evenodd"/><path clip-rule="evenodd" d="m162.179 56.1799.263.3729.401-.3292c.248-.2118.43-.419.527-.6124.11-.2072.165-.4006.165-.594 0-.3015-.083-.5226-.262-.6883-.18-.152-.414-.2395-.707-.2395-.26 0-.481.0852-.661.2395-.179.1473-.276.3729-.276.6607-.002.3085.191.7091.55 1.1903zm-1.091 3.6466c-.166.2785-.235.5939-.235.9254 0 .1658.028.3453.097.5134.067.1796.163.3338.29.4674.124.1404.29.2509.484.3453.193.0805.414.1266.663.1266.58 0 1.049-.2394 1.422-.693l-1.839-2.6129c-.426.3338-.73.64-.882.9278zm4.268-.5549c.067-.3154.111-.5939.111-.8265h1.906c0 .594-.11 1.1604-.32 1.7129-.207.5387-.483 1.0521-.801 1.5194l1.437 2.0328h-2.351l-.608-.8449c-.276.32-.649.5802-1.119.7459-.467.1796-.966.2601-1.517.2601-.693 0-1.259-.0943-1.699-.3015-.442-.1934-.773-.4581-1.022-.7735-.246-.32-.414-.6516-.511-1.0245-.083-.3684-.14-.7022-.14-1.0199 0-.6331.193-1.2132.596-1.7404.4-.5134.937-.9807 1.616-1.4066l-.387-.5664-.373-.6078-.223-.4857-.111-.4535-.027-.4443c0-.3546.069-.6746.207-.9531.138-.2878.334-.5226.58-.7275.249-.1934.539-.3454.884-.4582.346-.1082.721-.1519 1.119-.1519.47 0 .884.0576 1.229.1658.332.1266.622.2923.843.4995.235.2072.401.4536.497.7321.111.274.164.5664.164.8818 0 .5525-.15 1.052-.468 1.4917-.306.4397-.789.8864-1.436 1.3537l1.644 2.2262c.115-.2371.211-.5157.28-.8357z" fill="#221f20" fill-rule="evenodd"/><path clip-rule="evenodd" d="m175.163 62.0779c.524 0 .966-.1266 1.284-.3592.334-.2348.497-.6607.497-1.2984 0-.3154-.041-.5801-.138-.7873-.083-.2072-.193-.3868-.345-.5088-.15-.1266-.331-.2256-.525-.2648-.207-.0529-.442-.0805-.677-.0805h-.953v3.3013h.857zm-.235-4.8346c.624 0 1.063-.1128 1.356-.3338.274-.221.414-.5939.414-1.1188 0-.5088-.127-.8818-.387-1.089-.248-.2256-.649-.3338-1.201-.3338h-.802v2.8732zm.856-4.5053c.456 0 .87.0575 1.257.1404.387.099.721.2464.997.472.276.2072.483.495.633.8541.166.3592.237.8011.237 1.326 0 .594-.14 1.0936-.414 1.5195-.277.4282-.693.7205-1.243.8679v.0322c.621.0806 1.102.3407 1.464.7874.359.4397.525 1.0198.525 1.7542 0 .4397-.053.8403-.164 1.227-.112.4006-.306.7321-.566 1.0245-.276.2878-.624.5226-1.064.7022-.43.1657-.983.2648-1.616.2648h-3.729v-10.9722z" fill="#221f20" fill-rule="evenodd"/><path clip-rule="evenodd" d="m182.664 60.105c.028.5226.111.9394.207 1.2547.111.3339.263.5664.47.7206.193.1404.456.221.787.221.32 0 .597-.0806.79-.221.193-.1519.357-.3867.453-.7206.111-.3153.18-.7321.224-1.2547.041-.5133.053-1.1327.053-1.8786 0-.732-.014-1.3536-.053-1.867-.044-.5088-.113-.9393-.224-1.2685-.096-.32-.26-.5525-.453-.7068-.193-.1542-.47-.2209-.79-.2209-.331 0-.594.0667-.787.2209-.207.152-.359.3868-.47.7068-.096.3292-.179.7597-.207 1.2685-.041.5134-.055 1.1327-.055 1.867 0 .7436.014 1.3653.055 1.8786zm-2.155-4.1738c.081-.7067.247-1.2984.511-1.8072.263-.4995.636-.8863 1.119-1.1603.498-.2923 1.161-.4328 1.987-.4328.829 0 1.492.1405 1.975.4328.498.274.871.6608 1.133 1.1603.26.5088.428 1.1028.497 1.8072.083.7068.125 1.4665.125 2.293 0 .8403-.042 1.6138-.125 2.3067-.069.693-.237 1.2984-.497 1.7934-.262.4996-.635.8864-1.133 1.1465-.483.2648-1.146.4006-1.975.4006-.826 0-1.489-.1358-1.987-.4006-.483-.2601-.856-.6469-1.119-1.1465-.262-.495-.43-1.1027-.511-1.7934-.069-.6929-.112-1.4664-.112-2.3067.002-.8265.043-1.5862.112-2.293z" fill="#221f20" fill-rule="evenodd"/><path clip-rule="evenodd" d="m191.228 60.3929c0 .2785.031.5271.056.7596.041.2349.096.4283.207.5941.097.1657.221.3061.387.4005.179.099.387.152.649.152s.47-.053.635-.152c.164-.0944.304-.2348.401-.4005.097-.1658.15-.3592.193-.5941.042-.2348.053-.4811.053-.7596v-7.6386h2.21v7.6386c0 .6929-.096 1.2731-.29 1.7266-.193.4581-.453.8172-.787 1.0797-.332.2601-.705.4397-1.119.5387-.414.0944-.856.1358-1.296.1358-.456 0-.884-.0414-1.312-.122-.415-.0852-.788-.2509-1.117-.4995-.334-.2464-.596-.6078-.789-1.0613-.194-.472-.291-1.066-.291-1.798v-7.6386h2.21z" fill="#221f20" fill-rule="evenodd"/><path clip-rule="evenodd" d="m201.809 54.704c-.179-.3591-.527-.5386-1.036-.5386-.276 0-.497.0667-.677.2209-.179.1543-.32.3868-.43.7206-.097.3292-.164.7735-.207 1.2961-.042.5387-.069 1.2041-.069 1.9776 0 .8265.029 1.5056.082 2.0144.069.5134.152.9001.277 1.1879.11.2786.262.472.442.5663.179.099.386.152.621.152.194 0 .373-.0414.539-.1082.166-.0575.318-.1934.442-.4006.124-.1934.221-.4719.288-.8449.069-.3591.113-.8403.113-1.4342h2.21c0 .5939-.056 1.1602-.141 1.6989-.096.5226-.262.9946-.525 1.3929-.248.4005-.594.7021-1.049.9392-.456.221-1.05.3292-1.782.3292-.827 0-1.478-.1357-1.973-.4005-.484-.2601-.87-.6469-1.133-1.1465-.262-.495-.43-1.1027-.497-1.7934-.083-.6929-.127-1.4665-.127-2.3068 0-.8265.044-1.5862.127-2.2929.067-.7068.235-1.2985.497-1.8073.263-.4995.649-.8863 1.133-1.1786.497-.274 1.146-.4144 1.973-.4144.787 0 1.422.1266 1.867.3867.453.251.801.5802 1.02.967.237.4006.373.831.43 1.273.053.4536.083.8864.083 1.287h-2.21c.002-.8081-.095-1.3883-.288-1.7428z" fill="#221f20" fill-rule="evenodd"/><path clip-rule="evenodd" d="m207.872 52.752v4.1877h2.569v-4.1877h2.21v10.9584h-2.21v-4.8784h-2.569v4.8784h-2.21v-10.9584z" fill="#221f20" fill-rule="evenodd"/><path clip-rule="evenodd" d="m216.23 60.105c.028.5226.097.9394.207 1.2547.111.3339.263.5664.456.7206.207.1404.47.221.801.221.318 0 .594-.0806.787-.221.194-.1519.346-.3867.456-.7206.111-.3153.18-.7321.221-1.2547.03-.5133.056-1.1327.056-1.8786 0-.732-.028-1.3536-.056-1.867-.041-.5088-.11-.9393-.221-1.2685-.11-.32-.262-.5525-.456-.7068-.193-.1542-.469-.2209-.787-.2209-.331 0-.594.0667-.801.2209-.193.152-.345.3868-.456.7068-.11.3292-.179.7597-.207 1.2685-.041.5134-.055 1.1327-.055 1.867 0 .7436.016 1.3653.055 1.8786zm-2.153-4.1738c.081-.7067.247-1.2984.512-1.8072.246-.4995.633-.8863 1.116-1.1603.5-.2923 1.163-.4328 1.989-.4328.829 0 1.48.1405 1.975.4328.498.274.871.6608 1.133 1.1603.26.5088.428 1.1028.497 1.8072.083.7068.125 1.4665.125 2.293 0 .8403-.042 1.6138-.125 2.3067-.069.693-.237 1.2984-.497 1.7934-.262.4996-.635.8864-1.133 1.1465-.497.2648-1.146.4006-1.975.4006-.826 0-1.489-.1358-1.989-.4006-.483-.2601-.87-.6469-1.116-1.1465-.263-.495-.431-1.1027-.512-1.7934-.082-.6929-.112-1.4664-.112-2.3067 0-.8265.027-1.5862.112-2.293z" fill="#221f20" fill-rule="evenodd"/><path clip-rule="evenodd" d="m227.943 60.2569h.027v-7.5189h2.033v10.9722h-2.53l-2.693-7.6801h-.028v7.6801h-2.031v-10.9722h2.542z" fill="#221f20" fill-rule="evenodd"/><path clip-rule="evenodd" d="m41.6603 47.0242c-2.3344 3.4348-.3592 7.9678 2.0604 10.2607 2.1939 2.0858 3.9643 2.5854 4.1968 2.6383l1.1189-2.1548 3.2322 8.8541-9.1465 1.8625 1.2156-2.2492-1.2432-.7068c-3.8538-2.5002-4.6688-5.912-4.9313-6.9871-.4673-1.8233-1.1441-7.3048 3.4971-11.5177z" fill="#221f20" fill-rule="evenodd"/><path clip-rule="evenodd" d="m41.619 47.1714c1.6576 3.8123 6.5473 4.5467 9.7634 3.7318 2.8593-.7321 4.2292-1.9062 4.4502-2.1272v-.0138l-1.2295-2.1273 9.2133 2.0144-3.3426 8.7322-1.2294-2.2124-1.1994.6653c-4.1853 1.92-7.5006.7874-8.5504.4398-1.798-.5894-6.7982-2.9422-7.8756-9.1028z" fill="#221f20" fill-rule="evenodd"/><path clip-rule="evenodd" d="m57.8901 37.972c-.6331 4.5583-3.3841 6.7454-4.2267 7.4337-1.478 1.188-6.1469 4.1463-11.9208 1.7129 4.1025.6653 7.3625-3.0527 8.4123-6.1998.937-2.8317.6629-4.6273.6215-4.9059h-.0415l-2.4472-.1082 6.6602-6.6855 5.5506 7.5143-2.5002-.1519z" fill="#221f20" fill-rule="evenodd"/><path clip-rule="evenodd" d="m29.9611 34.1318c-2.0996 0-3.7985-1.6943-3.7985-3.7939s1.6989-3.8124 3.7985-3.8124c2.0995 0 3.8124 1.7128 3.8124 3.8124s-1.7129 3.7939-3.8124 3.7939z" fill="#221f20" fill-rule="evenodd"/><path clip-rule="evenodd" d="m24.0762 52.6182c.3177-.8863.815-.8311.815-.8311s.4304-.0944.6767.8058l3.5501 12.4731c-2.956-.8587-5.6635-2.3206-7.9702-4.2705zm11.0918-33.333c-13.7439 0-24.9026 11.1746-24.9026 24.9186 0 13.7278 11.161 24.9049 24.9026 24.9049.7321 0 1.4526-.0576 2.1686-.1129l.1658 2.5002 4.556-4.4064-5.097-3.8929.1933 2.6268c-.663.0667-1.326.1082-1.9891.1082-1.0636 0-2.0995-.0807-3.1078-.2349l-.1105-.6468-2.362-20.1717c-.3177-3.8078 1.8532-4.4201 3.193-3.8538l7.5535 3.0389c.8702.3729 1.2869-.3454 1.2869-.3454s.4834-.7597-.3868-1.326c0 0-10.293-6.8075-12.4893-7.2219-2.9974-.5663-5.9534 1.867-6.6164 5.0141l-3.6604 17.9132c-3.1333-3.7687-5.0395-8.6194-5.0395-13.8936 0-11.992 9.7497-21.7394 21.7393-21.7394 6.3955 0 12.1556 2.788 16.136 7.2081l2.2377-2.2653c-4.5583-4.9888-11.1056-8.122-18.3713-8.122z" fill="#221f20" fill-rule="evenodd"/><path clip-rule="evenodd" d="m92.2579 75.5318h60.4321v-34.673l-.055-1.5009-.166-1.5057-.249-1.4526-.373-1.4205-.456-1.3675-.538-1.3537-.636-1.273-.732-1.2594-.801-1.1855-.87-1.1212-.953-1.0613-1.022-1.0061-1.064-.9392-1.16-.8588-1.202-.7873-1.271-.7206-1.298-.6192-1.368-.5411-1.395-.4535-1.45-.3453-1.464-.2601-1.52-.1681-1.533-.053h-60.4458v34.6661l.0552 1.5079.1658 1.5056.2485 1.4527.3731 1.4205.4558 1.3674.5386 1.3537.6354 1.2708.7322 1.2547.8011 1.1925.8702 1.1142.9531 1.066 1.0222 1.0083 1.0636.9393 1.1603.8587 1.2017.7873 1.2708.7137 1.2985.6262 1.3675.5341 1.3951.4581 1.4503.3477 1.4642.2601 1.5194.1658z" fill="#fcd845" fill-rule="evenodd"/><path clip-rule="evenodd" d="m131.112 19.2852h-60.7654v34.986c0 11.893 9.8234 21.5782 21.8937 21.5782h60.7657v-34.9907c0-11.893-9.821-21.5735-21.894-21.5735z" fill="#f8c52f" fill-rule="evenodd"/><path clip-rule="evenodd" d="m76.8822 43.3914v-10.8317h2.8593v8.4259h4.0887v2.4058z" fill="#221f20" fill-rule="evenodd"/><path clip-rule="evenodd" d="m85.1151 43.3914v-10.8317h6.9895v2.4057h-4.1302v1.699h3.5362v2.3874h-3.5362v1.9338h4.2958v2.4058z" fill="#221f20" fill-rule="evenodd"/><path clip-rule="evenodd" d="m99.0941 43.3914v-8.426h-2.8593v-2.4057h8.5912v2.4057h-2.859v8.426z" fill="#221f20" fill-rule="evenodd"/><path clip-rule="evenodd" d="m108.833 37.4909h1.036c1.161 0 1.727-.4719 1.727-1.4388 0-.4535-.138-.7874-.428-.9531-.304-.1796-.732-.274-1.299-.274h-1.036zm-2.859 5.9005v-10.8317h4.1c.567 0 1.119.0529 1.644.1657.539.1128.997.3062 1.395.5664.387.2739.705.633.939 1.0797.235.4535.343 1.0083.343 1.6806 0 .7919-.163 1.425-.467 1.9338-.32.5134-.746.9117-1.287 1.204l2.351 4.1992h-3.193l-1.865-3.6328h-1.105v3.6328z" fill="#221f20" fill-rule="evenodd"/><path d="m118.984 32.5597h-2.873v10.8179h2.873z" fill="#221f20"/><path clip-rule="evenodd" d="m99.4407 62.5776v-10.8179h7.0583v2.392h-4.199v2.0719h3.591v2.3874h-3.591v3.9666z" fill="#221f20" fill-rule="evenodd"/><path clip-rule="evenodd" d="m110.408 57.3125-.179.7598h2.003l-.18-.7598c-.14-.5088-.276-1.0751-.401-1.6989l-.4-1.7267h-.069l-.373 1.7404c-.124.6101-.263 1.1764-.401 1.6852zm-4.157 5.2651 3.303-10.8179h3.453l3.302 10.8179h-3.023l-.539-2.293h-3.022l-.539 2.293z" fill="#221f20" fill-rule="evenodd"/><path clip-rule="evenodd" d="m121.513 62.7848c-.693 0-1.34-.1266-1.975-.3453-.622-.221-1.174-.5663-1.644-1.0337-.47-.4581-.843-1.0382-1.119-1.7266-.276-.6929-.414-1.5056-.414-2.4196 0-.9139.138-1.7266.428-2.4334.29-.7021.677-1.2984 1.16-1.7796.484-.4857 1.036-.8402 1.66-1.105.633-.2463 1.285-.3867 1.973-.3867.721 0 1.37.1519 1.934.4281.566.2924 1.036.624 1.436 1.0107l-1.503 1.8348c-.262-.2348-.539-.4282-.829-.5801-.276-.152-.608-.2211-.967-.2211-.317 0-.621.0669-.911.2073-.274.1519-.525.3591-.744.6216-.223.2647-.387.5939-.513.9853-.138.3868-.194.8265-.194 1.3076 0 1.0245.21 1.8118.636 2.3505.428.5479.994.815 1.699.815.414 0 .787-.0852 1.116-.2786.334-.1795.61-.4006.843-.6469l1.492 1.7934c-.47.5387-.997.9393-1.603 1.204-.607.2579-1.257.3983-1.961.3983z" fill="#221f20" fill-rule="evenodd"/><path d="m129.04 51.7597h-2.859v10.8179h2.859z" fill="#221f20"/><path clip-rule="evenodd" d="m131.087 62.5776v-10.8179h2.859v8.4259h4.102v2.392z" fill="#221f20" fill-rule="evenodd"/><path clip-rule="evenodd" d="m139.317 62.5776v-10.8179h6.99v2.392h-4.117v1.699h3.523v2.4011h-3.523v1.9338h4.282v2.392z" fill="#221f20" fill-rule="evenodd"/><path clip-rule="evenodd" d="m85.9319 46.5661c-5.5252 0-10.0029 4.4778-10.0029 10.0007 0 5.5252 4.4754 10.019 10.0029 10.019 5.523 0 10.0144-4.4915 10.0144-10.019 0-5.5229-4.4891-10.0007-10.0144-10.0007z" fill="#fff" fill-rule="evenodd"/><path clip-rule="evenodd" d="m85.9303 66.8986 1.0497-.0552 1.0361-.152.9806-.2601.9555-.3477.8955-.4396.8564-.5134.8012-.594.7321-.6653.6629-.7275.594-.8057.5112-.8542.4419-.8978.3454-.9531.2624-.9807.1519-1.0337.0552-1.0521-.0552-1.0498-.1519-1.0383-.2624-.9807-.3454-.9531-.4419-.8932-.5112-.8588-.594-.8011-.6629-.7182-.7321-.6746-.8012-.5801-.8564-.5272-.8955-.4259-.9555-.3477-.9806-.2601-1.0361-.1542-1.0497-.053-1.0498.053-1.036.1542-.9808.2601-.9531.3477-.8977.4259-.8565.5272-.8012.5801-.7183.6746-.6767.7182-.5802.8011-.5249.8588-.4282.8932-.3453.9531-.2625.9807-.1519 1.0383-.0552 1.0498.0552 1.0521.1519 1.0337.2625.9807.3453.9531.4282.8978.5249.8542.5802.8057.6767.7275.7183.6653.8012.594.8565.5134.8977.4396.9531.3477.9808.2601 1.036.152z" fill="#fff" fill-rule="evenodd"/><path clip-rule="evenodd" d="m92.4648 58.1989h-4.9036v4.899h-3.2599v-4.899h-4.8899v-3.2622h4.8899v-4.8921h3.2599v4.8921h4.9036z" fill="#221f20" fill-rule="evenodd"/><path clip-rule="evenodd" d="m70.6682 21.1521h21.1201v-10.0719l-.0553-.6607-.152-.62159-.2348-.56634-.3452-.53873-.4006-.47191-.4698-.40061-.5386-.34762-.5664-.23255-.6216-.15422-.6629-.05297h-13.0257l-.663.05297-.6216.15422-.5664.23255-.5386.34762-.4697.40061-.4007.47191-.3452.53873-.2348.56634-.152.62159-.0552.6607z" fill="#fcd845" fill-rule="evenodd"/><path clip-rule="evenodd" d="m70.3489 21.4655v-10.4012c0-2.38733 1.9638-4.35336 4.3511-4.35336h13.0555c2.3897 0 4.3512 1.96603 4.3512 4.35336v10.4012z" fill="#f8c52f" fill-rule="evenodd"/><g fill="#221f20"><path clip-rule="evenodd" d="m75.3916 8.89783h4.9866v1.72667h-2.9422v2.5139h2.3505v1.7681h-2.3505v4.3788h-2.0444z" fill-rule="evenodd"/><path clip-rule="evenodd" d="m84.1897 13.638c.5825 0 .9255-.419.9255-1.5332 0-.9854-.304-1.5056-.9394-1.5056h-.7436v3.0388zm-2.8178-4.74017h2.9835c1.7566 0 2.8202.9531 2.8202 3.06647 0 1.5056-.4834 2.3483-1.2155 2.7466l1.3398 4.572h-2.1271l-1.0637-4.114h-.6769v4.114h-2.0603z" fill-rule="evenodd"/><path clip-rule="evenodd" d="m51.0245 82.3969h2.2814l-2.6405 12.335h5.5113l-.4006 1.92h-7.7767z" fill-rule="evenodd"/><path clip-rule="evenodd" d="m63.1814 90.9909c-.6331.4282-1.8901.6884-2.5968.9946-.6769.2878-1.0775.9393-1.257 1.7405-.1796.9001.0967 1.6138.9969 1.6138 1.2961 0 2.141-.9808 2.4702-2.5532zm1.3123 3.4257c-.0829.4006.0829.7597.4006.7597.1404 0 .2762-.0184.3591-.0576l-.3039 1.3975c-.2763.1082-.6768.2601-1.0912.2601-.9531 0-1.6737-.3867-1.5194-1.425h-.0438c-.8012 1.0659-1.7543 1.5793-3.0112 1.5793-1.7129 0-2.5969-.9531-2.1572-3.0135.5272-2.3874 1.6599-2.887 3.2184-3.3728l1.7681-.4535c.8288-.221 1.3699-.4397 1.5632-1.3813.1934-.9807 0-1.6-1.1326-1.6-1.4366 0-1.8671 1.0198-2.0858 2.0558h-2.0306c.4835-2.2653 1.6715-3.52 4.517-3.52 1.8923 0 3.2459.7321 2.8454 2.6268z" fill-rule="evenodd"/><path clip-rule="evenodd" d="m69.3683 82.2449h2.1549l-.4397 2.1548h-2.1572zm-.7873 3.6743h2.1549l-2.2793 10.7326h-2.141z" fill-rule="evenodd"/><path clip-rule="evenodd" d="m76.8843 89.0569.0553-.2924c.1795-.8541.069-1.6552-1.0498-1.6552-.8564 0-1.6437.4006-1.8371 1.4066-.1795.8265.1242 1.1741 1.174 1.5747l1.2847.4719c1.4803.5342 2.0328 1.3928 1.6737 3.0942-.4973 2.2929-2.3759 3.2736-4.5469 3.2736-2.7212 0-3.2737-1.2592-2.8178-3.3312l.0829-.4006h1.9062l-.069.3453c-.2625 1.2271.0414 1.9062 1.2708 1.9062 1.1764 0 1.8785-.5939 2.0995-1.5746.152-.8012-.1381-1.3123-.8564-1.5748l-1.6162-.6239c-1.5033-.5525-2.0005-1.3674-1.6437-3.0941.4305-2.0143 2.072-2.9398 4.2959-2.9398 2.735 0 3.0112 1.5862 2.7349 2.9261l-.0966.4857z" fill-rule="evenodd"/><path clip-rule="evenodd" d="m85.3781 89.0569.069-.2924c.1772-.8541.053-1.6552-1.0636-1.6552-.8564 0-1.6322.4006-1.8394 1.4066-.1796.8265.1266 1.1741 1.1764 1.5747l1.2847.4719c1.478.5342 2.0304 1.3928 1.6712 3.0942-.4972 2.2929-2.3735 3.2736-4.5444 3.2736-2.7212 0-3.2737-1.2592-2.8179-3.3312l.0829-.4006h1.92l-.0828.3453c-.2624 1.2271.0415 1.9062 1.2708 1.9062 1.1879 0 1.8786-.5939 2.0996-1.5746.1496-.8012-.1405-1.3123-.8565-1.5748l-1.6161-.6239c-1.5057-.5525-2.0029-1.3674-1.6438-3.0941.4282-2.0143 2.0859-2.9398 4.2959-2.9398 2.735 0 3.0113 1.5862 2.735 2.9261l-.0967.4857z" fill-rule="evenodd"/><path clip-rule="evenodd" d="m94.3434 90.0908.1266-.5801c.2901-1.3675.0668-2.4012-1.1464-2.4012-1.3698 0-2.0997 1.3675-2.3897 2.7603l-.0437.221zm-3.7709 1.4803-.1244.6078c-.32 1.4342-.5134 3.2737 1.1028 3.2737 1.5332 0 2.072-1.7543 2.2101-2.3874h2.0306c-.4973 2.3735-2.2516 3.8677-4.5837 3.8677-1.7566 0-3.8124-.5134-2.7764-5.4861.6077-2.8201 1.8372-5.813 5.2075-5.813 2.9975 0 3.4118 1.8072 2.7764 4.7931l-.2372 1.1465h-5.6057z" fill-rule="evenodd"/><path clip-rule="evenodd" d="m96.6906 94.9645 6.2294-7.2334h-4.4061l.373-1.8118h6.8511l-.387 1.7703-6.0221 7.1413h4.5031l-.373 1.8211h-7.1275z" fill-rule="evenodd"/><path clip-rule="evenodd" d="m112.92 82.3969h2.155l-3.039 14.255h-2.155z" fill-rule="evenodd"/><path clip-rule="evenodd" d="m120.92 90.0908.126-.5801c.29-1.3675.067-2.4012-1.146-2.4012-1.384 0-2.1 1.3675-2.39 2.7603l-.044.221zm-3.771 1.4803-.125.6078c-.32 1.4342-.513 3.2737 1.103 3.2737 1.533 0 2.072-1.7543 2.21-2.3874h2.033c-.5 2.3735-2.254 3.8677-4.586 3.8677-1.757 0-3.812-.5134-2.776-5.4861.607-2.8201 1.837-5.813 5.207-5.813 2.997 0 3.412 1.8072 2.777 4.7931l-.235 1.1465h-5.608z" fill-rule="evenodd"/><path clip-rule="evenodd" d="m132.384 95.2177c1.506 0 2.155-1.5332 2.68-3.9804.594-2.887.373-3.8815-.857-3.8815-1.657 0-2.279 1.4803-2.818 4.0472-.497 2.2929-.483 3.8147.995 3.8147zm-1.105-12.807h2.143l-1.008 4.7655h.044c.594-.9669 1.586-1.5333 2.746-1.5333 1.644 0 3.15.7321 2.157 5.4999-.803 3.6881-2.24 5.7877-4.751 5.7877-1.534 0-1.876-.9002-2.017-1.5908h-.041l-.277 1.3122h-2.03z" fill-rule="evenodd"/><path clip-rule="evenodd" d="m141.679 95.3236c1.575 0 2.141-1.3076 2.721-4.0472.498-2.3735.581-4.0472-.994-4.0472-1.563 0-2.196 1.6737-2.707 4.0472-.567 2.7396-.567 4.0472.98 4.0472zm2.058-9.6921c3.136 0 3.537 2.3206 2.821 5.6472-.707 3.3312-2.227 5.6518-5.21 5.6518-2.97 0-3.495-2.3206-2.79-5.6518.718-3.3289 2.071-5.6472 5.179-5.6472z" fill-rule="evenodd"/><path clip-rule="evenodd" d="m152.813 95.3973h-.055c-.746.9531-1.877 1.5333-3.067 1.5333-1.6 0-2.514-.7321-1.948-3.5108l1.603-7.5005h2.155l-1.63 7.6938c-.247 1.204.193 1.6047 1.105 1.6047.923 0 1.906-.594 2.141-1.798l1.602-7.5005h2.155l-2.279 10.7327h-2.031z" fill-rule="evenodd"/><path clip-rule="evenodd" d="m164.747 92.7429c-.704 2.5669-1.92 4.1853-4.57 4.1853-3.11 0-3.497-2.3205-2.792-5.6518.72-3.3266 2.072-5.6472 5.196-5.6472 3.23-.0414 3.163 2.5139 2.873 3.8538h-2.157c.221-.9945.221-2.2929-1.064-2.2538-1.561 0-2.196 1.6737-2.693 4.0472-.498 2.3782-.581 4.0472.98 4.0472 1.202.0277 1.837-.9669 2.197-2.5807z" fill-rule="evenodd"/><path clip-rule="evenodd" d="m168.435 82.3969h2.155l-.995 4.6665.053.046c.79-.9116 1.84-1.4803 2.943-1.4803 1.63 0 2.514.7459 2.058 2.9146l-1.727 8.1059h-2.155l1.561-7.36c.306-1.3928 0-1.9338-1.077-1.9338-.884 0-1.851.6883-2.155 2.0857l-1.533 7.2081h-2.157z" fill-rule="evenodd"/><path clip-rule="evenodd" d="m178.851 95.3236c1.577 0 2.143-1.3076 2.723-4.0472.498-2.3735.581-4.0472-1.008-4.0472-1.547 0-2.196 1.6737-2.693 4.0472-.583 2.7396-.583 4.0472.978 4.0472zm2.058-9.6921c3.133 0 3.536 2.3206 2.818 5.6472-.705 3.3312-2.224 5.6518-5.208 5.6518-2.983 0-3.497-2.3206-2.804-5.6518.719-3.3289 2.086-5.6472 5.194-5.6472z" fill-rule="evenodd"/><path clip-rule="evenodd" d="m186.518 85.9193h2.03l-.26 1.2593h.067c.732-.9669 1.867-1.5333 3.067-1.5333 1.643 0 2.516.7321 2.06 2.9145l-1.713 8.0945h-2.157l1.549-7.3601c.304-1.3928 0-1.9338-1.079-1.9338-.871 0-1.851.6884-2.155 2.0858l-1.533 7.2081h-2.157z" fill-rule="evenodd"/><path clip-rule="evenodd" d="m204.875 89.0569.053-.2924c.18-.8541.055-1.6552-1.063-1.6552-.857 0-1.63.4006-1.824 1.4066-.193.8265.111 1.1741 1.174 1.5747l1.273.4719c1.478.5342 2.045 1.3928 1.672 3.0942-.497 2.2929-2.362 3.2736-4.545 3.2736-2.709 0-3.273-1.2592-2.82-3.3312l.083-.4006h1.92l-.083.3453c-.26 1.2271.044 1.9062 1.287 1.9062 1.174 0 1.865-.5939 2.084-1.5746.165-.8012-.139-1.3123-.857-1.5748l-1.614-.6239c-1.491-.5525-1.989-1.3674-1.63-3.0941.415-2.0143 2.07-2.9398 4.28-2.9398 2.735 0 3.014 1.5862 2.735 2.9261l-.097.4857z" fill-rule="evenodd"/><path clip-rule="evenodd" d="m212.872 95.3973h-.069c-.73.9531-1.865 1.5333-3.067 1.5333-1.6 0-2.514-.7321-1.934-3.5108l1.589-7.5005h2.155l-1.63 7.6938c-.235 1.204.193 1.6047 1.119 1.6047.911 0 1.892-.594 2.127-1.798l1.602-7.5005h2.155l-2.279 10.7327h-2.031z" fill-rule="evenodd"/><path clip-rule="evenodd" d="m218.991 85.9193h2.155l-.357 1.6737h.041c.732-1.1995 1.699-1.9477 2.915-1.9477.237 0 .373.0276.499.0668l-.456 2.1986c-.14-.0461-.527-.1129-.884-.1129-.983 0-2.226.4283-2.665 2.4335l-1.37 6.4207h-2.141z" fill-rule="evenodd"/><path clip-rule="evenodd" d="m230.927 82.3969h2.154l-3.038 14.255h-2.153z" fill-rule="evenodd"/><path clip-rule="evenodd" d="m238.427 90.9909c-.633.4282-1.89.6884-2.597.9946-.676.2878-1.077.9393-1.257 1.7405-.179.9001.097 1.6138.997 1.6138 1.296 0 2.141-.9808 2.471-2.5532zm1.312 3.4257c-.082.4006.083.7597.401.7597.14 0 .276-.0184.359-.0576l-.304 1.3975c-.276.1082-.677.2601-1.093.2601-.953 0-1.672-.3867-1.517-1.425h-.044c-.801 1.0659-1.754 1.5793-3.011 1.5793-1.713 0-2.597-.9531-2.158-3.0135.528-2.3874 1.66-2.887 3.219-3.3728l1.768-.4535c.829-.221 1.368-.4397 1.563-1.3813.194-.9807 0-1.6-1.132-1.6-1.437 0-1.868 1.0198-2.086 2.0558h-2.031c.484-2.2653 1.672-3.52 4.517-3.52 1.893 0 3.246.7321 2.846 2.6268z" fill-rule="evenodd"/><path clip-rule="evenodd" d="m250.402 95.2177c1.492 0 2.157-1.5332 2.666-3.9804.594-2.887.373-3.8815-.856-3.8815-1.658 0-2.28 1.4803-2.818 4.0472-.498 2.2929-.47 3.8147 1.008 3.8147zm-1.119-12.807h2.155l-1.022 4.7655h.044c.594-.9669 1.586-1.5333 2.746-1.5333 1.646 0 3.149.7321 2.157 5.4999-.801 3.6881-2.237 5.7877-4.751 5.7877-1.534 0-1.865-.9002-2.001-1.5908h-.044l-.29 1.3122h-2.03z" fill-rule="evenodd"/><path clip-rule="evenodd" d="m258.11 85.9193h2.166l-.373 1.6737h.044c.746-1.1995 1.697-1.9477 2.914-1.9477.249 0 .387.0276.498.0668l-.456 2.1986c-.138-.0461-.525-.1129-.87-.1129-.981 0-2.238.4283-2.678 2.4335l-1.356 6.4207h-2.155z" fill-rule="evenodd"/><path clip-rule="evenodd" d="m265.28 82.2449h2.157l-.442 2.1548h-2.155zm-.774 3.6743h2.157l-2.279 10.7326h-2.155z" fill-rule="evenodd"/><path clip-rule="evenodd" d="m272.198 87.3579c-1.489 0-2.141 1.5332-2.65 3.962-.624 2.9054-.262 3.8976.843 3.8976 1.658 0 2.263-1.4803 2.804-4.0472.495-2.293.481-3.8124-.997-3.8124zm-.014 8.0391h-.041c-.61.9531-1.602 1.5333-2.776 1.5333-1.674 0-3.053-1.1603-2.114-5.4999.774-3.6996 2.21-5.7876 4.724-5.7876 1.533 0 1.906.9002 2.017 1.5862h.044l.276-1.3122h2.044l-3.025 14.2462h-2.141z" fill-rule="evenodd"/><path clip-rule="evenodd" d="m281.895 95.3973h-.053c-.746.9531-1.879 1.5333-3.08 1.5333-1.589 0-2.514-.7321-1.934-3.5108l1.6-7.5005h2.157l-1.644 7.6938c-.237 1.204.207 1.6047 1.117 1.6047.925 0 1.892-.594 2.143-1.798l1.586-7.5005h2.157l-2.279 10.7327h-2.03z" fill-rule="evenodd"/><path clip-rule="evenodd" d="m292.448 90.0908.125-.5801c.29-1.3675.069-2.4012-1.147-2.4012-1.367 0-2.086 1.3675-2.39 2.7603l-.041.221zm-3.771 1.4803-.124.6078c-.318 1.4342-.511 3.2737 1.103 3.2737 1.533 0 2.072-1.7543 2.21-2.3874h2.033c-.5 2.3735-2.254 3.8677-4.586 3.8677-1.755 0-3.813-.5134-2.763-5.4861.594-2.8201 1.823-5.813 5.194-5.813 2.997 0 3.425 1.8072 2.776 4.7931l-.235 1.1465h-5.608z" fill-rule="evenodd"/><path clip-rule="evenodd" d="m8.50878 126.03v-2.166h-6.16066v-3.354h5.13856v-2.146h-5.13856v-3.048h6.07775v-2.171h-8.42587v12.885z" fill-rule="evenodd"/><path clip-rule="evenodd" d="m11.4376 126.03h.624 1.1166v-5.854c0-.293.069-.567.1795-.815.1105-.251.2762-.458.4834-.652.1934-.193.4421-.329.7207-.44.274-.112.5801-.151.9116-.151.4006-.014.7459.052 1.0221.207.2901.152.4974.386.6332.72.1266.334.1933.732.1933 1.227v5.76h2.2654v-5.921c0-.886-.1243-1.632-.3729-2.212-.2464-.594-.6217-1.034-1.1189-1.326-.4973-.302-1.1166-.44-1.851-.44-.5249 0-1.0221.108-1.5194.334-.4834.221-.9116.509-1.2708.868-.1105.113-.221.235-.3039.345l-.0276-1.354h-2.2101v9.709h.5248z" fill-rule="evenodd"/><path clip-rule="evenodd" d="m25.1944 126.209c-.8541 0-1.6299-.135-2.3205-.428-.6769-.288-1.2293-.706-1.6575-1.241l1.4641-1.273c.373.415.7873.721 1.2431.9.4559.194.9256.274 1.4366.274.2072 0 .3868-.013.5525-.066.1658-.058.3177-.127.4397-.221.1266-.099.2234-.208.2764-.346.0691-.126.1127-.278.1127-.428 0-.292-.1127-.527-.3337-.707-.1243-.085-.3178-.165-.5802-.278-.2625-.095-.6079-.194-1.0222-.288-.6608-.166-1.2132-.373-1.6575-.594-.4421-.235-.7874-.486-1.036-.773-.2072-.235-.3568-.5-.4696-.788-.1105-.292-.1497-.608-.1497-.953 0-.428.0967-.831.2763-1.174.1933-.345.4558-.652.7873-.912s.7183-.453 1.1603-.594c.442-.126.8978-.193 1.3813-.193.4995 0 .9691.053 1.4227.18.4696.122.9002.287 1.2984.522.4006.226.7298.5 1.0199.817l-1.257 1.382c-.2349-.221-.4834-.415-.7597-.58-.2739-.18-.5502-.32-.8402-.415-.2763-.113-.5526-.166-.7897-.166-.2348 0-.4398.028-.6332.067-.1795.042-.3338.113-.4558.194-.1243.085-.2209.193-.29.32-.0691.14-.0967.274-.0967.453.0138.152.0552.292.1242.415.0691.126.1521.239.2764.32.1405.099.3452.193.61.306.2739.108.6216.207 1.0475.301.6101.166 1.105.346 1.5194.539.4006.193.7206.428.9531.679.2371.221.4006.481.4973.774.0967.301.152.621.152.98 0 .581-.1658 1.089-.4973 1.547-.32.454-.7597.815-1.326 1.062-.5525.267-1.188.386-1.8787.386z" fill-rule="evenodd"/><path clip-rule="evenodd" d="m36.6332 126.03c.4535-.122.9116-.288 1.326-.509.4282-.207.8012-.472 1.1304-.773l-1.1166-1.575c-.442.387-.8564.647-1.2294.801-.3867.136-.8033.221-1.2569.221-.6492 0-1.2156-.14-1.699-.387-.4973-.246-.8703-.607-1.1327-1.079-.1796-.302-.2901-.661-.343-1.048h7.1528l.0139-.787c.0161-.693-.0829-1.326-.3039-1.906-.2072-.581-.5249-1.094-.9254-1.506-.4006-.428-.8842-.76-1.4344-1.008-.5525-.251-1.1464-.373-1.7818-.373-.7321 0-1.3951.122-2.0029.386-.6078.247-1.1326.608-1.5608 1.062-.4421.458-.7736 1.008-1.0223 1.632-.2463.622-.3729 1.326-.3729 2.086 0 .953.2233 1.807.6492 2.541.442.746 1.0498 1.34 1.8233 1.768.7873.429 1.6852.634 2.7074.634.4397 0 .9093-.053 1.379-.18zm-4.061-6.559c.2095-.44.5271-.773.9392-1.008.4006-.235.9117-.346 1.5195-.346.3868 0 .7458.086 1.0773.247.32.165.594.387.8035.679.2072.288.3316.621.3569 1.008v.085h-4.9174c.0552-.253.1243-.472.221-.665z" fill-rule="evenodd"/><path clip-rule="evenodd" d="m43.5518 126.03v-5.813c0-.302.053-.566.1658-.815.1105-.246.2602-.458.4536-.651.2072-.175.4304-.316.7066-.429.274-.108.5665-.152.8704-.152.3568 0 .6767.086.9369.251.2486.166.4558.401.5824.716.1381.307.2073.707.2073 1.165v5.728h2.2767v-5.801c0-.288.0553-.567.1658-.815.1105-.235.2624-.454.4696-.647.1934-.194.4306-.334.7045-.445.2763-.108.5663-.152.8725-.152.4006 0 .7298.072.9945.226.2625.147.4559.401.5802.716.1382.32.1934.721.1934 1.218v5.702h2.293v-5.854c0-.886-.1243-1.632-.3729-2.226-.2487-.608-.6217-1.048-1.1052-1.354-.4834-.288-1.1026-.44-1.837-.44-.3315 0-.663.053-1.0083.152-.3339.095-.6632.247-.9671.429-.3038.193-.5801.414-.8287.646-.221.208-.3867.445-.5111.693-.1266-.345-.2762-.633-.4695-.886-.2763-.359-.624-.622-1.0361-.787-.412-.166-.884-.247-1.4089-.247-.3568 0-.7044.053-1.0498.18-.343.108-.663.274-.9807.481-.3039.193-.5663.444-.7873.721-.0438.053-.0967.126-.1382.179l-.0299-1.393h-2.2239v9.709h2.2814z" fill-rule="evenodd"/><path clip-rule="evenodd" d="m65.9722 125.563c.6769-.44 1.1995-1.034 1.5748-1.794.3867-.759.58-1.632.58-2.613 0-.966-.1933-1.839-.58-2.599-.3868-.773-.9255-1.367-1.5885-1.793-.6631-.426-1.4366-.633-2.3069-.633-.4005 0-.7874.053-1.1603.193-.3868.122-.7298.288-1.0498.509-.3177.226-.5939.458-.801.721l-.014.013v-5.166h-2.2652v13.606h2.1962l.0277-1.174c.2095.246.4558.472.7596.665.3339.221.7069.401 1.119.523.4005.14.8288.193 1.257.193.8265-.004 1.5861-.209 2.2514-.651zm-4.1323-1.727c-.4006-.26-.7183-.633-.9531-1.093-.2348-.454-.3569-.995-.3569-1.587 0-.591.1244-1.118.3569-1.574.2371-.458.5525-.801.9531-1.066.4029-.26.8724-.387 1.395-.387s.9945.127 1.4089.387c.4006.265.7183.608.9393 1.066.2349.453.343.981.343 1.574 0 .594-.1104 1.133-.343 1.587-.2371.458-.5524.831-.9691 1.093-.4006.26-.8565.387-1.3814.387s-.9922-.124-1.3927-.387z" fill-rule="evenodd"/><path d="m72.2685 112.396h-2.2929v13.634h2.2929z"/><path clip-rule="evenodd" d="m80.5024 126.03c.4558-.122.9118-.288 1.3262-.509.4282-.207.8011-.472 1.1326-.773l-1.1189-1.575c-.442.387-.8564.647-1.2293.801-.3868.136-.8012.221-1.257.221-.6492 0-1.2155-.14-1.699-.387-.4973-.246-.8703-.607-1.1304-1.079-.1796-.302-.2923-.661-.3453-1.048h7.1529l.016-.787c.0138-.693-.0828-1.326-.3038-1.906-.2095-.581-.5273-1.094-.9256-1.506-.4005-.428-.8839-.76-1.4364-1.008-.5525-.251-1.1465-.373-1.7819-.373-.7298 0-1.3928.122-2.0028.386-.6078.247-1.1305.608-1.561 1.062-.4397.458-.7735 1.008-1.0221 1.632-.2463.622-.3707 1.326-.3707 2.086 0 .953.221 1.807.6469 2.541.4421.746 1.0498 1.34 1.8233 1.768.7897.429 1.6852.634 2.7097.634.4374 0 .907-.053 1.3766-.18zm-4.061-6.559c.2072-.44.5249-.773.937-1.008.4029-.235.9117-.346 1.5195-.346.3868 0 .7459.086 1.0797.247.3177.165.594.387.8012.679.2072.288.3314.621.359 1.008v.085h-4.9196c.0575-.253.1265-.472.2232-.665z" fill-rule="evenodd"/><path clip-rule="evenodd" d="m85.4472 129.458-.7458-.896c.4397-.251.8149-.538 1.0912-.872.2762-.32.4144-.594.4144-.827 0-.126-.0276-.25-.0806-.359-.0552-.126-.1935-.278-.403-.472-.2463-.234-.4281-.439-.511-.607-.0829-.18-.1244-.36-.1244-.567 0-.315.1107-.58.3432-.773.2371-.208.5387-.302.9001-.302.3315 0 .6331.095.8979.274.2647.18.4696.44.6239.76.1381.334.2209.72.2209 1.146 0 .373-.0691.746-.1934 1.105-.1404.373-.3176.702-.5663 1.009-.2348.306-.511.58-.8287.815-.3062.251-.6516.43-1.0384.566z" fill-rule="evenodd"/><path clip-rule="evenodd" d="m98.5856 126.03v-7.606h2.1114v-2.1h-2.1114v-2.461h-2.2676v2.461h-1.9201v2.1h1.9201v7.606z" fill-rule="evenodd"/><path clip-rule="evenodd" d="m104.523 126.03v-5.18c0-.341.069-.647.18-.921.126-.278.276-.513.483-.732.224-.207.456-.359.732-.485.277-.109.567-.18.884-.18.194 0 .387.028.581.085.193.042.359.108.497.18l.61-2.487c-.127-.057-.276-.099-.47-.126-.193-.042-.387-.053-.594-.053-.483 0-.939.108-1.369.334-.44.234-.827.534-1.161.934-.149.18-.29.373-.4.58l-.014-1.655h-2.238v9.708h2.279z" fill-rule="evenodd"/><path clip-rule="evenodd" d="m110.076 116.324h2.265v9.708h-2.265zm1.105-2.06c-.456 0-.804-.113-1.064-.346-.249-.221-.373-.552-.373-.967 0-.386.125-.702.387-.953.262-.246.608-.373 1.05-.373.469 0 .828.127 1.077.346.249.221.373.552.373.98 0 .387-.124.707-.387.94-.248.246-.607.373-1.063.373z" fill-rule="evenodd"/><path clip-rule="evenodd" d="m119.47 124.209c.527 0 .996-.14 1.408-.4.415-.279.733-.634.981-1.094.237-.454.345-.967.334-1.547.014-.594-.097-1.119-.334-1.561-.246-.453-.566-.815-.981-1.08-.414-.26-.884-.4-1.408-.4-.525 0-1.009.14-1.423.4-.428.265-.76.624-.995 1.08-.235.467-.345.981-.345 1.561s.113 1.093.345 1.547c.235.458.567.815.995 1.094.414.262.898.4 1.423.4zm0 2.001c-.967 0-1.838-.221-2.597-.647-.76-.44-1.368-1.034-1.81-1.794-.44-.759-.663-1.632-.663-2.599s.223-1.839.663-2.594c.442-.76 1.05-1.372 1.81-1.798.759-.426 1.63-.647 2.597-.647.953 0 1.809.221 2.583.647.759.428 1.353 1.038 1.781 1.798.44.755.663 1.627.663 2.594s-.223 1.84-.663 2.599c-.43.76-1.022 1.354-1.781 1.794-.774.428-1.63.647-2.583.647z" fill-rule="evenodd"/><path clip-rule="evenodd" d="m126.859 126.03h.624 1.116v-5.854c0-.293.055-.567.18-.815.11-.251.276-.458.483-.652.194-.193.442-.329.707-.44.276-.112.594-.151.923-.151.401-.014.746.052 1.022.207.29.152.498.386.622.72.14.334.209.732.209 1.227v5.76h2.263v-5.921c0-.886-.124-1.632-.373-2.212-.246-.594-.621-1.034-1.13-1.326-.5-.302-1.105-.44-1.839-.44-.525 0-1.02.108-1.518.334-.483.221-.911.509-1.273.868-.11.113-.221.235-.304.345l-.027-1.354h-2.21v9.709h.525z" fill-rule="evenodd"/><path clip-rule="evenodd" d="m140.615 126.209c-.87 0-1.63-.135-2.32-.428-.679-.288-1.229-.706-1.66-1.241l1.466-1.273c.371.415.788.721 1.241.9.456.194.926.274 1.437.274.209 0 .387-.013.552-.066.166-.058.318-.127.442-.221.125-.099.208-.208.277-.346.066-.126.11-.278.11-.428 0-.292-.11-.527-.334-.707-.124-.085-.317-.165-.58-.278-.276-.095-.608-.194-1.02-.288-.663-.166-1.215-.373-1.659-.594-.44-.235-.788-.486-1.034-.773-.21-.235-.359-.5-.47-.788-.11-.292-.152-.608-.152-.953 0-.428.097-.831.277-1.174.193-.345.455-.652.787-.912.334-.26.72-.453 1.16-.594.442-.126.9-.193 1.384-.193.497 0 .967.053 1.422.18.468.122.898.287 1.297.522.386.226.732.5 1.022.817l-1.257 1.382c-.237-.221-.484-.415-.76-.58-.276-.18-.566-.32-.843-.415-.276-.113-.552-.166-.787-.166-.237 0-.442.028-.635.067-.18.042-.332.113-.456.194-.124.085-.221.193-.29.32-.067.14-.097.274-.097.453.014.152.055.292.127.415.053.126.149.239.274.32.14.099.345.193.61.306.276.108.621.207 1.05.301.607.166 1.102.346 1.519.539.401.193.718.428.953.679.235.221.401.481.497.774.097.301.15.621.15.98 0 .581-.163 1.089-.497 1.547-.318.454-.76.815-1.326 1.062-.548.267-1.186.386-1.877.386z" fill-rule="evenodd"/><path clip-rule="evenodd" d="m155.506 126.21c-.912 0-1.727-.221-2.447-.661-.73-.44-1.296-1.038-1.711-1.793-.416-.76-.623-1.633-.623-2.586s.207-1.821.623-2.581c.415-.759.981-1.353 1.711-1.798.72-.439 1.533-.66 2.447-.66.87 0 1.671.166 2.376.495.718.334 1.271.787 1.658 1.386l-1.244 1.501c-.193-.26-.428-.481-.704-.702-.29-.208-.58-.373-.9-.5-.332-.122-.647-.18-.967-.18-.537 0-1.02.141-1.437.401-.428.265-.759.624-1.008 1.08-.249.467-.373.98-.373 1.561 0 .58.124 1.093.387 1.547.246.458.58.815 1.008 1.093.442.26.912.401 1.453.401.317 0 .621-.053.923-.152.304-.108.58-.26.856-.454.263-.193.527-.444.76-.732l1.243 1.52c-.414.538-.994.98-1.713 1.326-.727.322-1.503.488-2.318.488z" fill-rule="evenodd"/><path clip-rule="evenodd" d="m167.027 126.03c.456-.122.912-.288 1.326-.509.428-.207.801-.472 1.133-.773l-1.119-1.575c-.442.387-.856.647-1.229.801-.387.136-.801.221-1.257.221-.649 0-1.216-.14-1.699-.387-.498-.246-.87-.607-1.131-1.079-.179-.302-.292-.661-.345-1.048h7.155l.014-.787c.014-.693-.083-1.326-.304-1.906-.209-.581-.527-1.094-.925-1.506-.401-.428-.884-.76-1.437-1.008-.552-.251-1.146-.373-1.782-.373-.73 0-1.393.122-2.003.386-.607.247-1.13.608-1.561 1.062-.439.458-.773 1.008-1.022 1.632-.246.622-.37 1.326-.37 2.086 0 .953.221 1.807.647 2.541.442.746 1.049 1.34 1.823 1.768.789.429 1.685.634 2.709.634.438 0 .908-.053 1.377-.18zm-4.061-6.559c.207-.44.525-.773.937-1.008.403-.235.912-.346 1.52-.346.386 0 .745.086 1.079.247.318.165.594.387.801.679.208.288.332.621.36 1.008v.085h-4.92c.057-.253.126-.472.223-.665z" fill-rule="evenodd"/><path clip-rule="evenodd" d="m175.011 126.03v-7.606h2.127v-2.1h-2.127v-2.461h-2.266v2.461h-1.906v2.1h1.906v7.606z" fill-rule="evenodd"/><path clip-rule="evenodd" d="m182.001 126.03v-7.606h2.113v-2.1h-2.113v-2.461h-2.263v2.461h-1.92v2.1h1.92v7.606z" fill-rule="evenodd"/><path clip-rule="evenodd" d="m191.503 126.03c.456-.122.912-.288 1.326-.509.429-.207.802-.472 1.133-.773l-1.119-1.575c-.439.387-.856.647-1.229.801-.387.136-.801.221-1.257.221-.647 0-1.213-.14-1.699-.387-.497-.246-.87-.607-1.13-1.079-.18-.302-.29-.661-.346-1.048h7.155l.014-.787c.014-.693-.083-1.326-.304-1.906-.209-.581-.527-1.094-.925-1.506-.401-.428-.884-.76-1.437-1.008-.552-.251-1.146-.373-1.779-.373-.732 0-1.395.122-2.003.386-.61.247-1.133.608-1.563 1.062-.44.458-.774 1.008-1.034 1.632-.237.622-.359 1.326-.359 2.086 0 .953.221 1.807.649 2.541.44.746 1.05 1.34 1.823 1.768.788.429 1.683.634 2.708.634.437 0 .907-.053 1.376-.18zm-4.061-6.559c.208-.44.525-.773.94-1.008.4-.235.911-.346 1.519-.346.387 0 .744.086 1.078.247.317.165.594.387.801.679.207.288.331.621.359 1.008v.085h-4.918c.056-.253.125-.472.221-.665z" fill-rule="evenodd"/><path clip-rule="evenodd" d="m209.019 125.563c.677-.44 1.2-1.034 1.575-1.794.387-.759.58-1.632.58-2.613 0-.966-.193-1.839-.58-2.599-.387-.773-.923-1.367-1.586-1.793s-1.437-.633-2.307-.633c-.403 0-.79.053-1.163.193-.386.122-.729.288-1.047.509-.32.226-.596.458-.803.721l-.014.013v-5.166h-2.266v13.606h2.197l.03-1.174c.207.246.453.472.759.665.332.221.705.401 1.117.523.4.14.829.193 1.257.193.828-.004 1.588-.209 2.251-.651zm-4.13-1.727c-.4-.26-.72-.633-.953-1.093-.237-.454-.359-.995-.359-1.587 0-.591.124-1.118.359-1.574.235-.458.553-.801.953-1.066.401-.26.87-.387 1.393-.387.527 0 .997.127 1.409.387.4.265.718.608.939 1.066.235.453.343.981.343 1.574 0 .594-.11 1.133-.343 1.587-.237.458-.552.831-.967 1.093-.403.26-.856.387-1.383.387-.521 0-.99-.124-1.391-.387z" fill-rule="evenodd"/><path clip-rule="evenodd" d="m215.291 126.03v-5.18c0-.341.069-.647.179-.921.111-.278.276-.513.484-.732.207-.207.455-.359.732-.485.276-.109.566-.18.87-.18.207 0 .4.028.594.085.193.042.359.108.497.18l.61-2.487c-.126-.057-.276-.099-.47-.126-.193-.042-.386-.053-.596-.053-.483 0-.937.108-1.381.334-.428.234-.815.534-1.147.934-.151.18-.29.373-.4.58l-.028-1.655h-2.226v9.708h2.282z" fill-rule="evenodd"/><path clip-rule="evenodd" d="m220.843 116.324h2.265v9.708h-2.265zm1.105-2.06c-.456 0-.815-.113-1.066-.346-.246-.221-.371-.552-.371-.967 0-.386.125-.702.387-.953.246-.246.608-.373 1.05-.373.453 0 .815.127 1.077.346.247.221.373.552.373.98 0 .387-.126.707-.387.94-.262.246-.621.373-1.063.373z" fill-rule="evenodd"/><path clip-rule="evenodd" d="m234.917 130.082v-13.772h-2.21l-.014 1.133c-.166-.179-.345-.359-.566-.513-.346-.235-.732-.44-1.16-.58-.431-.152-.887-.221-1.354-.221-.857 0-1.616.221-2.293.646-.663.429-1.19 1.039-1.577 1.78-.387.76-.58 1.632-.58 2.613 0 .967.193 1.839.58 2.599.401.76.939 1.354 1.616 1.794.677.428 1.45.646 2.307.646.428 0 .856-.066 1.243-.207.401-.136.774-.329 1.091-.566.263-.193.47-.401.65-.608v5.251h2.267zm-6.271-6.26c-.414-.26-.73-.621-.951-1.079-.223-.454-.345-.981-.345-1.575s.124-1.119.345-1.575c.221-.458.537-.826.951-1.093.403-.26.87-.387 1.395-.387s.995.127 1.393.387c.417.246.732.608.953 1.079.223.454.345.995.345 1.587 0 .591-.124 1.132-.345 1.586-.221.458-.536.806-.953 1.066-.401.26-.87.387-1.393.387-.525.004-.994-.12-1.395-.383z" fill-rule="evenodd"/><path clip-rule="evenodd" d="m242.295 125.897c.484-.221.898-.5 1.243-.873.138-.14.247-.274.357-.44l.014 1.448h2.212v-9.708h-2.265v5.813c0 .32-.055.594-.166.873-.11.26-.26.481-.453.674-.196.194-.431.346-.693.44-.26.113-.553.152-.87.152-.44 0-.802-.095-1.103-.288-.32-.193-.553-.486-.707-.845-.163-.359-.235-.801-.235-1.307v-5.514h-2.265v5.995c0 .801.127 1.505.4 2.085.263.581.663 1.034 1.177 1.34.525.32 1.116.468 1.823.468.537 0 1.048-.095 1.531-.313z" fill-rule="evenodd"/><path clip-rule="evenodd" d="m254.518 126.03c.47-.122.912-.288 1.34-.509.431-.207.801-.472 1.133-.773l-1.119-1.575c-.44.387-.857.647-1.243.801-.387.136-.802.221-1.244.221-.663 0-1.229-.14-1.712-.387-.484-.246-.857-.607-1.117-1.079-.179-.302-.304-.661-.359-1.048h7.169l.014-.787c.014-.693-.097-1.326-.304-1.906-.223-.581-.527-1.094-.926-1.506-.414-.428-.884-.76-1.436-1.008-.553-.251-1.147-.373-1.796-.373-.718 0-1.381.122-1.987.386-.61.247-1.132.608-1.577 1.062-.428.458-.773 1.008-1.019 1.632-.238.622-.36 1.326-.36 2.086 0 .953.208 1.807.65 2.541.439.746 1.033 1.34 1.823 1.768.773.429 1.683.634 2.694.634.453 0 .907-.053 1.376-.18zm-4.047-6.559c.207-.44.511-.773.926-1.008.414-.235.923-.346 1.517-.346.403 0 .759.086 1.079.247.332.165.594.387.801.679.208.288.332.621.373 1.008v.085h-4.917c.055-.253.124-.472.221-.665z" fill-rule="evenodd"/><path clip-rule="evenodd" d="m266.716 130.082v-5.212c.044.046.083.085.127.126.356.36.801.647 1.323.873.514.221 1.064.329 1.63.329.829 0 1.589-.221 2.254-.647.663-.44 1.199-1.038 1.586-1.793.387-.746.58-1.619.58-2.586 0-.98-.193-1.853-.58-2.594-.387-.746-.923-1.34-1.586-1.773-.663-.428-1.437-.647-2.293-.647-.539 0-1.063.113-1.561.32-.499.208-.911.482-1.257.815-.096.095-.179.194-.248.288l-.028-1.255h-2.226v13.76h2.279zm1.202-6.271c-.401-.265-.721-.622-.94-1.08-.235-.44-.359-.981-.359-1.561 0-.594.127-1.119.359-1.561.221-.453.539-.815.94-1.066.4-.246.87-.373 1.409-.373.524 0 .994.127 1.406.387.401.251.721.613.939 1.052.221.454.332.967.332 1.561 0 .58-.124 1.119-.343 1.561-.237.458-.539.815-.953 1.08-.401.246-.857.387-1.381.387-.539-.003-1.009-.141-1.409-.387z" fill-rule="evenodd"/><path clip-rule="evenodd" d="m280.486 124.209c.525 0 .995-.14 1.407-.4.416-.279.746-.634.983-1.094.235-.454.343-.967.343-1.547 0-.594-.111-1.119-.343-1.561-.237-.453-.567-.815-.983-1.08-.415-.26-.884-.4-1.407-.4-.527 0-.995.14-1.423.4-.428.265-.759.624-.994 1.08-.223.467-.346.981-.346 1.561s.125 1.093.346 1.547c.235.458.566.815.994 1.094.431.262.898.4 1.423.4zm0 2.001c-.967 0-1.837-.221-2.597-.647-.759-.44-1.37-1.034-1.809-1.794-.442-.759-.649-1.632-.649-2.599s.207-1.839.649-2.594c.439-.76 1.05-1.372 1.809-1.798.76-.426 1.63-.647 2.597-.647.953 0 1.823.221 2.583.647s1.354 1.038 1.796 1.798c.428.755.647 1.627.647 2.594s-.221 1.84-.647 2.599c-.442.76-1.036 1.354-1.796 1.794-.76.428-1.63.647-2.583.647z" fill-rule="evenodd"/><path clip-rule="evenodd" d="m292.255 125.897c.486-.221.9-.5 1.245-.873.138-.14.247-.274.357-.44l.014 1.448h2.21v-9.708h-2.263v5.813c0 .32-.055.594-.166.873-.096.26-.262.481-.456.674-.193.194-.428.346-.69.44-.263.113-.553.152-.87.152-.429 0-.802-.095-1.106-.288-.303-.193-.536-.486-.704-.845-.15-.359-.235-.801-.235-1.307v-5.514h-2.265v5.995c0 .801.14 1.505.4 2.085.277.581.663 1.034 1.177 1.34.525.32 1.13.468 1.823.468.534 0 1.048-.095 1.529-.313z" fill-rule="evenodd"/><path clip-rule="evenodd" d="m300.833 126.03v-5.18c0-.341.069-.647.179-.921.125-.278.276-.513.484-.732.221-.207.456-.359.729-.485.277-.109.567-.18.873-.18.207 0 .401.028.594.085.193.042.359.108.497.18l.608-2.487c-.124-.057-.276-.099-.47-.126-.193-.042-.386-.053-.594-.053-.483 0-.939.108-1.381.334-.43.234-.815.534-1.146.934-.152.18-.29.373-.401.58l-.03-1.655h-2.224v9.708h2.282z" fill-rule="evenodd"/><path clip-rule="evenodd" d="m56.8823 143.395c-.3868-.26-.7069-.621-.9256-1.079-.221-.468-.3315-.995-.3315-1.6 0-.581.1105-1.105.3315-1.561.221-.458.5388-.815.9256-1.066.4006-.26.8702-.387 1.3927-.387.5272 0 .9969.127 1.3952.387.4144.251.7321.608.9531 1.066.221.453.343.98.343 1.561 0 .607-.1243 1.132-.343 1.6-.221.458-.5387.817-.9531 1.079-.4006.247-.8703.387-1.3952.387-.5225 0-.9921-.138-1.3927-.387zm2.0858 2.169c.4166-.152.7895-.345 1.1187-.58.32-.207.5665-.454.7875-.732v1.353h2.3066v-9.708h-2.2929v1.354c-.1772-.279-.4144-.527-.6746-.746-.3062-.26-.6629-.454-1.0658-.594-.4144-.14-.8564-.221-1.3537-.221-.8403 0-1.6.221-2.2791.647-.6768.428-1.2133 1.02-1.6 1.779-.3868.76-.594 1.633-.594 2.6 0 .98.2072 1.839.594 2.594.3867.76.9116 1.372 1.5608 1.812s1.3813.661 2.1825.661c.4673 0 .8956-.067 1.31-.219z" fill-rule="evenodd"/><path clip-rule="evenodd" d="m68.8706 145.783c-.8702 0-1.6301-.136-2.3207-.429-.6792-.287-1.2293-.706-1.6598-1.241l1.4664-1.273c.3707.415.7874.721 1.2409.901.4558.179.9255.273 1.4389.273.2072 0 .3868-.027.5502-.066.1658-.053.32-.127.4421-.221.1243-.099.2071-.226.2762-.346.0668-.126.1105-.278.1105-.428 0-.306-.1105-.527-.3338-.707-.1243-.08-.3177-.179-.5801-.278-.274-.095-.6078-.194-1.0199-.288-.663-.18-1.2156-.373-1.6599-.608-.4397-.221-.7874-.485-1.0337-.759-.2072-.235-.3591-.5-.4696-.788-.1105-.306-.1519-.621-.1519-.967 0-.432.0967-.817.2762-1.16.1934-.359.4558-.665.7873-.912.3338-.26.7207-.453 1.1604-.594.442-.14.9-.207 1.3835-.207.4972 0 .967.067 1.4228.194.4674.108.8978.287 1.2961.522.3868.226.732.5 1.0221.817l-1.2569 1.382c-.2371-.221-.4835-.415-.7597-.594-.2763-.166-.5526-.306-.8427-.415-.2763-.099-.5525-.152-.7873-.152-.2371 0-.442.028-.6354.067-.1796.042-.3315.099-.4558.194-.1243.085-.221.193-.29.32-.0668.126-.0967.274-.0967.453.0138.141.0552.279.1266.415.0529.126.1495.239.2739.319l.6238.293c.2625.108.6078.221 1.036.315.6078.166 1.1029.346 1.5195.539.4006.193.7183.414.9531.679.2349.221.4006.481.4973.774.0967.287.1497.621.1497.98 0 .567-.1635 1.089-.4973 1.547-.3177.44-.7598.802-1.3262 1.062-.5502.267-1.1855.387-1.8761.387z" fill-rule="evenodd"/><path clip-rule="evenodd" d="m77.6161 145.783c-.8564 0-1.63-.136-2.3068-.429-.6906-.287-1.2431-.706-1.6736-1.241l1.4803-1.273c.3591.415.7735.721 1.2293.901.4535.179.937.273 1.4366.273.2072 0 .4005-.027.5663-.066.1634-.053.3038-.127.4281-.221.1243-.099.2211-.226.2902-.346.0552-.126.0967-.278.0967-.428 0-.306-.1105-.527-.3315-.707-.1266-.08-.32-.179-.5802-.278-.2624-.095-.6101-.194-1.0222-.288-.663-.18-1.2155-.373-1.6575-.608-.442-.221-.7897-.485-1.036-.759-.2072-.235-.3591-.5-.4696-.788-.0967-.306-.1521-.621-.1521-.967 0-.432.0968-.817.2902-1.16.1796-.359.442-.665.7735-.912.3338-.26.7206-.453 1.1626-.594.4398-.14.9116-.207 1.3813-.207.4973 0 .9669.067 1.4366.194.4558.108.884.287 1.2846.522.4005.226.7459.5 1.0222.817l-1.257 1.382c-.2372-.221-.4835-.415-.7598-.594-.2763-.166-.5524-.306-.8425-.415-.2763-.099-.5365-.152-.7874-.152-.2372 0-.4421.028-.6239.067-.1934.042-.3431.099-.4674.194-.1266.085-.2095.193-.2762.32-.0691.126-.1105.274-.1105.453.0139.141.053.279.1244.415.0691.126.1634.239.29.319.1243.086.3315.18.6077.293.2625.108.6078.221 1.0498.315.594.166 1.1052.346 1.5057.539.4006.193.7183.414.9531.679.2349.221.4005.481.4972.774.0967.287.152.621.152.98 0 .567-.1657 1.089-.4857 1.547-.3315.44-.7736.802-1.3238 1.062-.5686.267-1.1902.387-1.8947.387z" fill-rule="evenodd"/><path clip-rule="evenodd" d="m88.016 145.47c.4835-.221.9001-.514 1.2432-.873.1404-.14.2486-.274.3591-.428l.0277 1.434h2.21v-9.708h-2.263v5.813c0 .32-.0553.594-.1658.859-.1105.273-.2624.495-.4696.688-.1934.179-.4143.334-.6906.44-.2624.099-.5525.152-.8702.152-.4305 0-.8035-.095-1.1051-.288-.3039-.207-.5364-.486-.7044-.845-.152-.355-.2348-.801-.2348-1.308v-5.513h-2.2654v5.981c0 .815.1382 1.519.4006 2.099.2763.58.663 1.02 1.1879 1.34.5134.32 1.1188.467 1.8256.467.5341.003 1.0452-.103 1.5148-.31z" fill-rule="evenodd"/><path clip-rule="evenodd" d="m96.6077 145.603v-5.18c0-.341.0553-.647.1658-.921.1244-.278.2763-.527.4973-.732.2072-.207.4396-.373.7182-.486.2762-.122.5664-.179.8841-.179.1957 0 .389.028.5824.071.1934.053.3707.108.4973.194l.6082-2.487-.47-.14-.594-.053c-.4835 0-.9393.108-1.3675.345-.442.221-.8289.534-1.1604.921-.1519.193-.29.387-.4028.594l-.0138-1.655h-2.2378v9.708z" fill-rule="evenodd"/><path clip-rule="evenodd" d="m107.411 145.603c.467-.122.912-.288 1.34-.509s.801-.485 1.13-.787l-1.116-1.561c-.442.387-.857.647-1.243.787-.373.148-.79.221-1.244.221-.663 0-1.229-.126-1.712-.372-.484-.247-.857-.608-1.119-1.08-.18-.316-.29-.661-.359-1.048h7.169l.013-.787c.017-.693-.083-1.326-.304-1.906-.221-.594-.524-1.094-.925-1.52-.414-.414-.884-.746-1.434-.994-.553-.251-1.147-.373-1.796-.373-.721 0-1.384.122-1.989.373-.608.26-1.133.608-1.575 1.075-.43.458-.773.994-1.022 1.632-.235.622-.359 1.312-.359 2.072 0 .967.207 1.807.649 2.553s1.036 1.326 1.824 1.754c.773.429 1.685.647 2.693.647.451.003.907-.05 1.379-.177zm-4.049-6.573c.209-.428.513-.773.925-.994.414-.235.925-.359 1.519-.359.401 0 .76.085 1.078.246.334.166.594.401.801.693.223.292.334.622.373.995v.099h-4.917c.055-.254.124-.472.221-.68z" fill-rule="evenodd"/><path clip-rule="evenodd" d="m114.371 145.603v-5.18c0-.341.069-.647.179-.921.111-.278.276-.527.484-.732.207-.205.455-.373.732-.486.276-.122.566-.179.87-.179.207 0 .4.028.594.071.193.053.359.108.497.194l.608-2.487-.47-.14-.594-.053c-.483 0-.937.108-1.381.345-.428.221-.815.534-1.147.921-.151.193-.29.387-.4.594l-.028-1.655h-2.226v9.708z" fill-rule="evenodd"/><path clip-rule="evenodd" d="m128.131 145.783c-.856 0-1.632-.136-2.307-.429-.679-.287-1.245-.706-1.673-1.241l1.478-1.273c.373.415.776.721 1.229.901.456.179.939.273 1.437.273.207 0 .4-.027.566-.066.166-.053.304-.127.431-.221.124-.099.22-.226.29-.346.066-.126.096-.278.096-.428 0-.306-.113-.527-.334-.707-.124-.08-.317-.179-.58-.278-.262-.095-.594-.194-1.02-.288-.663-.18-1.215-.373-1.659-.608-.44-.221-.788-.485-1.02-.759-.224-.235-.373-.5-.47-.788-.11-.306-.166-.621-.166-.967 0-.432.097-.817.29-1.16.194-.359.456-.665.788-.912.333-.26.72-.453 1.16-.594.442-.14.9-.207 1.384-.207.483 0 .967.067 1.422.194.454.108.884.287 1.285.522.401.226.746.5 1.022.817l-1.243 1.382c-.237-.221-.5-.415-.776-.594-.274-.166-.55-.306-.826-.415-.29-.099-.553-.152-.802-.152-.237 0-.442.028-.623.067-.182.039-.332.099-.456.194-.125.085-.221.193-.29.32-.067.126-.097.274-.097.453 0 .141.044.279.11.415.07.126.166.239.291.319l.61.293c.276.108.621.221 1.05.315.607.166 1.102.346 1.503.539.416.193.732.414.969.679.235.221.401.481.497.774.097.287.138.621.138.98 0 .567-.152 1.089-.483 1.547-.332.44-.774.802-1.326 1.062-.571.267-1.193.387-1.895.387z" fill-rule="evenodd"/><path clip-rule="evenodd" d="m138.076 143.782c.527 0 .996-.14 1.408-.414.415-.265.746-.622.981-1.08.237-.454.346-.967.346-1.547 0-.594-.111-1.119-.346-1.575-.235-.453-.566-.815-.981-1.08-.414-.26-.884-.386-1.408-.386-.525 0-1.009.126-1.423.386-.428.265-.76.638-.981 1.094-.235.454-.359.981-.359 1.561s.127 1.093.359 1.547c.221.458.553.815.981 1.08.414.276.898.414 1.423.414zm0 2.001c-.967 0-1.838-.221-2.597-.647-.76-.44-1.354-1.034-1.796-1.794-.44-.759-.663-1.632-.663-2.599s.223-1.835.663-2.594c.442-.76 1.036-1.372 1.796-1.798.759-.44 1.63-.661 2.597-.661.966 0 1.823.221 2.582.661.76.428 1.354 1.038 1.796 1.798.428.759.649 1.627.649 2.594s-.223 1.84-.649 2.599c-.442.76-1.036 1.354-1.796 1.794-.759.428-1.616.647-2.582.647z" fill-rule="evenodd"/><path clip-rule="evenodd" d="m145.478 145.603h.61 1.117v-5.854c0-.307.069-.567.179-.815.127-.251.277-.472.484-.652.193-.193.442-.345.72-.44.277-.112.581-.165.912-.165.401 0 .746.053 1.036.221.276.152.484.386.624.72.138.32.193.732.193 1.214v5.773h2.277v-5.939c0-.882-.138-1.614-.386-2.208-.247-.58-.622-1.02-1.117-1.326-.5-.288-1.119-.44-1.853-.44-.511 0-1.02.108-1.52.329-.481.226-.911.514-1.257.887-.11.113-.221.235-.317.359l-.014-1.368h-2.21v9.709h.522z" fill-rule="evenodd"/><path clip-rule="evenodd" d="m163.492 145.603v-5.18c0-.341.069-.647.179-.921.111-.278.277-.527.484-.732s.456-.373.732-.486c.276-.122.566-.179.87-.179.207 0 .401.028.594.071.193.053.359.108.497.194l.61-2.487-.469-.14-.597-.053c-.483 0-.937.108-1.381.345-.428.221-.815.534-1.146.921-.152.193-.29.387-.401.594l-.028-1.655h-2.226v9.708z" fill-rule="evenodd"/><path clip-rule="evenodd" d="m174.307 145.603c.47-.122.912-.288 1.34-.509.414-.221.801-.485 1.132-.787l-1.132-1.561c-.442.387-.857.647-1.23.787-.386.148-.801.221-1.257.221-.649 0-1.215-.126-1.699-.372-.483-.247-.856-.608-1.116-1.08-.18-.316-.29-.661-.359-1.048h7.153l.029-.787c.014-.693-.096-1.326-.303-1.906-.224-.594-.528-1.094-.94-1.52-.4-.414-.884-.746-1.436-.994-.553-.251-1.147-.373-1.782-.373-.73 0-1.393.122-2.003.373-.608.26-1.13.608-1.561 1.075-.442.458-.773.994-1.022 1.632-.246.622-.373 1.312-.373 2.072 0 .967.223 1.807.663 2.553.431.746 1.036 1.326 1.823 1.754.774.429 1.674.647 2.694.647.453.003.909-.05 1.379-.177zm-4.047-6.573c.207-.428.511-.773.923-.994.417-.235.911-.359 1.519-.359.387 0 .746.085 1.078.246.334.166.596.401.803.693s.332.622.373.995v.099h-4.933c.057-.254.14-.472.237-.68z" fill-rule="evenodd"/><path clip-rule="evenodd" d="m183.146 145.783c-.912 0-1.727-.221-2.459-.661-.718-.44-1.284-1.052-1.71-1.812-.417-.755-.624-1.614-.624-2.567 0-.967.207-1.821.624-2.581.428-.759.994-1.372 1.71-1.811.732-.44 1.55-.661 2.459-.661.87 0 1.658.166 2.376.495.704.334 1.257.806 1.657 1.386l-1.257 1.515c-.179-.26-.414-.495-.704-.702-.276-.208-.58-.373-.9-.5-.318-.122-.633-.18-.953-.18-.537 0-1.02.127-1.451.387-.428.265-.759.638-1.008 1.094-.237.453-.359.98-.359 1.56 0 .581.124 1.094.373 1.548.246.458.594.815 1.022 1.079.428.274.912.415 1.436.415.318 0 .634-.053.924-.166.303-.094.594-.246.856-.44.276-.207.527-.444.76-.746l1.257 1.534c-.428.538-.995.98-1.727 1.312-.725.34-1.501.502-2.302.502z" fill-rule="evenodd"/><path clip-rule="evenodd" d="m192.277 149.83 1.66-4.227 4.061-9.708h-2.638l-2.277 6.34-.276.801-.044-.166c-.083-.26-.179-.481-.26-.633l-2.666-6.34h-2.61l4.447 9.92-1.754 4.015h2.357z" fill-rule="evenodd"/><path clip-rule="evenodd" d="m203.202 145.783c-.911 0-1.726-.221-2.445-.661-.732-.44-1.298-1.052-1.726-1.812-.417-.755-.624-1.614-.624-2.567 0-.967.207-1.821.624-2.581.428-.759.994-1.372 1.726-1.811.719-.44 1.534-.661 2.445-.661.871 0 1.658.166 2.376.495.705.334 1.257.806 1.658 1.386l-1.257 1.515c-.18-.26-.415-.495-.705-.702-.276-.208-.58-.373-.9-.5-.318-.122-.633-.18-.953-.18-.536 0-1.02.127-1.45.387-.429.265-.76.638-1.009 1.094-.237.453-.359.98-.359 1.56 0 .581.125 1.094.373 1.548.249.458.594.815 1.022 1.079.428.274.912.415 1.437.415.318 0 .633-.053.937-.166.29-.094.58-.246.856-.44.263-.207.514-.444.746-.746l1.257 1.534c-.414.538-.994.98-1.727 1.312-.727.34-1.487.502-2.302.502z" fill-rule="evenodd"/><path d="m211.091 131.97h-2.293v13.633h2.293z"/><path clip-rule="evenodd" d="m216.285 143.395c-.401-.26-.704-.621-.923-1.079-.221-.468-.334-.995-.334-1.6 0-.581.113-1.105.334-1.561.221-.458.525-.815.923-1.066.403-.26.873-.387 1.395-.387.527 0 .995.127 1.395.387.401.251.719.608.953 1.066.221.453.332.98.332 1.561 0 .607-.111 1.132-.332 1.6-.237.458-.552.817-.953 1.079-.403.247-.87.387-1.395.387s-.994-.138-1.395-.387zm2.086 2.169c.417-.152.787-.345 1.119-.58.317-.221.58-.468.787-.746v1.367h2.293v-9.708h-2.279v1.368c-.194-.274-.415-.528-.677-.76-.318-.26-.663-.454-1.077-.594-.401-.14-.843-.221-1.34-.221-.843 0-1.603.221-2.279.647-.677.426-1.214 1.02-1.6 1.779-.403.76-.597 1.633-.597 2.6 0 .98.194 1.839.597 2.594.386.76.911 1.372 1.56 1.812.65.44 1.382.661 2.167.661.469 0 .911-.067 1.326-.219z" fill-rule="evenodd"/><path clip-rule="evenodd" d="m231.519 149.517c.636-.221 1.161-.539 1.603-.953.442-.429.787-.94 1.022-1.547.235-.594.343-1.287.343-2.072v-9.048h-2.224l-.028 1.2c-.11-.127-.237-.247-.386-.373-.238-.194-.498-.373-.774-.539-.29-.147-.61-.274-.953-.359-.345-.081-.704-.136-1.064-.136-.886 0-1.685.221-2.389.661-.705.428-1.257 1.024-1.674 1.779-.401.76-.608 1.619-.608 2.586 0 .98.208 1.839.624 2.567.415.745.967 1.326 1.671 1.772.705.428 1.52.633 2.445.633.528 0 1.05-.113 1.55-.32.497-.221.923-.495 1.257-.84.11-.113.193-.221.276-.334v.912c0 .608-.113 1.119-.334 1.533s-.552.721-.994.926c-.431.193-.967.301-1.63.301-.346 0-.707-.041-1.08-.108-.357-.085-.704-.18-1.02-.32-.315-.141-.608-.292-.856-.486l-.815 1.685c.442.346 1.022.638 1.743.859.718.221 1.436.329 2.166.329.803.005 1.508-.09 2.129-.308zm-3.494-6.147c-.415-.251-.746-.608-.981-1.08-.249-.453-.359-.98-.359-1.547 0-.594.11-1.119.359-1.575.235-.471.566-.826.981-1.093.414-.26.898-.401 1.45-.401.553 0 1.036.141 1.464.387.417.26.746.622.983 1.08.235.467.357.994.357 1.6 0 .58-.11 1.105-.343 1.561-.237.458-.566.815-.997 1.066-.414.26-.911.386-1.464.386-.552 0-1.036-.124-1.45-.384z" fill-rule="evenodd"/><path clip-rule="evenodd" d="m242.845 145.603c.47-.122.912-.288 1.34-.509.431-.221.804-.485 1.133-.787l-1.116-1.561c-.442.387-.857.647-1.244.787-.373.148-.789.221-1.243.221-.663 0-1.229-.126-1.713-.372-.483-.247-.856-.608-1.118-1.08-.18-.316-.291-.661-.36-1.048h7.169l.014-.787c.014-.693-.083-1.326-.304-1.906-.221-.594-.525-1.094-.925-1.52-.415-.414-.884-.746-1.437-.994-.55-.251-1.144-.373-1.793-.373-.721 0-1.384.122-1.989.373-.608.26-1.133.608-1.575 1.075-.431.458-.773.994-1.022 1.632-.237.622-.359 1.312-.359 2.072 0 .967.207 1.807.649 2.553s1.036 1.326 1.823 1.754c.774.429 1.683.647 2.694.647.451.003.907-.05 1.376-.177zm-4.047-6.573c.207-.428.514-.773.926-.994.414-.235.925-.359 1.519-.359.401 0 .76.085 1.078.246.331.166.594.401.801.693.223.292.334.622.373.995v.099h-4.918c.058-.254.125-.472.221-.68z" fill-rule="evenodd"/><path clip-rule="evenodd" d="m248.399 145.796c-.44 0-.788-.122-1.02-.387-.249-.246-.359-.607-.359-1.075 0-.428.124-.787.373-1.066.246-.273.58-.414 1.008-.414.442 0 .774.127 1.022.373.235.246.359.622.359 1.105 0 .428-.126.774-.386 1.048-.251.283-.583.416-.997.416z" fill-rule="evenodd"/></g></svg>