<?xml version="1.0" encoding="utf-8"?>
<!-- Generator: Adobe Illustrator 16.0.0, SVG Export Plug-In . SVG Version: 6.00 Build 0)  -->
<!DOCTYPE svg PUBLIC "-//W3C//DTD SVG 1.1//EN" "http://www.w3.org/Graphics/SVG/1.1/DTD/svg11.dtd">
<svg version="1.1" xmlns="http://www.w3.org/2000/svg" xmlns:xlink="http://www.w3.org/1999/xlink" x="0px" y="0px" width="120px"
	 height="125.834px" viewBox="0 0 120 125.834" enable-background="new 0 0 120 125.834" xml:space="preserve">
<g id="Calque_2">
</g>
<g id="Calque_1">
	<g>
		<path fill="#FFFFFF" d="M119.666,76.971c0-3.038-1.83-5.646-4.448-6.787c2.539-1.176,4.303-3.737,4.303-6.719V45.872
			c0-4.09-3.315-7.406-7.406-7.406H79.271C78.646,17.148,61.109,0,39.644,0C17.784,0,0,17.784,0,39.644
			c0,11.489,4.917,22.286,13.532,29.828c0.023,0.032,0.05,0.062,0.073,0.092H9.004c-4.091,0-7.407,3.317-7.407,7.407l0.023,41.098
			c0,4.092,3.316,7.407,7.407,7.407H112.26c4.09,0,7.406-3.315,7.406-7.407V76.971z"/>
		<g>
			<path fill="#0B0C0C" d="M18.893,89.054c0.497,0,0.95-0.075,1.34-0.233c0.406-0.158,0.748-0.376,1.028-0.67
				c0.295-0.297,0.515-0.654,0.654-1.09c0.156-0.436,0.218-0.951,0.218-1.526c0-0.531-0.078-1.015-0.265-1.435
				c-0.171-0.436-0.421-0.779-0.731-1.076c-0.203-0.187-0.421-0.324-0.671-0.436c0.313-0.187,0.562-0.436,0.748-0.743
				c0.28-0.453,0.421-0.999,0.421-1.654c0-0.639-0.109-1.166-0.327-1.618c-0.218-0.438-0.545-0.78-0.966-0.998
				c-0.436-0.234-0.951-0.344-1.573-0.344h-4.036v11.825L18.893,89.054L18.893,89.054z M16.461,83.976h2.291
				c0.327,0,0.622,0.048,0.855,0.17c0.25,0.11,0.438,0.284,0.563,0.518c0.139,0.218,0.203,0.497,0.203,0.809
				c0,0.342-0.063,0.621-0.187,0.871c-0.125,0.234-0.295,0.42-0.53,0.544c-0.218,0.128-0.499,0.189-0.841,0.189h-2.352
				L16.461,83.976L16.461,83.976z M16.461,79.208h2.011c0.467,0,0.825,0.125,1.059,0.373c0.249,0.268,0.374,0.609,0.374,1.059
				c0,0.282-0.062,0.532-0.171,0.752c-0.109,0.218-0.25,0.369-0.453,0.497c-0.186,0.124-0.419,0.188-0.685,0.188h-2.134V79.208z"/>
			<path fill="#0B0C0C" d="M28.053,89.054c0.498,0,0.935-0.075,1.338-0.233c0.391-0.158,0.733-0.376,1.028-0.67
				c0.281-0.297,0.5-0.654,0.655-1.09c0.14-0.436,0.218-0.951,0.218-1.526c0-0.531-0.092-1.015-0.264-1.435
				c-0.172-0.436-0.421-0.779-0.733-1.076c-0.203-0.187-0.421-0.324-0.669-0.436c0.295-0.187,0.545-0.436,0.748-0.743
				c0.28-0.453,0.419-0.999,0.419-1.654c0-0.639-0.109-1.166-0.327-1.618c-0.218-0.438-0.545-0.78-0.981-0.998
				c-0.421-0.234-0.95-0.344-1.573-0.344h-4.019v11.825L28.053,89.054L28.053,89.054z M25.606,83.976h2.306
				c0.327,0,0.607,0.048,0.856,0.17c0.248,0.11,0.436,0.284,0.56,0.518c0.125,0.218,0.203,0.497,0.203,0.809
				c0,0.342-0.062,0.621-0.188,0.871c-0.125,0.234-0.295,0.42-0.529,0.544c-0.235,0.128-0.514,0.189-0.842,0.189h-2.367V83.976z
				 M25.606,79.208h2.01c0.467,0,0.825,0.125,1.074,0.373c0.234,0.268,0.359,0.609,0.359,1.059c0,0.282-0.047,0.532-0.156,0.752
				c-0.109,0.218-0.265,0.369-0.453,0.497c-0.202,0.124-0.42,0.188-0.686,0.188h-2.149V79.208z"/>
			<rect x="32.476" y="83.229" fill="#0B0C0C" width="4.175" height="1.992"/>
			<polygon fill="#0B0C0C" points="43.491,89.054 43.491,87.03 41.87,87.03 41.87,77.061 40.889,77.061 38.317,78.738 
				38.708,80.656 40.125,79.753 40.125,87.03 38.536,87.03 38.536,89.054 			"/>
			<path fill="#0B0C0C" d="M51.203,89.054V87.03H47.37l1.589-2.149l0.716-1.061l0.544-0.983c0.156-0.295,0.282-0.606,0.374-0.889
				c0.093-0.277,0.156-0.558,0.203-0.823c0.047-0.268,0.079-0.515,0.079-0.763c0-0.671-0.125-1.249-0.374-1.744
				c-0.25-0.499-0.592-0.889-1.013-1.17c-0.421-0.28-0.905-0.42-1.449-0.42c-0.513,0-0.997,0.142-1.449,0.388
				c-0.436,0.268-0.825,0.625-1.153,1.106c-0.327,0.486-0.577,1.045-0.733,1.698l1.326,0.984c0.125-0.437,0.28-0.827,0.467-1.139
				c0.202-0.327,0.405-0.575,0.637-0.747c0.235-0.174,0.468-0.265,0.718-0.265c0.265,0,0.499,0.061,0.702,0.188
				c0.187,0.121,0.327,0.293,0.436,0.526c0.092,0.218,0.155,0.481,0.155,0.795c0,0.234-0.046,0.481-0.155,0.762
				c-0.093,0.284-0.218,0.563-0.391,0.841l-0.482,0.827l-0.5,0.699l-2.834,3.978l0.436,1.386L51.203,89.054L51.203,89.054z"/>
			<path fill="#0B0C0C" d="M57.572,83.023c0.157-0.39,0.391-0.699,0.686-0.917c0.312-0.202,0.669-0.312,1.123-0.312
				c0.281,0,0.545,0.078,0.778,0.233c0.25,0.14,0.436,0.357,0.593,0.623c0.156,0.252,0.25,0.562,0.266,0.921v0.076h-3.598
				C57.463,83.415,57.51,83.211,57.572,83.023z M60.548,89.054c0.344-0.109,0.672-0.264,0.983-0.467
				c0.308-0.202,0.591-0.436,0.825-0.718l-0.825-1.432c-0.313,0.343-0.625,0.593-0.905,0.715c-0.279,0.144-0.577,0.201-0.919,0.201
				c-0.468,0-0.888-0.105-1.246-0.341c-0.359-0.236-0.625-0.563-0.825-0.983c-0.126-0.293-0.203-0.607-0.25-0.961h5.249v-0.735
				c0.016-0.623-0.06-1.196-0.218-1.745c-0.156-0.525-0.39-0.995-0.685-1.383c-0.296-0.375-0.64-0.688-1.045-0.906
				c-0.406-0.232-0.84-0.342-1.307-0.342c-0.529,0-1.028,0.109-1.463,0.342c-0.454,0.235-0.827,0.561-1.154,0.982
				c-0.31,0.42-0.576,0.917-0.747,1.496c-0.187,0.563-0.265,1.198-0.265,1.902c0,0.871,0.156,1.665,0.467,2.337
				c0.327,0.686,0.763,1.213,1.34,1.618c0.576,0.39,1.231,0.593,1.979,0.593C59.863,89.226,60.206,89.162,60.548,89.054z"/>
			<path fill="#0B0C0C" d="M67.744,88.866c0.407-0.234,0.734-0.562,0.967-0.979c0.233-0.422,0.359-0.89,0.359-1.419
				c0-0.327-0.032-0.625-0.11-0.891c-0.077-0.277-0.189-0.512-0.357-0.713c-0.171-0.236-0.403-0.454-0.705-0.624
				c-0.292-0.189-0.67-0.346-1.105-0.485c-0.324-0.094-0.575-0.186-0.78-0.298l-0.45-0.264c-0.079-0.077-0.155-0.188-0.203-0.295
				l-0.095-0.39c0-0.158,0.032-0.28,0.079-0.406c0.05-0.128,0.125-0.218,0.219-0.297c0.078-0.078,0.202-0.139,0.326-0.17
				c0.142-0.048,0.298-0.063,0.467-0.063c0.172,0,0.376,0.047,0.578,0.14c0.203,0.093,0.407,0.218,0.607,0.376
				c0.201,0.156,0.389,0.344,0.559,0.543l0.923-1.26c-0.203-0.298-0.453-0.545-0.748-0.763c-0.294-0.204-0.608-0.36-0.933-0.466
				c-0.345-0.128-0.688-0.174-1.06-0.174c-0.346,0-0.687,0.062-1.017,0.188c-0.308,0.126-0.607,0.294-0.841,0.527
				c-0.248,0.252-0.436,0.518-0.575,0.843c-0.14,0.328-0.2,0.688-0.2,1.073c0,0.315,0.03,0.607,0.107,0.872
				c0.078,0.282,0.187,0.519,0.344,0.736c0.186,0.25,0.436,0.481,0.761,0.699c0.314,0.205,0.718,0.392,1.217,0.545l0.745,0.268
				l0.42,0.264c0.158,0.154,0.251,0.357,0.251,0.638c0,0.14-0.033,0.264-0.079,0.392c-0.046,0.121-0.124,0.218-0.218,0.309
				c-0.074,0.092-0.188,0.158-0.308,0.202c-0.128,0.046-0.268,0.076-0.407,0.076c-0.374,0-0.733-0.09-1.06-0.265
				c-0.329-0.172-0.639-0.437-0.902-0.826l-1.074,1.173c0.309,0.497,0.714,0.871,1.212,1.137c0.502,0.263,1.061,0.405,1.698,0.405
				C66.873,89.226,67.326,89.1,67.744,88.866z"/>
			<polygon fill="#0B0C0C" points="72.824,89.054 72.824,82.076 74.365,82.076 74.365,80.16 72.824,80.16 72.824,77.885 
				71.158,77.885 71.158,80.16 69.756,80.16 69.756,82.076 71.158,82.076 71.158,89.054 			"/>
			<path fill="#0B0C0C" d="M82.936,88.914c0.344-0.188,0.653-0.453,0.902-0.793c0.095-0.128,0.187-0.252,0.264-0.376l0.017,1.309
				h1.622V80.16h-1.652v5.326c0,0.283-0.046,0.545-0.126,0.779c-0.078,0.249-0.201,0.451-0.343,0.623
				c-0.141,0.189-0.311,0.313-0.496,0.422c-0.201,0.094-0.405,0.142-0.654,0.142c-0.313,0-0.578-0.097-0.796-0.284
				c-0.233-0.17-0.405-0.436-0.514-0.761c-0.125-0.328-0.186-0.731-0.186-1.201V80.16h-1.651v5.481c0,0.735,0.092,1.375,0.296,1.918
				c0.201,0.527,0.485,0.936,0.854,1.232c0.389,0.278,0.825,0.418,1.34,0.418C82.202,89.21,82.574,89.115,82.936,88.914z"/>
			<path fill="#0B0C0C" d="M87.936,89.054h0.451h0.825v-5.375c0-0.264,0.046-0.512,0.124-0.745c0.096-0.218,0.201-0.42,0.359-0.594
				c0.142-0.172,0.327-0.31,0.529-0.405c0.202-0.092,0.42-0.14,0.655-0.14c0.312-0.015,0.56,0.048,0.763,0.186
				c0.202,0.142,0.36,0.359,0.45,0.653c0.112,0.315,0.16,0.688,0.16,1.143v5.279h1.666v-5.438c0-0.811-0.093-1.496-0.282-2.025
				c-0.184-0.545-0.466-0.951-0.822-1.215c-0.358-0.279-0.825-0.405-1.357-0.405c-0.375,0-0.746,0.094-1.106,0.296
				c-0.359,0.201-0.671,0.467-0.933,0.809c-0.08,0.112-0.158,0.218-0.235,0.33l-0.017-1.247h-1.62v8.894H87.936L87.936,89.054z"/>
			<path fill="#0B0C0C" d="M97.019,83.023c0.153-0.39,0.371-0.699,0.684-0.917c0.297-0.202,0.669-0.312,1.104-0.312
				c0.297,0,0.563,0.078,0.797,0.233c0.234,0.14,0.436,0.342,0.591,0.623c0.14,0.252,0.236,0.562,0.269,0.921v0.076h-3.616
				C96.891,83.415,96.938,83.211,97.019,83.023z M99.995,89.054c0.339-0.124,0.653-0.264,0.962-0.467
				c0.313-0.202,0.594-0.436,0.844-0.718l-0.827-1.432c-0.325,0.343-0.625,0.579-0.903,0.715c-0.279,0.144-0.593,0.201-0.918,0.201
				c-0.484,0-0.889-0.105-1.249-0.341c-0.359-0.236-0.638-0.563-0.825-0.983c-0.14-0.293-0.218-0.607-0.264-0.961h5.246l0.018-0.735
				c0.016-0.625-0.062-1.196-0.218-1.746c-0.155-0.526-0.388-0.996-0.686-1.384c-0.295-0.39-0.654-0.688-1.059-0.905
				c-0.407-0.233-0.843-0.343-1.31-0.343c-0.527,0-1.012,0.109-1.463,0.343c-0.436,0.236-0.827,0.562-1.139,0.981
				c-0.325,0.421-0.575,0.919-0.763,1.496c-0.17,0.563-0.266,1.2-0.266,1.904c0,0.871,0.157,1.649,0.485,2.337
				c0.308,0.686,0.761,1.212,1.339,1.618c0.561,0.389,1.229,0.577,1.978,0.577C99.308,89.21,99.649,89.162,99.995,89.054z"/>
			<path fill="#0B0C0C" d="M11.073,103.324v-5.331c0-0.262,0.031-0.51,0.125-0.743c0.078-0.218,0.187-0.421,0.327-0.594
				c0.141-0.171,0.312-0.295,0.515-0.389c0.201-0.094,0.404-0.14,0.638-0.14c0.265,0,0.5,0.077,0.686,0.218
				c0.186,0.155,0.327,0.373,0.436,0.654c0.094,0.294,0.141,0.655,0.141,1.075v5.249h1.683v-5.312c0-0.27,0.03-0.516,0.124-0.749
				c0.079-0.218,0.188-0.421,0.327-0.593c0.156-0.17,0.327-0.31,0.53-0.403s0.404-0.14,0.639-0.14c0.279,0,0.53,0.062,0.716,0.203
				c0.203,0.136,0.343,0.354,0.436,0.655c0.094,0.292,0.141,0.669,0.141,1.104v5.233h1.683v-5.359c0-0.811-0.094-1.496-0.281-2.039
				c-0.172-0.562-0.452-0.969-0.809-1.232c-0.359-0.279-0.811-0.404-1.356-0.404c-0.234,0-0.483,0.032-0.733,0.127
				c-0.25,0.091-0.483,0.218-0.701,0.405c-0.233,0.17-0.437,0.354-0.607,0.591c-0.156,0.184-0.297,0.388-0.39,0.621
				c-0.079-0.309-0.202-0.573-0.344-0.809c-0.201-0.327-0.451-0.56-0.747-0.718c-0.311-0.155-0.655-0.218-1.029-0.218
				c-0.263,0-0.528,0.049-0.778,0.158c-0.25,0.108-0.483,0.246-0.716,0.436c-0.218,0.187-0.421,0.404-0.577,0.653
				c-0.03,0.06-0.062,0.126-0.109,0.188l-0.016-1.292H9.39v8.894L11.073,103.324L11.073,103.324z"/>
			<path fill="#0B0C0C" d="M25.576,103.293c0.295-0.143,0.576-0.312,0.825-0.529c0.233-0.202,0.421-0.42,0.577-0.688v1.248h1.683
				V94.43h-1.683v1.248c-0.125-0.251-0.297-0.485-0.498-0.687c-0.218-0.234-0.483-0.422-0.78-0.546
				c-0.296-0.124-0.624-0.203-0.981-0.203c-0.624,0-1.185,0.203-1.683,0.595c-0.483,0.386-0.889,0.947-1.168,1.632
				c-0.281,0.704-0.436,1.498-0.436,2.383c0,0.89,0.156,1.685,0.436,2.384c0.28,0.701,0.671,1.248,1.153,1.652
				c0.467,0.405,0.997,0.609,1.589,0.609C24.952,103.496,25.279,103.433,25.576,103.293z M24.049,101.301
				c-0.297-0.237-0.516-0.563-0.686-0.984c-0.156-0.42-0.233-0.903-0.233-1.465c0-0.527,0.077-1.01,0.233-1.43
				c0.17-0.422,0.389-0.751,0.686-0.985c0.295-0.235,0.638-0.355,1.012-0.355c0.389,0,0.732,0.124,1.028,0.355
				c0.296,0.234,0.53,0.563,0.702,0.985c0.171,0.419,0.25,0.9,0.25,1.43c0,0.562-0.079,1.045-0.25,1.465
				c-0.172,0.421-0.404,0.747-0.702,0.984c-0.295,0.232-0.639,0.354-1.028,0.354C24.687,101.656,24.344,101.533,24.049,101.301z"/>
			<path fill="#0B0C0C" d="M32.133,103.324v-4.736c0-0.311,0.032-0.608,0.125-0.856c0.078-0.248,0.202-0.466,0.359-0.669
				c0.156-0.188,0.327-0.344,0.53-0.436c0.203-0.109,0.421-0.174,0.639-0.174c0.155,0,0.295,0.034,0.436,0.078
				c0.14,0.034,0.265,0.096,0.357,0.155l0.453-2.271l-0.343-0.112c-0.141-0.03-0.281-0.06-0.436-0.06
				c-0.358,0-0.685,0.109-1.013,0.312c-0.31,0.218-0.591,0.499-0.841,0.856c-0.109,0.17-0.218,0.342-0.296,0.529l-0.016-1.512
				h-1.636v8.896L32.133,103.324L32.133,103.324z"/>
			<path fill="#0B0C0C" d="M42.4,107.03V94.414h-1.62v1.044c-0.125-0.172-0.265-0.313-0.436-0.468
				c-0.25-0.219-0.53-0.407-0.842-0.545c-0.31-0.126-0.639-0.203-0.981-0.203c-0.639,0-1.199,0.203-1.683,0.608
				c-0.499,0.406-0.888,0.933-1.168,1.635c-0.28,0.687-0.419,1.479-0.419,2.383c0,0.889,0.139,1.682,0.436,2.385
				c0.28,0.701,0.67,1.244,1.167,1.65c0.514,0.39,1.074,0.593,1.699,0.593c0.31,0,0.622-0.063,0.919-0.188
				c0.281-0.142,0.561-0.312,0.794-0.529c0.188-0.17,0.359-0.373,0.483-0.575v4.828h1.65V107.03z M37.805,101.301
				c-0.297-0.237-0.53-0.563-0.702-0.984c-0.172-0.42-0.25-0.903-0.25-1.448c0-0.529,0.079-1.011,0.25-1.433
				c0.17-0.436,0.404-0.766,0.702-0.999c0.295-0.247,0.638-0.373,1.028-0.373c0.374,0,0.716,0.126,1.013,0.355
				c0.295,0.235,0.528,0.563,0.701,0.985c0.172,0.417,0.249,0.918,0.249,1.462c0,0.563-0.077,1.044-0.249,1.448
				c-0.172,0.421-0.405,0.748-0.701,0.984c-0.296,0.234-0.639,0.355-1.013,0.355C38.443,101.656,38.1,101.533,37.805,101.301z"/>
			<path fill="#0B0C0C" d="M47.806,103.199c0.342-0.202,0.653-0.454,0.903-0.793c0.093-0.127,0.188-0.252,0.265-0.376l0.017,1.294
				h1.62V94.43h-1.652v5.343c0,0.28-0.047,0.529-0.125,0.777c-0.079,0.248-0.203,0.453-0.343,0.625
				c-0.139,0.172-0.311,0.311-0.499,0.406c-0.201,0.09-0.404,0.138-0.654,0.138c-0.313,0-0.577-0.094-0.795-0.266
				c-0.233-0.17-0.404-0.436-0.513-0.761c-0.125-0.33-0.187-0.733-0.187-1.217V94.43H44.19v5.481c0,0.749,0.094,1.39,0.295,1.917
				c0.203,0.544,0.483,0.951,0.857,1.231c0.39,0.295,0.826,0.437,1.34,0.437C47.073,103.496,47.447,103.4,47.806,103.199z"/>
			<path fill="#0B0C0C" d="M56.762,103.324c0.344-0.109,0.671-0.265,0.983-0.467c0.311-0.188,0.591-0.42,0.84-0.718l-0.825-1.434
				c-0.327,0.359-0.624,0.595-0.904,0.73c-0.28,0.143-0.592,0.204-0.92,0.204c-0.482,0-0.903-0.124-1.246-0.342
				c-0.359-0.235-0.639-0.562-0.825-0.997c-0.141-0.279-0.218-0.608-0.265-0.967h5.25l0.015-0.717c0-0.625-0.063-1.212-0.233-1.744
				c-0.157-0.528-0.375-0.998-0.67-1.386c-0.296-0.39-0.655-0.701-1.059-0.919c-0.407-0.218-0.843-0.342-1.308-0.342
				c-0.53,0-1.013,0.124-1.464,0.355c-0.454,0.22-0.827,0.545-1.154,0.965c-0.311,0.422-0.561,0.919-0.747,1.498
				c-0.172,0.577-0.265,1.215-0.265,1.914c0,0.873,0.156,1.652,0.482,2.339c0.31,0.67,0.763,1.213,1.324,1.604
				c0.577,0.388,1.23,0.593,1.978,0.593C56.094,103.496,56.42,103.448,56.762,103.324z M53.805,97.31
				c0.155-0.407,0.373-0.699,0.684-0.917c0.296-0.219,0.67-0.327,1.107-0.327c0.295,0,0.545,0.078,0.794,0.233
				c0.235,0.154,0.438,0.358,0.577,0.624c0.156,0.268,0.25,0.575,0.279,0.921v0.075h-3.613
				C53.678,97.699,53.725,97.498,53.805,97.31z"/>
			<path fill="#0B0C0C" d="M66.189,101.377c-0.298-0.249-0.531-0.594-0.688-1.015c-0.171-0.436-0.249-0.933-0.249-1.494
				c0-0.544,0.078-1.043,0.249-1.479c0.156-0.419,0.39-0.765,0.688-0.997c0.296-0.251,0.635-0.377,1.025-0.377
				s0.732,0.126,1.028,0.377c0.296,0.232,0.527,0.576,0.701,0.997c0.158,0.436,0.249,0.935,0.249,1.479
				c0,0.562-0.091,1.059-0.249,1.494c-0.172,0.421-0.405,0.766-0.701,1.015c-0.296,0.248-0.637,0.36-1.028,0.36
				C66.824,101.737,66.485,101.625,66.189,101.377z M67.855,103.309c0.296-0.142,0.578-0.312,0.81-0.514
				c0.203-0.186,0.357-0.389,0.497-0.608l0.031,1.138h1.607v-12.48h-1.669v4.597c-0.109-0.154-0.249-0.313-0.405-0.436
				c-0.248-0.233-0.527-0.422-0.857-0.56c-0.309-0.126-0.637-0.203-0.979-0.203c-0.637,0-1.202,0.203-1.699,0.608
				c-0.498,0.406-0.887,0.947-1.186,1.65c-0.293,0.688-0.436,1.479-0.436,2.367c0,0.904,0.156,1.697,0.436,2.399
				c0.299,0.687,0.702,1.229,1.201,1.636c0.495,0.39,1.061,0.593,1.685,0.593C67.215,103.496,67.544,103.433,67.855,103.309z"/>
			<path fill="#0B0C0C" d="M76.905,103.324c0.343-0.109,0.654-0.265,0.967-0.467c0.312-0.188,0.591-0.42,0.839-0.718l-0.825-1.434
				c-0.326,0.359-0.623,0.595-0.905,0.73c-0.279,0.143-0.591,0.204-0.917,0.204c-0.481,0-0.887-0.124-1.248-0.342
				c-0.355-0.235-0.638-0.562-0.823-0.997c-0.14-0.279-0.218-0.608-0.268-0.967h5.251l0.015-0.717
				c0.019-0.625-0.063-1.212-0.218-1.744c-0.153-0.528-0.386-0.998-0.683-1.386c-0.298-0.39-0.655-0.701-1.06-0.919
				c-0.403-0.218-0.839-0.342-1.309-0.342c-0.529,0-1.012,0.124-1.462,0.355c-0.437,0.22-0.827,0.545-1.141,0.965
				c-0.327,0.422-0.575,0.919-0.763,1.498c-0.172,0.577-0.266,1.215-0.266,1.914c0,0.873,0.157,1.652,0.483,2.339
				c0.309,0.67,0.765,1.213,1.34,1.604c0.562,0.388,1.232,0.593,1.978,0.593C76.222,103.496,76.562,103.448,76.905,103.324z
				 M73.929,97.31c0.157-0.407,0.375-0.699,0.685-0.917c0.3-0.219,0.672-0.327,1.108-0.327c0.298,0,0.562,0.078,0.794,0.233
				c0.233,0.154,0.437,0.358,0.595,0.624c0.138,0.268,0.232,0.575,0.262,0.921v0.075h-3.613
				C73.805,97.699,73.853,97.498,73.929,97.31z"/>
			<path fill="#0B0C0C" d="M89.805,103.293c0.436-0.158,0.842-0.346,1.199-0.594c0.359-0.248,0.653-0.513,0.871-0.827l-0.871-1.744
				c-0.202,0.267-0.42,0.47-0.653,0.653c-0.235,0.188-0.497,0.33-0.779,0.436c-0.281,0.097-0.562,0.158-0.858,0.158
				c-0.468,0-0.887-0.094-1.259-0.279c-0.39-0.187-0.719-0.45-0.983-0.812c-0.279-0.344-0.497-0.763-0.639-1.247
				c-0.155-0.481-0.234-1.026-0.234-1.617c0-0.577,0.079-1.123,0.234-1.591c0.156-0.483,0.359-0.889,0.639-1.246
				c0.267-0.342,0.578-0.621,0.936-0.811c0.373-0.187,0.763-0.28,1.169-0.28c0.279,0,0.561,0.048,0.827,0.155
				c0.263,0.112,0.511,0.265,0.761,0.47c0.247,0.218,0.485,0.466,0.717,0.777l1.123-1.542c-0.234-0.39-0.548-0.733-0.905-1.045
				c-0.355-0.293-0.747-0.525-1.183-0.699c-0.436-0.158-0.872-0.249-1.34-0.249c-0.669,0-1.291,0.153-1.87,0.465
				c-0.575,0.296-1.091,0.717-1.512,1.28c-0.436,0.543-0.775,1.181-1.012,1.916c-0.247,0.73-0.373,1.524-0.373,2.383
				c0,0.888,0.126,1.712,0.344,2.459c0.233,0.747,0.562,1.387,0.965,1.932c0.421,0.545,0.903,0.967,1.48,1.263
				c0.559,0.294,1.182,0.436,1.867,0.436C88.916,103.496,89.354,103.433,89.805,103.293z"/>
			<path fill="#0B0C0C" d="M93.65,103.324h0.454h0.824v-5.359c0-0.279,0.032-0.527,0.128-0.746c0.074-0.218,0.2-0.42,0.342-0.592
				c0.154-0.188,0.326-0.312,0.529-0.406c0.204-0.093,0.436-0.155,0.669-0.155c0.294,0,0.544,0.063,0.764,0.204
				c0.202,0.14,0.357,0.357,0.453,0.653c0.108,0.296,0.154,0.669,0.154,1.12v5.282h1.653v-5.438c0-0.812-0.094-1.48-0.283-2.024
				c-0.168-0.529-0.452-0.937-0.809-1.216c-0.376-0.262-0.827-0.405-1.357-0.405c-0.387,0-0.747,0.109-1.122,0.312
				c-0.357,0.203-0.67,0.47-0.919,0.794c-0.076,0.112-0.154,0.218-0.218,0.33v-4.834h-1.65v12.48H93.65L93.65,103.324z"/>
			<path fill="#0B0C0C" d="M103.033,103.324v-4.736c0-0.311,0.028-0.608,0.12-0.856c0.079-0.248,0.204-0.466,0.361-0.669
				c0.156-0.188,0.326-0.344,0.527-0.436c0.201-0.109,0.419-0.174,0.639-0.174c0.141,0,0.299,0.034,0.436,0.078
				c0.141,0.034,0.266,0.096,0.358,0.155l0.453-2.271l-0.344-0.112l-0.436-0.06c-0.357,0-0.688,0.109-1.011,0.312
				c-0.315,0.218-0.609,0.499-0.843,0.856c-0.109,0.17-0.218,0.342-0.296,0.529l-0.018-1.512h-1.635v8.896L103.033,103.324
				L103.033,103.324z"/>
			<path fill="#0B0C0C" d="M106.739,103.137c0.169-0.249,0.264-0.575,0.264-0.982c0-0.436-0.076-0.762-0.264-0.997
				c-0.173-0.233-0.422-0.342-0.75-0.342c-0.295,0-0.543,0.124-0.73,0.372c-0.188,0.249-0.279,0.577-0.279,0.966
				c0,0.437,0.092,0.762,0.266,0.997c0.17,0.248,0.419,0.359,0.744,0.359C106.304,103.511,106.553,103.385,106.739,103.137z"/>
			<polygon fill="#0B0C0C" points="20.373,117.609 20.373,112.749 24.671,112.749 24.671,117.609 26.432,117.609 26.432,105.8 
				24.671,105.8 24.671,110.693 20.373,110.693 20.373,105.8 18.612,105.8 18.612,117.609 			"/>
			<path fill="#0B0C0C" d="M30.684,115.586c-0.295-0.236-0.529-0.563-0.685-0.999c-0.172-0.421-0.25-0.904-0.25-1.45
				c0-0.543,0.078-1.028,0.25-1.432c0.156-0.42,0.39-0.75,0.685-0.983c0.28-0.234,0.625-0.357,1.014-0.357
				c0.389,0,0.732,0.126,1.028,0.357c0.295,0.233,0.53,0.562,0.701,0.983c0.156,0.403,0.25,0.889,0.25,1.432
				c0,0.546-0.093,1.029-0.25,1.45c-0.171,0.436-0.406,0.763-0.701,0.999c-0.296,0.233-0.639,0.355-1.028,0.355
				C31.309,115.941,30.965,115.819,30.684,115.586z M32.212,117.579c0.295-0.142,0.576-0.312,0.809-0.529
				c0.218-0.218,0.421-0.437,0.577-0.688v1.249h1.699v-8.895h-1.683v1.248c-0.125-0.266-0.296-0.485-0.499-0.688
				c-0.218-0.233-0.483-0.421-0.779-0.545c-0.296-0.143-0.624-0.202-0.981-0.202c-0.624,0-1.184,0.202-1.683,0.594
				c-0.5,0.388-0.889,0.933-1.168,1.632c-0.295,0.703-0.436,1.496-0.436,2.383c0,0.89,0.14,1.685,0.436,2.384
				c0.28,0.687,0.669,1.248,1.137,1.653c0.483,0.404,1.014,0.607,1.605,0.607C31.588,117.781,31.9,117.703,32.212,117.579z"/>
			<path fill="#0B0C0C" d="M37.462,117.609h0.452h0.825v-5.375c0-0.265,0.047-0.514,0.141-0.731
				c0.077-0.233,0.201-0.436,0.342-0.607c0.156-0.172,0.327-0.312,0.53-0.405c0.202-0.092,0.42-0.14,0.669-0.14
				c0.296-0.015,0.544,0.063,0.748,0.186c0.218,0.157,0.359,0.375,0.468,0.673c0.092,0.296,0.139,0.67,0.139,1.123v5.28h1.667
				v-5.438c0-0.812-0.093-1.48-0.279-2.026c-0.188-0.545-0.452-0.95-0.826-1.214c-0.359-0.266-0.81-0.406-1.354-0.406
				c-0.374,0-0.748,0.108-1.107,0.312c-0.358,0.202-0.67,0.468-0.934,0.793c-0.078,0.112-0.156,0.218-0.218,0.346l-0.016-1.264
				h-1.62v8.895H37.462L37.462,117.609z"/>
			<path fill="#0B0C0C" d="M48.928,117.42c0.419-0.232,0.731-0.56,0.981-0.979c0.233-0.42,0.357-0.89,0.357-1.419
				c0-0.327-0.047-0.625-0.109-0.889c-0.077-0.278-0.201-0.514-0.374-0.715c-0.172-0.236-0.404-0.436-0.701-0.624
				c-0.295-0.172-0.655-0.346-1.106-0.483c-0.312-0.094-0.561-0.186-0.763-0.296l-0.453-0.266c-0.077-0.078-0.155-0.188-0.201-0.296
				l-0.093-0.375c0-0.172,0.032-0.296,0.077-0.42c0.046-0.126,0.126-0.218,0.203-0.297c0.094-0.078,0.203-0.139,0.344-0.17
				c0.14-0.048,0.295-0.062,0.466-0.062c0.171,0,0.375,0.048,0.577,0.139c0.203,0.095,0.405,0.218,0.607,0.391
				c0.203,0.158,0.389,0.327,0.561,0.526l0.919-1.26c-0.201-0.296-0.451-0.544-0.747-0.747c-0.297-0.218-0.608-0.376-0.951-0.481
				c-0.327-0.112-0.686-0.172-1.043-0.172c-0.344,0-0.685,0.06-1.013,0.188c-0.327,0.125-0.608,0.295-0.842,0.545
				c-0.248,0.233-0.436,0.516-0.576,0.822c-0.14,0.33-0.218,0.688-0.218,1.075c0,0.315,0.047,0.607,0.125,0.872
				c0.079,0.282,0.188,0.517,0.342,0.736c0.173,0.264,0.438,0.495,0.748,0.699c0.327,0.203,0.733,0.391,1.216,0.545l0.763,0.268
				l0.421,0.264c0.155,0.154,0.234,0.372,0.234,0.64c0,0.14-0.016,0.277-0.063,0.387c-0.062,0.126-0.125,0.236-0.218,0.312
				c-0.093,0.093-0.188,0.158-0.312,0.202s-0.265,0.075-0.421,0.075c-0.358,0-0.716-0.091-1.044-0.264
				c-0.342-0.155-0.639-0.437-0.904-0.826l-1.09,1.171c0.327,0.497,0.733,0.872,1.231,1.137s1.058,0.405,1.698,0.405
				C48.07,117.781,48.522,117.655,48.928,117.42z"/>
			<path fill="#0B0C0C" d="M52.961,111.595c0.156-0.406,0.374-0.715,0.686-0.917c0.295-0.218,0.67-0.327,1.105-0.327
				c0.296,0,0.562,0.078,0.795,0.233c0.234,0.14,0.436,0.357,0.593,0.623c0.139,0.267,0.233,0.562,0.265,0.922v0.075H52.79
				C52.838,111.986,52.884,111.782,52.961,111.595z M55.937,117.609c0.342-0.109,0.654-0.264,0.967-0.467
				c0.312-0.202,0.591-0.436,0.841-0.716l-0.827-1.434c-0.327,0.343-0.623,0.593-0.903,0.73c-0.281,0.128-0.592,0.188-0.919,0.188
				c-0.483,0-0.888-0.107-1.248-0.344c-0.358-0.218-0.638-0.561-0.825-0.98c-0.14-0.295-0.218-0.607-0.266-0.965h5.25l0.017-0.719
				c0.015-0.638-0.063-1.211-0.218-1.76c-0.157-0.527-0.39-0.997-0.686-1.368c-0.296-0.39-0.654-0.704-1.061-0.922
				c-0.403-0.233-0.839-0.343-1.307-0.343c-0.53,0-1.013,0.109-1.465,0.343c-0.436,0.236-0.825,0.562-1.137,0.981
				c-0.327,0.421-0.576,0.919-0.763,1.496c-0.171,0.579-0.265,1.2-0.265,1.902c0,0.891,0.156,1.667,0.483,2.335
				c0.312,0.688,0.764,1.217,1.34,1.62c0.56,0.391,1.23,0.595,1.978,0.595C55.251,117.781,55.595,117.718,55.937,117.609z"/>
			<path fill="#0B0C0C" d="M59.754,117.609h0.452h0.824v-5.375c0-0.265,0.033-0.514,0.126-0.731
				c0.077-0.233,0.203-0.436,0.344-0.607c0.157-0.172,0.327-0.312,0.528-0.405c0.202-0.092,0.42-0.14,0.67-0.14
				c0.298-0.015,0.547,0.063,0.767,0.186c0.2,0.157,0.357,0.375,0.45,0.673c0.091,0.296,0.155,0.67,0.155,1.123v5.28h1.65v-5.438
				c0-0.812-0.092-1.48-0.278-2.026c-0.188-0.545-0.451-0.95-0.827-1.214c-0.356-0.266-0.809-0.406-1.354-0.406
				c-0.376,0-0.747,0.108-1.106,0.312c-0.358,0.202-0.67,0.468-0.936,0.793c-0.078,0.112-0.155,0.202-0.218,0.313l-0.018-1.23
				h-1.618v8.895H59.754z"/>
			<path fill="#0B0C0C" d="M72.278,117.609l0.825-2.696h3.787l0.809,2.696h1.822l-3.661-11.808h-1.65l-3.678,11.808H72.278z
				 M74.304,110.941l0.218-0.763l0.234-0.871l0.233-0.871l0.016-0.048l0.234,0.9l0.251,0.967l0.186,0.638l0.638,2.104h-2.633
				L74.304,110.941z"/>
			<polygon fill="#0B0C0C" points="81.439,119.883 87,105.8 85.379,105.8 79.785,119.883 			"/>
			<path fill="#0B0C0C" d="M93.295,117.33c0.527-0.3,0.935-0.735,1.23-1.278c0.296-0.563,0.436-1.231,0.436-2.012
				c0-0.452-0.063-0.855-0.218-1.215c-0.14-0.376-0.342-0.699-0.623-0.981c-0.282-0.297-0.625-0.529-1.013-0.747
				c-0.405-0.201-0.841-0.377-1.339-0.496l-0.797-0.267c-0.233-0.109-0.42-0.218-0.577-0.357c-0.154-0.144-0.264-0.281-0.34-0.47
				c-0.082-0.169-0.128-0.373-0.128-0.591c0-0.298,0.063-0.548,0.202-0.747c0.144-0.218,0.327-0.374,0.563-0.485
				c0.233-0.106,0.511-0.173,0.839-0.173c0.298,0,0.561,0.066,0.824,0.173c0.267,0.128,0.5,0.297,0.735,0.529
				c0.218,0.237,0.42,0.515,0.605,0.873l1.154-1.435c-0.203-0.436-0.469-0.825-0.78-1.118c-0.324-0.313-0.701-0.55-1.107-0.704
				c-0.419-0.155-0.902-0.233-1.433-0.233c-0.467,0-0.902,0.078-1.308,0.25c-0.403,0.171-0.764,0.403-1.061,0.7
				c-0.311,0.31-0.544,0.67-0.733,1.091c-0.168,0.404-0.264,0.871-0.264,1.354c0,0.498,0.062,0.935,0.188,1.324
				c0.107,0.39,0.294,0.748,0.545,1.06c0.25,0.297,0.562,0.562,0.936,0.767c0.373,0.218,0.793,0.37,1.294,0.496l0.713,0.219
				l0.578,0.296c0.171,0.108,0.325,0.233,0.436,0.357c0.123,0.126,0.201,0.28,0.266,0.436c0.059,0.172,0.091,0.344,0.091,0.529
				c0,0.279-0.077,0.514-0.218,0.731c-0.137,0.203-0.341,0.357-0.591,0.483c-0.269,0.11-0.529,0.17-0.841,0.17
				c-0.531,0-1.015-0.139-1.435-0.436c-0.421-0.296-0.856-0.825-1.292-1.588l-1.152,1.619c0.295,0.5,0.625,0.919,0.98,1.277
				c0.376,0.344,0.795,0.608,1.248,0.78c0.466,0.172,0.965,0.265,1.509,0.265C92.139,117.781,92.764,117.625,93.295,117.33z"/>
			<path fill="#0B0C0C" d="M97.828,117.407c0.186-0.249,0.279-0.577,0.279-0.966c0-0.437-0.094-0.764-0.264-0.997
				c-0.172-0.233-0.42-0.36-0.749-0.36c-0.31,0-0.544,0.141-0.731,0.39c-0.188,0.248-0.281,0.578-0.281,0.967
				c0,0.438,0.094,0.762,0.268,0.995c0.168,0.233,0.42,0.361,0.745,0.361C97.408,117.797,97.642,117.669,97.828,117.407z"/>
			<polygon fill="#004A8B" points="16.603,57.867 13.83,58.381 14.468,59.144 16.213,58.769 15.513,60.452 16.29,61.138 
				17.225,58.599 18.316,57.68 17.692,56.947 			"/>
			<path fill="#004A8B" d="M15.605,53.878c-0.591-0.966-1.666-1.168-2.695-0.544c-1.013,0.622-1.325,1.667-0.747,2.634
				c0.592,0.948,1.667,1.152,2.695,0.527C15.886,55.873,16.181,54.812,15.605,53.878z M14.343,55.669
				c-0.653,0.407-1.231,0.39-1.525-0.094c-0.297-0.483-0.047-1.011,0.607-1.416c0.654-0.405,1.246-0.375,1.543,0.109
				C15.248,54.735,15.014,55.264,14.343,55.669z"/>
			<path fill="#004A8B" d="M13.595,49.952c-0.342-0.873-1.09-1.323-2.087-0.903L9.343,49.92l0.374,0.903l2.166-0.888
				c0.451-0.187,0.793-0.095,0.965,0.312c0.171,0.39-0.017,0.717-0.483,0.903L10.2,52.039l0.373,0.887l2.167-0.887
				C13.736,51.635,13.969,50.824,13.595,49.952z"/>
			<path fill="#004A8B" d="M12.365,46.432l-1.31,0.312l-0.062-0.25l1.137-1.151l-0.389-0.919l-1.169,1.247
				c-0.311-0.405-0.716-0.577-1.246-0.436c-0.762,0.186-1.043,0.826-0.825,1.729l0.312,1.325l3.771-0.936L12.365,46.432z
				 M9.296,47.179l-0.078-0.294c-0.092-0.407,0.047-0.671,0.39-0.749c0.357-0.093,0.623,0.095,0.716,0.484l0.077,0.295L9.296,47.179
				z"/>
			<polygon fill="#004A8B" points="11.508,41.196 9.935,41.26 9.889,39.92 11.461,39.858 11.43,38.892 7.552,39.048 7.597,39.997 
				9.046,39.952 9.093,41.291 7.644,41.337 7.676,42.303 11.556,42.148 			"/>
			<polygon fill="#004A8B" points="11.742,35.246 10.979,35.168 10.823,36.68 9.998,36.586 10.122,35.355 9.327,35.401 
				9.203,36.508 8.5,36.447 8.657,34.982 7.878,34.904 7.644,37.302 11.492,37.692 			"/>
			<path fill="#004A8B" d="M12.069,33.548l-0.716-0.468l0.327-1.293l0.888-0.078l0.079-0.981l-3.988,0.404l-0.265,1.03l3.443,2.289
				L12.069,33.548z M10.667,32.691l-1.199-0.764l1.418-0.093L10.667,32.691z"/>
			<polygon fill="#004A8B" points="13.939,27.847 13.128,27.66 12.676,28.767 9.841,27.629 9.482,28.517 13.082,29.966 			"/>
			<polygon fill="#004A8B" points="11.851,25.183 14.546,26.648 15.014,25.791 12.319,24.326 12.864,23.313 12.083,23.034 
				10.62,25.744 11.337,26.133 			"/>
			<polygon fill="#004A8B" points="16.617,23.252 15.356,22.301 16.151,21.226 17.428,22.177 18.004,21.396 14.904,19.077 
				14.327,19.84 15.48,20.712 14.67,21.787 13.518,20.915 12.941,21.694 16.042,24.015 			"/>
			
				<rect x="18.958" y="16.65" transform="matrix(0.678 0.7351 -0.7351 0.678 19.2425 -8.5325)" fill="#004A8B" width="0.804" height="2.094"/>
			<path fill="#004A8B" d="M24.609,15.836c0.965-0.608,1.152-1.683,0.513-2.711c-0.638-1.012-1.683-1.325-2.632-0.717
				c-0.95,0.592-1.136,1.667-0.498,2.695C22.616,16.117,23.675,16.412,24.609,15.836z M22.88,13.047
				c0.483-0.295,1.028-0.047,1.434,0.592c0.405,0.653,0.389,1.246-0.094,1.542c-0.468,0.295-1.014,0.063-1.417-0.592
				C22.397,13.936,22.413,13.344,22.88,13.047z"/>
			<path fill="#004A8B" d="M28.519,13.796c0.856-0.374,1.293-1.123,0.872-2.119l-0.902-2.15L27.6,9.9l0.919,2.166
				c0.187,0.451,0.093,0.81-0.311,0.966c-0.391,0.171-0.717,0-0.904-0.468l-0.919-2.149l-0.889,0.374l0.919,2.166
				C26.836,13.951,27.647,14.153,28.519,13.796z"/>
			<path fill="#004A8B" d="M32.024,12.517l-0.327-1.293l0.25-0.062l1.167,1.123l0.919-0.406l-1.262-1.152
				c0.405-0.312,0.561-0.731,0.436-1.247c-0.202-0.779-0.841-1.059-1.744-0.825l-1.325,0.342l0.951,3.756L32.024,12.517z
				 M31.542,9.386c0.405-0.109,0.67,0.032,0.763,0.374c0.094,0.374-0.093,0.624-0.498,0.716l-0.28,0.079l-0.28-1.09L31.542,9.386z"
				/>
			<path fill="#004A8B" d="M37.478,10.913c-0.374,0.031-0.825-0.093-1.246-0.281l-0.094,0.826c0.406,0.156,0.856,0.233,1.37,0.201
				c0.78-0.045,1.372-0.452,1.31-1.293c-0.032-0.623-0.39-0.888-1.247-1.137c-0.5-0.156-0.608-0.25-0.623-0.453
				c0-0.171,0.124-0.312,0.42-0.327c0.295-0.015,0.67,0.078,1.028,0.25L38.49,7.89c-0.344-0.14-0.686-0.218-1.184-0.188
				c-0.748,0.047-1.293,0.484-1.247,1.231c0.031,0.639,0.39,0.872,1.185,1.122c0.545,0.171,0.67,0.265,0.685,0.483
				C37.944,10.773,37.757,10.896,37.478,10.913z"/>
			<path fill="#004A8B" d="M41.87,8.514c0.343,0.032,0.625,0.187,0.842,0.374l0.201-0.857c-0.281-0.171-0.622-0.295-1.059-0.31
				c-1.107-0.079-1.9,0.685-1.995,1.869c-0.079,1.216,0.577,2.056,1.76,2.135c0.421,0.03,0.78-0.064,1.106-0.218l-0.062-0.795
				c-0.312,0.141-0.592,0.233-0.904,0.218c-0.577-0.047-0.981-0.498-0.934-1.278C40.874,8.904,41.293,8.483,41.87,8.514z"/>
			<polygon fill="#004A8B" points="45.375,8.265 44.44,8.109 43.754,11.91 44.705,12.081 			"/>
			<polygon fill="#004A8B" points="48.491,12.269 47.025,11.849 47.26,11.038 48.46,11.38 48.554,10.585 47.479,10.274 
				47.666,9.589 49.083,9.995 49.301,9.261 46.98,8.592 45.905,12.331 48.272,13 			"/>
			<polygon fill="#004A8B" points="50.048,13.702 50.999,11.583 51.451,14.325 52.198,14.668 53.788,11.131 52.978,10.758 
				52.089,12.735 51.668,10.182 50.829,9.792 49.238,13.327 			"/>
			<path fill="#004A8B" d="M54.676,16.256c0.357,0.234,0.716,0.343,1.075,0.359l0.327-0.732c-0.327-0.016-0.624-0.078-0.89-0.25
				c-0.498-0.312-0.621-0.904-0.201-1.558c0.404-0.639,0.965-0.81,1.465-0.482c0.28,0.171,0.451,0.452,0.56,0.733l0.577-0.655
				c-0.156-0.296-0.391-0.561-0.764-0.794c-0.935-0.607-1.994-0.327-2.648,0.686C53.524,14.574,53.678,15.633,54.676,16.256z"/>
			<polygon fill="#004A8B" points="58.306,19.013 58.803,18.421 57.636,17.44 58.181,16.803 59.13,17.611 59.552,16.926 
				58.694,16.194 59.145,15.648 60.268,16.6 60.766,16.023 58.927,14.449 56.42,17.409 			"/>
			<path fill="#004A8B" d="M47.541,69.441c0.359-0.153,0.622-0.454,0.622-0.919c0-0.701-0.482-1.122-1.465-1.122h-1.479v4.332h1.449
				c1.028,0,1.667-0.405,1.667-1.248C48.335,69.893,48.023,69.596,47.541,69.441z M46.233,68.163h0.389
				c0.404,0,0.592,0.186,0.592,0.485c0,0.31-0.218,0.512-0.624,0.512h-0.357V68.163z M46.636,70.968h-0.404v-1.123h0.389
				c0.451,0,0.702,0.188,0.702,0.577C47.323,70.78,47.058,70.968,46.636,70.968z"/>
			<path fill="#004A8B" d="M50.283,70.563l-0.593-1.948l-1.028,0.108l1.12,3.023l-0.03,0.093c-0.109,0.218-0.296,0.297-0.499,0.297
				c-0.188,0-0.281-0.016-0.39-0.045l0.125,0.744c0.092,0.03,0.17,0.046,0.358,0.046c0.671,0,1.045-0.279,1.324-1.075l1.09-3.144
				h-0.903L50.283,70.563z"/>
			<path fill="#004A8B" d="M55.89,70.92c-0.654,0-1.138-0.483-1.138-1.354c0-0.843,0.436-1.339,1.091-1.339
				c0.374,0,0.701,0.139,0.965,0.34l0.156-0.963c-0.327-0.17-0.716-0.277-1.215-0.277c-1.231,0-2.073,0.9-2.073,2.257
				c0,1.353,0.796,2.226,2.104,2.226c0.482,0,0.889-0.122,1.231-0.31l-0.125-0.891C56.562,70.798,56.25,70.92,55.89,70.92z"/>
			<path fill="#004A8B" d="M59.599,68.601c-0.389,0-0.671,0.184-0.92,0.436v-1.838l-0.95,0.156v4.376h0.95v-2.021
				c0.172-0.159,0.327-0.268,0.514-0.268c0.235,0,0.311,0.14,0.311,0.374v1.917h0.967v-2.181
				C60.471,68.958,60.159,68.601,59.599,68.601z"/>
			<path fill="#004A8B" d="M62.185,69.271l-0.094-0.609H61.25v3.068h0.95v-1.697c0.232-0.266,0.578-0.438,1.045-0.468l-0.157-0.98
				C62.636,68.614,62.372,68.912,62.185,69.271z"/>
			<rect x="63.369" y="70.654" fill="#004A8B" width="1.011" height="1.076"/>
			<polygon fill="#004A8B" points="69.29,69.02 67.778,69.02 67.778,67.4 66.703,67.4 66.703,71.73 67.778,71.73 67.778,69.973 
				69.29,69.973 69.29,71.73 70.363,71.73 70.363,67.4 69.29,67.4 			"/>
			<path fill="#004A8B" d="M72.515,68.601c-0.502,0-0.888,0.094-1.247,0.25l0.108,0.715c0.327-0.142,0.654-0.233,0.996-0.233
				c0.313,0,0.468,0.125,0.468,0.392v0.06c-1.199,0.092-1.76,0.436-1.76,1.166c0,0.563,0.342,0.856,0.843,0.856
				c0.42,0,0.713-0.186,0.961-0.451l0.066,0.374h0.84v-2.056C73.79,68.896,73.369,68.601,72.515,68.601z M72.838,70.89
				c-0.172,0.156-0.342,0.233-0.527,0.233c-0.17,0-0.298-0.107-0.298-0.295c0-0.282,0.188-0.5,0.827-0.592L72.838,70.89
				L72.838,70.89z"/>
			<path fill="#004A8B" d="M76.439,68.601c-0.392,0-0.688,0.202-0.967,0.485l-0.062-0.422h-0.842v3.068h0.951v-2.023
				c0.17-0.157,0.342-0.266,0.527-0.266c0.218,0,0.312,0.14,0.312,0.372v1.917h0.951v-2.181
				C77.311,68.958,77.015,68.601,76.439,68.601z"/>
			<path fill="#004A8B" d="M79.399,69.783c-0.437-0.108-0.515-0.188-0.515-0.312c0-0.108,0.092-0.199,0.327-0.199
				c0.296,0,0.67,0.105,1.011,0.293l0.112-0.731c-0.314-0.14-0.718-0.218-1.139-0.218c-0.747,0-1.185,0.372-1.185,0.949
				c0,0.579,0.327,0.797,1.106,0.999c0.436,0.092,0.514,0.169,0.514,0.327c0,0.141-0.124,0.232-0.388,0.232
				c-0.344,0-0.795-0.139-1.152-0.356l-0.108,0.716c0.308,0.174,0.779,0.31,1.261,0.31c0.823,0,1.261-0.354,1.261-0.993
				C80.504,70.219,80.223,70.001,79.399,69.783z"/>
			<path fill="#004A8B" d="M83.838,70.19c0-0.889-0.421-1.606-1.369-1.606c-0.827,0-1.451,0.621-1.451,1.62
				c0,1.105,0.672,1.603,1.588,1.603c0.483,0,0.89-0.138,1.232-0.355l-0.109-0.653c-0.327,0.184-0.669,0.308-1.011,0.308
				c-0.407,0-0.703-0.187-0.752-0.669h1.858L83.838,70.19z M81.966,69.907c0.033-0.466,0.218-0.702,0.484-0.702
				c0.281,0,0.455,0.236,0.485,0.702H81.966z"/>
			<path fill="#004A8B" d="M86.363,68.601c-0.39,0-0.688,0.202-0.953,0.485l-0.077-0.422h-0.825v3.068h0.937v-2.023
				c0.168-0.157,0.342-0.266,0.529-0.266c0.218,0,0.308,0.14,0.308,0.372v1.917h0.955v-2.181
				C87.236,68.958,86.937,68.601,86.363,68.601z"/>
			<polygon fill="#004A8B" points="111.863,46.417 110.758,46.417 110.119,48.581 109.464,46.417 108.325,46.417 108.062,49.734 
				108.856,49.734 108.996,47.662 109.619,49.75 110.446,49.75 111.056,47.662 111.193,49.734 112.114,49.734 			"/>
			<polygon fill="#004A8B" points="104.915,46.417 104.915,47.132 105.897,47.132 105.897,49.734 106.799,49.734 106.799,47.132 
				107.844,47.132 107.75,46.417 			"/>
			<path fill="#4077A8" d="M30.514,65.672c-1.246-0.405-2.586,0.28-2.991,1.526c-0.405,1.247,0.281,2.585,1.527,2.992
				c1.246,0.406,2.586-0.264,2.99-1.526C32.445,67.416,31.76,66.075,30.514,65.672z"/>
			<path fill="#739CBF" d="M39.081,67.04c-1.308,0-2.367,1.061-2.367,2.367c0,1.309,1.059,2.385,2.367,2.385
				c1.325,0,2.385-1.076,2.385-2.385C41.466,68.101,40.406,67.04,39.081,67.04z"/>
			<polygon fill="#004A8B" points="81.268,48.239 81.719,51.557 85.192,50.201 85.192,63.475 89.478,63.475 89.478,46.198 
				85.677,46.198 			"/>
			<path fill="#004A8B" d="M97.094,60.11l3.442-3.35c2.12-1.979,3.286-3.521,3.286-5.858c0-3.101-2.18-4.954-5.73-4.954
				c-2.46,0-4.239,0.717-5.718,1.699l0.499,3.63c1.496-1.076,3.036-1.761,4.579-1.761c1.402,0,2.211,0.671,2.211,1.837
				c0,1.154-0.575,1.962-1.729,3.146l-5.947,5.937v3.038h12.18l-0.544-3.366L97.094,60.11L97.094,60.11z"/>
			<path fill="#4077A8" d="M22.786,61.729c-1.059-0.763-2.539-0.529-3.318,0.531c-0.763,1.059-0.53,2.555,0.53,3.317
				c1.059,0.779,2.54,0.545,3.317-0.512C24.079,63.988,23.846,62.508,22.786,61.729z"/>
			<path fill="#B2C8DC" d="M33.194,57.462c-1.247-0.405-2.586,0.279-2.993,1.526c-0.404,1.246,0.265,2.585,1.511,2.99
				c1.263,0.405,2.602-0.279,3.007-1.526C35.124,59.205,34.439,57.867,33.194,57.462z"/>
			<path fill="#004A8B" d="M39.081,58.396c-1.308,0-2.367,1.059-2.367,2.368c0,1.326,1.059,2.384,2.367,2.384
				c1.325,0,2.385-1.061,2.385-2.384C41.466,59.455,40.406,58.396,39.081,58.396z"/>
			<rect x="74.162" y="54.206" fill="#004A8B" width="6.981" height="3.677"/>
			<path fill="#004A8B" d="M28.395,58.069c0.763-1.059,0.53-2.556-0.53-3.319c-1.059-0.78-2.539-0.545-3.318,0.529
				c-0.763,1.059-0.53,2.541,0.53,3.319C26.136,59.361,27.616,59.128,28.395,58.069z"/>
			<path fill="#004A8B" d="M39.081,49.75c-1.308,0-2.367,1.074-2.367,2.383c0,1.308,1.059,2.366,2.367,2.366
				c1.325,0,2.385-1.059,2.385-2.366C41.466,50.824,40.406,49.75,39.081,49.75z"/>
			<path fill="#004A8B" d="M30.155,51.604c1.059,0.763,2.539,0.53,3.318-0.529c0.763-1.059,0.53-2.541-0.53-3.318
				c-1.06-0.763-2.539-0.529-3.317,0.53C28.863,49.344,29.096,50.824,30.155,51.604z"/>
			<path fill="#004A8B" d="M45.22,63.475h5.874c4.205,0,6.76-1.683,6.76-5.079c0-2.4-1.277-3.63-3.194-4.238
				c1.434-0.638,2.525-1.807,2.525-3.723c0-2.867-1.962-4.564-5.967-4.564H45.22L45.22,63.475L45.22,63.475z M53.742,58.115
				c0,1.481-1.014,2.228-2.774,2.228h-1.62v-4.55h1.558C52.744,55.793,53.742,56.588,53.742,58.115z M50.811,52.989h-1.464v-3.987
				h1.558c1.683,0,2.397,0.749,2.397,1.917C53.304,52.196,52.448,52.989,50.811,52.989z"/>
			<path fill="#004A8B" d="M72.605,58.396c0-2.4-1.278-3.63-3.194-4.238c1.435-0.638,2.54-1.807,2.54-3.723
				c0-2.867-1.962-4.564-5.979-4.564h-6v17.604h5.874C70.049,63.475,72.605,61.792,72.605,58.396z M65.564,52.989h-1.448v-3.987
				h1.558c1.683,0,2.399,0.749,2.399,1.917C68.073,52.196,67.2,52.989,65.564,52.989z M64.116,60.343v-4.55h1.558
				c1.838,0,2.819,0.795,2.819,2.322c0,1.481-1.013,2.228-2.773,2.228H64.116z"/>
			<path fill="#004A8B" d="M20.933,45.2c-0.404-1.245-1.745-1.931-2.991-1.526c-1.246,0.406-1.933,1.744-1.527,2.993
				c0.406,1.261,1.745,1.93,2.992,1.526C20.653,47.786,21.337,46.449,20.933,45.2z"/>
			<path fill="#004A8B" d="M24.625,44.001c0.405,1.246,1.746,1.932,2.991,1.526c1.262-0.404,1.931-1.744,1.526-2.991
				s-1.745-1.931-2.992-1.526C24.904,41.415,24.22,42.754,24.625,44.001z"/>
			<path fill="#739CBF" d="M66.809,39.313c0,1.308,1.075,2.367,2.385,2.367c1.307,0,2.367-1.059,2.367-2.367
				c0-1.324-1.059-2.383-2.367-2.383C67.886,36.929,66.809,37.988,66.809,39.313z"/>
			<path fill="#B2C8DC" d="M15.248,39.297c0,1.325,1.059,2.383,2.368,2.383c1.324,0,2.383-1.059,2.383-2.383
				c0-1.308-1.06-2.368-2.383-2.368C16.305,36.929,15.248,37.988,15.248,39.297z"/>
			<path fill="#004A8B" d="M60.548,41.68c1.325,0,2.382-1.059,2.382-2.367c0-1.324-1.059-2.383-2.382-2.383
				c-1.308,0-2.367,1.059-2.367,2.383C58.181,40.622,59.239,41.68,60.548,41.68z"/>
			<circle fill="#004A8B" cx="26.884" cy="35.34" r="2.375"/>
			<path fill="#004A8B" d="M20.933,33.407c0.404-1.245-0.28-2.585-1.527-2.991c-1.246-0.404-2.586,0.265-2.992,1.511
				c-0.404,1.262,0.282,2.602,1.527,3.007C19.188,35.34,20.529,34.655,20.933,33.407z"/>
			<path fill="#004A8B" d="M52.027,37.599c1.246-0.406,1.932-1.745,1.511-2.99c-0.389-1.247-1.744-1.933-2.992-1.528
				c-1.246,0.406-1.931,1.746-1.526,2.992C49.426,37.319,50.781,38.004,52.027,37.599z"/>
			<path fill="#004A8B" d="M33.474,27.535c-0.78-1.059-2.26-1.309-3.318-0.529c-1.059,0.779-1.293,2.259-0.53,3.319
				c0.778,1.059,2.258,1.292,3.317,0.529C34.003,30.075,34.237,28.595,33.474,27.535z"/>
			<path fill="#B2C8DC" d="M60.238,34.935c1.246-0.405,1.931-1.745,1.527-2.992c-0.407-1.261-1.745-1.931-2.991-1.526
				c-1.247,0.406-1.932,1.746-1.528,2.991C57.651,34.655,58.992,35.34,60.238,34.935z"/>
			<path fill="#004A8B" d="M57.854,28.61c1.059-0.78,1.292-2.259,0.529-3.32c-0.779-1.058-2.257-1.293-3.318-0.528
				c-1.075,0.779-1.308,2.258-0.53,3.318C55.299,29.14,56.795,29.373,57.854,28.61z"/>
			<path fill="#4077A8" d="M65.455,30.743c0.405,1.247,1.745,1.917,2.992,1.512c1.244-0.404,1.932-1.745,1.526-2.991
				c-0.404-1.246-1.744-1.932-2.991-1.527C65.733,28.143,65.049,29.483,65.455,30.743z"/>
			<path fill="#004A8B" d="M48.554,30.325c0.763-1.06,0.528-2.556-0.53-3.319c-1.06-0.779-2.555-0.53-3.319,0.529
				c-0.763,1.06-0.528,2.54,0.53,3.318C46.294,31.617,47.774,31.383,48.554,30.325z"/>
			<path fill="#B2C8DC" d="M23.113,24.763c-1.059-0.764-2.54-0.53-3.318,0.528c-0.763,1.061-0.53,2.54,0.53,3.32
				c1.059,0.763,2.54,0.53,3.317-0.529C24.406,27.021,24.174,25.542,23.113,24.763z"/>
			<path fill="#004A8B" d="M39.081,24.107c-1.308,0-2.367,1.06-2.367,2.369c0,1.309,1.059,2.383,2.367,2.383
				c1.325,0,2.385-1.074,2.385-2.383C41.466,25.167,40.406,24.107,39.081,24.107z"/>
			<path fill="#4077A8" d="M64.831,23.531c1.075-0.763,1.309-2.259,0.531-3.319c-0.763-1.059-2.261-1.292-3.32-0.529
				c-1.061,0.779-1.29,2.258-0.528,3.318C62.294,24.077,63.772,24.31,64.831,23.531z"/>
			<circle fill="#004A8B" cx="45.718" cy="18.889" r="2.375"/>
			<path fill="#004A8B" d="M31.729,16.63c-1.263,0.405-1.932,1.744-1.527,2.992c0.406,1.246,1.746,1.93,2.993,1.526
				c1.246-0.405,1.93-1.745,1.525-2.993C34.314,16.912,32.975,16.226,31.729,16.63z"/>
			<path fill="#B2C8DC" d="M39.081,15.463c-1.308,0-2.367,1.059-2.367,2.383c0,1.308,1.059,2.367,2.367,2.367
				c1.325,0,2.385-1.059,2.385-2.367C41.466,16.521,40.406,15.463,39.081,15.463z"/>
		</g>
	</g>
</g>
</svg>
