<svg fill="none" height="127" viewBox="0 0 96 127" width="96" xmlns="http://www.w3.org/2000/svg"><g clip-rule="evenodd" fill-rule="evenodd"><path d="m56.2053 118.363c.8591-.464 3.2274-1.345 8.9858-1.625 18.5405-1.194 30.7305-.488 30.1849-10.658-.3483-1.927-1.5325-3.576-3.2507-4.504-3.9821-2.1462-6.304-15.8687-5.3985-20.468.6037-2.8192-.9636-5.8494-3.5757-7.0103 1.5557-8.2912 5.8976-17.4143 7.8016-21.1642 2.0317-3.7403-.5921-8.7653-4.8296-9.1832-15.4988-1.9504-27.9558-14.6165-30.3009-17.1473-1.3932-1.4861-3.4249-2.2059-5.4217-1.9389-2.7515.3832-6.571.476-8.1499 3.2043-1.0101 1.486-1.3467 3.3339-.9288 5.085 1.9504 6.7219-7.8365 13.8986-12.399 8.7884-2.2755-2.1826-6.1531-2.3916-8.5563-.2806-2.5773 1.9988-2.171 4.9806-2.2058 7.9197-7.4533-.5804-12.87499.6134-16.12567 3.5641-3.72667 3.1811-2.0548946 9.8334 2.73986 10.855 14.55841 3.6087 20.49091 18.9816 21.62861 22.3736-.4876 3.3648-2.5077 15.1024-8.057 24.0064-6.3969 13.024 22.2787 15.871 31.5664 16.021 4.0285.231 7.3721-3.949 6.2924-7.838zm-33.8535-3.332c-.7082-.625-.8011-1.718-.2903-2.531 6.5478-11.054 8.6608-23.4879 8.6956-27.143-.952-3.0514-7.3721-21.4544-24.92574-25.808-1.49763-.3715-1.99685-2.3103-.8475-3.3532 1.86914-1.697 5.97894-3.3223 15.05764-2.2291 2.9024.2806 2.5773-5.0037 2.4844-7.4649-.1741-1.4629 1.2887-2.5309 2.6122-2.0201 2.4031 1.3699 7.1979 6.7568 15.4639.4528 5.8977-4.7135 5.6771-10.1236 4.9805-13.0163-.2786-1.1261.476-2.2407 1.5905-2.3916l3.8196-.5224c.6037-.0813 1.2074.1277 1.6253.594 3.0069 3.2391 16.1489 16.3927 32.9596 18.5037 1.3235.1626 2.0897 1.6137 1.4744 2.8327-2.4496 4.8064-7.4069 15.4524-8.5911 24.7768-.1625 1.2171.8011 2.2755 1.9969 2.2175 1.2422-.0697 2.2174 1.0796 1.962 2.3335-1.0565 5.3404.9984 21.6056 7.6159 25.1696 1.1261.615 1.4163 2.113.5572 3.076-2.4032 2.74-12.0159 3.205-25.6455 3.855-12.8983.627-13.9895 4.286-13.0492 6.875.4528 1.288-.534 2.621-1.8575 2.589-6.8148-.211-21.5009-1.303-27.6888-6.796z" fill="#e3000b"/><path d="m67.3496 85.1596c1.9271-.0677 3.4248-1.6699 3.3667-3.5971l-.2206-6.7238c-.058-1.9272-1.6717-3.4248-3.5873-3.3649l-46.7866 1.4145c-1.9156.0715-3.4248 1.6737-3.3551 3.599l.2205 6.7219c.0581 1.9156 1.6718 3.4267 3.5874 3.3667z" fill="#f7a600"/><g fill="#221f20"><path d="m23.8033 77.1857.9056 3.0882h-.3948l-1.277.0696zm-1.5557 6.2325.2322-.9501c.3948.0232.7779.0232 1.2423.0116l1.6253-.1064.3947 1.1958c.1858.5689.5689.7759.9636.7662.5224-.0232 1.0797-.4992 1.0565-1.277 0-.1374-.0465-.3251-.0813-.4877-.5572-1.962-1.8111-5.3287-2.3683-6.7083-.3019-.7566-.9288-1.0816-1.5325-1.0584-.743.0232-1.3583.534-1.6369 1.2538-.4412 1.2654-1.7299 5.4913-2.0085 6.987-.0116.118-.0464.3135-.0348.4876.0232.7217.4876 1.1145.9984 1.1029.4644-.0193.9636-.3908 1.1493-1.217z"/><path d="m31.1165 84.2792c2.438-.0832 3.2739-1.9504 3.39-4.4484.0232-.5108.0232-.9384.0116-1.3912-.0348-.9752-.1393-1.9272-.2786-2.5909-.1625-.8359-.685-1.2867-1.1958-1.2751-.4992.0232-.9636.4992-.9287 1.4396.0232.8127.2322 2.0529.2786 3.2951.0464 1.6138-.3715 2.5213-1.2887 2.5542-.9636.0348-1.3119-.8475-1.3699-2.5096-.0348-1.161.0116-2.5773-.0232-3.3184-.0232-.7895-.5224-1.1842-1.0449-1.1726-.4876.0252-.9636.4063-1.0448 1.1145-.0813.5457-.1161 1.7511-.0813 2.9837.0348.9055.1045 1.8575.267 2.4709.4644 2.0355 1.8111 2.8927 3.3087 2.8482z"/><path d="m39.1856 82.8281c.0232-.5824.0116-1.2441-.0232-2.1478l-.1277-2.3896c.4876 1.1377 1.1261 2.5057 1.3235 2.9024.2786.5321.6849.8011 1.068.7895.3716-.0136.7431-.2806.9869-.8611.1393-.3367.7198-1.9388 1.1493-3.181l.0581 3.1113c.0232.6734.058 1.368.0928 1.637.0581.7082.5341 1.1145 1.0333 1.1029.476-.0116.9636-.4199 1.0216-1.161.0349-.6636.0116-2.3586-.0348-3.9027-.0464-1.4763-.1277-2.9159-.209-3.4596-.1277-.8572-.7546-1.2771-1.3815-1.2539-.5573.0116-1.1261.3967-1.428 1.1629-.3947.9868-.952 2.5193-1.3583 3.6899-.6037-1.3119-1.428-3.0649-1.7531-3.7035-.3366-.6249-.8707-.9151-1.3815-.9035-.6501.0232-1.2306.5108-1.2654 1.3563-.0697 1.0817-.0581 2.647-.0116 4.2975.0348 1.0797.0928 2.1807.1741 2.9934.0697.6985.5573 1.0235 1.0216 1.0119.5225-.0251 1.0101-.4199 1.0449-1.0913z"/><path d="m49.7265 76.3383.9055 3.0765h-.3947l-1.277.0678zm-1.5557 6.2324.2322-.952c.3947.0251.7778.0252 1.2422.0136l1.6254-.1046.3947 1.1939c.1857.5708.5688.7662.9636.7565.5224-.0116 1.0797-.4875 1.0564-1.277 0-.1277-.0464-.3134-.0812-.476-.5573-1.9736-1.8111-5.3288-2.3684-6.7238-.3018-.7411-.9287-1.0662-1.5324-1.0546-.7431.0232-1.3584.5437-1.637 1.2519-.4411 1.2771-1.7298 5.4933-2.0084 7.0006-.0117.1064-.0465.3135-.0349.476.0232.7314.476 1.1261.9985 1.1029.4643-.0097.9635-.3812 1.1493-1.2074z"/><path d="m55.939 82.4197-.0232-1.1262c-.0464-1.217-.1161-2.4012-.2206-3.597.685 1.2771 1.7763 3.2043 2.9024 4.6671.3367.4431.7314.6501 1.1262.6269.592-.0116 1.0332-.5224 1.0448-1.2442.0232-.7662 0-3.8543-.058-5.768l-.0697-1.277c-.0464-.7759-.4876-1.1958-.9984-1.1842-.4644.0116-.952.4431-1.01 1.1842-.0465.5572-.0233 1.6718.0232 2.7863l.0696 1.5073c-.952-1.5306-2.229-3.6454-2.7398-4.3768-.418-.5321-.8591-.745-1.2539-.7314-.6037.0232-1.068.5688-1.0797 1.3254-.0116.6734.0117 1.8324.0465 3.0282.0464 1.3583.1393 3.3764.1973 4.0401.1161.8242.5573 1.219 1.103 1.1958.5224-.0097.9287-.4528.9403-1.0565z"/><path d="m64.0541 83.1046c2.171-.0696 3.1578-1.6001 3.0998-3.2738-.0581-1.7647-1.219-2.2639-2.229-2.5522-.8243-.2206-1.5557-.3503-1.5673-.9056-.0233-.3483.1973-.685.8359-.7082.4295-.0135.8126.1491 1.1261.3135.2786.149.5108.2322.7314.2322.5108-.0232.8243-.5244.801-1.07-.0348-1.2055-1.4279-1.7047-2.6121-1.6699-1.962.0677-3.0998 1.368-3.0417 3.1327.058 1.9388 1.5324 2.2174 2.5889 2.5212.6502.1741 1.1726.3928 1.1842.9404.0232.4992-.3367.8011-.8359.8359-.5108.0116-.9055-.2439-1.2306-.5322-.2902-.2457-.5573-.4314-.9056-.4198-.5572.0116-.9635.5572-.9403 1.1822.0464 1.3022 1.4628 2.022 2.9952 1.9736z"/><path d="m31.5805 64.9261v-.0232l-.1161-2.6142.534-.0464c.9752-.0232 1.4164.4644 1.4396 1.1977.0348.9501-.5921 1.4629-1.5324 1.4958zm.0696 3.6318-.0116-1.6814c.2322.0348.4992.0561.7314.0445 2.0317-.0677 3.2972-1.5073 3.2391-3.5874-.0697-1.8691-1.1958-3.2507-3.8892-3.1578-1.4744.0464-2.4032.4509-2.3916 1.5673l.0697 3.5873c.058 1.6273.1393 3.1714.1741 3.4733.0813.7662.5689 1.1493 1.0333 1.1261.5224-.0116 1.0332-.476 1.0448-1.3719z"/><path d="m38.1183 64.2043-.0928-2.2154c.2089-.0368.4411-.0716.6849-.0832.6037-.0233 1.3816.118 1.4164.9984.0232.8262-.6734 1.277-1.6718 1.3138zm.0929 4.2143-.0348-2.2174.4063.0116.476-.0464c.3251.8707.7314 1.9271 1.3003 2.7766.2902.4295.6501.5921.9984.5785.5108-.0116.9752-.416.952-1.1377-.0116-.2535-.0697-.5224-.2206-.8475-.209-.4431-.5224-1.0313-1.1726-2.0316.9056-.6134 1.4164-1.577 1.3816-2.7399-.0697-2.0201-1.5673-3.0185-3.9589-2.9392-1.3467.0367-2.3451.3967-2.4148 1.546-.0348.6501-.0232 2.1691.0232 3.5874.0465 1.2886.1161 2.8347.2206 3.7151.0581.6965.4992 1.0912 1.0101 1.0816.534-.0116 1.0332-.5244 1.0332-1.3371z"/><path d="m46.6845 69.5215c2.6586-.0909 4.1795-2.4825 4.0982-5.2107-.1045-2.8908-1.962-4.6903-4.2259-4.6091-2.3335.0697-4.2026 2.055-4.1098 5.1412.0929 2.8443 1.7879 4.7618 4.2375 4.6786zm-2.0432-4.7696c-.0581-1.5344.7662-2.5657 1.9271-2.6141 1.0797-.0367 1.9621.8591 2.0201 2.3684.0348 1.3602-.6385 2.5541-1.9388 2.6005-1.2306.0348-1.9736-.9752-2.0084-2.3548z"/><path d="m54.1265 69.0475c3.1346-.0929 4.4813-2.3567 4.3884-5.1547-.0812-2.496-1.7414-4.4696-4.667-4.3787-.7662.0252-1.3235.1064-1.7414.2225-.5341.1258-.9985.5109-1.0101 1.4145-.0116.8939.0232 2.5192.0697 3.8891.0464 1.3138.1045 2.3452.1509 2.7283.1045.7546.4528 1.1629 1.0913 1.2422.3251.0464.9056.0716 1.7182.0368zm-.743-2.2174-.058-2.7534-.1045-2.2059.7778-.058c1.5093-.0465 2.3103.9055 2.3452 2.2058.058 1.697-.8824 2.7766-2.4729 2.823z"/><path d="m62.3818 68.9662c2.4264-.0813 3.2739-1.9504 3.39-4.4484.0232-.5108.0232-.9384.0116-1.3912-.0349-.9752-.151-1.9272-.2787-2.589-.1741-.8378-.6849-1.2886-1.2074-1.277-.4876.0232-.9519.4992-.9171 1.4396.0232.8127.2322 2.0529.2786 3.2951.0465 1.6138-.3715 2.5329-1.3003 2.5541-.9519.0349-1.3118-.8474-1.3583-2.5096-.0464-1.1609 0-2.5753-.0232-3.3183-.0232-.7895-.534-1.1842-1.0448-1.1726-.4877.0252-.9636.4063-1.0565 1.1261-.0697.5341-.1045 1.7395-.0697 2.9721.0349.9055.1045 1.8575.267 2.4709.4644 2.0355 1.8111 2.9043 3.3088 2.8482z"/><path d="m68.4998 67.3854c-.0232-1.3332-.0464-2.796-.1045-4.5606-.0464-1.1958-.0812-2.173-.1393-2.8231-.0813-.6385-.5224-.9268-.9868-.9152-.4528.0116-.952.3483-.9984 1.0893-.0465.8824-.0465 2.6587.0116 4.4349.0464 1.2887.1045 2.3568.2206 3.0766.0928.6385.4992.9984.9752.9752.5108-.0097 1.0216-.476 1.0216-1.2771z"/><path d="m72.981 67.1784-.0348-1.6602c-.0348-1.426-.1161-3.0398-.1858-4.075l1.219-.1044c.7198-.0813 1.103-.6502 1.0913-1.2423-.0232-.5456-.4179-1.0913-1.2074-1.1706-.3598-.0484-1.0448-.0484-1.8227-.0252-.9752.0368-2.0781.1162-2.7863.2555-.592.118-.9171.7198-.8939 1.2654.0232.5805.3831 1.1262 1.1726 1.1707l1.0216-.0117h.1277c.0116 1.0449.0116 2.3587.0581 3.5409.0348 1.1707.0929 2.1246.1625 2.4729.1277.685.6501.9868 1.0797.9752.6037-.0232 1.01-.5785.9984-1.3912z"/></g><path d="m25.1158 26.3107c2.8211-1.1494 5.677-2.1807 8.5562-3.1675 2.6006-.8726 5.2243-1.6602 7.8713-2.4032 1.4976-.4199 3.7615-1.0584 3.39-3.0417-.2438-1.2441-.952-2.4264-1.4628-3.5525l-1.4512-3.3668c-1.0681-2.49607-2.0665-5.05984-3.2971-7.46302-.2787-.52436-.5341-.94039-1.161-.98683-.4992-.03676-1.0216.14904-1.5208.26513l-3.7383 1.10287c-2.6238.81267-5.2011 1.69693-7.7436 2.63537-4.3072 1.57696-8.5446 3.36486-12.7241 5.22428.6153 1.2655 1.1842 2.5425 1.637 3.866.592 1.7763 1.219 3.5294 1.753 5.294.8823 2.9469 1.7531 5.9209 2.6702 8.8445 2.38-1.1377 4.7483-2.2638 7.2212-3.2506z" fill="#fff"/><path d="m26.7976 26.7287c1.5325-2.3219 1.01-5.1199.1045-7.5579-.9288-2.5425-1.962-5.0598-2.9372-7.5926-.8475-2.20779-2.3452-4.52775-4.9922-4.55097-1.7646-.02322-3.1113 1.0797-3.8427 2.55412-.267-.15092-.6037-.08319-.8243.18577-1.6253 1.96198-1.2538 5.32878-.9055 7.67198.3599 2.3916.9287 4.9476 2.0084 7.1186 1.0565 2.1013 2.856 3.8195 5.1779 4.3536 2.3335.5359 4.8412-.1026 6.2111-2.1826z" fill="#005aa6"/><path d="m44.1539 20.506c1.4628-1.8208.6849-4.015.0464-5.9906-.8011-2.438-1.6137-4.87598-2.5077-7.27916-.7778-2.05682-1.5092-4.609-3.7034-5.5726-1.486-.66174-3.123-.31343-4.1446.69661-.2554-.02322-.4992.05606-.6502.3018-2.4264 3.87759-.9752 8.63565.9056 12.43385.9287 1.8924 2.0317 4.1079 3.6338 5.5242 1.7995 1.5944 4.7831 1.9176 6.4201-.1141z" fill="#e3000b"/><path d="m27.9235 59.5741c.0464-1.7762-1.3699-4.8412-1.9852-6.4549-.5805-1.5112-1.161-3.0088-1.6834-4.5161-1.0913-3.0901-2.0665-6.2247-3.1694-9.2896-.8708-2.4032-1.6718-4.8528-2.4381-7.2792l-.7546-2.4729c-.9171-2.9256-1.7879-5.8976-2.6702-8.8445-.534-1.7647-1.1609-3.5177-1.753-5.294-.4528-1.3235-1.0217-2.6005-1.637-3.866l-.6269-1.3351c-.058-.0928-.1161-.1741-.1973-.2089-.2903-.13742-.6734.0599-.6966.3966-.0232.0445-.0232.0678-.0116.1161l.1973 1.6137c.1626 1.1378.3019 2.2523.5573 3.3901.3483 1.5769.7662 3.1694 1.1958 4.7367.8591 3.1926 1.8111 6.36 2.705 9.5546 1.7879 6.2363 3.3668 12.517 5.4101 18.6798l1.7878 5.3733c.6037 1.7202 1.5441 5.3423 2.8328 6.6658.9636.9617 2.8791.5534 2.9372-.9655z" fill="#e3000b"/><path d="m17.9161 32.3612.7314-.325c2.438-1.1029 4.9341-2.0665 7.4185-3.0766 2.7515-1.0913 5.561-2.1361 8.3821-3.0881 2.7167-.9074 5.4565-1.6621 8.1848-2.4863 2.1361-.6618 4.458-1.7183 5.0269-4.1195.3251-1.3351-.0464-2.6838-.5805-3.9124-.5688-1.3351-1.2074-2.647-1.8459-3.9473-1.3351-2.67214-2.647-5.35202-3.9008-8.05705-.5457-1.18224-1.0913-2.426381-2.3103-3.041688-1.1378-.52243-2.4032-.2902781-3.5758.044464-2.8211.801064-5.6074 1.708564-8.3705 2.672154-5.5261 1.90397-10.9246 4.19104-16.0676 6.98702-.2322.1064-.476.2457-.6966.4083-.5108.2554-1.03323.5321-1.52083.8243-.83589.4644-.22058 1.7414.67336 1.3447l1.03327-.4508c.4411-.1993.8823-.4063 1.3351-.5805 4.1794-1.85944 8.4169-3.6473 12.7241-5.23588 2.5425-.92683 5.1198-1.81306 7.7435-2.6238 1.2307-.36957 2.4961-.75457 3.7499-1.10286.4876-.1161 1.0101-.29996 1.5093-.26513.6269.0445.8823.46247 1.1609.98683 1.2306 2.40318 2.2291 4.96695 3.2971 7.46304l1.4512 3.3668c.5109 1.1261 1.2191 2.3083 1.4629 3.5525.3715 1.9833-1.8924 2.6121-3.39 3.0417-2.647.743-5.2708 1.5305-7.8713 2.4032-2.8792.9752-5.7352 2.0181-8.5563 3.1558-2.4728 1.0004-4.8412 2.1265-7.2211 3.2643l-1.0913.5243c-1.4861.7043-.3715 2.9566 1.1145 2.2735z" fill="#e3000b"/></g></svg>