<svg fill="none" height="91" viewBox="0 0 179 91" width="179" xmlns="http://www.w3.org/2000/svg"><path d="m51.0712 90.046c9.7301.3836 19.4436-.0369 29.1627-.4481 9.3557-.3984 18.7262-.5275 28.0611-1.4312 17.694-1.7188 35.445-2.9138 52.968-6.1154 4.161-.7617 8.443-.9185 12.434-2.499 2.049-.8096 3.993-1.7501 4.895-4.0185.23-.5809.321-.8225-.091-1.4496-1.663-2.5358-4.262-2.9636-6.895-3.3601-5.227-.7875-10.442.2951-15.687.1733-5.861-.1309-11.77.3597-17.649.7027-8.882.5145-17.727 1.4717-26.552 2.6391-15.1776 2.0102-30.3721 3.8876-45.5482 5.9291-9.3944 1.2633-18.7631 2.711-28.1428 4.0905-2.0931.3061-4.1937.6197-6.2685 1.0383-1.2559.2545-2.4675.8004-2.3827 2.3754.0848 1.5602 1.3463 1.9548 2.6077 2.154.9848.1586 1.9955.2103 2.9932.2139 5.3648.0148 10.7315.0056 16.0945.0056z" fill="#fff"/><path d="m149.677.00185728c.778.82621072 1.855.44261972 2.781.65286072 2.624.593842 3.386 2.150332 1.859 4.328352-1.728 2.46388-3.777 4.58657-6.294 6.35883-9.465 6.6521-20.255 10.5269-30.845 14.7501-18.1471 7.2368-36.3624 14.2927-54.4432 21.712-13.0939 5.3777-25.5055 12.1129-38.3321 17.9996-2.0323.9295-4.0462 1.8903-6.0804 2.8161-1.5178.6898-2.9544.332-3.7493-.9037-.7893-1.2171-.4979-2.6464.7967-3.7677 3.9651-3.4432 8.1515-6.5838 12.7325-9.1768 7.9412-4.4907 16.1609-8.5572 23.7739-13.5495 14.1304-9.2691 29.5591-15.8142 44.9049-22.588 11.74-5.1859 23.637-10.00305 35.501-14.89024 4.489-1.84975 9.304-2.48967 14.04-3.391496.242-.046106.456-.075631.524-.352264h2.831z" fill="#e3000b"/><path d="m.00170326 50.9355c1.08439674-.9829 1.14711674-2.4066 1.37026674-3.6662 2.11347-11.8547 5.81297-23.2409 9.95143-34.5054.8594-2.3367 1.9714-4.52385 3.3472-6.58385.3597-.53666.7525-1.06227 1.1951-1.52702 1.2725-1.33152 2.7442-2.45099 4.6659-1.64138 1.8239.76904 2.1448 2.55241 2.13 4.31733-.0184 2.06552-.3522 4.11812-1.0124 6.07112-3.209 9.5125-6.1192 19.143-10.56 28.1945-1.72993 3.5335-3.70323 6.9342-5.11222 10.6393-1.21165 3.1813-3.83598 3.1481-5.97712114.118z" fill="#e3000b"/><path d="m51.072 90.0458c-5.3648 0-10.7297.0092-16.0963-.0092-.9977-.0037-2.0102-.0572-2.9932-.2121-1.2614-.201-2.521-.5975-2.6077-2.1577-.0867-1.5749 1.1286-2.1209 2.3809-2.3735 2.0784-.4187 4.1753-.7303 6.2721-1.0383 9.3779-1.3795 18.7466-2.8272 28.141-4.0923 15.1761-2.036 30.3688-3.9153 45.5482-5.9255 8.823-1.1711 17.67-2.1246 26.552-2.6428 5.879-.3412 11.788-.8336 17.649-.699 5.245.1199 10.458-.9626 15.685-.1752 2.635.3984 5.232.8244 6.895 3.3602.412.6271.323.8687.093 1.4478-.902 2.2684-2.846 3.2089-4.895 4.0204-3.993 1.5804-8.275 1.7372-12.436 2.497-17.521 3.2034-35.274 4.4003-52.967 6.1154-9.334.9055-18.7026 1.0346-28.062 1.4311-9.7172.4187-19.4289.8373-29.159.4537z" fill="#f7a600"/></svg>