<svg fill="none" height="386" viewBox="0 0 313 386" width="313" xmlns="http://www.w3.org/2000/svg"><g clip-rule="evenodd" fill="#e3000b" fill-rule="evenodd"><path d="m22.6677 92.3727c.3241-.4763.4427-.9326.3698-1.4076-.0703-.4761-.2163-.9563-.4829-1.378-.2652-.4256-.6086-.854-.9602-1.2369l-1.035-.9099-1.2105-.9006-1.6449-1.1425-1.5682-1.1357c-.4985-.3607-.8048-.6517-1.0205-.878-.3009-.3353-.5527-.7317-.7887-1.1706-.2533-.4697-.4602-.922-.5649-1.3824-.1473-.4763-.2042-.9231-.1748-1.4127.0173-.439.1649-.9086.4295-1.361.1107-.2276.2801-.4112.4922-.5854l.602-.4233.6531-.4789c.2132-.165.3986-.3978.5852-.7051.4178-.6641.5874-1.3239.5353-1.9917-.0375-.7132-.4121-1.2238-1.0699-1.6242-.5639-.3566-1.1484-.5267-1.7234-.5147-.5747.0055-1.1414.1199-1.648.3516-.541.2475-1.0393.5815-1.494 1.0179-.4182.4389-.8154.9165-1.12729 1.4195-.63989 1.0551-.94168 2.0714-.85422 3.048.0753.95.31699 1.9622.76824 3.0329-.29916-.1913-.6819-.383-1.10571-.5173-.40438-.169-.84902-.2647-1.27667-.3233-.425-.0598-.84736-.0435-1.23991.0588-.38626.1091-.70554.3645-.94216.7236-.43126.6348-.61555 1.2627-.56084 1.8522.09562.6157.30404 1.1414.65074 1.668.34106.5003.7708.9632 1.31894 1.3624l1.4245 1.0599 2.18198 1.3633 2.2349 1.3103.8619.6224 1.2035.7942 1.4346.8366 1.5461.8563 1.5589.6318c.5288.1956 1.0097.3071 1.464.3469.4435.016.8734.0027 1.2475-.133.3765-.1304.6971-.3832.9298-.7438z"/><path d="m22.5696 67.4717c-.2704-.4312-.479-.8873-.6271-1.3711-.1465-.4878-.215-.9721-.1709-1.4361.0415-.4988.2872-.944.6548-1.37.2789-.3071.598-.4171.9929-.3105.3808.0902.7105.2364.955.4509.326.298.4927.6623.5185 1.1336.0273.4672-.0275.9296-.18 1.404l-.5976 1.4222-.6563 1.1846c-.3263-.2913-.6122-.6763-.8893-1.1076zm12.3808 7.888c.5419-.6199 1.0187-1.3894 1.3834-2.4113.3419-.9625.6062-1.9711.6801-3.0394.1204-1.0538.0386-2.0476-.1807-3.0146-.2304-.9259-.6633-1.6907-1.2926-2.2514-.4124-.327-.8509-.4561-1.3741-.3702-.555.1037-.9616.3647-1.3404.7664-.2968.3479-.5124.7859-.6528 1.294l-.3266 1.5853c-.0857.5549-.1715 1.1097-.3434 1.6289-.128.5351-.3935 1.0319-.7444 1.4143-.4835.5148-1.0344.8745-1.586 1.0582-.605.169-1.2109.0741-1.8137-.3486.7548-.8968 1.3295-1.9396 1.7443-3.0921.4157-1.1431.6464-2.2832.6798-3.4473.0176-1.1111-.1883-2.231-.5919-3.2736-.415-1.0601-1.0597-1.9825-1.9427-2.7634-.6759-.5753-1.3886-.9837-2.1957-1.1694-.7977-.1867-1.5739-.2396-2.3844-.1268-.7896.1001-1.5601.3806-2.3366.8076-.7546.4169-1.4457.9647-2.0398 1.6379-1.0914 1.1649-1.7073 2.4453-1.8597 3.8367-.1622 1.3699-.0704 2.728.3152 4.066.4295 1.3538 1.0159 2.6358 1.836 3.8469.8035 1.1892 1.6907 2.2194 2.6163 3.0134.8805.7754 1.9239 1.4046 3.101 1.9335 1.1878.5304 2.396.8655 3.6896.9723 1.2483.0949 2.4716-.0175 3.7258-.4116 1.2182-.3711 2.315-1.0947 3.234-2.1417z"/><path d="m48.4842 63.7213c.4207-.382.7828-.8057 1.1842-1.3161.3841-.4763.7055-.9894.9222-1.4937.2101-.5046.3168-.9978.3092-1.5107-.0143-.5131-.1769-.955-.5082-1.3557-.4983-.514-.9657-.8165-1.4877-.9797-.5109-.1389-1.0291.0229-1.5311.4715l-.8481.8355-.7988.8426c-.4533.3969-.886.5947-1.3413.5774-.4352.0194-.8563-.0887-1.2436-.2809-.3697-.161-.7228-.4439-1.046-.7405l-.7509-.8363-.8374-1.0254-.7395-1.0344-1.5517-2.0909-1.5893-2.3385 1.2132-1.4111c.4166-.5565.7367-1.0722 1.0323-1.6485.2605-.5669.4201-1.117.482-1.629.0658-.5105-.06-.9366-.3589-1.2737-.2418-.2914-.5759-.4393-.9649-.477-.3912-.0499-.7856-.0132-1.2155.1115-.412.1492-.8472.3482-1.2486.607l-1.1374.8503-.3121.2963-.626.6523c-.3214-.7027-.666-1.2836-.9548-1.7496-.266-.4306-.5674-.845-.919-1.2038-.2606-.3253-.5797-.6204-.9669-.8845-.3788-.2745-.7675-.4627-1.1588-.5844-.401-.1434-.7937-.1893-1.1855-.1539-.3902.0314-.7603.2007-1.0774.4927-.5644.4706-.8603 1.0536-.8801 1.7294-.0308.6807.114 1.3857.3686 2.1222.2668.7342.6577 1.4378 1.1302 2.14.4734.7115.935 1.3109 1.4006 1.8398-.4084.4089-.7922.8785-1.1763 1.4268-.3812.5403-.7339 1.071-.9697 1.62-.2605.5668-.4038 1.0736-.4331 1.5706-.0387.4981.0794.9212.3753 1.2303.4753.5571 1.0471.7432 1.7544.5995.6946-.1282 1.3383-.4977 1.9806-1.0496l.3729-.3209.6587-.5954 2.2123 3.0536c.6908.9422 1.4443 1.8557 2.2075 2.719.9883 1.1036 1.8761 2.0668 2.7386 2.888.8646.8333 1.7926 1.4023 2.7209 1.713.9444.274 1.9372.2578 3.0575-.0618 1.0773-.3489 2.314-1.14 3.7374-2.3433z"/><path d="m55.1986 51.4221c-.4408-.1767-.9257-.4426-1.4076-.8196-.4989-.3724-.9875-.826-1.4514-1.3638-.4887-.5231-.9087-1.0478-1.2359-1.5353l-.7827-1.4837c-.2837-.6202-.4836-1.2024-.6371-1.7727-.1698-.5992-.2429-1.1664-.2224-1.6602.027-.5002.1878-.8326.5129-1.061.3001-.2069.6831-.2327 1.1462-.0695.4193.1434.9042.4094 1.3514.7657.491.376.9586.8391 1.3883 1.3229l1.1369 1.471.9721 1.656c.325.6345.5662 1.2376.7183 1.8118.1673.5938.2657 1.1129.2248 1.5829-.0479.5097-.2139.8512-.5416 1.0807-.3288.2134-.7103.2352-1.1722.0748zm3.778 4.7596c1.1467-.7799 1.965-1.7183 2.4377-2.8737.4579-1.112.6515-2.3255.6097-3.5839-.053-1.2899-.295-2.6062-.7624-3.9321-.4623-1.3283-1.0133-2.5331-1.687-3.6884-.627-1.0671-1.3781-2.0741-2.3318-3.0615-.9537-.9941-2.0059-1.8236-3.1445-2.4278-1.1071-.6252-2.3027-.9744-3.5492-1.0481-1.2453-.0642-2.4499.2643-3.6214 1.059-1.1879.8485-2.0538 1.842-2.5251 3.0696-.4412 1.2173-.6438 2.5078-.588 3.8728.0781 1.3447.3802 2.7097.8727 4.0972.51 1.343 1.1226 2.5993 1.8699 3.6877.7048 1.0714 1.5383 2.0308 2.5219 2.9382.9536.9111 2.0144 1.594 3.1462 2.1283 1.0933.512 2.2488.7667 3.4012.8004 1.1955.0174 2.2999-.2886 3.3501-1.0377z"/><path d="m77.7058 44.3675c.7515-1.0988 1.2301-2.2956 1.4122-3.5397.1451-1.2738.0711-2.5937-.252-3.9527-.3136-1.3601-.792-2.648-1.3594-3.8886l-.7332-1.3611c-.3164-.6037-.6974-1.1878-1.1345-1.8062l-1.4112-1.8393c-.4963-.6012-1.037-1.1089-1.574-1.5352-.5367-.4331-1.0985-.745-1.6955-.8845-.5596-.1531-1.119-.1301-1.6656.1631-.3799.1738-.6863.4204-.9239.722-.225.3291-.3668.6933-.4726 1.0411-.0908.3808-.1.7641-.0592 1.1978.0285.3995.125.7645.31 1.0957l.2431.4509 1.8045 2.787c.6314.8821 1.1574 1.8489 1.6408 2.8252l.6374 1.5546c.2206.5777.35 1.1172.3934 1.6961.0558.5399-.0406 1.0696-.2592 1.5887-.2377.4846-.6499.8959-1.2794 1.1838-.5019.2296-.9315.2798-1.2996.1421-.3976-.1142-.7684-.3604-1.0976-.6622-.3125-.346-.6207-.6973-.8362-1.0877l-.5868-1.122c-.3481-.6657-.6418-1.4029-.8598-2.1214l-.7206-2.1552-.4488-1.6408c-.1375-.5425-.3472-1.0818-.5875-1.6072l-.6171-1.1149c-.246-.3764-.5597-.7252-.8891-1.0202-.3526-.2945-.7515-.4846-1.1473-.6096-.4213-.1-.8603-.0556-1.3623.174-.4991.2283-.8559.6942-1.0482 1.3443-.1937.654-.317 1.389-.3475 2.158-.0149.7885-.007 1.5465.1001 2.2792l.3351 1.7294c.2675 1.4942.7652 2.9198 1.4068 4.3227.5979 1.2267 1.3248 2.3977 2.1649 3.4869.8045 1.099 1.7549 1.9383 2.8245 2.62 1.1001.6677 2.2578 1.0362 3.582 1.1091 1.3369.1004 2.7394-.235 4.3034-.9503 1.5544-.7509 2.7279-1.6602 3.5099-2.7729z"/><path d="m87.4772 40.7231c.2666-.4111.4322-.8885.5042-1.3938.0721-.5052.1045-1.0309.0417-1.5805l-.2012-1.3604-.3666-1.4645-.5423-1.9368-.4969-1.8451c-.156-.5841-.2439-1.0194-.2373-1.3437-.0025-.4326.0332-.9213.1415-1.4431.1148-.4927.2628-.9941.487-1.4244.2148-.4581.4512-.8618.7737-1.2246.3216-.372.7377-.633 1.258-.8357l.8037-.1426.7539.0504.8375.0122c.2987-.0242.6226-.0599.9652-.2166.7553-.2779 1.3301-.6854 1.761-1.2456.4108-.5894.4684-1.2295.2085-1.9524-.2122-.6259-.58-1.1132-1.0283-1.4897-.4735-.365-.9947-.5989-1.5868-.7298-.5895-.1255-1.187-.18-1.8378-.1008-.6497.0818-1.2669.2196-1.8619.4211-1.2068.4395-2.1353 1.0826-2.7154 1.8909-.5829.8096-1.054 1.7897-1.3903 2.8882l-.5388-1.0967-.82-1.0419c-.3068-.332-.6359-.5509-1.0533-.7199-.3762-.1524-.7937-.1446-1.2271-.0171-.7667.2382-1.3404.6484-1.675 1.1613-.335.5195-.5339 1.086-.5977 1.6903-.0641.6109-.0028 1.2383.1103 1.9127l.4784 1.709c.228.8371.5252 1.649.8495 2.4389l.8849 2.4356.2799 1.0318.4334 1.3602.561 1.5651.7106 1.6349.7813 1.458c.2958.4848.6117.8513.9495 1.1627.3374.318.7026.5494 1.1146.6918.3601.1245.7707.1167 1.2081-.0095.5776-.1806 1.011-.4849 1.2793-.8999z"/><path d="m111.53 35.0996c.486-.6364.849-1.4463 1.08-2.3796.262-.9543.452-1.9827.596-3.1064.114-1.1067.192-2.2007.193-3.2187.017-1.0627.014-2.0057-.065-2.8373l-.178-1.9245-.56-2.8344c-.286-1.0442-.634-1.9765-1.147-2.8365-.506-.8599-1.199-1.5278-2.073-2.0022-.87-.4635-1.976-.5983-3.339-.3519-.757.1125-1.364.3133-1.914.5646-.541.2475-1.026.5427-1.428.8467-.42.3459-.798.7024-1.084 1.1035-.33.3713-.571.7884-.795 1.1514l-.491-.9072-.735-.9487c-.2912-.2773-.5938-.5193-.9325-.6682-.3201-.1907-.692-.2475-1.0534-.1991-.8254.1573-1.4239.5412-1.7636 1.1538-.3578.5808-.5767 1.285-.6111 2.0484-.0773.7596-.0725 1.5417.0575 2.32l.2833 1.8997.4982 2.7892.5051 2.7895.2995 1.7554.1745 1.2353c.0436.5073.1895 1.0882.3028 1.6805l.5004 1.8504c.2106.6179.4657 1.1755.7562 1.6534.2977.4712.653.8361 1.0472 1.1064.3929.2675.8639.3623 1.4009.2635.492-.1081.891-.2539 1.235-.528.293-.2808.539-.5804.764-.9502.206-.3143.358-.7309.429-1.1809.111-.4244.17-.902.154-1.3486.057-.4831.073-.9413.034-1.454l-.094-1.3956-.372-2.1625-.287-1.7278-.28-1.6377c-.04-.2452-.005-.602.079-1.0939l.426-1.5166.613-1.3785c.241-.4076.482-.6308.74-.6723.359-.054.652-.0046.879.162.266.1389.458.3947.585.6735.173.2949.287.6265.367.9669l.171.9799c.141.7199.215 1.4873.231 2.2642l.052 2.3226.036 2.2799c.041.7789.086 1.5455.23 2.2778l.226 1.175.512 1.4645c.229.5023.497.9074.838 1.2419.313.3474.716.4638 1.19.3935.678-.1063 1.282-.4995 1.717-1.1521z"/><path d="m129.924 32.3064c.875-.6994 1.605-1.4486 2.15-2.2625.57-.862.872-1.7148.83-2.5562.023-.5356-.206-.9557-.656-1.2784-.42-.3327-.902-.458-1.476-.4513-.484.0322-.961.1704-1.42.4204l-1.424.9172-1.473.8927c-.527.2808-1.045.4084-1.573.4272-.714.0207-1.363-.1375-1.895-.4527-.518-.2878-.863-.8045-.977-1.55 1.222-.1038 2.405-.3757 3.545-.8971 1.157-.4924 2.166-1.1434 3.036-1.9134.912-.7961 1.603-1.7134 2.117-2.7793.523-1.0235.777-2.1531.765-3.3535-.021-.8911-.205-1.7105-.612-2.4284-.371-.7306-.888-1.3549-1.501-1.8651-.649-.4908-1.378-.9117-2.227-1.1647-.844-.2488-1.709-.3813-2.613-.3466-1.632.0388-3.039.4894-4.197 1.3212-1.142.8647-2.126 1.9128-2.858 3.1548-.757 1.2034-1.329 2.5582-1.658 4.0212-.378 1.4454-.52 2.7965-.515 4.0633.013 1.2004.249 2.4081.666 3.6462.379 1.2521.972 2.3699 1.735 3.3768.77 1.0002 1.728 1.8412 2.867 2.4832 1.123.6131 2.416.9252 3.853.8663.827-.0326 1.738-.23 2.726-.682.991-.4167 1.932-.9569 2.785-1.6093zm-6.896-11.3067-1.343.3449c.041-.4306.088-.8977.239-1.4219.163-.4899.351-.9913.602-1.4449.269-.422.596-.7977 1.016-1.1424.402-.2936.873-.436 1.486-.4471.403-.0383.72.1559.916.4814.169.3683.273.6996.274 1.0444.014.4389-.148.8486-.5 1.1625-.297.3615-.711.6277-1.175.8762-.48.2196-.968.4064-1.515.5469z"/><path d="m150.929 33.9472c.474-.3335.749-.7157.784-1.2212.032-.3947-.064-.6906-.324-.9445-.271-.2558-.582-.4535-.955-.6161l-1.2-.3571-1.003-.1775c-1.101-.1395-2.194-.1691-3.329-.1329l-3.356.2822 1.092-1.1721 1.875-2.0567 2.298-2.4503 2.207-2.4784 1.737-1.9636.831-1.0962.201-.542.09-.5275c.076-.6376-.072-1.2128-.513-1.6904-.405-.491-.942-.9251-1.57-1.244-.64-.3438-1.315-.6011-2.023-.7705-.687-.2119-1.258-.327-1.77-.3898l-1.756-.1027c-.757-.0268-1.529-.0136-2.348.0544l-2.534.2927c-.87.1349-1.647.3073-2.348.5478-.754.2315-1.332.4958-1.768.8484-.48.3332-.746.7144-.803 1.1568-.027.3558.057.6904.305.9898.217.3171.48.5765.793.8434.323.2253.682.4442 1.087.5986.371.1637.706.2436 1.022.2822l1.436.0627 1.777-.0966 1.771-.1739 1.459-.1406-1.603 1.5258-2.193 2.0193-2.349 2.3198c-.798.7813-1.545 1.5727-2.22 2.3711-.661.7489-1.214 1.4915-1.681 2.1579-.43.6867-.686 1.2601-.748 1.778-.081.6402.173 1.1967.711 1.6336.534.4354 1.166.7856 1.917 1.0419.786.247 1.548.4646 2.348.5851l1.854.2445 1.765.1287 2.354.0229 2.562-.1591c.884-.0978 1.657-.2717 2.378-.4816.681-.198 1.264-.4648 1.74-.8023z"/><path d="m141.188 366.56c-.615.029-1.173-.039-1.647-.214-.289-.126-.526-.279-.679-.471-.181-.17-.213-.39-.097-.702.126-.292.373-.535.751-.711.382-.178.811-.314 1.292-.41.486-.094.968-.121 1.447-.078.449.045.835.1 1.123.224l.117.046.106.084-.726 2.106zm4.887 5.904c.39-.506.697-1.039.955-1.616l.625-1.412.963-2.604c.293-.92.558-1.831.775-2.782.228-.928.412-1.859.492-2.816.099-.932.1-1.847.004-2.754-.03-.637-.201-1.211-.463-1.775-.263-.563-.579-1.105-.994-1.565-.412-.466-.877-.897-1.404-1.248-.531-.372-1.058-.647-1.661-.887-.607-.247-1.339-.395-2.162-.469-.822-.074-1.637-.051-2.43.084-.791.143-1.489.398-2.134.768-.614.382-1.084.927-1.334 1.602-.188.447-.157.857.045 1.29.229.417.564.718 1.037.891.449.182.876.244 1.276.191l1.271-.17c.416-.092.857-.133 1.312-.154.455-.009.958.084 1.513.282.647.258 1.089.639 1.31 1.19.211.527.183 1.093-.081 1.736l-.099.281-.145.258c-.856-.22-1.851-.379-3.022-.488-1.156-.084-2.303-.073-3.438.1-1.141.166-2.151.472-3.071.97-.922.493-1.597 1.235-1.97 2.19-.231.565-.31 1.163-.27 1.824.01.659.175 1.294.426 1.903.259.629.589 1.195 1.06 1.7.419.487.956.86 1.603 1.119.881.343 1.824.525 2.854.538.995.025 1.944-.121 2.862-.419-.332.707-.367 1.412-.132 2.053.251.67.765 1.151 1.57 1.462.566.228 1.099.173 1.576-.077.483-.3.92-.698 1.281-1.196z"/><path d="m159.2 376.862c.789-.461 1.545-1.043 2.291-1.811 1.184-1.219 2.34-2.568 3.484-4.029l3.194-4.219c.535-.698.967-1.385 1.369-2.087.401-.672.689-1.321.833-1.899.139-.577.129-1.055-.039-1.488-.198-.425-.627-.674-1.264-.795-.696-.157-1.493.115-2.413.805-.919.684-1.833 1.521-2.768 2.542-.488.512-.938 1.014-1.34 1.556l-1.245 1.543-1.078 1.432-.909 1.227c-.203-.585-.294-1.147-.387-1.718l-.149-1.729-.094-1.823-.133-1.831-.249-1.717c-.11-.523-.261-1.004-.419-1.416-.152-.41-.344-.738-.604-.997-.23-.277-.538-.424-.919-.505-.941-.172-1.665-.029-2.134.446-.436.467-.792 1.113-1.015 1.953-.144.584-.261 1.215-.313 1.913l-.081 2.123.073 2.155.152 1.952.319 2.233c.167.945.392 1.872.7 2.82.303.952.655 1.786 1.127 2.499.451.753.993 1.174 1.662 1.277.807.173 1.595.03 2.349-.412z"/><path d="m183.623 380.799c.405-.422.707-.927.901-1.518.215-.609.353-1.245.422-1.876l.167-1.581.113-2.831c.027-.951 0-1.939-.061-2.92-.083-.971-.202-1.949-.412-2.888-.2-.943-.45-1.834-.825-2.702-.239-.584-.591-1.131-1.008-1.6-.426-.48-.914-.88-1.457-1.196-.538-.357-1.127-.621-1.743-.802-.631-.209-1.253-.322-1.873-.36-.687-.05-1.438-.008-2.255.177-.846.187-1.596.438-2.326.811-.73.372-1.32.816-1.823 1.384-.507.571-.792 1.24-.824 1.963-.042.487.124.913.456 1.259.325.349.771.514 1.283.536.461.058.898-.012 1.292-.166l1.164-.574 1.218-.535c.456-.18.975-.214 1.556-.183.729.058 1.272.305 1.633.782.367.428.542 1.018.495 1.71l-.039.284-.059.297c-.909.051-1.899.218-3.086.466-1.162.236-2.25.612-3.293 1.098-1.056.527-1.94 1.138-2.692 1.893-.751.747-1.152 1.677-1.234 2.719-.048.62.047 1.254.299 1.865.229.637.566 1.215 1.011 1.741.421.548.95.968 1.525 1.334.587.33 1.216.541 1.909.588.971.084 1.952-.041 2.919-.323.97-.286 1.875-.707 2.675-1.278-.089.811.083 1.466.527 2.064.418.537 1.076.873 1.942.938.623.038 1.129-.168 1.503-.576zm-5.665-5.795c-.605.216-1.164.302-1.675.276-.317-.021-.554-.112-.782-.24-.227-.127-.329-.346-.307-.659.009-.342.165-.648.496-.939.293-.302.679-.544 1.136-.792.439-.205.889-.379 1.363-.502.45-.111.832-.153 1.146-.131l.144.031.145.031-.07 2.277z"/><path d="m201.523 380.042c.479-.565.867-1.232 1.18-2.067.302-.864.572-1.784.75-2.768l.451-2.943.157-2.589-.035-1.748c-.044-.767-.143-1.653-.305-2.615-.136-.972-.407-1.853-.789-2.674-.383-.823-.974-1.479-1.694-1.971-.762-.503-1.737-.711-3.016-.598-.642.06-1.224.157-1.725.354-.518.174-.97.418-1.375.68-.405.256-.755.559-1.068.873l-.786 1.025-.378-.898c-.143-.309-.36-.62-.598-.891-.213-.319-.489-.539-.75-.719-.295-.181-.62-.271-.959-.253-.771.09-1.335.386-1.694.895-.361.511-.569 1.124-.706 1.81-.122.717-.161 1.388-.123 2.134l.106 1.742.238 2.549.265 2.609.112 1.6.049 1.159.156 1.542.311 1.721c.124.559.336 1.086.548 1.543.212.454.522.826.854 1.087.343.289.749.408 1.255.349.434-.034.807-.14 1.126-.356.294-.201.547-.49.757-.799.209-.298.389-.666.503-1.027.124-.4.21-.822.234-1.217l.137-1.298.024-1.294-.154-1.998-.149-1.592-.12-1.531c-.023-.197.04-.535.178-.984l.477-1.322.7-1.189c.229-.348.451-.558.688-.562.306-.036.585.036.81.212.202.141.35.387.44.653.131.281.212.595.253.923l.095.884.026 2.095-.14 2.099-.145 2.107.015 2.066.149 1.066.331 1.404c.171.439.396.85.652 1.18.261.327.609.474 1.026.456.647-.063 1.216-.361 1.656-.914z"/><path d="m220.392 376.898c.394-.316.702-.67.922-1.071.217-.414.281-.854.168-1.31-.117-.624-.382-1.115-.744-1.462-.363-.343-.816-.436-1.435-.319l-1.039.318-.967.308c-.557.121-.987.056-1.345-.12-.355-.179-.647-.446-.874-.786-.21-.315-.377-.674-.495-1.062l-.266-1.009-.19-1.198-.135-1.169-.309-2.339-.266-2.603c.507-.137 1.046-.354 1.582-.604.563-.229 1.067-.53 1.56-.859.444-.342.821-.696 1.08-1.078.254-.399.351-.781.263-1.183-.062-.345-.258-.63-.527-.848-.301-.197-.634-.347-1.032-.399-.386-.095-.843-.126-1.268-.094l-1.264.176-.375.075-.784.269c.027-.733.056-1.325-.002-1.81l-.168-1.383-.397-1.147c-.182-.391-.398-.7-.669-.987-.265-.286-.561-.485-.9-.635-.343-.153-.694-.186-1.066-.112-.657.125-1.13.484-1.457 1.016-.332.525-.528 1.126-.625 1.861-.11.696-.132 1.459-.047 2.227.054.764.175 1.461.309 2.107-.512.141-1.027.345-1.553.59-.556.259-1.034.548-1.48.888-.429.305-.77.672-1.026 1.06-.258.391-.328.767-.238 1.171.135.645.524 1.048 1.121 1.246.627.184 1.289.216 2.063.067l.443-.14.77-.163c.091 1.223.258 2.371.424 3.454l.563 3.175.932 3.522c.314 1.047.786 1.914 1.404 2.579.628.629 1.443 1.069 2.457 1.281 1.013.209 2.339.167 3.999-.194l1.495-.491c.538-.244.981-.526 1.388-.815z"/><path d="m240.472 367.955c.54-.852.868-1.735.95-2.635.345.531.854.897 1.459 1.183.63.269 1.269.272 1.927-.035.497-.231.794-.537.927-.964.138-.432.166-.875.113-1.351-.094-.488-.217-.964-.394-1.414l-.491-1.201c-.517-1.187-1.106-2.375-1.697-3.498-.601-1.15-1.178-2.318-1.711-3.532-.658-1.492-1.25-2.979-1.785-4.496-.541-1.513-1.132-3.004-1.792-4.498l-.69-1.406c-.274-.505-.569-.93-.934-1.292-.348-.371-.755-.614-1.215-.735-.474-.147-1.029-.051-1.651.206-.58.271-.945.635-1.109 1.079-.148.472-.221.971-.14 1.495.076.527.196 1.077.372 1.596l.528 1.414 1.871 4.953c-.651-.46-1.418-.738-2.311-.852-.919-.102-1.742.011-2.525.343-.719.335-1.285.769-1.698 1.323-.425.534-.705 1.162-.887 1.847-.156.673-.224 1.399-.203 2.157.02.756.099 1.514.243 2.25.141.735.307 1.455.558 2.133.214.671.42 1.267.666 1.794.316.68.798 1.491 1.46 2.339.68.887 1.419 1.67 2.307 2.361.845.668 1.753 1.178 2.749 1.515.981.308 1.958.248 2.929-.204.886-.384 1.634-1.02 2.174-1.875zm-4.912-3.404c-.353-.269-.725-.628-1.051-1.041-.337-.444-.652-.897-.895-1.349l-.554-1.043-.348-.965c-.149-.396-.217-.764-.251-1.119-.041-.381.01-.702.155-1.035.145-.338.4-.589.785-.768.334-.156.714-.2 1.107-.145.346.03.744.151 1.119.312.374.155.71.361 1.01.589l.848.668.61 1.381.636 1.366.102.218-.325.89-.458.875-.583.769c-.223.24-.506.436-.781.564-.359.173-.721.109-1.126-.167z"/><path d="m244.246 346.39c.139-.523.197-1.121.173-1.777-.017-.635-.106-1.267-.235-1.913-.111-.625-.261-1.092-.477-1.411-.454-.824-1.096-1.23-1.872-1.261-.787-.06-1.565.13-2.323.587-.655.374-1.1.904-1.316 1.572-.222.633-.116 1.295.251 1.937.259.484.688.814 1.255.98.528.174 1.056.113 1.536-.185.171-.08.317-.22.475-.4l.346-.513c.108.232.186.478.195.722l.014.846.057.858c.022.271.116.551.267.797.237.423.578.512.996.279.313-.208.533-.565.658-1.118z"/><path d="m264.919 356.186c1.114-.835 1.884-1.775 2.348-2.853.418-1.089.614-2.212.565-3.395-.08-1.168-.352-2.35-.799-3.554-.497-1.214-1.038-2.302-1.728-3.316-.576-.94-1.388-1.835-2.313-2.676-.943-.873-1.996-1.515-3.105-1.993-1.086-.496-2.266-.738-3.509-.71-1.204.01-2.375.409-3.517 1.257-1.169.858-1.99 1.858-2.444 3.032-.426 1.16-.619 2.351-.528 3.618.09 1.27.411 2.496.92 3.738.508 1.24 1.121 2.333 1.869 3.327.68.919 1.525 1.737 2.492 2.519.963.76 2.016 1.335 3.122 1.718 1.108.379 2.218.547 3.367.493 1.159-.059 2.248-.466 3.26-1.205zm-3.764-4.167c-.438-.106-.928-.326-1.408-.65-.496-.293-.961-.697-1.462-1.148-.45-.445-.883-.901-1.194-1.338-.27-.355-.54-.78-.793-1.323-.283-.519-.484-1.04-.665-1.577-.153-.553-.249-1.056-.238-1.508.028-.461.193-.812.488-1.025.309-.245.69-.282 1.126-.178.445.11.896.305 1.369.641.463.299.919.668 1.376 1.113.411.429.814.826 1.109 1.236l.989 1.5c.298.558.546 1.091.717 1.629.181.537.262 1.023.216 1.452-.011.452-.208.788-.517 1.032-.292.206-.656.272-1.113.144z"/><path d="m278.764 342.628c1.034-1.046 1.685-2.116 1.953-3.249.277-1.1.305-2.21.045-3.3-.235-1.127-.696-2.182-1.339-3.219-.682-1.055-1.444-2.009-2.295-2.882l-.983-.947c-.409-.413-.877-.796-1.409-1.185l-1.679-1.162c-.582-.362-1.165-.655-1.709-.87-.557-.175-1.084-.27-1.615-.256-.496.032-.912.226-1.254.583-.261.261-.421.528-.511.877-.097.347-.11.65-.075 1.003.066.342.148.668.302.999.14.301.337.579.585.834l.331.313 2.262 1.79c.752.585 1.465 1.227 2.144 1.943l.982 1.084c.337.446.595.862.812 1.326.207.445.303.93.263 1.386-.033.484-.233.943-.648 1.344-.315.342-.631.489-.982.49-.349-.006-.708-.102-1.079-.27-.334-.176-.672-.424-.981-.677l-.803-.771c-.474-.474-.903-.985-1.314-1.524l-1.226-1.607-.835-1.25c-.288-.407-.592-.795-.954-1.162l-.827-.755c-.31-.255-.659-.462-1.024-.629-.367-.161-.74-.221-1.079-.193-.366.028-.703.185-1.001.499-.348.357-.477.822-.461 1.413.043.622.163 1.229.381 1.902.218.668.473 1.283.781 1.877l.753 1.353c.696 1.149 1.505 2.211 2.435 3.183.851.873 1.762 1.659 2.743 2.335.986.686 1.999 1.149 3.038 1.399 1.049.281 2.117.251 3.19-.047 1.055-.258 2.1-.946 3.083-1.978z"/><path d="m291.724 328.1c.487-.661.664-1.417.562-2.277-.103-.855-.365-1.775-.776-2.726-.675-1.532-1.477-3.103-2.385-4.695l-2.722-4.509c-.443-.732-.928-1.415-1.408-2.031-.496-.639-.955-1.128-1.449-1.468-.477-.384-.952-.569-1.438-.542-.47-.01-.878.243-1.257.785-.426.572-.514 1.382-.239 2.468.269 1.073.712 2.244 1.293 3.491l.904 1.79.997 1.721.902 1.524.771 1.285c-.601-.085-1.208-.173-1.756-.358l-1.708-.549-1.773-.614-1.803-.603-1.729-.441c-.548-.11-1.043-.182-1.474-.18-.47-.016-.874.038-1.226.134-.337.124-.639.33-.83.621-.554.795-.73 1.483-.461 2.061.255.617.736 1.165 1.439 1.678.504.368 1.08.744 1.689 1.06l1.966.897 2.069.747 1.946.64c.519.192 1.27.379 2.234.598.935.245 1.937.407 2.95.512 1.002.1 1.958.094 2.821-.041.881-.104 1.523-.433 1.891-.978z"/><path d="m301.081 314.822c.243-.444.348-.896.252-1.318-.109-.452-.316-.823-.592-1.2-.276-.374-.615-.715-1-1.036l-1.074-.736-1.183-.685-1.65-.875-1.553-.876c-.474-.282-.819-.491-1.021-.702l-.88-.994c-.246-.385-.466-.785-.63-1.209-.149-.398-.242-.821-.263-1.249-.028-.422.077-.873.291-1.307.089-.242.241-.443.413-.591l.554-.462.558-.49c.196-.192.356-.438.493-.73.365-.637.441-1.281.375-1.883-.118-.616-.499-1.072-1.159-1.364-.562-.241-1.103-.359-1.661-.3-.562.061-1.07.232-1.526.509-.488.293-.921.631-1.301 1.077-.377.447-.71.933-.969 1.417-.517 1.045-.697 2.001-.552 2.904.129.874.444 1.762.963 2.665-.303-.131-.672-.259-1.088-.331-.399-.121-.803-.161-1.218-.171-.42 0-.811.046-1.156.207-.356.13-.656.373-.837.72-.382.678-.487 1.268-.383 1.787.119.545.375 1.023.744 1.454.381.429.818.79 1.325 1.122l1.457.829 2.167.998 2.216.973.874.462 1.19.617 1.404.65 1.521.59 1.502.406c.512.131.987.179 1.43.171.41-.02.787-.098 1.159-.271.339-.155.602-.41.808-.778z"/><path d="m307.438 299.672c.211-.566.205-1.101.002-1.607-.228-.491-.557-.977-1.077-1.436-.481-.447-1.072-.838-1.731-1.235l-2.028-1.064-1.906-.816-1.423-.573-.905-.416-.923-.374-1.671-.595c-.745-.285-1.517-.491-2.338-.641-.822-.159-1.573-.173-2.279-.083-.672.085-1.166.413-1.394 1.019-.251.551-.258 1.123-.028 1.618.218.538.58 1.032 1.108 1.496.513.456 1.105.92 1.804 1.331.658.394 1.347.777 2.039 1.088l1.993.849 1.416.571 1.165.463 1.744.596 1.999.578c.694.176 1.353.274 1.938.292.619.019 1.172-.037 1.602-.205.448-.141.757-.426.893-.856zm-20.695-7.086c.339-.22.614-.584.793-1.005l.212-.939c.016-.332.022-.675-.065-1.004-.055-.344-.18-.612-.337-.878-.161-.263-.387-.456-.696-.546-.458-.192-.846-.141-1.198.123-.311.281-.557.629-.739 1.045-.1.281-.196.597-.235.947-.057.328-.037.656.008.966.073.297.203.577.358.839.153.257.405.444.734.557.432.204.815.162 1.165-.105z"/><path d="m311.16 290.613c.313-.21.526-.558.618-.942.151-.487.132-.959-.064-1.381-.184-.395-.452-.751-.823-1.102-.373-.307-.773-.565-1.221-.8l-1.16-.531-1.343-.473-1.793-.577-1.712-.544-1.162-.524c-.345-.219-.706-.498-1.032-.83-.366-.347-.658-.692-.917-1.085-.236-.371-.419-.766-.523-1.202-.128-.424-.134-.868-.012-1.339.046-.256.138-.511.261-.672l.414-.573.456-.62c.146-.208.232-.449.308-.801.187-.701.152-1.349-.094-1.949-.232-.582-.719-.976-1.408-1.136-.608-.131-1.155-.146-1.68.028-.517.134-.993.426-1.372.779-.394.384-.734.822-1.005 1.329-.281.505-.501 1.051-.62 1.588-.287 1.137-.229 2.138.099 2.99.326.843.855 1.694 1.574 2.497-.348-.078-.717-.146-1.129-.161l-1.261.07c-.373.073-.749.215-1.057.428-.309.208-.547.489-.641.88-.211.713-.181 1.359.056 1.866.235.505.576.936 1.045 1.305.439.343.957.65 1.532.866l1.601.532 2.317.6 2.359.56.958.305 1.291.36 1.504.401 1.608.322 1.589.124c.511-.003.967-.042 1.368-.123.428-.099.806-.241 1.071-.465z"/></g></svg>