<svg enable-background="new 0 0 350 370" height="370" viewBox="0 0 350 370" width="350" xmlns="http://www.w3.org/2000/svg"><g fill="#e3000b"><path d="m50.44 80.765c.325-.478.443-.934.371-1.409-.071-.477-.217-.957-.483-1.379-.265-.426-.61-.855-.96-1.238l-1.036-.911-1.211-.9-1.646-1.144-1.569-1.136c-.499-.361-.805-.653-1.021-.878-.301-.336-.554-.733-.79-1.171-.253-.47-.46-.923-.565-1.383-.147-.478-.204-.926-.175-1.414.018-.44.165-.91.431-1.362.111-.228.28-.411.492-.586l.603-.423.654-.48c.213-.165.399-.397.585-.706.418-.664.588-1.324.536-1.992-.038-.713-.412-1.225-1.071-1.625-.564-.356-1.149-.527-1.725-.516-.574.006-1.142.12-1.649.353-.542.249-1.04.583-1.495 1.019-.418.439-.816.917-1.128 1.419-.64 1.058-.942 2.074-.854 3.05.075.951.318 1.965.769 3.035-.299-.19-.682-.383-1.106-.517-.404-.169-.849-.266-1.277-.324-.425-.06-.849-.044-1.241.059-.386.11-.706.365-.942.724-.432.635-.616 1.264-.562 1.853.096.617.305 1.143.652 1.669.341.501.771.964 1.32 1.364l1.425 1.06 2.184 1.364 2.236 1.312.863.623 1.203.794 1.436.837 1.547.857 1.56.632c.53.195 1.011.308 1.465.348.443.015.873.002 1.248-.134.373-.131.694-.384.926-.744z"/><path d="m50.343 55.848c-.271-.431-.479-.888-.627-1.372-.147-.488-.215-.973-.171-1.438.041-.498.287-.945.656-1.371.279-.308.598-.417.993-.311.38.091.71.237.956.452.327.298.493.663.519 1.133.027.469-.027.932-.18 1.406l-.598 1.423-.657 1.186c-.327-.291-.613-.677-.891-1.108zm12.389 7.893c.542-.621 1.019-1.391 1.384-2.414.342-.962.606-1.972.681-3.04.121-1.055.039-2.05-.181-3.018-.23-.925-.664-1.69-1.293-2.252-.414-.327-.852-.456-1.375-.37-.556.104-.962.365-1.342.767-.296.348-.512.787-.652 1.295l-.327 1.587c-.086.554-.172 1.109-.343 1.629-.128.537-.395 1.033-.746 1.416-.483.515-1.035.875-1.587 1.058-.605.169-1.212.074-1.815-.349.756-.897 1.331-1.941 1.747-3.094.415-1.145.646-2.285.679-3.45.018-1.112-.188-2.233-.591-3.276-.416-1.061-1.061-1.983-1.944-2.765-.676-.576-1.39-.985-2.197-1.169-.798-.188-1.575-.241-2.386-.127-.791.1-1.561.38-2.338.807-.754.417-1.447.965-2.042 1.64-1.091 1.166-1.708 2.446-1.86 3.839-.163 1.371-.071 2.729.315 4.068.43 1.355 1.017 2.639 1.837 3.85.804 1.189 1.692 2.22 2.618 3.015.881.777 1.925 1.406 3.103 1.935 1.189.53 2.398.866 3.693.973 1.249.095 2.472-.018 3.728-.413 1.217-.371 2.315-1.095 3.234-2.142z"/><path d="m76.274 52.094c.421-.382.784-.805 1.185-1.317.384-.476.706-.989.923-1.494.21-.505.316-.998.309-1.512-.015-.513-.177-.956-.508-1.356-.499-.515-.967-.817-1.489-.981-.511-.139-1.03.023-1.532.473l-.849.835-.799.843c-.453.397-.887.595-1.341.578-.437.02-.858-.088-1.245-.28-.371-.161-.724-.445-1.046-.742l-.751-.836-.838-1.026-.74-1.035-1.553-2.092-1.591-2.34 1.214-1.412c.417-.557.738-1.073 1.034-1.649.26-.568.42-1.118.482-1.63.066-.511-.06-.938-.359-1.275-.243-.291-.577-.438-.966-.477-.391-.05-.787-.013-1.217.112-.413.148-.848.348-1.249.607l-1.138.851-.313.296-.626.653c-.321-.704-.667-1.285-.956-1.751-.266-.431-.568-.845-.919-1.205-.261-.324-.58-.62-.967-.884-.379-.274-.769-.463-1.16-.585-.401-.143-.794-.188-1.187-.154-.39.032-.761.201-1.078.494-.565.472-.86 1.055-.88 1.73-.031.681.114 1.387.368 2.125.268.734.659 1.438 1.132 2.141.473.711.936 1.312 1.401 1.84-.409.409-.792.879-1.177 1.428-.381.542-.734 1.072-.97 1.621-.26.568-.404 1.075-.434 1.572-.039.499.079.921.375 1.231.476.557 1.047.743 1.756.6.695-.128 1.339-.498 1.981-1.05l.373-.321.66-.595 2.213 3.055c.691.944 1.446 1.857 2.209 2.72.988 1.105 1.877 2.069 2.739 2.891.866.834 1.795 1.403 2.723 1.714.945.274 1.938.258 3.06-.062 1.079-.352 2.317-1.143 3.741-2.349z"/><path d="m82.994 39.788c-.442-.177-.927-.443-1.409-.82-.5-.373-.987-.828-1.452-1.365-.489-.522-.909-1.048-1.237-1.536l-.783-1.484c-.284-.621-.484-1.204-.637-1.774-.17-.599-.244-1.167-.223-1.66.027-.5.187-.833.513-1.063.301-.207.685-.232 1.147-.07.419.145.905.411 1.352.767.491.376.959.839 1.389 1.324l1.138 1.472.973 1.657c.325.634.567 1.237.719 1.813.167.593.265 1.114.225 1.584-.048.509-.214.852-.542 1.081-.33.213-.711.234-1.173.074zm3.78 4.763c1.146-.781 1.966-1.72 2.438-2.875.458-1.113.652-2.327.61-3.586-.053-1.291-.295-2.607-.762-3.934-.464-1.329-1.015-2.535-1.688-3.691-.627-1.068-1.378-2.077-2.333-3.063-.955-.995-2.007-1.825-3.147-2.43-1.107-.625-2.304-.975-3.551-1.049-1.246-.063-2.452.266-3.623 1.061-1.189.849-2.056 1.843-2.527 3.071-.442 1.218-.645 2.51-.588 3.875.078 1.346.38 2.71.873 4.1.511 1.344 1.124 2.601 1.871 3.689.706 1.073 1.54 2.033 2.524 2.941.955.912 2.016 1.595 3.148 2.129 1.094.512 2.25.767 3.404.8 1.195.017 2.3-.289 3.351-1.038z"/><path d="m105.514 32.73c.752-1.101 1.232-2.298 1.414-3.542.145-1.275.071-2.596-.252-3.956-.315-1.361-.792-2.65-1.361-3.892l-.733-1.361c-.316-.604-.697-1.188-1.134-1.808l-1.413-1.84c-.497-.601-1.038-1.109-1.575-1.536-.536-.433-1.099-.745-1.696-.885-.56-.153-1.12-.13-1.667.163-.38.174-.687.421-.924.722-.225.33-.366.695-.473 1.042-.091.382-.1.766-.059 1.199.028.401.125.766.31 1.097l.244.451 1.805 2.789c.633.882 1.159 1.851 1.643 2.827l.637 1.556c.221.578.351 1.118.395 1.697.056.541-.041 1.07-.259 1.589-.238.486-.65.897-1.281 1.186-.502.229-.932.279-1.301.142-.397-.114-.769-.361-1.097-.663-.313-.346-.622-.698-.836-1.089l-.588-1.123c-.348-.666-.642-1.403-.86-2.123l-.722-2.157-.448-1.642c-.138-.542-.348-1.083-.588-1.608l-.617-1.115c-.247-.377-.561-.726-.89-1.021-.353-.295-.751-.484-1.147-.609-.422-.101-.861-.056-1.364.174-.499.228-.856.694-1.048 1.345-.194.654-.318 1.389-.348 2.159-.015.79-.007 1.548.1 2.281l.335 1.731c.267 1.495.766 2.921 1.408 4.326.598 1.227 1.325 2.398 2.166 3.489.805 1.1 1.756 1.939 2.826 2.622 1.101.667 2.259 1.037 3.584 1.11 1.338.1 2.742-.236 4.306-.952 1.552-.753 2.725-1.663 3.508-2.775z"/><path d="m115.292 29.082c.267-.411.434-.888.505-1.395.072-.505.104-1.032.041-1.581l-.201-1.362-.368-1.464-.542-1.939-.497-1.846c-.157-.584-.245-1.02-.237-1.345-.003-.432.033-.921.141-1.444.115-.494.263-.995.487-1.425.215-.458.452-.863.774-1.226.322-.372.738-.634 1.259-.835l.805-.144.754.05.837.013c.299-.024.624-.06.966-.216.756-.278 1.332-.687 1.762-1.247.411-.59.469-1.23.209-1.953-.212-.626-.581-1.114-1.028-1.491-.475-.366-.996-.599-1.588-.731-.59-.125-1.188-.18-1.839-.1-.65.081-1.268.219-1.863.421-1.208.44-2.136 1.083-2.717 1.893-.583.809-1.055 1.789-1.392 2.89l-.539-1.098-.82-1.042c-.307-.333-.636-.552-1.055-.721-.376-.151-.793-.144-1.228-.017-.768.238-1.34.649-1.676 1.162-.335.52-.534 1.087-.598 1.691-.065.612-.003 1.239.111 1.914l.478 1.71c.229.838.526 1.651.851 2.441l.886 2.438.28 1.033.433 1.361.562 1.565.71 1.636.782 1.459c.296.486.612.852.95 1.164.338.319.704.549 1.116.693.36.124.771.116 1.208-.01.579-.183 1.013-.487 1.281-.902z"/><path d="m139.361 23.455c.486-.637.849-1.448 1.08-2.381.262-.955.453-1.985.597-3.108.114-1.107.192-2.202.193-3.221.017-1.063.014-2.007-.065-2.838l-.178-1.926-.561-2.836c-.286-1.044-.635-1.979-1.147-2.838-.507-.861-1.2-1.529-2.075-2.003-.871-.463-1.978-.599-3.342-.353-.756.113-1.364.313-1.914.565-.542.248-1.026.542-1.429.846-.42.346-.798.704-1.084 1.105-.33.371-.571.789-.795 1.151l-.491-.907-.736-.95c-.291-.277-.594-.52-.932-.668-.322-.19-.694-.247-1.055-.199-.826.157-1.424.542-1.765 1.155-.357.582-.576 1.285-.611 2.049-.077.76-.072 1.543.058 2.321l.283 1.902.498 2.791.506 2.792.3 1.756.174 1.236c.044.508.19 1.089.303 1.682l.501 1.851c.21.619.465 1.178.756 1.656.298.471.653.836 1.047 1.107.394.268.865.361 1.402.264.492-.108.892-.254 1.235-.528.293-.281.54-.582.765-.951.206-.314.358-.732.429-1.181.111-.425.17-.903.154-1.35.057-.484.073-.942.034-1.455l-.094-1.397-.372-2.162-.288-1.73-.28-1.639c-.04-.245-.005-.603.079-1.094l.427-1.518.613-1.38c.242-.408.483-.631.741-.672.359-.054.652-.005.88.162.266.139.458.395.585.673.173.295.288.627.368.967l.171.981c.141.72.215 1.488.231 2.265l.052 2.325.035 2.282c.042.779.087 1.547.231 2.279l.225 1.175.514 1.466c.229.503.497.908.838 1.242.313.349.716.464 1.19.395.679-.11 1.283-.503 1.719-1.156z"/><path d="m157.766 20.659c.875-.7 1.606-1.449 2.151-2.263.57-.863.873-1.716.831-2.558.023-.536-.206-.957-.656-1.279-.42-.332-.902-.458-1.477-.452-.485.033-.961.17-1.422.42l-1.425.918-1.473.892c-.527.282-1.046.41-1.574.429-.714.02-1.365-.139-1.896-.454-.52-.288-.865-.805-.978-1.551 1.223-.104 2.407-.376 3.548-.898 1.158-.493 2.167-1.144 3.038-1.915.913-.796 1.604-1.714 2.119-2.781.523-1.023.777-2.154.766-3.354-.021-.893-.205-1.712-.613-2.431-.371-.731-.888-1.356-1.502-1.866-.649-.492-1.379-.913-2.229-1.166-.844-.248-1.71-.381-2.614-.346-1.634.039-3.041.489-4.2 1.321-1.143.866-2.127 1.914-2.86 3.157-.757 1.204-1.329 2.56-1.659 4.024-.378 1.445-.52 2.798-.515 4.065.013 1.202.249 2.41.666 3.649.379 1.253.973 2.372 1.736 3.379.771 1 1.729 1.842 2.869 2.484 1.123.615 2.418.926 3.855.868.828-.033 1.74-.229 2.729-.682.99-.415 1.932-.956 2.785-1.61zm-6.9-11.313-1.344.345c.041-.431.088-.899.239-1.423.163-.491.352-.993.603-1.446.269-.422.597-.798 1.017-1.144.402-.293.874-.437 1.487-.447.404-.038.721.156.917.482.168.368.272.699.274 1.045.014.438-.148.849-.5 1.164-.297.361-.712.627-1.175.877-.483.219-.972.406-1.518.547z"/><path d="m178.785 22.301c.474-.333.75-.715.783-1.221.033-.395-.063-.691-.323-.946-.271-.255-.583-.452-.956-.615l-1.201-.358-1.003-.177c-1.102-.14-2.195-.169-3.332-.133l-3.358.281 1.093-1.172 1.875-2.058 2.3-2.452 2.208-2.479 1.738-1.965.832-1.098.201-.542.09-.528c.076-.638-.072-1.214-.514-1.691-.406-.492-.942-.925-1.57-1.245-.641-.344-1.316-.601-2.024-.771-.688-.211-1.259-.327-1.771-.39l-1.757-.103c-.757-.027-1.53-.015-2.35.054l-2.535.293c-.871.135-1.648.308-2.35.548-.754.231-1.333.496-1.769.849-.481.333-.747.715-.804 1.157-.028.357.056.691.305.991.217.317.48.576.793.843.324.227.683.444 1.088.6.37.165.706.244 1.022.283l1.437.063 1.778-.097 1.771-.174 1.46-.141-1.604 1.526-2.196 2.021-2.349 2.322c-.799.782-1.546 1.573-2.222 2.373-.662.75-1.214 1.492-1.682 2.159-.43.687-.687 1.262-.749 1.779-.082.641.173 1.197.712 1.635.533.435 1.167.786 1.918 1.043.785.246 1.549.465 2.349.585l1.855.244 1.766.129 2.356.022 2.563-.159c.884-.098 1.658-.271 2.379-.481.687-.198 1.271-.465 1.747-.804z"/><path d="m169.036 355.128c-.614.029-1.172-.039-1.648-.214-.288-.127-.525-.28-.679-.472-.182-.171-.214-.391-.097-.702.125-.292.374-.536.751-.712.382-.179.811-.314 1.293-.41.485-.095.967-.121 1.448-.078.449.045.835.1 1.123.224l.119.046.106.084-.728 2.108zm4.892 5.908c.39-.508.697-1.04.954-1.618l.627-1.412.963-2.606c.293-.921.558-1.831.775-2.783.229-.93.412-1.86.492-2.818.098-.932.1-1.848.003-2.756-.029-.637-.2-1.211-.464-1.776-.262-.563-.578-1.105-.994-1.565-.412-.466-.877-.897-1.405-1.249-.531-.372-1.057-.647-1.662-.887-.607-.247-1.339-.396-2.163-.471-.824-.073-1.639-.051-2.432.085-.792.144-1.491.398-2.136.769-.615.382-1.084.928-1.335 1.603-.187.446-.156.858.045 1.291.23.417.565.718 1.039.893.448.182.875.243 1.276.19l1.271-.17c.417-.092.857-.134 1.314-.155.456-.009.958.085 1.514.283.646.258 1.088.64 1.311 1.19.21.527.183 1.093-.082 1.737l-.099.281-.144.258c-.856-.22-1.853-.379-3.024-.487-1.157-.084-2.305-.073-3.441.1-1.142.166-2.152.472-3.072.97-.923.494-1.599 1.236-1.971 2.192-.232.564-.311 1.163-.27 1.825.009.658.174 1.294.426 1.903.259.63.59 1.196 1.06 1.701.419.488.957.861 1.605 1.12.88.343 1.824.525 2.855.538.996.024 1.946-.121 2.863-.419-.331.708-.366 1.413-.132 2.054.251.671.767 1.152 1.572 1.463.567.229 1.1.174 1.576-.077.485-.301.922-.699 1.285-1.197z"/><path d="m187.061 365.436c.789-.461 1.546-1.043 2.292-1.812 1.184-1.221 2.341-2.569 3.485-4.031l3.197-4.222c.536-.699.966-1.386 1.37-2.089.4-.672.69-1.321.833-1.9.139-.577.129-1.055-.039-1.489-.199-.425-.627-.674-1.266-.795-.696-.156-1.494.115-2.414.806-.92.685-1.834 1.521-2.771 2.544-.488.512-.938 1.015-1.339 1.557l-1.246 1.544-1.079 1.433-.91 1.229c-.202-.586-.294-1.148-.386-1.719l-.149-1.731-.095-1.824-.132-1.832-.249-1.718c-.11-.522-.261-1.005-.421-1.417-.151-.41-.343-.739-.604-.998-.229-.276-.538-.424-.92-.505-.941-.172-1.665-.029-2.134.446-.437.468-.792 1.114-1.016 1.955-.145.584-.261 1.215-.313 1.914l-.081 2.124.073 2.156.152 1.953.319 2.234c.167.945.392 1.874.7 2.821.305.953.656 1.787 1.128 2.501.451.754.995 1.176 1.663 1.278.808.173 1.596.03 2.352-.413z"/><path d="m211.499 369.376c.405-.422.708-.929.903-1.52.215-.608.352-1.246.422-1.877l.166-1.582.113-2.833c.026-.952 0-1.939-.062-2.922-.083-.972-.202-1.95-.412-2.89-.201-.944-.449-1.835-.824-2.704-.241-.584-.593-1.131-1.01-1.601-.427-.48-.916-.88-1.458-1.196-.538-.358-1.127-.622-1.744-.803-.632-.209-1.255-.322-1.874-.36-.688-.05-1.439-.008-2.257.177-.845.188-1.597.438-2.328.812-.729.373-1.321.816-1.824 1.385-.506.572-.792 1.241-.825 1.965-.041.487.125.913.458 1.259.324.351.772.516 1.284.537.459.059.897-.012 1.292-.166l1.165-.575 1.219-.534c.457-.181.974-.215 1.556-.184.729.059 1.274.306 1.636.782.367.429.542 1.019.495 1.711l-.039.285-.06.297c-.91.05-1.901.218-3.087.466-1.163.236-2.251.613-3.295 1.1-1.058.526-1.943 1.139-2.695 1.894-.75.748-1.153 1.678-1.235 2.721-.047.62.047 1.255.301 1.866.228.637.565 1.216 1.011 1.742.42.549.95.969 1.525 1.335.588.33 1.218.541 1.91.588.973.085 1.953-.041 2.921-.323.972-.286 1.876-.707 2.676-1.279-.088.813.084 1.468.53 2.066.418.537 1.076.873 1.941.938.624.037 1.131-.17 1.505-.577zm-5.669-5.799c-.605.216-1.165.302-1.675.275-.318-.021-.554-.111-.783-.24-.229-.127-.33-.346-.307-.658.009-.343.164-.649.497-.94.293-.302.679-.544 1.136-.792.439-.205.889-.38 1.363-.503.45-.111.833-.153 1.147-.131l.145.031.144.03-.069 2.279z"/><path d="m229.411 368.617c.479-.564.868-1.231 1.18-2.067.302-.864.573-1.785.75-2.771l.452-2.944.158-2.59-.037-1.749c-.043-.769-.142-1.654-.305-2.617-.136-.973-.407-1.854-.79-2.676-.383-.823-.974-1.48-1.694-1.973-.762-.504-1.738-.712-3.018-.599-.643.061-1.225.158-1.727.355-.519.174-.97.418-1.376.68-.405.256-.754.559-1.068.874l-.786 1.025-.379-.898c-.144-.309-.359-.622-.598-.892-.214-.319-.491-.539-.751-.72-.295-.181-.62-.271-.96-.253-.771.09-1.334.387-1.693.896-.363.511-.571 1.125-.708 1.811-.123.718-.16 1.389-.123 2.136l.106 1.743.237 2.551.266 2.61.111 1.601.05 1.16.155 1.543.312 1.723c.124.56.335 1.087.548 1.544.211.454.522.826.854 1.087.343.29.75.408 1.257.35.434-.034.806-.14 1.126-.356.294-.2.548-.489.758-.8.208-.298.389-.666.502-1.026.124-.401.21-.823.235-1.219l.138-1.299.024-1.295-.155-1.999-.148-1.593-.121-1.532c-.023-.196.039-.535.179-.984l.477-1.323.701-1.189c.229-.349.451-.559.688-.563.307-.036.584.036.81.212.202.141.351.387.441.654.131.28.213.595.254.923l.095.885.026 2.096-.141 2.102-.146 2.107.017 2.067.149 1.066.33 1.405c.17.439.397.852.653 1.182.262.326.609.474 1.026.455.648-.063 1.218-.361 1.659-.916z"/><path d="m248.292 365.472c.394-.316.702-.67.923-1.071.217-.414.281-.854.168-1.311-.117-.625-.381-1.116-.744-1.463-.364-.343-.818-.437-1.438-.319l-1.04.318-.967.308c-.557.121-.988.057-1.346-.12-.355-.179-.648-.445-.875-.786-.21-.315-.377-.675-.495-1.063l-.267-1.01-.189-1.199-.135-1.17-.309-2.34-.267-2.605c.508-.137 1.048-.354 1.584-.604.563-.229 1.067-.53 1.56-.86.446-.342.823-.696 1.081-1.078.254-.399.352-.781.264-1.184-.063-.345-.258-.63-.528-.849-.301-.198-.634-.348-1.033-.399-.385-.095-.842-.126-1.268-.094l-1.264.176-.375.075-.786.269c.027-.732.057-1.325-.002-1.811l-.168-1.384-.397-1.147c-.182-.392-.398-.701-.669-.988-.265-.285-.562-.484-.9-.636-.345-.153-.694-.186-1.068-.112-.657.126-1.13.485-1.457 1.018-.333.524-.53 1.127-.626 1.862-.11.696-.132 1.46-.046 2.229.054.764.175 1.462.308 2.108-.511.141-1.027.345-1.554.591-.556.259-1.035.548-1.48.888-.43.305-.771.673-1.028 1.06-.256.393-.326.769-.237 1.174.136.645.525 1.048 1.123 1.245.627.186 1.289.218 2.064.067l.443-.14.771-.163c.092 1.224.259 2.373.424 3.457l.564 3.177.931 3.523c.315 1.049.788 1.915 1.405 2.581.629.629 1.445 1.069 2.459 1.281 1.014.21 2.34.168 4.002-.194l1.495-.49c.537-.245.98-.527 1.389-.817z"/><path d="m268.385 356.524c.541-.853.869-1.736.951-2.637.345.531.855.897 1.46 1.185.629.269 1.269.271 1.928-.035.499-.232.795-.538.929-.965.137-.433.164-.876.113-1.353-.095-.488-.219-.965-.396-1.415l-.491-1.202c-.518-1.187-1.106-2.376-1.699-3.5-.601-1.15-1.177-2.318-1.71-3.533-.661-1.493-1.252-2.981-1.786-4.499-.543-1.515-1.134-3.006-1.794-4.501l-.689-1.407c-.274-.505-.571-.931-.937-1.293-.347-.371-.754-.614-1.213-.735-.476-.146-1.03-.051-1.652.206-.582.271-.946.636-1.11 1.079-.147.474-.221.973-.14 1.496.076.528.195 1.078.371 1.598l.53 1.414 1.871 4.957c-.651-.461-1.419-.738-2.311-.853-.922-.103-1.745.011-2.527.343-.72.336-1.287.771-1.699 1.324-.425.535-.706 1.163-.888 1.848-.155.674-.224 1.4-.203 2.159.021.756.101 1.515.244 2.251.14.736.308 1.456.558 2.135.215.671.42 1.268.666 1.795.317.68.8 1.492 1.462 2.34.68.889 1.419 1.672 2.307 2.363.846.668 1.755 1.179 2.752 1.516.98.309 1.959.248 2.93-.204.885-.385 1.633-1.022 2.173-1.877zm-4.916-3.407c-.353-.27-.725-.628-1.051-1.041-.337-.445-.653-.898-.896-1.351l-.554-1.044-.349-.965c-.15-.396-.216-.765-.251-1.12-.041-.382.012-.703.156-1.036.145-.338.399-.589.784-.768.334-.157.715-.201 1.109-.146.347.03.744.151 1.119.313.375.155.711.361 1.011.589l.848.668.612 1.382.637 1.367.101.218-.325.892-.459.876-.582.769c-.224.24-.506.437-.783.564-.359.174-.721.11-1.127-.167z"/><path d="m272.161 334.945c.14-.523.197-1.121.174-1.778-.018-.635-.107-1.268-.236-1.914-.111-.625-.261-1.093-.477-1.412-.454-.823-1.097-1.23-1.873-1.262-.788-.06-1.567.13-2.325.588-.654.374-1.1.904-1.315 1.573-.223.633-.116 1.296.25 1.938.259.484.688.815 1.256.981.528.174 1.057.113 1.537-.186.171-.08.316-.221.475-.4l.346-.513c.108.231.187.478.195.722l.016.847.056.858c.022.271.116.552.268.798.237.423.579.512.997.279.311-.208.531-.566.656-1.119z"/><path d="m292.848 344.747c1.114-.836 1.886-1.776 2.349-2.855.418-1.09.615-2.213.566-3.396-.08-1.169-.353-2.352-.801-3.557-.496-1.214-1.038-2.304-1.728-3.318-.578-.939-1.39-1.836-2.315-2.677-.944-.874-1.997-1.516-3.108-1.995-1.086-.496-2.266-.738-3.51-.71-1.205.01-2.377.409-3.52 1.258-1.169.858-1.992 1.859-2.446 3.034-.425 1.16-.62 2.352-.529 3.62.09 1.271.413 2.498.922 3.74.508 1.24 1.122 2.334 1.869 3.329.68.919 1.526 1.738 2.494 2.521.963.761 2.019 1.336 3.125 1.719 1.108.38 2.218.548 3.369.494 1.16-.06 2.249-.467 3.263-1.207zm-3.768-4.17c-.438-.107-.928-.326-1.407-.65-.497-.293-.962-.697-1.464-1.148-.451-.445-.883-.902-1.194-1.339-.27-.355-.542-.78-.794-1.324-.283-.52-.484-1.04-.666-1.578-.153-.553-.249-1.057-.239-1.509.029-.461.194-.813.489-1.025.311-.246.691-.282 1.127-.179.446.111.896.305 1.369.642.464.3.92.668 1.377 1.114.413.429.815.826 1.11 1.236l.989 1.501c.299.559.547 1.092.719 1.63.18.538.261 1.023.215 1.453-.01.453-.207.789-.518 1.033-.291.205-.656.271-1.113.143z"/><path d="m306.701 331.181c1.034-1.048 1.687-2.117 1.953-3.251.278-1.102.306-2.212.046-3.303-.235-1.128-.695-2.184-1.34-3.221-.682-1.056-1.443-2.011-2.295-2.884l-.985-.948c-.407-.413-.876-.796-1.408-1.186l-1.682-1.162c-.58-.363-1.165-.656-1.71-.871-.556-.175-1.084-.27-1.616-.256-.497.032-.911.226-1.255.583-.26.261-.42.529-.51.878-.097.347-.111.65-.076 1.003.067.343.148.669.303 1 .141.301.338.579.586.835l.33.313 2.263 1.791c.753.585 1.466 1.228 2.145 1.944l.984 1.085c.337.446.595.863.811 1.327.208.445.305.93.265 1.387-.034.484-.234.943-.649 1.345-.316.343-.632.489-.983.49-.349-.006-.708-.102-1.079-.27-.335-.176-.673-.424-.982-.679l-.803-.771c-.475-.474-.903-.986-1.315-1.525l-1.228-1.607-.835-1.251c-.288-.407-.592-.796-.955-1.163l-.827-.755c-.31-.255-.661-.463-1.024-.63-.368-.161-.742-.222-1.08-.193-.366.028-.704.186-1.003.5-.346.357-.475.822-.459 1.413.041.623.163 1.229.38 1.904.218.668.474 1.282.781 1.878l.754 1.354c.696 1.15 1.505 2.212 2.437 3.186.85.872 1.763 1.659 2.745 2.336.986.687 2 1.149 3.039 1.399 1.05.282 2.119.251 3.191-.047 1.056-.257 2.102-.946 3.086-1.978z"/><path d="m319.669 316.643c.488-.661.665-1.417.563-2.278-.104-.855-.365-1.775-.777-2.728-.675-1.533-1.477-3.105-2.386-4.698l-2.724-4.512c-.443-.733-.929-1.416-1.408-2.032-.496-.639-.956-1.129-1.451-1.469-.476-.384-.952-.57-1.438-.542-.47-.01-.878.243-1.259.786-.426.573-.513 1.383-.237 2.469.269 1.074.713 2.246 1.293 3.494l.904 1.792.997 1.722.904 1.525.771 1.285c-.602-.085-1.209-.173-1.759-.357l-1.709-.55-1.773-.614-1.804-.604-1.73-.441c-.548-.11-1.043-.182-1.476-.18-.47-.017-.874.038-1.227.134-.337.124-.638.331-.831.622-.553.795-.73 1.483-.459 2.062.254.618.735 1.166 1.438 1.679.505.368 1.081.745 1.689 1.062l1.969.897 2.07.747 1.947.641c.519.192 1.27.38 2.234.599.936.245 1.938.407 2.951.512 1.003.101 1.96.095 2.824-.041.883-.107 1.526-.436 1.894-.982z"/><path d="m329.032 303.356c.243-.443.348-.896.253-1.318-.11-.453-.316-.824-.594-1.201-.275-.374-.615-.715-1-1.037l-1.075-.737-1.183-.685-1.652-.875-1.553-.876c-.476-.283-.82-.492-1.023-.703l-.879-.995c-.247-.385-.467-.786-.631-1.21-.149-.398-.242-.822-.264-1.25-.028-.422.077-.874.293-1.307.089-.243.239-.444.413-.591l.553-.463.56-.49c.195-.192.356-.438.493-.73.364-.637.441-1.282.375-1.884-.119-.617-.499-1.073-1.16-1.366-.562-.24-1.104-.357-1.662-.299-.563.062-1.071.232-1.526.509-.489.293-.922.631-1.303 1.078-.376.448-.71.934-.969 1.418-.519 1.045-.697 2.002-.553 2.906.128.875.445 1.763.963 2.667-.303-.131-.671-.259-1.088-.331-.4-.121-.804-.161-1.22-.171-.419 0-.812.046-1.156.207-.354.13-.656.373-.837.72-.383.678-.488 1.268-.384 1.788.119.545.376 1.023.745 1.455.381.429.818.791 1.324 1.123l1.459.83 2.169.999 2.218.973.874.462 1.189.618 1.406.649 1.521.591 1.503.406c.513.131.987.18 1.431.171.412-.02.789-.098 1.161-.271.34-.157.603-.413.809-.78z"/><path d="m335.393 288.197c.212-.567.205-1.103.004-1.608-.229-.492-.559-.978-1.078-1.437-.482-.448-1.073-.839-1.733-1.236l-2.027-1.065-1.908-.816-1.425-.574-.905-.417-.923-.374-1.672-.595c-.746-.285-1.519-.492-2.339-.642-.823-.158-1.574-.173-2.282-.083-.672.085-1.166.413-1.396 1.02-.251.551-.258 1.124-.026 1.619.217.539.58 1.033 1.108 1.497.514.457 1.105.921 1.805 1.332.657.394 1.349.777 2.039 1.089l1.995.849 1.418.572 1.165.463 1.745.596 2 .579c.695.176 1.355.274 1.939.292.62.02 1.174-.037 1.603-.205.447-.141.757-.426.893-.856zm-20.707-7.091c.339-.221.614-.584.794-1.006l.212-.939c.016-.333.021-.675-.066-1.004-.055-.344-.179-.613-.337-.879-.162-.264-.387-.456-.695-.546-.459-.193-.848-.142-1.199.123-.312.28-.559.629-.739 1.045-.101.281-.197.597-.236.947-.057.329-.035.657.01.968.071.297.203.576.357.839.152.257.405.443.734.557.43.204.813.162 1.165-.105z"/><path d="m339.117 279.132c.313-.21.528-.558.619-.942.151-.488.133-.96-.064-1.383-.185-.395-.453-.751-.823-1.103-.374-.307-.772-.565-1.223-.8l-1.161-.531-1.342-.473-1.795-.578-1.713-.544-1.163-.524c-.346-.219-.707-.499-1.033-.831-.365-.347-.659-.692-.917-1.086-.235-.371-.42-.766-.523-1.203-.128-.424-.135-.868-.012-1.34.046-.256.138-.511.261-.672l.415-.574.456-.619c.146-.208.231-.45.309-.803.186-.701.152-1.349-.095-1.949-.232-.583-.72-.977-1.409-1.138-.608-.131-1.156-.146-1.681.028-.519.134-.994.426-1.373.78-.395.384-.734.822-1.006 1.33-.281.505-.5 1.052-.62 1.588-.286 1.139-.229 2.14.099 2.992.327.844.856 1.695 1.576 2.499-.35-.078-.718-.146-1.13-.161l-1.263.07c-.374.073-.749.215-1.058.428-.31.208-.548.49-.642.881-.211.713-.181 1.359.056 1.866.235.505.578.938 1.047 1.307.439.343.958.65 1.532.866l1.603.533 2.319.601 2.36.56.959.305 1.29.36 1.506.402 1.609.321 1.589.125c.513-.003.969-.042 1.37-.124.429-.098.808-.24 1.071-.464z"/><path d="m249.355 44.875c24.547 12.225 46.377 28.744 58.983 53.721 12.613 24.987 13.56 53.295 6.741 80.033-1.814 7.119 8.471 11.282 10.951 4.029 19.247-56.28-15.656-129.601-75.495-142.958-3.199-.714-3.658 3.942-1.18 5.175z"/><path d="m305.623 160.14c-2.831 12.254-3.11 27.196 11.487 31.654 11.484 3.511 29.477-4.086 32.75-16.195.67-2.461-1.138-5.645-4.079-4.936-8.643 2.085-13.664 11.901-23.282 11.557-10.388-.374-11.096-13.736-11.46-21.567-.128-2.743-4.796-3.199-5.416-.513z"/><path d="m104.584 301.187c-24.912-11.465-47.239-27.306-60.606-51.883-13.376-24.587-15.191-52.854-9.199-79.788 1.596-7.171-8.813-11.017-11.068-3.692-17.508 56.846 19.631 129.06 79.852 140.573 3.221.615 3.535-4.054 1.021-5.21z"/><path d="m44.8 187.705c2.453-12.336 2.272-27.278-12.456-31.287-11.587-3.154-29.335 4.992-32.236 17.194-.594 2.481 1.31 5.607 4.23 4.809 8.573-2.35 13.291-12.316 22.916-12.268 10.393.054 11.512 13.389 12.117 21.205.212 2.739 4.893 3.051 5.429.347z"/></g></svg>